<?xml version="1.0" encoding="utf-8" standalone="no"?>
<!DOCTYPE svg PUBLIC "-//W3C//DTD SVG 1.1//EN"
  "http://www.w3.org/Graphics/SVG/1.1/DTD/svg11.dtd">
<svg height="372.649375pt" version="1.1" viewBox="0 0 341.060937 372.649375" width="341.060937pt" xmlns="http://www.w3.org/2000/svg" xmlns:xlink="http://www.w3.org/1999/xlink">
 <metadata>
  <rdf:RDF xmlns:cc="http://creativecommons.org/ns#" xmlns:dc="http://purl.org/dc/elements/1.1/" xmlns:rdf="http://www.w3.org/1999/02/22-rdf-syntax-ns#">
   <cc:Work>
    <dc:type rdf:resource="http://purl.org/dc/dcmitype/StillImage"/>
    <dc:date>2022-06-19T01:43:06.951322</dc:date>
    <dc:format>image/svg+xml</dc:format>
    <dc:creator>
     <cc:Agent>
      <dc:title>Matplotlib v3.4.3, https://matplotlib.org/</dc:title>
     </cc:Agent>
    </dc:creator>
   </cc:Work>
  </rdf:RDF>
 </metadata>
 <defs>
  <style type="text/css">*{stroke-linecap:butt;stroke-linejoin:round;}</style>
 </defs>
 <g id="figure_1">
  <g id="patch_1">
   <path d="M 0 372.649375 
L 341.060937 372.649375 
L 341.060937 0 
L 0 0 
z
" style="fill:#ffffff;"/>
  </g>
  <g id="axes_1">
   <g id="patch_2">
    <path d="M 40.603125 84.090852 
L 319.603125 84.090852 
L 319.603125 22.318125 
L 40.603125 22.318125 
z
" style="fill:#ffffff;"/>
   </g>
   <g id="matplotlib.axis_1">
    <g id="xtick_1">
     <g id="line2d_1">
      <defs>
       <path d="M 0 0 
L 0 3.5 
" id="m6c5a77e3b3" style="stroke:#000000;stroke-width:0.8;"/>
      </defs>
      <g>
       <use style="stroke:#000000;stroke-width:0.8;" x="40.603125" xlink:href="#m6c5a77e3b3" y="84.090852"/>
      </g>
     </g>
     <g id="text_1">
      <!-- 1 -->
      <g transform="translate(37.421875 98.68929)scale(0.1 -0.1)">
       <defs>
        <path d="M 794 531 
L 1825 531 
L 1825 4091 
L 703 3866 
L 703 4441 
L 1819 4666 
L 2450 4666 
L 2450 531 
L 3481 531 
L 3481 0 
L 794 0 
L 794 531 
z
" id="DejaVuSans-31" transform="scale(0.015625)"/>
       </defs>
       <use xlink:href="#DejaVuSans-31"/>
      </g>
     </g>
    </g>
    <g id="xtick_2">
     <g id="line2d_2">
      <g>
       <use style="stroke:#000000;stroke-width:0.8;" x="99.339967" xlink:href="#m6c5a77e3b3" y="84.090852"/>
      </g>
     </g>
     <g id="text_2">
      <!-- 5 -->
      <g transform="translate(96.158717 98.68929)scale(0.1 -0.1)">
       <defs>
        <path d="M 691 4666 
L 3169 4666 
L 3169 4134 
L 1269 4134 
L 1269 2991 
Q 1406 3038 1543 3061 
Q 1681 3084 1819 3084 
Q 2600 3084 3056 2656 
Q 3513 2228 3513 1497 
Q 3513 744 3044 326 
Q 2575 -91 1722 -91 
Q 1428 -91 1123 -41 
Q 819 9 494 109 
L 494 744 
Q 775 591 1075 516 
Q 1375 441 1709 441 
Q 2250 441 2565 725 
Q 2881 1009 2881 1497 
Q 2881 1984 2565 2268 
Q 2250 2553 1709 2553 
Q 1456 2553 1204 2497 
Q 953 2441 691 2322 
L 691 4666 
z
" id="DejaVuSans-35" transform="scale(0.015625)"/>
       </defs>
       <use xlink:href="#DejaVuSans-35"/>
      </g>
     </g>
    </g>
    <g id="xtick_3">
     <g id="line2d_3">
      <g>
       <use style="stroke:#000000;stroke-width:0.8;" x="172.76102" xlink:href="#m6c5a77e3b3" y="84.090852"/>
      </g>
     </g>
     <g id="text_3">
      <!-- 10 -->
      <g transform="translate(166.39852 98.68929)scale(0.1 -0.1)">
       <defs>
        <path d="M 2034 4250 
Q 1547 4250 1301 3770 
Q 1056 3291 1056 2328 
Q 1056 1369 1301 889 
Q 1547 409 2034 409 
Q 2525 409 2770 889 
Q 3016 1369 3016 2328 
Q 3016 3291 2770 3770 
Q 2525 4250 2034 4250 
z
M 2034 4750 
Q 2819 4750 3233 4129 
Q 3647 3509 3647 2328 
Q 3647 1150 3233 529 
Q 2819 -91 2034 -91 
Q 1250 -91 836 529 
Q 422 1150 422 2328 
Q 422 3509 836 4129 
Q 1250 4750 2034 4750 
z
" id="DejaVuSans-30" transform="scale(0.015625)"/>
       </defs>
       <use xlink:href="#DejaVuSans-31"/>
       <use x="63.623047" xlink:href="#DejaVuSans-30"/>
      </g>
     </g>
    </g>
    <g id="xtick_4">
     <g id="line2d_4">
      <g>
       <use style="stroke:#000000;stroke-width:0.8;" x="246.182072" xlink:href="#m6c5a77e3b3" y="84.090852"/>
      </g>
     </g>
     <g id="text_4">
      <!-- 15 -->
      <g transform="translate(239.819572 98.68929)scale(0.1 -0.1)">
       <use xlink:href="#DejaVuSans-31"/>
       <use x="63.623047" xlink:href="#DejaVuSans-35"/>
      </g>
     </g>
    </g>
    <g id="xtick_5">
     <g id="line2d_5">
      <g>
       <use style="stroke:#000000;stroke-width:0.8;" x="319.603125" xlink:href="#m6c5a77e3b3" y="84.090852"/>
      </g>
     </g>
     <g id="text_5">
      <!-- 20 -->
      <g transform="translate(313.240625 98.68929)scale(0.1 -0.1)">
       <defs>
        <path d="M 1228 531 
L 3431 531 
L 3431 0 
L 469 0 
L 469 531 
Q 828 903 1448 1529 
Q 2069 2156 2228 2338 
Q 2531 2678 2651 2914 
Q 2772 3150 2772 3378 
Q 2772 3750 2511 3984 
Q 2250 4219 1831 4219 
Q 1534 4219 1204 4116 
Q 875 4013 500 3803 
L 500 4441 
Q 881 4594 1212 4672 
Q 1544 4750 1819 4750 
Q 2544 4750 2975 4387 
Q 3406 4025 3406 3419 
Q 3406 3131 3298 2873 
Q 3191 2616 2906 2266 
Q 2828 2175 2409 1742 
Q 1991 1309 1228 531 
z
" id="DejaVuSans-32" transform="scale(0.015625)"/>
       </defs>
       <use xlink:href="#DejaVuSans-32"/>
       <use x="63.623047" xlink:href="#DejaVuSans-30"/>
      </g>
     </g>
    </g>
   </g>
   <g id="matplotlib.axis_2">
    <g id="ytick_1">
     <g id="line2d_6">
      <defs>
       <path d="M 0 0 
L -3.5 0 
" id="m256464642e" style="stroke:#000000;stroke-width:0.8;"/>
      </defs>
      <g>
       <use style="stroke:#000000;stroke-width:0.8;" x="40.603125" xlink:href="#m256464642e" y="84.090852"/>
      </g>
     </g>
     <g id="text_6">
      <!-- 0 -->
      <g transform="translate(27.240625 87.890071)scale(0.1 -0.1)">
       <use xlink:href="#DejaVuSans-30"/>
      </g>
     </g>
    </g>
    <g id="ytick_2">
     <g id="line2d_7">
      <g>
       <use style="stroke:#000000;stroke-width:0.8;" x="40.603125" xlink:href="#m256464642e" y="62.050889"/>
      </g>
     </g>
     <g id="text_7">
      <!-- 25 -->
      <g transform="translate(20.878125 65.850108)scale(0.1 -0.1)">
       <use xlink:href="#DejaVuSans-32"/>
       <use x="63.623047" xlink:href="#DejaVuSans-35"/>
      </g>
     </g>
    </g>
    <g id="ytick_3">
     <g id="line2d_8">
      <g>
       <use style="stroke:#000000;stroke-width:0.8;" x="40.603125" xlink:href="#m256464642e" y="40.010926"/>
      </g>
     </g>
     <g id="text_8">
      <!-- 50 -->
      <g transform="translate(20.878125 43.810145)scale(0.1 -0.1)">
       <use xlink:href="#DejaVuSans-35"/>
       <use x="63.623047" xlink:href="#DejaVuSans-30"/>
      </g>
     </g>
    </g>
   </g>
   <g id="line2d_9">
    <path clip-path="url(#p7302ba52a0)" d="M 40.603125 30.198734 
L 55.287336 61.310346 
L 69.971546 70.373179 
L 84.655757 75.089731 
L 99.339967 75.997778 
L 114.024178 76.244625 
L 128.708388 76.403313 
L 143.392599 76.156466 
L 158.076809 76.403313 
L 172.76102 76.262257 
L 187.44523 76.403313 
L 202.129441 76.191729 
L 216.813651 76.156466 
L 231.497862 76.332785 
L 246.182072 76.420945 
L 260.866283 76.473841 
L 275.550493 76.262257 
L 290.234704 76.174097 
L 304.918914 76.385681 
L 319.603125 76.050674 
" style="fill:none;stroke:#1f77b4;stroke-linecap:square;stroke-width:1.5;"/>
   </g>
   <g id="line2d_10">
    <path clip-path="url(#p7302ba52a0)" d="M 40.603125 27.351171 
L 55.287336 60.666779 
L 69.971546 73.167847 
L 84.655757 75.301315 
L 99.339967 76.226993 
L 114.024178 76.438577 
L 128.708388 76.209361 
L 143.392599 76.385681 
L 158.076809 76.403313 
L 172.76102 76.262257 
L 187.44523 76.262257 
L 202.129441 76.350417 
L 216.813651 76.315153 
L 231.497862 76.174097 
L 246.182072 76.368049 
L 260.866283 76.279889 
L 275.550493 76.456209 
L 290.234704 76.262257 
L 304.918914 76.297521 
L 319.603125 76.332785 
" style="fill:none;stroke:#ff7f0e;stroke-linecap:square;stroke-width:1.5;"/>
   </g>
   <g id="line2d_11">
    <path clip-path="url(#p7302ba52a0)" d="M 40.603125 26.416677 
L 55.287336 63.152887 
L 69.971546 74.155237 
L 84.655757 75.944882 
L 99.339967 76.121202 
L 114.024178 76.244625 
L 128.708388 76.332785 
L 143.392599 76.332785 
L 158.076809 76.174097 
L 172.76102 76.209361 
L 187.44523 76.226993 
L 202.129441 76.332785 
L 216.813651 76.244625 
L 231.497862 76.297521 
L 246.182072 76.297521 
L 260.866283 76.509105 
L 275.550493 76.191729 
L 290.234704 76.544369 
L 304.918914 75.997778 
L 319.603125 76.297521 
" style="fill:none;stroke:#2ca02c;stroke-linecap:square;stroke-width:1.5;"/>
   </g>
   <g id="line2d_12">
    <path clip-path="url(#p7302ba52a0)" d="M 40.603125 34.474487 
L 55.287336 68.539454 
L 69.971546 75.080915 
L 84.655757 76.350417 
L 99.339967 76.174097 
L 114.024178 76.385681 
L 128.708388 76.226993 
L 143.392599 76.315153 
L 158.076809 76.244625 
L 172.76102 76.226993 
L 187.44523 76.385681 
L 202.129441 76.350417 
L 216.813651 76.297521 
L 231.497862 76.385681 
L 246.182072 76.368049 
L 260.866283 76.244625 
L 275.550493 76.456209 
L 290.234704 76.368049 
L 304.918914 75.980146 
L 319.603125 75.962514 
" style="fill:none;stroke:#d62728;stroke-linecap:square;stroke-width:1.5;"/>
   </g>
   <g id="line2d_13">
    <path clip-path="url(#p7302ba52a0)" d="M 40.603125 29.819647 
L 55.287336 61.380874 
L 69.971546 73.229558 
L 84.655757 76.138834 
L 99.339967 76.191729 
L 114.024178 76.262257 
L 128.708388 76.191729 
L 143.392599 76.244625 
L 158.076809 76.279889 
L 172.76102 76.191729 
L 187.44523 76.262257 
L 202.129441 76.138834 
L 216.813651 76.315153 
L 231.497862 76.174097 
L 246.182072 76.156466 
L 260.866283 76.156466 
L 275.550493 76.385681 
L 290.234704 76.350417 
L 304.918914 76.138834 
L 319.603125 76.332785 
" style="fill:none;stroke:#9467bd;stroke-linecap:square;stroke-width:1.5;"/>
   </g>
   <g id="line2d_14">
    <path clip-path="url(#p7302ba52a0)" d="M 40.603125 30.181102 
L 55.287336 58.630287 
L 69.971546 67.922335 
L 84.655757 72.929815 
L 99.339967 74.701828 
L 114.024178 76.01541 
L 128.708388 76.297521 
L 143.392599 76.138834 
L 158.076809 76.420945 
L 172.76102 76.403313 
L 187.44523 76.491473 
L 202.129441 76.209361 
L 216.813651 76.191729 
L 231.497862 76.368049 
L 246.182072 76.456209 
L 260.866283 76.262257 
L 275.550493 76.121202 
L 290.234704 76.368049 
L 304.918914 76.456209 
L 319.603125 76.068306 
" style="fill:none;stroke:#8c564b;stroke-linecap:square;stroke-width:1.5;"/>
   </g>
   <g id="line2d_15">
    <path clip-path="url(#p7302ba52a0)" d="M 40.603125 24.900327 
L 55.287336 60.516908 
L 69.971546 69.923564 
L 84.655757 75.592242 
L 99.339967 76.262257 
L 114.024178 76.209361 
L 128.708388 76.121202 
L 143.392599 76.244625 
L 158.076809 76.068306 
L 172.76102 76.174097 
L 187.44523 76.262257 
L 202.129441 76.191729 
L 216.813651 76.10357 
L 231.497862 76.244625 
L 246.182072 76.10357 
L 260.866283 76.191729 
L 275.550493 75.997778 
L 290.234704 76.491473 
L 304.918914 76.10357 
L 319.603125 76.085938 
" style="fill:none;stroke:#e377c2;stroke-linecap:square;stroke-width:1.5;"/>
   </g>
   <g id="line2d_16">
    <path clip-path="url(#p7302ba52a0)" d="M 40.603125 27.783154 
L 55.287336 57.819216 
L 69.971546 68.327871 
L 84.655757 72.956263 
L 99.339967 75.592242 
L 114.024178 76.068306 
L 128.708388 76.473841 
L 143.392599 76.156466 
L 158.076809 76.438577 
L 172.76102 76.085938 
L 187.44523 76.191729 
L 202.129441 76.209361 
L 216.813651 76.385681 
L 231.497862 76.473841 
L 246.182072 75.92725 
L 260.866283 76.526737 
L 275.550493 76.244625 
L 290.234704 76.403313 
L 304.918914 76.174097 
L 319.603125 76.033042 
" style="fill:none;stroke:#7f7f7f;stroke-linecap:square;stroke-width:1.5;"/>
   </g>
   <g id="line2d_17">
    <path clip-path="url(#p7302ba52a0)" d="M 40.603125 26.425493 
L 55.287336 52.397385 
L 69.971546 63.778822 
L 84.655757 72.762311 
L 99.339967 73.926021 
L 114.024178 75.010387 
L 128.708388 75.962514 
L 143.392599 75.891986 
L 158.076809 76.279889 
L 172.76102 75.980146 
L 187.44523 76.244625 
L 202.129441 76.226993 
L 216.813651 76.121202 
L 231.497862 76.279889 
L 246.182072 76.526737 
L 260.866283 76.279889 
L 275.550493 75.874354 
L 290.234704 76.315153 
L 304.918914 76.209361 
L 319.603125 76.279889 
" style="fill:none;stroke:#bcbd22;stroke-linecap:square;stroke-width:1.5;"/>
   </g>
   <g id="line2d_18">
    <path clip-path="url(#p7302ba52a0)" d="M 40.603125 76.156466 
L 319.603125 76.156466 
" style="fill:none;stroke:#808080;stroke-dasharray:5.55,2.4;stroke-dashoffset:0;stroke-width:1.5;"/>
   </g>
   <g id="patch_3">
    <path d="M 40.603125 84.090852 
L 40.603125 22.318125 
" style="fill:none;stroke:#000000;stroke-linecap:square;stroke-linejoin:miter;stroke-width:0.8;"/>
   </g>
   <g id="patch_4">
    <path d="M 40.603125 84.090852 
L 319.603125 84.090852 
" style="fill:none;stroke:#000000;stroke-linecap:square;stroke-linejoin:miter;stroke-width:0.8;"/>
   </g>
   <g id="text_9">
    <!-- Linear Track -->
    <g transform="translate(143.851875 16.318125)scale(0.12 -0.12)">
     <defs>
      <path d="M 628 4666 
L 1259 4666 
L 1259 531 
L 3531 531 
L 3531 0 
L 628 0 
L 628 4666 
z
" id="DejaVuSans-4c" transform="scale(0.015625)"/>
      <path d="M 603 3500 
L 1178 3500 
L 1178 0 
L 603 0 
L 603 3500 
z
M 603 4863 
L 1178 4863 
L 1178 4134 
L 603 4134 
L 603 4863 
z
" id="DejaVuSans-69" transform="scale(0.015625)"/>
      <path d="M 3513 2113 
L 3513 0 
L 2938 0 
L 2938 2094 
Q 2938 2591 2744 2837 
Q 2550 3084 2163 3084 
Q 1697 3084 1428 2787 
Q 1159 2491 1159 1978 
L 1159 0 
L 581 0 
L 581 3500 
L 1159 3500 
L 1159 2956 
Q 1366 3272 1645 3428 
Q 1925 3584 2291 3584 
Q 2894 3584 3203 3211 
Q 3513 2838 3513 2113 
z
" id="DejaVuSans-6e" transform="scale(0.015625)"/>
      <path d="M 3597 1894 
L 3597 1613 
L 953 1613 
Q 991 1019 1311 708 
Q 1631 397 2203 397 
Q 2534 397 2845 478 
Q 3156 559 3463 722 
L 3463 178 
Q 3153 47 2828 -22 
Q 2503 -91 2169 -91 
Q 1331 -91 842 396 
Q 353 884 353 1716 
Q 353 2575 817 3079 
Q 1281 3584 2069 3584 
Q 2775 3584 3186 3129 
Q 3597 2675 3597 1894 
z
M 3022 2063 
Q 3016 2534 2758 2815 
Q 2500 3097 2075 3097 
Q 1594 3097 1305 2825 
Q 1016 2553 972 2059 
L 3022 2063 
z
" id="DejaVuSans-65" transform="scale(0.015625)"/>
      <path d="M 2194 1759 
Q 1497 1759 1228 1600 
Q 959 1441 959 1056 
Q 959 750 1161 570 
Q 1363 391 1709 391 
Q 2188 391 2477 730 
Q 2766 1069 2766 1631 
L 2766 1759 
L 2194 1759 
z
M 3341 1997 
L 3341 0 
L 2766 0 
L 2766 531 
Q 2569 213 2275 61 
Q 1981 -91 1556 -91 
Q 1019 -91 701 211 
Q 384 513 384 1019 
Q 384 1609 779 1909 
Q 1175 2209 1959 2209 
L 2766 2209 
L 2766 2266 
Q 2766 2663 2505 2880 
Q 2244 3097 1772 3097 
Q 1472 3097 1187 3025 
Q 903 2953 641 2809 
L 641 3341 
Q 956 3463 1253 3523 
Q 1550 3584 1831 3584 
Q 2591 3584 2966 3190 
Q 3341 2797 3341 1997 
z
" id="DejaVuSans-61" transform="scale(0.015625)"/>
      <path d="M 2631 2963 
Q 2534 3019 2420 3045 
Q 2306 3072 2169 3072 
Q 1681 3072 1420 2755 
Q 1159 2438 1159 1844 
L 1159 0 
L 581 0 
L 581 3500 
L 1159 3500 
L 1159 2956 
Q 1341 3275 1631 3429 
Q 1922 3584 2338 3584 
Q 2397 3584 2469 3576 
Q 2541 3569 2628 3553 
L 2631 2963 
z
" id="DejaVuSans-72" transform="scale(0.015625)"/>
      <path id="DejaVuSans-20" transform="scale(0.015625)"/>
      <path d="M -19 4666 
L 3928 4666 
L 3928 4134 
L 2272 4134 
L 2272 0 
L 1638 0 
L 1638 4134 
L -19 4134 
L -19 4666 
z
" id="DejaVuSans-54" transform="scale(0.015625)"/>
      <path d="M 3122 3366 
L 3122 2828 
Q 2878 2963 2633 3030 
Q 2388 3097 2138 3097 
Q 1578 3097 1268 2742 
Q 959 2388 959 1747 
Q 959 1106 1268 751 
Q 1578 397 2138 397 
Q 2388 397 2633 464 
Q 2878 531 3122 666 
L 3122 134 
Q 2881 22 2623 -34 
Q 2366 -91 2075 -91 
Q 1284 -91 818 406 
Q 353 903 353 1747 
Q 353 2603 823 3093 
Q 1294 3584 2113 3584 
Q 2378 3584 2631 3529 
Q 2884 3475 3122 3366 
z
" id="DejaVuSans-63" transform="scale(0.015625)"/>
      <path d="M 581 4863 
L 1159 4863 
L 1159 1991 
L 2875 3500 
L 3609 3500 
L 1753 1863 
L 3688 0 
L 2938 0 
L 1159 1709 
L 1159 0 
L 581 0 
L 581 4863 
z
" id="DejaVuSans-6b" transform="scale(0.015625)"/>
     </defs>
     <use xlink:href="#DejaVuSans-4c"/>
     <use x="55.712891" xlink:href="#DejaVuSans-69"/>
     <use x="83.496094" xlink:href="#DejaVuSans-6e"/>
     <use x="146.875" xlink:href="#DejaVuSans-65"/>
     <use x="208.398438" xlink:href="#DejaVuSans-61"/>
     <use x="269.677734" xlink:href="#DejaVuSans-72"/>
     <use x="310.791016" xlink:href="#DejaVuSans-20"/>
     <use x="342.578125" xlink:href="#DejaVuSans-54"/>
     <use x="388.912109" xlink:href="#DejaVuSans-72"/>
     <use x="430.025391" xlink:href="#DejaVuSans-61"/>
     <use x="491.304688" xlink:href="#DejaVuSans-63"/>
     <use x="546.285156" xlink:href="#DejaVuSans-6b"/>
    </g>
   </g>
  </g>
  <g id="axes_2">
   <g id="patch_5">
    <path d="M 40.603125 189.104489 
L 319.603125 189.104489 
L 319.603125 127.331761 
L 40.603125 127.331761 
z
" style="fill:#ffffff;"/>
   </g>
   <g id="matplotlib.axis_3">
    <g id="xtick_6">
     <g id="line2d_19">
      <g>
       <use style="stroke:#000000;stroke-width:0.8;" x="40.603125" xlink:href="#m6c5a77e3b3" y="189.104489"/>
      </g>
     </g>
     <g id="text_10">
      <!-- 1 -->
      <g transform="translate(37.421875 203.702926)scale(0.1 -0.1)">
       <use xlink:href="#DejaVuSans-31"/>
      </g>
     </g>
    </g>
    <g id="xtick_7">
     <g id="line2d_20">
      <g>
       <use style="stroke:#000000;stroke-width:0.8;" x="94.14858" xlink:href="#m6c5a77e3b3" y="189.104489"/>
      </g>
     </g>
     <g id="text_11">
      <!-- 20 -->
      <g transform="translate(87.78608 203.702926)scale(0.1 -0.1)">
       <use xlink:href="#DejaVuSans-32"/>
       <use x="63.623047" xlink:href="#DejaVuSans-30"/>
      </g>
     </g>
    </g>
    <g id="xtick_8">
     <g id="line2d_21">
      <g>
       <use style="stroke:#000000;stroke-width:0.8;" x="150.512216" xlink:href="#m6c5a77e3b3" y="189.104489"/>
      </g>
     </g>
     <g id="text_12">
      <!-- 40 -->
      <g transform="translate(144.149716 203.702926)scale(0.1 -0.1)">
       <defs>
        <path d="M 2419 4116 
L 825 1625 
L 2419 1625 
L 2419 4116 
z
M 2253 4666 
L 3047 4666 
L 3047 1625 
L 3713 1625 
L 3713 1100 
L 3047 1100 
L 3047 0 
L 2419 0 
L 2419 1100 
L 313 1100 
L 313 1709 
L 2253 4666 
z
" id="DejaVuSans-34" transform="scale(0.015625)"/>
       </defs>
       <use xlink:href="#DejaVuSans-34"/>
       <use x="63.623047" xlink:href="#DejaVuSans-30"/>
      </g>
     </g>
    </g>
    <g id="xtick_9">
     <g id="line2d_22">
      <g>
       <use style="stroke:#000000;stroke-width:0.8;" x="206.875852" xlink:href="#m6c5a77e3b3" y="189.104489"/>
      </g>
     </g>
     <g id="text_13">
      <!-- 60 -->
      <g transform="translate(200.513352 203.702926)scale(0.1 -0.1)">
       <defs>
        <path d="M 2113 2584 
Q 1688 2584 1439 2293 
Q 1191 2003 1191 1497 
Q 1191 994 1439 701 
Q 1688 409 2113 409 
Q 2538 409 2786 701 
Q 3034 994 3034 1497 
Q 3034 2003 2786 2293 
Q 2538 2584 2113 2584 
z
M 3366 4563 
L 3366 3988 
Q 3128 4100 2886 4159 
Q 2644 4219 2406 4219 
Q 1781 4219 1451 3797 
Q 1122 3375 1075 2522 
Q 1259 2794 1537 2939 
Q 1816 3084 2150 3084 
Q 2853 3084 3261 2657 
Q 3669 2231 3669 1497 
Q 3669 778 3244 343 
Q 2819 -91 2113 -91 
Q 1303 -91 875 529 
Q 447 1150 447 2328 
Q 447 3434 972 4092 
Q 1497 4750 2381 4750 
Q 2619 4750 2861 4703 
Q 3103 4656 3366 4563 
z
" id="DejaVuSans-36" transform="scale(0.015625)"/>
       </defs>
       <use xlink:href="#DejaVuSans-36"/>
       <use x="63.623047" xlink:href="#DejaVuSans-30"/>
      </g>
     </g>
    </g>
    <g id="xtick_10">
     <g id="line2d_23">
      <g>
       <use style="stroke:#000000;stroke-width:0.8;" x="263.239489" xlink:href="#m6c5a77e3b3" y="189.104489"/>
      </g>
     </g>
     <g id="text_14">
      <!-- 80 -->
      <g transform="translate(256.876989 203.702926)scale(0.1 -0.1)">
       <defs>
        <path d="M 2034 2216 
Q 1584 2216 1326 1975 
Q 1069 1734 1069 1313 
Q 1069 891 1326 650 
Q 1584 409 2034 409 
Q 2484 409 2743 651 
Q 3003 894 3003 1313 
Q 3003 1734 2745 1975 
Q 2488 2216 2034 2216 
z
M 1403 2484 
Q 997 2584 770 2862 
Q 544 3141 544 3541 
Q 544 4100 942 4425 
Q 1341 4750 2034 4750 
Q 2731 4750 3128 4425 
Q 3525 4100 3525 3541 
Q 3525 3141 3298 2862 
Q 3072 2584 2669 2484 
Q 3125 2378 3379 2068 
Q 3634 1759 3634 1313 
Q 3634 634 3220 271 
Q 2806 -91 2034 -91 
Q 1263 -91 848 271 
Q 434 634 434 1313 
Q 434 1759 690 2068 
Q 947 2378 1403 2484 
z
M 1172 3481 
Q 1172 3119 1398 2916 
Q 1625 2713 2034 2713 
Q 2441 2713 2670 2916 
Q 2900 3119 2900 3481 
Q 2900 3844 2670 4047 
Q 2441 4250 2034 4250 
Q 1625 4250 1398 4047 
Q 1172 3844 1172 3481 
z
" id="DejaVuSans-38" transform="scale(0.015625)"/>
       </defs>
       <use xlink:href="#DejaVuSans-38"/>
       <use x="63.623047" xlink:href="#DejaVuSans-30"/>
      </g>
     </g>
    </g>
    <g id="xtick_11">
     <g id="line2d_24">
      <g>
       <use style="stroke:#000000;stroke-width:0.8;" x="319.603125" xlink:href="#m6c5a77e3b3" y="189.104489"/>
      </g>
     </g>
     <g id="text_15">
      <!-- 100 -->
      <g transform="translate(310.059375 203.702926)scale(0.1 -0.1)">
       <use xlink:href="#DejaVuSans-31"/>
       <use x="63.623047" xlink:href="#DejaVuSans-30"/>
       <use x="127.246094" xlink:href="#DejaVuSans-30"/>
      </g>
     </g>
    </g>
   </g>
   <g id="matplotlib.axis_4">
    <g id="ytick_4">
     <g id="line2d_25">
      <g>
       <use style="stroke:#000000;stroke-width:0.8;" x="40.603125" xlink:href="#m256464642e" y="189.104489"/>
      </g>
     </g>
     <g id="text_16">
      <!-- 0 -->
      <g transform="translate(27.240625 192.903707)scale(0.1 -0.1)">
       <use xlink:href="#DejaVuSans-30"/>
      </g>
     </g>
    </g>
    <g id="ytick_5">
     <g id="line2d_26">
      <g>
       <use style="stroke:#000000;stroke-width:0.8;" x="40.603125" xlink:href="#m256464642e" y="157.95711"/>
      </g>
     </g>
     <g id="text_17">
      <!-- 50 -->
      <g transform="translate(20.878125 161.756329)scale(0.1 -0.1)">
       <use xlink:href="#DejaVuSans-35"/>
       <use x="63.623047" xlink:href="#DejaVuSans-30"/>
      </g>
     </g>
    </g>
    <g id="text_18">
     <!-- Escape Latency [#steps] -->
     <g transform="translate(14.798438 220.500156)rotate(-90)scale(0.1 -0.1)">
      <defs>
       <path d="M 628 4666 
L 3578 4666 
L 3578 4134 
L 1259 4134 
L 1259 2753 
L 3481 2753 
L 3481 2222 
L 1259 2222 
L 1259 531 
L 3634 531 
L 3634 0 
L 628 0 
L 628 4666 
z
" id="DejaVuSans-45" transform="scale(0.015625)"/>
       <path d="M 2834 3397 
L 2834 2853 
Q 2591 2978 2328 3040 
Q 2066 3103 1784 3103 
Q 1356 3103 1142 2972 
Q 928 2841 928 2578 
Q 928 2378 1081 2264 
Q 1234 2150 1697 2047 
L 1894 2003 
Q 2506 1872 2764 1633 
Q 3022 1394 3022 966 
Q 3022 478 2636 193 
Q 2250 -91 1575 -91 
Q 1294 -91 989 -36 
Q 684 19 347 128 
L 347 722 
Q 666 556 975 473 
Q 1284 391 1588 391 
Q 1994 391 2212 530 
Q 2431 669 2431 922 
Q 2431 1156 2273 1281 
Q 2116 1406 1581 1522 
L 1381 1569 
Q 847 1681 609 1914 
Q 372 2147 372 2553 
Q 372 3047 722 3315 
Q 1072 3584 1716 3584 
Q 2034 3584 2315 3537 
Q 2597 3491 2834 3397 
z
" id="DejaVuSans-73" transform="scale(0.015625)"/>
       <path d="M 1159 525 
L 1159 -1331 
L 581 -1331 
L 581 3500 
L 1159 3500 
L 1159 2969 
Q 1341 3281 1617 3432 
Q 1894 3584 2278 3584 
Q 2916 3584 3314 3078 
Q 3713 2572 3713 1747 
Q 3713 922 3314 415 
Q 2916 -91 2278 -91 
Q 1894 -91 1617 61 
Q 1341 213 1159 525 
z
M 3116 1747 
Q 3116 2381 2855 2742 
Q 2594 3103 2138 3103 
Q 1681 3103 1420 2742 
Q 1159 2381 1159 1747 
Q 1159 1113 1420 752 
Q 1681 391 2138 391 
Q 2594 391 2855 752 
Q 3116 1113 3116 1747 
z
" id="DejaVuSans-70" transform="scale(0.015625)"/>
       <path d="M 1172 4494 
L 1172 3500 
L 2356 3500 
L 2356 3053 
L 1172 3053 
L 1172 1153 
Q 1172 725 1289 603 
Q 1406 481 1766 481 
L 2356 481 
L 2356 0 
L 1766 0 
Q 1100 0 847 248 
Q 594 497 594 1153 
L 594 3053 
L 172 3053 
L 172 3500 
L 594 3500 
L 594 4494 
L 1172 4494 
z
" id="DejaVuSans-74" transform="scale(0.015625)"/>
       <path d="M 2059 -325 
Q 1816 -950 1584 -1140 
Q 1353 -1331 966 -1331 
L 506 -1331 
L 506 -850 
L 844 -850 
Q 1081 -850 1212 -737 
Q 1344 -625 1503 -206 
L 1606 56 
L 191 3500 
L 800 3500 
L 1894 763 
L 2988 3500 
L 3597 3500 
L 2059 -325 
z
" id="DejaVuSans-79" transform="scale(0.015625)"/>
       <path d="M 550 4863 
L 1875 4863 
L 1875 4416 
L 1125 4416 
L 1125 -397 
L 1875 -397 
L 1875 -844 
L 550 -844 
L 550 4863 
z
" id="DejaVuSans-5b" transform="scale(0.015625)"/>
       <path d="M 3272 2816 
L 2363 2816 
L 2100 1772 
L 3016 1772 
L 3272 2816 
z
M 2803 4594 
L 2478 3297 
L 3391 3297 
L 3719 4594 
L 4219 4594 
L 3897 3297 
L 4872 3297 
L 4872 2816 
L 3775 2816 
L 3519 1772 
L 4513 1772 
L 4513 1294 
L 3397 1294 
L 3072 0 
L 2572 0 
L 2894 1294 
L 1978 1294 
L 1656 0 
L 1153 0 
L 1478 1294 
L 494 1294 
L 494 1772 
L 1594 1772 
L 1856 2816 
L 850 2816 
L 850 3297 
L 1978 3297 
L 2297 4594 
L 2803 4594 
z
" id="DejaVuSans-23" transform="scale(0.015625)"/>
       <path d="M 1947 4863 
L 1947 -844 
L 622 -844 
L 622 -397 
L 1369 -397 
L 1369 4416 
L 622 4416 
L 622 4863 
L 1947 4863 
z
" id="DejaVuSans-5d" transform="scale(0.015625)"/>
      </defs>
      <use xlink:href="#DejaVuSans-45"/>
      <use x="63.183594" xlink:href="#DejaVuSans-73"/>
      <use x="115.283203" xlink:href="#DejaVuSans-63"/>
      <use x="170.263672" xlink:href="#DejaVuSans-61"/>
      <use x="231.542969" xlink:href="#DejaVuSans-70"/>
      <use x="295.019531" xlink:href="#DejaVuSans-65"/>
      <use x="356.542969" xlink:href="#DejaVuSans-20"/>
      <use x="388.330078" xlink:href="#DejaVuSans-4c"/>
      <use x="444.042969" xlink:href="#DejaVuSans-61"/>
      <use x="505.322266" xlink:href="#DejaVuSans-74"/>
      <use x="544.53125" xlink:href="#DejaVuSans-65"/>
      <use x="606.054688" xlink:href="#DejaVuSans-6e"/>
      <use x="669.433594" xlink:href="#DejaVuSans-63"/>
      <use x="724.414062" xlink:href="#DejaVuSans-79"/>
      <use x="783.59375" xlink:href="#DejaVuSans-20"/>
      <use x="815.380859" xlink:href="#DejaVuSans-5b"/>
      <use x="854.394531" xlink:href="#DejaVuSans-23"/>
      <use x="938.183594" xlink:href="#DejaVuSans-73"/>
      <use x="990.283203" xlink:href="#DejaVuSans-74"/>
      <use x="1029.492188" xlink:href="#DejaVuSans-65"/>
      <use x="1091.015625" xlink:href="#DejaVuSans-70"/>
      <use x="1154.492188" xlink:href="#DejaVuSans-73"/>
      <use x="1206.591797" xlink:href="#DejaVuSans-5d"/>
     </g>
    </g>
   </g>
   <g id="line2d_27">
    <path clip-path="url(#pc4c357e5e8)" d="M 40.603125 130.846432 
L 43.421307 132.378883 
L 46.239489 137.910657 
L 49.05767 139.742123 
L 51.875852 141.498835 
L 54.694034 148.712568 
L 57.512216 151.627963 
L 60.330398 153.509264 
L 63.14858 155.951219 
L 65.966761 158.754483 
L 68.784943 160.012837 
L 71.603125 162.068564 
L 74.421307 164.684944 
L 77.239489 166.715753 
L 80.05767 169.917703 
L 82.875852 170.229177 
L 85.694034 170.78983 
L 88.512216 172.272445 
L 91.330398 174.315713 
L 94.14858 174.004239 
L 96.966761 174.814071 
L 99.784943 176.109802 
L 102.603125 176.583242 
L 105.421307 175.798328 
L 108.239489 177.106518 
L 111.05767 177.841597 
L 113.875852 178.327496 
L 116.694034 178.265201 
L 119.512216 179.511096 
L 122.330398 179.025197 
L 125.14858 180.89404 
L 127.966761 180.794368 
L 130.784943 179.523555 
L 133.603125 181.616659 
L 136.421307 181.292726 
L 139.239489 181.429775 
L 142.05767 181.255349 
L 144.875852 181.504528 
L 147.694034 181.068465 
L 150.512216 180.76945 
L 153.330398 181.105842 
L 156.14858 180.806827 
L 158.966761 182.052722 
L 161.784943 181.666495 
L 164.603125 181.043547 
L 167.421307 181.47961 
L 170.239489 181.6042 
L 173.05767 180.308469 
L 175.875852 181.417316 
L 178.694034 180.918958 
L 181.512216 180.345846 
L 184.330398 180.981252 
L 187.14858 180.308469 
L 189.966761 181.305185 
L 192.784943 180.208797 
L 195.603125 181.703871 
L 198.421307 180.968793 
L 201.239489 180.756991 
L 204.05767 181.965509 
L 206.875852 181.654036 
L 209.694034 181.554364 
L 212.512216 181.990427 
L 215.330398 181.915674 
L 218.14858 181.928133 
L 220.966761 181.504528 
L 223.784943 181.255349 
L 226.603125 181.454692 
L 229.421307 181.778625 
L 232.239489 181.442233 
L 235.05767 182.164853 
L 237.875852 181.255349 
L 240.694034 181.95305 
L 243.512216 182.015345 
L 246.330398 181.766166 
L 249.14858 181.467151 
L 251.966761 181.977968 
L 254.784943 181.741248 
L 257.603125 181.753707 
L 260.421307 181.629118 
L 263.239489 181.940592 
L 266.05767 181.965509 
L 268.875852 181.6042 
L 271.694034 182.002886 
L 274.512216 181.6042 
L 277.330398 181.95305 
L 280.14858 181.6042 
L 282.966761 182.065181 
L 285.784943 182.040263 
L 288.603125 181.753707 
L 291.421307 182.139935 
L 294.239489 182.239606 
L 297.05767 182.002886 
L 299.875852 181.355021 
L 302.694034 181.678954 
L 305.512216 182.227147 
L 308.330398 182.252065 
L 311.14858 182.239606 
L 313.966761 182.239606 
L 316.784943 181.915674 
L 319.603125 181.865838 
" style="fill:none;stroke:#1f77b4;stroke-linecap:square;stroke-width:1.5;"/>
   </g>
   <g id="line2d_28">
    <path clip-path="url(#pc4c357e5e8)" d="M 40.603125 129.961846 
L 43.421307 133.213632 
L 46.239489 140.265399 
L 49.05767 138.757866 
L 51.875852 142.919156 
L 54.694034 145.024718 
L 57.512216 148.164374 
L 60.330398 149.958463 
L 63.14858 154.144671 
L 65.966761 156.997771 
L 68.784943 159.639068 
L 71.603125 162.006269 
L 74.421307 165.806249 
L 77.239489 169.332133 
L 80.05767 170.602946 
L 82.875852 170.976714 
L 85.694034 171.126222 
L 88.512216 172.758344 
L 91.330398 174.95112 
L 94.14858 175.636362 
L 96.966761 173.680307 
L 99.784943 176.620619 
L 102.603125 176.296687 
L 105.421307 177.542582 
L 108.239489 177.455369 
L 111.05767 177.006847 
L 113.875852 180.196338 
L 116.694034 179.22454 
L 119.512216 179.374048 
L 122.330398 180.644861 
L 125.14858 180.408141 
L 127.966761 180.333387 
L 130.784943 180.557648 
L 133.603125 180.084208 
L 136.421307 180.65732 
L 139.239489 179.560932 
L 142.05767 179.959618 
L 144.875852 181.13076 
L 147.694034 180.470435 
L 150.512216 181.392398 
L 153.330398 180.507812 
L 156.14858 180.719614 
L 158.966761 181.492069 
L 161.784943 181.205513 
L 164.603125 181.24289 
L 167.421307 181.068465 
L 170.239489 181.703871 
L 173.05767 181.305185 
L 175.875852 180.607484 
L 178.694034 181.541905 
L 181.512216 181.36748 
L 184.330398 180.470435 
L 187.14858 181.404857 
L 189.966761 181.492069 
L 192.784943 180.395682 
L 195.603125 181.504528 
L 198.421307 180.632402 
L 201.239489 181.454692 
L 204.05767 180.233715 
L 206.875852 180.806827 
L 209.694034 181.454692 
L 212.512216 181.168137 
L 215.330398 181.791084 
L 218.14858 181.84092 
L 220.966761 182.102558 
L 223.784943 180.918958 
L 226.603125 181.828461 
L 229.421307 181.865838 
L 232.239489 181.018629 
L 235.05767 181.728789 
L 237.875852 181.828461 
L 240.694034 181.828461 
L 243.512216 181.865838 
L 246.330398 181.629118 
L 249.14858 181.629118 
L 251.966761 181.766166 
L 254.784943 181.791084 
L 257.603125 181.616659 
L 260.421307 181.990427 
L 263.239489 181.47961 
L 266.05767 181.255349 
L 268.875852 181.828461 
L 271.694034 181.766166 
L 274.512216 181.255349 
L 277.330398 182.289442 
L 280.14858 181.741248 
L 282.966761 181.504528 
L 285.784943 181.24289 
L 288.603125 181.691413 
L 291.421307 181.84092 
L 294.239489 181.342562 
L 297.05767 181.878297 
L 299.875852 181.990427 
L 302.694034 181.267808 
L 305.512216 182.027804 
L 308.330398 181.24289 
L 311.14858 182.002886 
L 313.966761 182.264524 
L 316.784943 182.20223 
L 319.603125 182.127476 
" style="fill:none;stroke:#ff7f0e;stroke-linecap:square;stroke-width:1.5;"/>
   </g>
   <g id="line2d_29">
    <path clip-path="url(#pc4c357e5e8)" d="M 40.603125 131.008398 
L 43.421307 132.329047 
L 46.239489 136.751975 
L 49.05767 142.807025 
L 51.875852 142.607682 
L 54.694034 147.454214 
L 57.512216 153.247626 
L 60.330398 154.456145 
L 63.14858 154.381391 
L 65.966761 159.190546 
L 68.784943 159.688904 
L 71.603125 161.64496 
L 74.421307 164.909205 
L 77.239489 166.27969 
L 80.05767 166.379361 
L 82.875852 168.833775 
L 85.694034 168.77148 
L 88.512216 169.917703 
L 91.330398 172.833098 
L 94.14858 172.496706 
L 96.966761 175.78587 
L 99.784943 174.913743 
L 102.603125 177.231108 
L 105.421307 177.642253 
L 108.239489 179.087492 
L 111.05767 178.053399 
L 113.875852 178.302578 
L 116.694034 178.925525 
L 119.512216 179.810111 
L 122.330398 179.560932 
L 125.14858 179.947159 
L 127.966761 179.947159 
L 130.784943 180.495353 
L 133.603125 181.155678 
L 136.421307 180.395682 
L 139.239489 180.221256 
L 142.05767 179.69798 
L 144.875852 181.255349 
L 147.694034 180.134044 
L 150.512216 180.233715 
L 153.330398 180.557648 
L 156.14858 180.433058 
L 158.966761 181.566823 
L 161.784943 181.143219 
L 164.603125 180.358305 
L 167.421307 180.806827 
L 170.239489 180.320928 
L 173.05767 181.180596 
L 175.875852 179.69798 
L 178.694034 179.511096 
L 181.512216 181.267808 
L 184.330398 180.408141 
L 187.14858 181.516987 
L 189.966761 180.607484 
L 192.784943 180.134044 
L 195.603125 181.417316 
L 198.421307 181.230431 
L 201.239489 181.654036 
L 204.05767 181.417316 
L 206.875852 180.557648 
L 209.694034 179.58585 
L 212.512216 181.71633 
L 215.330398 181.753707 
L 218.14858 181.317644 
L 220.966761 181.230431 
L 223.784943 181.791084 
L 226.603125 181.180596 
L 229.421307 181.516987 
L 232.239489 181.853379 
L 235.05767 181.404857 
L 237.875852 181.379939 
L 240.694034 182.152394 
L 243.512216 181.890756 
L 246.330398 180.881581 
L 249.14858 180.719614 
L 251.966761 181.404857 
L 254.784943 181.940592 
L 257.603125 181.47961 
L 260.421307 181.853379 
L 263.239489 181.965509 
L 266.05767 181.317644 
L 268.875852 181.305185 
L 271.694034 181.105842 
L 274.512216 181.579282 
L 277.330398 181.703871 
L 280.14858 181.915674 
L 282.966761 181.193054 
L 285.784943 181.778625 
L 288.603125 181.429775 
L 291.421307 181.454692 
L 294.239489 181.778625 
L 297.05767 181.816002 
L 299.875852 181.84092 
L 302.694034 181.903215 
L 305.512216 181.878297 
L 308.330398 181.056006 
L 311.14858 182.027804 
L 313.966761 181.915674 
L 316.784943 182.027804 
L 319.603125 182.07764 
" style="fill:none;stroke:#2ca02c;stroke-linecap:square;stroke-width:1.5;"/>
   </g>
   <g id="line2d_30">
    <path clip-path="url(#pc4c357e5e8)" d="M 40.603125 131.917901 
L 43.421307 134.521822 
L 46.239489 138.882455 
L 49.05767 142.757189 
L 51.875852 145.635207 
L 54.694034 147.840441 
L 57.512216 152.163698 
L 60.330398 152.61222 
L 63.14858 160.187262 
L 65.966761 160.822669 
L 68.784943 163.588556 
L 71.603125 168.497383 
L 74.421307 169.020659 
L 77.239489 172.33474 
L 80.05767 173.817355 
L 82.875852 172.633755 
L 85.694034 174.552433 
L 88.512216 174.091452 
L 91.330398 175.312429 
L 94.14858 176.545866 
L 96.966761 178.078317 
L 99.784943 177.692089 
L 102.603125 177.729466 
L 105.421307 178.327496 
L 108.239489 180.345846 
L 111.05767 180.05929 
L 113.875852 178.925525 
L 116.694034 180.607484 
L 119.512216 180.034372 
L 122.330398 180.89404 
L 125.14858 180.420599 
L 127.966761 181.068465 
L 130.784943 179.648144 
L 133.603125 180.271092 
L 136.421307 179.274376 
L 139.239489 181.118301 
L 142.05767 180.76945 
L 144.875852 181.280267 
L 147.694034 180.445517 
L 150.512216 180.65732 
L 153.330398 181.504528 
L 156.14858 180.545189 
L 158.966761 179.374048 
L 161.784943 181.255349 
L 164.603125 180.271092 
L 167.421307 180.831745 
L 170.239489 180.806827 
L 173.05767 181.691413 
L 175.875852 180.756991 
L 178.694034 180.918958 
L 181.512216 181.36748 
L 184.330398 180.968793 
L 187.14858 181.24289 
L 189.966761 180.831745 
L 192.784943 181.404857 
L 195.603125 180.89404 
L 198.421307 181.155678 
L 201.239489 181.267808 
L 204.05767 180.931416 
L 206.875852 181.703871 
L 209.694034 180.981252 
L 212.512216 181.168137 
L 215.330398 180.931416 
L 218.14858 181.105842 
L 220.966761 181.915674 
L 223.784943 181.541905 
L 226.603125 181.741248 
L 229.421307 182.102558 
L 232.239489 181.330103 
L 235.05767 181.118301 
L 237.875852 181.629118 
L 240.694034 181.678954 
L 243.512216 181.355021 
L 246.330398 181.654036 
L 249.14858 181.454692 
L 251.966761 181.417316 
L 254.784943 181.803543 
L 257.603125 181.305185 
L 260.421307 181.641577 
L 263.239489 181.504528 
L 266.05767 181.492069 
L 268.875852 182.015345 
L 271.694034 181.965509 
L 274.512216 181.71633 
L 277.330398 181.267808 
L 280.14858 181.903215 
L 282.966761 182.164853 
L 285.784943 181.442233 
L 288.603125 181.454692 
L 291.421307 181.753707 
L 294.239489 181.629118 
L 297.05767 181.741248 
L 299.875852 182.102558 
L 302.694034 180.856663 
L 305.512216 181.803543 
L 308.330398 182.07764 
L 311.14858 181.965509 
L 313.966761 181.915674 
L 316.784943 181.691413 
L 319.603125 181.355021 
" style="fill:none;stroke:#d62728;stroke-linecap:square;stroke-width:1.5;"/>
   </g>
   <g id="line2d_31">
    <path clip-path="url(#pc4c357e5e8)" d="M 40.603125 131.519215 
L 43.421307 135.157229 
L 46.239489 137.798526 
L 49.05767 140.875888 
L 51.875852 145.311274 
L 54.694034 149.896168 
L 57.512216 151.627963 
L 60.330398 154.929585 
L 63.14858 158.916449 
L 65.966761 160.860046 
L 68.784943 161.732172 
L 71.603125 163.227246 
L 74.421307 166.067887 
L 77.239489 169.556394 
L 80.05767 173.132113 
L 82.875852 171.886218 
L 85.694034 175.200299 
L 88.512216 178.003563 
L 91.330398 177.592417 
L 94.14858 177.330779 
L 96.966761 177.80422 
L 99.784943 178.526839 
L 102.603125 179.884865 
L 105.421307 178.427167 
L 108.239489 180.17142 
L 111.05767 178.439626 
L 113.875852 181.205513 
L 116.694034 180.395682 
L 119.512216 181.031088 
L 122.330398 179.336671 
L 125.14858 179.797652 
L 127.966761 179.884865 
L 130.784943 181.255349 
L 133.603125 180.732073 
L 136.421307 180.05929 
L 139.239489 181.467151 
L 142.05767 180.918958 
L 144.875852 180.607484 
L 147.694034 180.968793 
L 150.512216 180.794368 
L 153.330398 180.632402 
L 156.14858 180.707155 
L 158.966761 180.844204 
L 161.784943 181.554364 
L 164.603125 180.856663 
L 167.421307 181.417316 
L 170.239489 181.71633 
L 173.05767 181.267808 
L 175.875852 181.180596 
L 178.694034 180.981252 
L 181.512216 181.143219 
L 184.330398 180.89404 
L 187.14858 181.292726 
L 189.966761 181.205513 
L 192.784943 181.118301 
L 195.603125 180.744532 
L 198.421307 181.492069 
L 201.239489 181.504528 
L 204.05767 181.629118 
L 206.875852 181.417316 
L 209.694034 181.71633 
L 212.512216 181.24289 
L 215.330398 181.990427 
L 218.14858 181.654036 
L 220.966761 181.392398 
L 223.784943 181.766166 
L 226.603125 181.703871 
L 229.421307 181.803543 
L 232.239489 181.71633 
L 235.05767 181.554364 
L 237.875852 181.529446 
L 240.694034 181.317644 
L 243.512216 181.217972 
L 246.330398 181.965509 
L 249.14858 181.753707 
L 251.966761 181.068465 
L 254.784943 181.890756 
L 257.603125 181.728789 
L 260.421307 181.305185 
L 263.239489 181.355021 
L 266.05767 181.890756 
L 268.875852 181.853379 
L 271.694034 181.379939 
L 274.512216 181.566823 
L 277.330398 181.492069 
L 280.14858 182.289442 
L 282.966761 181.666495 
L 285.784943 181.828461 
L 288.603125 181.753707 
L 291.421307 181.566823 
L 294.239489 181.84092 
L 297.05767 181.442233 
L 299.875852 181.890756 
L 302.694034 181.84092 
L 305.512216 182.052722 
L 308.330398 181.529446 
L 311.14858 181.890756 
L 313.966761 181.71633 
L 316.784943 181.529446 
L 319.603125 182.027804 
" style="fill:none;stroke:#9467bd;stroke-linecap:square;stroke-width:1.5;"/>
   </g>
   <g id="line2d_32">
    <path clip-path="url(#pc4c357e5e8)" d="M 40.603125 132.341506 
L 43.421307 134.696248 
L 46.239489 136.403124 
L 49.05767 143.467349 
L 51.875852 147.466673 
L 54.694034 149.260762 
L 57.512216 152.412877 
L 60.330398 153.397134 
L 63.14858 159.576774 
L 65.966761 162.791183 
L 68.784943 163.974784 
L 71.603125 164.124291 
L 74.421307 169.294756 
L 77.239489 169.880327 
L 80.05767 171.076386 
L 82.875852 172.21015 
L 85.694034 174.128829 
L 88.512216 174.764235 
L 91.330398 173.941945 
L 94.14858 176.520948 
L 96.966761 176.583242 
L 99.784943 177.256026 
L 102.603125 176.981929 
L 105.421307 177.380615 
L 108.239489 178.726182 
L 111.05767 179.025197 
L 113.875852 180.009454 
L 116.694034 179.785193 
L 119.512216 179.984536 
L 122.330398 180.096667 
L 125.14858 180.29601 
L 127.966761 178.863231 
L 130.784943 180.395682 
L 133.603125 181.043547 
L 136.421307 180.084208 
L 139.239489 181.267808 
L 142.05767 180.65732 
L 144.875852 179.797652 
L 147.694034 181.031088 
L 150.512216 179.673062 
L 153.330398 181.043547 
L 156.14858 180.320928 
L 158.966761 181.217972 
L 161.784943 180.619943 
L 164.603125 179.909782 
L 167.421307 180.744532 
L 170.239489 180.993711 
L 173.05767 179.311753 
L 175.875852 181.292726 
L 178.694034 181.442233 
L 181.512216 180.906499 
L 184.330398 180.794368 
L 187.14858 180.507812 
L 189.966761 181.654036 
L 192.784943 181.205513 
L 195.603125 180.89404 
L 198.421307 181.778625 
L 201.239489 180.669778 
L 204.05767 181.691413 
L 206.875852 180.856663 
L 209.694034 180.819286 
L 212.512216 181.467151 
L 215.330398 181.267808 
L 218.14858 180.507812 
L 220.966761 181.155678 
L 223.784943 181.392398 
L 226.603125 180.869122 
L 229.421307 181.404857 
L 232.239489 181.554364 
L 235.05767 181.654036 
L 237.875852 181.267808 
L 240.694034 181.36748 
L 243.512216 181.678954 
L 246.330398 181.541905 
L 249.14858 181.280267 
L 251.966761 181.180596 
L 254.784943 181.940592 
L 257.603125 181.853379 
L 260.421307 181.24289 
L 263.239489 181.616659 
L 266.05767 182.040263 
L 268.875852 181.492069 
L 271.694034 182.027804 
L 274.512216 181.36748 
L 277.330398 181.47961 
L 280.14858 181.579282 
L 282.966761 181.355021 
L 285.784943 181.803543 
L 288.603125 181.691413 
L 291.421307 181.965509 
L 294.239489 181.71633 
L 297.05767 181.803543 
L 299.875852 181.392398 
L 302.694034 181.84092 
L 305.512216 181.467151 
L 308.330398 181.442233 
L 311.14858 181.965509 
L 313.966761 181.915674 
L 316.784943 182.301901 
L 319.603125 181.990427 
" style="fill:none;stroke:#8c564b;stroke-linecap:square;stroke-width:1.5;"/>
   </g>
   <g id="line2d_33">
    <path clip-path="url(#pc4c357e5e8)" d="M 40.603125 131.382166 
L 43.421307 134.148054 
L 46.239489 138.321802 
L 49.05767 141.748014 
L 51.875852 142.98145 
L 54.694034 146.519793 
L 57.512216 152.076485 
L 60.330398 153.44697 
L 63.14858 153.646313 
L 65.966761 158.729565 
L 68.784943 160.561031 
L 71.603125 165.656742 
L 74.421307 164.61019 
L 77.239489 166.39182 
L 80.05767 166.616081 
L 82.875852 170.465897 
L 85.694034 167.70001 
L 88.512216 171.73671 
L 91.330398 171.998348 
L 94.14858 172.671132 
L 96.966761 173.144572 
L 99.784943 175.42456 
L 102.603125 176.695373 
L 105.421307 176.122261 
L 108.239489 176.633078 
L 111.05767 177.953727 
L 113.875852 178.252742 
L 116.694034 178.265201 
L 119.512216 178.215365 
L 122.330398 179.261917 
L 125.14858 178.601593 
L 127.966761 179.523555 
L 130.784943 179.722898 
L 133.603125 179.673062 
L 136.421307 178.701264 
L 139.239489 180.420599 
L 142.05767 179.959618 
L 144.875852 181.317644 
L 147.694034 180.794368 
L 150.512216 180.694696 
L 153.330398 179.573391 
L 156.14858 181.043547 
L 158.966761 180.694696 
L 161.784943 180.943875 
L 164.603125 180.732073 
L 167.421307 180.520271 
L 170.239489 181.616659 
L 173.05767 181.379939 
L 175.875852 181.00617 
L 178.694034 180.993711 
L 181.512216 180.869122 
L 184.330398 180.707155 
L 187.14858 181.417316 
L 189.966761 180.968793 
L 192.784943 181.541905 
L 195.603125 181.392398 
L 198.421307 181.330103 
L 201.239489 181.143219 
L 204.05767 181.429775 
L 206.875852 181.330103 
L 209.694034 181.791084 
L 212.512216 181.6042 
L 215.330398 182.002886 
L 218.14858 181.541905 
L 220.966761 181.71633 
L 223.784943 181.217972 
L 226.603125 181.71633 
L 229.421307 181.654036 
L 232.239489 181.977968 
L 235.05767 181.816002 
L 237.875852 181.828461 
L 240.694034 181.6042 
L 243.512216 181.791084 
L 246.330398 181.13076 
L 249.14858 181.093383 
L 251.966761 182.07764 
L 254.784943 181.205513 
L 257.603125 181.816002 
L 260.421307 181.766166 
L 263.239489 182.002886 
L 266.05767 181.654036 
L 268.875852 181.292726 
L 271.694034 181.417316 
L 274.512216 181.492069 
L 277.330398 181.95305 
L 280.14858 181.404857 
L 282.966761 181.977968 
L 285.784943 181.903215 
L 288.603125 181.728789 
L 291.421307 181.454692 
L 294.239489 182.289442 
L 297.05767 182.090099 
L 299.875852 182.027804 
L 302.694034 181.330103 
L 305.512216 182.264524 
L 308.330398 181.666495 
L 311.14858 181.828461 
L 313.966761 181.977968 
L 316.784943 182.177312 
L 319.603125 181.392398 
" style="fill:none;stroke:#e377c2;stroke-linecap:square;stroke-width:1.5;"/>
   </g>
   <g id="line2d_34">
    <path clip-path="url(#pc4c357e5e8)" d="M 40.603125 132.416259 
L 43.421307 133.83658 
L 46.239489 136.502796 
L 49.05767 136.365747 
L 51.875852 142.919156 
L 54.694034 143.666693 
L 57.512216 145.72242 
L 60.330398 151.465996 
L 63.14858 154.493521 
L 65.966761 152.96107 
L 68.784943 159.751199 
L 71.603125 158.281043 
L 74.421307 165.245597 
L 77.239489 164.385929 
L 80.05767 167.46329 
L 82.875852 168.223286 
L 85.694034 170.141965 
L 88.512216 172.970146 
L 91.330398 171.475072 
L 94.14858 173.680307 
L 96.966761 173.157031 
L 99.784943 174.465221 
L 102.603125 175.798328 
L 105.421307 174.402926 
L 108.239489 175.412101 
L 111.05767 176.25931 
L 113.875852 176.321604 
L 116.694034 176.932093 
L 119.512216 176.383899 
L 122.330398 178.028481 
L 125.14858 178.028481 
L 127.966761 179.386506 
L 130.784943 178.975361 
L 133.603125 179.22454 
L 136.421307 179.025197 
L 139.239489 179.22454 
L 142.05767 179.909782 
L 144.875852 178.913066 
L 147.694034 180.158961 
L 150.512216 179.835029 
L 153.330398 180.320928 
L 156.14858 180.719614 
L 158.966761 180.545189 
L 161.784943 180.89404 
L 164.603125 180.669778 
L 167.421307 180.644861 
L 170.239489 180.906499 
L 173.05767 180.158961 
L 175.875852 180.333387 
L 178.694034 181.13076 
L 181.512216 180.906499 
L 184.330398 180.844204 
L 187.14858 180.271092 
L 189.966761 179.58585 
L 192.784943 181.018629 
L 195.603125 181.554364 
L 198.421307 181.529446 
L 201.239489 180.520271 
L 204.05767 181.080924 
L 206.875852 181.903215 
L 209.694034 181.554364 
L 212.512216 181.95305 
L 215.330398 181.865838 
L 218.14858 181.579282 
L 220.966761 181.467151 
L 223.784943 181.791084 
L 226.603125 181.691413 
L 229.421307 181.554364 
L 232.239489 181.691413 
L 235.05767 181.429775 
L 237.875852 181.00617 
L 240.694034 182.090099 
L 243.512216 181.728789 
L 246.330398 181.267808 
L 249.14858 180.595025 
L 251.966761 181.654036 
L 254.784943 181.766166 
L 257.603125 181.541905 
L 260.421307 181.13076 
L 263.239489 181.84092 
L 266.05767 181.878297 
L 268.875852 182.20223 
L 271.694034 181.47961 
L 274.512216 180.993711 
L 277.330398 181.965509 
L 280.14858 181.965509 
L 282.966761 181.828461 
L 285.784943 181.977968 
L 288.603125 181.541905 
L 291.421307 181.828461 
L 294.239489 181.928133 
L 297.05767 181.878297 
L 299.875852 181.691413 
L 302.694034 182.052722 
L 305.512216 181.778625 
L 308.330398 181.878297 
L 311.14858 182.127476 
L 313.966761 181.791084 
L 316.784943 181.654036 
L 319.603125 181.678954 
" style="fill:none;stroke:#7f7f7f;stroke-linecap:square;stroke-width:1.5;"/>
   </g>
   <g id="line2d_35">
    <path clip-path="url(#pc4c357e5e8)" d="M 40.603125 131.045775 
L 43.421307 135.281818 
L 46.239489 136.253617 
L 49.05767 140.464742 
L 51.875852 143.517185 
L 54.694034 146.445039 
L 57.512216 146.768972 
L 60.330398 147.391919 
L 63.14858 154.069917 
L 65.966761 157.334162 
L 68.784943 158.31842 
L 71.603125 159.315136 
L 74.421307 161.595124 
L 77.239489 163.302 
L 80.05767 165.071171 
L 82.875852 168.833775 
L 85.694034 171.649498 
L 88.512216 172.284904 
L 91.330398 171.923595 
L 94.14858 173.219326 
L 96.966761 174.502598 
L 99.784943 176.458653 
L 102.603125 177.044224 
L 105.421307 178.028481 
L 108.239489 178.7511 
L 111.05767 180.221256 
L 113.875852 178.825854 
L 116.694034 179.847488 
L 119.512216 178.638969 
L 122.330398 179.872406 
L 125.14858 180.196338 
L 127.966761 180.046831 
L 130.784943 179.498637 
L 133.603125 179.996995 
L 136.421307 181.018629 
L 139.239489 180.121585 
L 142.05767 180.744532 
L 144.875852 180.694696 
L 147.694034 181.143219 
L 150.512216 180.707155 
L 153.330398 180.682237 
L 156.14858 181.579282 
L 158.966761 181.292726 
L 161.784943 181.24289 
L 164.603125 181.703871 
L 167.421307 181.529446 
L 170.239489 180.76945 
L 173.05767 181.392398 
L 175.875852 181.155678 
L 178.694034 180.981252 
L 181.512216 181.629118 
L 184.330398 180.694696 
L 187.14858 181.516987 
L 189.966761 181.118301 
L 192.784943 181.47961 
L 195.603125 180.619943 
L 198.421307 181.940592 
L 201.239489 181.516987 
L 204.05767 181.654036 
L 206.875852 181.766166 
L 209.694034 181.890756 
L 212.512216 181.803543 
L 215.330398 181.828461 
L 218.14858 182.065181 
L 220.966761 181.816002 
L 223.784943 181.766166 
L 226.603125 181.753707 
L 229.421307 181.36748 
L 232.239489 181.728789 
L 235.05767 181.71633 
L 237.875852 181.516987 
L 240.694034 181.566823 
L 243.512216 181.95305 
L 246.330398 181.940592 
L 249.14858 181.6042 
L 251.966761 181.703871 
L 254.784943 181.766166 
L 257.603125 181.529446 
L 260.421307 182.07764 
L 263.239489 181.778625 
L 266.05767 181.591741 
L 268.875852 181.753707 
L 271.694034 182.065181 
L 274.512216 182.152394 
L 277.330398 181.442233 
L 280.14858 182.227147 
L 282.966761 181.442233 
L 285.784943 180.794368 
L 288.603125 182.563539 
L 291.421307 181.928133 
L 294.239489 182.027804 
L 297.05767 181.791084 
L 299.875852 181.903215 
L 302.694034 181.766166 
L 305.512216 182.152394 
L 308.330398 182.102558 
L 311.14858 182.252065 
L 313.966761 181.990427 
L 316.784943 181.766166 
L 319.603125 182.065181 
" style="fill:none;stroke:#bcbd22;stroke-linecap:square;stroke-width:1.5;"/>
   </g>
   <g id="line2d_36">
    <path clip-path="url(#pc4c357e5e8)" d="M 40.603125 182.875013 
L 319.603125 182.875013 
" style="fill:none;stroke:#808080;stroke-dasharray:5.55,2.4;stroke-dashoffset:0;stroke-width:1.5;"/>
   </g>
   <g id="patch_6">
    <path d="M 40.603125 189.104489 
L 40.603125 127.331761 
" style="fill:none;stroke:#000000;stroke-linecap:square;stroke-linejoin:miter;stroke-width:0.8;"/>
   </g>
   <g id="patch_7">
    <path d="M 40.603125 189.104489 
L 319.603125 189.104489 
" style="fill:none;stroke:#000000;stroke-linecap:square;stroke-linejoin:miter;stroke-width:0.8;"/>
   </g>
   <g id="text_19">
    <!-- Open Field -->
    <g transform="translate(148.319063 121.331761)scale(0.12 -0.12)">
     <defs>
      <path d="M 2522 4238 
Q 1834 4238 1429 3725 
Q 1025 3213 1025 2328 
Q 1025 1447 1429 934 
Q 1834 422 2522 422 
Q 3209 422 3611 934 
Q 4013 1447 4013 2328 
Q 4013 3213 3611 3725 
Q 3209 4238 2522 4238 
z
M 2522 4750 
Q 3503 4750 4090 4092 
Q 4678 3434 4678 2328 
Q 4678 1225 4090 567 
Q 3503 -91 2522 -91 
Q 1538 -91 948 565 
Q 359 1222 359 2328 
Q 359 3434 948 4092 
Q 1538 4750 2522 4750 
z
" id="DejaVuSans-4f" transform="scale(0.015625)"/>
      <path d="M 628 4666 
L 3309 4666 
L 3309 4134 
L 1259 4134 
L 1259 2759 
L 3109 2759 
L 3109 2228 
L 1259 2228 
L 1259 0 
L 628 0 
L 628 4666 
z
" id="DejaVuSans-46" transform="scale(0.015625)"/>
      <path d="M 603 4863 
L 1178 4863 
L 1178 0 
L 603 0 
L 603 4863 
z
" id="DejaVuSans-6c" transform="scale(0.015625)"/>
      <path d="M 2906 2969 
L 2906 4863 
L 3481 4863 
L 3481 0 
L 2906 0 
L 2906 525 
Q 2725 213 2448 61 
Q 2172 -91 1784 -91 
Q 1150 -91 751 415 
Q 353 922 353 1747 
Q 353 2572 751 3078 
Q 1150 3584 1784 3584 
Q 2172 3584 2448 3432 
Q 2725 3281 2906 2969 
z
M 947 1747 
Q 947 1113 1208 752 
Q 1469 391 1925 391 
Q 2381 391 2643 752 
Q 2906 1113 2906 1747 
Q 2906 2381 2643 2742 
Q 2381 3103 1925 3103 
Q 1469 3103 1208 2742 
Q 947 2381 947 1747 
z
" id="DejaVuSans-64" transform="scale(0.015625)"/>
     </defs>
     <use xlink:href="#DejaVuSans-4f"/>
     <use x="78.710938" xlink:href="#DejaVuSans-70"/>
     <use x="142.1875" xlink:href="#DejaVuSans-65"/>
     <use x="203.710938" xlink:href="#DejaVuSans-6e"/>
     <use x="267.089844" xlink:href="#DejaVuSans-20"/>
     <use x="298.876953" xlink:href="#DejaVuSans-46"/>
     <use x="349.146484" xlink:href="#DejaVuSans-69"/>
     <use x="376.929688" xlink:href="#DejaVuSans-65"/>
     <use x="438.453125" xlink:href="#DejaVuSans-6c"/>
     <use x="466.236328" xlink:href="#DejaVuSans-64"/>
    </g>
   </g>
  </g>
  <g id="axes_3">
   <g id="patch_8">
    <path d="M 40.603125 294.118125 
L 319.603125 294.118125 
L 319.603125 232.345398 
L 40.603125 232.345398 
z
" style="fill:#ffffff;"/>
   </g>
   <g id="matplotlib.axis_5">
    <g id="xtick_12">
     <g id="line2d_37">
      <g>
       <use style="stroke:#000000;stroke-width:0.8;" x="40.603125" xlink:href="#m6c5a77e3b3" y="294.118125"/>
      </g>
     </g>
     <g id="text_20">
      <!-- 1 -->
      <g transform="translate(37.421875 308.716562)scale(0.1 -0.1)">
       <use xlink:href="#DejaVuSans-31"/>
      </g>
     </g>
    </g>
    <g id="xtick_13">
     <g id="line2d_38">
      <g>
       <use style="stroke:#000000;stroke-width:0.8;" x="94.14858" xlink:href="#m6c5a77e3b3" y="294.118125"/>
      </g>
     </g>
     <g id="text_21">
      <!-- 20 -->
      <g transform="translate(87.78608 308.716562)scale(0.1 -0.1)">
       <use xlink:href="#DejaVuSans-32"/>
       <use x="63.623047" xlink:href="#DejaVuSans-30"/>
      </g>
     </g>
    </g>
    <g id="xtick_14">
     <g id="line2d_39">
      <g>
       <use style="stroke:#000000;stroke-width:0.8;" x="150.512216" xlink:href="#m6c5a77e3b3" y="294.118125"/>
      </g>
     </g>
     <g id="text_22">
      <!-- 40 -->
      <g transform="translate(144.149716 308.716562)scale(0.1 -0.1)">
       <use xlink:href="#DejaVuSans-34"/>
       <use x="63.623047" xlink:href="#DejaVuSans-30"/>
      </g>
     </g>
    </g>
    <g id="xtick_15">
     <g id="line2d_40">
      <g>
       <use style="stroke:#000000;stroke-width:0.8;" x="206.875852" xlink:href="#m6c5a77e3b3" y="294.118125"/>
      </g>
     </g>
     <g id="text_23">
      <!-- 60 -->
      <g transform="translate(200.513352 308.716562)scale(0.1 -0.1)">
       <use xlink:href="#DejaVuSans-36"/>
       <use x="63.623047" xlink:href="#DejaVuSans-30"/>
      </g>
     </g>
    </g>
    <g id="xtick_16">
     <g id="line2d_41">
      <g>
       <use style="stroke:#000000;stroke-width:0.8;" x="263.239489" xlink:href="#m6c5a77e3b3" y="294.118125"/>
      </g>
     </g>
     <g id="text_24">
      <!-- 80 -->
      <g transform="translate(256.876989 308.716562)scale(0.1 -0.1)">
       <use xlink:href="#DejaVuSans-38"/>
       <use x="63.623047" xlink:href="#DejaVuSans-30"/>
      </g>
     </g>
    </g>
    <g id="xtick_17">
     <g id="line2d_42">
      <g>
       <use style="stroke:#000000;stroke-width:0.8;" x="319.603125" xlink:href="#m6c5a77e3b3" y="294.118125"/>
      </g>
     </g>
     <g id="text_25">
      <!-- 100 -->
      <g transform="translate(310.059375 308.716562)scale(0.1 -0.1)">
       <use xlink:href="#DejaVuSans-31"/>
       <use x="63.623047" xlink:href="#DejaVuSans-30"/>
       <use x="127.246094" xlink:href="#DejaVuSans-30"/>
      </g>
     </g>
    </g>
    <g id="text_26">
     <!-- Trial -->
     <g transform="translate(169.889062 322.394687)scale(0.1 -0.1)">
      <use xlink:href="#DejaVuSans-54"/>
      <use x="46.333984" xlink:href="#DejaVuSans-72"/>
      <use x="87.447266" xlink:href="#DejaVuSans-69"/>
      <use x="115.230469" xlink:href="#DejaVuSans-61"/>
      <use x="176.509766" xlink:href="#DejaVuSans-6c"/>
     </g>
    </g>
   </g>
   <g id="matplotlib.axis_6">
    <g id="ytick_6">
     <g id="line2d_43">
      <g>
       <use style="stroke:#000000;stroke-width:0.8;" x="40.603125" xlink:href="#m256464642e" y="294.118125"/>
      </g>
     </g>
     <g id="text_27">
      <!-- 0 -->
      <g transform="translate(27.240625 297.917344)scale(0.1 -0.1)">
       <use xlink:href="#DejaVuSans-30"/>
      </g>
     </g>
    </g>
    <g id="ytick_7">
     <g id="line2d_44">
      <g>
       <use style="stroke:#000000;stroke-width:0.8;" x="40.603125" xlink:href="#m256464642e" y="273.478713"/>
      </g>
     </g>
     <g id="text_28">
      <!-- 100 -->
      <g transform="translate(14.515625 277.277932)scale(0.1 -0.1)">
       <use xlink:href="#DejaVuSans-31"/>
       <use x="63.623047" xlink:href="#DejaVuSans-30"/>
       <use x="127.246094" xlink:href="#DejaVuSans-30"/>
      </g>
     </g>
    </g>
    <g id="ytick_8">
     <g id="line2d_45">
      <g>
       <use style="stroke:#000000;stroke-width:0.8;" x="40.603125" xlink:href="#m256464642e" y="252.839302"/>
      </g>
     </g>
     <g id="text_29">
      <!-- 200 -->
      <g transform="translate(14.515625 256.63852)scale(0.1 -0.1)">
       <use xlink:href="#DejaVuSans-32"/>
       <use x="63.623047" xlink:href="#DejaVuSans-30"/>
       <use x="127.246094" xlink:href="#DejaVuSans-30"/>
      </g>
     </g>
    </g>
   </g>
   <g id="line2d_46">
    <path clip-path="url(#p4e1480afaa)" d="M 40.603125 235.547602 
L 43.421307 240.823036 
L 46.239489 248.616478 
L 49.05767 253.549297 
L 51.875852 262.907207 
L 54.694034 264.892718 
L 57.512216 268.587173 
L 60.330398 273.103076 
L 63.14858 276.492067 
L 65.966761 279.344434 
L 68.784943 279.889315 
L 71.603125 281.102912 
L 74.421307 283.265922 
L 77.239489 284.347427 
L 80.05767 284.925331 
L 82.875852 285.424805 
L 85.694034 285.371142 
L 88.512216 286.378346 
L 91.330398 286.42788 
L 94.14858 286.811773 
L 96.966761 286.493926 
L 99.784943 287.034679 
L 102.603125 287.410316 
L 105.421307 287.075958 
L 108.239489 287.525897 
L 111.05767 288.18223 
L 113.875852 288.574379 
L 116.694034 288.417519 
L 119.512216 288.301939 
L 122.330398 288.537228 
L 125.14858 288.367985 
L 127.966761 288.471182 
L 130.784943 288.388624 
L 133.603125 288.442287 
L 136.421307 288.55374 
L 139.239489 288.570251 
L 142.05767 288.462926 
L 144.875852 288.471182 
L 147.694034 288.661065 
L 150.512216 288.735366 
L 153.330398 288.524844 
L 156.14858 288.681704 
L 158.966761 288.557867 
L 161.784943 288.508333 
L 164.603125 288.652809 
L 167.421307 288.743622 
L 170.239489 288.751878 
L 173.05767 288.772517 
L 175.875852 288.694088 
L 178.694034 288.74775 
L 181.512216 288.644553 
L 184.330398 288.607402 
L 187.14858 288.764262 
L 189.966761 288.681704 
L 192.784943 288.896354 
L 195.603125 288.739494 
L 198.421307 288.822052 
L 201.239489 288.768389 
L 204.05767 288.735366 
L 206.875852 288.842691 
L 209.694034 288.780773 
L 212.512216 288.702343 
L 215.330398 288.822052 
L 218.14858 288.780773 
L 220.966761 288.793157 
L 223.784943 288.896354 
L 226.603125 288.68996 
L 229.421307 288.908737 
L 232.239489 288.801413 
L 235.05767 288.912865 
L 237.875852 288.983039 
L 240.694034 288.846819 
L 243.512216 288.896354 
L 246.330398 288.978911 
L 249.14858 288.82618 
L 251.966761 288.896354 
L 254.784943 288.937633 
L 257.603125 288.958272 
L 260.421307 288.945888 
L 263.239489 288.933505 
L 266.05767 288.995423 
L 268.875852 288.867459 
L 271.694034 288.896354 
L 274.512216 288.970656 
L 277.330398 288.912865 
L 280.14858 288.950016 
L 282.966761 289.102748 
L 285.784943 289.024318 
L 288.603125 289.115132 
L 291.421307 289.02019 
L 294.239489 288.999551 
L 297.05767 288.888098 
L 299.875852 288.801413 
L 302.694034 288.950016 
L 305.512216 288.900482 
L 308.330398 288.900482 
L 311.14858 288.954144 
L 313.966761 288.900482 
L 316.784943 289.069725 
L 319.603125 288.995423 
" style="fill:none;stroke:#1f77b4;stroke-linecap:square;stroke-width:1.5;"/>
   </g>
   <g id="line2d_47">
    <path clip-path="url(#p4e1480afaa)" d="M 40.603125 235.060512 
L 43.421307 239.877751 
L 46.239489 247.514333 
L 49.05767 255.344926 
L 51.875852 260.48414 
L 54.694034 264.847311 
L 57.512216 269.511818 
L 60.330398 271.823432 
L 63.14858 275.637596 
L 65.966761 277.515782 
L 68.784943 279.208214 
L 71.603125 279.810885 
L 74.421307 280.657101 
L 77.239489 281.193725 
L 80.05767 283.113191 
L 82.875852 284.855157 
L 85.694034 285.433061 
L 88.512216 286.064627 
L 91.330398 287.108981 
L 94.14858 287.212178 
L 96.966761 287.926301 
L 99.784943 288.289555 
L 102.603125 288.289555 
L 105.421307 288.47531 
L 108.239489 288.458798 
L 111.05767 288.392752 
L 113.875852 288.718855 
L 116.694034 288.619786 
L 119.512216 288.401008 
L 122.330398 288.727111 
L 125.14858 288.586763 
L 127.966761 288.623914 
L 130.784943 288.727111 
L 133.603125 288.632169 
L 136.421307 288.421647 
L 139.239489 288.739494 
L 142.05767 288.55374 
L 144.875852 288.685832 
L 147.694034 288.727111 
L 150.512216 288.780773 
L 153.330398 288.739494 
L 156.14858 288.673448 
L 158.966761 288.677576 
L 161.784943 288.789029 
L 164.603125 288.632169 
L 167.421307 288.512461 
L 170.239489 288.710599 
L 173.05767 288.656937 
L 175.875852 288.545484 
L 178.694034 288.801413 
L 181.512216 288.751878 
L 184.330398 288.867459 
L 187.14858 288.830308 
L 189.966761 288.875714 
L 192.784943 288.776645 
L 195.603125 288.983039 
L 198.421307 288.888098 
L 201.239489 288.801413 
L 204.05767 288.772517 
L 206.875852 288.921121 
L 209.694034 288.954144 
L 212.512216 289.011935 
L 215.330398 288.888098 
L 218.14858 288.950016 
L 220.966761 289.044958 
L 223.784943 288.879842 
L 226.603125 288.991295 
L 229.421307 288.995423 
L 232.239489 288.892226 
L 235.05767 288.974784 
L 237.875852 288.941761 
L 240.694034 288.999551 
L 243.512216 288.983039 
L 246.330398 289.090364 
L 249.14858 288.867459 
L 251.966761 289.003679 
L 254.784943 288.978911 
L 257.603125 289.218329 
L 260.421307 288.875714 
L 263.239489 289.061469 
L 266.05767 289.003679 
L 268.875852 288.991295 
L 271.694034 289.007807 
L 274.512216 288.916993 
L 277.330398 288.995423 
L 280.14858 289.292631 
L 282.966761 289.172922 
L 285.784943 289.094492 
L 288.603125 289.119259 
L 291.421307 289.024318 
L 294.239489 288.970656 
L 297.05767 289.135771 
L 299.875852 289.131643 
L 302.694034 289.065597 
L 305.512216 289.123387 
L 308.330398 288.929377 
L 311.14858 289.082109 
L 313.966761 289.172922 
L 316.784943 289.131643 
L 319.603125 289.243096 
" style="fill:none;stroke:#ff7f0e;stroke-linecap:square;stroke-width:1.5;"/>
   </g>
   <g id="line2d_48">
    <path clip-path="url(#p4e1480afaa)" d="M 40.603125 236.893292 
L 43.421307 241.429835 
L 46.239489 249.883738 
L 49.05767 255.683413 
L 51.875852 259.377867 
L 54.694034 263.435576 
L 57.512216 266.126955 
L 60.330398 272.12064 
L 63.14858 275.303237 
L 65.966761 277.953338 
L 68.784943 280.913029 
L 71.603125 282.518776 
L 74.421307 283.625048 
L 77.239489 285.012017 
L 80.05767 286.34945 
L 82.875852 287.224561 
L 85.694034 287.468107 
L 88.512216 287.682756 
L 91.330398 287.63735 
L 94.14858 288.149207 
L 96.966761 288.405136 
L 99.784943 288.39688 
L 102.603125 288.5331 
L 105.421307 288.495949 
L 108.239489 288.500077 
L 111.05767 288.578507 
L 113.875852 288.574379 
L 116.694034 288.372113 
L 119.512216 288.549612 
L 122.330398 288.677576 
L 125.14858 288.632169 
L 127.966761 288.438159 
L 130.784943 288.61153 
L 133.603125 288.648681 
L 136.421307 288.599146 
L 139.239489 288.442287 
L 142.05767 288.710599 
L 144.875852 288.652809 
L 147.694034 288.855075 
L 150.512216 288.673448 
L 153.330398 288.702343 
L 156.14858 288.570251 
L 158.966761 288.727111 
L 161.784943 288.82618 
L 164.603125 288.702343 
L 167.421307 288.871587 
L 170.239489 288.780773 
L 173.05767 288.82618 
L 175.875852 288.987167 
L 178.694034 288.722983 
L 181.512216 288.789029 
L 184.330398 288.677576 
L 187.14858 288.74775 
L 189.966761 288.780773 
L 192.784943 288.764262 
L 195.603125 288.900482 
L 198.421307 288.751878 
L 201.239489 288.879842 
L 204.05767 288.859203 
L 206.875852 288.867459 
L 209.694034 288.685832 
L 212.512216 288.958272 
L 215.330398 288.809668 
L 218.14858 288.9624 
L 220.966761 288.801413 
L 223.784943 288.954144 
L 226.603125 288.830308 
L 229.421307 288.855075 
L 232.239489 289.011935 
L 235.05767 288.933505 
L 237.875852 288.974784 
L 240.694034 288.896354 
L 243.512216 288.879842 
L 246.330398 289.02019 
L 249.14858 289.102748 
L 251.966761 288.987167 
L 254.784943 288.879842 
L 257.603125 288.863331 
L 260.421307 288.896354 
L 263.239489 289.036702 
L 266.05767 288.991295 
L 268.875852 289.073853 
L 271.694034 288.9624 
L 274.512216 289.082109 
L 277.330398 289.032574 
L 280.14858 289.049085 
L 282.966761 289.036702 
L 285.784943 289.057341 
L 288.603125 288.90461 
L 291.421307 288.995423 
L 294.239489 289.123387 
L 297.05767 288.90461 
L 299.875852 289.028446 
L 302.694034 288.950016 
L 305.512216 288.945888 
L 308.330398 288.995423 
L 311.14858 288.879842 
L 313.966761 289.044958 
L 316.784943 289.04083 
L 319.603125 289.04083 
" style="fill:none;stroke:#2ca02c;stroke-linecap:square;stroke-width:1.5;"/>
   </g>
   <g id="line2d_49">
    <path clip-path="url(#p4e1480afaa)" d="M 40.603125 235.745741 
L 43.421307 242.428782 
L 46.239489 247.9684 
L 49.05767 250.816639 
L 51.875852 257.681308 
L 54.694034 262.886567 
L 57.512216 265.759573 
L 60.330398 270.419952 
L 63.14858 272.867787 
L 65.966761 273.425051 
L 68.784943 274.952367 
L 71.603125 275.905908 
L 74.421307 277.280493 
L 77.239489 278.968797 
L 80.05767 280.838728 
L 82.875852 281.982151 
L 85.694034 283.096679 
L 88.512216 283.459933 
L 91.330398 283.691094 
L 94.14858 285.152365 
L 96.966761 285.767419 
L 99.784943 286.192591 
L 102.603125 286.708576 
L 105.421307 286.931482 
L 108.239489 286.791134 
L 111.05767 286.972761 
L 113.875852 286.923226 
L 116.694034 287.369037 
L 119.512216 287.653861 
L 122.330398 287.90979 
L 125.14858 288.153335 
L 127.966761 288.293683 
L 130.784943 288.136823 
L 133.603125 288.235893 
L 136.421307 288.050138 
L 139.239489 288.12444 
L 142.05767 288.326706 
L 144.875852 288.20287 
L 147.694034 288.190486 
L 150.512216 288.190486 
L 153.330398 288.194614 
L 156.14858 288.277171 
L 158.966761 288.26066 
L 161.784943 288.314322 
L 164.603125 288.256532 
L 167.421307 288.359729 
L 170.239489 288.244148 
L 173.05767 288.149207 
L 175.875852 288.326706 
L 178.694034 288.20287 
L 181.512216 288.273044 
L 184.330398 288.392752 
L 187.14858 288.434031 
L 189.966761 288.322578 
L 192.784943 288.372113 
L 195.603125 288.780773 
L 198.421307 288.954144 
L 201.239489 288.941761 
L 204.05767 289.115132 
L 206.875852 288.896354 
L 209.694034 288.813796 
L 212.512216 288.978911 
L 215.330398 288.916993 
L 218.14858 288.888098 
L 220.966761 289.069725 
L 223.784943 289.061469 
L 226.603125 288.999551 
L 229.421307 288.797285 
L 232.239489 288.916993 
L 235.05767 288.863331 
L 237.875852 289.090364 
L 240.694034 289.144027 
L 243.512216 289.032574 
L 246.330398 289.057341 
L 249.14858 289.069725 
L 251.966761 289.189433 
L 254.784943 289.028446 
L 257.603125 289.061469 
L 260.421307 289.086236 
L 263.239489 289.049085 
L 266.05767 288.950016 
L 268.875852 289.007807 
L 271.694034 289.23484 
L 274.512216 289.139899 
L 277.330398 289.102748 
L 280.14858 289.214201 
L 282.966761 289.193561 
L 285.784943 289.09862 
L 288.603125 289.189433 
L 291.421307 289.263735 
L 294.239489 289.049085 
L 297.05767 289.09862 
L 299.875852 288.995423 
L 302.694034 289.119259 
L 305.512216 289.218329 
L 308.330398 289.205945 
L 311.14858 289.04083 
L 313.966761 289.144027 
L 316.784943 289.127515 
L 319.603125 289.053213 
" style="fill:none;stroke:#d62728;stroke-linecap:square;stroke-width:1.5;"/>
   </g>
   <g id="line2d_50">
    <path clip-path="url(#p4e1480afaa)" d="M 40.603125 237.372126 
L 43.421307 244.67435 
L 46.239489 250.767105 
L 49.05767 256.513117 
L 51.875852 262.473779 
L 54.694034 268.199152 
L 57.512216 272.603602 
L 60.330398 274.002954 
L 63.14858 276.710845 
L 65.966761 278.403277 
L 68.784943 280.380533 
L 71.603125 282.465113 
L 74.421307 283.307201 
L 77.239489 283.666327 
L 80.05767 284.917075 
L 82.875852 285.895383 
L 85.694034 286.493926 
L 88.512216 286.824157 
L 91.330398 286.981016 
L 94.14858 287.311247 
L 96.966761 287.40206 
L 99.784943 287.579559 
L 102.603125 287.864383 
L 105.421307 288.281299 
L 108.239489 288.268916 
L 111.05767 288.47531 
L 113.875852 288.1038 
L 116.694034 288.31845 
L 119.512216 288.293683 
L 122.330398 288.421647 
L 125.14858 288.417519 
L 127.966761 288.417519 
L 130.784943 288.392752 
L 133.603125 287.810721 
L 136.421307 288.421647 
L 139.239489 288.570251 
L 142.05767 288.590891 
L 144.875852 288.582635 
L 147.694034 288.570251 
L 150.512216 288.446415 
L 153.330398 288.640425 
L 156.14858 288.442287 
L 158.966761 288.570251 
L 161.784943 288.47531 
L 164.603125 288.471182 
L 167.421307 288.582635 
L 170.239489 288.842691 
L 173.05767 288.694088 
L 175.875852 288.561995 
L 178.694034 288.66932 
L 181.512216 288.784901 
L 184.330398 288.574379 
L 187.14858 288.817924 
L 189.966761 288.925249 
L 192.784943 288.813796 
L 195.603125 288.718855 
L 198.421307 288.636297 
L 201.239489 288.784901 
L 204.05767 288.743622 
L 206.875852 288.82618 
L 209.694034 288.954144 
L 212.512216 288.681704 
L 215.330398 288.706471 
L 218.14858 288.735366 
L 220.966761 288.90461 
L 223.784943 288.850947 
L 226.603125 288.875714 
L 229.421307 288.900482 
L 232.239489 288.809668 
L 235.05767 288.834436 
L 237.875852 288.789029 
L 240.694034 288.661065 
L 243.512216 288.846819 
L 246.330398 288.999551 
L 249.14858 288.929377 
L 251.966761 288.921121 
L 254.784943 288.896354 
L 257.603125 288.888098 
L 260.421307 288.945888 
L 263.239489 288.751878 
L 266.05767 288.867459 
L 268.875852 288.950016 
L 271.694034 288.966528 
L 274.512216 289.139899 
L 277.330398 288.809668 
L 280.14858 288.958272 
L 282.966761 289.032574 
L 285.784943 288.80554 
L 288.603125 288.974784 
L 291.421307 289.077981 
L 294.239489 289.036702 
L 297.05767 289.127515 
L 299.875852 288.958272 
L 302.694034 289.102748 
L 305.512216 289.131643 
L 308.330398 289.127515 
L 311.14858 289.152283 
L 313.966761 289.082109 
L 316.784943 289.362805 
L 319.603125 288.925249 
" style="fill:none;stroke:#9467bd;stroke-linecap:square;stroke-width:1.5;"/>
   </g>
   <g id="line2d_51">
    <path clip-path="url(#p4e1480afaa)" d="M 40.603125 235.63016 
L 43.421307 243.535055 
L 46.239489 249.029266 
L 49.05767 254.184991 
L 51.875852 259.76176 
L 54.694034 263.604819 
L 57.512216 269.11967 
L 60.330398 273.631445 
L 63.14858 275.369283 
L 65.966761 277.89142 
L 68.784943 279.204086 
L 71.603125 282.163778 
L 74.421307 283.497084 
L 77.239489 284.677658 
L 80.05767 286.015092 
L 82.875852 286.659042 
L 85.694034 287.104853 
L 88.512216 287.009912 
L 91.330398 286.919098 
L 94.14858 287.009912 
L 96.966761 287.946941 
L 99.784943 288.39688 
L 102.603125 288.487693 
L 105.421307 288.421647 
L 108.239489 288.215253 
L 111.05767 288.372113 
L 113.875852 288.351473 
L 116.694034 288.33909 
L 119.512216 288.561995 
L 122.330398 288.413392 
L 125.14858 288.434031 
L 127.966761 288.541356 
L 130.784943 288.491821 
L 133.603125 288.520717 
L 136.421307 288.607402 
L 139.239489 288.479438 
L 142.05767 288.524844 
L 144.875852 288.561995 
L 147.694034 288.644553 
L 150.512216 288.566123 
L 153.330398 288.574379 
L 156.14858 288.681704 
L 158.966761 288.706471 
L 161.784943 288.702343 
L 164.603125 288.574379 
L 167.421307 288.599146 
L 170.239489 288.735366 
L 173.05767 288.681704 
L 175.875852 288.68996 
L 178.694034 288.702343 
L 181.512216 288.801413 
L 184.330398 288.801413 
L 187.14858 288.780773 
L 189.966761 288.813796 
L 192.784943 288.727111 
L 195.603125 288.776645 
L 198.421307 288.743622 
L 201.239489 288.871587 
L 204.05767 288.702343 
L 206.875852 288.937633 
L 209.694034 288.607402 
L 212.512216 288.945888 
L 215.330398 288.838563 
L 218.14858 288.958272 
L 220.966761 288.735366 
L 223.784943 288.756006 
L 226.603125 288.739494 
L 229.421307 288.970656 
L 232.239489 288.925249 
L 235.05767 288.974784 
L 237.875852 288.830308 
L 240.694034 289.094492 
L 243.512216 288.954144 
L 246.330398 288.888098 
L 249.14858 289.069725 
L 251.966761 289.053213 
L 254.784943 288.90461 
L 257.603125 288.974784 
L 260.421307 288.970656 
L 263.239489 288.933505 
L 266.05767 288.88397 
L 268.875852 288.966528 
L 271.694034 289.218329 
L 274.512216 289.111004 
L 277.330398 289.02019 
L 280.14858 288.999551 
L 282.966761 289.106876 
L 285.784943 289.007807 
L 288.603125 289.094492 
L 291.421307 288.958272 
L 294.239489 289.032574 
L 297.05767 288.995423 
L 299.875852 289.032574 
L 302.694034 288.921121 
L 305.512216 289.011935 
L 308.330398 288.983039 
L 311.14858 289.090364 
L 313.966761 288.925249 
L 316.784943 289.082109 
L 319.603125 289.061469 
" style="fill:none;stroke:#8c564b;stroke-linecap:square;stroke-width:1.5;"/>
   </g>
   <g id="line2d_52">
    <path clip-path="url(#p4e1480afaa)" d="M 40.603125 235.861322 
L 43.421307 239.597055 
L 46.239489 244.2079 
L 49.05767 246.523642 
L 51.875852 251.98483 
L 54.694034 257.503809 
L 57.512216 261.701865 
L 60.330398 265.565563 
L 63.14858 266.358116 
L 65.966761 269.602632 
L 68.784943 271.468435 
L 71.603125 273.544759 
L 74.421307 276.009105 
L 77.239489 277.569445 
L 80.05767 279.68292 
L 82.875852 280.368149 
L 85.694034 281.689071 
L 88.512216 282.477497 
L 91.330398 283.051272 
L 94.14858 283.748885 
L 96.966761 285.416549 
L 99.784943 286.15544 
L 102.603125 285.94079 
L 105.421307 286.394857 
L 108.239489 286.287532 
L 111.05767 286.960377 
L 113.875852 287.298863 
L 116.694034 287.513513 
L 119.512216 287.302991 
L 122.330398 287.913918 
L 125.14858 287.984092 
L 127.966761 287.90979 
L 130.784943 288.322578 
L 133.603125 288.772517 
L 136.421307 288.640425 
L 139.239489 288.68996 
L 142.05767 288.722983 
L 144.875852 288.871587 
L 147.694034 288.830308 
L 150.512216 288.714727 
L 153.330398 288.82618 
L 156.14858 288.941761 
L 158.966761 288.789029 
L 161.784943 288.768389 
L 164.603125 288.846819 
L 167.421307 288.813796 
L 170.239489 288.677576 
L 173.05767 288.797285 
L 175.875852 288.652809 
L 178.694034 288.966528 
L 181.512216 288.822052 
L 184.330398 288.784901 
L 187.14858 288.760134 
L 189.966761 288.80554 
L 192.784943 288.978911 
L 195.603125 288.916993 
L 198.421307 288.978911 
L 201.239489 288.834436 
L 204.05767 288.879842 
L 206.875852 288.82618 
L 209.694034 288.850947 
L 212.512216 289.061469 
L 215.330398 288.995423 
L 218.14858 288.846819 
L 220.966761 288.970656 
L 223.784943 289.057341 
L 226.603125 288.867459 
L 229.421307 288.929377 
L 232.239489 288.842691 
L 235.05767 288.817924 
L 237.875852 288.817924 
L 240.694034 289.135771 
L 243.512216 288.900482 
L 246.330398 288.817924 
L 249.14858 289.011935 
L 251.966761 288.925249 
L 254.784943 288.974784 
L 257.603125 289.057341 
L 260.421307 289.197689 
L 263.239489 289.036702 
L 266.05767 288.954144 
L 268.875852 289.028446 
L 271.694034 289.024318 
L 274.512216 289.028446 
L 277.330398 289.160538 
L 280.14858 289.115132 
L 282.966761 289.144027 
L 285.784943 289.15641 
L 288.603125 289.024318 
L 291.421307 289.185306 
L 294.239489 289.024318 
L 297.05767 288.983039 
L 299.875852 288.999551 
L 302.694034 289.135771 
L 305.512216 289.139899 
L 308.330398 289.144027 
L 311.14858 289.102748 
L 313.966761 289.024318 
L 316.784943 289.17705 
L 319.603125 289.069725 
" style="fill:none;stroke:#e377c2;stroke-linecap:square;stroke-width:1.5;"/>
   </g>
   <g id="line2d_53">
    <path clip-path="url(#p4e1480afaa)" d="M 40.603125 236.649747 
L 43.421307 239.213162 
L 46.239489 241.644485 
L 49.05767 246.263585 
L 51.875852 251.82797 
L 54.694034 256.884626 
L 57.512216 259.790655 
L 60.330398 264.372605 
L 63.14858 266.927764 
L 65.966761 271.274424 
L 68.784943 271.885351 
L 71.603125 274.671671 
L 74.421307 274.514812 
L 77.239489 276.999797 
L 80.05767 278.551881 
L 82.875852 279.121528 
L 85.694034 280.628206 
L 88.512216 281.329946 
L 91.330398 281.734478 
L 94.14858 282.308254 
L 96.966761 282.642612 
L 99.784943 283.063656 
L 102.603125 283.009994 
L 105.421307 284.277253 
L 108.239489 285.119341 
L 111.05767 285.168876 
L 113.875852 285.845849 
L 116.694034 286.105905 
L 119.512216 286.188463 
L 122.330398 286.638402 
L 125.14858 287.34427 
L 127.966761 287.484618 
L 130.784943 288.599146 
L 133.603125 288.095545 
L 136.421307 288.285427 
L 139.239489 288.215253 
L 142.05767 288.186358 
L 144.875852 288.194614 
L 147.694034 288.132696 
L 150.512216 288.219381 
L 153.330398 288.223509 
L 156.14858 288.590891 
L 158.966761 288.743622 
L 161.784943 288.727111 
L 164.603125 288.842691 
L 167.421307 288.908737 
L 170.239489 288.929377 
L 173.05767 288.966528 
L 175.875852 288.793157 
L 178.694034 288.974784 
L 181.512216 288.88397 
L 184.330398 288.867459 
L 187.14858 288.950016 
L 189.966761 288.888098 
L 192.784943 289.073853 
L 195.603125 288.978911 
L 198.421307 289.069725 
L 201.239489 289.214201 
L 204.05767 289.016062 
L 206.875852 288.999551 
L 209.694034 288.974784 
L 212.512216 289.086236 
L 215.330398 289.090364 
L 218.14858 289.065597 
L 220.966761 289.02019 
L 223.784943 289.106876 
L 226.603125 288.912865 
L 229.421307 288.978911 
L 232.239489 289.053213 
L 235.05767 289.094492 
L 237.875852 289.119259 
L 240.694034 289.119259 
L 243.512216 289.127515 
L 246.330398 289.02019 
L 249.14858 288.879842 
L 251.966761 288.954144 
L 254.784943 289.160538 
L 257.603125 289.168794 
L 260.421307 288.987167 
L 263.239489 289.127515 
L 266.05767 289.016062 
L 268.875852 289.119259 
L 271.694034 289.152283 
L 274.512216 289.210073 
L 277.330398 289.04083 
L 280.14858 289.263735 
L 282.966761 288.978911 
L 285.784943 288.912865 
L 288.603125 289.053213 
L 291.421307 289.144027 
L 294.239489 289.106876 
L 297.05767 289.181178 
L 299.875852 289.139899 
L 302.694034 288.958272 
L 305.512216 289.197689 
L 308.330398 289.164666 
L 311.14858 289.057341 
L 313.966761 289.193561 
L 316.784943 289.04083 
L 319.603125 289.131643 
" style="fill:none;stroke:#7f7f7f;stroke-linecap:square;stroke-width:1.5;"/>
   </g>
   <g id="line2d_54">
    <path clip-path="url(#p4e1480afaa)" d="M 40.603125 235.898472 
L 43.421307 239.134732 
L 46.239489 242.044889 
L 49.05767 243.679531 
L 51.875852 245.173824 
L 54.694034 250.556583 
L 57.512216 253.52453 
L 60.330398 257.87119 
L 63.14858 257.252008 
L 65.966761 260.987741 
L 68.784943 263.216798 
L 71.603125 267.187821 
L 74.421307 269.520074 
L 77.239489 271.806921 
L 80.05767 273.46633 
L 82.875852 274.28365 
L 85.694034 277.552933 
L 88.512216 279.224726 
L 91.330398 278.721124 
L 94.14858 280.091581 
L 96.966761 280.108092 
L 99.784943 281.354713 
L 102.603125 282.250463 
L 105.421307 282.366044 
L 108.239489 283.327841 
L 111.05767 284.223591 
L 113.875852 283.414526 
L 116.694034 284.826262 
L 119.512216 286.423752 
L 122.330398 286.332939 
L 125.14858 286.498054 
L 127.966761 286.469159 
L 130.784943 286.630146 
L 133.603125 287.022295 
L 136.421307 287.104853 
L 139.239489 287.05119 
L 142.05767 287.348398 
L 144.875852 287.678629 
L 147.694034 287.946941 
L 150.512216 287.426828 
L 153.330398 287.818977 
L 156.14858 288.227637 
L 158.966761 288.813796 
L 161.784943 288.892226 
L 164.603125 288.978911 
L 167.421307 289.065597 
L 170.239489 288.941761 
L 173.05767 288.978911 
L 175.875852 289.02019 
L 178.694034 289.061469 
L 181.512216 288.970656 
L 184.330398 289.032574 
L 187.14858 288.801413 
L 189.966761 289.073853 
L 192.784943 289.077981 
L 195.603125 288.945888 
L 198.421307 289.044958 
L 201.239489 288.995423 
L 204.05767 289.053213 
L 206.875852 288.900482 
L 209.694034 289.003679 
L 212.512216 288.941761 
L 215.330398 288.867459 
L 218.14858 289.135771 
L 220.966761 289.123387 
L 223.784943 288.958272 
L 226.603125 288.970656 
L 229.421307 289.119259 
L 232.239489 289.131643 
L 235.05767 289.011935 
L 237.875852 289.168794 
L 240.694034 289.197689 
L 243.512216 289.073853 
L 246.330398 289.053213 
L 249.14858 289.106876 
L 251.966761 289.127515 
L 254.784943 289.119259 
L 257.603125 289.259607 
L 260.421307 289.094492 
L 263.239489 289.127515 
L 266.05767 289.044958 
L 268.875852 289.077981 
L 271.694034 289.185306 
L 274.512216 289.358677 
L 277.330398 289.189433 
L 280.14858 289.119259 
L 282.966761 289.131643 
L 285.784943 289.251352 
L 288.603125 289.160538 
L 291.421307 289.271991 
L 294.239489 289.189433 
L 297.05767 289.148155 
L 299.875852 289.119259 
L 302.694034 289.193561 
L 305.512216 289.102748 
L 308.330398 289.181178 
L 311.14858 289.362805 
L 313.966761 289.144027 
L 316.784943 289.044958 
L 319.603125 289.296758 
" style="fill:none;stroke:#bcbd22;stroke-linecap:square;stroke-width:1.5;"/>
   </g>
   <g id="line2d_55">
    <path clip-path="url(#p4e1480afaa)" d="M 40.603125 290.403031 
L 319.603125 290.403031 
" style="fill:none;stroke:#808080;stroke-dasharray:5.55,2.4;stroke-dashoffset:0;stroke-width:1.5;"/>
   </g>
   <g id="patch_9">
    <path d="M 40.603125 294.118125 
L 40.603125 232.345398 
" style="fill:none;stroke:#000000;stroke-linecap:square;stroke-linejoin:miter;stroke-width:0.8;"/>
   </g>
   <g id="patch_10">
    <path d="M 40.603125 294.118125 
L 319.603125 294.118125 
" style="fill:none;stroke:#000000;stroke-linecap:square;stroke-linejoin:miter;stroke-width:0.8;"/>
   </g>
   <g id="text_30">
    <!-- Labyrinth -->
    <g transform="translate(151.632188 226.345398)scale(0.12 -0.12)">
     <defs>
      <path d="M 3116 1747 
Q 3116 2381 2855 2742 
Q 2594 3103 2138 3103 
Q 1681 3103 1420 2742 
Q 1159 2381 1159 1747 
Q 1159 1113 1420 752 
Q 1681 391 2138 391 
Q 2594 391 2855 752 
Q 3116 1113 3116 1747 
z
M 1159 2969 
Q 1341 3281 1617 3432 
Q 1894 3584 2278 3584 
Q 2916 3584 3314 3078 
Q 3713 2572 3713 1747 
Q 3713 922 3314 415 
Q 2916 -91 2278 -91 
Q 1894 -91 1617 61 
Q 1341 213 1159 525 
L 1159 0 
L 581 0 
L 581 4863 
L 1159 4863 
L 1159 2969 
z
" id="DejaVuSans-62" transform="scale(0.015625)"/>
      <path d="M 3513 2113 
L 3513 0 
L 2938 0 
L 2938 2094 
Q 2938 2591 2744 2837 
Q 2550 3084 2163 3084 
Q 1697 3084 1428 2787 
Q 1159 2491 1159 1978 
L 1159 0 
L 581 0 
L 581 4863 
L 1159 4863 
L 1159 2956 
Q 1366 3272 1645 3428 
Q 1925 3584 2291 3584 
Q 2894 3584 3203 3211 
Q 3513 2838 3513 2113 
z
" id="DejaVuSans-68" transform="scale(0.015625)"/>
     </defs>
     <use xlink:href="#DejaVuSans-4c"/>
     <use x="55.712891" xlink:href="#DejaVuSans-61"/>
     <use x="116.992188" xlink:href="#DejaVuSans-62"/>
     <use x="180.46875" xlink:href="#DejaVuSans-79"/>
     <use x="239.648438" xlink:href="#DejaVuSans-72"/>
     <use x="280.761719" xlink:href="#DejaVuSans-69"/>
     <use x="308.544922" xlink:href="#DejaVuSans-6e"/>
     <use x="371.923828" xlink:href="#DejaVuSans-74"/>
     <use x="411.132812" xlink:href="#DejaVuSans-68"/>
    </g>
   </g>
   <g id="legend_1">
    <g id="patch_11">
     <path d="M 28.345313 365.449375 
L 331.860937 365.449375 
Q 333.860937 365.449375 333.860937 363.449375 
L 333.860937 335.093125 
Q 333.860937 333.093125 331.860937 333.093125 
L 28.345313 333.093125 
Q 26.345313 333.093125 26.345313 335.093125 
L 26.345313 363.449375 
Q 26.345313 365.449375 28.345313 365.449375 
z
" style="fill:#ffffff;opacity:0.8;stroke:#cccccc;stroke-linejoin:miter;"/>
    </g>
    <g id="line2d_56">
     <path d="M 30.345313 341.191562 
L 50.345313 341.191562 
" style="fill:none;stroke:#1f77b4;stroke-linecap:square;stroke-width:1.5;"/>
    </g>
    <g id="line2d_57"/>
    <g id="text_31">
     <!-- 0.1 -->
     <g transform="translate(58.345313 344.691562)scale(0.1 -0.1)">
      <defs>
       <path d="M 684 794 
L 1344 794 
L 1344 0 
L 684 0 
L 684 794 
z
" id="DejaVuSans-2e" transform="scale(0.015625)"/>
      </defs>
      <use xlink:href="#DejaVuSans-30"/>
      <use x="63.623047" xlink:href="#DejaVuSans-2e"/>
      <use x="95.410156" xlink:href="#DejaVuSans-31"/>
     </g>
    </g>
    <g id="line2d_58">
     <path d="M 30.345313 355.869687 
L 50.345313 355.869687 
" style="fill:none;stroke:#ff7f0e;stroke-linecap:square;stroke-width:1.5;"/>
    </g>
    <g id="line2d_59"/>
    <g id="text_32">
     <!-- 0.2 -->
     <g transform="translate(58.345313 359.369687)scale(0.1 -0.1)">
      <use xlink:href="#DejaVuSans-30"/>
      <use x="63.623047" xlink:href="#DejaVuSans-2e"/>
      <use x="95.410156" xlink:href="#DejaVuSans-32"/>
     </g>
    </g>
    <g id="line2d_60">
     <path d="M 94.248438 341.191562 
L 114.248438 341.191562 
" style="fill:none;stroke:#2ca02c;stroke-linecap:square;stroke-width:1.5;"/>
    </g>
    <g id="line2d_61"/>
    <g id="text_33">
     <!-- 0.3 -->
     <g transform="translate(122.248438 344.691562)scale(0.1 -0.1)">
      <defs>
       <path d="M 2597 2516 
Q 3050 2419 3304 2112 
Q 3559 1806 3559 1356 
Q 3559 666 3084 287 
Q 2609 -91 1734 -91 
Q 1441 -91 1130 -33 
Q 819 25 488 141 
L 488 750 
Q 750 597 1062 519 
Q 1375 441 1716 441 
Q 2309 441 2620 675 
Q 2931 909 2931 1356 
Q 2931 1769 2642 2001 
Q 2353 2234 1838 2234 
L 1294 2234 
L 1294 2753 
L 1863 2753 
Q 2328 2753 2575 2939 
Q 2822 3125 2822 3475 
Q 2822 3834 2567 4026 
Q 2313 4219 1838 4219 
Q 1578 4219 1281 4162 
Q 984 4106 628 3988 
L 628 4550 
Q 988 4650 1302 4700 
Q 1616 4750 1894 4750 
Q 2613 4750 3031 4423 
Q 3450 4097 3450 3541 
Q 3450 3153 3228 2886 
Q 3006 2619 2597 2516 
z
" id="DejaVuSans-33" transform="scale(0.015625)"/>
      </defs>
      <use xlink:href="#DejaVuSans-30"/>
      <use x="63.623047" xlink:href="#DejaVuSans-2e"/>
      <use x="95.410156" xlink:href="#DejaVuSans-33"/>
     </g>
    </g>
    <g id="line2d_62">
     <path d="M 94.248438 355.869687 
L 114.248438 355.869687 
" style="fill:none;stroke:#d62728;stroke-linecap:square;stroke-width:1.5;"/>
    </g>
    <g id="line2d_63"/>
    <g id="text_34">
     <!-- 0.4 -->
     <g transform="translate(122.248438 359.369687)scale(0.1 -0.1)">
      <use xlink:href="#DejaVuSans-30"/>
      <use x="63.623047" xlink:href="#DejaVuSans-2e"/>
      <use x="95.410156" xlink:href="#DejaVuSans-34"/>
     </g>
    </g>
    <g id="line2d_64">
     <path d="M 158.151563 341.191562 
L 178.151563 341.191562 
" style="fill:none;stroke:#9467bd;stroke-linecap:square;stroke-width:1.5;"/>
    </g>
    <g id="line2d_65"/>
    <g id="text_35">
     <!-- 0.5 -->
     <g transform="translate(186.151563 344.691562)scale(0.1 -0.1)">
      <use xlink:href="#DejaVuSans-30"/>
      <use x="63.623047" xlink:href="#DejaVuSans-2e"/>
      <use x="95.410156" xlink:href="#DejaVuSans-35"/>
     </g>
    </g>
    <g id="line2d_66">
     <path d="M 158.151563 355.869687 
L 178.151563 355.869687 
" style="fill:none;stroke:#8c564b;stroke-linecap:square;stroke-width:1.5;"/>
    </g>
    <g id="line2d_67"/>
    <g id="text_36">
     <!-- 0.6 -->
     <g transform="translate(186.151563 359.369687)scale(0.1 -0.1)">
      <use xlink:href="#DejaVuSans-30"/>
      <use x="63.623047" xlink:href="#DejaVuSans-2e"/>
      <use x="95.410156" xlink:href="#DejaVuSans-36"/>
     </g>
    </g>
    <g id="line2d_68">
     <path d="M 222.054688 341.191562 
L 242.054688 341.191562 
" style="fill:none;stroke:#e377c2;stroke-linecap:square;stroke-width:1.5;"/>
    </g>
    <g id="line2d_69"/>
    <g id="text_37">
     <!-- 0.7 -->
     <g transform="translate(250.054688 344.691562)scale(0.1 -0.1)">
      <defs>
       <path d="M 525 4666 
L 3525 4666 
L 3525 4397 
L 1831 0 
L 1172 0 
L 2766 4134 
L 525 4134 
L 525 4666 
z
" id="DejaVuSans-37" transform="scale(0.015625)"/>
      </defs>
      <use xlink:href="#DejaVuSans-30"/>
      <use x="63.623047" xlink:href="#DejaVuSans-2e"/>
      <use x="95.410156" xlink:href="#DejaVuSans-37"/>
     </g>
    </g>
    <g id="line2d_70">
     <path d="M 222.054688 355.869687 
L 242.054688 355.869687 
" style="fill:none;stroke:#7f7f7f;stroke-linecap:square;stroke-width:1.5;"/>
    </g>
    <g id="line2d_71"/>
    <g id="text_38">
     <!-- 0.8 -->
     <g transform="translate(250.054688 359.369687)scale(0.1 -0.1)">
      <use xlink:href="#DejaVuSans-30"/>
      <use x="63.623047" xlink:href="#DejaVuSans-2e"/>
      <use x="95.410156" xlink:href="#DejaVuSans-38"/>
     </g>
    </g>
    <g id="line2d_72">
     <path d="M 285.957813 341.191562 
L 305.957813 341.191562 
" style="fill:none;stroke:#bcbd22;stroke-linecap:square;stroke-width:1.5;"/>
    </g>
    <g id="line2d_73"/>
    <g id="text_39">
     <!-- 0.9 -->
     <g transform="translate(313.957813 344.691562)scale(0.1 -0.1)">
      <defs>
       <path d="M 703 97 
L 703 672 
Q 941 559 1184 500 
Q 1428 441 1663 441 
Q 2288 441 2617 861 
Q 2947 1281 2994 2138 
Q 2813 1869 2534 1725 
Q 2256 1581 1919 1581 
Q 1219 1581 811 2004 
Q 403 2428 403 3163 
Q 403 3881 828 4315 
Q 1253 4750 1959 4750 
Q 2769 4750 3195 4129 
Q 3622 3509 3622 2328 
Q 3622 1225 3098 567 
Q 2575 -91 1691 -91 
Q 1453 -91 1209 -44 
Q 966 3 703 97 
z
M 1959 2075 
Q 2384 2075 2632 2365 
Q 2881 2656 2881 3163 
Q 2881 3666 2632 3958 
Q 2384 4250 1959 4250 
Q 1534 4250 1286 3958 
Q 1038 3666 1038 3163 
Q 1038 2656 1286 2365 
Q 1534 2075 1959 2075 
z
" id="DejaVuSans-39" transform="scale(0.015625)"/>
      </defs>
      <use xlink:href="#DejaVuSans-30"/>
      <use x="63.623047" xlink:href="#DejaVuSans-2e"/>
      <use x="95.410156" xlink:href="#DejaVuSans-39"/>
     </g>
    </g>
   </g>
  </g>
 </g>
 <defs>
  <clipPath id="p7302ba52a0">
   <rect height="61.772727" width="279" x="40.603125" y="22.318125"/>
  </clipPath>
  <clipPath id="pc4c357e5e8">
   <rect height="61.772727" width="279" x="40.603125" y="127.331761"/>
  </clipPath>
  <clipPath id="p4e1480afaa">
   <rect height="61.772727" width="279" x="40.603125" y="232.345398"/>
  </clipPath>
 </defs>
</svg>
