<?xml version="1.0" encoding="utf-8" standalone="no"?>
<!DOCTYPE svg PUBLIC "-//W3C//DTD SVG 1.1//EN"
  "http://www.w3.org/Graphics/SVG/1.1/DTD/svg11.dtd">
<svg xmlns:xlink="http://www.w3.org/1999/xlink" width="347.423437pt" height="378.724375pt" viewBox="0 0 347.423437 378.724375" xmlns="http://www.w3.org/2000/svg" version="1.1">
 <metadata>
  <rdf:RDF xmlns:dc="http://purl.org/dc/elements/1.1/" xmlns:cc="http://creativecommons.org/ns#" xmlns:rdf="http://www.w3.org/1999/02/22-rdf-syntax-ns#">
   <cc:Work>
    <dc:type rdf:resource="http://purl.org/dc/dcmitype/StillImage"/>
    <dc:date>2023-01-18T13:19:53.850456</dc:date>
    <dc:format>image/svg+xml</dc:format>
    <dc:creator>
     <cc:Agent>
      <dc:title>Matplotlib v3.6.1, https://matplotlib.org/</dc:title>
     </cc:Agent>
    </dc:creator>
   </cc:Work>
  </rdf:RDF>
 </metadata>
 <defs>
  <style type="text/css">*{stroke-linejoin: round; stroke-linecap: butt}</style>
 </defs>
 <g id="figure_1">
  <g id="patch_1">
   <path d="M 0 378.724375 
L 347.423437 378.724375 
L 347.423437 0 
L 0 0 
z
" style="fill: #ffffff"/>
  </g>
  <g id="axes_1">
   <g id="patch_2">
    <path d="M 46.965625 85.318125 
L 325.965625 85.318125 
L 325.965625 22.318125 
L 46.965625 22.318125 
z
" style="fill: #ffffff"/>
   </g>
   <g id="matplotlib.axis_1">
    <g id="xtick_1">
     <g id="line2d_1">
      <defs>
       <path id="m15e2ff242f" d="M 0 0 
L 0 3.5 
" style="stroke: #000000; stroke-width: 0.8"/>
      </defs>
      <g>
       <use xlink:href="#m15e2ff242f" x="46.965625" y="85.318125" style="stroke: #000000; stroke-width: 0.8"/>
      </g>
     </g>
     <g id="text_1">
      <!-- 1 -->
      <g transform="translate(43.784375 99.916562) scale(0.1 -0.1)">
       <defs>
        <path id="DejaVuSans-31" d="M 794 531 
L 1825 531 
L 1825 4091 
L 703 3866 
L 703 4441 
L 1819 4666 
L 2450 4666 
L 2450 531 
L 3481 531 
L 3481 0 
L 794 0 
L 794 531 
z
" transform="scale(0.015625)"/>
       </defs>
       <use xlink:href="#DejaVuSans-31"/>
      </g>
     </g>
    </g>
    <g id="xtick_2">
     <g id="line2d_2">
      <g>
       <use xlink:href="#m15e2ff242f" x="105.702467" y="85.318125" style="stroke: #000000; stroke-width: 0.8"/>
      </g>
     </g>
     <g id="text_2">
      <!-- 5 -->
      <g transform="translate(102.521217 99.916562) scale(0.1 -0.1)">
       <defs>
        <path id="DejaVuSans-35" d="M 691 4666 
L 3169 4666 
L 3169 4134 
L 1269 4134 
L 1269 2991 
Q 1406 3038 1543 3061 
Q 1681 3084 1819 3084 
Q 2600 3084 3056 2656 
Q 3513 2228 3513 1497 
Q 3513 744 3044 326 
Q 2575 -91 1722 -91 
Q 1428 -91 1123 -41 
Q 819 9 494 109 
L 494 744 
Q 775 591 1075 516 
Q 1375 441 1709 441 
Q 2250 441 2565 725 
Q 2881 1009 2881 1497 
Q 2881 1984 2565 2268 
Q 2250 2553 1709 2553 
Q 1456 2553 1204 2497 
Q 953 2441 691 2322 
L 691 4666 
z
" transform="scale(0.015625)"/>
       </defs>
       <use xlink:href="#DejaVuSans-35"/>
      </g>
     </g>
    </g>
    <g id="xtick_3">
     <g id="line2d_3">
      <g>
       <use xlink:href="#m15e2ff242f" x="179.12352" y="85.318125" style="stroke: #000000; stroke-width: 0.8"/>
      </g>
     </g>
     <g id="text_3">
      <!-- 10 -->
      <g transform="translate(172.76102 99.916562) scale(0.1 -0.1)">
       <defs>
        <path id="DejaVuSans-30" d="M 2034 4250 
Q 1547 4250 1301 3770 
Q 1056 3291 1056 2328 
Q 1056 1369 1301 889 
Q 1547 409 2034 409 
Q 2525 409 2770 889 
Q 3016 1369 3016 2328 
Q 3016 3291 2770 3770 
Q 2525 4250 2034 4250 
z
M 2034 4750 
Q 2819 4750 3233 4129 
Q 3647 3509 3647 2328 
Q 3647 1150 3233 529 
Q 2819 -91 2034 -91 
Q 1250 -91 836 529 
Q 422 1150 422 2328 
Q 422 3509 836 4129 
Q 1250 4750 2034 4750 
z
" transform="scale(0.015625)"/>
       </defs>
       <use xlink:href="#DejaVuSans-31"/>
       <use xlink:href="#DejaVuSans-30" x="63.623047"/>
      </g>
     </g>
    </g>
    <g id="xtick_4">
     <g id="line2d_4">
      <g>
       <use xlink:href="#m15e2ff242f" x="252.544572" y="85.318125" style="stroke: #000000; stroke-width: 0.8"/>
      </g>
     </g>
     <g id="text_4">
      <!-- 15 -->
      <g transform="translate(246.182072 99.916562) scale(0.1 -0.1)">
       <use xlink:href="#DejaVuSans-31"/>
       <use xlink:href="#DejaVuSans-35" x="63.623047"/>
      </g>
     </g>
    </g>
    <g id="xtick_5">
     <g id="line2d_5">
      <g>
       <use xlink:href="#m15e2ff242f" x="325.965625" y="85.318125" style="stroke: #000000; stroke-width: 0.8"/>
      </g>
     </g>
     <g id="text_5">
      <!-- 20 -->
      <g transform="translate(319.603125 99.916562) scale(0.1 -0.1)">
       <defs>
        <path id="DejaVuSans-32" d="M 1228 531 
L 3431 531 
L 3431 0 
L 469 0 
L 469 531 
Q 828 903 1448 1529 
Q 2069 2156 2228 2338 
Q 2531 2678 2651 2914 
Q 2772 3150 2772 3378 
Q 2772 3750 2511 3984 
Q 2250 4219 1831 4219 
Q 1534 4219 1204 4116 
Q 875 4013 500 3803 
L 500 4441 
Q 881 4594 1212 4672 
Q 1544 4750 1819 4750 
Q 2544 4750 2975 4387 
Q 3406 4025 3406 3419 
Q 3406 3131 3298 2873 
Q 3191 2616 2906 2266 
Q 2828 2175 2409 1742 
Q 1991 1309 1228 531 
z
" transform="scale(0.015625)"/>
       </defs>
       <use xlink:href="#DejaVuSans-32"/>
       <use xlink:href="#DejaVuSans-30" x="63.623047"/>
      </g>
     </g>
    </g>
   </g>
   <g id="matplotlib.axis_2">
    <g id="ytick_1">
     <g id="line2d_6">
      <defs>
       <path id="m7b9d61e332" d="M 0 0 
L -3.5 0 
" style="stroke: #000000; stroke-width: 0.8"/>
      </defs>
      <g>
       <use xlink:href="#m7b9d61e332" x="46.965625" y="85.318125" style="stroke: #000000; stroke-width: 0.8"/>
      </g>
     </g>
     <g id="text_6">
      <!-- 0 -->
      <g transform="translate(33.603125 89.117344) scale(0.1 -0.1)">
       <use xlink:href="#DejaVuSans-30"/>
      </g>
     </g>
    </g>
    <g id="ytick_2">
     <g id="line2d_7">
      <g>
       <use xlink:href="#m7b9d61e332" x="46.965625" y="63.314465" style="stroke: #000000; stroke-width: 0.8"/>
      </g>
     </g>
     <g id="text_7">
      <!-- 25 -->
      <g transform="translate(27.240625 67.113683) scale(0.1 -0.1)">
       <use xlink:href="#DejaVuSans-32"/>
       <use xlink:href="#DejaVuSans-35" x="63.623047"/>
      </g>
     </g>
    </g>
    <g id="ytick_3">
     <g id="line2d_8">
      <g>
       <use xlink:href="#m7b9d61e332" x="46.965625" y="41.310804" style="stroke: #000000; stroke-width: 0.8"/>
      </g>
     </g>
     <g id="text_8">
      <!-- 50 -->
      <g transform="translate(27.240625 45.110023) scale(0.1 -0.1)">
       <use xlink:href="#DejaVuSans-35"/>
       <use xlink:href="#DejaVuSans-30" x="63.623047"/>
      </g>
     </g>
    </g>
   </g>
   <g id="line2d_9">
    <path d="M 46.965625 29.235196 
L 61.649836 48.660027 
L 76.334046 57.109433 
L 91.018257 65.224382 
L 105.702467 70.082791 
L 120.386678 73.603376 
L 135.070888 76.094191 
L 149.755099 76.217411 
L 164.439309 77.132763 
L 179.12352 77.484822 
L 193.80773 77.326396 
L 208.491941 77.643248 
L 223.176151 77.396807 
L 237.860362 77.255984 
L 252.544572 77.432013 
L 267.228783 77.379204 
L 281.912993 77.59044 
L 296.597204 77.71366 
L 311.281414 77.537631 
L 325.965625 77.132763 
" clip-path="url(#pb3034457c8)" style="fill: none; stroke: #000080; stroke-width: 1.5; stroke-linecap: square"/>
   </g>
   <g id="line2d_10">
    <path d="M 46.965625 30.493805 
L 61.649836 45.702735 
L 76.334046 56.73097 
L 91.018257 65.884492 
L 105.702467 70.91893 
L 120.386678 74.333898 
L 135.070888 76.023779 
L 149.755099 77.29119 
L 164.439309 77.572837 
L 179.12352 77.396807 
L 193.80773 77.537631 
L 208.491941 77.660851 
L 223.176151 77.625645 
L 237.860362 77.484822 
L 252.544572 77.608042 
L 267.228783 77.29119 
L 281.912993 77.520028 
L 296.597204 77.696057 
L 311.281414 77.484822 
L 325.965625 77.572837 
" clip-path="url(#pb3034457c8)" style="fill: none; stroke: #0000ff; stroke-width: 1.5; stroke-linecap: square"/>
   </g>
   <g id="line2d_11">
    <path d="M 46.965625 35.220191 
L 61.649836 45.016221 
L 76.334046 61.281326 
L 91.018257 65.814081 
L 105.702467 73.453751 
L 120.386678 75.18764 
L 135.070888 75.794941 
L 149.755099 76.639881 
L 164.439309 76.886322 
L 179.12352 77.537631 
L 193.80773 77.502425 
L 208.491941 77.326396 
L 223.176151 77.467219 
L 237.860362 77.608042 
L 252.544572 77.467219 
L 267.228783 77.432013 
L 281.912993 77.41441 
L 296.597204 77.41441 
L 311.281414 77.41441 
L 325.965625 77.379204 
" clip-path="url(#pb3034457c8)" style="fill: none; stroke: #0080ff; stroke-width: 1.5; stroke-linecap: square"/>
   </g>
   <g id="line2d_12">
    <path d="M 46.965625 34.058398 
L 61.649836 46.820521 
L 76.334046 57.039021 
L 91.018257 63.754538 
L 105.702467 70.716496 
L 120.386678 74.545133 
L 135.070888 76.39344 
L 149.755099 76.939131 
L 164.439309 77.520028 
L 179.12352 77.432013 
L 193.80773 77.484822 
L 208.491941 77.59044 
L 223.176151 77.625645 
L 237.860362 77.343999 
L 252.544572 77.502425 
L 267.228783 77.608042 
L 281.912993 77.660851 
L 296.597204 77.537631 
L 311.281414 77.41441 
L 325.965625 77.273587 
" clip-path="url(#pb3034457c8)" style="fill: none; stroke: #16ffe1; stroke-width: 1.5; stroke-linecap: square"/>
   </g>
   <g id="line2d_13">
    <path d="M 46.965625 28.020594 
L 61.649836 46.33644 
L 76.334046 55.375544 
L 91.018257 65.285993 
L 105.702467 70.346835 
L 120.386678 73.1457 
L 135.070888 76.146999 
L 149.755099 76.675087 
L 164.439309 77.185572 
L 179.12352 77.308793 
L 193.80773 77.255984 
L 208.491941 77.467219 
L 223.176151 77.41441 
L 237.860362 77.308793 
L 252.544572 77.379204 
L 267.228783 77.41441 
L 281.912993 77.484822 
L 296.597204 77.502425 
L 311.281414 77.520028 
L 325.965625 77.625645 
" clip-path="url(#pb3034457c8)" style="fill: none; stroke: #7dff7a; stroke-width: 1.5; stroke-linecap: square"/>
   </g>
   <g id="line2d_14">
    <path d="M 46.965625 30.132945 
L 61.649836 48.360777 
L 76.334046 58.244821 
L 91.018257 67.486359 
L 105.702467 72.960869 
L 120.386678 73.453751 
L 135.070888 75.583706 
L 149.755099 76.921528 
L 164.439309 77.555234 
L 179.12352 77.326396 
L 193.80773 77.537631 
L 208.491941 77.572837 
L 223.176151 77.643248 
L 237.860362 77.625645 
L 252.544572 77.449616 
L 267.228783 77.467219 
L 281.912993 77.484822 
L 296.597204 77.625645 
L 311.281414 77.537631 
L 325.965625 77.326396 
" clip-path="url(#pb3034457c8)" style="fill: none; stroke: #e4ff13; stroke-width: 1.5; stroke-linecap: square"/>
   </g>
   <g id="line2d_15">
    <path d="M 46.965625 37.482168 
L 61.649836 44.787383 
L 76.334046 56.660558 
L 91.018257 64.159405 
L 105.702467 70.329232 
L 120.386678 74.703559 
L 135.070888 76.252617 
L 149.755099 77.062352 
L 164.439309 77.308793 
L 179.12352 77.379204 
L 193.80773 77.502425 
L 208.491941 77.572837 
L 223.176151 77.625645 
L 237.860362 77.379204 
L 252.544572 77.537631 
L 267.228783 77.379204 
L 281.912993 77.396807 
L 296.597204 77.449616 
L 311.281414 77.308793 
L 325.965625 77.537631 
" clip-path="url(#pb3034457c8)" style="fill: none; stroke: #ff9400; stroke-width: 1.5; stroke-linecap: square"/>
   </g>
   <g id="line2d_16">
    <path d="M 46.965625 24.957684 
L 61.649836 42.569414 
L 76.334046 55.463559 
L 91.018257 63.868957 
L 105.702467 67.521565 
L 120.386678 72.503193 
L 135.070888 74.967603 
L 149.755099 76.851117 
L 164.439309 77.238381 
L 179.12352 77.396807 
L 193.80773 77.449616 
L 208.491941 77.484822 
L 223.176151 77.449616 
L 237.860362 77.484822 
L 252.544572 77.59044 
L 267.228783 77.555234 
L 281.912993 77.572837 
L 296.597204 77.432013 
L 311.281414 77.555234 
L 325.965625 77.502425 
" clip-path="url(#pb3034457c8)" style="fill: none; stroke: #ff1e00; stroke-width: 1.5; stroke-linecap: square"/>
   </g>
   <g id="line2d_17">
    <path d="M 46.965625 29.182387 
L 61.649836 45.579515 
L 76.334046 55.181912 
L 91.018257 63.244053 
L 105.702467 68.498527 
L 120.386678 73.964236 
L 135.070888 75.363669 
L 149.755099 76.886322 
L 164.439309 77.11516 
L 179.12352 77.608042 
L 193.80773 77.273587 
L 208.491941 77.731263 
L 223.176151 77.432013 
L 237.860362 77.572837 
L 252.544572 77.748866 
L 267.228783 77.449616 
L 281.912993 77.308793 
L 296.597204 77.660851 
L 311.281414 77.396807 
L 325.965625 77.502425 
" clip-path="url(#pb3034457c8)" style="fill: none; stroke: #800000; stroke-width: 1.5; stroke-linecap: square"/>
   </g>
   <g id="line2d_18">
    <path d="M 46.965625 77.396807 
L 325.965625 77.396807 
" clip-path="url(#pb3034457c8)" style="fill: none; stroke-dasharray: 5.55,2.4; stroke-dashoffset: 0; stroke: #808080; stroke-width: 1.5"/>
   </g>
   <g id="patch_3">
    <path d="M 46.965625 85.318125 
L 46.965625 22.318125 
" style="fill: none; stroke: #000000; stroke-width: 0.8; stroke-linejoin: miter; stroke-linecap: square"/>
   </g>
   <g id="patch_4">
    <path d="M 46.965625 85.318125 
L 325.965625 85.318125 
" style="fill: none; stroke: #000000; stroke-width: 0.8; stroke-linejoin: miter; stroke-linecap: square"/>
   </g>
   <g id="text_9">
    <!-- Linear Track -->
    <g transform="translate(150.214375 16.318125) scale(0.12 -0.12)">
     <defs>
      <path id="DejaVuSans-4c" d="M 628 4666 
L 1259 4666 
L 1259 531 
L 3531 531 
L 3531 0 
L 628 0 
L 628 4666 
z
" transform="scale(0.015625)"/>
      <path id="DejaVuSans-69" d="M 603 3500 
L 1178 3500 
L 1178 0 
L 603 0 
L 603 3500 
z
M 603 4863 
L 1178 4863 
L 1178 4134 
L 603 4134 
L 603 4863 
z
" transform="scale(0.015625)"/>
      <path id="DejaVuSans-6e" d="M 3513 2113 
L 3513 0 
L 2938 0 
L 2938 2094 
Q 2938 2591 2744 2837 
Q 2550 3084 2163 3084 
Q 1697 3084 1428 2787 
Q 1159 2491 1159 1978 
L 1159 0 
L 581 0 
L 581 3500 
L 1159 3500 
L 1159 2956 
Q 1366 3272 1645 3428 
Q 1925 3584 2291 3584 
Q 2894 3584 3203 3211 
Q 3513 2838 3513 2113 
z
" transform="scale(0.015625)"/>
      <path id="DejaVuSans-65" d="M 3597 1894 
L 3597 1613 
L 953 1613 
Q 991 1019 1311 708 
Q 1631 397 2203 397 
Q 2534 397 2845 478 
Q 3156 559 3463 722 
L 3463 178 
Q 3153 47 2828 -22 
Q 2503 -91 2169 -91 
Q 1331 -91 842 396 
Q 353 884 353 1716 
Q 353 2575 817 3079 
Q 1281 3584 2069 3584 
Q 2775 3584 3186 3129 
Q 3597 2675 3597 1894 
z
M 3022 2063 
Q 3016 2534 2758 2815 
Q 2500 3097 2075 3097 
Q 1594 3097 1305 2825 
Q 1016 2553 972 2059 
L 3022 2063 
z
" transform="scale(0.015625)"/>
      <path id="DejaVuSans-61" d="M 2194 1759 
Q 1497 1759 1228 1600 
Q 959 1441 959 1056 
Q 959 750 1161 570 
Q 1363 391 1709 391 
Q 2188 391 2477 730 
Q 2766 1069 2766 1631 
L 2766 1759 
L 2194 1759 
z
M 3341 1997 
L 3341 0 
L 2766 0 
L 2766 531 
Q 2569 213 2275 61 
Q 1981 -91 1556 -91 
Q 1019 -91 701 211 
Q 384 513 384 1019 
Q 384 1609 779 1909 
Q 1175 2209 1959 2209 
L 2766 2209 
L 2766 2266 
Q 2766 2663 2505 2880 
Q 2244 3097 1772 3097 
Q 1472 3097 1187 3025 
Q 903 2953 641 2809 
L 641 3341 
Q 956 3463 1253 3523 
Q 1550 3584 1831 3584 
Q 2591 3584 2966 3190 
Q 3341 2797 3341 1997 
z
" transform="scale(0.015625)"/>
      <path id="DejaVuSans-72" d="M 2631 2963 
Q 2534 3019 2420 3045 
Q 2306 3072 2169 3072 
Q 1681 3072 1420 2755 
Q 1159 2438 1159 1844 
L 1159 0 
L 581 0 
L 581 3500 
L 1159 3500 
L 1159 2956 
Q 1341 3275 1631 3429 
Q 1922 3584 2338 3584 
Q 2397 3584 2469 3576 
Q 2541 3569 2628 3553 
L 2631 2963 
z
" transform="scale(0.015625)"/>
      <path id="DejaVuSans-20" transform="scale(0.015625)"/>
      <path id="DejaVuSans-54" d="M -19 4666 
L 3928 4666 
L 3928 4134 
L 2272 4134 
L 2272 0 
L 1638 0 
L 1638 4134 
L -19 4134 
L -19 4666 
z
" transform="scale(0.015625)"/>
      <path id="DejaVuSans-63" d="M 3122 3366 
L 3122 2828 
Q 2878 2963 2633 3030 
Q 2388 3097 2138 3097 
Q 1578 3097 1268 2742 
Q 959 2388 959 1747 
Q 959 1106 1268 751 
Q 1578 397 2138 397 
Q 2388 397 2633 464 
Q 2878 531 3122 666 
L 3122 134 
Q 2881 22 2623 -34 
Q 2366 -91 2075 -91 
Q 1284 -91 818 406 
Q 353 903 353 1747 
Q 353 2603 823 3093 
Q 1294 3584 2113 3584 
Q 2378 3584 2631 3529 
Q 2884 3475 3122 3366 
z
" transform="scale(0.015625)"/>
      <path id="DejaVuSans-6b" d="M 581 4863 
L 1159 4863 
L 1159 1991 
L 2875 3500 
L 3609 3500 
L 1753 1863 
L 3688 0 
L 2938 0 
L 1159 1709 
L 1159 0 
L 581 0 
L 581 4863 
z
" transform="scale(0.015625)"/>
     </defs>
     <use xlink:href="#DejaVuSans-4c"/>
     <use xlink:href="#DejaVuSans-69" x="55.712891"/>
     <use xlink:href="#DejaVuSans-6e" x="83.496094"/>
     <use xlink:href="#DejaVuSans-65" x="146.875"/>
     <use xlink:href="#DejaVuSans-61" x="208.398438"/>
     <use xlink:href="#DejaVuSans-72" x="269.677734"/>
     <use xlink:href="#DejaVuSans-20" x="310.791016"/>
     <use xlink:href="#DejaVuSans-54" x="342.578125"/>
     <use xlink:href="#DejaVuSans-72" x="388.912109"/>
     <use xlink:href="#DejaVuSans-61" x="430.025391"/>
     <use xlink:href="#DejaVuSans-63" x="491.304688"/>
     <use xlink:href="#DejaVuSans-6b" x="546.285156"/>
    </g>
   </g>
  </g>
  <g id="axes_2">
   <g id="patch_5">
    <path d="M 46.965625 192.418125 
L 325.965625 192.418125 
L 325.965625 129.418125 
L 46.965625 129.418125 
z
" style="fill: #ffffff"/>
   </g>
   <g id="matplotlib.axis_3">
    <g id="xtick_6">
     <g id="line2d_19">
      <g>
       <use xlink:href="#m15e2ff242f" x="46.965625" y="192.418125" style="stroke: #000000; stroke-width: 0.8"/>
      </g>
     </g>
     <g id="text_10">
      <!-- 1 -->
      <g transform="translate(43.784375 207.016562) scale(0.1 -0.1)">
       <use xlink:href="#DejaVuSans-31"/>
      </g>
     </g>
    </g>
    <g id="xtick_7">
     <g id="line2d_20">
      <g>
       <use xlink:href="#m15e2ff242f" x="100.51108" y="192.418125" style="stroke: #000000; stroke-width: 0.8"/>
      </g>
     </g>
     <g id="text_11">
      <!-- 20 -->
      <g transform="translate(94.14858 207.016562) scale(0.1 -0.1)">
       <use xlink:href="#DejaVuSans-32"/>
       <use xlink:href="#DejaVuSans-30" x="63.623047"/>
      </g>
     </g>
    </g>
    <g id="xtick_8">
     <g id="line2d_21">
      <g>
       <use xlink:href="#m15e2ff242f" x="156.874716" y="192.418125" style="stroke: #000000; stroke-width: 0.8"/>
      </g>
     </g>
     <g id="text_12">
      <!-- 40 -->
      <g transform="translate(150.512216 207.016562) scale(0.1 -0.1)">
       <defs>
        <path id="DejaVuSans-34" d="M 2419 4116 
L 825 1625 
L 2419 1625 
L 2419 4116 
z
M 2253 4666 
L 3047 4666 
L 3047 1625 
L 3713 1625 
L 3713 1100 
L 3047 1100 
L 3047 0 
L 2419 0 
L 2419 1100 
L 313 1100 
L 313 1709 
L 2253 4666 
z
" transform="scale(0.015625)"/>
       </defs>
       <use xlink:href="#DejaVuSans-34"/>
       <use xlink:href="#DejaVuSans-30" x="63.623047"/>
      </g>
     </g>
    </g>
    <g id="xtick_9">
     <g id="line2d_22">
      <g>
       <use xlink:href="#m15e2ff242f" x="213.238352" y="192.418125" style="stroke: #000000; stroke-width: 0.8"/>
      </g>
     </g>
     <g id="text_13">
      <!-- 60 -->
      <g transform="translate(206.875852 207.016562) scale(0.1 -0.1)">
       <defs>
        <path id="DejaVuSans-36" d="M 2113 2584 
Q 1688 2584 1439 2293 
Q 1191 2003 1191 1497 
Q 1191 994 1439 701 
Q 1688 409 2113 409 
Q 2538 409 2786 701 
Q 3034 994 3034 1497 
Q 3034 2003 2786 2293 
Q 2538 2584 2113 2584 
z
M 3366 4563 
L 3366 3988 
Q 3128 4100 2886 4159 
Q 2644 4219 2406 4219 
Q 1781 4219 1451 3797 
Q 1122 3375 1075 2522 
Q 1259 2794 1537 2939 
Q 1816 3084 2150 3084 
Q 2853 3084 3261 2657 
Q 3669 2231 3669 1497 
Q 3669 778 3244 343 
Q 2819 -91 2113 -91 
Q 1303 -91 875 529 
Q 447 1150 447 2328 
Q 447 3434 972 4092 
Q 1497 4750 2381 4750 
Q 2619 4750 2861 4703 
Q 3103 4656 3366 4563 
z
" transform="scale(0.015625)"/>
       </defs>
       <use xlink:href="#DejaVuSans-36"/>
       <use xlink:href="#DejaVuSans-30" x="63.623047"/>
      </g>
     </g>
    </g>
    <g id="xtick_10">
     <g id="line2d_23">
      <g>
       <use xlink:href="#m15e2ff242f" x="269.601989" y="192.418125" style="stroke: #000000; stroke-width: 0.8"/>
      </g>
     </g>
     <g id="text_14">
      <!-- 80 -->
      <g transform="translate(263.239489 207.016562) scale(0.1 -0.1)">
       <defs>
        <path id="DejaVuSans-38" d="M 2034 2216 
Q 1584 2216 1326 1975 
Q 1069 1734 1069 1313 
Q 1069 891 1326 650 
Q 1584 409 2034 409 
Q 2484 409 2743 651 
Q 3003 894 3003 1313 
Q 3003 1734 2745 1975 
Q 2488 2216 2034 2216 
z
M 1403 2484 
Q 997 2584 770 2862 
Q 544 3141 544 3541 
Q 544 4100 942 4425 
Q 1341 4750 2034 4750 
Q 2731 4750 3128 4425 
Q 3525 4100 3525 3541 
Q 3525 3141 3298 2862 
Q 3072 2584 2669 2484 
Q 3125 2378 3379 2068 
Q 3634 1759 3634 1313 
Q 3634 634 3220 271 
Q 2806 -91 2034 -91 
Q 1263 -91 848 271 
Q 434 634 434 1313 
Q 434 1759 690 2068 
Q 947 2378 1403 2484 
z
M 1172 3481 
Q 1172 3119 1398 2916 
Q 1625 2713 2034 2713 
Q 2441 2713 2670 2916 
Q 2900 3119 2900 3481 
Q 2900 3844 2670 4047 
Q 2441 4250 2034 4250 
Q 1625 4250 1398 4047 
Q 1172 3844 1172 3481 
z
" transform="scale(0.015625)"/>
       </defs>
       <use xlink:href="#DejaVuSans-38"/>
       <use xlink:href="#DejaVuSans-30" x="63.623047"/>
      </g>
     </g>
    </g>
    <g id="xtick_11">
     <g id="line2d_24">
      <g>
       <use xlink:href="#m15e2ff242f" x="325.965625" y="192.418125" style="stroke: #000000; stroke-width: 0.8"/>
      </g>
     </g>
     <g id="text_15">
      <!-- 100 -->
      <g transform="translate(316.421875 207.016562) scale(0.1 -0.1)">
       <use xlink:href="#DejaVuSans-31"/>
       <use xlink:href="#DejaVuSans-30" x="63.623047"/>
       <use xlink:href="#DejaVuSans-30" x="127.246094"/>
      </g>
     </g>
    </g>
   </g>
   <g id="matplotlib.axis_4">
    <g id="ytick_4">
     <g id="line2d_25">
      <g>
       <use xlink:href="#m7b9d61e332" x="46.965625" y="192.418125" style="stroke: #000000; stroke-width: 0.8"/>
      </g>
     </g>
     <g id="text_16">
      <!-- 0 -->
      <g transform="translate(33.603125 196.217344) scale(0.1 -0.1)">
       <use xlink:href="#DejaVuSans-30"/>
      </g>
     </g>
    </g>
    <g id="ytick_5">
     <g id="line2d_26">
      <g>
       <use xlink:href="#m7b9d61e332" x="46.965625" y="161.182999" style="stroke: #000000; stroke-width: 0.8"/>
      </g>
     </g>
     <g id="text_17">
      <!-- 50 -->
      <g transform="translate(27.240625 164.982218) scale(0.1 -0.1)">
       <use xlink:href="#DejaVuSans-35"/>
       <use xlink:href="#DejaVuSans-30" x="63.623047"/>
      </g>
     </g>
    </g>
    <g id="ytick_6">
     <g id="line2d_27">
      <g>
       <use xlink:href="#m7b9d61e332" x="46.965625" y="129.947873" style="stroke: #000000; stroke-width: 0.8"/>
      </g>
     </g>
     <g id="text_18">
      <!-- 100 -->
      <g transform="translate(20.878125 133.747091) scale(0.1 -0.1)">
       <use xlink:href="#DejaVuSans-31"/>
       <use xlink:href="#DejaVuSans-30" x="63.623047"/>
       <use xlink:href="#DejaVuSans-30" x="127.246094"/>
      </g>
     </g>
    </g>
    <g id="text_19">
     <!-- Escape Latency [#steps] -->
     <g transform="translate(14.798438 223.200156) rotate(-90) scale(0.1 -0.1)">
      <defs>
       <path id="DejaVuSans-45" d="M 628 4666 
L 3578 4666 
L 3578 4134 
L 1259 4134 
L 1259 2753 
L 3481 2753 
L 3481 2222 
L 1259 2222 
L 1259 531 
L 3634 531 
L 3634 0 
L 628 0 
L 628 4666 
z
" transform="scale(0.015625)"/>
       <path id="DejaVuSans-73" d="M 2834 3397 
L 2834 2853 
Q 2591 2978 2328 3040 
Q 2066 3103 1784 3103 
Q 1356 3103 1142 2972 
Q 928 2841 928 2578 
Q 928 2378 1081 2264 
Q 1234 2150 1697 2047 
L 1894 2003 
Q 2506 1872 2764 1633 
Q 3022 1394 3022 966 
Q 3022 478 2636 193 
Q 2250 -91 1575 -91 
Q 1294 -91 989 -36 
Q 684 19 347 128 
L 347 722 
Q 666 556 975 473 
Q 1284 391 1588 391 
Q 1994 391 2212 530 
Q 2431 669 2431 922 
Q 2431 1156 2273 1281 
Q 2116 1406 1581 1522 
L 1381 1569 
Q 847 1681 609 1914 
Q 372 2147 372 2553 
Q 372 3047 722 3315 
Q 1072 3584 1716 3584 
Q 2034 3584 2315 3537 
Q 2597 3491 2834 3397 
z
" transform="scale(0.015625)"/>
       <path id="DejaVuSans-70" d="M 1159 525 
L 1159 -1331 
L 581 -1331 
L 581 3500 
L 1159 3500 
L 1159 2969 
Q 1341 3281 1617 3432 
Q 1894 3584 2278 3584 
Q 2916 3584 3314 3078 
Q 3713 2572 3713 1747 
Q 3713 922 3314 415 
Q 2916 -91 2278 -91 
Q 1894 -91 1617 61 
Q 1341 213 1159 525 
z
M 3116 1747 
Q 3116 2381 2855 2742 
Q 2594 3103 2138 3103 
Q 1681 3103 1420 2742 
Q 1159 2381 1159 1747 
Q 1159 1113 1420 752 
Q 1681 391 2138 391 
Q 2594 391 2855 752 
Q 3116 1113 3116 1747 
z
" transform="scale(0.015625)"/>
       <path id="DejaVuSans-74" d="M 1172 4494 
L 1172 3500 
L 2356 3500 
L 2356 3053 
L 1172 3053 
L 1172 1153 
Q 1172 725 1289 603 
Q 1406 481 1766 481 
L 2356 481 
L 2356 0 
L 1766 0 
Q 1100 0 847 248 
Q 594 497 594 1153 
L 594 3053 
L 172 3053 
L 172 3500 
L 594 3500 
L 594 4494 
L 1172 4494 
z
" transform="scale(0.015625)"/>
       <path id="DejaVuSans-79" d="M 2059 -325 
Q 1816 -950 1584 -1140 
Q 1353 -1331 966 -1331 
L 506 -1331 
L 506 -850 
L 844 -850 
Q 1081 -850 1212 -737 
Q 1344 -625 1503 -206 
L 1606 56 
L 191 3500 
L 800 3500 
L 1894 763 
L 2988 3500 
L 3597 3500 
L 2059 -325 
z
" transform="scale(0.015625)"/>
       <path id="DejaVuSans-5b" d="M 550 4863 
L 1875 4863 
L 1875 4416 
L 1125 4416 
L 1125 -397 
L 1875 -397 
L 1875 -844 
L 550 -844 
L 550 4863 
z
" transform="scale(0.015625)"/>
       <path id="DejaVuSans-23" d="M 3272 2816 
L 2363 2816 
L 2100 1772 
L 3016 1772 
L 3272 2816 
z
M 2803 4594 
L 2478 3297 
L 3391 3297 
L 3719 4594 
L 4219 4594 
L 3897 3297 
L 4872 3297 
L 4872 2816 
L 3775 2816 
L 3519 1772 
L 4513 1772 
L 4513 1294 
L 3397 1294 
L 3072 0 
L 2572 0 
L 2894 1294 
L 1978 1294 
L 1656 0 
L 1153 0 
L 1478 1294 
L 494 1294 
L 494 1772 
L 1594 1772 
L 1856 2816 
L 850 2816 
L 850 3297 
L 1978 3297 
L 2297 4594 
L 2803 4594 
z
" transform="scale(0.015625)"/>
       <path id="DejaVuSans-5d" d="M 1947 4863 
L 1947 -844 
L 622 -844 
L 622 -397 
L 1369 -397 
L 1369 4416 
L 622 4416 
L 622 4863 
L 1947 4863 
z
" transform="scale(0.015625)"/>
      </defs>
      <use xlink:href="#DejaVuSans-45"/>
      <use xlink:href="#DejaVuSans-73" x="63.183594"/>
      <use xlink:href="#DejaVuSans-63" x="115.283203"/>
      <use xlink:href="#DejaVuSans-61" x="170.263672"/>
      <use xlink:href="#DejaVuSans-70" x="231.542969"/>
      <use xlink:href="#DejaVuSans-65" x="295.019531"/>
      <use xlink:href="#DejaVuSans-20" x="356.542969"/>
      <use xlink:href="#DejaVuSans-4c" x="388.330078"/>
      <use xlink:href="#DejaVuSans-61" x="444.042969"/>
      <use xlink:href="#DejaVuSans-74" x="505.322266"/>
      <use xlink:href="#DejaVuSans-65" x="544.53125"/>
      <use xlink:href="#DejaVuSans-6e" x="606.054688"/>
      <use xlink:href="#DejaVuSans-63" x="669.433594"/>
      <use xlink:href="#DejaVuSans-79" x="724.414062"/>
      <use xlink:href="#DejaVuSans-20" x="783.59375"/>
      <use xlink:href="#DejaVuSans-5b" x="815.380859"/>
      <use xlink:href="#DejaVuSans-23" x="854.394531"/>
      <use xlink:href="#DejaVuSans-73" x="938.183594"/>
      <use xlink:href="#DejaVuSans-74" x="990.283203"/>
      <use xlink:href="#DejaVuSans-65" x="1029.492188"/>
      <use xlink:href="#DejaVuSans-70" x="1091.015625"/>
      <use xlink:href="#DejaVuSans-73" x="1154.492188"/>
      <use xlink:href="#DejaVuSans-5d" x="1206.591797"/>
     </g>
    </g>
   </g>
   <g id="line2d_28">
    <path d="M 46.965625 135.670148 
L 49.783807 137.481785 
L 52.601989 135.732618 
L 55.42017 139.155988 
L 58.238352 139.368387 
L 61.056534 140.168006 
L 63.874716 142.766769 
L 66.692898 142.516887 
L 69.51108 142.55437 
L 72.329261 147.527002 
L 75.147443 150.51308 
L 77.965625 151.312699 
L 80.783807 149.850895 
L 83.601989 153.111842 
L 86.42017 154.511176 
L 89.238352 152.062342 
L 92.056534 156.49773 
L 94.874716 156.935022 
L 97.692898 158.321861 
L 100.51108 161.095541 
L 103.329261 161.570314 
L 106.147443 166.03069 
L 108.965625 166.480476 
L 111.783807 167.155155 
L 114.601989 167.829834 
L 117.42017 172.35268 
L 120.238352 171.515579 
L 123.056534 171.415626 
L 125.874716 171.515579 
L 128.692898 173.889448 
L 131.51108 174.689067 
L 134.329261 173.40218 
L 137.147443 176.313294 
L 139.965625 179.049491 
L 142.783807 178.237378 
L 145.601989 178.21239 
L 148.42017 178.824598 
L 151.238352 180.548777 
L 154.056534 180.336378 
L 156.874716 181.310914 
L 159.692898 181.648254 
L 162.51108 181.048539 
L 165.329261 181.948111 
L 168.147443 182.697754 
L 170.965625 182.985117 
L 173.783807 182.8102 
L 176.601989 183.622313 
L 179.42017 183.534855 
L 182.238352 184.222028 
L 185.056534 184.072099 
L 187.874716 184.859224 
L 190.692898 183.847206 
L 193.51108 183.609819 
L 196.329261 185.059129 
L 199.147443 184.272004 
L 201.965625 183.647302 
L 204.783807 184.72179 
L 207.601989 184.509391 
L 210.42017 184.059605 
L 213.238352 184.78426 
L 216.056534 183.397421 
L 218.874716 184.909201 
L 221.692898 184.446921 
L 224.51108 183.822218 
L 227.329261 184.047111 
L 230.147443 185.221552 
L 232.965625 185.146588 
L 235.783807 184.896707 
L 238.601989 184.896707 
L 241.42017 184.971671 
L 244.238352 184.396945 
L 247.056534 185.234046 
L 249.874716 184.84673 
L 252.692898 184.509391 
L 255.51108 185.458939 
L 258.329261 185.1216 
L 261.147443 185.333998 
L 263.965625 184.909201 
L 266.783807 184.284498 
L 269.601989 185.458939 
L 272.42017 184.971671 
L 275.238352 185.358986 
L 278.056534 184.921695 
L 280.874716 185.358986 
L 283.692898 185.383975 
L 286.51108 185.271528 
L 289.329261 185.571385 
L 292.147443 185.64635 
L 294.965625 184.734284 
L 297.783807 185.533903 
L 300.601989 185.446445 
L 303.42017 185.70882 
L 306.238352 185.296516 
L 309.056534 185.18407 
L 311.874716 185.1216 
L 314.692898 185.658844 
L 317.51108 185.059129 
L 320.329261 185.421457 
L 323.147443 185.221552 
L 325.965625 185.796278 
" clip-path="url(#pdd21cec0f9)" style="fill: none; stroke: #000080; stroke-width: 1.5; stroke-linecap: square"/>
   </g>
   <g id="line2d_29">
    <path d="M 46.965625 133.308772 
L 49.783807 136.932047 
L 52.601989 135.257844 
L 55.42017 136.419791 
L 58.238352 137.28188 
L 61.056534 141.654798 
L 63.874716 142.204536 
L 66.692898 140.280452 
L 69.51108 141.342447 
L 72.329261 145.353037 
L 75.147443 144.440971 
L 77.965625 149.351133 
L 80.783807 149.276169 
L 83.601989 149.563532 
L 86.42017 150.463104 
L 89.238352 151.425145 
L 92.056534 153.461676 
L 94.874716 155.460724 
L 97.692898 159.071504 
L 100.51108 156.635165 
L 103.329261 163.082095 
L 106.147443 161.195493 
L 108.965625 163.769267 
L 111.783807 165.031166 
L 114.601989 163.756773 
L 117.42017 167.667411 
L 120.238352 168.916816 
L 123.056534 170.403608 
L 125.874716 175.863508 
L 128.692898 172.677525 
L 131.51108 173.027359 
L 134.329261 176.838044 
L 137.147443 175.688591 
L 139.965625 177.012961 
L 142.783807 177.675145 
L 145.601989 177.487735 
L 148.42017 177.68764 
L 151.238352 178.874574 
L 154.056534 178.699658 
L 156.874716 179.274384 
L 159.692898 180.211438 
L 162.51108 180.873622 
L 165.329261 180.598753 
L 168.147443 182.235474 
L 170.965625 180.286402 
L 173.783807 179.961557 
L 176.601989 180.911105 
L 179.42017 180.423837 
L 182.238352 182.322932 
L 185.056534 181.498325 
L 187.874716 183.434903 
L 190.692898 182.835188 
L 193.51108 183.160034 
L 196.329261 183.897183 
L 199.147443 184.65932 
L 201.965625 185.296516 
L 204.783807 184.909201 
L 207.601989 184.996659 
L 210.42017 184.634332 
L 213.238352 184.434427 
L 216.056534 183.409915 
L 218.874716 183.547349 
L 221.692898 184.796754 
L 224.51108 184.571861 
L 227.329261 184.247016 
L 230.147443 184.059605 
L 232.965625 184.809248 
L 235.783807 184.32198 
L 238.601989 183.73476 
L 241.42017 184.646826 
L 244.238352 185.396469 
L 247.056534 184.496897 
L 249.874716 184.521885 
L 252.692898 184.097087 
L 255.51108 184.884213 
L 258.329261 184.809248 
L 261.147443 185.321504 
L 263.965625 185.483927 
L 266.783807 185.046635 
L 269.601989 185.671338 
L 272.42017 185.209058 
L 275.238352 185.159082 
L 278.056534 185.596373 
L 280.874716 184.834236 
L 283.692898 185.071623 
L 286.51108 185.021647 
L 289.329261 184.921695 
L 292.147443 185.571385 
L 294.965625 185.209058 
L 297.783807 184.234522 
L 300.601989 185.421457 
L 303.42017 185.358986 
L 306.238352 185.621362 
L 309.056534 185.696326 
L 311.874716 184.821742 
L 314.692898 185.433951 
L 317.51108 184.571861 
L 320.329261 184.834236 
L 323.147443 185.558891 
L 325.965625 185.358986 
" clip-path="url(#pdd21cec0f9)" style="fill: none; stroke: #0000ff; stroke-width: 1.5; stroke-linecap: square"/>
   </g>
   <g id="line2d_30">
    <path d="M 46.965625 134.208344 
L 49.783807 135.607678 
L 52.601989 135.970005 
L 55.42017 138.231428 
L 58.238352 140.1805 
L 61.056534 140.58031 
L 63.874716 142.02962 
L 66.692898 142.866721 
L 69.51108 144.216078 
L 72.329261 144.19109 
L 75.147443 145.802823 
L 77.965625 145.265579 
L 80.783807 146.727382 
L 83.601989 148.838877 
L 86.42017 152.587092 
L 89.238352 154.935974 
L 92.056534 151.350181 
L 94.874716 151.949896 
L 97.692898 156.060438 
L 100.51108 158.53426 
L 103.329261 160.420862 
L 106.147443 158.671695 
L 108.965625 161.295445 
L 111.783807 162.569838 
L 114.601989 168.816864 
L 117.42017 167.504988 
L 120.238352 170.715959 
L 123.056534 171.902894 
L 125.874716 172.540091 
L 128.692898 173.939424 
L 131.51108 177.68764 
L 134.329261 175.213818 
L 137.147443 178.224884 
L 139.965625 177.68764 
L 142.783807 176.675621 
L 145.601989 179.761652 
L 148.42017 178.524741 
L 151.238352 179.72417 
L 154.056534 178.624693 
L 156.874716 180.586259 
L 159.692898 180.198944 
L 162.51108 181.410867 
L 165.329261 180.89861 
L 168.147443 182.085545 
L 170.965625 183.047587 
L 173.783807 182.485355 
L 176.601989 181.348396 
L 179.42017 183.384927 
L 182.238352 182.897659 
L 185.056534 184.109581 
L 187.874716 183.434903 
L 190.692898 182.772718 
L 193.51108 183.697278 
L 196.329261 183.384927 
L 199.147443 183.234998 
L 201.965625 183.922171 
L 204.783807 183.697278 
L 207.601989 183.422409 
L 210.42017 182.735236 
L 213.238352 182.672766 
L 216.056534 183.8597 
L 218.874716 184.634332 
L 221.692898 183.897183 
L 224.51108 184.034617 
L 227.329261 184.371957 
L 230.147443 183.897183 
L 232.965625 185.234046 
L 235.783807 185.034141 
L 238.601989 183.784736 
L 241.42017 184.109581 
L 244.238352 184.65932 
L 247.056534 184.359462 
L 249.874716 184.959177 
L 252.692898 185.084117 
L 255.51108 185.408963 
L 258.329261 185.221552 
L 261.147443 184.959177 
L 263.965625 184.571861 
L 266.783807 185.109105 
L 269.601989 185.046635 
L 272.42017 184.034617 
L 275.238352 184.859224 
L 278.056534 185.259034 
L 280.874716 185.234046 
L 283.692898 185.396469 
L 286.51108 184.496897 
L 289.329261 185.234046 
L 292.147443 185.171576 
L 294.965625 185.683832 
L 297.783807 185.1216 
L 300.601989 185.396469 
L 303.42017 185.1216 
L 306.238352 185.084117 
L 309.056534 185.284022 
L 311.874716 184.884213 
L 314.692898 184.359462 
L 317.51108 185.24654 
L 320.329261 185.209058 
L 323.147443 184.884213 
L 325.965625 185.234046 
" clip-path="url(#pdd21cec0f9)" style="fill: none; stroke: #0080ff; stroke-width: 1.5; stroke-linecap: square"/>
   </g>
   <g id="line2d_31">
    <path d="M 46.965625 136.182404 
L 49.783807 136.832095 
L 52.601989 138.943589 
L 55.42017 140.955131 
L 58.238352 138.993565 
L 61.056534 142.104584 
L 63.874716 143.378977 
L 66.692898 142.854227 
L 69.51108 146.427525 
L 72.329261 145.752847 
L 75.147443 146.727382 
L 77.965625 149.18871 
L 80.783807 149.313651 
L 83.601989 153.13683 
L 86.42017 154.12386 
L 89.238352 154.248801 
L 92.056534 155.710605 
L 94.874716 155.248325 
L 97.692898 155.923004 
L 100.51108 156.260343 
L 103.329261 157.922052 
L 106.147443 162.0201 
L 108.965625 162.507368 
L 111.783807 164.231547 
L 114.601989 165.493446 
L 117.42017 168.791876 
L 120.238352 169.154203 
L 123.056534 170.453584 
L 125.874716 170.391114 
L 128.692898 171.977858 
L 131.51108 176.275812 
L 134.329261 175.43871 
L 137.147443 174.339234 
L 139.965625 176.213342 
L 142.783807 177.887544 
L 145.601989 178.174907 
L 148.42017 176.900514 
L 151.238352 179.049491 
L 154.056534 180.961081 
L 156.874716 180.323884 
L 159.692898 180.198944 
L 162.51108 180.511295 
L 165.329261 181.873146 
L 168.147443 181.848158 
L 170.965625 182.597801 
L 173.783807 181.310914 
L 176.601989 183.534855 
L 179.42017 182.87267 
L 182.238352 184.109581 
L 185.056534 184.334474 
L 187.874716 183.759748 
L 190.692898 184.371957 
L 193.51108 184.65932 
L 196.329261 184.284498 
L 199.147443 183.072575 
L 201.965625 185.071623 
L 204.783807 184.696802 
L 207.601989 184.671814 
L 210.42017 185.271528 
L 213.238352 184.746778 
L 216.056534 185.383975 
L 218.874716 185.071623 
L 221.692898 184.996659 
L 224.51108 184.634332 
L 227.329261 185.408963 
L 230.147443 184.634332 
L 232.965625 184.621838 
L 235.783807 185.146588 
L 238.601989 185.021647 
L 241.42017 184.821742 
L 244.238352 185.134094 
L 247.056534 185.371481 
L 249.874716 184.65932 
L 252.692898 184.059605 
L 255.51108 184.759272 
L 258.329261 185.596373 
L 261.147443 184.709296 
L 263.965625 185.084117 
L 266.783807 185.059129 
L 269.601989 185.521409 
L 272.42017 185.196564 
L 275.238352 185.18407 
L 278.056534 185.059129 
L 280.874716 185.64635 
L 283.692898 185.521409 
L 286.51108 185.234046 
L 289.329261 185.146588 
L 292.147443 185.1216 
L 294.965625 185.18407 
L 297.783807 185.396469 
L 300.601989 185.371481 
L 303.42017 185.383975 
L 306.238352 184.796754 
L 309.056534 185.171576 
L 311.874716 185.471433 
L 314.692898 184.796754 
L 317.51108 185.046635 
L 320.329261 185.371481 
L 323.147443 184.834236 
L 325.965625 185.758796 
" clip-path="url(#pdd21cec0f9)" style="fill: none; stroke: #16ffe1; stroke-width: 1.5; stroke-linecap: square"/>
   </g>
   <g id="line2d_32">
    <path d="M 46.965625 132.109343 
L 49.783807 135.957511 
L 52.601989 136.857083 
L 55.42017 136.357321 
L 58.238352 138.406345 
L 61.056534 140.217982 
L 63.874716 138.706202 
L 66.692898 141.217506 
L 69.51108 140.267958 
L 72.329261 141.030095 
L 75.147443 141.442399 
L 77.965625 145.315555 
L 80.783807 147.564484 
L 83.601989 147.589472 
L 86.42017 149.763437 
L 89.238352 148.414079 
L 92.056534 150.413127 
L 94.874716 153.461676 
L 97.692898 153.923956 
L 100.51108 157.097444 
L 103.329261 158.746659 
L 106.147443 157.734641 
L 108.965625 161.420386 
L 111.783807 159.683713 
L 114.601989 163.356964 
L 117.42017 165.668363 
L 120.238352 164.743803 
L 123.056534 169.26665 
L 125.874716 168.492018 
L 128.692898 169.653965 
L 131.51108 169.828882 
L 134.329261 171.690495 
L 137.147443 173.114817 
L 139.965625 173.214769 
L 142.783807 175.963461 
L 145.601989 176.488211 
L 148.42017 174.464175 
L 151.238352 174.72655 
L 154.056534 176.42574 
L 156.874716 176.463223 
L 159.692898 176.550681 
L 162.51108 177.737616 
L 165.329261 177.825074 
L 168.147443 178.287354 
L 170.965625 178.574717 
L 173.783807 179.449301 
L 176.601989 181.098515 
L 179.42017 180.723694 
L 182.238352 180.561271 
L 185.056534 181.073527 
L 187.874716 180.586259 
L 190.692898 182.22298 
L 193.51108 180.998563 
L 196.329261 182.660272 
L 199.147443 181.061033 
L 201.965625 181.648254 
L 204.783807 182.597801 
L 207.601989 182.547825 
L 210.42017 183.085069 
L 213.238352 184.022123 
L 216.056534 183.359938 
L 218.874716 184.184546 
L 221.692898 183.547349 
L 224.51108 183.697278 
L 227.329261 185.084117 
L 230.147443 184.534379 
L 232.965625 183.534855 
L 235.783807 183.984641 
L 238.601989 184.634332 
L 241.42017 185.408963 
L 244.238352 185.084117 
L 247.056534 184.309486 
L 249.874716 184.32198 
L 252.692898 185.30901 
L 255.51108 184.584355 
L 258.329261 185.034141 
L 261.147443 184.396945 
L 263.965625 184.421933 
L 266.783807 184.796754 
L 269.601989 184.984165 
L 272.42017 185.346492 
L 275.238352 185.333998 
L 278.056534 184.859224 
L 280.874716 185.146588 
L 283.692898 184.696802 
L 286.51108 184.934189 
L 289.329261 184.596849 
L 292.147443 185.396469 
L 294.965625 185.134094 
L 297.783807 185.30901 
L 300.601989 184.934189 
L 303.42017 184.984165 
L 306.238352 184.984165 
L 309.056534 185.159082 
L 311.874716 184.909201 
L 314.692898 184.984165 
L 317.51108 185.483927 
L 320.329261 184.621838 
L 323.147443 184.496897 
L 325.965625 184.78426 
" clip-path="url(#pdd21cec0f9)" style="fill: none; stroke: #7dff7a; stroke-width: 1.5; stroke-linecap: square"/>
   </g>
   <g id="line2d_33">
    <path d="M 46.965625 134.78307 
L 49.783807 134.333284 
L 52.601989 135.795088 
L 55.42017 137.319363 
L 58.238352 139.805679 
L 61.056534 138.581262 
L 63.874716 140.555322 
L 66.692898 140.70525 
L 69.51108 143.741304 
L 72.329261 147.364579 
L 75.147443 144.803299 
L 77.965625 147.314603 
L 80.783807 146.127668 
L 83.601989 151.150276 
L 86.42017 152.012366 
L 89.238352 150.11327 
L 92.056534 153.848991 
L 94.874716 155.860533 
L 97.692898 159.958582 
L 100.51108 160.57079 
L 103.329261 164.069125 
L 106.147443 166.330548 
L 108.965625 169.029263 
L 111.783807 166.592923 
L 114.601989 169.416578 
L 117.42017 167.092685 
L 120.238352 172.152775 
L 123.056534 171.965364 
L 125.874716 172.802466 
L 128.692898 174.064365 
L 131.51108 176.36327 
L 134.329261 172.952394 
L 137.147443 177.700134 
L 139.965625 178.899562 
L 142.783807 180.18645 
L 145.601989 179.111961 
L 148.42017 179.124455 
L 151.238352 180.211438 
L 154.056534 180.473813 
L 156.874716 181.785688 
L 159.692898 180.611247 
L 162.51108 183.14754 
L 165.329261 183.172528 
L 168.147443 181.473337 
L 170.965625 182.260462 
L 173.783807 182.785212 
L 176.601989 182.335426 
L 179.42017 182.860176 
L 182.238352 182.960129 
L 185.056534 183.73476 
L 187.874716 183.297468 
L 190.692898 183.172528 
L 193.51108 182.935141 
L 196.329261 183.484879 
L 199.147443 182.060557 
L 201.965625 183.497373 
L 204.783807 183.834712 
L 207.601989 184.809248 
L 210.42017 184.78426 
L 213.238352 184.13457 
L 216.056534 184.471909 
L 218.874716 184.734284 
L 221.692898 184.459415 
L 224.51108 184.65932 
L 227.329261 184.909201 
L 230.147443 183.822218 
L 232.965625 184.484403 
L 235.783807 183.79723 
L 238.601989 183.135046 
L 241.42017 184.396945 
L 244.238352 184.097087 
L 247.056534 184.596849 
L 249.874716 184.771766 
L 252.692898 184.78426 
L 255.51108 184.421933 
L 258.329261 184.059605 
L 261.147443 184.109581 
L 263.965625 184.384451 
L 266.783807 184.984165 
L 269.601989 184.546873 
L 272.42017 184.072099 
L 275.238352 185.271528 
L 278.056534 185.259034 
L 280.874716 185.171576 
L 283.692898 184.896707 
L 286.51108 184.946683 
L 289.329261 184.609343 
L 292.147443 184.946683 
L 294.965625 185.746302 
L 297.783807 185.908725 
L 300.601989 184.047111 
L 303.42017 185.271528 
L 306.238352 184.371957 
L 309.056534 184.946683 
L 311.874716 184.771766 
L 314.692898 184.909201 
L 317.51108 185.284022 
L 320.329261 184.571861 
L 323.147443 185.533903 
L 325.965625 185.371481 
" clip-path="url(#pdd21cec0f9)" style="fill: none; stroke: #e4ff13; stroke-width: 1.5; stroke-linecap: square"/>
   </g>
   <g id="line2d_34">
    <path d="M 46.965625 136.582214 
L 49.783807 136.507249 
L 52.601989 136.269862 
L 55.42017 137.431809 
L 58.238352 141.067578 
L 61.056534 140.392899 
L 63.874716 143.528906 
L 66.692898 143.416459 
L 69.51108 147.976788 
L 72.329261 145.615412 
L 75.147443 147.989282 
L 77.965625 150.812937 
L 80.783807 151.350181 
L 83.601989 155.485712 
L 86.42017 152.724527 
L 89.238352 153.886473 
L 92.056534 155.860533 
L 94.874716 156.860057 
L 97.692898 157.572218 
L 100.51108 157.709653 
L 103.329261 159.908606 
L 106.147443 164.206559 
L 108.965625 164.731309 
L 111.783807 166.093161 
L 114.601989 164.131595 
L 117.42017 167.330072 
L 120.238352 167.742375 
L 123.056534 168.429548 
L 125.874716 172.377668 
L 128.692898 173.239758 
L 131.51108 172.140281 
L 134.329261 172.390162 
L 137.147443 173.777002 
L 139.965625 177.512723 
L 142.783807 176.725598 
L 145.601989 175.77605 
L 148.42017 176.488211 
L 151.238352 176.937996 
L 154.056534 178.874574 
L 156.874716 177.762604 
L 159.692898 180.761176 
L 162.51108 178.73714 
L 165.329261 181.385878 
L 168.147443 181.086021 
L 170.965625 180.536283 
L 173.783807 182.28545 
L 176.601989 182.560319 
L 179.42017 183.934665 
L 182.238352 183.072575 
L 185.056534 183.234998 
L 187.874716 182.985117 
L 190.692898 182.735236 
L 193.51108 183.160034 
L 196.329261 184.909201 
L 199.147443 184.584355 
L 201.965625 183.472385 
L 204.783807 184.384451 
L 207.601989 184.78426 
L 210.42017 184.884213 
L 213.238352 184.65932 
L 216.056534 183.8597 
L 218.874716 184.359462 
L 221.692898 184.059605 
L 224.51108 184.859224 
L 227.329261 184.147064 
L 230.147443 185.471433 
L 232.965625 184.571861 
L 235.783807 185.1216 
L 238.601989 185.18407 
L 241.42017 184.734284 
L 244.238352 185.18407 
L 247.056534 185.034141 
L 249.874716 184.809248 
L 252.692898 184.884213 
L 255.51108 183.972147 
L 258.329261 185.209058 
L 261.147443 184.446921 
L 263.965625 184.809248 
L 266.783807 185.009153 
L 269.601989 184.909201 
L 272.42017 184.771766 
L 275.238352 185.271528 
L 278.056534 185.546397 
L 280.874716 185.371481 
L 283.692898 185.433951 
L 286.51108 185.209058 
L 289.329261 184.896707 
L 292.147443 185.321504 
L 294.965625 185.721314 
L 297.783807 185.471433 
L 300.601989 184.871719 
L 303.42017 185.471433 
L 306.238352 184.996659 
L 309.056534 185.471433 
L 311.874716 185.333998 
L 314.692898 184.78426 
L 317.51108 184.746778 
L 320.329261 185.321504 
L 323.147443 185.371481 
L 325.965625 184.509391 
" clip-path="url(#pdd21cec0f9)" style="fill: none; stroke: #ff9400; stroke-width: 1.5; stroke-linecap: square"/>
   </g>
   <g id="line2d_35">
    <path d="M 46.965625 133.73357 
L 49.783807 134.833046 
L 52.601989 136.194898 
L 55.42017 134.808058 
L 58.238352 136.832095 
L 61.056534 136.607202 
L 63.874716 137.431809 
L 66.692898 142.167054 
L 69.51108 143.279025 
L 72.329261 141.842209 
L 75.147443 145.315555 
L 77.965625 143.266531 
L 80.783807 149.488568 
L 83.601989 147.964293 
L 86.42017 147.02724 
L 89.238352 150.650514 
L 92.056534 155.173361 
L 94.874716 155.960486 
L 97.692898 155.373265 
L 100.51108 156.910034 
L 103.329261 157.48476 
L 106.147443 161.295445 
L 108.965625 162.220005 
L 111.783807 161.795207 
L 114.601989 165.231071 
L 117.42017 166.930262 
L 120.238352 169.029263 
L 123.056534 170.291162 
L 125.874716 170.953346 
L 128.692898 172.540091 
L 131.51108 172.29021 
L 134.329261 171.940376 
L 137.147443 174.026883 
L 139.965625 174.501657 
L 142.783807 174.001895 
L 145.601989 177.187877 
L 148.42017 177.300324 
L 151.238352 177.475241 
L 154.056534 176.23833 
L 156.874716 179.711676 
L 159.692898 179.72417 
L 162.51108 178.724646 
L 165.329261 182.060557 
L 168.147443 180.31139 
L 170.965625 181.348396 
L 173.783807 181.210962 
L 176.601989 181.535807 
L 179.42017 182.735236 
L 182.238352 182.960129 
L 185.056534 183.33495 
L 187.874716 182.260462 
L 190.692898 182.060557 
L 193.51108 183.010105 
L 196.329261 184.309486 
L 199.147443 184.434427 
L 201.965625 184.484403 
L 204.783807 184.122075 
L 207.601989 183.185022 
L 210.42017 184.78426 
L 213.238352 184.959177 
L 216.056534 184.646826 
L 218.874716 185.071623 
L 221.692898 185.071623 
L 224.51108 184.859224 
L 227.329261 184.946683 
L 230.147443 184.971671 
L 232.965625 184.771766 
L 235.783807 185.496421 
L 238.601989 185.346492 
L 241.42017 184.434427 
L 244.238352 183.984641 
L 247.056534 184.296992 
L 249.874716 185.021647 
L 252.692898 185.259034 
L 255.51108 185.483927 
L 258.329261 185.446445 
L 261.147443 185.271528 
L 263.965625 184.796754 
L 266.783807 185.558891 
L 269.601989 185.259034 
L 272.42017 184.609343 
L 275.238352 184.771766 
L 278.056534 185.24654 
L 280.874716 184.946683 
L 283.692898 185.683832 
L 286.51108 184.946683 
L 289.329261 184.709296 
L 292.147443 185.783784 
L 294.965625 185.808772 
L 297.783807 185.046635 
L 300.601989 185.421457 
L 303.42017 185.371481 
L 306.238352 185.64635 
L 309.056534 185.521409 
L 311.874716 185.571385 
L 314.692898 184.509391 
L 317.51108 184.509391 
L 320.329261 185.30901 
L 323.147443 185.284022 
L 325.965625 185.396469 
" clip-path="url(#pdd21cec0f9)" style="fill: none; stroke: #ff1e00; stroke-width: 1.5; stroke-linecap: square"/>
   </g>
   <g id="line2d_36">
    <path d="M 46.965625 136.057463 
L 49.783807 133.633618 
L 52.601989 140.080548 
L 55.42017 134.957987 
L 58.238352 140.030571 
L 61.056534 140.093042 
L 63.874716 137.519267 
L 66.692898 140.292947 
L 69.51108 143.791281 
L 72.329261 143.766293 
L 75.147443 144.291043 
L 77.965625 146.527478 
L 80.783807 145.790329 
L 83.601989 147.114698 
L 86.42017 146.889805 
L 89.238352 150.887901 
L 92.056534 152.687045 
L 94.874716 153.049372 
L 97.692898 156.660153 
L 100.51108 154.673599 
L 103.329261 157.772123 
L 106.147443 157.647183 
L 108.965625 158.99654 
L 111.783807 162.070076 
L 114.601989 161.532832 
L 117.42017 164.269029 
L 120.238352 165.993208 
L 123.056534 166.155631 
L 125.874716 168.554489 
L 128.692898 167.167649 
L 131.51108 171.040805 
L 134.329261 171.503085 
L 137.147443 172.989877 
L 139.965625 175.43871 
L 142.783807 172.302704 
L 145.601989 176.138377 
L 148.42017 177.150395 
L 151.238352 177.500229 
L 154.056534 177.300324 
L 156.874716 178.137425 
L 159.692898 178.21239 
L 162.51108 179.961557 
L 165.329261 180.511295 
L 168.147443 180.811152 
L 170.965625 178.79961 
L 173.783807 181.135997 
L 176.601989 182.310438 
L 179.42017 180.686212 
L 182.238352 182.960129 
L 185.056534 181.510819 
L 187.874716 183.172528 
L 190.692898 181.923123 
L 193.51108 183.722266 
L 196.329261 182.910153 
L 199.147443 183.397421 
L 201.965625 183.33495 
L 204.783807 184.209534 
L 207.601989 184.122075 
L 210.42017 184.471909 
L 213.238352 184.296992 
L 216.056534 183.659796 
L 218.874716 184.834236 
L 221.692898 184.222028 
L 224.51108 184.396945 
L 227.329261 184.534379 
L 230.147443 183.847206 
L 232.965625 184.65932 
L 235.783807 185.159082 
L 238.601989 185.071623 
L 241.42017 185.608868 
L 244.238352 185.021647 
L 247.056534 185.009153 
L 249.874716 185.071623 
L 252.692898 184.534379 
L 255.51108 184.934189 
L 258.329261 185.796278 
L 261.147443 185.259034 
L 263.965625 185.546397 
L 266.783807 184.909201 
L 269.601989 185.1216 
L 272.42017 185.671338 
L 275.238352 184.921695 
L 278.056534 185.408963 
L 280.874716 185.70882 
L 283.692898 185.009153 
L 286.51108 185.658844 
L 289.329261 185.446445 
L 292.147443 185.446445 
L 294.965625 184.434427 
L 297.783807 185.508915 
L 300.601989 185.446445 
L 303.42017 185.24654 
L 306.238352 185.084117 
L 309.056534 185.746302 
L 311.874716 185.396469 
L 314.692898 184.546873 
L 317.51108 185.333998 
L 320.329261 185.696326 
L 323.147443 185.933713 
L 325.965625 185.383975 
" clip-path="url(#pdd21cec0f9)" style="fill: none; stroke: #800000; stroke-width: 1.5; stroke-linecap: square"/>
   </g>
   <g id="line2d_37">
    <path d="M 46.965625 186.1711 
L 325.965625 186.1711 
" clip-path="url(#pdd21cec0f9)" style="fill: none; stroke-dasharray: 5.55,2.4; stroke-dashoffset: 0; stroke: #808080; stroke-width: 1.5"/>
   </g>
   <g id="patch_6">
    <path d="M 46.965625 192.418125 
L 46.965625 129.418125 
" style="fill: none; stroke: #000000; stroke-width: 0.8; stroke-linejoin: miter; stroke-linecap: square"/>
   </g>
   <g id="patch_7">
    <path d="M 46.965625 192.418125 
L 325.965625 192.418125 
" style="fill: none; stroke: #000000; stroke-width: 0.8; stroke-linejoin: miter; stroke-linecap: square"/>
   </g>
   <g id="text_20">
    <!-- Open Field -->
    <g transform="translate(154.681563 123.418125) scale(0.12 -0.12)">
     <defs>
      <path id="DejaVuSans-4f" d="M 2522 4238 
Q 1834 4238 1429 3725 
Q 1025 3213 1025 2328 
Q 1025 1447 1429 934 
Q 1834 422 2522 422 
Q 3209 422 3611 934 
Q 4013 1447 4013 2328 
Q 4013 3213 3611 3725 
Q 3209 4238 2522 4238 
z
M 2522 4750 
Q 3503 4750 4090 4092 
Q 4678 3434 4678 2328 
Q 4678 1225 4090 567 
Q 3503 -91 2522 -91 
Q 1538 -91 948 565 
Q 359 1222 359 2328 
Q 359 3434 948 4092 
Q 1538 4750 2522 4750 
z
" transform="scale(0.015625)"/>
      <path id="DejaVuSans-46" d="M 628 4666 
L 3309 4666 
L 3309 4134 
L 1259 4134 
L 1259 2759 
L 3109 2759 
L 3109 2228 
L 1259 2228 
L 1259 0 
L 628 0 
L 628 4666 
z
" transform="scale(0.015625)"/>
      <path id="DejaVuSans-6c" d="M 603 4863 
L 1178 4863 
L 1178 0 
L 603 0 
L 603 4863 
z
" transform="scale(0.015625)"/>
      <path id="DejaVuSans-64" d="M 2906 2969 
L 2906 4863 
L 3481 4863 
L 3481 0 
L 2906 0 
L 2906 525 
Q 2725 213 2448 61 
Q 2172 -91 1784 -91 
Q 1150 -91 751 415 
Q 353 922 353 1747 
Q 353 2572 751 3078 
Q 1150 3584 1784 3584 
Q 2172 3584 2448 3432 
Q 2725 3281 2906 2969 
z
M 947 1747 
Q 947 1113 1208 752 
Q 1469 391 1925 391 
Q 2381 391 2643 752 
Q 2906 1113 2906 1747 
Q 2906 2381 2643 2742 
Q 2381 3103 1925 3103 
Q 1469 3103 1208 2742 
Q 947 2381 947 1747 
z
" transform="scale(0.015625)"/>
     </defs>
     <use xlink:href="#DejaVuSans-4f"/>
     <use xlink:href="#DejaVuSans-70" x="78.710938"/>
     <use xlink:href="#DejaVuSans-65" x="142.1875"/>
     <use xlink:href="#DejaVuSans-6e" x="203.710938"/>
     <use xlink:href="#DejaVuSans-20" x="267.089844"/>
     <use xlink:href="#DejaVuSans-46" x="298.876953"/>
     <use xlink:href="#DejaVuSans-69" x="349.146484"/>
     <use xlink:href="#DejaVuSans-65" x="376.929688"/>
     <use xlink:href="#DejaVuSans-6c" x="438.453125"/>
     <use xlink:href="#DejaVuSans-64" x="466.236328"/>
    </g>
   </g>
  </g>
  <g id="axes_3">
   <g id="patch_8">
    <path d="M 46.965625 299.518125 
L 325.965625 299.518125 
L 325.965625 236.518125 
L 46.965625 236.518125 
z
" style="fill: #ffffff"/>
   </g>
   <g id="matplotlib.axis_5">
    <g id="xtick_12">
     <g id="line2d_38">
      <g>
       <use xlink:href="#m15e2ff242f" x="46.965625" y="299.518125" style="stroke: #000000; stroke-width: 0.8"/>
      </g>
     </g>
     <g id="text_21">
      <!-- 1 -->
      <g transform="translate(43.784375 314.116562) scale(0.1 -0.1)">
       <use xlink:href="#DejaVuSans-31"/>
      </g>
     </g>
    </g>
    <g id="xtick_13">
     <g id="line2d_39">
      <g>
       <use xlink:href="#m15e2ff242f" x="100.51108" y="299.518125" style="stroke: #000000; stroke-width: 0.8"/>
      </g>
     </g>
     <g id="text_22">
      <!-- 20 -->
      <g transform="translate(94.14858 314.116562) scale(0.1 -0.1)">
       <use xlink:href="#DejaVuSans-32"/>
       <use xlink:href="#DejaVuSans-30" x="63.623047"/>
      </g>
     </g>
    </g>
    <g id="xtick_14">
     <g id="line2d_40">
      <g>
       <use xlink:href="#m15e2ff242f" x="156.874716" y="299.518125" style="stroke: #000000; stroke-width: 0.8"/>
      </g>
     </g>
     <g id="text_23">
      <!-- 40 -->
      <g transform="translate(150.512216 314.116562) scale(0.1 -0.1)">
       <use xlink:href="#DejaVuSans-34"/>
       <use xlink:href="#DejaVuSans-30" x="63.623047"/>
      </g>
     </g>
    </g>
    <g id="xtick_15">
     <g id="line2d_41">
      <g>
       <use xlink:href="#m15e2ff242f" x="213.238352" y="299.518125" style="stroke: #000000; stroke-width: 0.8"/>
      </g>
     </g>
     <g id="text_24">
      <!-- 60 -->
      <g transform="translate(206.875852 314.116562) scale(0.1 -0.1)">
       <use xlink:href="#DejaVuSans-36"/>
       <use xlink:href="#DejaVuSans-30" x="63.623047"/>
      </g>
     </g>
    </g>
    <g id="xtick_16">
     <g id="line2d_42">
      <g>
       <use xlink:href="#m15e2ff242f" x="269.601989" y="299.518125" style="stroke: #000000; stroke-width: 0.8"/>
      </g>
     </g>
     <g id="text_25">
      <!-- 80 -->
      <g transform="translate(263.239489 314.116562) scale(0.1 -0.1)">
       <use xlink:href="#DejaVuSans-38"/>
       <use xlink:href="#DejaVuSans-30" x="63.623047"/>
      </g>
     </g>
    </g>
    <g id="xtick_17">
     <g id="line2d_43">
      <g>
       <use xlink:href="#m15e2ff242f" x="325.965625" y="299.518125" style="stroke: #000000; stroke-width: 0.8"/>
      </g>
     </g>
     <g id="text_26">
      <!-- 100 -->
      <g transform="translate(316.421875 314.116562) scale(0.1 -0.1)">
       <use xlink:href="#DejaVuSans-31"/>
       <use xlink:href="#DejaVuSans-30" x="63.623047"/>
       <use xlink:href="#DejaVuSans-30" x="127.246094"/>
      </g>
     </g>
    </g>
    <g id="text_27">
     <!-- Trial -->
     <g transform="translate(176.251563 327.794687) scale(0.1 -0.1)">
      <use xlink:href="#DejaVuSans-54"/>
      <use xlink:href="#DejaVuSans-72" x="46.333984"/>
      <use xlink:href="#DejaVuSans-69" x="87.447266"/>
      <use xlink:href="#DejaVuSans-61" x="115.230469"/>
      <use xlink:href="#DejaVuSans-6c" x="176.509766"/>
     </g>
    </g>
   </g>
   <g id="matplotlib.axis_6">
    <g id="ytick_7">
     <g id="line2d_44">
      <g>
       <use xlink:href="#m7b9d61e332" x="46.965625" y="299.518125" style="stroke: #000000; stroke-width: 0.8"/>
      </g>
     </g>
     <g id="text_28">
      <!-- 0 -->
      <g transform="translate(33.603125 303.317344) scale(0.1 -0.1)">
       <use xlink:href="#DejaVuSans-30"/>
      </g>
     </g>
    </g>
    <g id="ytick_8">
     <g id="line2d_45">
      <g>
       <use xlink:href="#m7b9d61e332" x="46.965625" y="278.390373" style="stroke: #000000; stroke-width: 0.8"/>
      </g>
     </g>
     <g id="text_29">
      <!-- 100 -->
      <g transform="translate(20.878125 282.189591) scale(0.1 -0.1)">
       <use xlink:href="#DejaVuSans-31"/>
       <use xlink:href="#DejaVuSans-30" x="63.623047"/>
       <use xlink:href="#DejaVuSans-30" x="127.246094"/>
      </g>
     </g>
    </g>
    <g id="ytick_9">
     <g id="line2d_46">
      <g>
       <use xlink:href="#m7b9d61e332" x="46.965625" y="257.26262" style="stroke: #000000; stroke-width: 0.8"/>
      </g>
     </g>
     <g id="text_30">
      <!-- 200 -->
      <g transform="translate(20.878125 261.061839) scale(0.1 -0.1)">
       <use xlink:href="#DejaVuSans-32"/>
       <use xlink:href="#DejaVuSans-30" x="63.623047"/>
       <use xlink:href="#DejaVuSans-30" x="127.246094"/>
      </g>
     </g>
    </g>
   </g>
   <g id="line2d_47">
    <path d="M 46.965625 240.677334 
L 49.783807 241.471738 
L 52.601989 241.112566 
L 55.42017 242.384457 
L 58.238352 240.356193 
L 61.056534 240.964672 
L 63.874716 244.742314 
L 66.692898 242.895748 
L 69.51108 244.602871 
L 72.329261 243.554934 
L 75.147443 246.504368 
L 77.965625 246.677616 
L 80.783807 248.093175 
L 83.601989 248.460798 
L 86.42017 250.049605 
L 89.238352 247.552305 
L 92.056534 251.275015 
L 94.874716 253.375114 
L 97.692898 253.569489 
L 100.51108 258.585217 
L 103.329261 256.856967 
L 106.147443 258.965517 
L 108.965625 262.236093 
L 111.783807 264.285485 
L 114.601989 264.999603 
L 117.42017 269.935046 
L 120.238352 268.485682 
L 123.056534 269.127966 
L 125.874716 271.418214 
L 128.692898 272.774616 
L 131.51108 273.345065 
L 134.329261 276.788889 
L 137.147443 276.252244 
L 139.965625 278.02275 
L 142.783807 277.980494 
L 145.601989 279.311543 
L 148.42017 279.869315 
L 151.238352 282.649727 
L 154.056534 283.959648 
L 156.874716 285.185058 
L 159.692898 285.78086 
L 162.51108 289.017632 
L 165.329261 288.442957 
L 168.147443 287.952793 
L 170.965625 289.169752 
L 173.783807 289.926125 
L 176.601989 289.681043 
L 179.42017 290.285297 
L 182.238352 290.103598 
L 185.056534 291.041671 
L 187.874716 290.961385 
L 190.692898 291.138858 
L 193.51108 293.391077 
L 196.329261 291.65015 
L 199.147443 292.098058 
L 201.965625 292.093833 
L 204.783807 292.4192 
L 207.601989 292.786823 
L 210.42017 292.879785 
L 213.238352 292.845981 
L 216.056534 292.917815 
L 218.874716 293.648835 
L 221.692898 292.753019 
L 224.51108 293.133318 
L 227.329261 293.260085 
L 230.147443 292.807951 
L 232.965625 293.543197 
L 235.783807 294.008007 
L 238.601989 293.293889 
L 241.42017 293.49249 
L 244.238352 293.927722 
L 247.056534 293.779827 
L 249.874716 294.075616 
L 252.692898 293.399528 
L 255.51108 294.333375 
L 258.329261 293.429107 
L 261.147443 293.944624 
L 263.965625 294.189706 
L 266.783807 294.510848 
L 269.601989 294.054488 
L 272.42017 294.595359 
L 275.238352 294.100969 
L 278.056534 294.181255 
L 280.874716 294.60381 
L 283.692898 294.092518 
L 286.51108 294.084067 
L 289.329261 294.726351 
L 292.147443 294.595359 
L 294.965625 294.07139 
L 297.783807 294.751704 
L 300.601989 294.092518 
L 303.42017 294.688321 
L 306.238352 294.675644 
L 309.056534 294.722125 
L 311.874716 294.722125 
L 314.692898 294.785508 
L 317.51108 294.739027 
L 320.329261 294.734802 
L 323.147443 294.675644 
L 325.965625 294.658742 
" clip-path="url(#p7a1b65cfa0)" style="fill: none; stroke: #000080; stroke-width: 1.5; stroke-linecap: square"/>
   </g>
   <g id="line2d_48">
    <path d="M 46.965625 239.384316 
L 49.783807 240.863259 
L 52.601989 241.006927 
L 55.42017 240.482959 
L 58.238352 241.1844 
L 61.056534 242.680245 
L 63.874716 239.333609 
L 66.692898 244.362014 
L 69.51108 245.490236 
L 72.329261 244.611322 
L 75.147443 244.433849 
L 77.965625 248.194589 
L 80.783807 247.767808 
L 83.601989 249.170691 
L 86.42017 249.631276 
L 89.238352 249.305908 
L 92.056534 254.072329 
L 94.874716 255.386476 
L 97.692898 255.513242 
L 100.51108 256.506247 
L 103.329261 254.997725 
L 106.147443 260.976879 
L 108.965625 261.02336 
L 111.783807 260.959977 
L 114.601989 263.144586 
L 117.42017 263.67278 
L 120.238352 265.193978 
L 123.056534 265.143272 
L 125.874716 266.77856 
L 128.692898 268.139187 
L 131.51108 273.860582 
L 134.329261 271.637943 
L 137.147443 274.84091 
L 139.965625 274.452159 
L 142.783807 275.68602 
L 145.601989 279.358024 
L 148.42017 279.214355 
L 151.238352 280.025661 
L 154.056534 282.844103 
L 156.874716 284.673766 
L 159.692898 284.05261 
L 162.51108 284.931525 
L 165.329261 287.606298 
L 168.147443 288.565498 
L 170.965625 287.441502 
L 173.783807 287.259803 
L 176.601989 286.972466 
L 179.42017 290.357132 
L 182.238352 289.799359 
L 185.056534 289.833163 
L 187.874716 290.809265 
L 190.692898 290.259944 
L 193.51108 292.182569 
L 196.329261 291.920585 
L 199.147443 291.113505 
L 201.965625 292.178344 
L 204.783807 291.578316 
L 207.601989 293.133318 
L 210.42017 292.4192 
L 213.238352 293.7587 
L 216.056534 293.855887 
L 218.874716 293.031905 
L 221.692898 293.944624 
L 224.51108 294.092518 
L 227.329261 294.050263 
L 230.147443 294.037586 
L 232.965625 294.016458 
L 235.783807 294.392532 
L 238.601989 294.096744 
L 241.42017 294.092518 
L 244.238352 294.096744 
L 247.056534 294.117871 
L 249.874716 294.050263 
L 252.692898 294.455916 
L 255.51108 294.743253 
L 258.329261 294.654516 
L 261.147443 294.570005 
L 263.965625 294.662967 
L 266.783807 294.544652 
L 269.601989 294.624938 
L 272.42017 294.667193 
L 275.238352 294.658742 
L 278.056534 294.713674 
L 280.874716 294.620712 
L 283.692898 294.654516 
L 286.51108 294.675644 
L 289.329261 294.844666 
L 292.147443 294.751704 
L 294.965625 294.751704 
L 297.783807 294.646065 
L 300.601989 294.633389 
L 303.42017 294.789734 
L 306.238352 294.684095 
L 309.056534 294.671419 
L 311.874716 294.722125 
L 314.692898 294.743253 
L 317.51108 294.734802 
L 320.329261 294.764381 
L 323.147443 294.777057 
L 325.965625 294.650291 
" clip-path="url(#p7a1b65cfa0)" style="fill: none; stroke: #0000ff; stroke-width: 1.5; stroke-linecap: square"/>
   </g>
   <g id="line2d_49">
    <path d="M 46.965625 240.774522 
L 49.783807 239.95054 
L 52.601989 240.051953 
L 55.42017 239.337835 
L 58.238352 242.629539 
L 61.056534 243.212665 
L 63.874716 242.659118 
L 66.692898 242.06754 
L 69.51108 243.52113 
L 72.329261 244.13806 
L 75.147443 246.250835 
L 77.965625 247.353704 
L 80.783807 247.264968 
L 83.601989 247.079043 
L 86.42017 249.796072 
L 89.238352 250.687663 
L 92.056534 248.20304 
L 94.874716 251.427135 
L 97.692898 257.533055 
L 100.51108 256.730201 
L 103.329261 260.512068 
L 106.147443 259.235952 
L 108.965625 262.785415 
L 111.783807 265.481316 
L 114.601989 264.192523 
L 117.42017 267.767339 
L 120.238352 268.287081 
L 123.056534 274.063409 
L 125.874716 275.542351 
L 128.692898 276.615641 
L 131.51108 274.557798 
L 134.329261 275.162052 
L 137.147443 276.886077 
L 139.965625 279.649587 
L 142.783807 281.635595 
L 145.601989 279.924247 
L 148.42017 280.798936 
L 151.238352 282.97932 
L 154.056534 282.510284 
L 156.874716 284.893495 
L 159.692898 286.304829 
L 162.51108 287.145713 
L 165.329261 284.749826 
L 168.147443 287.458404 
L 170.965625 287.111909 
L 173.783807 286.478076 
L 176.601989 289.15285 
L 179.42017 290.217688 
L 182.238352 289.419059 
L 185.056534 290.509251 
L 187.874716 288.84861 
L 190.692898 290.914904 
L 193.51108 291.544511 
L 196.329261 291.375489 
L 199.147443 292.651605 
L 201.965625 291.561413 
L 204.783807 292.258629 
L 207.601989 292.550192 
L 210.42017 292.689635 
L 213.238352 293.222055 
L 216.056534 293.365723 
L 218.874716 292.757244 
L 221.692898 293.636159 
L 224.51108 294.130548 
L 227.329261 293.45446 
L 230.147443 293.800955 
L 232.965625 294.253089 
L 235.783807 293.822083 
L 238.601989 293.41643 
L 241.42017 294.341826 
L 244.238352 293.729121 
L 247.056534 294.117871 
L 249.874716 293.665738 
L 252.692898 294.26154 
L 255.51108 294.324923 
L 258.329261 294.629163 
L 261.147443 294.536201 
L 263.965625 294.675644 
L 266.783807 294.629163 
L 269.601989 294.574231 
L 272.42017 294.700997 
L 275.238352 294.60381 
L 278.056534 294.692546 
L 280.874716 294.79396 
L 283.692898 294.734802 
L 286.51108 294.608035 
L 289.329261 294.629163 
L 292.147443 294.739027 
L 294.965625 294.650291 
L 297.783807 294.64184 
L 300.601989 294.781283 
L 303.42017 294.650291 
L 306.238352 294.671419 
L 309.056534 294.650291 
L 311.874716 294.696772 
L 314.692898 294.713674 
L 317.51108 294.730576 
L 320.329261 294.75593 
L 323.147443 294.760155 
L 325.965625 294.777057 
" clip-path="url(#p7a1b65cfa0)" style="fill: none; stroke: #0080ff; stroke-width: 1.5; stroke-linecap: square"/>
   </g>
   <g id="line2d_50">
    <path d="M 46.965625 241.116792 
L 49.783807 239.735037 
L 52.601989 240.64353 
L 55.42017 240.651981 
L 58.238352 241.83091 
L 61.056534 241.011153 
L 63.874716 242.312622 
L 66.692898 242.680245 
L 69.51108 241.60273 
L 72.329261 244.171865 
L 75.147443 245.32544 
L 77.965625 246.24661 
L 80.783807 246.922698 
L 83.601989 250.290462 
L 86.42017 251.190504 
L 89.238352 250.400326 
L 92.056534 252.593387 
L 94.874716 253.789218 
L 97.692898 254.106134 
L 100.51108 256.155526 
L 103.329261 259.29511 
L 106.147443 261.775508 
L 108.965625 262.168484 
L 111.783807 261.745929 
L 114.601989 263.241774 
L 117.42017 264.230553 
L 120.238352 267.911007 
L 123.056534 266.765883 
L 125.874716 272.22952 
L 128.692898 270.247737 
L 131.51108 269.867437 
L 134.329261 273.750718 
L 137.147443 274.240882 
L 139.965625 277.426947 
L 142.783807 277.934013 
L 145.601989 280.934154 
L 148.42017 278.610101 
L 151.238352 281.044018 
L 154.056534 283.008899 
L 156.874716 283.963874 
L 159.692898 284.331497 
L 162.51108 286.144258 
L 165.329261 286.524557 
L 168.147443 288.121815 
L 170.965625 289.473991 
L 173.783807 288.671137 
L 176.601989 290.699401 
L 179.42017 290.488124 
L 182.238352 290.217688 
L 185.056534 290.84307 
L 187.874716 291.658601 
L 190.692898 291.392391 
L 193.51108 291.924811 
L 196.329261 293.281212 
L 199.147443 292.76147 
L 201.965625 292.989649 
L 204.783807 293.145995 
L 207.601989 293.061484 
L 210.42017 293.564324 
L 213.238352 292.664282 
L 216.056534 293.298115 
L 218.874716 293.940398 
L 221.692898 294.624938 
L 224.51108 294.45169 
L 227.329261 294.092518 
L 230.147443 294.468592 
L 232.965625 294.612261 
L 235.783807 294.392532 
L 238.601989 294.586908 
L 241.42017 294.709449 
L 244.238352 294.696772 
L 247.056534 294.671419 
L 249.874716 294.633389 
L 252.692898 294.633389 
L 255.51108 294.52775 
L 258.329261 294.608035 
L 261.147443 294.777057 
L 263.965625 294.730576 
L 266.783807 294.684095 
L 269.601989 294.616486 
L 272.42017 294.709449 
L 275.238352 294.620712 
L 278.056534 294.624938 
L 280.874716 294.722125 
L 283.692898 294.726351 
L 286.51108 294.726351 
L 289.329261 294.709449 
L 292.147443 294.772832 
L 294.965625 294.675644 
L 297.783807 294.785508 
L 300.601989 294.696772 
L 303.42017 294.671419 
L 306.238352 294.586908 
L 309.056534 294.751704 
L 311.874716 294.772832 
L 314.692898 294.764381 
L 317.51108 294.620712 
L 320.329261 294.722125 
L 323.147443 294.646065 
L 325.965625 294.743253 
" clip-path="url(#p7a1b65cfa0)" style="fill: none; stroke: #16ffe1; stroke-width: 1.5; stroke-linecap: square"/>
   </g>
   <g id="line2d_51">
    <path d="M 46.965625 240.406899 
L 49.783807 241.306941 
L 52.601989 242.1436 
L 55.42017 243.123928 
L 58.238352 239.980119 
L 61.056534 242.735177 
L 63.874716 243.833821 
L 66.692898 246.964953 
L 69.51108 246.605782 
L 72.329261 245.418402 
L 75.147443 247.387509 
L 77.965625 247.615688 
L 80.783807 250.615829 
L 83.601989 249.711561 
L 86.42017 249.08618 
L 89.238352 253.328633 
L 92.056534 255.289288 
L 94.874716 253.658225 
L 97.692898 258.319008 
L 100.51108 259.244403 
L 103.329261 259.540192 
L 106.147443 261.60226 
L 108.965625 262.24877 
L 111.783807 264.754521 
L 114.601989 266.317975 
L 117.42017 268.739215 
L 120.238352 270.12097 
L 123.056534 271.477372 
L 125.874716 271.705552 
L 128.692898 272.183039 
L 131.51108 275.673344 
L 134.329261 274.760625 
L 137.147443 278.035426 
L 139.965625 276.902979 
L 142.783807 277.410045 
L 145.601989 284.428684 
L 148.42017 282.125759 
L 151.238352 282.446901 
L 154.056534 285.992138 
L 156.874716 283.541319 
L 159.692898 284.551225 
L 162.51108 284.639962 
L 165.329261 287.771095 
L 168.147443 286.609068 
L 170.965625 288.688039 
L 173.783807 288.168296 
L 176.601989 291.062798 
L 179.42017 290.230365 
L 182.238352 289.80781 
L 185.056534 291.806495 
L 187.874716 290.027539 
L 190.692898 291.519158 
L 193.51108 290.090922 
L 196.329261 292.871334 
L 199.147443 292.64738 
L 201.965625 293.010777 
L 204.783807 293.082612 
L 207.601989 292.816402 
L 210.42017 292.845981 
L 213.238352 292.524839 
L 216.056534 293.412205 
L 218.874716 293.931947 
L 221.692898 293.361498 
L 224.51108 293.361498 
L 227.329261 293.936173 
L 230.147443 293.462911 
L 232.965625 294.472818 
L 235.783807 293.961526 
L 238.601989 294.164353 
L 241.42017 294.561554 
L 244.238352 294.020684 
L 247.056534 294.054488 
L 249.874716 294.384081 
L 252.692898 294.409434 
L 255.51108 294.008007 
L 258.329261 294.586908 
L 261.147443 294.48972 
L 263.965625 294.60381 
L 266.783807 294.591133 
L 269.601989 294.502397 
L 272.42017 294.067165 
L 275.238352 294.295345 
L 278.056534 294.561554 
L 280.874716 294.633389 
L 283.692898 294.578456 
L 286.51108 294.574231 
L 289.329261 294.713674 
L 292.147443 294.67987 
L 294.965625 294.700997 
L 297.783807 294.637614 
L 300.601989 294.633389 
L 303.42017 294.633389 
L 306.238352 294.777057 
L 309.056534 294.582682 
L 311.874716 294.654516 
L 314.692898 294.709449 
L 317.51108 294.553103 
L 320.329261 294.557329 
L 323.147443 294.671419 
L 325.965625 294.60381 
" clip-path="url(#p7a1b65cfa0)" style="fill: none; stroke: #7dff7a; stroke-width: 1.5; stroke-linecap: square"/>
   </g>
   <g id="line2d_52">
    <path d="M 46.965625 239.295579 
L 49.783807 240.647755 
L 52.601989 241.480189 
L 55.42017 243.804242 
L 58.238352 240.829454 
L 61.056534 241.040732 
L 63.874716 241.839361 
L 66.692898 242.980259 
L 69.51108 245.000073 
L 72.329261 244.48033 
L 75.147443 245.084584 
L 77.965625 244.746539 
L 80.783807 244.953591 
L 83.601989 249.960869 
L 86.42017 250.239755 
L 89.238352 251.342624 
L 92.056534 253.835699 
L 94.874716 256.692171 
L 97.692898 256.180879 
L 100.51108 256.244262 
L 103.329261 256.700622 
L 106.147443 258.407744 
L 108.965625 260.495166 
L 111.783807 262.781189 
L 114.601989 262.768512 
L 117.42017 266.486997 
L 120.238352 268.50681 
L 123.056534 264.970024 
L 125.874716 267.712406 
L 128.692898 269.453333 
L 131.51108 271.959085 
L 134.329261 272.521083 
L 137.147443 272.102753 
L 139.965625 273.192945 
L 142.783807 274.938098 
L 145.601989 278.018524 
L 148.42017 276.433943 
L 151.238352 278.035426 
L 154.056534 281.513054 
L 156.874716 279.112942 
L 159.692898 283.334267 
L 162.51108 283.579349 
L 165.329261 283.790626 
L 168.147443 284.648413 
L 170.965625 283.815979 
L 173.783807 285.172381 
L 176.601989 286.406242 
L 179.42017 286.799218 
L 182.238352 287.847155 
L 185.056534 288.058432 
L 187.874716 288.104913 
L 190.692898 289.930351 
L 193.51108 289.634562 
L 196.329261 291.53606 
L 199.147443 291.320557 
L 201.965625 291.274076 
L 204.783807 290.885325 
L 207.601989 290.597988 
L 210.42017 290.758559 
L 213.238352 292.968522 
L 216.056534 292.212148 
L 218.874716 292.486809 
L 221.692898 292.051577 
L 224.51108 292.714989 
L 227.329261 293.205153 
L 230.147443 292.68541 
L 232.965625 293.893917 
L 235.783807 294.012233 
L 238.601989 293.999556 
L 241.42017 292.676959 
L 244.238352 293.331919 
L 247.056534 293.327694 
L 249.874716 294.046037 
L 252.692898 293.762925 
L 255.51108 294.464367 
L 258.329261 294.426337 
L 261.147443 294.210834 
L 263.965625 294.515073 
L 266.783807 294.557329 
L 269.601989 294.646065 
L 272.42017 294.662967 
L 275.238352 294.506622 
L 278.056534 294.612261 
L 280.874716 294.671419 
L 283.692898 294.67987 
L 286.51108 294.591133 
L 289.329261 294.637614 
L 292.147443 294.688321 
L 294.965625 294.586908 
L 297.783807 294.688321 
L 300.601989 294.700997 
L 303.42017 294.667193 
L 306.238352 294.705223 
L 309.056534 294.692546 
L 311.874716 294.726351 
L 314.692898 294.726351 
L 317.51108 294.60381 
L 320.329261 294.688321 
L 323.147443 294.574231 
L 325.965625 294.637614 
" clip-path="url(#p7a1b65cfa0)" style="fill: none; stroke: #e4ff13; stroke-width: 1.5; stroke-linecap: square"/>
   </g>
   <g id="line2d_53">
    <path d="M 46.965625 241.560474 
L 49.783807 240.411125 
L 52.601989 239.316707 
L 55.42017 241.653437 
L 58.238352 239.958991 
L 61.056534 241.535121 
L 63.874716 242.190081 
L 66.692898 239.887156 
L 69.51108 243.647896 
L 72.329261 244.163414 
L 75.147443 245.895889 
L 77.965625 245.786025 
L 80.783807 246.762127 
L 83.601989 247.932605 
L 86.42017 251.613059 
L 89.238352 250.932745 
L 92.056534 251.127121 
L 94.874716 252.606063 
L 97.692898 256.032985 
L 100.51108 255.906218 
L 103.329261 257.042891 
L 106.147443 257.076696 
L 108.965625 261.593809 
L 111.783807 259.91204 
L 114.601989 262.362859 
L 117.42017 267.048995 
L 120.238352 263.491081 
L 123.056534 269.140642 
L 125.874716 271.604138 
L 128.692898 272.216843 
L 131.51108 273.252103 
L 134.329261 273.623952 
L 137.147443 272.453474 
L 139.965625 275.022609 
L 142.783807 277.033971 
L 145.601989 280.701749 
L 148.42017 283.854009 
L 151.238352 282.307458 
L 154.056534 285.138577 
L 156.874716 284.251211 
L 159.692898 285.987912 
L 162.51108 285.024487 
L 165.329261 287.141488 
L 168.147443 286.972466 
L 170.965625 287.356991 
L 173.783807 288.11759 
L 176.601989 289.469766 
L 179.42017 289.638788 
L 182.238352 289.634562 
L 185.056534 290.910679 
L 187.874716 291.379715 
L 190.692898 290.796589 
L 193.51108 291.485354 
L 196.329261 291.274076 
L 199.147443 292.427651 
L 201.965625 292.976973 
L 204.783807 292.981198 
L 207.601989 292.689635 
L 210.42017 291.827623 
L 213.238352 293.268536 
L 216.056534 293.281212 
L 218.874716 293.441783 
L 221.692898 293.741797 
L 224.51108 293.45446 
L 227.329261 293.281212 
L 230.147443 293.910819 
L 232.965625 294.219285 
L 235.783807 293.737572 
L 238.601989 293.965752 
L 241.42017 293.767151 
L 244.238352 293.83476 
L 247.056534 293.585452 
L 249.874716 294.126323 
L 252.692898 294.523524 
L 255.51108 293.940398 
L 258.329261 294.037586 
L 261.147443 294.675644 
L 263.965625 294.510848 
L 266.783807 294.633389 
L 269.601989 294.548878 
L 272.42017 294.64184 
L 275.238352 294.570005 
L 278.056534 294.620712 
L 280.874716 294.544652 
L 283.692898 294.633389 
L 286.51108 294.56578 
L 289.329261 294.56578 
L 292.147443 294.650291 
L 294.965625 294.599584 
L 297.783807 294.709449 
L 300.601989 294.662967 
L 303.42017 294.64184 
L 306.238352 294.586908 
L 309.056534 294.616486 
L 311.874716 294.612261 
L 314.692898 294.60381 
L 317.51108 294.64184 
L 320.329261 294.764381 
L 323.147443 294.578456 
L 325.965625 294.777057 
" clip-path="url(#p7a1b65cfa0)" style="fill: none; stroke: #ff9400; stroke-width: 1.5; stroke-linecap: square"/>
   </g>
   <g id="line2d_54">
    <path d="M 46.965625 241.999932 
L 49.783807 239.832224 
L 52.601989 240.288584 
L 55.42017 241.201303 
L 58.238352 239.447699 
L 61.056534 244.919787 
L 63.874716 240.761845 
L 66.692898 244.438074 
L 69.51108 245.722642 
L 72.329261 245.819829 
L 75.147443 244.378917 
L 77.965625 246.82551 
L 80.783807 246.90157 
L 83.601989 247.628365 
L 86.42017 249.580569 
L 89.238352 247.391734 
L 92.056534 250.514416 
L 94.874716 250.108763 
L 97.692898 254.292058 
L 100.51108 254.744192 
L 103.329261 257.482349 
L 106.147443 260.106416 
L 108.965625 262.054394 
L 111.783807 261.433238 
L 114.601989 262.075522 
L 117.42017 263.875607 
L 120.238352 266.389809 
L 123.056534 266.989837 
L 125.874716 269.453333 
L 128.692898 270.412533 
L 131.51108 271.722454 
L 134.329261 272.821097 
L 137.147443 276.040966 
L 139.965625 277.194542 
L 142.783807 275.757855 
L 145.601989 278.766447 
L 148.42017 279.210129 
L 151.238352 281.297551 
L 154.056534 281.360935 
L 156.874716 283.008899 
L 159.692898 283.279334 
L 162.51108 284.437135 
L 165.329261 284.441361 
L 168.147443 285.844244 
L 170.965625 285.400561 
L 173.783807 287.838703 
L 176.601989 290.179658 
L 179.42017 290.230365 
L 182.238352 291.240272 
L 185.056534 292.613575 
L 187.874716 291.709308 
L 190.692898 292.622027 
L 193.51108 293.653061 
L 196.329261 293.826308 
L 199.147443 294.510848 
L 201.965625 294.443239 
L 204.783807 294.654516 
L 207.601989 294.548878 
L 210.42017 294.608035 
L 213.238352 294.561554 
L 216.056534 294.464367 
L 218.874716 294.586908 
L 221.692898 294.544652 
L 224.51108 294.620712 
L 227.329261 294.650291 
L 230.147443 294.667193 
L 232.965625 294.574231 
L 235.783807 294.506622 
L 238.601989 294.561554 
L 241.42017 294.658742 
L 244.238352 294.599584 
L 247.056534 294.662967 
L 249.874716 294.629163 
L 252.692898 294.688321 
L 255.51108 294.616486 
L 258.329261 294.536201 
L 261.147443 294.722125 
L 263.965625 294.684095 
L 266.783807 294.570005 
L 269.601989 294.684095 
L 272.42017 294.67987 
L 275.238352 294.582682 
L 278.056534 294.591133 
L 280.874716 294.692546 
L 283.692898 294.675644 
L 286.51108 294.64184 
L 289.329261 294.667193 
L 292.147443 294.658742 
L 294.965625 294.777057 
L 297.783807 294.675644 
L 300.601989 294.785508 
L 303.42017 294.586908 
L 306.238352 294.722125 
L 309.056534 294.67987 
L 311.874716 294.56578 
L 314.692898 294.650291 
L 317.51108 294.810862 
L 320.329261 294.709449 
L 323.147443 294.7179 
L 325.965625 294.64184 
" clip-path="url(#p7a1b65cfa0)" style="fill: none; stroke: #ff1e00; stroke-width: 1.5; stroke-linecap: square"/>
   </g>
   <g id="line2d_55">
    <path d="M 46.965625 241.547798 
L 49.783807 239.477278 
L 52.601989 241.340746 
L 55.42017 241.52667 
L 58.238352 245.900115 
L 61.056534 240.782973 
L 63.874716 243.609866 
L 66.692898 243.183086 
L 69.51108 242.849267 
L 72.329261 245.735318 
L 75.147443 243.153507 
L 77.965625 248.257972 
L 80.783807 247.810064 
L 83.601989 250.822881 
L 86.42017 249.804523 
L 89.238352 250.324266 
L 92.056534 252.200411 
L 94.874716 254.769545 
L 97.692898 254.655455 
L 100.51108 257.744333 
L 103.329261 258.204918 
L 106.147443 255.703392 
L 108.965625 259.696537 
L 111.783807 260.009228 
L 114.601989 263.271353 
L 117.42017 266.072893 
L 120.238352 266.415162 
L 123.056534 266.313749 
L 125.874716 269.191349 
L 128.692898 272.356286 
L 131.51108 272.174588 
L 134.329261 271.253418 
L 137.147443 273.471832 
L 139.965625 274.232431 
L 142.783807 275.538126 
L 145.601989 279.459437 
L 148.42017 278.390373 
L 151.238352 280.553854 
L 154.056534 279.687617 
L 156.874716 280.279194 
L 159.692898 280.891898 
L 162.51108 284.225858 
L 165.329261 283.439905 
L 168.147443 283.199049 
L 170.965625 286.080874 
L 173.783807 287.209096 
L 176.601989 286.668226 
L 179.42017 288.045755 
L 182.238352 287.542915 
L 185.056534 288.637332 
L 187.874716 288.168296 
L 190.692898 289.123271 
L 193.51108 290.952934 
L 196.329261 289.638788 
L 199.147443 289.419059 
L 201.965625 290.602213 
L 204.783807 290.433191 
L 207.601989 290.826168 
L 210.42017 290.361357 
L 213.238352 292.689635 
L 216.056534 291.616346 
L 218.874716 292.127637 
L 221.692898 292.888236 
L 224.51108 293.627708 
L 227.329261 293.200927 
L 230.147443 293.750249 
L 232.965625 293.475588 
L 235.783807 293.826308 
L 238.601989 294.219285 
L 241.42017 294.354502 
L 244.238352 294.088293 
L 247.056534 294.295345 
L 249.874716 294.531975 
L 252.692898 294.557329 
L 255.51108 294.561554 
L 258.329261 294.768606 
L 261.147443 294.637614 
L 263.965625 294.688321 
L 266.783807 294.734802 
L 269.601989 294.671419 
L 272.42017 294.696772 
L 275.238352 294.658742 
L 278.056534 294.624938 
L 280.874716 294.696772 
L 283.692898 294.760155 
L 286.51108 294.498171 
L 289.329261 294.578456 
L 292.147443 294.629163 
L 294.965625 294.671419 
L 297.783807 294.713674 
L 300.601989 294.616486 
L 303.42017 294.739027 
L 306.238352 294.675644 
L 309.056534 294.624938 
L 311.874716 294.713674 
L 314.692898 294.722125 
L 317.51108 294.700997 
L 320.329261 294.785508 
L 323.147443 294.764381 
L 325.965625 294.646065 
" clip-path="url(#p7a1b65cfa0)" style="fill: none; stroke: #800000; stroke-width: 1.5; stroke-linecap: square"/>
   </g>
   <g id="line2d_56">
    <path d="M 46.965625 295.71513 
L 325.965625 295.71513 
" clip-path="url(#p7a1b65cfa0)" style="fill: none; stroke-dasharray: 5.55,2.4; stroke-dashoffset: 0; stroke: #808080; stroke-width: 1.5"/>
   </g>
   <g id="patch_9">
    <path d="M 46.965625 299.518125 
L 46.965625 236.518125 
" style="fill: none; stroke: #000000; stroke-width: 0.8; stroke-linejoin: miter; stroke-linecap: square"/>
   </g>
   <g id="patch_10">
    <path d="M 46.965625 299.518125 
L 325.965625 299.518125 
" style="fill: none; stroke: #000000; stroke-width: 0.8; stroke-linejoin: miter; stroke-linecap: square"/>
   </g>
   <g id="text_31">
    <!-- Labyrinth -->
    <g transform="translate(157.994688 230.518125) scale(0.12 -0.12)">
     <defs>
      <path id="DejaVuSans-62" d="M 3116 1747 
Q 3116 2381 2855 2742 
Q 2594 3103 2138 3103 
Q 1681 3103 1420 2742 
Q 1159 2381 1159 1747 
Q 1159 1113 1420 752 
Q 1681 391 2138 391 
Q 2594 391 2855 752 
Q 3116 1113 3116 1747 
z
M 1159 2969 
Q 1341 3281 1617 3432 
Q 1894 3584 2278 3584 
Q 2916 3584 3314 3078 
Q 3713 2572 3713 1747 
Q 3713 922 3314 415 
Q 2916 -91 2278 -91 
Q 1894 -91 1617 61 
Q 1341 213 1159 525 
L 1159 0 
L 581 0 
L 581 4863 
L 1159 4863 
L 1159 2969 
z
" transform="scale(0.015625)"/>
      <path id="DejaVuSans-68" d="M 3513 2113 
L 3513 0 
L 2938 0 
L 2938 2094 
Q 2938 2591 2744 2837 
Q 2550 3084 2163 3084 
Q 1697 3084 1428 2787 
Q 1159 2491 1159 1978 
L 1159 0 
L 581 0 
L 581 4863 
L 1159 4863 
L 1159 2956 
Q 1366 3272 1645 3428 
Q 1925 3584 2291 3584 
Q 2894 3584 3203 3211 
Q 3513 2838 3513 2113 
z
" transform="scale(0.015625)"/>
     </defs>
     <use xlink:href="#DejaVuSans-4c"/>
     <use xlink:href="#DejaVuSans-61" x="55.712891"/>
     <use xlink:href="#DejaVuSans-62" x="116.992188"/>
     <use xlink:href="#DejaVuSans-79" x="180.46875"/>
     <use xlink:href="#DejaVuSans-72" x="239.648438"/>
     <use xlink:href="#DejaVuSans-69" x="280.761719"/>
     <use xlink:href="#DejaVuSans-6e" x="308.544922"/>
     <use xlink:href="#DejaVuSans-74" x="371.923828"/>
     <use xlink:href="#DejaVuSans-68" x="411.132812"/>
    </g>
   </g>
   <g id="legend_1">
    <g id="patch_11">
     <path d="M 34.707813 371.524375 
L 338.223438 371.524375 
Q 340.223438 371.524375 340.223438 369.524375 
L 340.223438 341.168125 
Q 340.223438 339.168125 338.223438 339.168125 
L 34.707813 339.168125 
Q 32.707813 339.168125 32.707813 341.168125 
L 32.707813 369.524375 
Q 32.707813 371.524375 34.707813 371.524375 
z
" style="fill: #ffffff; opacity: 0.8; stroke: #cccccc; stroke-linejoin: miter"/>
    </g>
    <g id="line2d_57">
     <path d="M 36.707813 347.266562 
L 46.707813 347.266562 
L 56.707813 347.266562 
" style="fill: none; stroke: #000080; stroke-width: 1.5; stroke-linecap: square"/>
    </g>
    <g id="text_32">
     <!-- 0.1 -->
     <g transform="translate(64.707813 350.766562) scale(0.1 -0.1)">
      <defs>
       <path id="DejaVuSans-2e" d="M 684 794 
L 1344 794 
L 1344 0 
L 684 0 
L 684 794 
z
" transform="scale(0.015625)"/>
      </defs>
      <use xlink:href="#DejaVuSans-30"/>
      <use xlink:href="#DejaVuSans-2e" x="63.623047"/>
      <use xlink:href="#DejaVuSans-31" x="95.410156"/>
     </g>
    </g>
    <g id="line2d_58">
     <path d="M 36.707813 361.944687 
L 46.707813 361.944687 
L 56.707813 361.944687 
" style="fill: none; stroke: #0000ff; stroke-width: 1.5; stroke-linecap: square"/>
    </g>
    <g id="text_33">
     <!-- 0.2 -->
     <g transform="translate(64.707813 365.444687) scale(0.1 -0.1)">
      <use xlink:href="#DejaVuSans-30"/>
      <use xlink:href="#DejaVuSans-2e" x="63.623047"/>
      <use xlink:href="#DejaVuSans-32" x="95.410156"/>
     </g>
    </g>
    <g id="line2d_59">
     <path d="M 100.610938 347.266562 
L 110.610938 347.266562 
L 120.610938 347.266562 
" style="fill: none; stroke: #0080ff; stroke-width: 1.5; stroke-linecap: square"/>
    </g>
    <g id="text_34">
     <!-- 0.3 -->
     <g transform="translate(128.610938 350.766562) scale(0.1 -0.1)">
      <defs>
       <path id="DejaVuSans-33" d="M 2597 2516 
Q 3050 2419 3304 2112 
Q 3559 1806 3559 1356 
Q 3559 666 3084 287 
Q 2609 -91 1734 -91 
Q 1441 -91 1130 -33 
Q 819 25 488 141 
L 488 750 
Q 750 597 1062 519 
Q 1375 441 1716 441 
Q 2309 441 2620 675 
Q 2931 909 2931 1356 
Q 2931 1769 2642 2001 
Q 2353 2234 1838 2234 
L 1294 2234 
L 1294 2753 
L 1863 2753 
Q 2328 2753 2575 2939 
Q 2822 3125 2822 3475 
Q 2822 3834 2567 4026 
Q 2313 4219 1838 4219 
Q 1578 4219 1281 4162 
Q 984 4106 628 3988 
L 628 4550 
Q 988 4650 1302 4700 
Q 1616 4750 1894 4750 
Q 2613 4750 3031 4423 
Q 3450 4097 3450 3541 
Q 3450 3153 3228 2886 
Q 3006 2619 2597 2516 
z
" transform="scale(0.015625)"/>
      </defs>
      <use xlink:href="#DejaVuSans-30"/>
      <use xlink:href="#DejaVuSans-2e" x="63.623047"/>
      <use xlink:href="#DejaVuSans-33" x="95.410156"/>
     </g>
    </g>
    <g id="line2d_60">
     <path d="M 100.610938 361.944687 
L 110.610938 361.944687 
L 120.610938 361.944687 
" style="fill: none; stroke: #16ffe1; stroke-width: 1.5; stroke-linecap: square"/>
    </g>
    <g id="text_35">
     <!-- 0.4 -->
     <g transform="translate(128.610938 365.444687) scale(0.1 -0.1)">
      <use xlink:href="#DejaVuSans-30"/>
      <use xlink:href="#DejaVuSans-2e" x="63.623047"/>
      <use xlink:href="#DejaVuSans-34" x="95.410156"/>
     </g>
    </g>
    <g id="line2d_61">
     <path d="M 164.514063 347.266562 
L 174.514063 347.266562 
L 184.514063 347.266562 
" style="fill: none; stroke: #7dff7a; stroke-width: 1.5; stroke-linecap: square"/>
    </g>
    <g id="text_36">
     <!-- 0.5 -->
     <g transform="translate(192.514063 350.766562) scale(0.1 -0.1)">
      <use xlink:href="#DejaVuSans-30"/>
      <use xlink:href="#DejaVuSans-2e" x="63.623047"/>
      <use xlink:href="#DejaVuSans-35" x="95.410156"/>
     </g>
    </g>
    <g id="line2d_62">
     <path d="M 164.514063 361.944687 
L 174.514063 361.944687 
L 184.514063 361.944687 
" style="fill: none; stroke: #e4ff13; stroke-width: 1.5; stroke-linecap: square"/>
    </g>
    <g id="text_37">
     <!-- 0.6 -->
     <g transform="translate(192.514063 365.444687) scale(0.1 -0.1)">
      <use xlink:href="#DejaVuSans-30"/>
      <use xlink:href="#DejaVuSans-2e" x="63.623047"/>
      <use xlink:href="#DejaVuSans-36" x="95.410156"/>
     </g>
    </g>
    <g id="line2d_63">
     <path d="M 228.417188 347.266562 
L 238.417188 347.266562 
L 248.417188 347.266562 
" style="fill: none; stroke: #ff9400; stroke-width: 1.5; stroke-linecap: square"/>
    </g>
    <g id="text_38">
     <!-- 0.7 -->
     <g transform="translate(256.417188 350.766562) scale(0.1 -0.1)">
      <defs>
       <path id="DejaVuSans-37" d="M 525 4666 
L 3525 4666 
L 3525 4397 
L 1831 0 
L 1172 0 
L 2766 4134 
L 525 4134 
L 525 4666 
z
" transform="scale(0.015625)"/>
      </defs>
      <use xlink:href="#DejaVuSans-30"/>
      <use xlink:href="#DejaVuSans-2e" x="63.623047"/>
      <use xlink:href="#DejaVuSans-37" x="95.410156"/>
     </g>
    </g>
    <g id="line2d_64">
     <path d="M 228.417188 361.944687 
L 238.417188 361.944687 
L 248.417188 361.944687 
" style="fill: none; stroke: #ff1e00; stroke-width: 1.5; stroke-linecap: square"/>
    </g>
    <g id="text_39">
     <!-- 0.8 -->
     <g transform="translate(256.417188 365.444687) scale(0.1 -0.1)">
      <use xlink:href="#DejaVuSans-30"/>
      <use xlink:href="#DejaVuSans-2e" x="63.623047"/>
      <use xlink:href="#DejaVuSans-38" x="95.410156"/>
     </g>
    </g>
    <g id="line2d_65">
     <path d="M 292.320312 347.266562 
L 302.320312 347.266562 
L 312.320312 347.266562 
" style="fill: none; stroke: #800000; stroke-width: 1.5; stroke-linecap: square"/>
    </g>
    <g id="text_40">
     <!-- 0.9 -->
     <g transform="translate(320.320312 350.766562) scale(0.1 -0.1)">
      <defs>
       <path id="DejaVuSans-39" d="M 703 97 
L 703 672 
Q 941 559 1184 500 
Q 1428 441 1663 441 
Q 2288 441 2617 861 
Q 2947 1281 2994 2138 
Q 2813 1869 2534 1725 
Q 2256 1581 1919 1581 
Q 1219 1581 811 2004 
Q 403 2428 403 3163 
Q 403 3881 828 4315 
Q 1253 4750 1959 4750 
Q 2769 4750 3195 4129 
Q 3622 3509 3622 2328 
Q 3622 1225 3098 567 
Q 2575 -91 1691 -91 
Q 1453 -91 1209 -44 
Q 966 3 703 97 
z
M 1959 2075 
Q 2384 2075 2632 2365 
Q 2881 2656 2881 3163 
Q 2881 3666 2632 3958 
Q 2384 4250 1959 4250 
Q 1534 4250 1286 3958 
Q 1038 3666 1038 3163 
Q 1038 2656 1286 2365 
Q 1534 2075 1959 2075 
z
" transform="scale(0.015625)"/>
      </defs>
      <use xlink:href="#DejaVuSans-30"/>
      <use xlink:href="#DejaVuSans-2e" x="63.623047"/>
      <use xlink:href="#DejaVuSans-39" x="95.410156"/>
     </g>
    </g>
   </g>
  </g>
 </g>
 <defs>
  <clipPath id="pb3034457c8">
   <rect x="46.965625" y="22.318125" width="279" height="63"/>
  </clipPath>
  <clipPath id="pdd21cec0f9">
   <rect x="46.965625" y="129.418125" width="279" height="63"/>
  </clipPath>
  <clipPath id="p7a1b65cfa0">
   <rect x="46.965625" y="236.518125" width="279" height="63"/>
  </clipPath>
 </defs>
</svg>
