<?xml version="1.0" encoding="utf-8" standalone="no"?>
<!DOCTYPE svg PUBLIC "-//W3C//DTD SVG 1.1//EN"
  "http://www.w3.org/Graphics/SVG/1.1/DTD/svg11.dtd">
<svg xmlns:xlink="http://www.w3.org/1999/xlink" width="336.346875pt" height="378.724375pt" viewBox="0 0 336.346875 378.724375" xmlns="http://www.w3.org/2000/svg" version="1.1">
 <metadata>
  <rdf:RDF xmlns:dc="http://purl.org/dc/elements/1.1/" xmlns:cc="http://creativecommons.org/ns#" xmlns:rdf="http://www.w3.org/1999/02/22-rdf-syntax-ns#">
   <cc:Work>
    <dc:type rdf:resource="http://purl.org/dc/dcmitype/StillImage"/>
    <dc:date>2023-01-18T13:19:55.480701</dc:date>
    <dc:format>image/svg+xml</dc:format>
    <dc:creator>
     <cc:Agent>
      <dc:title>Matplotlib v3.6.1, https://matplotlib.org/</dc:title>
     </cc:Agent>
    </dc:creator>
   </cc:Work>
  </rdf:RDF>
 </metadata>
 <defs>
  <style type="text/css">*{stroke-linejoin: round; stroke-linecap: butt}</style>
 </defs>
 <g id="figure_1">
  <g id="patch_1">
   <path d="M 0 378.724375 
L 336.346875 378.724375 
L 336.346875 0 
L 0 0 
z
" style="fill: #ffffff"/>
  </g>
  <g id="axes_1">
   <g id="patch_2">
    <path d="M 40.603125 85.318125 
L 319.603125 85.318125 
L 319.603125 22.318125 
L 40.603125 22.318125 
z
" style="fill: #ffffff"/>
   </g>
   <g id="matplotlib.axis_1">
    <g id="xtick_1">
     <g id="line2d_1">
      <defs>
       <path id="m713e7f7b26" d="M 0 0 
L 0 3.5 
" style="stroke: #000000; stroke-width: 0.8"/>
      </defs>
      <g>
       <use xlink:href="#m713e7f7b26" x="40.603125" y="85.318125" style="stroke: #000000; stroke-width: 0.8"/>
      </g>
     </g>
     <g id="text_1">
      <!-- 1 -->
      <g transform="translate(37.421875 99.916562) scale(0.1 -0.1)">
       <defs>
        <path id="DejaVuSans-31" d="M 794 531 
L 1825 531 
L 1825 4091 
L 703 3866 
L 703 4441 
L 1819 4666 
L 2450 4666 
L 2450 531 
L 3481 531 
L 3481 0 
L 794 0 
L 794 531 
z
" transform="scale(0.015625)"/>
       </defs>
       <use xlink:href="#DejaVuSans-31"/>
      </g>
     </g>
    </g>
    <g id="xtick_2">
     <g id="line2d_2">
      <g>
       <use xlink:href="#m713e7f7b26" x="99.339967" y="85.318125" style="stroke: #000000; stroke-width: 0.8"/>
      </g>
     </g>
     <g id="text_2">
      <!-- 5 -->
      <g transform="translate(96.158717 99.916562) scale(0.1 -0.1)">
       <defs>
        <path id="DejaVuSans-35" d="M 691 4666 
L 3169 4666 
L 3169 4134 
L 1269 4134 
L 1269 2991 
Q 1406 3038 1543 3061 
Q 1681 3084 1819 3084 
Q 2600 3084 3056 2656 
Q 3513 2228 3513 1497 
Q 3513 744 3044 326 
Q 2575 -91 1722 -91 
Q 1428 -91 1123 -41 
Q 819 9 494 109 
L 494 744 
Q 775 591 1075 516 
Q 1375 441 1709 441 
Q 2250 441 2565 725 
Q 2881 1009 2881 1497 
Q 2881 1984 2565 2268 
Q 2250 2553 1709 2553 
Q 1456 2553 1204 2497 
Q 953 2441 691 2322 
L 691 4666 
z
" transform="scale(0.015625)"/>
       </defs>
       <use xlink:href="#DejaVuSans-35"/>
      </g>
     </g>
    </g>
    <g id="xtick_3">
     <g id="line2d_3">
      <g>
       <use xlink:href="#m713e7f7b26" x="172.76102" y="85.318125" style="stroke: #000000; stroke-width: 0.8"/>
      </g>
     </g>
     <g id="text_3">
      <!-- 10 -->
      <g transform="translate(166.39852 99.916562) scale(0.1 -0.1)">
       <defs>
        <path id="DejaVuSans-30" d="M 2034 4250 
Q 1547 4250 1301 3770 
Q 1056 3291 1056 2328 
Q 1056 1369 1301 889 
Q 1547 409 2034 409 
Q 2525 409 2770 889 
Q 3016 1369 3016 2328 
Q 3016 3291 2770 3770 
Q 2525 4250 2034 4250 
z
M 2034 4750 
Q 2819 4750 3233 4129 
Q 3647 3509 3647 2328 
Q 3647 1150 3233 529 
Q 2819 -91 2034 -91 
Q 1250 -91 836 529 
Q 422 1150 422 2328 
Q 422 3509 836 4129 
Q 1250 4750 2034 4750 
z
" transform="scale(0.015625)"/>
       </defs>
       <use xlink:href="#DejaVuSans-31"/>
       <use xlink:href="#DejaVuSans-30" x="63.623047"/>
      </g>
     </g>
    </g>
    <g id="xtick_4">
     <g id="line2d_4">
      <g>
       <use xlink:href="#m713e7f7b26" x="246.182072" y="85.318125" style="stroke: #000000; stroke-width: 0.8"/>
      </g>
     </g>
     <g id="text_4">
      <!-- 15 -->
      <g transform="translate(239.819572 99.916562) scale(0.1 -0.1)">
       <use xlink:href="#DejaVuSans-31"/>
       <use xlink:href="#DejaVuSans-35" x="63.623047"/>
      </g>
     </g>
    </g>
    <g id="xtick_5">
     <g id="line2d_5">
      <g>
       <use xlink:href="#m713e7f7b26" x="319.603125" y="85.318125" style="stroke: #000000; stroke-width: 0.8"/>
      </g>
     </g>
     <g id="text_5">
      <!-- 20 -->
      <g transform="translate(313.240625 99.916562) scale(0.1 -0.1)">
       <defs>
        <path id="DejaVuSans-32" d="M 1228 531 
L 3431 531 
L 3431 0 
L 469 0 
L 469 531 
Q 828 903 1448 1529 
Q 2069 2156 2228 2338 
Q 2531 2678 2651 2914 
Q 2772 3150 2772 3378 
Q 2772 3750 2511 3984 
Q 2250 4219 1831 4219 
Q 1534 4219 1204 4116 
Q 875 4013 500 3803 
L 500 4441 
Q 881 4594 1212 4672 
Q 1544 4750 1819 4750 
Q 2544 4750 2975 4387 
Q 3406 4025 3406 3419 
Q 3406 3131 3298 2873 
Q 3191 2616 2906 2266 
Q 2828 2175 2409 1742 
Q 1991 1309 1228 531 
z
" transform="scale(0.015625)"/>
       </defs>
       <use xlink:href="#DejaVuSans-32"/>
       <use xlink:href="#DejaVuSans-30" x="63.623047"/>
      </g>
     </g>
    </g>
   </g>
   <g id="matplotlib.axis_2">
    <g id="ytick_1">
     <g id="line2d_6">
      <defs>
       <path id="m8daf4fc180" d="M 0 0 
L -3.5 0 
" style="stroke: #000000; stroke-width: 0.8"/>
      </defs>
      <g>
       <use xlink:href="#m8daf4fc180" x="40.603125" y="85.318125" style="stroke: #000000; stroke-width: 0.8"/>
      </g>
     </g>
     <g id="text_6">
      <!-- 0 -->
      <g transform="translate(27.240625 89.117344) scale(0.1 -0.1)">
       <use xlink:href="#DejaVuSans-30"/>
      </g>
     </g>
    </g>
    <g id="ytick_2">
     <g id="line2d_7">
      <g>
       <use xlink:href="#m8daf4fc180" x="40.603125" y="62.6631" style="stroke: #000000; stroke-width: 0.8"/>
      </g>
     </g>
     <g id="text_7">
      <!-- 25 -->
      <g transform="translate(20.878125 66.462319) scale(0.1 -0.1)">
       <use xlink:href="#DejaVuSans-32"/>
       <use xlink:href="#DejaVuSans-35" x="63.623047"/>
      </g>
     </g>
    </g>
    <g id="ytick_3">
     <g id="line2d_8">
      <g>
       <use xlink:href="#m8daf4fc180" x="40.603125" y="40.008075" style="stroke: #000000; stroke-width: 0.8"/>
      </g>
     </g>
     <g id="text_8">
      <!-- 50 -->
      <g transform="translate(20.878125 43.807294) scale(0.1 -0.1)">
       <use xlink:href="#DejaVuSans-35"/>
       <use xlink:href="#DejaVuSans-30" x="63.623047"/>
      </g>
     </g>
    </g>
   </g>
   <g id="line2d_9">
    <path d="M 40.603125 29.367261 
L 55.287336 44.816981 
L 69.971546 56.17168 
L 84.655757 64.366758 
L 99.339967 70.098983 
L 114.024178 73.600946 
L 128.708388 75.566395 
L 143.392599 76.580334 
L 158.076809 77.041489 
L 172.76102 77.19655 
L 187.44523 77.19655 
L 202.129441 77.331473 
L 216.813651 77.289184 
L 231.497862 77.218702 
L 246.182072 77.293212 
L 260.866283 77.208633 
L 275.550493 77.260991 
L 290.234704 77.32946 
L 304.918914 77.230784 
L 319.603125 77.194536 
" clip-path="url(#p6c14cba107)" style="fill: none; stroke: #008000; stroke-width: 1.5; stroke-linecap: square"/>
   </g>
   <g id="line2d_10">
    <path d="M 40.603125 29.450833 
L 55.287336 41.29488 
L 69.971546 47.339241 
L 84.655757 60.125737 
L 99.339967 69.233057 
L 114.024178 72.141962 
L 128.708388 75.24117 
L 143.392599 76.310487 
L 158.076809 77.343556 
L 172.76102 77.216688 
L 187.44523 77.198564 
L 202.129441 77.144192 
L 216.813651 77.27106 
L 231.497862 77.524796 
L 246.182072 77.343556 
L 260.866283 77.27106 
L 275.550493 77.36168 
L 290.234704 77.325432 
L 304.918914 77.252936 
L 319.603125 77.379804 
" clip-path="url(#p6c14cba107)" style="fill: none; stroke: #0000ff; stroke-width: 1.5; stroke-linecap: square"/>
   </g>
   <g id="line2d_11">
    <path d="M 40.603125 24.947014 
L 55.287336 35.631124 
L 69.971546 39.835897 
L 84.655757 45.227793 
L 99.339967 52.015238 
L 114.024178 60.261667 
L 128.708388 68.381228 
L 143.392599 72.051342 
L 158.076809 74.914937 
L 172.76102 76.419231 
L 187.44523 77.08982 
L 202.129441 77.162316 
L 216.813651 77.289184 
L 231.497862 77.416052 
L 246.182072 77.18044 
L 260.866283 77.343556 
L 275.550493 77.27106 
L 290.234704 77.289184 
L 304.918914 77.234812 
L 319.603125 77.107944 
" clip-path="url(#p6c14cba107)" style="fill: none; stroke: #000000; stroke-width: 1.5; stroke-linecap: square"/>
   </g>
   <g id="line2d_12">
    <path d="M 40.603125 26.116013 
L 55.287336 64.973912 
L 69.971546 74.525271 
L 84.655757 76.428293 
L 99.339967 77.252936 
L 114.024178 77.307308 
L 128.708388 77.434176 
L 143.392599 77.216688 
L 158.076809 77.325432 
L 172.76102 77.397928 
L 187.44523 77.18044 
L 202.129441 77.252936 
L 216.813651 77.126068 
L 231.497862 77.198564 
L 246.182072 77.216688 
L 260.866283 77.126068 
L 275.550493 77.325432 
L 290.234704 77.289184 
L 304.918914 77.325432 
L 319.603125 77.307308 
" clip-path="url(#p6c14cba107)" style="fill: none; stroke: #ff0000; stroke-width: 1.5; stroke-linecap: square"/>
   </g>
   <g id="line2d_13">
    <path d="M 40.603125 77.162316 
L 319.603125 77.162316 
" clip-path="url(#p6c14cba107)" style="fill: none; stroke-dasharray: 5.55,2.4; stroke-dashoffset: 0; stroke: #808080; stroke-width: 1.5"/>
   </g>
   <g id="patch_3">
    <path d="M 40.603125 85.318125 
L 40.603125 22.318125 
" style="fill: none; stroke: #000000; stroke-width: 0.8; stroke-linejoin: miter; stroke-linecap: square"/>
   </g>
   <g id="patch_4">
    <path d="M 40.603125 85.318125 
L 319.603125 85.318125 
" style="fill: none; stroke: #000000; stroke-width: 0.8; stroke-linejoin: miter; stroke-linecap: square"/>
   </g>
   <g id="text_9">
    <!-- Linear Track -->
    <g transform="translate(143.851875 16.318125) scale(0.12 -0.12)">
     <defs>
      <path id="DejaVuSans-4c" d="M 628 4666 
L 1259 4666 
L 1259 531 
L 3531 531 
L 3531 0 
L 628 0 
L 628 4666 
z
" transform="scale(0.015625)"/>
      <path id="DejaVuSans-69" d="M 603 3500 
L 1178 3500 
L 1178 0 
L 603 0 
L 603 3500 
z
M 603 4863 
L 1178 4863 
L 1178 4134 
L 603 4134 
L 603 4863 
z
" transform="scale(0.015625)"/>
      <path id="DejaVuSans-6e" d="M 3513 2113 
L 3513 0 
L 2938 0 
L 2938 2094 
Q 2938 2591 2744 2837 
Q 2550 3084 2163 3084 
Q 1697 3084 1428 2787 
Q 1159 2491 1159 1978 
L 1159 0 
L 581 0 
L 581 3500 
L 1159 3500 
L 1159 2956 
Q 1366 3272 1645 3428 
Q 1925 3584 2291 3584 
Q 2894 3584 3203 3211 
Q 3513 2838 3513 2113 
z
" transform="scale(0.015625)"/>
      <path id="DejaVuSans-65" d="M 3597 1894 
L 3597 1613 
L 953 1613 
Q 991 1019 1311 708 
Q 1631 397 2203 397 
Q 2534 397 2845 478 
Q 3156 559 3463 722 
L 3463 178 
Q 3153 47 2828 -22 
Q 2503 -91 2169 -91 
Q 1331 -91 842 396 
Q 353 884 353 1716 
Q 353 2575 817 3079 
Q 1281 3584 2069 3584 
Q 2775 3584 3186 3129 
Q 3597 2675 3597 1894 
z
M 3022 2063 
Q 3016 2534 2758 2815 
Q 2500 3097 2075 3097 
Q 1594 3097 1305 2825 
Q 1016 2553 972 2059 
L 3022 2063 
z
" transform="scale(0.015625)"/>
      <path id="DejaVuSans-61" d="M 2194 1759 
Q 1497 1759 1228 1600 
Q 959 1441 959 1056 
Q 959 750 1161 570 
Q 1363 391 1709 391 
Q 2188 391 2477 730 
Q 2766 1069 2766 1631 
L 2766 1759 
L 2194 1759 
z
M 3341 1997 
L 3341 0 
L 2766 0 
L 2766 531 
Q 2569 213 2275 61 
Q 1981 -91 1556 -91 
Q 1019 -91 701 211 
Q 384 513 384 1019 
Q 384 1609 779 1909 
Q 1175 2209 1959 2209 
L 2766 2209 
L 2766 2266 
Q 2766 2663 2505 2880 
Q 2244 3097 1772 3097 
Q 1472 3097 1187 3025 
Q 903 2953 641 2809 
L 641 3341 
Q 956 3463 1253 3523 
Q 1550 3584 1831 3584 
Q 2591 3584 2966 3190 
Q 3341 2797 3341 1997 
z
" transform="scale(0.015625)"/>
      <path id="DejaVuSans-72" d="M 2631 2963 
Q 2534 3019 2420 3045 
Q 2306 3072 2169 3072 
Q 1681 3072 1420 2755 
Q 1159 2438 1159 1844 
L 1159 0 
L 581 0 
L 581 3500 
L 1159 3500 
L 1159 2956 
Q 1341 3275 1631 3429 
Q 1922 3584 2338 3584 
Q 2397 3584 2469 3576 
Q 2541 3569 2628 3553 
L 2631 2963 
z
" transform="scale(0.015625)"/>
      <path id="DejaVuSans-20" transform="scale(0.015625)"/>
      <path id="DejaVuSans-54" d="M -19 4666 
L 3928 4666 
L 3928 4134 
L 2272 4134 
L 2272 0 
L 1638 0 
L 1638 4134 
L -19 4134 
L -19 4666 
z
" transform="scale(0.015625)"/>
      <path id="DejaVuSans-63" d="M 3122 3366 
L 3122 2828 
Q 2878 2963 2633 3030 
Q 2388 3097 2138 3097 
Q 1578 3097 1268 2742 
Q 959 2388 959 1747 
Q 959 1106 1268 751 
Q 1578 397 2138 397 
Q 2388 397 2633 464 
Q 2878 531 3122 666 
L 3122 134 
Q 2881 22 2623 -34 
Q 2366 -91 2075 -91 
Q 1284 -91 818 406 
Q 353 903 353 1747 
Q 353 2603 823 3093 
Q 1294 3584 2113 3584 
Q 2378 3584 2631 3529 
Q 2884 3475 3122 3366 
z
" transform="scale(0.015625)"/>
      <path id="DejaVuSans-6b" d="M 581 4863 
L 1159 4863 
L 1159 1991 
L 2875 3500 
L 3609 3500 
L 1753 1863 
L 3688 0 
L 2938 0 
L 1159 1709 
L 1159 0 
L 581 0 
L 581 4863 
z
" transform="scale(0.015625)"/>
     </defs>
     <use xlink:href="#DejaVuSans-4c"/>
     <use xlink:href="#DejaVuSans-69" x="55.712891"/>
     <use xlink:href="#DejaVuSans-6e" x="83.496094"/>
     <use xlink:href="#DejaVuSans-65" x="146.875"/>
     <use xlink:href="#DejaVuSans-61" x="208.398438"/>
     <use xlink:href="#DejaVuSans-72" x="269.677734"/>
     <use xlink:href="#DejaVuSans-20" x="310.791016"/>
     <use xlink:href="#DejaVuSans-54" x="342.578125"/>
     <use xlink:href="#DejaVuSans-72" x="388.912109"/>
     <use xlink:href="#DejaVuSans-61" x="430.025391"/>
     <use xlink:href="#DejaVuSans-63" x="491.304688"/>
     <use xlink:href="#DejaVuSans-6b" x="546.285156"/>
    </g>
   </g>
  </g>
  <g id="axes_2">
   <g id="patch_5">
    <path d="M 40.603125 192.418125 
L 319.603125 192.418125 
L 319.603125 129.418125 
L 40.603125 129.418125 
z
" style="fill: #ffffff"/>
   </g>
   <g id="matplotlib.axis_3">
    <g id="xtick_6">
     <g id="line2d_14">
      <g>
       <use xlink:href="#m713e7f7b26" x="40.603125" y="192.418125" style="stroke: #000000; stroke-width: 0.8"/>
      </g>
     </g>
     <g id="text_10">
      <!-- 1 -->
      <g transform="translate(37.421875 207.016562) scale(0.1 -0.1)">
       <use xlink:href="#DejaVuSans-31"/>
      </g>
     </g>
    </g>
    <g id="xtick_7">
     <g id="line2d_15">
      <g>
       <use xlink:href="#m713e7f7b26" x="94.14858" y="192.418125" style="stroke: #000000; stroke-width: 0.8"/>
      </g>
     </g>
     <g id="text_11">
      <!-- 20 -->
      <g transform="translate(87.78608 207.016562) scale(0.1 -0.1)">
       <use xlink:href="#DejaVuSans-32"/>
       <use xlink:href="#DejaVuSans-30" x="63.623047"/>
      </g>
     </g>
    </g>
    <g id="xtick_8">
     <g id="line2d_16">
      <g>
       <use xlink:href="#m713e7f7b26" x="150.512216" y="192.418125" style="stroke: #000000; stroke-width: 0.8"/>
      </g>
     </g>
     <g id="text_12">
      <!-- 40 -->
      <g transform="translate(144.149716 207.016562) scale(0.1 -0.1)">
       <defs>
        <path id="DejaVuSans-34" d="M 2419 4116 
L 825 1625 
L 2419 1625 
L 2419 4116 
z
M 2253 4666 
L 3047 4666 
L 3047 1625 
L 3713 1625 
L 3713 1100 
L 3047 1100 
L 3047 0 
L 2419 0 
L 2419 1100 
L 313 1100 
L 313 1709 
L 2253 4666 
z
" transform="scale(0.015625)"/>
       </defs>
       <use xlink:href="#DejaVuSans-34"/>
       <use xlink:href="#DejaVuSans-30" x="63.623047"/>
      </g>
     </g>
    </g>
    <g id="xtick_9">
     <g id="line2d_17">
      <g>
       <use xlink:href="#m713e7f7b26" x="206.875852" y="192.418125" style="stroke: #000000; stroke-width: 0.8"/>
      </g>
     </g>
     <g id="text_13">
      <!-- 60 -->
      <g transform="translate(200.513352 207.016562) scale(0.1 -0.1)">
       <defs>
        <path id="DejaVuSans-36" d="M 2113 2584 
Q 1688 2584 1439 2293 
Q 1191 2003 1191 1497 
Q 1191 994 1439 701 
Q 1688 409 2113 409 
Q 2538 409 2786 701 
Q 3034 994 3034 1497 
Q 3034 2003 2786 2293 
Q 2538 2584 2113 2584 
z
M 3366 4563 
L 3366 3988 
Q 3128 4100 2886 4159 
Q 2644 4219 2406 4219 
Q 1781 4219 1451 3797 
Q 1122 3375 1075 2522 
Q 1259 2794 1537 2939 
Q 1816 3084 2150 3084 
Q 2853 3084 3261 2657 
Q 3669 2231 3669 1497 
Q 3669 778 3244 343 
Q 2819 -91 2113 -91 
Q 1303 -91 875 529 
Q 447 1150 447 2328 
Q 447 3434 972 4092 
Q 1497 4750 2381 4750 
Q 2619 4750 2861 4703 
Q 3103 4656 3366 4563 
z
" transform="scale(0.015625)"/>
       </defs>
       <use xlink:href="#DejaVuSans-36"/>
       <use xlink:href="#DejaVuSans-30" x="63.623047"/>
      </g>
     </g>
    </g>
    <g id="xtick_10">
     <g id="line2d_18">
      <g>
       <use xlink:href="#m713e7f7b26" x="263.239489" y="192.418125" style="stroke: #000000; stroke-width: 0.8"/>
      </g>
     </g>
     <g id="text_14">
      <!-- 80 -->
      <g transform="translate(256.876989 207.016562) scale(0.1 -0.1)">
       <defs>
        <path id="DejaVuSans-38" d="M 2034 2216 
Q 1584 2216 1326 1975 
Q 1069 1734 1069 1313 
Q 1069 891 1326 650 
Q 1584 409 2034 409 
Q 2484 409 2743 651 
Q 3003 894 3003 1313 
Q 3003 1734 2745 1975 
Q 2488 2216 2034 2216 
z
M 1403 2484 
Q 997 2584 770 2862 
Q 544 3141 544 3541 
Q 544 4100 942 4425 
Q 1341 4750 2034 4750 
Q 2731 4750 3128 4425 
Q 3525 4100 3525 3541 
Q 3525 3141 3298 2862 
Q 3072 2584 2669 2484 
Q 3125 2378 3379 2068 
Q 3634 1759 3634 1313 
Q 3634 634 3220 271 
Q 2806 -91 2034 -91 
Q 1263 -91 848 271 
Q 434 634 434 1313 
Q 434 1759 690 2068 
Q 947 2378 1403 2484 
z
M 1172 3481 
Q 1172 3119 1398 2916 
Q 1625 2713 2034 2713 
Q 2441 2713 2670 2916 
Q 2900 3119 2900 3481 
Q 2900 3844 2670 4047 
Q 2441 4250 2034 4250 
Q 1625 4250 1398 4047 
Q 1172 3844 1172 3481 
z
" transform="scale(0.015625)"/>
       </defs>
       <use xlink:href="#DejaVuSans-38"/>
       <use xlink:href="#DejaVuSans-30" x="63.623047"/>
      </g>
     </g>
    </g>
    <g id="xtick_11">
     <g id="line2d_19">
      <g>
       <use xlink:href="#m713e7f7b26" x="319.603125" y="192.418125" style="stroke: #000000; stroke-width: 0.8"/>
      </g>
     </g>
     <g id="text_15">
      <!-- 100 -->
      <g transform="translate(310.059375 207.016562) scale(0.1 -0.1)">
       <use xlink:href="#DejaVuSans-31"/>
       <use xlink:href="#DejaVuSans-30" x="63.623047"/>
       <use xlink:href="#DejaVuSans-30" x="127.246094"/>
      </g>
     </g>
    </g>
   </g>
   <g id="matplotlib.axis_4">
    <g id="ytick_4">
     <g id="line2d_20">
      <g>
       <use xlink:href="#m8daf4fc180" x="40.603125" y="192.418125" style="stroke: #000000; stroke-width: 0.8"/>
      </g>
     </g>
     <g id="text_16">
      <!-- 0 -->
      <g transform="translate(27.240625 196.217344) scale(0.1 -0.1)">
       <use xlink:href="#DejaVuSans-30"/>
      </g>
     </g>
    </g>
    <g id="ytick_5">
     <g id="line2d_21">
      <g>
       <use xlink:href="#m8daf4fc180" x="40.603125" y="160.844242" style="stroke: #000000; stroke-width: 0.8"/>
      </g>
     </g>
     <g id="text_17">
      <!-- 50 -->
      <g transform="translate(20.878125 164.643461) scale(0.1 -0.1)">
       <use xlink:href="#DejaVuSans-35"/>
       <use xlink:href="#DejaVuSans-30" x="63.623047"/>
      </g>
     </g>
    </g>
    <g id="text_18">
     <!-- Escape Latency [#steps] -->
     <g transform="translate(14.798438 223.200156) rotate(-90) scale(0.1 -0.1)">
      <defs>
       <path id="DejaVuSans-45" d="M 628 4666 
L 3578 4666 
L 3578 4134 
L 1259 4134 
L 1259 2753 
L 3481 2753 
L 3481 2222 
L 1259 2222 
L 1259 531 
L 3634 531 
L 3634 0 
L 628 0 
L 628 4666 
z
" transform="scale(0.015625)"/>
       <path id="DejaVuSans-73" d="M 2834 3397 
L 2834 2853 
Q 2591 2978 2328 3040 
Q 2066 3103 1784 3103 
Q 1356 3103 1142 2972 
Q 928 2841 928 2578 
Q 928 2378 1081 2264 
Q 1234 2150 1697 2047 
L 1894 2003 
Q 2506 1872 2764 1633 
Q 3022 1394 3022 966 
Q 3022 478 2636 193 
Q 2250 -91 1575 -91 
Q 1294 -91 989 -36 
Q 684 19 347 128 
L 347 722 
Q 666 556 975 473 
Q 1284 391 1588 391 
Q 1994 391 2212 530 
Q 2431 669 2431 922 
Q 2431 1156 2273 1281 
Q 2116 1406 1581 1522 
L 1381 1569 
Q 847 1681 609 1914 
Q 372 2147 372 2553 
Q 372 3047 722 3315 
Q 1072 3584 1716 3584 
Q 2034 3584 2315 3537 
Q 2597 3491 2834 3397 
z
" transform="scale(0.015625)"/>
       <path id="DejaVuSans-70" d="M 1159 525 
L 1159 -1331 
L 581 -1331 
L 581 3500 
L 1159 3500 
L 1159 2969 
Q 1341 3281 1617 3432 
Q 1894 3584 2278 3584 
Q 2916 3584 3314 3078 
Q 3713 2572 3713 1747 
Q 3713 922 3314 415 
Q 2916 -91 2278 -91 
Q 1894 -91 1617 61 
Q 1341 213 1159 525 
z
M 3116 1747 
Q 3116 2381 2855 2742 
Q 2594 3103 2138 3103 
Q 1681 3103 1420 2742 
Q 1159 2381 1159 1747 
Q 1159 1113 1420 752 
Q 1681 391 2138 391 
Q 2594 391 2855 752 
Q 3116 1113 3116 1747 
z
" transform="scale(0.015625)"/>
       <path id="DejaVuSans-74" d="M 1172 4494 
L 1172 3500 
L 2356 3500 
L 2356 3053 
L 1172 3053 
L 1172 1153 
Q 1172 725 1289 603 
Q 1406 481 1766 481 
L 2356 481 
L 2356 0 
L 1766 0 
Q 1100 0 847 248 
Q 594 497 594 1153 
L 594 3053 
L 172 3053 
L 172 3500 
L 594 3500 
L 594 4494 
L 1172 4494 
z
" transform="scale(0.015625)"/>
       <path id="DejaVuSans-79" d="M 2059 -325 
Q 1816 -950 1584 -1140 
Q 1353 -1331 966 -1331 
L 506 -1331 
L 506 -850 
L 844 -850 
Q 1081 -850 1212 -737 
Q 1344 -625 1503 -206 
L 1606 56 
L 191 3500 
L 800 3500 
L 1894 763 
L 2988 3500 
L 3597 3500 
L 2059 -325 
z
" transform="scale(0.015625)"/>
       <path id="DejaVuSans-5b" d="M 550 4863 
L 1875 4863 
L 1875 4416 
L 1125 4416 
L 1125 -397 
L 1875 -397 
L 1875 -844 
L 550 -844 
L 550 4863 
z
" transform="scale(0.015625)"/>
       <path id="DejaVuSans-23" d="M 3272 2816 
L 2363 2816 
L 2100 1772 
L 3016 1772 
L 3272 2816 
z
M 2803 4594 
L 2478 3297 
L 3391 3297 
L 3719 4594 
L 4219 4594 
L 3897 3297 
L 4872 3297 
L 4872 2816 
L 3775 2816 
L 3519 1772 
L 4513 1772 
L 4513 1294 
L 3397 1294 
L 3072 0 
L 2572 0 
L 2894 1294 
L 1978 1294 
L 1656 0 
L 1153 0 
L 1478 1294 
L 494 1294 
L 494 1772 
L 1594 1772 
L 1856 2816 
L 850 2816 
L 850 3297 
L 1978 3297 
L 2297 4594 
L 2803 4594 
z
" transform="scale(0.015625)"/>
       <path id="DejaVuSans-5d" d="M 1947 4863 
L 1947 -844 
L 622 -844 
L 622 -397 
L 1369 -397 
L 1369 4416 
L 622 4416 
L 622 4863 
L 1947 4863 
z
" transform="scale(0.015625)"/>
      </defs>
      <use xlink:href="#DejaVuSans-45"/>
      <use xlink:href="#DejaVuSans-73" x="63.183594"/>
      <use xlink:href="#DejaVuSans-63" x="115.283203"/>
      <use xlink:href="#DejaVuSans-61" x="170.263672"/>
      <use xlink:href="#DejaVuSans-70" x="231.542969"/>
      <use xlink:href="#DejaVuSans-65" x="295.019531"/>
      <use xlink:href="#DejaVuSans-20" x="356.542969"/>
      <use xlink:href="#DejaVuSans-4c" x="388.330078"/>
      <use xlink:href="#DejaVuSans-61" x="444.042969"/>
      <use xlink:href="#DejaVuSans-74" x="505.322266"/>
      <use xlink:href="#DejaVuSans-65" x="544.53125"/>
      <use xlink:href="#DejaVuSans-6e" x="606.054688"/>
      <use xlink:href="#DejaVuSans-63" x="669.433594"/>
      <use xlink:href="#DejaVuSans-79" x="724.414062"/>
      <use xlink:href="#DejaVuSans-20" x="783.59375"/>
      <use xlink:href="#DejaVuSans-5b" x="815.380859"/>
      <use xlink:href="#DejaVuSans-23" x="854.394531"/>
      <use xlink:href="#DejaVuSans-73" x="938.183594"/>
      <use xlink:href="#DejaVuSans-74" x="990.283203"/>
      <use xlink:href="#DejaVuSans-65" x="1029.492188"/>
      <use xlink:href="#DejaVuSans-70" x="1091.015625"/>
      <use xlink:href="#DejaVuSans-73" x="1154.492188"/>
      <use xlink:href="#DejaVuSans-5d" x="1206.591797"/>
     </g>
    </g>
   </g>
   <g id="line2d_22">
    <path d="M 40.603125 134.111688 
L 43.421307 135.17678 
L 46.239489 136.185741 
L 49.05767 136.695133 
L 51.875852 138.529225 
L 54.694034 139.476441 
L 57.512216 140.343671 
L 60.330398 141.264225 
L 63.14858 143.204966 
L 65.966761 144.198491 
L 68.784943 145.196226 
L 71.603125 147.108901 
L 74.421307 147.910176 
L 77.239489 149.98423 
L 80.05767 150.674645 
L 82.875852 151.407159 
L 85.694034 153.47139 
L 88.512216 154.570161 
L 91.330398 156.600712 
L 94.14858 157.344453 
L 96.966761 159.758101 
L 99.784943 161.348021 
L 102.603125 163.068447 
L 105.421307 163.604501 
L 108.239489 165.215471 
L 111.05767 167.241812 
L 113.875852 168.62966 
L 116.694034 169.788772 
L 119.512216 171.272043 
L 122.330398 171.907731 
L 125.14858 173.501861 
L 127.966761 173.280142 
L 130.784943 174.943033 
L 133.603125 176.443144 
L 136.421307 176.457176 
L 139.239489 177.432459 
L 142.05767 177.221966 
L 144.875852 178.186022 
L 147.694034 178.51018 
L 150.512216 179.343731 
L 153.330398 179.653857 
L 156.14858 180.107117 
L 158.966761 181.019252 
L 161.784943 181.082399 
L 164.603125 181.037494 
L 167.421307 181.374282 
L 170.239489 182.028213 
L 173.05767 182.241512 
L 175.875852 182.793002 
L 178.694034 182.887022 
L 181.512216 182.986655 
L 184.330398 182.778969 
L 187.14858 183.117161 
L 189.966761 183.785124 
L 192.784943 183.32204 
L 195.603125 183.726186 
L 198.421307 184.040521 
L 201.239489 184.026489 
L 204.05767 184.213125 
L 206.875852 184.213125 
L 209.694034 183.914226 
L 212.512216 184.509218 
L 215.330398 184.301532 
L 218.14858 184.305742 
L 220.966761 184.54851 
L 223.784943 184.409585 
L 226.603125 184.563946 
L 229.421307 184.690242 
L 232.239489 184.448877 
L 235.05767 184.709888 
L 237.875852 184.690242 
L 240.694034 184.662176 
L 243.512216 184.693048 
L 246.330398 184.641127 
L 249.14858 184.796891 
L 251.966761 185.064918 
L 254.784943 184.785665 
L 257.603125 184.808118 
L 260.421307 184.892315 
L 263.239489 185.090178 
L 266.05767 184.794085 
L 268.875852 185.046676 
L 271.694034 185.161745 
L 274.512216 185.191214 
L 277.330398 185.154729 
L 280.14858 185.000367 
L 282.966761 184.934413 
L 285.784943 185.302073 
L 288.603125 185.217876 
L 291.421307 185.203844 
L 294.239489 185.071935 
L 297.05767 185.247345 
L 299.875852 185.01861 
L 302.694034 185.276814 
L 305.512216 185.063515 
L 308.330398 184.805311 
L 311.14858 184.951253 
L 313.966761 185.071935 
L 316.784943 185.157535 
L 319.603125 185.21086 
" clip-path="url(#p58f2ac2e1b)" style="fill: none; stroke: #008000; stroke-width: 1.5; stroke-linecap: square"/>
   </g>
   <g id="line2d_23">
    <path d="M 40.603125 132.112009 
L 43.421307 135.18099 
L 46.239489 135.206249 
L 49.05767 137.214348 
L 51.875852 137.908974 
L 54.694034 137.062794 
L 57.512216 137.44168 
L 60.330398 137.302755 
L 63.14858 138.174194 
L 65.966761 136.759684 
L 68.784943 137.024905 
L 71.603125 139.336113 
L 74.421307 140.422255 
L 77.239489 143.364941 
L 80.05767 143.66805 
L 82.875852 142.885018 
L 85.694034 141.078991 
L 88.512216 143.65542 
L 91.330398 147.305361 
L 94.14858 144.476341 
L 96.966761 147.772655 
L 99.784943 149.490274 
L 102.603125 153.405435 
L 105.421307 151.447855 
L 108.239489 155.969235 
L 111.05767 155.906087 
L 113.875852 159.025586 
L 116.694034 160.06121 
L 119.512216 158.179406 
L 122.330398 162.107197 
L 125.14858 163.433301 
L 127.966761 165.491918 
L 130.784943 165.302474 
L 133.603125 169.129229 
L 136.421307 170.24063 
L 139.239489 168.636676 
L 142.05767 170.51848 
L 144.875852 172.299247 
L 147.694034 175.772374 
L 150.512216 173.019131 
L 153.330398 175.936558 
L 156.14858 176.770109 
L 158.966761 176.618554 
L 161.784943 176.530147 
L 164.603125 179.674906 
L 167.421307 179.245501 
L 170.239489 180.68527 
L 173.05767 181.82193 
L 175.875852 181.872448 
L 178.694034 181.784041 
L 181.512216 183.968954 
L 184.330398 183.110144 
L 187.14858 183.299588 
L 189.966761 184.208915 
L 192.784943 184.107879 
L 195.603125 183.122774 
L 198.421307 184.726727 
L 201.239489 184.335211 
L 204.05767 184.890911 
L 206.875852 184.448877 
L 209.694034 184.385729 
L 212.512216 185.20665 
L 215.330398 185.067725 
L 218.14858 185.711832 
L 220.966761 185.244539 
L 223.784943 185.661314 
L 226.603125 185.029836 
L 229.421307 185.585537 
L 232.239489 185.421353 
L 235.05767 185.345575 
L 237.875852 185.636055 
L 240.694034 185.623425 
L 243.512216 185.749721 
L 246.330398 185.49713 
L 249.14858 185.49713 
L 251.966761 185.661314 
L 254.784943 185.585537 
L 257.603125 185.76235 
L 260.421307 185.610796 
L 263.239489 185.711832 
L 266.05767 185.408723 
L 268.875852 185.585537 
L 271.694034 185.825498 
L 274.512216 185.749721 
L 277.330398 185.585537 
L 280.14858 185.560278 
L 282.966761 185.421353 
L 285.784943 185.724462 
L 288.603125 185.636055 
L 291.421307 185.598166 
L 294.239489 185.812869 
L 297.05767 185.648685 
L 299.875852 185.749721 
L 302.694034 185.876016 
L 305.512216 185.913905 
L 308.330398 185.863387 
L 311.14858 185.560278 
L 313.966761 185.989682 
L 316.784943 185.686573 
L 319.603125 185.598166 
" clip-path="url(#p58f2ac2e1b)" style="fill: none; stroke: #0000ff; stroke-width: 1.5; stroke-linecap: square"/>
   </g>
   <g id="line2d_24">
    <path d="M 40.603125 133.955923 
L 43.421307 134.89051 
L 46.239489 133.008707 
L 49.05767 133.033966 
L 51.875852 135.484099 
L 54.694034 137.024905 
L 57.512216 135.521988 
L 60.330398 135.585136 
L 63.14858 134.183255 
L 65.966761 136.848091 
L 68.784943 135.976652 
L 71.603125 140.599068 
L 74.421307 135.673543 
L 77.239489 137.290125 
L 80.05767 138.830931 
L 82.875852 140.763253 
L 85.694034 137.681642 
L 88.512216 142.480872 
L 91.330398 141.142139 
L 94.14858 141.104251 
L 96.966761 141.571544 
L 99.784943 144.880487 
L 102.603125 141.609433 
L 105.421307 145.196226 
L 108.239489 146.320256 
L 111.05767 144.867857 
L 113.875852 149.03561 
L 116.694034 148.555687 
L 119.512216 149.86916 
L 122.330398 154.352652 
L 125.14858 153.935877 
L 127.966761 154.062172 
L 130.784943 156.322862 
L 133.603125 160.755835 
L 136.421307 157.181672 
L 139.239489 162.700786 
L 142.05767 164.481553 
L 144.875852 161.665163 
L 147.694034 166.477023 
L 150.512216 165.98447 
L 153.330398 170.467962 
L 156.14858 163.887964 
L 158.966761 169.242895 
L 161.784943 168.005199 
L 164.603125 170.531109 
L 167.421307 174.509419 
L 170.239489 171.288883 
L 173.05767 175.923929 
L 175.875852 177.401586 
L 178.694034 177.338439 
L 181.512216 176.340704 
L 184.330398 176.820627 
L 187.14858 179.030799 
L 189.966761 179.83909 
L 192.784943 181.076786 
L 195.603125 182.642851 
L 198.421307 180.470568 
L 201.239489 181.367266 
L 204.05767 182.933331 
L 206.875852 181.720893 
L 209.694034 181.834559 
L 212.512216 182.541814 
L 215.330398 184.183656 
L 218.14858 183.110144 
L 220.966761 182.832294 
L 223.784943 183.615326 
L 226.603125 183.148033 
L 229.421307 184.537284 
L 232.239489 183.703733 
L 235.05767 184.259434 
L 237.875852 184.423618 
L 240.694034 184.3731 
L 243.512216 185.156132 
L 246.330398 183.79214 
L 249.14858 185.598166 
L 251.966761 184.587802 
L 254.784943 185.029836 
L 257.603125 184.865652 
L 260.421307 184.272063 
L 263.239489 185.257168 
L 266.05767 184.91617 
L 268.875852 184.827764 
L 271.694034 184.751986 
L 274.512216 185.244539 
L 277.330398 184.133138 
L 280.14858 184.600432 
L 282.966761 185.130873 
L 285.784943 184.171027 
L 288.603125 185.598166 
L 291.421307 184.524654 
L 294.239489 185.547648 
L 297.05767 185.295057 
L 299.875852 184.688838 
L 302.694034 184.878282 
L 305.512216 185.004577 
L 308.330398 185.636055 
L 311.14858 185.77498 
L 313.966761 184.9288 
L 316.784943 185.105614 
L 319.603125 184.764616 
" clip-path="url(#p58f2ac2e1b)" style="fill: none; stroke: #000000; stroke-width: 1.5; stroke-linecap: square"/>
   </g>
   <g id="line2d_25">
    <path d="M 40.603125 133.450741 
L 43.421307 137.605864 
L 46.239489 145.398299 
L 49.05767 151.852 
L 51.875852 158.166777 
L 54.694034 161.46309 
L 57.512216 164.708885 
L 60.330398 166.186543 
L 63.14858 169.647041 
L 65.966761 171.718287 
L 68.784943 172.804429 
L 71.603125 175.822892 
L 74.421307 176.833256 
L 77.239489 178.083582 
L 80.05767 179.447574 
L 82.875852 179.308649 
L 85.694034 180.142199 
L 88.512216 181.443043 
L 91.330398 181.948225 
L 94.14858 182.769146 
L 96.966761 183.122774 
L 99.784943 183.539549 
L 102.603125 182.807035 
L 105.421307 183.312217 
L 108.239489 183.23644 
L 111.05767 183.602697 
L 113.875852 183.691104 
L 116.694034 184.9288 
L 119.512216 183.830029 
L 122.330398 184.789875 
L 125.14858 184.878282 
L 127.966761 185.067725 
L 130.784943 184.954059 
L 133.603125 184.777245 
L 136.421307 185.471871 
L 139.239489 185.156132 
L 142.05767 184.701468 
L 144.875852 185.130873 
L 147.694034 184.549913 
L 150.512216 185.168761 
L 153.330398 185.029836 
L 156.14858 185.686573 
L 158.966761 185.017207 
L 161.784943 185.408723 
L 164.603125 185.560278 
L 167.421307 185.49713 
L 170.239489 185.092984 
L 173.05767 185.143502 
L 175.875852 185.433982 
L 178.694034 185.067725 
L 181.512216 185.231909 
L 184.330398 185.269798 
L 187.14858 184.63832 
L 189.966761 185.421353 
L 192.784943 185.345575 
L 195.603125 185.20665 
L 198.421307 185.080355 
L 201.239489 185.560278 
L 204.05767 185.332946 
L 206.875852 185.042466 
L 209.694034 185.471871 
L 212.512216 185.257168 
L 215.330398 185.446612 
L 218.14858 185.332946 
L 220.966761 185.686573 
L 223.784943 185.21928 
L 226.603125 185.067725 
L 229.421307 185.421353 
L 232.239489 185.661314 
L 235.05767 185.4845 
L 237.875852 185.446612 
L 240.694034 185.623425 
L 243.512216 184.802504 
L 246.330398 185.699203 
L 249.14858 185.699203 
L 251.966761 185.711832 
L 254.784943 185.673944 
L 257.603125 185.446612 
L 260.421307 185.244539 
L 263.239489 185.21928 
L 266.05767 185.686573 
L 268.875852 185.636055 
L 271.694034 185.358205 
L 274.512216 185.509759 
L 277.330398 185.49713 
L 280.14858 185.686573 
L 282.966761 185.080355 
L 285.784943 185.21928 
L 288.603125 185.598166 
L 291.421307 185.4845 
L 294.239489 185.320316 
L 297.05767 185.358205 
L 299.875852 185.055096 
L 302.694034 185.358205 
L 305.512216 185.269798 
L 308.330398 185.673944 
L 311.14858 185.370834 
L 313.966761 185.610796 
L 316.784943 185.332946 
L 319.603125 185.661314 
" clip-path="url(#p58f2ac2e1b)" style="fill: none; stroke: #ff0000; stroke-width: 1.5; stroke-linecap: square"/>
   </g>
   <g id="line2d_26">
    <path d="M 40.603125 186.103348 
L 319.603125 186.103348 
" clip-path="url(#p58f2ac2e1b)" style="fill: none; stroke-dasharray: 5.55,2.4; stroke-dashoffset: 0; stroke: #808080; stroke-width: 1.5"/>
   </g>
   <g id="patch_6">
    <path d="M 40.603125 192.418125 
L 40.603125 129.418125 
" style="fill: none; stroke: #000000; stroke-width: 0.8; stroke-linejoin: miter; stroke-linecap: square"/>
   </g>
   <g id="patch_7">
    <path d="M 40.603125 192.418125 
L 319.603125 192.418125 
" style="fill: none; stroke: #000000; stroke-width: 0.8; stroke-linejoin: miter; stroke-linecap: square"/>
   </g>
   <g id="text_19">
    <!-- Open Field -->
    <g transform="translate(148.319063 123.418125) scale(0.12 -0.12)">
     <defs>
      <path id="DejaVuSans-4f" d="M 2522 4238 
Q 1834 4238 1429 3725 
Q 1025 3213 1025 2328 
Q 1025 1447 1429 934 
Q 1834 422 2522 422 
Q 3209 422 3611 934 
Q 4013 1447 4013 2328 
Q 4013 3213 3611 3725 
Q 3209 4238 2522 4238 
z
M 2522 4750 
Q 3503 4750 4090 4092 
Q 4678 3434 4678 2328 
Q 4678 1225 4090 567 
Q 3503 -91 2522 -91 
Q 1538 -91 948 565 
Q 359 1222 359 2328 
Q 359 3434 948 4092 
Q 1538 4750 2522 4750 
z
" transform="scale(0.015625)"/>
      <path id="DejaVuSans-46" d="M 628 4666 
L 3309 4666 
L 3309 4134 
L 1259 4134 
L 1259 2759 
L 3109 2759 
L 3109 2228 
L 1259 2228 
L 1259 0 
L 628 0 
L 628 4666 
z
" transform="scale(0.015625)"/>
      <path id="DejaVuSans-6c" d="M 603 4863 
L 1178 4863 
L 1178 0 
L 603 0 
L 603 4863 
z
" transform="scale(0.015625)"/>
      <path id="DejaVuSans-64" d="M 2906 2969 
L 2906 4863 
L 3481 4863 
L 3481 0 
L 2906 0 
L 2906 525 
Q 2725 213 2448 61 
Q 2172 -91 1784 -91 
Q 1150 -91 751 415 
Q 353 922 353 1747 
Q 353 2572 751 3078 
Q 1150 3584 1784 3584 
Q 2172 3584 2448 3432 
Q 2725 3281 2906 2969 
z
M 947 1747 
Q 947 1113 1208 752 
Q 1469 391 1925 391 
Q 2381 391 2643 752 
Q 2906 1113 2906 1747 
Q 2906 2381 2643 2742 
Q 2381 3103 1925 3103 
Q 1469 3103 1208 2742 
Q 947 2381 947 1747 
z
" transform="scale(0.015625)"/>
     </defs>
     <use xlink:href="#DejaVuSans-4f"/>
     <use xlink:href="#DejaVuSans-70" x="78.710938"/>
     <use xlink:href="#DejaVuSans-65" x="142.1875"/>
     <use xlink:href="#DejaVuSans-6e" x="203.710938"/>
     <use xlink:href="#DejaVuSans-20" x="267.089844"/>
     <use xlink:href="#DejaVuSans-46" x="298.876953"/>
     <use xlink:href="#DejaVuSans-69" x="349.146484"/>
     <use xlink:href="#DejaVuSans-65" x="376.929688"/>
     <use xlink:href="#DejaVuSans-6c" x="438.453125"/>
     <use xlink:href="#DejaVuSans-64" x="466.236328"/>
    </g>
   </g>
  </g>
  <g id="axes_3">
   <g id="patch_8">
    <path d="M 40.603125 299.518125 
L 319.603125 299.518125 
L 319.603125 236.518125 
L 40.603125 236.518125 
z
" style="fill: #ffffff"/>
   </g>
   <g id="matplotlib.axis_5">
    <g id="xtick_12">
     <g id="line2d_27">
      <g>
       <use xlink:href="#m713e7f7b26" x="40.603125" y="299.518125" style="stroke: #000000; stroke-width: 0.8"/>
      </g>
     </g>
     <g id="text_20">
      <!-- 1 -->
      <g transform="translate(37.421875 314.116562) scale(0.1 -0.1)">
       <use xlink:href="#DejaVuSans-31"/>
      </g>
     </g>
    </g>
    <g id="xtick_13">
     <g id="line2d_28">
      <g>
       <use xlink:href="#m713e7f7b26" x="94.14858" y="299.518125" style="stroke: #000000; stroke-width: 0.8"/>
      </g>
     </g>
     <g id="text_21">
      <!-- 20 -->
      <g transform="translate(87.78608 314.116562) scale(0.1 -0.1)">
       <use xlink:href="#DejaVuSans-32"/>
       <use xlink:href="#DejaVuSans-30" x="63.623047"/>
      </g>
     </g>
    </g>
    <g id="xtick_14">
     <g id="line2d_29">
      <g>
       <use xlink:href="#m713e7f7b26" x="150.512216" y="299.518125" style="stroke: #000000; stroke-width: 0.8"/>
      </g>
     </g>
     <g id="text_22">
      <!-- 40 -->
      <g transform="translate(144.149716 314.116562) scale(0.1 -0.1)">
       <use xlink:href="#DejaVuSans-34"/>
       <use xlink:href="#DejaVuSans-30" x="63.623047"/>
      </g>
     </g>
    </g>
    <g id="xtick_15">
     <g id="line2d_30">
      <g>
       <use xlink:href="#m713e7f7b26" x="206.875852" y="299.518125" style="stroke: #000000; stroke-width: 0.8"/>
      </g>
     </g>
     <g id="text_23">
      <!-- 60 -->
      <g transform="translate(200.513352 314.116562) scale(0.1 -0.1)">
       <use xlink:href="#DejaVuSans-36"/>
       <use xlink:href="#DejaVuSans-30" x="63.623047"/>
      </g>
     </g>
    </g>
    <g id="xtick_16">
     <g id="line2d_31">
      <g>
       <use xlink:href="#m713e7f7b26" x="263.239489" y="299.518125" style="stroke: #000000; stroke-width: 0.8"/>
      </g>
     </g>
     <g id="text_24">
      <!-- 80 -->
      <g transform="translate(256.876989 314.116562) scale(0.1 -0.1)">
       <use xlink:href="#DejaVuSans-38"/>
       <use xlink:href="#DejaVuSans-30" x="63.623047"/>
      </g>
     </g>
    </g>
    <g id="xtick_17">
     <g id="line2d_32">
      <g>
       <use xlink:href="#m713e7f7b26" x="319.603125" y="299.518125" style="stroke: #000000; stroke-width: 0.8"/>
      </g>
     </g>
     <g id="text_25">
      <!-- 100 -->
      <g transform="translate(310.059375 314.116562) scale(0.1 -0.1)">
       <use xlink:href="#DejaVuSans-31"/>
       <use xlink:href="#DejaVuSans-30" x="63.623047"/>
       <use xlink:href="#DejaVuSans-30" x="127.246094"/>
      </g>
     </g>
    </g>
    <g id="text_26">
     <!-- Trial -->
     <g transform="translate(169.889062 327.794687) scale(0.1 -0.1)">
      <use xlink:href="#DejaVuSans-54"/>
      <use xlink:href="#DejaVuSans-72" x="46.333984"/>
      <use xlink:href="#DejaVuSans-69" x="87.447266"/>
      <use xlink:href="#DejaVuSans-61" x="115.230469"/>
      <use xlink:href="#DejaVuSans-6c" x="176.509766"/>
     </g>
    </g>
   </g>
   <g id="matplotlib.axis_6">
    <g id="ytick_6">
     <g id="line2d_33">
      <g>
       <use xlink:href="#m8daf4fc180" x="40.603125" y="299.518125" style="stroke: #000000; stroke-width: 0.8"/>
      </g>
     </g>
     <g id="text_27">
      <!-- 0 -->
      <g transform="translate(27.240625 303.317344) scale(0.1 -0.1)">
       <use xlink:href="#DejaVuSans-30"/>
      </g>
     </g>
    </g>
    <g id="ytick_7">
     <g id="line2d_34">
      <g>
       <use xlink:href="#m8daf4fc180" x="40.603125" y="257.990433" style="stroke: #000000; stroke-width: 0.8"/>
      </g>
     </g>
     <g id="text_28">
      <!-- 200 -->
      <g transform="translate(14.515625 261.789652) scale(0.1 -0.1)">
       <use xlink:href="#DejaVuSans-32"/>
       <use xlink:href="#DejaVuSans-30" x="63.623047"/>
       <use xlink:href="#DejaVuSans-30" x="127.246094"/>
      </g>
     </g>
    </g>
   </g>
   <g id="line2d_35">
    <path d="M 40.603125 241.763718 
L 43.421307 241.428728 
L 46.239489 241.831547 
L 49.05767 242.572124 
L 51.875852 242.348336 
L 54.694034 243.087068 
L 57.512216 243.349153 
L 60.330398 244.241999 
L 63.14858 245.288497 
L 65.966761 245.621641 
L 68.784943 246.311924 
L 71.603125 247.763086 
L 74.421307 248.351395 
L 77.239489 249.876384 
L 80.05767 250.961179 
L 82.875852 250.991172 
L 85.694034 252.939743 
L 88.512216 254.326768 
L 91.330398 256.334863 
L 94.14858 257.607917 
L 96.966761 258.565823 
L 99.784943 260.009141 
L 102.603125 262.242407 
L 105.421307 263.013438 
L 108.239489 264.215896 
L 111.05767 266.995483 
L 113.875852 267.756824 
L 116.694034 268.760409 
L 119.512216 271.123796 
L 122.330398 272.080779 
L 125.14858 273.392593 
L 127.966761 274.037656 
L 130.784943 275.348547 
L 133.603125 276.63406 
L 136.421307 277.487685 
L 139.239489 280.434766 
L 142.05767 280.173142 
L 144.875852 281.574471 
L 147.694034 283.176978 
L 150.512216 283.49305 
L 153.330398 284.541855 
L 156.14858 285.702785 
L 158.966761 286.222804 
L 161.784943 286.819418 
L 164.603125 287.383733 
L 167.421307 287.853458 
L 170.239489 289.103903 
L 173.05767 289.759117 
L 175.875852 289.684829 
L 178.694034 290.62843 
L 181.512216 290.346042 
L 184.330398 291.004487 
L 187.14858 291.786592 
L 189.966761 292.061136 
L 192.784943 292.233245 
L 195.603125 292.471337 
L 198.421307 292.505021 
L 201.239489 292.676668 
L 204.05767 292.561314 
L 206.875852 293.276513 
L 209.694034 293.267746 
L 212.512216 293.43478 
L 215.330398 293.608734 
L 218.14858 293.8316 
L 220.966761 293.781767 
L 223.784943 293.832061 
L 226.603125 294.210886 
L 229.421307 294.167051 
L 232.239489 294.128292 
L 235.05767 294.16659 
L 237.875852 294.130599 
L 240.694034 294.161976 
L 243.512216 294.329009 
L 246.330398 294.388994 
L 249.14858 294.479432 
L 251.966761 294.496504 
L 254.784943 294.593402 
L 257.603125 294.669536 
L 260.421307 294.690762 
L 263.239489 294.632623 
L 266.05767 294.68707 
L 268.875852 294.597094 
L 271.694034 294.665384 
L 274.512216 294.747977 
L 277.330398 294.699529 
L 280.14858 294.637237 
L 282.966761 294.758129 
L 285.784943 294.76828 
L 288.603125 294.693991 
L 291.421307 294.777508 
L 294.239489 294.706911 
L 297.05767 294.757667 
L 299.875852 294.759513 
L 302.694034 294.749362 
L 305.512216 294.770587 
L 308.330398 294.795965 
L 311.14858 294.76505 
L 313.966761 294.802886 
L 316.784943 294.76828 
L 319.603125 294.76505 
" clip-path="url(#pef6a8f668a)" style="fill: none; stroke: #008000; stroke-width: 1.5; stroke-linecap: square"/>
   </g>
   <g id="line2d_36">
    <path d="M 40.603125 240.490664 
L 43.421307 242.08948 
L 46.239489 241.620217 
L 49.05767 240.797969 
L 51.875852 242.176688 
L 54.694034 243.696602 
L 57.512216 243.696602 
L 60.330398 243.418366 
L 63.14858 242.571201 
L 65.966761 242.978173 
L 68.784943 241.8943 
L 71.603125 242.866048 
L 74.421307 243.310394 
L 77.239489 245.947403 
L 80.05767 248.015482 
L 82.875852 247.575288 
L 85.694034 247.180775 
L 88.512216 246.890081 
L 91.330398 249.344368 
L 94.14858 249.012146 
L 96.966761 250.523754 
L 99.784943 253.630026 
L 102.603125 253.559429 
L 105.421307 257.496254 
L 108.239489 258.808529 
L 111.05767 256.159062 
L 113.875852 260.411498 
L 116.694034 265.527709 
L 119.512216 263.949657 
L 122.330398 265.477876 
L 125.14858 268.472023 
L 127.966761 269.485298 
L 130.784943 273.069138 
L 133.603125 276.005146 
L 136.421307 275.735216 
L 139.239489 278.50096 
L 142.05767 280.311568 
L 144.875852 280.170373 
L 147.694034 281.104746 
L 150.512216 283.052395 
L 153.330398 284.676128 
L 156.14858 286.55318 
L 158.966761 287.151178 
L 161.784943 288.052329 
L 164.603125 289.165271 
L 167.421307 289.044841 
L 170.239489 290.166089 
L 173.05767 290.971726 
L 175.875852 291.632016 
L 178.694034 291.249962 
L 181.512216 291.524044 
L 184.330398 291.453447 
L 187.14858 293.035652 
L 189.966761 293.438471 
L 192.784943 293.646109 
L 195.603125 293.517374 
L 198.421307 294.102914 
L 201.239489 293.363721 
L 204.05767 294.796426 
L 206.875852 294.50158 
L 209.694034 294.991607 
L 212.512216 294.941773 
L 215.330398 294.96669 
L 218.14858 294.979148 
L 220.966761 294.808885 
L 223.784943 294.987454 
L 226.603125 295.004065 
L 229.421307 295.028982 
L 232.239489 295.058051 
L 235.05767 294.987454 
L 237.875852 295.033134 
L 240.694034 295.095426 
L 243.512216 295.053898 
L 246.330398 295.045593 
L 249.14858 294.987454 
L 251.966761 295.070509 
L 254.784943 294.995759 
L 257.603125 295.174328 
L 260.421307 295.053898 
L 263.239489 295.062204 
L 266.05767 295.16187 
L 268.875852 295.082968 
L 271.694034 295.124495 
L 274.512216 295.08712 
L 277.330398 294.974996 
L 280.14858 295.04144 
L 282.966761 295.153565 
L 285.784943 295.112037 
L 288.603125 295.033134 
L 291.421307 294.999912 
L 294.239489 295.062204 
L 297.05767 294.991607 
L 299.875852 295.020676 
L 302.694034 295.024829 
L 305.512216 295.053898 
L 308.330398 295.04144 
L 311.14858 295.045593 
L 313.966761 295.037287 
L 316.784943 295.103731 
L 319.603125 295.095426 
" clip-path="url(#pef6a8f668a)" style="fill: none; stroke: #0000ff; stroke-width: 1.5; stroke-linecap: square"/>
   </g>
   <g id="line2d_37">
    <path d="M 40.603125 240.636011 
L 43.421307 239.485694 
L 46.239489 239.842832 
L 49.05767 242.753923 
L 51.875852 240.382692 
L 54.694034 242.774687 
L 57.512216 241.8943 
L 60.330398 241.499787 
L 63.14858 241.919217 
L 65.966761 242.106091 
L 68.784943 241.711578 
L 71.603125 241.665898 
L 74.421307 242.064564 
L 77.239489 241.952439 
L 80.05767 242.263896 
L 82.875852 243.875171 
L 85.694034 241.030524 
L 88.512216 243.646769 
L 91.330398 243.052923 
L 94.14858 244.36935 
L 96.966761 243.297936 
L 99.784943 242.733159 
L 102.603125 242.782993 
L 105.421307 243.630157 
L 108.239489 241.582842 
L 111.05767 244.410878 
L 113.875852 243.335311 
L 116.694034 245.781292 
L 119.512216 244.273837 
L 122.330398 245.091932 
L 125.14858 246.599387 
L 127.966761 248.655008 
L 130.784943 245.237279 
L 133.603125 244.589447 
L 136.421307 247.604358 
L 139.239489 248.119301 
L 142.05767 247.130942 
L 144.875852 247.425789 
L 147.694034 251.030392 
L 150.512216 246.416666 
L 153.330398 252.305292 
L 156.14858 247.949037 
L 158.966761 247.355191 
L 161.784943 251.715599 
L 164.603125 254.319385 
L 167.421307 250.573588 
L 170.239489 253.758761 
L 173.05767 254.884162 
L 175.875852 251.997987 
L 178.694034 257.201407 
L 181.512216 256.615867 
L 184.330398 260.627442 
L 187.14858 262.238716 
L 189.966761 259.198889 
L 192.784943 261.304343 
L 195.603125 266.545138 
L 198.421307 263.335047 
L 201.239489 265.021071 
L 204.05767 265.34914 
L 206.875852 268.854077 
L 209.694034 269.261049 
L 212.512216 272.400542 
L 215.330398 273.505179 
L 218.14858 272.429612 
L 220.966761 276.777561 
L 223.784943 277.504296 
L 226.603125 274.227761 
L 229.421307 275.87641 
L 232.239489 280.963552 
L 235.05767 280.394623 
L 237.875852 280.112235 
L 240.694034 285.091405 
L 243.512216 283.696074 
L 246.330398 283.841421 
L 249.14858 283.787435 
L 251.966761 286.158667 
L 254.784943 285.344724 
L 257.603125 287.500011 
L 260.421307 286.532416 
L 263.239489 288.326412 
L 266.05767 288.326412 
L 268.875852 289.277396 
L 271.694034 288.318107 
L 274.512216 288.795675 
L 277.330398 289.617923 
L 280.14858 291.528197 
L 282.966761 292.109585 
L 285.784943 292.736653 
L 288.603125 292.259084 
L 291.421307 292.246626 
L 294.239489 292.562237 
L 297.05767 292.828014 
L 299.875852 294.040622 
L 302.694034 293.413554 
L 305.512216 293.567207 
L 308.330398 294.123678 
L 311.14858 293.081333 
L 313.966761 293.442624 
L 316.784943 293.293124 
L 319.603125 294.077997 
" clip-path="url(#pef6a8f668a)" style="fill: none; stroke: #000000; stroke-width: 1.5; stroke-linecap: square"/>
   </g>
   <g id="line2d_38">
    <path d="M 40.603125 239.311278 
L 43.421307 244.934127 
L 46.239489 254.713898 
L 49.05767 261.661481 
L 51.875852 264.846655 
L 54.694034 268.019371 
L 57.512216 271.673808 
L 60.330398 276.063285 
L 63.14858 277.786684 
L 65.966761 279.954429 
L 68.784943 283.949393 
L 71.603125 285.303196 
L 74.421307 284.451878 
L 77.239489 286.075611 
L 80.05767 288.446842 
L 82.875852 288.305648 
L 85.694034 288.376245 
L 88.512216 288.725078 
L 91.330398 289.804798 
L 94.14858 290.685185 
L 96.966761 290.186853 
L 99.784943 292.279848 
L 102.603125 291.258267 
L 105.421307 290.406949 
L 108.239489 290.548144 
L 111.05767 288.289037 
L 113.875852 290.128714 
L 116.694034 291.598794 
L 119.512216 290.926046 
L 122.330398 291.881182 
L 125.14858 292.715889 
L 127.966761 290.523227 
L 130.784943 291.536503 
L 133.603125 291.320559 
L 136.421307 290.531533 
L 139.239489 290.822226 
L 142.05767 291.3081 
L 144.875852 291.499128 
L 147.694034 292.445959 
L 150.512216 293.118708 
L 153.330398 292.524862 
L 156.14858 292.666056 
L 158.966761 294.522344 
L 161.784943 293.546443 
L 164.603125 292.95675 
L 167.421307 293.816373 
L 170.239489 293.459235 
L 173.05767 292.994125 
L 175.875852 293.247444 
L 178.694034 293.96172 
L 181.512216 292.744958 
L 184.330398 293.733318 
L 187.14858 293.326346 
L 189.966761 294.497427 
L 192.784943 294.518191 
L 195.603125 294.65108 
L 198.421307 293.799762 
L 201.239489 294.061386 
L 204.05767 292.591306 
L 206.875852 293.862053 
L 209.694034 294.684302 
L 212.512216 294.239955 
L 215.330398 294.11122 
L 218.14858 294.746593 
L 220.966761 294.837954 
L 223.784943 293.712554 
L 226.603125 294.439288 
L 229.421307 294.646927 
L 232.239489 294.360386 
L 235.05767 294.23165 
L 237.875852 294.563871 
L 240.694034 294.804732 
L 243.512216 294.568024 
L 246.330398 293.945109 
L 249.14858 294.227497 
L 251.966761 294.019859 
L 254.784943 294.293941 
L 257.603125 293.413554 
L 260.421307 292.960902 
L 263.239489 293.853748 
L 266.05767 294.729982 
L 268.875852 294.605399 
L 271.694034 294.833801 
L 274.512216 294.335469 
L 277.330398 294.933468 
L 280.14858 294.904398 
L 282.966761 294.933468 
L 285.784943 294.804732 
L 288.603125 294.430983 
L 291.421307 294.094608 
L 294.239489 294.879482 
L 297.05767 294.788121 
L 299.875852 294.331316 
L 302.694034 293.754081 
L 305.512216 293.650262 
L 308.330398 293.783151 
L 311.14858 294.883635 
L 313.966761 294.69676 
L 316.784943 294.360386 
L 319.603125 294.900246 
" clip-path="url(#pef6a8f668a)" style="fill: none; stroke: #ff0000; stroke-width: 1.5; stroke-linecap: square"/>
   </g>
   <g id="line2d_39">
    <path d="M 40.603125 295.780633 
L 319.603125 295.780633 
" clip-path="url(#pef6a8f668a)" style="fill: none; stroke-dasharray: 5.55,2.4; stroke-dashoffset: 0; stroke: #808080; stroke-width: 1.5"/>
   </g>
   <g id="patch_9">
    <path d="M 40.603125 299.518125 
L 40.603125 236.518125 
" style="fill: none; stroke: #000000; stroke-width: 0.8; stroke-linejoin: miter; stroke-linecap: square"/>
   </g>
   <g id="patch_10">
    <path d="M 40.603125 299.518125 
L 319.603125 299.518125 
" style="fill: none; stroke: #000000; stroke-width: 0.8; stroke-linejoin: miter; stroke-linecap: square"/>
   </g>
   <g id="text_29">
    <!-- Labyrinth -->
    <g transform="translate(151.632188 230.518125) scale(0.12 -0.12)">
     <defs>
      <path id="DejaVuSans-62" d="M 3116 1747 
Q 3116 2381 2855 2742 
Q 2594 3103 2138 3103 
Q 1681 3103 1420 2742 
Q 1159 2381 1159 1747 
Q 1159 1113 1420 752 
Q 1681 391 2138 391 
Q 2594 391 2855 752 
Q 3116 1113 3116 1747 
z
M 1159 2969 
Q 1341 3281 1617 3432 
Q 1894 3584 2278 3584 
Q 2916 3584 3314 3078 
Q 3713 2572 3713 1747 
Q 3713 922 3314 415 
Q 2916 -91 2278 -91 
Q 1894 -91 1617 61 
Q 1341 213 1159 525 
L 1159 0 
L 581 0 
L 581 4863 
L 1159 4863 
L 1159 2969 
z
" transform="scale(0.015625)"/>
      <path id="DejaVuSans-68" d="M 3513 2113 
L 3513 0 
L 2938 0 
L 2938 2094 
Q 2938 2591 2744 2837 
Q 2550 3084 2163 3084 
Q 1697 3084 1428 2787 
Q 1159 2491 1159 1978 
L 1159 0 
L 581 0 
L 581 4863 
L 1159 4863 
L 1159 2956 
Q 1366 3272 1645 3428 
Q 1925 3584 2291 3584 
Q 2894 3584 3203 3211 
Q 3513 2838 3513 2113 
z
" transform="scale(0.015625)"/>
     </defs>
     <use xlink:href="#DejaVuSans-4c"/>
     <use xlink:href="#DejaVuSans-61" x="55.712891"/>
     <use xlink:href="#DejaVuSans-62" x="116.992188"/>
     <use xlink:href="#DejaVuSans-79" x="180.46875"/>
     <use xlink:href="#DejaVuSans-72" x="239.648438"/>
     <use xlink:href="#DejaVuSans-69" x="280.761719"/>
     <use xlink:href="#DejaVuSans-6e" x="308.544922"/>
     <use xlink:href="#DejaVuSans-74" x="371.923828"/>
     <use xlink:href="#DejaVuSans-68" x="411.132812"/>
    </g>
   </g>
   <g id="legend_1">
    <g id="patch_11">
     <path d="M 68.527344 371.524375 
L 291.678906 371.524375 
Q 293.678906 371.524375 293.678906 369.524375 
L 293.678906 341.168125 
Q 293.678906 339.168125 291.678906 339.168125 
L 68.527344 339.168125 
Q 66.527344 339.168125 66.527344 341.168125 
L 66.527344 369.524375 
Q 66.527344 371.524375 68.527344 371.524375 
z
" style="fill: #ffffff; opacity: 0.8; stroke: #cccccc; stroke-linejoin: miter"/>
    </g>
    <g id="line2d_40">
     <path d="M 70.527344 347.266562 
L 80.527344 347.266562 
L 90.527344 347.266562 
" style="fill: none; stroke: #008000; stroke-width: 1.5; stroke-linecap: square"/>
    </g>
    <g id="text_30">
     <!-- SFMA -->
     <g transform="translate(98.527344 350.766562) scale(0.1 -0.1)">
      <defs>
       <path id="DejaVuSans-53" d="M 3425 4513 
L 3425 3897 
Q 3066 4069 2747 4153 
Q 2428 4238 2131 4238 
Q 1616 4238 1336 4038 
Q 1056 3838 1056 3469 
Q 1056 3159 1242 3001 
Q 1428 2844 1947 2747 
L 2328 2669 
Q 3034 2534 3370 2195 
Q 3706 1856 3706 1288 
Q 3706 609 3251 259 
Q 2797 -91 1919 -91 
Q 1588 -91 1214 -16 
Q 841 59 441 206 
L 441 856 
Q 825 641 1194 531 
Q 1563 422 1919 422 
Q 2459 422 2753 634 
Q 3047 847 3047 1241 
Q 3047 1584 2836 1778 
Q 2625 1972 2144 2069 
L 1759 2144 
Q 1053 2284 737 2584 
Q 422 2884 422 3419 
Q 422 4038 858 4394 
Q 1294 4750 2059 4750 
Q 2388 4750 2728 4690 
Q 3069 4631 3425 4513 
z
" transform="scale(0.015625)"/>
       <path id="DejaVuSans-4d" d="M 628 4666 
L 1569 4666 
L 2759 1491 
L 3956 4666 
L 4897 4666 
L 4897 0 
L 4281 0 
L 4281 4097 
L 3078 897 
L 2444 897 
L 1241 4097 
L 1241 0 
L 628 0 
L 628 4666 
z
" transform="scale(0.015625)"/>
       <path id="DejaVuSans-41" d="M 2188 4044 
L 1331 1722 
L 3047 1722 
L 2188 4044 
z
M 1831 4666 
L 2547 4666 
L 4325 0 
L 3669 0 
L 3244 1197 
L 1141 1197 
L 716 0 
L 50 0 
L 1831 4666 
z
" transform="scale(0.015625)"/>
      </defs>
      <use xlink:href="#DejaVuSans-53"/>
      <use xlink:href="#DejaVuSans-46" x="63.476562"/>
      <use xlink:href="#DejaVuSans-4d" x="120.996094"/>
      <use xlink:href="#DejaVuSans-41" x="207.275391"/>
     </g>
    </g>
    <g id="line2d_41">
     <path d="M 70.527344 361.944687 
L 80.527344 361.944687 
L 90.527344 361.944687 
" style="fill: none; stroke: #0000ff; stroke-width: 1.5; stroke-linecap: square"/>
    </g>
    <g id="text_31">
     <!-- Random -->
     <g transform="translate(98.527344 365.444687) scale(0.1 -0.1)">
      <defs>
       <path id="DejaVuSans-52" d="M 2841 2188 
Q 3044 2119 3236 1894 
Q 3428 1669 3622 1275 
L 4263 0 
L 3584 0 
L 2988 1197 
Q 2756 1666 2539 1819 
Q 2322 1972 1947 1972 
L 1259 1972 
L 1259 0 
L 628 0 
L 628 4666 
L 2053 4666 
Q 2853 4666 3247 4331 
Q 3641 3997 3641 3322 
Q 3641 2881 3436 2590 
Q 3231 2300 2841 2188 
z
M 1259 4147 
L 1259 2491 
L 2053 2491 
Q 2509 2491 2742 2702 
Q 2975 2913 2975 3322 
Q 2975 3731 2742 3939 
Q 2509 4147 2053 4147 
L 1259 4147 
z
" transform="scale(0.015625)"/>
       <path id="DejaVuSans-6f" d="M 1959 3097 
Q 1497 3097 1228 2736 
Q 959 2375 959 1747 
Q 959 1119 1226 758 
Q 1494 397 1959 397 
Q 2419 397 2687 759 
Q 2956 1122 2956 1747 
Q 2956 2369 2687 2733 
Q 2419 3097 1959 3097 
z
M 1959 3584 
Q 2709 3584 3137 3096 
Q 3566 2609 3566 1747 
Q 3566 888 3137 398 
Q 2709 -91 1959 -91 
Q 1206 -91 779 398 
Q 353 888 353 1747 
Q 353 2609 779 3096 
Q 1206 3584 1959 3584 
z
" transform="scale(0.015625)"/>
       <path id="DejaVuSans-6d" d="M 3328 2828 
Q 3544 3216 3844 3400 
Q 4144 3584 4550 3584 
Q 5097 3584 5394 3201 
Q 5691 2819 5691 2113 
L 5691 0 
L 5113 0 
L 5113 2094 
Q 5113 2597 4934 2840 
Q 4756 3084 4391 3084 
Q 3944 3084 3684 2787 
Q 3425 2491 3425 1978 
L 3425 0 
L 2847 0 
L 2847 2094 
Q 2847 2600 2669 2842 
Q 2491 3084 2119 3084 
Q 1678 3084 1418 2786 
Q 1159 2488 1159 1978 
L 1159 0 
L 581 0 
L 581 3500 
L 1159 3500 
L 1159 2956 
Q 1356 3278 1631 3431 
Q 1906 3584 2284 3584 
Q 2666 3584 2933 3390 
Q 3200 3197 3328 2828 
z
" transform="scale(0.015625)"/>
      </defs>
      <use xlink:href="#DejaVuSans-52"/>
      <use xlink:href="#DejaVuSans-61" x="67.232422"/>
      <use xlink:href="#DejaVuSans-6e" x="128.511719"/>
      <use xlink:href="#DejaVuSans-64" x="191.890625"/>
      <use xlink:href="#DejaVuSans-6f" x="255.367188"/>
      <use xlink:href="#DejaVuSans-6d" x="316.548828"/>
     </g>
    </g>
    <g id="line2d_42">
     <path d="M 159.924219 347.266562 
L 169.924219 347.266562 
L 179.924219 347.266562 
" style="fill: none; stroke: #000000; stroke-width: 1.5; stroke-linecap: square"/>
    </g>
    <g id="text_32">
     <!-- Online -->
     <g transform="translate(187.924219 350.766562) scale(0.1 -0.1)">
      <use xlink:href="#DejaVuSans-4f"/>
      <use xlink:href="#DejaVuSans-6e" x="78.710938"/>
      <use xlink:href="#DejaVuSans-6c" x="142.089844"/>
      <use xlink:href="#DejaVuSans-69" x="169.873047"/>
      <use xlink:href="#DejaVuSans-6e" x="197.65625"/>
      <use xlink:href="#DejaVuSans-65" x="261.035156"/>
     </g>
    </g>
    <g id="line2d_43">
     <path d="M 240.180469 347.266562 
L 250.180469 347.266562 
L 260.180469 347.266562 
" style="fill: none; stroke: #ff0000; stroke-width: 1.5; stroke-linecap: square"/>
    </g>
    <g id="text_33">
     <!-- PMA -->
     <g transform="translate(268.180469 350.766562) scale(0.1 -0.1)">
      <defs>
       <path id="DejaVuSans-50" d="M 1259 4147 
L 1259 2394 
L 2053 2394 
Q 2494 2394 2734 2622 
Q 2975 2850 2975 3272 
Q 2975 3691 2734 3919 
Q 2494 4147 2053 4147 
L 1259 4147 
z
M 628 4666 
L 2053 4666 
Q 2838 4666 3239 4311 
Q 3641 3956 3641 3272 
Q 3641 2581 3239 2228 
Q 2838 1875 2053 1875 
L 1259 1875 
L 1259 0 
L 628 0 
L 628 4666 
z
" transform="scale(0.015625)"/>
      </defs>
      <use xlink:href="#DejaVuSans-50"/>
      <use xlink:href="#DejaVuSans-4d" x="60.302734"/>
      <use xlink:href="#DejaVuSans-41" x="146.582031"/>
     </g>
    </g>
   </g>
  </g>
 </g>
 <defs>
  <clipPath id="p6c14cba107">
   <rect x="40.603125" y="22.318125" width="279" height="63"/>
  </clipPath>
  <clipPath id="p58f2ac2e1b">
   <rect x="40.603125" y="129.418125" width="279" height="63"/>
  </clipPath>
  <clipPath id="pef6a8f668a">
   <rect x="40.603125" y="236.518125" width="279" height="63"/>
  </clipPath>
 </defs>
</svg>
