<?xml version="1.0" encoding="utf-8" standalone="no"?>
<!DOCTYPE svg PUBLIC "-//W3C//DTD SVG 1.1//EN"
  "http://www.w3.org/Graphics/SVG/1.1/DTD/svg11.dtd">
<svg height="372.649375pt" version="1.1" viewBox="0 0 336.346875 372.649375" width="336.346875pt" xmlns="http://www.w3.org/2000/svg" xmlns:xlink="http://www.w3.org/1999/xlink">
 <metadata>
  <rdf:RDF xmlns:cc="http://creativecommons.org/ns#" xmlns:dc="http://purl.org/dc/elements/1.1/" xmlns:rdf="http://www.w3.org/1999/02/22-rdf-syntax-ns#">
   <cc:Work>
    <dc:type rdf:resource="http://purl.org/dc/dcmitype/StillImage"/>
    <dc:date>2022-06-19T01:43:08.398452</dc:date>
    <dc:format>image/svg+xml</dc:format>
    <dc:creator>
     <cc:Agent>
      <dc:title>Matplotlib v3.4.3, https://matplotlib.org/</dc:title>
     </cc:Agent>
    </dc:creator>
   </cc:Work>
  </rdf:RDF>
 </metadata>
 <defs>
  <style type="text/css">*{stroke-linecap:butt;stroke-linejoin:round;}</style>
 </defs>
 <g id="figure_1">
  <g id="patch_1">
   <path d="M 0 372.649375 
L 336.346875 372.649375 
L 336.346875 0 
L 0 0 
z
" style="fill:#ffffff;"/>
  </g>
  <g id="axes_1">
   <g id="patch_2">
    <path d="M 40.603125 84.090852 
L 319.603125 84.090852 
L 319.603125 22.318125 
L 40.603125 22.318125 
z
" style="fill:#ffffff;"/>
   </g>
   <g id="matplotlib.axis_1">
    <g id="xtick_1">
     <g id="line2d_1">
      <defs>
       <path d="M 0 0 
L 0 3.5 
" id="mccab5b43bf" style="stroke:#000000;stroke-width:0.8;"/>
      </defs>
      <g>
       <use style="stroke:#000000;stroke-width:0.8;" x="40.603125" xlink:href="#mccab5b43bf" y="84.090852"/>
      </g>
     </g>
     <g id="text_1">
      <!-- 1 -->
      <g transform="translate(37.421875 98.68929)scale(0.1 -0.1)">
       <defs>
        <path d="M 794 531 
L 1825 531 
L 1825 4091 
L 703 3866 
L 703 4441 
L 1819 4666 
L 2450 4666 
L 2450 531 
L 3481 531 
L 3481 0 
L 794 0 
L 794 531 
z
" id="DejaVuSans-31" transform="scale(0.015625)"/>
       </defs>
       <use xlink:href="#DejaVuSans-31"/>
      </g>
     </g>
    </g>
    <g id="xtick_2">
     <g id="line2d_2">
      <g>
       <use style="stroke:#000000;stroke-width:0.8;" x="99.339967" xlink:href="#mccab5b43bf" y="84.090852"/>
      </g>
     </g>
     <g id="text_2">
      <!-- 5 -->
      <g transform="translate(96.158717 98.68929)scale(0.1 -0.1)">
       <defs>
        <path d="M 691 4666 
L 3169 4666 
L 3169 4134 
L 1269 4134 
L 1269 2991 
Q 1406 3038 1543 3061 
Q 1681 3084 1819 3084 
Q 2600 3084 3056 2656 
Q 3513 2228 3513 1497 
Q 3513 744 3044 326 
Q 2575 -91 1722 -91 
Q 1428 -91 1123 -41 
Q 819 9 494 109 
L 494 744 
Q 775 591 1075 516 
Q 1375 441 1709 441 
Q 2250 441 2565 725 
Q 2881 1009 2881 1497 
Q 2881 1984 2565 2268 
Q 2250 2553 1709 2553 
Q 1456 2553 1204 2497 
Q 953 2441 691 2322 
L 691 4666 
z
" id="DejaVuSans-35" transform="scale(0.015625)"/>
       </defs>
       <use xlink:href="#DejaVuSans-35"/>
      </g>
     </g>
    </g>
    <g id="xtick_3">
     <g id="line2d_3">
      <g>
       <use style="stroke:#000000;stroke-width:0.8;" x="172.76102" xlink:href="#mccab5b43bf" y="84.090852"/>
      </g>
     </g>
     <g id="text_3">
      <!-- 10 -->
      <g transform="translate(166.39852 98.68929)scale(0.1 -0.1)">
       <defs>
        <path d="M 2034 4250 
Q 1547 4250 1301 3770 
Q 1056 3291 1056 2328 
Q 1056 1369 1301 889 
Q 1547 409 2034 409 
Q 2525 409 2770 889 
Q 3016 1369 3016 2328 
Q 3016 3291 2770 3770 
Q 2525 4250 2034 4250 
z
M 2034 4750 
Q 2819 4750 3233 4129 
Q 3647 3509 3647 2328 
Q 3647 1150 3233 529 
Q 2819 -91 2034 -91 
Q 1250 -91 836 529 
Q 422 1150 422 2328 
Q 422 3509 836 4129 
Q 1250 4750 2034 4750 
z
" id="DejaVuSans-30" transform="scale(0.015625)"/>
       </defs>
       <use xlink:href="#DejaVuSans-31"/>
       <use x="63.623047" xlink:href="#DejaVuSans-30"/>
      </g>
     </g>
    </g>
    <g id="xtick_4">
     <g id="line2d_4">
      <g>
       <use style="stroke:#000000;stroke-width:0.8;" x="246.182072" xlink:href="#mccab5b43bf" y="84.090852"/>
      </g>
     </g>
     <g id="text_4">
      <!-- 15 -->
      <g transform="translate(239.819572 98.68929)scale(0.1 -0.1)">
       <use xlink:href="#DejaVuSans-31"/>
       <use x="63.623047" xlink:href="#DejaVuSans-35"/>
      </g>
     </g>
    </g>
    <g id="xtick_5">
     <g id="line2d_5">
      <g>
       <use style="stroke:#000000;stroke-width:0.8;" x="319.603125" xlink:href="#mccab5b43bf" y="84.090852"/>
      </g>
     </g>
     <g id="text_5">
      <!-- 20 -->
      <g transform="translate(313.240625 98.68929)scale(0.1 -0.1)">
       <defs>
        <path d="M 1228 531 
L 3431 531 
L 3431 0 
L 469 0 
L 469 531 
Q 828 903 1448 1529 
Q 2069 2156 2228 2338 
Q 2531 2678 2651 2914 
Q 2772 3150 2772 3378 
Q 2772 3750 2511 3984 
Q 2250 4219 1831 4219 
Q 1534 4219 1204 4116 
Q 875 4013 500 3803 
L 500 4441 
Q 881 4594 1212 4672 
Q 1544 4750 1819 4750 
Q 2544 4750 2975 4387 
Q 3406 4025 3406 3419 
Q 3406 3131 3298 2873 
Q 3191 2616 2906 2266 
Q 2828 2175 2409 1742 
Q 1991 1309 1228 531 
z
" id="DejaVuSans-32" transform="scale(0.015625)"/>
       </defs>
       <use xlink:href="#DejaVuSans-32"/>
       <use x="63.623047" xlink:href="#DejaVuSans-30"/>
      </g>
     </g>
    </g>
   </g>
   <g id="matplotlib.axis_2">
    <g id="ytick_1">
     <g id="line2d_6">
      <defs>
       <path d="M 0 0 
L -3.5 0 
" id="m241c10366e" style="stroke:#000000;stroke-width:0.8;"/>
      </defs>
      <g>
       <use style="stroke:#000000;stroke-width:0.8;" x="40.603125" xlink:href="#m241c10366e" y="84.090852"/>
      </g>
     </g>
     <g id="text_6">
      <!-- 0 -->
      <g transform="translate(27.240625 87.890071)scale(0.1 -0.1)">
       <use xlink:href="#DejaVuSans-30"/>
      </g>
     </g>
    </g>
    <g id="ytick_2">
     <g id="line2d_7">
      <g>
       <use style="stroke:#000000;stroke-width:0.8;" x="40.603125" xlink:href="#m241c10366e" y="60.564001"/>
      </g>
     </g>
     <g id="text_7">
      <!-- 25 -->
      <g transform="translate(20.878125 64.36322)scale(0.1 -0.1)">
       <use xlink:href="#DejaVuSans-32"/>
       <use x="63.623047" xlink:href="#DejaVuSans-35"/>
      </g>
     </g>
    </g>
    <g id="ytick_3">
     <g id="line2d_8">
      <g>
       <use style="stroke:#000000;stroke-width:0.8;" x="40.603125" xlink:href="#m241c10366e" y="37.03715"/>
      </g>
     </g>
     <g id="text_8">
      <!-- 50 -->
      <g transform="translate(20.878125 40.836369)scale(0.1 -0.1)">
       <use xlink:href="#DejaVuSans-35"/>
       <use x="63.623047" xlink:href="#DejaVuSans-30"/>
      </g>
     </g>
    </g>
   </g>
   <g id="line2d_9">
    <path clip-path="url(#pb9fc2a5727)" d="M 40.603125 24.874291 
L 55.287336 58.8983 
L 69.971546 69.756203 
L 84.655757 74.157293 
L 99.339967 75.121371 
L 114.024178 75.558448 
L 128.708388 75.717385 
L 143.392599 75.675559 
L 158.076809 75.77594 
L 172.76102 75.667194 
L 187.44523 75.778032 
L 202.129441 75.715293 
L 216.813651 75.706928 
L 231.497862 75.778032 
L 246.182072 75.765484 
L 260.866283 75.801036 
L 275.550493 75.690198 
L 290.234704 75.842861 
L 304.918914 75.66092 
L 319.603125 75.625368 
" style="fill:none;stroke:#008000;stroke-linecap:square;stroke-width:1.5;"/>
   </g>
   <g id="line2d_10">
    <path clip-path="url(#pb9fc2a5727)" d="M 40.603125 29.386218 
L 55.287336 33.34814 
L 69.971546 43.050613 
L 84.655757 54.07059 
L 99.339967 61.872094 
L 114.024178 69.231293 
L 128.708388 73.230858 
L 143.392599 75.207113 
L 158.076809 75.640007 
L 172.76102 75.658829 
L 187.44523 75.658829 
L 202.129441 75.828222 
L 216.813651 75.828222 
L 231.497862 75.997616 
L 246.182072 75.771758 
L 260.866283 75.790579 
L 275.550493 75.640007 
L 290.234704 75.696472 
L 304.918914 75.564721 
L 319.603125 75.696472 
" style="fill:none;stroke:#0000ff;stroke-linecap:square;stroke-width:1.5;"/>
   </g>
   <g id="line2d_11">
    <path clip-path="url(#pb9fc2a5727)" d="M 40.603125 28.736877 
L 55.287336 31.748314 
L 69.971546 36.698364 
L 84.655757 49.252291 
L 99.339967 53.985894 
L 114.024178 58.277191 
L 128.708388 67.471485 
L 143.392599 70.991102 
L 158.076809 73.964896 
L 172.76102 75.432971 
L 187.44523 75.696472 
L 202.129441 75.884687 
L 216.813651 75.640007 
L 231.497862 75.752936 
L 246.182072 75.696472 
L 260.866283 75.865865 
L 275.550493 75.5459 
L 290.234704 75.658829 
L 304.918914 75.715293 
L 319.603125 75.5459 
" style="fill:none;stroke:#000000;stroke-linecap:square;stroke-width:1.5;"/>
   </g>
   <g id="line2d_12">
    <path clip-path="url(#pb9fc2a5727)" d="M 40.603125 26.713568 
L 55.287336 58.926532 
L 69.971546 69.993563 
L 84.655757 75.338864 
L 99.339967 75.602364 
L 114.024178 75.734115 
L 128.708388 75.771758 
L 143.392599 75.527079 
L 158.076809 75.752936 
L 172.76102 75.752936 
L 187.44523 75.696472 
L 202.129441 75.92233 
L 216.813651 75.847044 
L 231.497862 75.847044 
L 246.182072 75.5459 
L 260.866283 75.809401 
L 275.550493 75.621186 
L 290.234704 75.752936 
L 304.918914 75.734115 
L 319.603125 75.564721 
" style="fill:none;stroke:#ff0000;stroke-linecap:square;stroke-width:1.5;"/>
   </g>
   <g id="line2d_13">
    <path clip-path="url(#pb9fc2a5727)" d="M 40.603125 75.621186 
L 319.603125 75.621186 
" style="fill:none;stroke:#808080;stroke-dasharray:5.55,2.4;stroke-dashoffset:0;stroke-width:1.5;"/>
   </g>
   <g id="patch_3">
    <path d="M 40.603125 84.090852 
L 40.603125 22.318125 
" style="fill:none;stroke:#000000;stroke-linecap:square;stroke-linejoin:miter;stroke-width:0.8;"/>
   </g>
   <g id="patch_4">
    <path d="M 40.603125 84.090852 
L 319.603125 84.090852 
" style="fill:none;stroke:#000000;stroke-linecap:square;stroke-linejoin:miter;stroke-width:0.8;"/>
   </g>
   <g id="text_9">
    <!-- Linear Track -->
    <g transform="translate(143.851875 16.318125)scale(0.12 -0.12)">
     <defs>
      <path d="M 628 4666 
L 1259 4666 
L 1259 531 
L 3531 531 
L 3531 0 
L 628 0 
L 628 4666 
z
" id="DejaVuSans-4c" transform="scale(0.015625)"/>
      <path d="M 603 3500 
L 1178 3500 
L 1178 0 
L 603 0 
L 603 3500 
z
M 603 4863 
L 1178 4863 
L 1178 4134 
L 603 4134 
L 603 4863 
z
" id="DejaVuSans-69" transform="scale(0.015625)"/>
      <path d="M 3513 2113 
L 3513 0 
L 2938 0 
L 2938 2094 
Q 2938 2591 2744 2837 
Q 2550 3084 2163 3084 
Q 1697 3084 1428 2787 
Q 1159 2491 1159 1978 
L 1159 0 
L 581 0 
L 581 3500 
L 1159 3500 
L 1159 2956 
Q 1366 3272 1645 3428 
Q 1925 3584 2291 3584 
Q 2894 3584 3203 3211 
Q 3513 2838 3513 2113 
z
" id="DejaVuSans-6e" transform="scale(0.015625)"/>
      <path d="M 3597 1894 
L 3597 1613 
L 953 1613 
Q 991 1019 1311 708 
Q 1631 397 2203 397 
Q 2534 397 2845 478 
Q 3156 559 3463 722 
L 3463 178 
Q 3153 47 2828 -22 
Q 2503 -91 2169 -91 
Q 1331 -91 842 396 
Q 353 884 353 1716 
Q 353 2575 817 3079 
Q 1281 3584 2069 3584 
Q 2775 3584 3186 3129 
Q 3597 2675 3597 1894 
z
M 3022 2063 
Q 3016 2534 2758 2815 
Q 2500 3097 2075 3097 
Q 1594 3097 1305 2825 
Q 1016 2553 972 2059 
L 3022 2063 
z
" id="DejaVuSans-65" transform="scale(0.015625)"/>
      <path d="M 2194 1759 
Q 1497 1759 1228 1600 
Q 959 1441 959 1056 
Q 959 750 1161 570 
Q 1363 391 1709 391 
Q 2188 391 2477 730 
Q 2766 1069 2766 1631 
L 2766 1759 
L 2194 1759 
z
M 3341 1997 
L 3341 0 
L 2766 0 
L 2766 531 
Q 2569 213 2275 61 
Q 1981 -91 1556 -91 
Q 1019 -91 701 211 
Q 384 513 384 1019 
Q 384 1609 779 1909 
Q 1175 2209 1959 2209 
L 2766 2209 
L 2766 2266 
Q 2766 2663 2505 2880 
Q 2244 3097 1772 3097 
Q 1472 3097 1187 3025 
Q 903 2953 641 2809 
L 641 3341 
Q 956 3463 1253 3523 
Q 1550 3584 1831 3584 
Q 2591 3584 2966 3190 
Q 3341 2797 3341 1997 
z
" id="DejaVuSans-61" transform="scale(0.015625)"/>
      <path d="M 2631 2963 
Q 2534 3019 2420 3045 
Q 2306 3072 2169 3072 
Q 1681 3072 1420 2755 
Q 1159 2438 1159 1844 
L 1159 0 
L 581 0 
L 581 3500 
L 1159 3500 
L 1159 2956 
Q 1341 3275 1631 3429 
Q 1922 3584 2338 3584 
Q 2397 3584 2469 3576 
Q 2541 3569 2628 3553 
L 2631 2963 
z
" id="DejaVuSans-72" transform="scale(0.015625)"/>
      <path id="DejaVuSans-20" transform="scale(0.015625)"/>
      <path d="M -19 4666 
L 3928 4666 
L 3928 4134 
L 2272 4134 
L 2272 0 
L 1638 0 
L 1638 4134 
L -19 4134 
L -19 4666 
z
" id="DejaVuSans-54" transform="scale(0.015625)"/>
      <path d="M 3122 3366 
L 3122 2828 
Q 2878 2963 2633 3030 
Q 2388 3097 2138 3097 
Q 1578 3097 1268 2742 
Q 959 2388 959 1747 
Q 959 1106 1268 751 
Q 1578 397 2138 397 
Q 2388 397 2633 464 
Q 2878 531 3122 666 
L 3122 134 
Q 2881 22 2623 -34 
Q 2366 -91 2075 -91 
Q 1284 -91 818 406 
Q 353 903 353 1747 
Q 353 2603 823 3093 
Q 1294 3584 2113 3584 
Q 2378 3584 2631 3529 
Q 2884 3475 3122 3366 
z
" id="DejaVuSans-63" transform="scale(0.015625)"/>
      <path d="M 581 4863 
L 1159 4863 
L 1159 1991 
L 2875 3500 
L 3609 3500 
L 1753 1863 
L 3688 0 
L 2938 0 
L 1159 1709 
L 1159 0 
L 581 0 
L 581 4863 
z
" id="DejaVuSans-6b" transform="scale(0.015625)"/>
     </defs>
     <use xlink:href="#DejaVuSans-4c"/>
     <use x="55.712891" xlink:href="#DejaVuSans-69"/>
     <use x="83.496094" xlink:href="#DejaVuSans-6e"/>
     <use x="146.875" xlink:href="#DejaVuSans-65"/>
     <use x="208.398438" xlink:href="#DejaVuSans-61"/>
     <use x="269.677734" xlink:href="#DejaVuSans-72"/>
     <use x="310.791016" xlink:href="#DejaVuSans-20"/>
     <use x="342.578125" xlink:href="#DejaVuSans-54"/>
     <use x="388.912109" xlink:href="#DejaVuSans-72"/>
     <use x="430.025391" xlink:href="#DejaVuSans-61"/>
     <use x="491.304688" xlink:href="#DejaVuSans-63"/>
     <use x="546.285156" xlink:href="#DejaVuSans-6b"/>
    </g>
   </g>
  </g>
  <g id="axes_2">
   <g id="patch_5">
    <path d="M 40.603125 189.104489 
L 319.603125 189.104489 
L 319.603125 127.331761 
L 40.603125 127.331761 
z
" style="fill:#ffffff;"/>
   </g>
   <g id="matplotlib.axis_3">
    <g id="xtick_6">
     <g id="line2d_14">
      <g>
       <use style="stroke:#000000;stroke-width:0.8;" x="40.603125" xlink:href="#mccab5b43bf" y="189.104489"/>
      </g>
     </g>
     <g id="text_10">
      <!-- 1 -->
      <g transform="translate(37.421875 203.702926)scale(0.1 -0.1)">
       <use xlink:href="#DejaVuSans-31"/>
      </g>
     </g>
    </g>
    <g id="xtick_7">
     <g id="line2d_15">
      <g>
       <use style="stroke:#000000;stroke-width:0.8;" x="94.14858" xlink:href="#mccab5b43bf" y="189.104489"/>
      </g>
     </g>
     <g id="text_11">
      <!-- 20 -->
      <g transform="translate(87.78608 203.702926)scale(0.1 -0.1)">
       <use xlink:href="#DejaVuSans-32"/>
       <use x="63.623047" xlink:href="#DejaVuSans-30"/>
      </g>
     </g>
    </g>
    <g id="xtick_8">
     <g id="line2d_16">
      <g>
       <use style="stroke:#000000;stroke-width:0.8;" x="150.512216" xlink:href="#mccab5b43bf" y="189.104489"/>
      </g>
     </g>
     <g id="text_12">
      <!-- 40 -->
      <g transform="translate(144.149716 203.702926)scale(0.1 -0.1)">
       <defs>
        <path d="M 2419 4116 
L 825 1625 
L 2419 1625 
L 2419 4116 
z
M 2253 4666 
L 3047 4666 
L 3047 1625 
L 3713 1625 
L 3713 1100 
L 3047 1100 
L 3047 0 
L 2419 0 
L 2419 1100 
L 313 1100 
L 313 1709 
L 2253 4666 
z
" id="DejaVuSans-34" transform="scale(0.015625)"/>
       </defs>
       <use xlink:href="#DejaVuSans-34"/>
       <use x="63.623047" xlink:href="#DejaVuSans-30"/>
      </g>
     </g>
    </g>
    <g id="xtick_9">
     <g id="line2d_17">
      <g>
       <use style="stroke:#000000;stroke-width:0.8;" x="206.875852" xlink:href="#mccab5b43bf" y="189.104489"/>
      </g>
     </g>
     <g id="text_13">
      <!-- 60 -->
      <g transform="translate(200.513352 203.702926)scale(0.1 -0.1)">
       <defs>
        <path d="M 2113 2584 
Q 1688 2584 1439 2293 
Q 1191 2003 1191 1497 
Q 1191 994 1439 701 
Q 1688 409 2113 409 
Q 2538 409 2786 701 
Q 3034 994 3034 1497 
Q 3034 2003 2786 2293 
Q 2538 2584 2113 2584 
z
M 3366 4563 
L 3366 3988 
Q 3128 4100 2886 4159 
Q 2644 4219 2406 4219 
Q 1781 4219 1451 3797 
Q 1122 3375 1075 2522 
Q 1259 2794 1537 2939 
Q 1816 3084 2150 3084 
Q 2853 3084 3261 2657 
Q 3669 2231 3669 1497 
Q 3669 778 3244 343 
Q 2819 -91 2113 -91 
Q 1303 -91 875 529 
Q 447 1150 447 2328 
Q 447 3434 972 4092 
Q 1497 4750 2381 4750 
Q 2619 4750 2861 4703 
Q 3103 4656 3366 4563 
z
" id="DejaVuSans-36" transform="scale(0.015625)"/>
       </defs>
       <use xlink:href="#DejaVuSans-36"/>
       <use x="63.623047" xlink:href="#DejaVuSans-30"/>
      </g>
     </g>
    </g>
    <g id="xtick_10">
     <g id="line2d_18">
      <g>
       <use style="stroke:#000000;stroke-width:0.8;" x="263.239489" xlink:href="#mccab5b43bf" y="189.104489"/>
      </g>
     </g>
     <g id="text_14">
      <!-- 80 -->
      <g transform="translate(256.876989 203.702926)scale(0.1 -0.1)">
       <defs>
        <path d="M 2034 2216 
Q 1584 2216 1326 1975 
Q 1069 1734 1069 1313 
Q 1069 891 1326 650 
Q 1584 409 2034 409 
Q 2484 409 2743 651 
Q 3003 894 3003 1313 
Q 3003 1734 2745 1975 
Q 2488 2216 2034 2216 
z
M 1403 2484 
Q 997 2584 770 2862 
Q 544 3141 544 3541 
Q 544 4100 942 4425 
Q 1341 4750 2034 4750 
Q 2731 4750 3128 4425 
Q 3525 4100 3525 3541 
Q 3525 3141 3298 2862 
Q 3072 2584 2669 2484 
Q 3125 2378 3379 2068 
Q 3634 1759 3634 1313 
Q 3634 634 3220 271 
Q 2806 -91 2034 -91 
Q 1263 -91 848 271 
Q 434 634 434 1313 
Q 434 1759 690 2068 
Q 947 2378 1403 2484 
z
M 1172 3481 
Q 1172 3119 1398 2916 
Q 1625 2713 2034 2713 
Q 2441 2713 2670 2916 
Q 2900 3119 2900 3481 
Q 2900 3844 2670 4047 
Q 2441 4250 2034 4250 
Q 1625 4250 1398 4047 
Q 1172 3844 1172 3481 
z
" id="DejaVuSans-38" transform="scale(0.015625)"/>
       </defs>
       <use xlink:href="#DejaVuSans-38"/>
       <use x="63.623047" xlink:href="#DejaVuSans-30"/>
      </g>
     </g>
    </g>
    <g id="xtick_11">
     <g id="line2d_19">
      <g>
       <use style="stroke:#000000;stroke-width:0.8;" x="319.603125" xlink:href="#mccab5b43bf" y="189.104489"/>
      </g>
     </g>
     <g id="text_15">
      <!-- 100 -->
      <g transform="translate(310.059375 203.702926)scale(0.1 -0.1)">
       <use xlink:href="#DejaVuSans-31"/>
       <use x="63.623047" xlink:href="#DejaVuSans-30"/>
       <use x="127.246094" xlink:href="#DejaVuSans-30"/>
      </g>
     </g>
    </g>
   </g>
   <g id="matplotlib.axis_4">
    <g id="ytick_4">
     <g id="line2d_20">
      <g>
       <use style="stroke:#000000;stroke-width:0.8;" x="40.603125" xlink:href="#m241c10366e" y="189.104489"/>
      </g>
     </g>
     <g id="text_16">
      <!-- 0 -->
      <g transform="translate(27.240625 192.903707)scale(0.1 -0.1)">
       <use xlink:href="#DejaVuSans-30"/>
      </g>
     </g>
    </g>
    <g id="ytick_5">
     <g id="line2d_21">
      <g>
       <use style="stroke:#000000;stroke-width:0.8;" x="40.603125" xlink:href="#m241c10366e" y="157.613177"/>
      </g>
     </g>
     <g id="text_17">
      <!-- 50 -->
      <g transform="translate(20.878125 161.412396)scale(0.1 -0.1)">
       <use xlink:href="#DejaVuSans-35"/>
       <use x="63.623047" xlink:href="#DejaVuSans-30"/>
      </g>
     </g>
    </g>
    <g id="text_18">
     <!-- Escape Latency [#steps] -->
     <g transform="translate(14.798438 220.500156)rotate(-90)scale(0.1 -0.1)">
      <defs>
       <path d="M 628 4666 
L 3578 4666 
L 3578 4134 
L 1259 4134 
L 1259 2753 
L 3481 2753 
L 3481 2222 
L 1259 2222 
L 1259 531 
L 3634 531 
L 3634 0 
L 628 0 
L 628 4666 
z
" id="DejaVuSans-45" transform="scale(0.015625)"/>
       <path d="M 2834 3397 
L 2834 2853 
Q 2591 2978 2328 3040 
Q 2066 3103 1784 3103 
Q 1356 3103 1142 2972 
Q 928 2841 928 2578 
Q 928 2378 1081 2264 
Q 1234 2150 1697 2047 
L 1894 2003 
Q 2506 1872 2764 1633 
Q 3022 1394 3022 966 
Q 3022 478 2636 193 
Q 2250 -91 1575 -91 
Q 1294 -91 989 -36 
Q 684 19 347 128 
L 347 722 
Q 666 556 975 473 
Q 1284 391 1588 391 
Q 1994 391 2212 530 
Q 2431 669 2431 922 
Q 2431 1156 2273 1281 
Q 2116 1406 1581 1522 
L 1381 1569 
Q 847 1681 609 1914 
Q 372 2147 372 2553 
Q 372 3047 722 3315 
Q 1072 3584 1716 3584 
Q 2034 3584 2315 3537 
Q 2597 3491 2834 3397 
z
" id="DejaVuSans-73" transform="scale(0.015625)"/>
       <path d="M 1159 525 
L 1159 -1331 
L 581 -1331 
L 581 3500 
L 1159 3500 
L 1159 2969 
Q 1341 3281 1617 3432 
Q 1894 3584 2278 3584 
Q 2916 3584 3314 3078 
Q 3713 2572 3713 1747 
Q 3713 922 3314 415 
Q 2916 -91 2278 -91 
Q 1894 -91 1617 61 
Q 1341 213 1159 525 
z
M 3116 1747 
Q 3116 2381 2855 2742 
Q 2594 3103 2138 3103 
Q 1681 3103 1420 2742 
Q 1159 2381 1159 1747 
Q 1159 1113 1420 752 
Q 1681 391 2138 391 
Q 2594 391 2855 752 
Q 3116 1113 3116 1747 
z
" id="DejaVuSans-70" transform="scale(0.015625)"/>
       <path d="M 1172 4494 
L 1172 3500 
L 2356 3500 
L 2356 3053 
L 1172 3053 
L 1172 1153 
Q 1172 725 1289 603 
Q 1406 481 1766 481 
L 2356 481 
L 2356 0 
L 1766 0 
Q 1100 0 847 248 
Q 594 497 594 1153 
L 594 3053 
L 172 3053 
L 172 3500 
L 594 3500 
L 594 4494 
L 1172 4494 
z
" id="DejaVuSans-74" transform="scale(0.015625)"/>
       <path d="M 2059 -325 
Q 1816 -950 1584 -1140 
Q 1353 -1331 966 -1331 
L 506 -1331 
L 506 -850 
L 844 -850 
Q 1081 -850 1212 -737 
Q 1344 -625 1503 -206 
L 1606 56 
L 191 3500 
L 800 3500 
L 1894 763 
L 2988 3500 
L 3597 3500 
L 2059 -325 
z
" id="DejaVuSans-79" transform="scale(0.015625)"/>
       <path d="M 550 4863 
L 1875 4863 
L 1875 4416 
L 1125 4416 
L 1125 -397 
L 1875 -397 
L 1875 -844 
L 550 -844 
L 550 4863 
z
" id="DejaVuSans-5b" transform="scale(0.015625)"/>
       <path d="M 3272 2816 
L 2363 2816 
L 2100 1772 
L 3016 1772 
L 3272 2816 
z
M 2803 4594 
L 2478 3297 
L 3391 3297 
L 3719 4594 
L 4219 4594 
L 3897 3297 
L 4872 3297 
L 4872 2816 
L 3775 2816 
L 3519 1772 
L 4513 1772 
L 4513 1294 
L 3397 1294 
L 3072 0 
L 2572 0 
L 2894 1294 
L 1978 1294 
L 1656 0 
L 1153 0 
L 1478 1294 
L 494 1294 
L 494 1772 
L 1594 1772 
L 1856 2816 
L 850 2816 
L 850 3297 
L 1978 3297 
L 2297 4594 
L 2803 4594 
z
" id="DejaVuSans-23" transform="scale(0.015625)"/>
       <path d="M 1947 4863 
L 1947 -844 
L 622 -844 
L 622 -397 
L 1369 -397 
L 1369 4416 
L 622 4416 
L 622 4863 
L 1947 4863 
z
" id="DejaVuSans-5d" transform="scale(0.015625)"/>
      </defs>
      <use xlink:href="#DejaVuSans-45"/>
      <use x="63.183594" xlink:href="#DejaVuSans-73"/>
      <use x="115.283203" xlink:href="#DejaVuSans-63"/>
      <use x="170.263672" xlink:href="#DejaVuSans-61"/>
      <use x="231.542969" xlink:href="#DejaVuSans-70"/>
      <use x="295.019531" xlink:href="#DejaVuSans-65"/>
      <use x="356.542969" xlink:href="#DejaVuSans-20"/>
      <use x="388.330078" xlink:href="#DejaVuSans-4c"/>
      <use x="444.042969" xlink:href="#DejaVuSans-61"/>
      <use x="505.322266" xlink:href="#DejaVuSans-74"/>
      <use x="544.53125" xlink:href="#DejaVuSans-65"/>
      <use x="606.054688" xlink:href="#DejaVuSans-6e"/>
      <use x="669.433594" xlink:href="#DejaVuSans-63"/>
      <use x="724.414062" xlink:href="#DejaVuSans-79"/>
      <use x="783.59375" xlink:href="#DejaVuSans-20"/>
      <use x="815.380859" xlink:href="#DejaVuSans-5b"/>
      <use x="854.394531" xlink:href="#DejaVuSans-23"/>
      <use x="938.183594" xlink:href="#DejaVuSans-73"/>
      <use x="990.283203" xlink:href="#DejaVuSans-74"/>
      <use x="1029.492188" xlink:href="#DejaVuSans-65"/>
      <use x="1091.015625" xlink:href="#DejaVuSans-70"/>
      <use x="1154.492188" xlink:href="#DejaVuSans-73"/>
      <use x="1206.591797" xlink:href="#DejaVuSans-5d"/>
     </g>
    </g>
   </g>
   <g id="line2d_22">
    <path clip-path="url(#pdfb282e821)" d="M 40.603125 130.74479 
L 43.421307 133.342473 
L 46.239489 137.108834 
L 49.05767 140.242569 
L 51.875852 143.373506 
L 54.694034 146.739577 
L 57.512216 149.996478 
L 60.330398 151.94614 
L 63.14858 155.78808 
L 65.966761 158.380165 
L 68.784943 160.494982 
L 71.603125 162.467038 
L 74.421307 165.434219 
L 77.239489 167.337694 
L 80.05767 169.123601 
L 82.875852 170.271285 
L 85.694034 171.368582 
L 88.512216 173.024325 
L 91.330398 173.647153 
L 94.14858 174.519113 
L 96.966761 175.130744 
L 99.784943 176.244837 
L 102.603125 177.006226 
L 105.421307 176.941844 
L 108.239489 178.067134 
L 111.05767 178.198697 
L 113.875852 178.817327 
L 116.694034 179.028668 
L 119.512216 179.111246 
L 122.330398 179.53113 
L 125.14858 179.741072 
L 127.966761 179.882433 
L 130.784943 179.907626 
L 133.603125 180.326111 
L 136.421307 179.956612 
L 139.239489 180.442278 
L 142.05767 180.334508 
L 144.875852 180.629827 
L 147.694034 180.597636 
L 150.512216 180.433881 
L 153.330398 180.565445 
L 156.14858 180.671815 
L 158.966761 180.919547 
L 161.784943 181.081902 
L 164.603125 180.662018 
L 167.421307 180.915348 
L 170.239489 181.072105 
L 173.05767 180.79778 
L 175.875852 180.736197 
L 178.694034 180.845367 
L 181.512216 181.000724 
L 184.330398 180.659219 
L 187.14858 180.964334 
L 189.966761 180.884556 
L 192.784943 180.855165 
L 195.603125 181.104296 
L 198.421307 181.254055 
L 201.239489 181.077703 
L 204.05767 181.251255 
L 206.875852 181.247056 
L 209.694034 181.174277 
L 212.512216 181.484991 
L 215.330398 181.623553 
L 218.14858 181.420609 
L 220.966761 181.505985 
L 223.784943 181.409412 
L 226.603125 181.465396 
L 229.421307 181.589962 
L 232.239489 181.507385 
L 235.05767 181.538176 
L 237.875852 181.387018 
L 240.694034 181.647346 
L 243.512216 181.640348 
L 246.330398 181.447201 
L 249.14858 181.202269 
L 251.966761 181.500387 
L 254.784943 181.679537 
L 257.603125 181.542375 
L 260.421307 181.543775 
L 263.239489 181.638948 
L 266.05767 181.594161 
L 268.875852 181.623553 
L 271.694034 181.608157 
L 274.512216 181.441603 
L 277.330398 181.645946 
L 280.14858 181.767713 
L 282.966761 181.606757 
L 285.784943 181.563369 
L 288.603125 181.652944 
L 291.421307 181.689334 
L 294.239489 181.785908 
L 297.05767 181.746719 
L 299.875852 181.718726 
L 302.694034 181.532578 
L 305.512216 181.882481 
L 308.330398 181.612356 
L 311.14858 181.955261 
L 313.966761 181.890879 
L 316.784943 181.839093 
L 319.603125 181.762114 
" style="fill:none;stroke:#008000;stroke-linecap:square;stroke-width:1.5;"/>
   </g>
   <g id="line2d_23">
    <path clip-path="url(#pdfb282e821)" d="M 40.603125 129.963805 
L 43.421307 131.916267 
L 46.239489 133.06255 
L 49.05767 131.462792 
L 51.875852 130.946334 
L 54.694034 133.856131 
L 57.512216 132.974375 
L 60.330398 134.25922 
L 63.14858 133.339674 
L 65.966761 133.213709 
L 68.784943 134.095465 
L 71.603125 135.733014 
L 74.421307 135.7834 
L 77.239489 138.277511 
L 80.05767 138.856952 
L 82.875852 136.085716 
L 85.694034 141.36366 
L 88.512216 139.952849 
L 91.330398 140.431517 
L 94.14858 143.379104 
L 96.966761 143.164963 
L 99.784943 147.435185 
L 102.603125 146.94392 
L 105.421307 148.707434 
L 108.239489 148.304345 
L 111.05767 150.672492 
L 113.875852 152.02032 
L 116.694034 157.336053 
L 119.512216 157.084123 
L 122.330398 160.963852 
L 125.14858 159.930937 
L 127.966761 162.979296 
L 130.784943 163.168244 
L 133.603125 164.893968 
L 136.421307 167.325097 
L 139.239489 165.36004 
L 142.05767 167.501449 
L 144.875852 168.156468 
L 147.694034 170.68837 
L 150.512216 172.036198 
L 153.330398 173.031323 
L 156.14858 174.479923 
L 158.966761 174.316169 
L 161.784943 174.983784 
L 164.603125 176.079682 
L 167.421307 177.238562 
L 170.239489 176.948842 
L 173.05767 177.566072 
L 175.875852 178.787935 
L 178.694034 178.561197 
L 181.512216 178.813128 
L 184.330398 180.715203 
L 187.14858 180.463273 
L 189.966761 180.274325 
L 192.784943 181.470995 
L 195.603125 180.526255 
L 198.421307 181.01752 
L 201.239489 181.735522 
L 204.05767 180.286921 
L 206.875852 181.030116 
L 209.694034 181.546574 
L 212.512216 181.508784 
L 215.330398 181.584363 
L 218.14858 182.188997 
L 220.966761 181.798504 
L 223.784943 181.445802 
L 226.603125 181.634749 
L 229.421307 181.899277 
L 232.239489 181.798504 
L 235.05767 182.151207 
L 237.875852 181.647346 
L 240.694034 182.151207 
L 243.512216 182.100821 
L 246.330398 182.428331 
L 249.14858 181.672539 
L 251.966761 181.962259 
L 254.784943 181.937066 
L 257.603125 182.037838 
L 260.421307 182.403137 
L 263.239489 182.365348 
L 266.05767 182.478717 
L 268.875852 182.403137 
L 271.694034 182.302365 
L 274.512216 182.340155 
L 277.330398 182.415734 
L 280.14858 182.1764 
L 282.966761 182.554296 
L 285.784943 182.554296 
L 288.603125 182.604682 
L 291.421307 182.440927 
L 294.239489 182.226786 
L 297.05767 182.604682 
L 299.875852 182.453524 
L 302.694034 182.377944 
L 305.512216 182.592085 
L 308.330398 182.403137 
L 311.14858 182.529103 
L 313.966761 182.088224 
L 316.784943 182.491313 
L 319.603125 182.239383 
" style="fill:none;stroke:#0000ff;stroke-linecap:square;stroke-width:1.5;"/>
   </g>
   <g id="line2d_24">
    <path clip-path="url(#pdfb282e821)" d="M 40.603125 131.639143 
L 43.421307 131.210861 
L 46.239489 131.28644 
L 49.05767 135.052801 
L 51.875852 131.588757 
L 54.694034 133.339674 
L 57.512216 134.045079 
L 60.330398 132.798023 
L 63.14858 133.893921 
L 65.966761 135.884172 
L 68.784943 133.604201 
L 71.603125 136.488805 
L 74.421307 134.737888 
L 77.239489 137.068245 
L 80.05767 134.485958 
L 82.875852 136.702946 
L 85.694034 137.987791 
L 88.512216 138.516845 
L 91.330398 137.395755 
L 94.14858 139.323023 
L 96.966761 144.462405 
L 99.784943 143.026401 
L 102.603125 145.155214 
L 105.421307 142.837453 
L 108.239489 148.934171 
L 111.05767 146.288901 
L 113.875852 147.762695 
L 116.694034 146.036971 
L 119.512216 147.334413 
L 122.330398 151.327511 
L 125.14858 155.383592 
L 127.966761 154.262501 
L 130.784943 154.816748 
L 133.603125 155.509557 
L 136.421307 156.038611 
L 139.239489 161.089818 
L 142.05767 159.401883 
L 144.875852 161.757434 
L 147.694034 162.160522 
L 150.512216 164.327125 
L 153.330398 162.450242 
L 156.14858 168.030503 
L 158.966761 170.260088 
L 161.784943 167.514045 
L 164.603125 170.97809 
L 167.421307 171.494547 
L 170.239489 169.894788 
L 173.05767 171.192231 
L 175.875852 174.026449 
L 178.694034 174.026449 
L 181.512216 171.141844 
L 184.330398 174.794837 
L 187.14858 175.298698 
L 189.966761 177.629055 
L 192.784943 177.024421 
L 195.603125 177.641651 
L 198.421307 176.570947 
L 201.239489 177.893582 
L 204.05767 177.591265 
L 206.875852 179.694885 
L 209.694034 178.246284 
L 212.512216 177.704634 
L 215.330398 180.097973 
L 218.14858 181.130889 
L 220.966761 179.846043 
L 223.784943 180.954537 
L 226.603125 180.627028 
L 229.421307 180.916748 
L 232.239489 179.757867 
L 235.05767 181.483591 
L 237.875852 180.69001 
L 240.694034 181.30724 
L 243.512216 181.030116 
L 246.330398 180.803379 
L 249.14858 180.173553 
L 251.966761 181.294643 
L 254.784943 181.785908 
L 257.603125 181.546574 
L 260.421307 181.672539 
L 263.239489 181.130889 
L 266.05767 180.904151 
L 268.875852 181.382819 
L 271.694034 181.345029 
L 274.512216 180.891555 
L 277.330398 181.785908 
L 280.14858 182.163804 
L 282.966761 181.659943 
L 285.784943 181.370222 
L 288.603125 181.382819 
L 291.421307 181.685136 
L 294.239489 181.294643 
L 297.05767 182.025242 
L 299.875852 181.105695 
L 302.694034 181.319836 
L 305.512216 181.937066 
L 308.330398 181.571767 
L 311.14858 181.659943 
L 313.966761 180.853765 
L 316.784943 181.634749 
L 319.603125 181.861487 
" style="fill:none;stroke:#000000;stroke-linecap:square;stroke-width:1.5;"/>
   </g>
   <g id="line2d_25">
    <path clip-path="url(#pdfb282e821)" d="M 40.603125 130.530649 
L 43.421307 134.788274 
L 46.239489 143.794789 
L 49.05767 147.737502 
L 51.875852 156.920368 
L 54.694034 159.842762 
L 57.512216 166.065445 
L 60.330398 167.375484 
L 63.14858 168.509171 
L 65.966761 170.801738 
L 68.784943 172.250339 
L 71.603125 172.842375 
L 74.421307 173.938273 
L 77.239489 174.580696 
L 80.05767 174.328765 
L 82.875852 176.545754 
L 85.694034 177.238562 
L 88.512216 177.654248 
L 91.330398 178.800531 
L 94.14858 178.561197 
L 96.966761 179.78306 
L 99.784943 181.143485 
L 102.603125 180.375097 
L 105.421307 180.614431 
L 108.239489 181.193871 
L 111.05767 180.69001 
L 113.875852 181.584363 
L 116.694034 180.853765 
L 119.512216 182.088224 
L 122.330398 181.735522 
L 125.14858 181.987452 
L 127.966761 182.075628 
L 130.784943 181.647346 
L 133.603125 182.012645 
L 136.421307 181.974856 
L 139.239489 182.239383 
L 142.05767 181.823697 
L 144.875852 182.13861 
L 147.694034 182.428331 
L 150.512216 182.201593 
L 153.330398 181.811101 
L 156.14858 181.88668 
L 158.966761 182.063031 
L 161.784943 181.798504 
L 164.603125 181.861487 
L 167.421307 182.126014 
L 170.239489 182.302365 
L 173.05767 182.088224 
L 175.875852 182.025242 
L 178.694034 182.390541 
L 181.512216 182.277172 
L 184.330398 182.025242 
L 187.14858 182.012645 
L 189.966761 182.340155 
L 192.784943 182.302365 
L 195.603125 182.13861 
L 198.421307 181.962259 
L 201.239489 182.163804 
L 204.05767 181.59696 
L 206.875852 182.113417 
L 209.694034 182.239383 
L 212.512216 182.088224 
L 215.330398 181.92447 
L 218.14858 182.050435 
L 220.966761 182.21419 
L 223.784943 182.188997 
L 226.603125 181.874083 
L 229.421307 182.529103 
L 232.239489 182.302365 
L 235.05767 182.063031 
L 237.875852 182.314962 
L 240.694034 182.21419 
L 243.512216 182.314962 
L 246.330398 182.428331 
L 249.14858 182.251979 
L 251.966761 182.113417 
L 254.784943 182.251979 
L 257.603125 182.000049 
L 260.421307 182.050435 
L 263.239489 182.063031 
L 266.05767 182.100821 
L 268.875852 182.403137 
L 271.694034 182.188997 
L 274.512216 182.037838 
L 277.330398 182.340155 
L 280.14858 181.911873 
L 282.966761 182.050435 
L 285.784943 182.21419 
L 288.603125 182.302365 
L 291.421307 182.1764 
L 294.239489 182.163804 
L 297.05767 181.836294 
L 299.875852 181.748118 
L 302.694034 182.277172 
L 305.512216 182.075628 
L 308.330398 182.100821 
L 311.14858 182.201593 
L 313.966761 182.277172 
L 316.784943 182.21419 
L 319.603125 182.277172 
" style="fill:none;stroke:#ff0000;stroke-linecap:square;stroke-width:1.5;"/>
   </g>
   <g id="line2d_26">
    <path clip-path="url(#pdfb282e821)" d="M 40.603125 182.806226 
L 319.603125 182.806226 
" style="fill:none;stroke:#808080;stroke-dasharray:5.55,2.4;stroke-dashoffset:0;stroke-width:1.5;"/>
   </g>
   <g id="patch_6">
    <path d="M 40.603125 189.104489 
L 40.603125 127.331761 
" style="fill:none;stroke:#000000;stroke-linecap:square;stroke-linejoin:miter;stroke-width:0.8;"/>
   </g>
   <g id="patch_7">
    <path d="M 40.603125 189.104489 
L 319.603125 189.104489 
" style="fill:none;stroke:#000000;stroke-linecap:square;stroke-linejoin:miter;stroke-width:0.8;"/>
   </g>
   <g id="text_19">
    <!-- Open Field -->
    <g transform="translate(148.319063 121.331761)scale(0.12 -0.12)">
     <defs>
      <path d="M 2522 4238 
Q 1834 4238 1429 3725 
Q 1025 3213 1025 2328 
Q 1025 1447 1429 934 
Q 1834 422 2522 422 
Q 3209 422 3611 934 
Q 4013 1447 4013 2328 
Q 4013 3213 3611 3725 
Q 3209 4238 2522 4238 
z
M 2522 4750 
Q 3503 4750 4090 4092 
Q 4678 3434 4678 2328 
Q 4678 1225 4090 567 
Q 3503 -91 2522 -91 
Q 1538 -91 948 565 
Q 359 1222 359 2328 
Q 359 3434 948 4092 
Q 1538 4750 2522 4750 
z
" id="DejaVuSans-4f" transform="scale(0.015625)"/>
      <path d="M 628 4666 
L 3309 4666 
L 3309 4134 
L 1259 4134 
L 1259 2759 
L 3109 2759 
L 3109 2228 
L 1259 2228 
L 1259 0 
L 628 0 
L 628 4666 
z
" id="DejaVuSans-46" transform="scale(0.015625)"/>
      <path d="M 603 4863 
L 1178 4863 
L 1178 0 
L 603 0 
L 603 4863 
z
" id="DejaVuSans-6c" transform="scale(0.015625)"/>
      <path d="M 2906 2969 
L 2906 4863 
L 3481 4863 
L 3481 0 
L 2906 0 
L 2906 525 
Q 2725 213 2448 61 
Q 2172 -91 1784 -91 
Q 1150 -91 751 415 
Q 353 922 353 1747 
Q 353 2572 751 3078 
Q 1150 3584 1784 3584 
Q 2172 3584 2448 3432 
Q 2725 3281 2906 2969 
z
M 947 1747 
Q 947 1113 1208 752 
Q 1469 391 1925 391 
Q 2381 391 2643 752 
Q 2906 1113 2906 1747 
Q 2906 2381 2643 2742 
Q 2381 3103 1925 3103 
Q 1469 3103 1208 2742 
Q 947 2381 947 1747 
z
" id="DejaVuSans-64" transform="scale(0.015625)"/>
     </defs>
     <use xlink:href="#DejaVuSans-4f"/>
     <use x="78.710938" xlink:href="#DejaVuSans-70"/>
     <use x="142.1875" xlink:href="#DejaVuSans-65"/>
     <use x="203.710938" xlink:href="#DejaVuSans-6e"/>
     <use x="267.089844" xlink:href="#DejaVuSans-20"/>
     <use x="298.876953" xlink:href="#DejaVuSans-46"/>
     <use x="349.146484" xlink:href="#DejaVuSans-69"/>
     <use x="376.929688" xlink:href="#DejaVuSans-65"/>
     <use x="438.453125" xlink:href="#DejaVuSans-6c"/>
     <use x="466.236328" xlink:href="#DejaVuSans-64"/>
    </g>
   </g>
  </g>
  <g id="axes_3">
   <g id="patch_8">
    <path d="M 40.603125 294.118125 
L 319.603125 294.118125 
L 319.603125 232.345398 
L 40.603125 232.345398 
z
" style="fill:#ffffff;"/>
   </g>
   <g id="matplotlib.axis_5">
    <g id="xtick_12">
     <g id="line2d_27">
      <g>
       <use style="stroke:#000000;stroke-width:0.8;" x="40.603125" xlink:href="#mccab5b43bf" y="294.118125"/>
      </g>
     </g>
     <g id="text_20">
      <!-- 1 -->
      <g transform="translate(37.421875 308.716562)scale(0.1 -0.1)">
       <use xlink:href="#DejaVuSans-31"/>
      </g>
     </g>
    </g>
    <g id="xtick_13">
     <g id="line2d_28">
      <g>
       <use style="stroke:#000000;stroke-width:0.8;" x="94.14858" xlink:href="#mccab5b43bf" y="294.118125"/>
      </g>
     </g>
     <g id="text_21">
      <!-- 20 -->
      <g transform="translate(87.78608 308.716562)scale(0.1 -0.1)">
       <use xlink:href="#DejaVuSans-32"/>
       <use x="63.623047" xlink:href="#DejaVuSans-30"/>
      </g>
     </g>
    </g>
    <g id="xtick_14">
     <g id="line2d_29">
      <g>
       <use style="stroke:#000000;stroke-width:0.8;" x="150.512216" xlink:href="#mccab5b43bf" y="294.118125"/>
      </g>
     </g>
     <g id="text_22">
      <!-- 40 -->
      <g transform="translate(144.149716 308.716562)scale(0.1 -0.1)">
       <use xlink:href="#DejaVuSans-34"/>
       <use x="63.623047" xlink:href="#DejaVuSans-30"/>
      </g>
     </g>
    </g>
    <g id="xtick_15">
     <g id="line2d_30">
      <g>
       <use style="stroke:#000000;stroke-width:0.8;" x="206.875852" xlink:href="#mccab5b43bf" y="294.118125"/>
      </g>
     </g>
     <g id="text_23">
      <!-- 60 -->
      <g transform="translate(200.513352 308.716562)scale(0.1 -0.1)">
       <use xlink:href="#DejaVuSans-36"/>
       <use x="63.623047" xlink:href="#DejaVuSans-30"/>
      </g>
     </g>
    </g>
    <g id="xtick_16">
     <g id="line2d_31">
      <g>
       <use style="stroke:#000000;stroke-width:0.8;" x="263.239489" xlink:href="#mccab5b43bf" y="294.118125"/>
      </g>
     </g>
     <g id="text_24">
      <!-- 80 -->
      <g transform="translate(256.876989 308.716562)scale(0.1 -0.1)">
       <use xlink:href="#DejaVuSans-38"/>
       <use x="63.623047" xlink:href="#DejaVuSans-30"/>
      </g>
     </g>
    </g>
    <g id="xtick_17">
     <g id="line2d_32">
      <g>
       <use style="stroke:#000000;stroke-width:0.8;" x="319.603125" xlink:href="#mccab5b43bf" y="294.118125"/>
      </g>
     </g>
     <g id="text_25">
      <!-- 100 -->
      <g transform="translate(310.059375 308.716562)scale(0.1 -0.1)">
       <use xlink:href="#DejaVuSans-31"/>
       <use x="63.623047" xlink:href="#DejaVuSans-30"/>
       <use x="127.246094" xlink:href="#DejaVuSans-30"/>
      </g>
     </g>
    </g>
    <g id="text_26">
     <!-- Trial -->
     <g transform="translate(169.889062 322.394687)scale(0.1 -0.1)">
      <use xlink:href="#DejaVuSans-54"/>
      <use x="46.333984" xlink:href="#DejaVuSans-72"/>
      <use x="87.447266" xlink:href="#DejaVuSans-69"/>
      <use x="115.230469" xlink:href="#DejaVuSans-61"/>
      <use x="176.509766" xlink:href="#DejaVuSans-6c"/>
     </g>
    </g>
   </g>
   <g id="matplotlib.axis_6">
    <g id="ytick_6">
     <g id="line2d_33">
      <g>
       <use style="stroke:#000000;stroke-width:0.8;" x="40.603125" xlink:href="#m241c10366e" y="294.118125"/>
      </g>
     </g>
     <g id="text_27">
      <!-- 0 -->
      <g transform="translate(27.240625 297.917344)scale(0.1 -0.1)">
       <use xlink:href="#DejaVuSans-30"/>
      </g>
     </g>
    </g>
    <g id="ytick_7">
     <g id="line2d_34">
      <g>
       <use style="stroke:#000000;stroke-width:0.8;" x="40.603125" xlink:href="#m241c10366e" y="253.262741"/>
      </g>
     </g>
     <g id="text_28">
      <!-- 200 -->
      <g transform="translate(14.515625 257.06196)scale(0.1 -0.1)">
       <use xlink:href="#DejaVuSans-32"/>
       <use x="63.623047" xlink:href="#DejaVuSans-30"/>
       <use x="127.246094" xlink:href="#DejaVuSans-30"/>
      </g>
     </g>
    </g>
   </g>
   <g id="line2d_35">
    <path clip-path="url(#p0a0af7a0ae)" d="M 40.603125 236.668646 
L 43.421307 241.733352 
L 46.239489 247.337803 
L 49.05767 251.833711 
L 51.875852 257.234793 
L 54.694034 261.758845 
L 57.512216 265.488488 
L 60.330398 269.467802 
L 63.14858 271.668092 
L 65.966761 274.250152 
L 68.784943 275.868933 
L 71.603125 277.876294 
L 74.421307 279.229515 
L 77.239489 280.611335 
L 80.05767 282.108912 
L 82.875852 282.983671 
L 85.694034 283.976003 
L 88.512216 284.593373 
L 91.330398 284.793565 
L 94.14858 285.400948 
L 96.966761 285.875324 
L 99.784943 286.35424 
L 102.603125 286.577583 
L 105.421307 286.822261 
L 108.239489 287.017459 
L 111.05767 287.328868 
L 113.875852 287.381526 
L 116.694034 287.609862 
L 119.512216 287.80733 
L 122.330398 288.015693 
L 125.14858 288.108752 
L 127.966761 288.134173 
L 130.784943 288.315753 
L 133.603125 288.302588 
L 136.421307 288.35797 
L 139.239489 288.379759 
L 142.05767 288.439681 
L 144.875852 288.491885 
L 147.694034 288.564063 
L 150.512216 288.475543 
L 153.330398 288.529562 
L 156.14858 288.622168 
L 158.966761 288.705695 
L 161.784943 288.722945 
L 164.603125 288.717951 
L 167.421307 288.772879 
L 170.239489 288.790129 
L 173.05767 288.780142 
L 175.875852 288.752451 
L 178.694034 288.816004 
L 181.512216 288.801932 
L 184.330398 288.789221 
L 187.14858 288.82009 
L 189.966761 288.850958 
L 192.784943 288.885458 
L 195.603125 288.914057 
L 198.421307 288.930399 
L 201.239489 288.952643 
L 204.05767 288.929037 
L 206.875852 288.944472 
L 209.694034 288.901346 
L 212.512216 288.983057 
L 215.330398 288.935393 
L 218.14858 288.978064 
L 220.966761 288.993498 
L 223.784943 288.999853 
L 226.603125 288.929037 
L 229.421307 288.99259 
L 232.239489 288.984873 
L 235.05767 288.988505 
L 237.875852 289.021189 
L 240.694034 289.062952 
L 243.512216 289.018919 
L 246.330398 289.04434 
L 249.14858 289.037531 
L 251.966761 289.058867 
L 254.784943 289.039347 
L 257.603125 289.101992 
L 260.421307 289.052511 
L 263.239489 289.058867 
L 266.05767 289.020281 
L 268.875852 289.06159 
L 271.694034 289.123781 
L 274.512216 289.157827 
L 277.330398 289.081564 
L 280.14858 289.158281 
L 282.966761 289.151472 
L 285.784943 289.097452 
L 288.603125 289.122419 
L 291.421307 289.156012 
L 294.239489 289.111071 
L 297.05767 289.103354 
L 299.875852 289.075209 
L 302.694034 289.09609 
L 305.512216 289.1374 
L 308.330398 289.121966 
L 311.14858 289.131952 
L 313.966761 289.121966 
L 316.784943 289.170992 
L 319.603125 289.142393 
" style="fill:none;stroke:#008000;stroke-linecap:square;stroke-width:1.5;"/>
   </g>
   <g id="line2d_36">
    <path clip-path="url(#p0a0af7a0ae)" d="M 40.603125 237.296457 
L 43.421307 237.455793 
L 46.239489 237.692755 
L 49.05767 236.655028 
L 51.875852 238.612001 
L 54.694034 236.36904 
L 57.512216 238.321928 
L 60.330398 238.281072 
L 63.14858 238.362783 
L 65.966761 238.79585 
L 68.784943 239.886689 
L 71.603125 239.347398 
L 74.421307 237.970571 
L 77.239489 241.721095 
L 80.05767 243.829233 
L 82.875852 240.385124 
L 85.694034 242.66894 
L 88.512216 244.568716 
L 91.330398 246.987354 
L 94.14858 246.100793 
L 96.966761 249.434592 
L 99.784943 249.634783 
L 102.603125 252.948155 
L 105.421307 253.585499 
L 108.239489 251.636697 
L 111.05767 255.166602 
L 113.875852 256.97241 
L 116.694034 260.012051 
L 119.512216 258.283868 
L 122.330398 263.758489 
L 125.14858 263.554212 
L 127.966761 268.268924 
L 130.784943 268.706076 
L 133.603125 272.897839 
L 136.421307 272.783444 
L 139.239489 275.050917 
L 142.05767 278.719731 
L 144.875852 279.116028 
L 147.694034 280.288578 
L 150.512216 282.874723 
L 153.330398 280.644019 
L 156.14858 282.874723 
L 158.966761 283.740858 
L 161.784943 285.411843 
L 164.603125 285.330132 
L 167.421307 286.204437 
L 170.239489 286.83361 
L 173.05767 287.993903 
L 175.875852 287.916278 
L 178.694034 287.613948 
L 181.512216 288.3902 
L 184.330398 288.533194 
L 187.14858 288.868208 
L 189.966761 288.986689 
L 192.784943 288.414713 
L 195.603125 289.546408 
L 198.421307 289.088827 
L 201.239489 289.521894 
L 204.05767 289.685316 
L 206.875852 289.705744 
L 209.694034 289.64446 
L 212.512216 289.570921 
L 215.330398 289.660803 
L 218.14858 289.730257 
L 220.966761 289.68123 
L 223.784943 289.713915 
L 226.603125 289.709829 
L 229.421307 289.701658 
L 232.239489 289.615862 
L 235.05767 289.689401 
L 237.875852 289.718 
L 240.694034 289.664888 
L 243.512216 289.730257 
L 246.330398 289.673059 
L 249.14858 289.673059 
L 251.966761 289.685316 
L 254.784943 289.664888 
L 257.603125 289.677145 
L 260.421307 289.636289 
L 263.239489 289.738428 
L 266.05767 289.762941 
L 268.875852 289.64446 
L 271.694034 289.673059 
L 274.512216 289.701658 
L 277.330398 289.652632 
L 280.14858 289.816053 
L 282.966761 289.619947 
L 285.784943 289.750684 
L 288.603125 289.718 
L 291.421307 289.75477 
L 294.239489 289.779283 
L 297.05767 289.685316 
L 299.875852 289.771112 
L 302.694034 289.775198 
L 305.512216 289.758856 
L 308.330398 289.771112 
L 311.14858 289.615862 
L 313.966761 289.730257 
L 316.784943 289.79154 
L 319.603125 289.738428 
" style="fill:none;stroke:#0000ff;stroke-linecap:square;stroke-width:1.5;"/>
   </g>
   <g id="line2d_37">
    <path clip-path="url(#p0a0af7a0ae)" d="M 40.603125 235.192405 
L 43.421307 235.788894 
L 46.239489 236.78168 
L 49.05767 237.941972 
L 51.875852 237.864347 
L 54.694034 237.966486 
L 57.512216 238.121736 
L 60.330398 239.502648 
L 63.14858 236.891989 
L 65.966761 237.308714 
L 68.784943 237.406767 
L 71.603125 235.082096 
L 74.421307 240.221703 
L 77.239489 237.54159 
L 80.05767 240.409638 
L 82.875852 235.989085 
L 85.694034 239.694668 
L 88.512216 239.073667 
L 91.330398 236.601916 
L 94.14858 239.514905 
L 96.966761 239.106351 
L 99.784943 238.72231 
L 102.603125 238.460836 
L 105.421307 239.502648 
L 108.239489 240.536289 
L 111.05767 241.337055 
L 113.875852 239.608872 
L 116.694034 242.673026 
L 119.512216 241.52499 
L 122.330398 242.693454 
L 125.14858 241.194061 
L 127.966761 240.532204 
L 130.784943 242.673026 
L 133.603125 244.462492 
L 136.421307 242.431979 
L 139.239489 242.644427 
L 142.05767 245.275514 
L 144.875852 241.663898 
L 147.694034 241.390167 
L 150.512216 243.057066 
L 153.330398 247.142605 
L 156.14858 248.51126 
L 158.966761 248.580714 
L 161.784943 246.488919 
L 164.603125 248.637912 
L 167.421307 249.814547 
L 170.239489 250.750135 
L 173.05767 251.587671 
L 175.875852 254.668167 
L 178.694034 255.693637 
L 181.512216 256.992838 
L 184.330398 258.402349 
L 187.14858 260.249012 
L 189.966761 259.36245 
L 192.784943 263.280481 
L 195.603125 260.322552 
L 198.421307 263.088461 
L 201.239489 265.061776 
L 204.05767 265.539784 
L 206.875852 267.705119 
L 209.694034 269.91131 
L 212.512216 268.456859 
L 215.330398 270.511884 
L 218.14858 272.113415 
L 220.966761 274.168441 
L 223.784943 272.595509 
L 226.603125 273.294136 
L 229.421307 275.275622 
L 232.239489 276.987463 
L 235.05767 279.148712 
L 237.875852 277.27345 
L 240.694034 280.072044 
L 243.512216 280.255893 
L 246.330398 280.909579 
L 249.14858 281.730773 
L 251.966761 281.722602 
L 254.784943 283.614206 
L 257.603125 283.409929 
L 260.421307 283.438528 
L 263.239489 283.250593 
L 266.05767 284.4068 
L 268.875852 286.956176 
L 271.694034 286.666103 
L 274.512216 286.776413 
L 277.330398 287.434184 
L 280.14858 287.434184 
L 282.966761 288.663931 
L 285.784943 287.777369 
L 288.603125 287.679317 
L 291.421307 288.443312 
L 294.239489 288.328917 
L 297.05767 288.149153 
L 299.875852 287.854995 
L 302.694034 288.582221 
L 305.512216 288.153239 
L 308.330398 289.096998 
L 311.14858 288.753813 
L 313.966761 288.99486 
L 316.784943 288.680273 
L 319.603125 289.399328 
" style="fill:none;stroke:#000000;stroke-linecap:square;stroke-width:1.5;"/>
   </g>
   <g id="line2d_38">
    <path clip-path="url(#p0a0af7a0ae)" d="M 40.603125 237.398596 
L 43.421307 244.593229 
L 46.239489 250.447805 
L 49.05767 255.309596 
L 51.875852 259.566727 
L 54.694034 262.957724 
L 57.512216 266.418175 
L 60.330398 270.417917 
L 63.14858 272.362633 
L 65.966761 274.397231 
L 68.784943 276.162184 
L 71.603125 277.771886 
L 74.421307 280.545967 
L 77.239489 283.103514 
L 80.05767 284.186181 
L 82.875852 285.996075 
L 85.694034 286.196266 
L 88.512216 287.144111 
L 91.330398 288.328917 
L 94.14858 288.978518 
L 96.966761 289.554579 
L 99.784943 288.627161 
L 102.603125 286.894893 
L 105.421307 288.173667 
L 108.239489 288.949919 
L 111.05767 288.974432 
L 113.875852 288.35343 
L 116.694034 289.321703 
L 119.512216 289.207308 
L 122.330398 288.917235 
L 125.14858 288.986689 
L 127.966761 289.407499 
L 130.784943 289.570921 
L 133.603125 288.104213 
L 136.421307 289.493296 
L 139.239489 289.170538 
L 142.05767 289.338045 
L 144.875852 289.407499 
L 147.694034 289.366644 
L 150.512216 289.22365 
L 153.330398 288.700701 
L 156.14858 289.558664 
L 158.966761 289.517809 
L 161.784943 289.530065 
L 164.603125 288.99486 
L 167.421307 289.41567 
L 170.239489 289.579092 
L 173.05767 289.554579 
L 175.875852 289.554579 
L 178.694034 288.974432 
L 181.512216 289.611776 
L 184.330398 288.929491 
L 187.14858 289.656717 
L 189.966761 288.847781 
L 192.784943 288.966261 
L 195.603125 288.251292 
L 198.421307 289.33396 
L 201.239489 289.656717 
L 204.05767 288.966261 
L 206.875852 289.092913 
L 209.694034 289.509638 
L 212.512216 288.737471 
L 215.330398 289.611776 
L 218.14858 289.554579 
L 220.966761 289.624033 
L 223.784943 288.99486 
L 226.603125 289.566835 
L 229.421307 289.448355 
L 232.239489 289.538236 
L 235.05767 289.481039 
L 237.875852 289.554579 
L 240.694034 289.628118 
L 243.512216 289.762941 
L 246.330398 289.436098 
L 249.14858 289.68123 
L 251.966761 289.444269 
L 254.784943 289.587263 
L 257.603125 289.141939 
L 260.421307 289.619947 
L 263.239489 289.68123 
L 266.05767 289.391157 
L 268.875852 289.730257 
L 271.694034 289.660803 
L 274.512216 289.656717 
L 277.330398 289.41567 
L 280.14858 289.538236 
L 282.966761 289.677145 
L 285.784943 289.550493 
L 288.603125 289.718 
L 291.421307 289.718 
L 294.239489 289.101084 
L 297.05767 289.648546 
L 299.875852 289.640375 
L 302.694034 289.632204 
L 305.512216 289.587263 
L 308.330398 289.570921 
L 311.14858 289.411585 
L 313.966761 289.301275 
L 316.784943 289.636289 
L 319.603125 289.656717 
" style="fill:none;stroke:#ff0000;stroke-linecap:square;stroke-width:1.5;"/>
   </g>
   <g id="line2d_39">
    <path clip-path="url(#p0a0af7a0ae)" d="M 40.603125 290.44114 
L 319.603125 290.44114 
" style="fill:none;stroke:#808080;stroke-dasharray:5.55,2.4;stroke-dashoffset:0;stroke-width:1.5;"/>
   </g>
   <g id="patch_9">
    <path d="M 40.603125 294.118125 
L 40.603125 232.345398 
" style="fill:none;stroke:#000000;stroke-linecap:square;stroke-linejoin:miter;stroke-width:0.8;"/>
   </g>
   <g id="patch_10">
    <path d="M 40.603125 294.118125 
L 319.603125 294.118125 
" style="fill:none;stroke:#000000;stroke-linecap:square;stroke-linejoin:miter;stroke-width:0.8;"/>
   </g>
   <g id="text_29">
    <!-- Labyrinth -->
    <g transform="translate(151.632188 226.345398)scale(0.12 -0.12)">
     <defs>
      <path d="M 3116 1747 
Q 3116 2381 2855 2742 
Q 2594 3103 2138 3103 
Q 1681 3103 1420 2742 
Q 1159 2381 1159 1747 
Q 1159 1113 1420 752 
Q 1681 391 2138 391 
Q 2594 391 2855 752 
Q 3116 1113 3116 1747 
z
M 1159 2969 
Q 1341 3281 1617 3432 
Q 1894 3584 2278 3584 
Q 2916 3584 3314 3078 
Q 3713 2572 3713 1747 
Q 3713 922 3314 415 
Q 2916 -91 2278 -91 
Q 1894 -91 1617 61 
Q 1341 213 1159 525 
L 1159 0 
L 581 0 
L 581 4863 
L 1159 4863 
L 1159 2969 
z
" id="DejaVuSans-62" transform="scale(0.015625)"/>
      <path d="M 3513 2113 
L 3513 0 
L 2938 0 
L 2938 2094 
Q 2938 2591 2744 2837 
Q 2550 3084 2163 3084 
Q 1697 3084 1428 2787 
Q 1159 2491 1159 1978 
L 1159 0 
L 581 0 
L 581 4863 
L 1159 4863 
L 1159 2956 
Q 1366 3272 1645 3428 
Q 1925 3584 2291 3584 
Q 2894 3584 3203 3211 
Q 3513 2838 3513 2113 
z
" id="DejaVuSans-68" transform="scale(0.015625)"/>
     </defs>
     <use xlink:href="#DejaVuSans-4c"/>
     <use x="55.712891" xlink:href="#DejaVuSans-61"/>
     <use x="116.992188" xlink:href="#DejaVuSans-62"/>
     <use x="180.46875" xlink:href="#DejaVuSans-79"/>
     <use x="239.648438" xlink:href="#DejaVuSans-72"/>
     <use x="280.761719" xlink:href="#DejaVuSans-69"/>
     <use x="308.544922" xlink:href="#DejaVuSans-6e"/>
     <use x="371.923828" xlink:href="#DejaVuSans-74"/>
     <use x="411.132812" xlink:href="#DejaVuSans-68"/>
    </g>
   </g>
   <g id="legend_1">
    <g id="patch_11">
     <path d="M 68.527344 365.449375 
L 291.678906 365.449375 
Q 293.678906 365.449375 293.678906 363.449375 
L 293.678906 335.093125 
Q 293.678906 333.093125 291.678906 333.093125 
L 68.527344 333.093125 
Q 66.527344 333.093125 66.527344 335.093125 
L 66.527344 363.449375 
Q 66.527344 365.449375 68.527344 365.449375 
z
" style="fill:#ffffff;opacity:0.8;stroke:#cccccc;stroke-linejoin:miter;"/>
    </g>
    <g id="line2d_40">
     <path d="M 70.527344 341.191562 
L 90.527344 341.191562 
" style="fill:none;stroke:#008000;stroke-linecap:square;stroke-width:1.5;"/>
    </g>
    <g id="line2d_41"/>
    <g id="text_30">
     <!-- SFMA -->
     <g transform="translate(98.527344 344.691562)scale(0.1 -0.1)">
      <defs>
       <path d="M 3425 4513 
L 3425 3897 
Q 3066 4069 2747 4153 
Q 2428 4238 2131 4238 
Q 1616 4238 1336 4038 
Q 1056 3838 1056 3469 
Q 1056 3159 1242 3001 
Q 1428 2844 1947 2747 
L 2328 2669 
Q 3034 2534 3370 2195 
Q 3706 1856 3706 1288 
Q 3706 609 3251 259 
Q 2797 -91 1919 -91 
Q 1588 -91 1214 -16 
Q 841 59 441 206 
L 441 856 
Q 825 641 1194 531 
Q 1563 422 1919 422 
Q 2459 422 2753 634 
Q 3047 847 3047 1241 
Q 3047 1584 2836 1778 
Q 2625 1972 2144 2069 
L 1759 2144 
Q 1053 2284 737 2584 
Q 422 2884 422 3419 
Q 422 4038 858 4394 
Q 1294 4750 2059 4750 
Q 2388 4750 2728 4690 
Q 3069 4631 3425 4513 
z
" id="DejaVuSans-53" transform="scale(0.015625)"/>
       <path d="M 628 4666 
L 1569 4666 
L 2759 1491 
L 3956 4666 
L 4897 4666 
L 4897 0 
L 4281 0 
L 4281 4097 
L 3078 897 
L 2444 897 
L 1241 4097 
L 1241 0 
L 628 0 
L 628 4666 
z
" id="DejaVuSans-4d" transform="scale(0.015625)"/>
       <path d="M 2188 4044 
L 1331 1722 
L 3047 1722 
L 2188 4044 
z
M 1831 4666 
L 2547 4666 
L 4325 0 
L 3669 0 
L 3244 1197 
L 1141 1197 
L 716 0 
L 50 0 
L 1831 4666 
z
" id="DejaVuSans-41" transform="scale(0.015625)"/>
      </defs>
      <use xlink:href="#DejaVuSans-53"/>
      <use x="63.476562" xlink:href="#DejaVuSans-46"/>
      <use x="120.996094" xlink:href="#DejaVuSans-4d"/>
      <use x="207.275391" xlink:href="#DejaVuSans-41"/>
     </g>
    </g>
    <g id="line2d_42">
     <path d="M 70.527344 355.869687 
L 90.527344 355.869687 
" style="fill:none;stroke:#0000ff;stroke-linecap:square;stroke-width:1.5;"/>
    </g>
    <g id="line2d_43"/>
    <g id="text_31">
     <!-- Random -->
     <g transform="translate(98.527344 359.369687)scale(0.1 -0.1)">
      <defs>
       <path d="M 2841 2188 
Q 3044 2119 3236 1894 
Q 3428 1669 3622 1275 
L 4263 0 
L 3584 0 
L 2988 1197 
Q 2756 1666 2539 1819 
Q 2322 1972 1947 1972 
L 1259 1972 
L 1259 0 
L 628 0 
L 628 4666 
L 2053 4666 
Q 2853 4666 3247 4331 
Q 3641 3997 3641 3322 
Q 3641 2881 3436 2590 
Q 3231 2300 2841 2188 
z
M 1259 4147 
L 1259 2491 
L 2053 2491 
Q 2509 2491 2742 2702 
Q 2975 2913 2975 3322 
Q 2975 3731 2742 3939 
Q 2509 4147 2053 4147 
L 1259 4147 
z
" id="DejaVuSans-52" transform="scale(0.015625)"/>
       <path d="M 1959 3097 
Q 1497 3097 1228 2736 
Q 959 2375 959 1747 
Q 959 1119 1226 758 
Q 1494 397 1959 397 
Q 2419 397 2687 759 
Q 2956 1122 2956 1747 
Q 2956 2369 2687 2733 
Q 2419 3097 1959 3097 
z
M 1959 3584 
Q 2709 3584 3137 3096 
Q 3566 2609 3566 1747 
Q 3566 888 3137 398 
Q 2709 -91 1959 -91 
Q 1206 -91 779 398 
Q 353 888 353 1747 
Q 353 2609 779 3096 
Q 1206 3584 1959 3584 
z
" id="DejaVuSans-6f" transform="scale(0.015625)"/>
       <path d="M 3328 2828 
Q 3544 3216 3844 3400 
Q 4144 3584 4550 3584 
Q 5097 3584 5394 3201 
Q 5691 2819 5691 2113 
L 5691 0 
L 5113 0 
L 5113 2094 
Q 5113 2597 4934 2840 
Q 4756 3084 4391 3084 
Q 3944 3084 3684 2787 
Q 3425 2491 3425 1978 
L 3425 0 
L 2847 0 
L 2847 2094 
Q 2847 2600 2669 2842 
Q 2491 3084 2119 3084 
Q 1678 3084 1418 2786 
Q 1159 2488 1159 1978 
L 1159 0 
L 581 0 
L 581 3500 
L 1159 3500 
L 1159 2956 
Q 1356 3278 1631 3431 
Q 1906 3584 2284 3584 
Q 2666 3584 2933 3390 
Q 3200 3197 3328 2828 
z
" id="DejaVuSans-6d" transform="scale(0.015625)"/>
      </defs>
      <use xlink:href="#DejaVuSans-52"/>
      <use x="67.232422" xlink:href="#DejaVuSans-61"/>
      <use x="128.511719" xlink:href="#DejaVuSans-6e"/>
      <use x="191.890625" xlink:href="#DejaVuSans-64"/>
      <use x="255.367188" xlink:href="#DejaVuSans-6f"/>
      <use x="316.548828" xlink:href="#DejaVuSans-6d"/>
     </g>
    </g>
    <g id="line2d_44">
     <path d="M 159.924219 341.191562 
L 179.924219 341.191562 
" style="fill:none;stroke:#000000;stroke-linecap:square;stroke-width:1.5;"/>
    </g>
    <g id="line2d_45"/>
    <g id="text_32">
     <!-- Online -->
     <g transform="translate(187.924219 344.691562)scale(0.1 -0.1)">
      <use xlink:href="#DejaVuSans-4f"/>
      <use x="78.710938" xlink:href="#DejaVuSans-6e"/>
      <use x="142.089844" xlink:href="#DejaVuSans-6c"/>
      <use x="169.873047" xlink:href="#DejaVuSans-69"/>
      <use x="197.65625" xlink:href="#DejaVuSans-6e"/>
      <use x="261.035156" xlink:href="#DejaVuSans-65"/>
     </g>
    </g>
    <g id="line2d_46">
     <path d="M 240.180469 341.191562 
L 260.180469 341.191562 
" style="fill:none;stroke:#ff0000;stroke-linecap:square;stroke-width:1.5;"/>
    </g>
    <g id="line2d_47"/>
    <g id="text_33">
     <!-- PMA -->
     <g transform="translate(268.180469 344.691562)scale(0.1 -0.1)">
      <defs>
       <path d="M 1259 4147 
L 1259 2394 
L 2053 2394 
Q 2494 2394 2734 2622 
Q 2975 2850 2975 3272 
Q 2975 3691 2734 3919 
Q 2494 4147 2053 4147 
L 1259 4147 
z
M 628 4666 
L 2053 4666 
Q 2838 4666 3239 4311 
Q 3641 3956 3641 3272 
Q 3641 2581 3239 2228 
Q 2838 1875 2053 1875 
L 1259 1875 
L 1259 0 
L 628 0 
L 628 4666 
z
" id="DejaVuSans-50" transform="scale(0.015625)"/>
      </defs>
      <use xlink:href="#DejaVuSans-50"/>
      <use x="60.302734" xlink:href="#DejaVuSans-4d"/>
      <use x="146.582031" xlink:href="#DejaVuSans-41"/>
     </g>
    </g>
   </g>
  </g>
 </g>
 <defs>
  <clipPath id="pb9fc2a5727">
   <rect height="61.772727" width="279" x="40.603125" y="22.318125"/>
  </clipPath>
  <clipPath id="pdfb282e821">
   <rect height="61.772727" width="279" x="40.603125" y="127.331761"/>
  </clipPath>
  <clipPath id="p0a0af7a0ae">
   <rect height="61.772727" width="279" x="40.603125" y="232.345398"/>
  </clipPath>
 </defs>
</svg>
