<?xml version="1.0" encoding="utf-8" standalone="no"?>
<!DOCTYPE svg PUBLIC "-//W3C//DTD SVG 1.1//EN"
  "http://www.w3.org/Graphics/SVG/1.1/DTD/svg11.dtd">
<svg xmlns:xlink="http://www.w3.org/1999/xlink" width="341.060937pt" height="378.724375pt" viewBox="0 0 341.060937 378.724375" xmlns="http://www.w3.org/2000/svg" version="1.1">
 <metadata>
  <rdf:RDF xmlns:dc="http://purl.org/dc/elements/1.1/" xmlns:cc="http://creativecommons.org/ns#" xmlns:rdf="http://www.w3.org/1999/02/22-rdf-syntax-ns#">
   <cc:Work>
    <dc:type rdf:resource="http://purl.org/dc/dcmitype/StillImage"/>
    <dc:date>2023-01-18T13:19:54.397909</dc:date>
    <dc:format>image/svg+xml</dc:format>
    <dc:creator>
     <cc:Agent>
      <dc:title>Matplotlib v3.6.1, https://matplotlib.org/</dc:title>
     </cc:Agent>
    </dc:creator>
   </cc:Work>
  </rdf:RDF>
 </metadata>
 <defs>
  <style type="text/css">*{stroke-linejoin: round; stroke-linecap: butt}</style>
 </defs>
 <g id="figure_1">
  <g id="patch_1">
   <path d="M 0 378.724375 
L 341.060937 378.724375 
L 341.060937 0 
L 0 0 
z
" style="fill: #ffffff"/>
  </g>
  <g id="axes_1">
   <g id="patch_2">
    <path d="M 40.603125 85.318125 
L 319.603125 85.318125 
L 319.603125 22.318125 
L 40.603125 22.318125 
z
" style="fill: #ffffff"/>
   </g>
   <g id="matplotlib.axis_1">
    <g id="xtick_1">
     <g id="line2d_1">
      <defs>
       <path id="m95bb6ba466" d="M 0 0 
L 0 3.5 
" style="stroke: #000000; stroke-width: 0.8"/>
      </defs>
      <g>
       <use xlink:href="#m95bb6ba466" x="40.603125" y="85.318125" style="stroke: #000000; stroke-width: 0.8"/>
      </g>
     </g>
     <g id="text_1">
      <!-- 1 -->
      <g transform="translate(37.421875 99.916562) scale(0.1 -0.1)">
       <defs>
        <path id="DejaVuSans-31" d="M 794 531 
L 1825 531 
L 1825 4091 
L 703 3866 
L 703 4441 
L 1819 4666 
L 2450 4666 
L 2450 531 
L 3481 531 
L 3481 0 
L 794 0 
L 794 531 
z
" transform="scale(0.015625)"/>
       </defs>
       <use xlink:href="#DejaVuSans-31"/>
      </g>
     </g>
    </g>
    <g id="xtick_2">
     <g id="line2d_2">
      <g>
       <use xlink:href="#m95bb6ba466" x="99.339967" y="85.318125" style="stroke: #000000; stroke-width: 0.8"/>
      </g>
     </g>
     <g id="text_2">
      <!-- 5 -->
      <g transform="translate(96.158717 99.916562) scale(0.1 -0.1)">
       <defs>
        <path id="DejaVuSans-35" d="M 691 4666 
L 3169 4666 
L 3169 4134 
L 1269 4134 
L 1269 2991 
Q 1406 3038 1543 3061 
Q 1681 3084 1819 3084 
Q 2600 3084 3056 2656 
Q 3513 2228 3513 1497 
Q 3513 744 3044 326 
Q 2575 -91 1722 -91 
Q 1428 -91 1123 -41 
Q 819 9 494 109 
L 494 744 
Q 775 591 1075 516 
Q 1375 441 1709 441 
Q 2250 441 2565 725 
Q 2881 1009 2881 1497 
Q 2881 1984 2565 2268 
Q 2250 2553 1709 2553 
Q 1456 2553 1204 2497 
Q 953 2441 691 2322 
L 691 4666 
z
" transform="scale(0.015625)"/>
       </defs>
       <use xlink:href="#DejaVuSans-35"/>
      </g>
     </g>
    </g>
    <g id="xtick_3">
     <g id="line2d_3">
      <g>
       <use xlink:href="#m95bb6ba466" x="172.76102" y="85.318125" style="stroke: #000000; stroke-width: 0.8"/>
      </g>
     </g>
     <g id="text_3">
      <!-- 10 -->
      <g transform="translate(166.39852 99.916562) scale(0.1 -0.1)">
       <defs>
        <path id="DejaVuSans-30" d="M 2034 4250 
Q 1547 4250 1301 3770 
Q 1056 3291 1056 2328 
Q 1056 1369 1301 889 
Q 1547 409 2034 409 
Q 2525 409 2770 889 
Q 3016 1369 3016 2328 
Q 3016 3291 2770 3770 
Q 2525 4250 2034 4250 
z
M 2034 4750 
Q 2819 4750 3233 4129 
Q 3647 3509 3647 2328 
Q 3647 1150 3233 529 
Q 2819 -91 2034 -91 
Q 1250 -91 836 529 
Q 422 1150 422 2328 
Q 422 3509 836 4129 
Q 1250 4750 2034 4750 
z
" transform="scale(0.015625)"/>
       </defs>
       <use xlink:href="#DejaVuSans-31"/>
       <use xlink:href="#DejaVuSans-30" x="63.623047"/>
      </g>
     </g>
    </g>
    <g id="xtick_4">
     <g id="line2d_4">
      <g>
       <use xlink:href="#m95bb6ba466" x="246.182072" y="85.318125" style="stroke: #000000; stroke-width: 0.8"/>
      </g>
     </g>
     <g id="text_4">
      <!-- 15 -->
      <g transform="translate(239.819572 99.916562) scale(0.1 -0.1)">
       <use xlink:href="#DejaVuSans-31"/>
       <use xlink:href="#DejaVuSans-35" x="63.623047"/>
      </g>
     </g>
    </g>
    <g id="xtick_5">
     <g id="line2d_5">
      <g>
       <use xlink:href="#m95bb6ba466" x="319.603125" y="85.318125" style="stroke: #000000; stroke-width: 0.8"/>
      </g>
     </g>
     <g id="text_5">
      <!-- 20 -->
      <g transform="translate(313.240625 99.916562) scale(0.1 -0.1)">
       <defs>
        <path id="DejaVuSans-32" d="M 1228 531 
L 3431 531 
L 3431 0 
L 469 0 
L 469 531 
Q 828 903 1448 1529 
Q 2069 2156 2228 2338 
Q 2531 2678 2651 2914 
Q 2772 3150 2772 3378 
Q 2772 3750 2511 3984 
Q 2250 4219 1831 4219 
Q 1534 4219 1204 4116 
Q 875 4013 500 3803 
L 500 4441 
Q 881 4594 1212 4672 
Q 1544 4750 1819 4750 
Q 2544 4750 2975 4387 
Q 3406 4025 3406 3419 
Q 3406 3131 3298 2873 
Q 3191 2616 2906 2266 
Q 2828 2175 2409 1742 
Q 1991 1309 1228 531 
z
" transform="scale(0.015625)"/>
       </defs>
       <use xlink:href="#DejaVuSans-32"/>
       <use xlink:href="#DejaVuSans-30" x="63.623047"/>
      </g>
     </g>
    </g>
   </g>
   <g id="matplotlib.axis_2">
    <g id="ytick_1">
     <g id="line2d_6">
      <defs>
       <path id="m3771753b30" d="M 0 0 
L -3.5 0 
" style="stroke: #000000; stroke-width: 0.8"/>
      </defs>
      <g>
       <use xlink:href="#m3771753b30" x="40.603125" y="85.318125" style="stroke: #000000; stroke-width: 0.8"/>
      </g>
     </g>
     <g id="text_6">
      <!-- 0 -->
      <g transform="translate(27.240625 89.117344) scale(0.1 -0.1)">
       <use xlink:href="#DejaVuSans-30"/>
      </g>
     </g>
    </g>
    <g id="ytick_2">
     <g id="line2d_7">
      <g>
       <use xlink:href="#m3771753b30" x="40.603125" y="62.469852" style="stroke: #000000; stroke-width: 0.8"/>
      </g>
     </g>
     <g id="text_7">
      <!-- 25 -->
      <g transform="translate(20.878125 66.269071) scale(0.1 -0.1)">
       <use xlink:href="#DejaVuSans-32"/>
       <use xlink:href="#DejaVuSans-35" x="63.623047"/>
      </g>
     </g>
    </g>
    <g id="ytick_3">
     <g id="line2d_8">
      <g>
       <use xlink:href="#m3771753b30" x="40.603125" y="39.621579" style="stroke: #000000; stroke-width: 0.8"/>
      </g>
     </g>
     <g id="text_8">
      <!-- 50 -->
      <g transform="translate(20.878125 43.420798) scale(0.1 -0.1)">
       <use xlink:href="#DejaVuSans-35"/>
       <use xlink:href="#DejaVuSans-30" x="63.623047"/>
      </g>
     </g>
    </g>
   </g>
   <g id="line2d_9">
    <path d="M 40.603125 27.859288 
L 55.287336 67.597004 
L 69.971546 76.032587 
L 84.655757 77.31209 
L 99.339967 77.257254 
L 114.024178 77.18414 
L 128.708388 76.946518 
L 143.392599 77.111025 
L 158.076809 77.238976 
L 172.76102 77.202418 
L 187.44523 77.092747 
L 202.129441 77.385205 
L 216.813651 77.092747 
L 231.497862 77.275533 
L 246.182072 77.366926 
L 260.866283 77.275533 
L 275.550493 77.074468 
L 290.234704 77.385205 
L 304.918914 77.056189 
L 319.603125 77.293812 
" clip-path="url(#pec2a5a3f45)" style="fill: none; stroke: #000080; stroke-width: 1.5; stroke-linecap: square"/>
   </g>
   <g id="line2d_10">
    <path d="M 40.603125 32.904187 
L 55.287336 68.072249 
L 69.971546 76.452995 
L 84.655757 77.257254 
L 99.339967 77.293812 
L 114.024178 77.147583 
L 128.708388 77.275533 
L 143.392599 77.165861 
L 158.076809 77.165861 
L 172.76102 77.44004 
L 187.44523 77.001354 
L 202.129441 77.074468 
L 216.813651 77.421762 
L 231.497862 77.458319 
L 246.182072 77.111025 
L 260.866283 77.330369 
L 275.550493 77.18414 
L 290.234704 77.293812 
L 304.918914 77.31209 
L 319.603125 77.293812 
" clip-path="url(#pec2a5a3f45)" style="fill: none; stroke: #0000ff; stroke-width: 1.5; stroke-linecap: square"/>
   </g>
   <g id="line2d_11">
    <path d="M 40.603125 28.928587 
L 55.287336 64.681565 
L 69.971546 72.916082 
L 84.655757 75.794965 
L 99.339967 77.092747 
L 114.024178 77.31209 
L 128.708388 77.220697 
L 143.392599 77.257254 
L 158.076809 77.31209 
L 172.76102 77.202418 
L 187.44523 77.293812 
L 202.129441 77.019632 
L 216.813651 77.056189 
L 231.497862 77.019632 
L 246.182072 77.056189 
L 260.866283 77.257254 
L 275.550493 77.129304 
L 290.234704 77.165861 
L 304.918914 77.330369 
L 319.603125 77.165861 
" clip-path="url(#pec2a5a3f45)" style="fill: none; stroke: #0080ff; stroke-width: 1.5; stroke-linecap: square"/>
   </g>
   <g id="line2d_12">
    <path d="M 40.603125 24.943849 
L 55.287336 60.047935 
L 69.971546 71.197892 
L 84.655757 76.964796 
L 99.339967 77.238976 
L 114.024178 77.165861 
L 128.708388 76.909961 
L 143.392599 77.330369 
L 158.076809 76.946518 
L 172.76102 77.019632 
L 187.44523 77.220697 
L 202.129441 77.147583 
L 216.813651 77.257254 
L 231.497862 77.348647 
L 246.182072 76.909961 
L 260.866283 77.31209 
L 275.550493 77.330369 
L 290.234704 77.056189 
L 304.918914 77.31209 
L 319.603125 77.165861 
" clip-path="url(#pec2a5a3f45)" style="fill: none; stroke: #16ffe1; stroke-width: 1.5; stroke-linecap: square"/>
   </g>
   <g id="line2d_13">
    <path d="M 40.603125 27.393183 
L 55.287336 62.990793 
L 69.971546 71.554325 
L 84.655757 75.749268 
L 99.339967 76.745453 
L 114.024178 76.708896 
L 128.708388 77.275533 
L 143.392599 77.111025 
L 158.076809 77.275533 
L 172.76102 77.111025 
L 187.44523 77.129304 
L 202.129441 77.111025 
L 216.813651 77.001354 
L 231.497862 77.074468 
L 246.182072 77.019632 
L 260.866283 77.238976 
L 275.550493 77.111025 
L 290.234704 77.257254 
L 304.918914 77.037911 
L 319.603125 77.238976 
" clip-path="url(#pec2a5a3f45)" style="fill: none; stroke: #7dff7a; stroke-width: 1.5; stroke-linecap: square"/>
   </g>
   <g id="line2d_14">
    <path d="M 40.603125 30.655917 
L 55.287336 63.996117 
L 69.971546 74.917591 
L 84.655757 76.928239 
L 99.339967 77.165861 
L 114.024178 77.238976 
L 128.708388 77.220697 
L 143.392599 77.18414 
L 158.076809 76.873403 
L 172.76102 77.111025 
L 187.44523 77.092747 
L 202.129441 77.220697 
L 216.813651 77.165861 
L 231.497862 77.330369 
L 246.182072 76.983075 
L 260.866283 77.147583 
L 275.550493 77.275533 
L 290.234704 77.165861 
L 304.918914 77.202418 
L 319.603125 77.18414 
" clip-path="url(#pec2a5a3f45)" style="fill: none; stroke: #e4ff13; stroke-width: 1.5; stroke-linecap: square"/>
   </g>
   <g id="line2d_15">
    <path d="M 40.603125 27.987238 
L 55.287336 57.689993 
L 69.971546 71.545186 
L 84.655757 74.615994 
L 99.339967 76.452995 
L 114.024178 77.147583 
L 128.708388 77.147583 
L 143.392599 77.403483 
L 158.076809 77.257254 
L 172.76102 77.019632 
L 187.44523 77.202418 
L 202.129441 77.330369 
L 216.813651 77.092747 
L 231.497862 77.074468 
L 246.182072 77.165861 
L 260.866283 77.202418 
L 275.550493 77.257254 
L 290.234704 76.891682 
L 304.918914 77.092747 
L 319.603125 77.275533 
" clip-path="url(#pec2a5a3f45)" style="fill: none; stroke: #ff9400; stroke-width: 1.5; stroke-linecap: square"/>
   </g>
   <g id="line2d_16">
    <path d="M 40.603125 25.903476 
L 55.287336 55.158405 
L 69.971546 69.790439 
L 84.655757 75.045541 
L 99.339967 76.279348 
L 114.024178 76.343323 
L 128.708388 77.165861 
L 143.392599 77.037911 
L 158.076809 77.257254 
L 172.76102 77.202418 
L 187.44523 77.220697 
L 202.129441 76.983075 
L 216.813651 77.238976 
L 231.497862 77.092747 
L 246.182072 77.18414 
L 260.866283 77.202418 
L 275.550493 77.348647 
L 290.234704 77.092747 
L 304.918914 77.202418 
L 319.603125 77.111025 
" clip-path="url(#pec2a5a3f45)" style="fill: none; stroke: #ff1e00; stroke-width: 1.5; stroke-linecap: square"/>
   </g>
   <g id="line2d_17">
    <path d="M 40.603125 27.758756 
L 55.287336 52.663373 
L 69.971546 63.603126 
L 84.655757 71.124778 
L 99.339967 75.740129 
L 114.024178 76.562667 
L 128.708388 77.293812 
L 143.392599 77.330369 
L 158.076809 77.348647 
L 172.76102 77.18414 
L 187.44523 77.275533 
L 202.129441 77.238976 
L 216.813651 77.275533 
L 231.497862 77.366926 
L 246.182072 77.220697 
L 260.866283 77.092747 
L 275.550493 77.330369 
L 290.234704 77.293812 
L 304.918914 77.348647 
L 319.603125 77.330369 
" clip-path="url(#pec2a5a3f45)" style="fill: none; stroke: #800000; stroke-width: 1.5; stroke-linecap: square"/>
   </g>
   <g id="line2d_18">
    <path d="M 40.603125 77.092747 
L 319.603125 77.092747 
" clip-path="url(#pec2a5a3f45)" style="fill: none; stroke-dasharray: 5.55,2.4; stroke-dashoffset: 0; stroke: #808080; stroke-width: 1.5"/>
   </g>
   <g id="patch_3">
    <path d="M 40.603125 85.318125 
L 40.603125 22.318125 
" style="fill: none; stroke: #000000; stroke-width: 0.8; stroke-linejoin: miter; stroke-linecap: square"/>
   </g>
   <g id="patch_4">
    <path d="M 40.603125 85.318125 
L 319.603125 85.318125 
" style="fill: none; stroke: #000000; stroke-width: 0.8; stroke-linejoin: miter; stroke-linecap: square"/>
   </g>
   <g id="text_9">
    <!-- Linear Track -->
    <g transform="translate(143.851875 16.318125) scale(0.12 -0.12)">
     <defs>
      <path id="DejaVuSans-4c" d="M 628 4666 
L 1259 4666 
L 1259 531 
L 3531 531 
L 3531 0 
L 628 0 
L 628 4666 
z
" transform="scale(0.015625)"/>
      <path id="DejaVuSans-69" d="M 603 3500 
L 1178 3500 
L 1178 0 
L 603 0 
L 603 3500 
z
M 603 4863 
L 1178 4863 
L 1178 4134 
L 603 4134 
L 603 4863 
z
" transform="scale(0.015625)"/>
      <path id="DejaVuSans-6e" d="M 3513 2113 
L 3513 0 
L 2938 0 
L 2938 2094 
Q 2938 2591 2744 2837 
Q 2550 3084 2163 3084 
Q 1697 3084 1428 2787 
Q 1159 2491 1159 1978 
L 1159 0 
L 581 0 
L 581 3500 
L 1159 3500 
L 1159 2956 
Q 1366 3272 1645 3428 
Q 1925 3584 2291 3584 
Q 2894 3584 3203 3211 
Q 3513 2838 3513 2113 
z
" transform="scale(0.015625)"/>
      <path id="DejaVuSans-65" d="M 3597 1894 
L 3597 1613 
L 953 1613 
Q 991 1019 1311 708 
Q 1631 397 2203 397 
Q 2534 397 2845 478 
Q 3156 559 3463 722 
L 3463 178 
Q 3153 47 2828 -22 
Q 2503 -91 2169 -91 
Q 1331 -91 842 396 
Q 353 884 353 1716 
Q 353 2575 817 3079 
Q 1281 3584 2069 3584 
Q 2775 3584 3186 3129 
Q 3597 2675 3597 1894 
z
M 3022 2063 
Q 3016 2534 2758 2815 
Q 2500 3097 2075 3097 
Q 1594 3097 1305 2825 
Q 1016 2553 972 2059 
L 3022 2063 
z
" transform="scale(0.015625)"/>
      <path id="DejaVuSans-61" d="M 2194 1759 
Q 1497 1759 1228 1600 
Q 959 1441 959 1056 
Q 959 750 1161 570 
Q 1363 391 1709 391 
Q 2188 391 2477 730 
Q 2766 1069 2766 1631 
L 2766 1759 
L 2194 1759 
z
M 3341 1997 
L 3341 0 
L 2766 0 
L 2766 531 
Q 2569 213 2275 61 
Q 1981 -91 1556 -91 
Q 1019 -91 701 211 
Q 384 513 384 1019 
Q 384 1609 779 1909 
Q 1175 2209 1959 2209 
L 2766 2209 
L 2766 2266 
Q 2766 2663 2505 2880 
Q 2244 3097 1772 3097 
Q 1472 3097 1187 3025 
Q 903 2953 641 2809 
L 641 3341 
Q 956 3463 1253 3523 
Q 1550 3584 1831 3584 
Q 2591 3584 2966 3190 
Q 3341 2797 3341 1997 
z
" transform="scale(0.015625)"/>
      <path id="DejaVuSans-72" d="M 2631 2963 
Q 2534 3019 2420 3045 
Q 2306 3072 2169 3072 
Q 1681 3072 1420 2755 
Q 1159 2438 1159 1844 
L 1159 0 
L 581 0 
L 581 3500 
L 1159 3500 
L 1159 2956 
Q 1341 3275 1631 3429 
Q 1922 3584 2338 3584 
Q 2397 3584 2469 3576 
Q 2541 3569 2628 3553 
L 2631 2963 
z
" transform="scale(0.015625)"/>
      <path id="DejaVuSans-20" transform="scale(0.015625)"/>
      <path id="DejaVuSans-54" d="M -19 4666 
L 3928 4666 
L 3928 4134 
L 2272 4134 
L 2272 0 
L 1638 0 
L 1638 4134 
L -19 4134 
L -19 4666 
z
" transform="scale(0.015625)"/>
      <path id="DejaVuSans-63" d="M 3122 3366 
L 3122 2828 
Q 2878 2963 2633 3030 
Q 2388 3097 2138 3097 
Q 1578 3097 1268 2742 
Q 959 2388 959 1747 
Q 959 1106 1268 751 
Q 1578 397 2138 397 
Q 2388 397 2633 464 
Q 2878 531 3122 666 
L 3122 134 
Q 2881 22 2623 -34 
Q 2366 -91 2075 -91 
Q 1284 -91 818 406 
Q 353 903 353 1747 
Q 353 2603 823 3093 
Q 1294 3584 2113 3584 
Q 2378 3584 2631 3529 
Q 2884 3475 3122 3366 
z
" transform="scale(0.015625)"/>
      <path id="DejaVuSans-6b" d="M 581 4863 
L 1159 4863 
L 1159 1991 
L 2875 3500 
L 3609 3500 
L 1753 1863 
L 3688 0 
L 2938 0 
L 1159 1709 
L 1159 0 
L 581 0 
L 581 4863 
z
" transform="scale(0.015625)"/>
     </defs>
     <use xlink:href="#DejaVuSans-4c"/>
     <use xlink:href="#DejaVuSans-69" x="55.712891"/>
     <use xlink:href="#DejaVuSans-6e" x="83.496094"/>
     <use xlink:href="#DejaVuSans-65" x="146.875"/>
     <use xlink:href="#DejaVuSans-61" x="208.398438"/>
     <use xlink:href="#DejaVuSans-72" x="269.677734"/>
     <use xlink:href="#DejaVuSans-20" x="310.791016"/>
     <use xlink:href="#DejaVuSans-54" x="342.578125"/>
     <use xlink:href="#DejaVuSans-72" x="388.912109"/>
     <use xlink:href="#DejaVuSans-61" x="430.025391"/>
     <use xlink:href="#DejaVuSans-63" x="491.304688"/>
     <use xlink:href="#DejaVuSans-6b" x="546.285156"/>
    </g>
   </g>
  </g>
  <g id="axes_2">
   <g id="patch_5">
    <path d="M 40.603125 192.418125 
L 319.603125 192.418125 
L 319.603125 129.418125 
L 40.603125 129.418125 
z
" style="fill: #ffffff"/>
   </g>
   <g id="matplotlib.axis_3">
    <g id="xtick_6">
     <g id="line2d_19">
      <g>
       <use xlink:href="#m95bb6ba466" x="40.603125" y="192.418125" style="stroke: #000000; stroke-width: 0.8"/>
      </g>
     </g>
     <g id="text_10">
      <!-- 1 -->
      <g transform="translate(37.421875 207.016562) scale(0.1 -0.1)">
       <use xlink:href="#DejaVuSans-31"/>
      </g>
     </g>
    </g>
    <g id="xtick_7">
     <g id="line2d_20">
      <g>
       <use xlink:href="#m95bb6ba466" x="94.14858" y="192.418125" style="stroke: #000000; stroke-width: 0.8"/>
      </g>
     </g>
     <g id="text_11">
      <!-- 20 -->
      <g transform="translate(87.78608 207.016562) scale(0.1 -0.1)">
       <use xlink:href="#DejaVuSans-32"/>
       <use xlink:href="#DejaVuSans-30" x="63.623047"/>
      </g>
     </g>
    </g>
    <g id="xtick_8">
     <g id="line2d_21">
      <g>
       <use xlink:href="#m95bb6ba466" x="150.512216" y="192.418125" style="stroke: #000000; stroke-width: 0.8"/>
      </g>
     </g>
     <g id="text_12">
      <!-- 40 -->
      <g transform="translate(144.149716 207.016562) scale(0.1 -0.1)">
       <defs>
        <path id="DejaVuSans-34" d="M 2419 4116 
L 825 1625 
L 2419 1625 
L 2419 4116 
z
M 2253 4666 
L 3047 4666 
L 3047 1625 
L 3713 1625 
L 3713 1100 
L 3047 1100 
L 3047 0 
L 2419 0 
L 2419 1100 
L 313 1100 
L 313 1709 
L 2253 4666 
z
" transform="scale(0.015625)"/>
       </defs>
       <use xlink:href="#DejaVuSans-34"/>
       <use xlink:href="#DejaVuSans-30" x="63.623047"/>
      </g>
     </g>
    </g>
    <g id="xtick_9">
     <g id="line2d_22">
      <g>
       <use xlink:href="#m95bb6ba466" x="206.875852" y="192.418125" style="stroke: #000000; stroke-width: 0.8"/>
      </g>
     </g>
     <g id="text_13">
      <!-- 60 -->
      <g transform="translate(200.513352 207.016562) scale(0.1 -0.1)">
       <defs>
        <path id="DejaVuSans-36" d="M 2113 2584 
Q 1688 2584 1439 2293 
Q 1191 2003 1191 1497 
Q 1191 994 1439 701 
Q 1688 409 2113 409 
Q 2538 409 2786 701 
Q 3034 994 3034 1497 
Q 3034 2003 2786 2293 
Q 2538 2584 2113 2584 
z
M 3366 4563 
L 3366 3988 
Q 3128 4100 2886 4159 
Q 2644 4219 2406 4219 
Q 1781 4219 1451 3797 
Q 1122 3375 1075 2522 
Q 1259 2794 1537 2939 
Q 1816 3084 2150 3084 
Q 2853 3084 3261 2657 
Q 3669 2231 3669 1497 
Q 3669 778 3244 343 
Q 2819 -91 2113 -91 
Q 1303 -91 875 529 
Q 447 1150 447 2328 
Q 447 3434 972 4092 
Q 1497 4750 2381 4750 
Q 2619 4750 2861 4703 
Q 3103 4656 3366 4563 
z
" transform="scale(0.015625)"/>
       </defs>
       <use xlink:href="#DejaVuSans-36"/>
       <use xlink:href="#DejaVuSans-30" x="63.623047"/>
      </g>
     </g>
    </g>
    <g id="xtick_10">
     <g id="line2d_23">
      <g>
       <use xlink:href="#m95bb6ba466" x="263.239489" y="192.418125" style="stroke: #000000; stroke-width: 0.8"/>
      </g>
     </g>
     <g id="text_14">
      <!-- 80 -->
      <g transform="translate(256.876989 207.016562) scale(0.1 -0.1)">
       <defs>
        <path id="DejaVuSans-38" d="M 2034 2216 
Q 1584 2216 1326 1975 
Q 1069 1734 1069 1313 
Q 1069 891 1326 650 
Q 1584 409 2034 409 
Q 2484 409 2743 651 
Q 3003 894 3003 1313 
Q 3003 1734 2745 1975 
Q 2488 2216 2034 2216 
z
M 1403 2484 
Q 997 2584 770 2862 
Q 544 3141 544 3541 
Q 544 4100 942 4425 
Q 1341 4750 2034 4750 
Q 2731 4750 3128 4425 
Q 3525 4100 3525 3541 
Q 3525 3141 3298 2862 
Q 3072 2584 2669 2484 
Q 3125 2378 3379 2068 
Q 3634 1759 3634 1313 
Q 3634 634 3220 271 
Q 2806 -91 2034 -91 
Q 1263 -91 848 271 
Q 434 634 434 1313 
Q 434 1759 690 2068 
Q 947 2378 1403 2484 
z
M 1172 3481 
Q 1172 3119 1398 2916 
Q 1625 2713 2034 2713 
Q 2441 2713 2670 2916 
Q 2900 3119 2900 3481 
Q 2900 3844 2670 4047 
Q 2441 4250 2034 4250 
Q 1625 4250 1398 4047 
Q 1172 3844 1172 3481 
z
" transform="scale(0.015625)"/>
       </defs>
       <use xlink:href="#DejaVuSans-38"/>
       <use xlink:href="#DejaVuSans-30" x="63.623047"/>
      </g>
     </g>
    </g>
    <g id="xtick_11">
     <g id="line2d_24">
      <g>
       <use xlink:href="#m95bb6ba466" x="319.603125" y="192.418125" style="stroke: #000000; stroke-width: 0.8"/>
      </g>
     </g>
     <g id="text_15">
      <!-- 100 -->
      <g transform="translate(310.059375 207.016562) scale(0.1 -0.1)">
       <use xlink:href="#DejaVuSans-31"/>
       <use xlink:href="#DejaVuSans-30" x="63.623047"/>
       <use xlink:href="#DejaVuSans-30" x="127.246094"/>
      </g>
     </g>
    </g>
   </g>
   <g id="matplotlib.axis_4">
    <g id="ytick_4">
     <g id="line2d_25">
      <g>
       <use xlink:href="#m3771753b30" x="40.603125" y="192.418125" style="stroke: #000000; stroke-width: 0.8"/>
      </g>
     </g>
     <g id="text_16">
      <!-- 0 -->
      <g transform="translate(27.240625 196.217344) scale(0.1 -0.1)">
       <use xlink:href="#DejaVuSans-30"/>
      </g>
     </g>
    </g>
    <g id="ytick_5">
     <g id="line2d_26">
      <g>
       <use xlink:href="#m3771753b30" x="40.603125" y="160.479285" style="stroke: #000000; stroke-width: 0.8"/>
      </g>
     </g>
     <g id="text_17">
      <!-- 50 -->
      <g transform="translate(20.878125 164.278504) scale(0.1 -0.1)">
       <use xlink:href="#DejaVuSans-35"/>
       <use xlink:href="#DejaVuSans-30" x="63.623047"/>
      </g>
     </g>
    </g>
    <g id="text_18">
     <!-- Escape Latency [#steps] -->
     <g transform="translate(14.798438 223.200156) rotate(-90) scale(0.1 -0.1)">
      <defs>
       <path id="DejaVuSans-45" d="M 628 4666 
L 3578 4666 
L 3578 4134 
L 1259 4134 
L 1259 2753 
L 3481 2753 
L 3481 2222 
L 1259 2222 
L 1259 531 
L 3634 531 
L 3634 0 
L 628 0 
L 628 4666 
z
" transform="scale(0.015625)"/>
       <path id="DejaVuSans-73" d="M 2834 3397 
L 2834 2853 
Q 2591 2978 2328 3040 
Q 2066 3103 1784 3103 
Q 1356 3103 1142 2972 
Q 928 2841 928 2578 
Q 928 2378 1081 2264 
Q 1234 2150 1697 2047 
L 1894 2003 
Q 2506 1872 2764 1633 
Q 3022 1394 3022 966 
Q 3022 478 2636 193 
Q 2250 -91 1575 -91 
Q 1294 -91 989 -36 
Q 684 19 347 128 
L 347 722 
Q 666 556 975 473 
Q 1284 391 1588 391 
Q 1994 391 2212 530 
Q 2431 669 2431 922 
Q 2431 1156 2273 1281 
Q 2116 1406 1581 1522 
L 1381 1569 
Q 847 1681 609 1914 
Q 372 2147 372 2553 
Q 372 3047 722 3315 
Q 1072 3584 1716 3584 
Q 2034 3584 2315 3537 
Q 2597 3491 2834 3397 
z
" transform="scale(0.015625)"/>
       <path id="DejaVuSans-70" d="M 1159 525 
L 1159 -1331 
L 581 -1331 
L 581 3500 
L 1159 3500 
L 1159 2969 
Q 1341 3281 1617 3432 
Q 1894 3584 2278 3584 
Q 2916 3584 3314 3078 
Q 3713 2572 3713 1747 
Q 3713 922 3314 415 
Q 2916 -91 2278 -91 
Q 1894 -91 1617 61 
Q 1341 213 1159 525 
z
M 3116 1747 
Q 3116 2381 2855 2742 
Q 2594 3103 2138 3103 
Q 1681 3103 1420 2742 
Q 1159 2381 1159 1747 
Q 1159 1113 1420 752 
Q 1681 391 2138 391 
Q 2594 391 2855 752 
Q 3116 1113 3116 1747 
z
" transform="scale(0.015625)"/>
       <path id="DejaVuSans-74" d="M 1172 4494 
L 1172 3500 
L 2356 3500 
L 2356 3053 
L 1172 3053 
L 1172 1153 
Q 1172 725 1289 603 
Q 1406 481 1766 481 
L 2356 481 
L 2356 0 
L 1766 0 
Q 1100 0 847 248 
Q 594 497 594 1153 
L 594 3053 
L 172 3053 
L 172 3500 
L 594 3500 
L 594 4494 
L 1172 4494 
z
" transform="scale(0.015625)"/>
       <path id="DejaVuSans-79" d="M 2059 -325 
Q 1816 -950 1584 -1140 
Q 1353 -1331 966 -1331 
L 506 -1331 
L 506 -850 
L 844 -850 
Q 1081 -850 1212 -737 
Q 1344 -625 1503 -206 
L 1606 56 
L 191 3500 
L 800 3500 
L 1894 763 
L 2988 3500 
L 3597 3500 
L 2059 -325 
z
" transform="scale(0.015625)"/>
       <path id="DejaVuSans-5b" d="M 550 4863 
L 1875 4863 
L 1875 4416 
L 1125 4416 
L 1125 -397 
L 1875 -397 
L 1875 -844 
L 550 -844 
L 550 4863 
z
" transform="scale(0.015625)"/>
       <path id="DejaVuSans-23" d="M 3272 2816 
L 2363 2816 
L 2100 1772 
L 3016 1772 
L 3272 2816 
z
M 2803 4594 
L 2478 3297 
L 3391 3297 
L 3719 4594 
L 4219 4594 
L 3897 3297 
L 4872 3297 
L 4872 2816 
L 3775 2816 
L 3519 1772 
L 4513 1772 
L 4513 1294 
L 3397 1294 
L 3072 0 
L 2572 0 
L 2894 1294 
L 1978 1294 
L 1656 0 
L 1153 0 
L 1478 1294 
L 494 1294 
L 494 1772 
L 1594 1772 
L 1856 2816 
L 850 2816 
L 850 3297 
L 1978 3297 
L 2297 4594 
L 2803 4594 
z
" transform="scale(0.015625)"/>
       <path id="DejaVuSans-5d" d="M 1947 4863 
L 1947 -844 
L 622 -844 
L 622 -397 
L 1369 -397 
L 1369 4416 
L 622 4416 
L 622 4863 
L 1947 4863 
z
" transform="scale(0.015625)"/>
      </defs>
      <use xlink:href="#DejaVuSans-45"/>
      <use xlink:href="#DejaVuSans-73" x="63.183594"/>
      <use xlink:href="#DejaVuSans-63" x="115.283203"/>
      <use xlink:href="#DejaVuSans-61" x="170.263672"/>
      <use xlink:href="#DejaVuSans-70" x="231.542969"/>
      <use xlink:href="#DejaVuSans-65" x="295.019531"/>
      <use xlink:href="#DejaVuSans-20" x="356.542969"/>
      <use xlink:href="#DejaVuSans-4c" x="388.330078"/>
      <use xlink:href="#DejaVuSans-61" x="444.042969"/>
      <use xlink:href="#DejaVuSans-74" x="505.322266"/>
      <use xlink:href="#DejaVuSans-65" x="544.53125"/>
      <use xlink:href="#DejaVuSans-6e" x="606.054688"/>
      <use xlink:href="#DejaVuSans-63" x="669.433594"/>
      <use xlink:href="#DejaVuSans-79" x="724.414062"/>
      <use xlink:href="#DejaVuSans-20" x="783.59375"/>
      <use xlink:href="#DejaVuSans-5b" x="815.380859"/>
      <use xlink:href="#DejaVuSans-23" x="854.394531"/>
      <use xlink:href="#DejaVuSans-73" x="938.183594"/>
      <use xlink:href="#DejaVuSans-74" x="990.283203"/>
      <use xlink:href="#DejaVuSans-65" x="1029.492188"/>
      <use xlink:href="#DejaVuSans-70" x="1091.015625"/>
      <use xlink:href="#DejaVuSans-73" x="1154.492188"/>
      <use xlink:href="#DejaVuSans-5d" x="1206.591797"/>
     </g>
    </g>
   </g>
   <g id="line2d_27">
    <path d="M 40.603125 132.70527 
L 43.421307 132.871352 
L 46.239489 136.729564 
L 49.05767 141.75035 
L 51.875852 137.968791 
L 54.694034 145.059214 
L 57.512216 146.592278 
L 60.330398 152.354045 
L 63.14858 155.317969 
L 65.966761 156.033399 
L 68.784943 157.681443 
L 71.603125 160.798674 
L 74.421307 163.302679 
L 77.239489 166.534889 
L 80.05767 165.717255 
L 82.875852 167.965749 
L 85.694034 172.449962 
L 88.512216 173.293148 
L 91.330398 174.813437 
L 94.14858 175.273356 
L 96.966761 177.52185 
L 99.784943 178.709975 
L 102.603125 177.03638 
L 105.421307 179.476507 
L 108.239489 178.35226 
L 111.05767 180.639081 
L 113.875852 178.160627 
L 116.694034 180.98402 
L 119.512216 181.750553 
L 122.330398 182.04439 
L 125.14858 182.15937 
L 127.966761 182.41488 
L 130.784943 184.203455 
L 133.603125 182.338227 
L 136.421307 183.462474 
L 139.239489 184.0757 
L 142.05767 183.820189 
L 144.875852 183.283617 
L 147.694034 183.756312 
L 150.512216 183.615781 
L 153.330398 184.050149 
L 156.14858 183.820189 
L 158.966761 183.155861 
L 161.784943 183.999047 
L 164.603125 184.318435 
L 167.421307 183.781863 
L 170.239489 184.343986 
L 173.05767 183.999047 
L 175.875852 184.011822 
L 178.694034 183.896843 
L 181.512216 184.458966 
L 184.330398 184.650599 
L 187.14858 182.248798 
L 189.966761 184.356762 
L 192.784943 184.433415 
L 195.603125 184.280109 
L 198.421307 184.433415 
L 201.239489 184.765579 
L 204.05767 184.918885 
L 206.875852 183.794638 
L 209.694034 184.152353 
L 212.512216 184.688926 
L 215.330398 184.740028 
L 218.14858 184.433415 
L 220.966761 183.909618 
L 223.784943 185.02109 
L 226.603125 184.165129 
L 229.421307 183.909618 
L 232.239489 183.909618 
L 235.05767 184.30566 
L 237.875852 184.663375 
L 240.694034 184.548395 
L 243.512216 185.008314 
L 246.330398 184.714477 
L 249.14858 184.944437 
L 251.966761 184.855008 
L 254.784943 184.727252 
L 257.603125 185.008314 
L 260.421307 185.084967 
L 263.239489 185.199947 
L 266.05767 184.688926 
L 268.875852 184.867783 
L 271.694034 185.187172 
L 274.512216 184.893334 
L 277.330398 185.353254 
L 280.14858 184.254558 
L 282.966761 185.097743 
L 285.784943 184.67615 
L 288.603125 184.254558 
L 291.421307 184.893334 
L 294.239489 185.084967 
L 297.05767 184.855008 
L 299.875852 185.161621 
L 302.694034 185.123294 
L 305.512216 185.059416 
L 308.330398 184.650599 
L 311.14858 185.008314 
L 313.966761 185.314927 
L 316.784943 184.612273 
L 319.603125 185.187172 
" clip-path="url(#pb702f71468)" style="fill: none; stroke: #000080; stroke-width: 1.5; stroke-linecap: square"/>
   </g>
   <g id="line2d_28">
    <path d="M 40.603125 134.417192 
L 43.421307 135.91193 
L 46.239489 142.248596 
L 49.05767 145.238071 
L 51.875852 148.981303 
L 54.694034 153.810456 
L 57.512216 156.799931 
L 60.330398 158.907894 
L 63.14858 163.187699 
L 65.966761 163.341005 
L 68.784943 164.797416 
L 71.603125 168.310689 
L 74.421307 171.68343 
L 77.239489 170.840245 
L 80.05767 173.11429 
L 82.875852 173.71474 
L 85.694034 175.937684 
L 88.512216 178.914384 
L 91.330398 179.540385 
L 94.14858 179.425405 
L 96.966761 178.748302 
L 99.784943 178.888833 
L 102.603125 181.980512 
L 105.421307 181.878308 
L 108.239489 182.146594 
L 111.05767 182.018839 
L 113.875852 180.945694 
L 116.694034 182.146594 
L 119.512216 183.028106 
L 122.330398 181.648348 
L 125.14858 182.836473 
L 127.966761 181.92941 
L 130.784943 183.398597 
L 133.603125 181.456715 
L 136.421307 182.836473 
L 139.239489 183.577454 
L 142.05767 183.96072 
L 144.875852 183.84574 
L 147.694034 182.721493 
L 150.512216 183.258066 
L 153.330398 183.424148 
L 156.14858 182.402105 
L 158.966761 183.539128 
L 161.784943 184.267333 
L 164.603125 184.688926 
L 167.421307 183.666883 
L 170.239489 184.446191 
L 173.05767 184.088476 
L 175.875852 183.168637 
L 178.694034 184.586722 
L 181.512216 184.714477 
L 184.330398 184.114027 
L 187.14858 184.497293 
L 189.966761 184.548395 
L 192.784943 184.30566 
L 195.603125 183.59023 
L 198.421307 184.497293 
L 201.239489 183.756312 
L 204.05767 184.446191 
L 206.875852 184.446191 
L 209.694034 184.254558 
L 212.512216 184.67615 
L 215.330398 184.0757 
L 218.14858 184.778355 
L 220.966761 184.497293 
L 223.784943 184.101251 
L 226.603125 185.008314 
L 229.421307 184.088476 
L 232.239489 183.909618 
L 235.05767 184.318435 
L 237.875852 183.756312 
L 240.694034 185.046641 
L 243.512216 184.318435 
L 246.330398 184.458966 
L 249.14858 184.688926 
L 251.966761 184.893334 
L 254.784943 184.855008 
L 257.603125 185.084967 
L 260.421307 184.765579 
L 263.239489 184.740028 
L 266.05767 184.880559 
L 268.875852 184.855008 
L 271.694034 184.663375 
L 274.512216 184.177904 
L 277.330398 184.855008 
L 280.14858 184.714477 
L 282.966761 184.931661 
L 285.784943 184.67615 
L 288.603125 184.548395 
L 291.421307 184.79113 
L 294.239489 184.586722 
L 297.05767 184.90611 
L 299.875852 184.688926 
L 302.694034 184.229007 
L 305.512216 185.123294 
L 308.330398 185.110518 
L 311.14858 185.097743 
L 313.966761 185.110518 
L 316.784943 185.148845 
L 319.603125 184.90611 
" clip-path="url(#pb702f71468)" style="fill: none; stroke: #0000ff; stroke-width: 1.5; stroke-linecap: square"/>
   </g>
   <g id="line2d_29">
    <path d="M 40.603125 134.506621 
L 43.421307 137.930465 
L 46.239489 140.549449 
L 49.05767 144.61207 
L 51.875852 149.096283 
L 54.694034 152.558453 
L 57.512216 156.276134 
L 60.330398 159.03565 
L 63.14858 159.086752 
L 65.966761 156.812707 
L 68.784943 163.09827 
L 71.603125 163.762598 
L 74.421307 165.934439 
L 77.239489 169.064445 
L 80.05767 171.338491 
L 82.875852 171.977268 
L 85.694034 172.922657 
L 88.512216 174.953967 
L 91.330398 174.672906 
L 94.14858 175.784377 
L 96.966761 177.355768 
L 99.784943 179.540385 
L 102.603125 178.633322 
L 105.421307 179.719242 
L 108.239489 180.409121 
L 111.05767 180.115284 
L 113.875852 182.351003 
L 116.694034 181.801655 
L 119.512216 182.389329 
L 122.330398 182.593738 
L 125.14858 183.641332 
L 127.966761 183.24529 
L 130.784943 182.121043 
L 133.603125 181.916635 
L 136.421307 182.862024 
L 139.239489 182.823698 
L 142.05767 183.743536 
L 144.875852 183.194188 
L 147.694034 183.858516 
L 150.512216 183.36027 
L 153.330398 184.497293 
L 156.14858 183.973496 
L 158.966761 183.47525 
L 161.784943 183.730761 
L 164.603125 183.743536 
L 167.421307 184.458966 
L 170.239489 183.24529 
L 173.05767 183.947945 
L 175.875852 183.909618 
L 178.694034 183.206964 
L 181.512216 183.59023 
L 184.330398 184.458966 
L 187.14858 184.241782 
L 189.966761 184.050149 
L 192.784943 184.30566 
L 195.603125 184.037373 
L 198.421307 184.395088 
L 201.239489 184.829457 
L 204.05767 183.603005 
L 206.875852 184.42064 
L 209.694034 184.573946 
L 212.512216 184.458966 
L 215.330398 184.612273 
L 218.14858 184.548395 
L 220.966761 184.0757 
L 223.784943 184.139578 
L 226.603125 184.803906 
L 229.421307 183.781863 
L 232.239489 184.497293 
L 235.05767 184.548395 
L 237.875852 184.688926 
L 240.694034 184.30566 
L 243.512216 185.008314 
L 246.330398 183.871292 
L 249.14858 184.688926 
L 251.966761 184.67615 
L 254.784943 184.446191 
L 257.603125 184.42064 
L 260.421307 184.586722 
L 263.239489 184.101251 
L 266.05767 184.90611 
L 268.875852 183.730761 
L 271.694034 184.101251 
L 274.512216 184.663375 
L 277.330398 184.918885 
L 280.14858 185.097743 
L 282.966761 184.855008 
L 285.784943 184.573946 
L 288.603125 184.829457 
L 291.421307 184.855008 
L 294.239489 184.114027 
L 297.05767 184.471742 
L 299.875852 184.982763 
L 302.694034 184.688926 
L 305.512216 184.893334 
L 308.330398 184.982763 
L 311.14858 184.510068 
L 313.966761 184.548395 
L 316.784943 184.586722 
L 319.603125 184.011822 
" clip-path="url(#pb702f71468)" style="fill: none; stroke: #0080ff; stroke-width: 1.5; stroke-linecap: square"/>
   </g>
   <g id="line2d_30">
    <path d="M 40.603125 132.092045 
L 43.421307 136.474053 
L 46.239489 136.908422 
L 49.05767 143.526149 
L 51.875852 147.805954 
L 54.694034 150.207755 
L 57.512216 153.363312 
L 60.330398 154.51311 
L 63.14858 156.978789 
L 65.966761 161.871819 
L 68.784943 161.948472 
L 71.603125 168.5662 
L 74.421307 170.559183 
L 77.239489 170.175917 
L 80.05767 171.057429 
L 82.875852 171.836737 
L 85.694034 176.742542 
L 88.512216 175.528867 
L 91.330398 177.240788 
L 94.14858 175.37556 
L 96.966761 178.888833 
L 99.784943 179.8981 
L 102.603125 176.43593 
L 105.421307 177.956218 
L 108.239489 178.684424 
L 111.05767 179.565936 
L 113.875852 178.147851 
L 116.694034 178.83773 
L 119.512216 180.766836 
L 122.330398 181.162878 
L 125.14858 181.92941 
L 127.966761 182.542636 
L 130.784943 182.197696 
L 133.603125 181.648348 
L 136.421307 181.661124 
L 139.239489 181.967737 
L 142.05767 183.973496 
L 144.875852 182.98978 
L 147.694034 183.539128 
L 150.512216 181.967737 
L 153.330398 183.258066 
L 156.14858 183.858516 
L 158.966761 183.462474 
L 161.784943 184.241782 
L 164.603125 184.126802 
L 167.421307 183.70521 
L 170.239489 184.395088 
L 173.05767 183.858516 
L 175.875852 184.548395 
L 178.694034 184.79113 
L 181.512216 184.510068 
L 184.330398 184.395088 
L 187.14858 183.181413 
L 189.966761 184.241782 
L 192.784943 184.395088 
L 195.603125 184.765579 
L 198.421307 184.216231 
L 201.239489 183.807414 
L 204.05767 184.586722 
L 206.875852 184.714477 
L 209.694034 183.947945 
L 212.512216 184.918885 
L 215.330398 184.829457 
L 218.14858 184.101251 
L 220.966761 185.123294 
L 223.784943 183.47525 
L 226.603125 184.356762 
L 229.421307 183.309168 
L 232.239489 183.922394 
L 235.05767 185.199947 
L 237.875852 184.101251 
L 240.694034 184.714477 
L 243.512216 184.637824 
L 246.330398 184.842232 
L 249.14858 184.30566 
L 251.966761 184.356762 
L 254.784943 184.56117 
L 257.603125 184.957212 
L 260.421307 184.280109 
L 263.239489 185.161621 
L 266.05767 185.033865 
L 268.875852 184.855008 
L 271.694034 184.625048 
L 274.512216 184.855008 
L 277.330398 184.944437 
L 280.14858 184.803906 
L 282.966761 184.803906 
L 285.784943 184.701701 
L 288.603125 184.484517 
L 291.421307 184.969988 
L 294.239489 184.471742 
L 297.05767 185.008314 
L 299.875852 184.982763 
L 302.694034 185.097743 
L 305.512216 184.995539 
L 308.330398 184.982763 
L 311.14858 184.816681 
L 313.966761 184.688926 
L 316.784943 184.292884 
L 319.603125 184.995539 
" clip-path="url(#pb702f71468)" style="fill: none; stroke: #16ffe1; stroke-width: 1.5; stroke-linecap: square"/>
   </g>
   <g id="line2d_31">
    <path d="M 40.603125 132.960781 
L 43.421307 136.410176 
L 46.239489 138.901405 
L 49.05767 144.969785 
L 51.875852 145.071989 
L 54.694034 148.406404 
L 57.512216 153.235557 
L 60.330398 156.710502 
L 63.14858 159.674427 
L 65.966761 162.740555 
L 68.784943 161.590757 
L 71.603125 168.796159 
L 74.421307 166.292154 
L 77.239489 169.715998 
L 80.05767 174.66013 
L 82.875852 172.51384 
L 85.694034 172.884331 
L 88.512216 178.518342 
L 91.330398 178.071198 
L 94.14858 179.131568 
L 96.966761 180.881816 
L 99.784943 179.834222 
L 102.603125 181.405613 
L 105.421307 179.629814 
L 108.239489 180.61353 
L 111.05767 181.610022 
L 113.875852 182.15937 
L 116.694034 182.146594 
L 119.512216 182.363778 
L 122.330398 181.035123 
L 125.14858 182.734269 
L 127.966761 183.219739 
L 130.784943 182.389329 
L 133.603125 182.197696 
L 136.421307 182.568187 
L 139.239489 182.619289 
L 142.05767 183.551903 
L 144.875852 183.36027 
L 147.694034 183.794638 
L 150.512216 182.951453 
L 153.330398 183.59023 
L 156.14858 181.622797 
L 158.966761 183.309168 
L 161.784943 184.165129 
L 164.603125 183.820189 
L 167.421307 184.395088 
L 170.239489 183.84574 
L 173.05767 184.407864 
L 175.875852 184.318435 
L 178.694034 184.050149 
L 181.512216 183.807414 
L 184.330398 183.666883 
L 187.14858 184.484517 
L 189.966761 184.369537 
L 192.784943 184.088476 
L 195.603125 184.701701 
L 198.421307 184.19068 
L 201.239489 184.458966 
L 204.05767 184.382313 
L 206.875852 184.331211 
L 209.694034 184.663375 
L 212.512216 184.573946 
L 215.330398 182.887575 
L 218.14858 184.548395 
L 220.966761 184.740028 
L 223.784943 184.829457 
L 226.603125 184.254558 
L 229.421307 184.382313 
L 232.239489 184.407864 
L 235.05767 184.433415 
L 237.875852 184.30566 
L 240.694034 184.778355 
L 243.512216 184.458966 
L 246.330398 184.803906 
L 249.14858 184.522844 
L 251.966761 184.177904 
L 254.784943 184.752803 
L 257.603125 184.688926 
L 260.421307 184.343986 
L 263.239489 184.318435 
L 266.05767 183.947945 
L 268.875852 184.867783 
L 271.694034 183.551903 
L 274.512216 184.586722 
L 277.330398 184.280109 
L 280.14858 184.522844 
L 282.966761 185.084967 
L 285.784943 184.177904 
L 288.603125 185.13607 
L 291.421307 184.880559 
L 294.239489 184.842232 
L 297.05767 184.867783 
L 299.875852 184.701701 
L 302.694034 184.292884 
L 305.512216 184.893334 
L 308.330398 184.880559 
L 311.14858 184.918885 
L 313.966761 184.765579 
L 316.784943 184.663375 
L 319.603125 184.318435 
" clip-path="url(#pb702f71468)" style="fill: none; stroke: #7dff7a; stroke-width: 1.5; stroke-linecap: square"/>
   </g>
   <g id="line2d_32">
    <path d="M 40.603125 134.302212 
L 43.421307 139.770142 
L 46.239489 141.213777 
L 49.05767 144.599294 
L 51.875852 147.167177 
L 54.694034 156.352787 
L 57.512216 156.071725 
L 60.330398 156.595522 
L 63.14858 160.734796 
L 65.966761 162.050676 
L 68.784943 165.12958 
L 71.603125 168.22126 
L 74.421307 170.48253 
L 77.239489 170.112039 
L 80.05767 171.057429 
L 82.875852 172.909882 
L 85.694034 172.731024 
L 88.512216 176.474256 
L 91.330398 178.939935 
L 94.14858 181.201205 
L 96.966761 181.086225 
L 99.784943 180.204713 
L 102.603125 180.49855 
L 105.421307 182.351003 
L 108.239489 181.737777 
L 111.05767 181.086225 
L 113.875852 182.52986 
L 116.694034 182.363778 
L 119.512216 182.402105 
L 122.330398 183.270841 
L 125.14858 183.13031 
L 127.966761 184.165129 
L 130.784943 182.517085 
L 133.603125 183.641332 
L 136.421307 183.896843 
L 139.239489 183.986271 
L 142.05767 184.037373 
L 144.875852 184.382313 
L 147.694034 184.458966 
L 150.512216 183.028106 
L 153.330398 184.331211 
L 156.14858 184.126802 
L 158.966761 184.369537 
L 161.784943 183.999047 
L 164.603125 183.488025 
L 167.421307 184.829457 
L 170.239489 184.139578 
L 173.05767 184.30566 
L 175.875852 184.816681 
L 178.694034 184.67615 
L 181.512216 184.088476 
L 184.330398 184.740028 
L 187.14858 184.254558 
L 189.966761 184.19068 
L 192.784943 183.794638 
L 195.603125 184.114027 
L 198.421307 184.471742 
L 201.239489 183.692434 
L 204.05767 184.535619 
L 206.875852 184.510068 
L 209.694034 183.781863 
L 212.512216 184.522844 
L 215.330398 183.603005 
L 218.14858 184.484517 
L 220.966761 184.586722 
L 223.784943 183.756312 
L 226.603125 184.829457 
L 229.421307 184.79113 
L 232.239489 184.573946 
L 235.05767 184.957212 
L 237.875852 184.343986 
L 240.694034 184.599497 
L 243.512216 184.982763 
L 246.330398 183.053657 
L 249.14858 184.752803 
L 251.966761 184.752803 
L 254.784943 184.650599 
L 257.603125 185.148845 
L 260.421307 184.203455 
L 263.239489 184.79113 
L 266.05767 184.931661 
L 268.875852 184.280109 
L 271.694034 184.727252 
L 274.512216 184.471742 
L 277.330398 184.625048 
L 280.14858 184.331211 
L 282.966761 184.573946 
L 285.784943 185.110518 
L 288.603125 184.918885 
L 291.421307 184.637824 
L 294.239489 184.42064 
L 297.05767 184.867783 
L 299.875852 185.289376 
L 302.694034 184.855008 
L 305.512216 185.212723 
L 308.330398 184.90611 
L 311.14858 185.123294 
L 313.966761 185.13607 
L 316.784943 184.714477 
L 319.603125 184.867783 
" clip-path="url(#pb702f71468)" style="fill: none; stroke: #e4ff13; stroke-width: 1.5; stroke-linecap: square"/>
   </g>
   <g id="line2d_33">
    <path d="M 40.603125 132.641393 
L 43.421307 138.377608 
L 46.239489 138.224302 
L 49.05767 146.477298 
L 51.875852 148.521384 
L 54.694034 152.085758 
L 57.512216 156.518869 
L 60.330398 156.799931 
L 63.14858 162.101778 
L 65.966761 160.798674 
L 68.784943 164.145864 
L 71.603125 167.033135 
L 74.421307 171.376817 
L 77.239489 169.677671 
L 80.05767 171.415144 
L 82.875852 173.293148 
L 85.694034 175.848255 
L 88.512216 175.350009 
L 91.330398 175.950459 
L 94.14858 178.646097 
L 96.966761 178.850506 
L 99.784943 181.32896 
L 102.603125 178.441689 
L 105.421307 179.936426 
L 108.239489 178.927159 
L 111.05767 182.082716 
L 113.875852 181.175653 
L 116.694034 181.175653 
L 119.512216 182.184921 
L 122.330398 181.980512 
L 125.14858 182.555411 
L 127.966761 183.334719 
L 130.784943 182.453207 
L 133.603125 183.769087 
L 136.421307 183.858516 
L 139.239489 182.695942 
L 142.05767 183.028106 
L 144.875852 183.551903 
L 147.694034 182.849249 
L 150.512216 183.283617 
L 153.330398 184.446191 
L 156.14858 184.395088 
L 158.966761 184.471742 
L 161.784943 184.024598 
L 164.603125 184.765579 
L 167.421307 183.36027 
L 170.239489 184.42064 
L 173.05767 183.781863 
L 175.875852 184.241782 
L 178.694034 184.254558 
L 181.512216 184.254558 
L 184.330398 183.539128 
L 187.14858 183.730761 
L 189.966761 184.522844 
L 192.784943 184.114027 
L 195.603125 184.765579 
L 198.421307 184.280109 
L 201.239489 184.535619 
L 204.05767 184.880559 
L 206.875852 184.880559 
L 209.694034 184.114027 
L 212.512216 184.79113 
L 215.330398 184.688926 
L 218.14858 184.637824 
L 220.966761 184.446191 
L 223.784943 184.867783 
L 226.603125 183.730761 
L 229.421307 183.999047 
L 232.239489 184.573946 
L 235.05767 184.356762 
L 237.875852 184.765579 
L 240.694034 184.203455 
L 243.512216 184.893334 
L 246.330398 184.67615 
L 249.14858 184.765579 
L 251.966761 184.458966 
L 254.784943 184.343986 
L 257.603125 184.67615 
L 260.421307 184.842232 
L 263.239489 184.701701 
L 266.05767 185.161621 
L 268.875852 185.13607 
L 271.694034 184.982763 
L 274.512216 184.471742 
L 277.330398 184.67615 
L 280.14858 184.67615 
L 282.966761 184.407864 
L 285.784943 184.931661 
L 288.603125 185.13607 
L 291.421307 184.969988 
L 294.239489 184.816681 
L 297.05767 184.114027 
L 299.875852 185.072192 
L 302.694034 184.880559 
L 305.512216 185.2766 
L 308.330398 185.072192 
L 311.14858 184.510068 
L 313.966761 184.292884 
L 316.784943 184.343986 
L 319.603125 185.02109 
" clip-path="url(#pb702f71468)" style="fill: none; stroke: #ff9400; stroke-width: 1.5; stroke-linecap: square"/>
   </g>
   <g id="line2d_34">
    <path d="M 40.603125 134.48107 
L 43.421307 138.645895 
L 46.239489 138.978058 
L 49.05767 141.929207 
L 51.875852 148.585261 
L 54.694034 151.395879 
L 57.512216 150.514367 
L 60.330398 152.545678 
L 63.14858 158.230791 
L 65.966761 160.734796 
L 68.784943 161.744063 
L 71.603125 166.969258 
L 74.421307 167.097013 
L 77.239489 166.867053 
L 80.05767 168.502322 
L 82.875852 168.655628 
L 85.694034 172.654371 
L 88.512216 171.376817 
L 91.330398 174.838988 
L 94.14858 175.848255 
L 96.966761 177.534626 
L 99.784943 179.540385 
L 102.603125 178.697199 
L 105.421307 180.511326 
L 108.239489 178.633322 
L 111.05767 180.472999 
L 113.875852 180.217488 
L 116.694034 181.750553 
L 119.512216 182.747044 
L 122.330398 181.763328 
L 125.14858 183.181413 
L 127.966761 182.491534 
L 130.784943 183.36027 
L 133.603125 183.820189 
L 136.421307 182.747044 
L 139.239489 181.993288 
L 142.05767 184.254558 
L 144.875852 183.986271 
L 147.694034 184.573946 
L 150.512216 184.701701 
L 153.330398 183.270841 
L 156.14858 183.040882 
L 158.966761 183.385821 
L 161.784943 184.280109 
L 164.603125 183.935169 
L 167.421307 184.101251 
L 170.239489 184.126802 
L 173.05767 184.484517 
L 175.875852 184.510068 
L 178.694034 184.484517 
L 181.512216 184.893334 
L 184.330398 183.730761 
L 187.14858 184.011822 
L 189.966761 183.947945 
L 192.784943 184.535619 
L 195.603125 184.382313 
L 198.421307 183.871292 
L 201.239489 183.615781 
L 204.05767 184.19068 
L 206.875852 184.650599 
L 209.694034 183.820189 
L 212.512216 184.599497 
L 215.330398 183.36027 
L 218.14858 184.688926 
L 220.966761 184.995539 
L 223.784943 184.829457 
L 226.603125 184.407864 
L 229.421307 184.625048 
L 232.239489 184.79113 
L 235.05767 184.050149 
L 237.875852 184.599497 
L 240.694034 185.059416 
L 243.512216 184.267333 
L 246.330398 185.072192 
L 249.14858 184.318435 
L 251.966761 184.740028 
L 254.784943 183.564679 
L 257.603125 184.957212 
L 260.421307 184.893334 
L 263.239489 185.072192 
L 266.05767 184.918885 
L 268.875852 185.059416 
L 271.694034 185.225498 
L 274.512216 184.586722 
L 277.330398 184.918885 
L 280.14858 185.50656 
L 282.966761 184.944437 
L 285.784943 184.957212 
L 288.603125 185.13607 
L 291.421307 185.263825 
L 294.239489 184.254558 
L 297.05767 184.893334 
L 299.875852 185.417131 
L 302.694034 185.225498 
L 305.512216 185.570438 
L 308.330398 184.369537 
L 311.14858 185.161621 
L 313.966761 185.442682 
L 316.784943 185.2766 
L 319.603125 185.340478 
" clip-path="url(#pb702f71468)" style="fill: none; stroke: #ff1e00; stroke-width: 1.5; stroke-linecap: square"/>
   </g>
   <g id="line2d_35">
    <path d="M 40.603125 134.864336 
L 43.421307 137.930465 
L 46.239489 141.839779 
L 49.05767 146.068481 
L 51.875852 148.087016 
L 54.694034 149.543427 
L 57.512216 151.332002 
L 60.330398 154.615314 
L 63.14858 157.97528 
L 65.966761 160.926429 
L 68.784943 162.523371 
L 71.603125 166.90538 
L 74.421307 167.978525 
L 77.239489 168.297913 
L 80.05767 168.489546 
L 82.875852 169.243303 
L 85.694034 173.254821 
L 88.512216 174.327966 
L 91.330398 175.7205 
L 94.14858 175.873806 
L 96.966761 176.729767 
L 99.784943 177.534626 
L 102.603125 179.18267 
L 105.421307 180.805163 
L 108.239489 180.370795 
L 111.05767 182.299901 
L 113.875852 181.341735 
L 116.694034 180.894592 
L 119.512216 182.018839 
L 122.330398 182.478758 
L 125.14858 183.13031 
L 127.966761 183.436923 
L 130.784943 183.947945 
L 133.603125 182.721493 
L 136.421307 183.896843 
L 139.239489 184.663375 
L 142.05767 184.957212 
L 144.875852 183.909618 
L 147.694034 183.871292 
L 150.512216 184.880559 
L 153.330398 184.740028 
L 156.14858 184.30566 
L 158.966761 184.30566 
L 161.784943 183.334719 
L 164.603125 184.752803 
L 167.421307 183.70521 
L 170.239489 184.241782 
L 173.05767 183.96072 
L 175.875852 184.893334 
L 178.694034 184.893334 
L 181.512216 184.497293 
L 184.330398 184.816681 
L 187.14858 184.292884 
L 189.966761 183.986271 
L 192.784943 184.050149 
L 195.603125 184.995539 
L 198.421307 184.30566 
L 201.239489 184.829457 
L 204.05767 185.097743 
L 206.875852 185.174396 
L 209.694034 184.050149 
L 212.512216 183.679658 
L 215.330398 183.743536 
L 218.14858 184.433415 
L 220.966761 185.314927 
L 223.784943 184.969988 
L 226.603125 184.382313 
L 229.421307 185.199947 
L 232.239489 184.612273 
L 235.05767 184.752803 
L 237.875852 184.944437 
L 240.694034 184.90611 
L 243.512216 185.570438 
L 246.330398 184.79113 
L 249.14858 185.13607 
L 251.966761 184.803906 
L 254.784943 184.957212 
L 257.603125 184.727252 
L 260.421307 184.969988 
L 263.239489 184.957212 
L 266.05767 185.072192 
L 268.875852 185.39158 
L 271.694034 184.829457 
L 274.512216 184.893334 
L 277.330398 184.969988 
L 280.14858 185.033865 
L 282.966761 185.314927 
L 285.784943 185.02109 
L 288.603125 184.957212 
L 291.421307 184.637824 
L 294.239489 184.701701 
L 297.05767 184.050149 
L 299.875852 185.008314 
L 302.694034 184.573946 
L 305.512216 185.033865 
L 308.330398 185.161621 
L 311.14858 184.982763 
L 313.966761 184.816681 
L 316.784943 185.251049 
L 319.603125 184.918885 
" clip-path="url(#pb702f71468)" style="fill: none; stroke: #800000; stroke-width: 1.5; stroke-linecap: square"/>
   </g>
   <g id="line2d_36">
    <path d="M 40.603125 186.030357 
L 319.603125 186.030357 
" clip-path="url(#pb702f71468)" style="fill: none; stroke-dasharray: 5.55,2.4; stroke-dashoffset: 0; stroke: #808080; stroke-width: 1.5"/>
   </g>
   <g id="patch_6">
    <path d="M 40.603125 192.418125 
L 40.603125 129.418125 
" style="fill: none; stroke: #000000; stroke-width: 0.8; stroke-linejoin: miter; stroke-linecap: square"/>
   </g>
   <g id="patch_7">
    <path d="M 40.603125 192.418125 
L 319.603125 192.418125 
" style="fill: none; stroke: #000000; stroke-width: 0.8; stroke-linejoin: miter; stroke-linecap: square"/>
   </g>
   <g id="text_19">
    <!-- Open Field -->
    <g transform="translate(148.319063 123.418125) scale(0.12 -0.12)">
     <defs>
      <path id="DejaVuSans-4f" d="M 2522 4238 
Q 1834 4238 1429 3725 
Q 1025 3213 1025 2328 
Q 1025 1447 1429 934 
Q 1834 422 2522 422 
Q 3209 422 3611 934 
Q 4013 1447 4013 2328 
Q 4013 3213 3611 3725 
Q 3209 4238 2522 4238 
z
M 2522 4750 
Q 3503 4750 4090 4092 
Q 4678 3434 4678 2328 
Q 4678 1225 4090 567 
Q 3503 -91 2522 -91 
Q 1538 -91 948 565 
Q 359 1222 359 2328 
Q 359 3434 948 4092 
Q 1538 4750 2522 4750 
z
" transform="scale(0.015625)"/>
      <path id="DejaVuSans-46" d="M 628 4666 
L 3309 4666 
L 3309 4134 
L 1259 4134 
L 1259 2759 
L 3109 2759 
L 3109 2228 
L 1259 2228 
L 1259 0 
L 628 0 
L 628 4666 
z
" transform="scale(0.015625)"/>
      <path id="DejaVuSans-6c" d="M 603 4863 
L 1178 4863 
L 1178 0 
L 603 0 
L 603 4863 
z
" transform="scale(0.015625)"/>
      <path id="DejaVuSans-64" d="M 2906 2969 
L 2906 4863 
L 3481 4863 
L 3481 0 
L 2906 0 
L 2906 525 
Q 2725 213 2448 61 
Q 2172 -91 1784 -91 
Q 1150 -91 751 415 
Q 353 922 353 1747 
Q 353 2572 751 3078 
Q 1150 3584 1784 3584 
Q 2172 3584 2448 3432 
Q 2725 3281 2906 2969 
z
M 947 1747 
Q 947 1113 1208 752 
Q 1469 391 1925 391 
Q 2381 391 2643 752 
Q 2906 1113 2906 1747 
Q 2906 2381 2643 2742 
Q 2381 3103 1925 3103 
Q 1469 3103 1208 2742 
Q 947 2381 947 1747 
z
" transform="scale(0.015625)"/>
     </defs>
     <use xlink:href="#DejaVuSans-4f"/>
     <use xlink:href="#DejaVuSans-70" x="78.710938"/>
     <use xlink:href="#DejaVuSans-65" x="142.1875"/>
     <use xlink:href="#DejaVuSans-6e" x="203.710938"/>
     <use xlink:href="#DejaVuSans-20" x="267.089844"/>
     <use xlink:href="#DejaVuSans-46" x="298.876953"/>
     <use xlink:href="#DejaVuSans-69" x="349.146484"/>
     <use xlink:href="#DejaVuSans-65" x="376.929688"/>
     <use xlink:href="#DejaVuSans-6c" x="438.453125"/>
     <use xlink:href="#DejaVuSans-64" x="466.236328"/>
    </g>
   </g>
  </g>
  <g id="axes_3">
   <g id="patch_8">
    <path d="M 40.603125 299.518125 
L 319.603125 299.518125 
L 319.603125 236.518125 
L 40.603125 236.518125 
z
" style="fill: #ffffff"/>
   </g>
   <g id="matplotlib.axis_5">
    <g id="xtick_12">
     <g id="line2d_37">
      <g>
       <use xlink:href="#m95bb6ba466" x="40.603125" y="299.518125" style="stroke: #000000; stroke-width: 0.8"/>
      </g>
     </g>
     <g id="text_20">
      <!-- 1 -->
      <g transform="translate(37.421875 314.116562) scale(0.1 -0.1)">
       <use xlink:href="#DejaVuSans-31"/>
      </g>
     </g>
    </g>
    <g id="xtick_13">
     <g id="line2d_38">
      <g>
       <use xlink:href="#m95bb6ba466" x="94.14858" y="299.518125" style="stroke: #000000; stroke-width: 0.8"/>
      </g>
     </g>
     <g id="text_21">
      <!-- 20 -->
      <g transform="translate(87.78608 314.116562) scale(0.1 -0.1)">
       <use xlink:href="#DejaVuSans-32"/>
       <use xlink:href="#DejaVuSans-30" x="63.623047"/>
      </g>
     </g>
    </g>
    <g id="xtick_14">
     <g id="line2d_39">
      <g>
       <use xlink:href="#m95bb6ba466" x="150.512216" y="299.518125" style="stroke: #000000; stroke-width: 0.8"/>
      </g>
     </g>
     <g id="text_22">
      <!-- 40 -->
      <g transform="translate(144.149716 314.116562) scale(0.1 -0.1)">
       <use xlink:href="#DejaVuSans-34"/>
       <use xlink:href="#DejaVuSans-30" x="63.623047"/>
      </g>
     </g>
    </g>
    <g id="xtick_15">
     <g id="line2d_40">
      <g>
       <use xlink:href="#m95bb6ba466" x="206.875852" y="299.518125" style="stroke: #000000; stroke-width: 0.8"/>
      </g>
     </g>
     <g id="text_23">
      <!-- 60 -->
      <g transform="translate(200.513352 314.116562) scale(0.1 -0.1)">
       <use xlink:href="#DejaVuSans-36"/>
       <use xlink:href="#DejaVuSans-30" x="63.623047"/>
      </g>
     </g>
    </g>
    <g id="xtick_16">
     <g id="line2d_41">
      <g>
       <use xlink:href="#m95bb6ba466" x="263.239489" y="299.518125" style="stroke: #000000; stroke-width: 0.8"/>
      </g>
     </g>
     <g id="text_24">
      <!-- 80 -->
      <g transform="translate(256.876989 314.116562) scale(0.1 -0.1)">
       <use xlink:href="#DejaVuSans-38"/>
       <use xlink:href="#DejaVuSans-30" x="63.623047"/>
      </g>
     </g>
    </g>
    <g id="xtick_17">
     <g id="line2d_42">
      <g>
       <use xlink:href="#m95bb6ba466" x="319.603125" y="299.518125" style="stroke: #000000; stroke-width: 0.8"/>
      </g>
     </g>
     <g id="text_25">
      <!-- 100 -->
      <g transform="translate(310.059375 314.116562) scale(0.1 -0.1)">
       <use xlink:href="#DejaVuSans-31"/>
       <use xlink:href="#DejaVuSans-30" x="63.623047"/>
       <use xlink:href="#DejaVuSans-30" x="127.246094"/>
      </g>
     </g>
    </g>
    <g id="text_26">
     <!-- Trial -->
     <g transform="translate(169.889062 327.794687) scale(0.1 -0.1)">
      <use xlink:href="#DejaVuSans-54"/>
      <use xlink:href="#DejaVuSans-72" x="46.333984"/>
      <use xlink:href="#DejaVuSans-69" x="87.447266"/>
      <use xlink:href="#DejaVuSans-61" x="115.230469"/>
      <use xlink:href="#DejaVuSans-6c" x="176.509766"/>
     </g>
    </g>
   </g>
   <g id="matplotlib.axis_6">
    <g id="ytick_6">
     <g id="line2d_43">
      <g>
       <use xlink:href="#m3771753b30" x="40.603125" y="299.518125" style="stroke: #000000; stroke-width: 0.8"/>
      </g>
     </g>
     <g id="text_27">
      <!-- 0 -->
      <g transform="translate(27.240625 303.317344) scale(0.1 -0.1)">
       <use xlink:href="#DejaVuSans-30"/>
      </g>
     </g>
    </g>
    <g id="ytick_7">
     <g id="line2d_44">
      <g>
       <use xlink:href="#m3771753b30" x="40.603125" y="257.984684" style="stroke: #000000; stroke-width: 0.8"/>
      </g>
     </g>
     <g id="text_28">
      <!-- 200 -->
      <g transform="translate(14.515625 261.783903) scale(0.1 -0.1)">
       <use xlink:href="#DejaVuSans-32"/>
       <use xlink:href="#DejaVuSans-30" x="63.623047"/>
       <use xlink:href="#DejaVuSans-30" x="127.246094"/>
      </g>
     </g>
    </g>
   </g>
   <g id="line2d_45">
    <path d="M 40.603125 240.872906 
L 43.421307 248.191099 
L 46.239489 255.301624 
L 49.05767 261.215986 
L 51.875852 267.433542 
L 54.694034 273.833845 
L 57.512216 276.579206 
L 60.330398 279.407633 
L 63.14858 283.598357 
L 65.966761 287.274067 
L 68.784943 287.577261 
L 71.603125 288.437003 
L 74.421307 289.039238 
L 77.239489 289.890673 
L 80.05767 291.755525 
L 82.875852 292.490667 
L 85.694034 293.184275 
L 88.512216 293.250729 
L 91.330398 293.703443 
L 94.14858 293.757437 
L 96.966761 293.64945 
L 99.784943 293.819737 
L 102.603125 293.803124 
L 105.421307 293.68683 
L 108.239489 293.71175 
L 111.05767 293.68683 
L 113.875852 294.073091 
L 116.694034 293.944337 
L 119.512216 294.006637 
L 122.330398 293.994177 
L 125.14858 293.76159 
L 127.966761 293.765743 
L 130.784943 293.931877 
L 133.603125 293.969257 
L 136.421307 293.815584 
L 139.239489 293.906957 
L 142.05767 294.031557 
L 144.875852 293.906957 
L 147.694034 294.164464 
L 150.512216 294.172771 
L 153.330398 294.102164 
L 156.14858 293.948491 
L 158.966761 294.019097 
L 161.784943 294.102164 
L 164.603125 294.077244 
L 167.421307 294.164464 
L 170.239489 294.218458 
L 173.05767 294.073091 
L 175.875852 294.106318 
L 178.694034 293.969257 
L 181.512216 293.828044 
L 184.330398 294.064784 
L 187.14858 294.235071 
L 189.966761 294.019097 
L 192.784943 294.114624 
L 195.603125 293.985871 
L 198.421307 293.915264 
L 201.239489 294.189385 
L 204.05767 294.218458 
L 206.875852 294.251685 
L 209.694034 294.098011 
L 212.512216 293.890344 
L 215.330398 294.152004 
L 218.14858 294.193538 
L 220.966761 294.114624 
L 223.784943 294.355518 
L 226.603125 294.247531 
L 229.421307 294.301525 
L 232.239489 294.222611 
L 235.05767 294.230918 
L 237.875852 294.347212 
L 240.694034 294.426125 
L 243.512216 294.455199 
L 246.330398 294.347212 
L 249.14858 294.355518 
L 251.966761 294.181078 
L 254.784943 294.309831 
L 257.603125 294.484272 
L 260.421307 294.284911 
L 263.239489 294.318138 
L 266.05767 294.301525 
L 268.875852 294.359672 
L 271.694034 294.367978 
L 274.512216 294.459352 
L 277.330398 294.289065 
L 280.14858 294.351365 
L 282.966761 294.289065 
L 285.784943 294.284911 
L 288.603125 294.496732 
L 291.421307 294.426125 
L 294.239489 294.451045 
L 297.05767 294.480119 
L 299.875852 294.413665 
L 302.694034 294.359672 
L 305.512216 294.255838 
L 308.330398 294.322292 
L 311.14858 294.446892 
L 313.966761 294.417818 
L 316.784943 294.430278 
L 319.603125 294.384592 
" clip-path="url(#p7881b43765)" style="fill: none; stroke: #000080; stroke-width: 1.5; stroke-linecap: square"/>
   </g>
   <g id="line2d_46">
    <path d="M 40.603125 241.1138 
L 43.421307 250.01857 
L 46.239489 257.241235 
L 49.05767 263.325885 
L 51.875852 267.541529 
L 54.694034 270.083375 
L 57.512216 272.284648 
L 60.330398 275.532563 
L 63.14858 280.367055 
L 65.966761 283.860018 
L 68.784943 285.405062 
L 71.603125 287.593874 
L 74.421307 288.291636 
L 77.239489 290.310161 
L 80.05767 290.177254 
L 82.875852 290.563515 
L 85.694034 292.050412 
L 88.512216 292.727407 
L 91.330398 293.71175 
L 94.14858 293.703443 
L 96.966761 293.657756 
L 99.784943 293.529003 
L 102.603125 293.61207 
L 105.421307 293.69929 
L 108.239489 293.73667 
L 111.05767 293.86127 
L 113.875852 293.794817 
L 116.694034 293.77405 
L 119.512216 293.857117 
L 122.330398 293.952644 
L 125.14858 293.960951 
L 127.966761 293.803124 
L 130.784943 293.890344 
L 133.603125 293.753283 
L 136.421307 293.936031 
L 139.239489 293.931877 
L 142.05767 294.019097 
L 144.875852 294.060631 
L 147.694034 294.131238 
L 150.512216 294.002484 
L 153.330398 294.089704 
L 156.14858 293.87373 
L 158.966761 293.998331 
L 161.784943 294.085551 
L 164.603125 294.172771 
L 167.421307 294.230918 
L 170.239489 294.226765 
L 173.05767 294.214305 
L 175.875852 294.027404 
L 178.694034 294.305678 
L 181.512216 294.214305 
L 184.330398 294.235071 
L 187.14858 294.160311 
L 189.966761 294.226765 
L 192.784943 294.243378 
L 195.603125 294.205998 
L 198.421307 294.392898 
L 201.239489 294.259991 
L 204.05767 294.247531 
L 206.875852 294.301525 
L 209.694034 294.347212 
L 212.512216 294.405358 
L 215.330398 294.318138 
L 218.14858 294.318138 
L 220.966761 294.338905 
L 223.784943 294.185231 
L 226.603125 294.347212 
L 229.421307 294.264145 
L 232.239489 294.326445 
L 235.05767 294.114624 
L 237.875852 294.255838 
L 240.694034 294.401205 
L 243.512216 294.193538 
L 246.330398 294.347212 
L 249.14858 294.413665 
L 251.966761 294.264145 
L 254.784943 294.197691 
L 257.603125 294.397052 
L 260.421307 294.363825 
L 263.239489 294.359672 
L 266.05767 294.313985 
L 268.875852 294.268298 
L 271.694034 294.426125 
L 274.512216 294.538265 
L 277.330398 294.318138 
L 280.14858 294.318138 
L 282.966761 294.492579 
L 285.784943 294.509192 
L 288.603125 294.534112 
L 291.421307 294.301525 
L 294.239489 294.421972 
L 297.05767 294.480119 
L 299.875852 294.397052 
L 302.694034 294.455199 
L 305.512216 294.480119 
L 308.330398 294.521652 
L 311.14858 294.467659 
L 313.966761 294.467659 
L 316.784943 294.525805 
L 319.603125 294.488425 
" clip-path="url(#p7881b43765)" style="fill: none; stroke: #0000ff; stroke-width: 1.5; stroke-linecap: square"/>
   </g>
   <g id="line2d_47">
    <path d="M 40.603125 241.225941 
L 43.421307 247.975125 
L 46.239489 252.984058 
L 49.05767 259.305447 
L 51.875852 264.231314 
L 54.694034 268.571558 
L 57.512216 271.70318 
L 60.330398 276.437992 
L 63.14858 281.284944 
L 65.966761 283.129029 
L 68.784943 285.288768 
L 71.603125 287.701861 
L 74.421307 288.461923 
L 77.239489 288.540837 
L 80.05767 288.74435 
L 82.875852 289.126458 
L 85.694034 289.483646 
L 88.512216 289.82422 
L 91.330398 290.488755 
L 94.14858 291.35265 
L 96.966761 292.552967 
L 99.784943 293.101208 
L 102.603125 293.267342 
L 105.421307 293.275649 
L 108.239489 293.292262 
L 111.05767 293.317182 
L 113.875852 293.076288 
L 116.694034 293.379482 
L 119.512216 293.283956 
L 122.330398 293.263189 
L 125.14858 293.59961 
L 127.966761 293.790663 
L 130.784943 293.87373 
L 133.603125 293.740823 
L 136.421307 293.88619 
L 139.239489 294.002484 
L 142.05767 294.114624 
L 144.875852 294.114624 
L 147.694034 293.931877 
L 150.512216 293.985871 
L 153.330398 294.027404 
L 156.14858 294.156158 
L 158.966761 293.89865 
L 161.784943 294.073091 
L 164.603125 294.023251 
L 167.421307 294.010791 
L 170.239489 293.985871 
L 173.05767 294.201845 
L 175.875852 294.048171 
L 178.694034 294.077244 
L 181.512216 294.068938 
L 184.330398 294.056478 
L 187.14858 294.135391 
L 189.966761 294.189385 
L 192.784943 294.052324 
L 195.603125 294.131238 
L 198.421307 294.230918 
L 201.239489 294.060631 
L 204.05767 294.168618 
L 206.875852 294.176924 
L 209.694034 294.297371 
L 212.512216 294.313985 
L 215.330398 294.210151 
L 218.14858 294.347212 
L 220.966761 294.268298 
L 223.784943 294.176924 
L 226.603125 294.168618 
L 229.421307 294.164464 
L 232.239489 294.127084 
L 235.05767 294.127084 
L 237.875852 294.218458 
L 240.694034 294.164464 
L 243.512216 294.289065 
L 246.330398 294.397052 
L 249.14858 294.264145 
L 251.966761 294.264145 
L 254.784943 294.272451 
L 257.603125 294.164464 
L 260.421307 294.106318 
L 263.239489 294.239225 
L 266.05767 294.222611 
L 268.875852 294.247531 
L 271.694034 294.397052 
L 274.512216 294.326445 
L 277.330398 294.397052 
L 280.14858 294.326445 
L 282.966761 294.397052 
L 285.784943 294.318138 
L 288.603125 294.243378 
L 291.421307 294.359672 
L 294.239489 294.309831 
L 297.05767 294.347212 
L 299.875852 294.297371 
L 302.694034 294.384592 
L 305.512216 294.301525 
L 308.330398 294.434432 
L 311.14858 294.367978 
L 313.966761 294.405358 
L 316.784943 294.152004 
L 319.603125 294.355518 
" clip-path="url(#p7881b43765)" style="fill: none; stroke: #0080ff; stroke-width: 1.5; stroke-linecap: square"/>
   </g>
   <g id="line2d_48">
    <path d="M 40.603125 239.290482 
L 43.421307 243.626573 
L 46.239489 251.019526 
L 49.05767 255.579898 
L 51.875852 258.856886 
L 54.694034 262.204482 
L 57.512216 266.694247 
L 60.330398 271.105098 
L 63.14858 274.689434 
L 65.966761 278.452364 
L 68.784943 284.146598 
L 71.603125 285.068641 
L 74.421307 286.979179 
L 77.239489 288.158729 
L 80.05767 288.636363 
L 82.875852 290.110801 
L 85.694034 290.800256 
L 88.512216 291.531244 
L 91.330398 292.39514 
L 94.14858 292.768941 
L 96.966761 292.685874 
L 99.784943 293.433476 
L 102.603125 293.283956 
L 105.421307 293.944337 
L 108.239489 293.952644 
L 111.05767 293.88619 
L 113.875852 294.014944 
L 116.694034 293.977564 
L 119.512216 294.060631 
L 122.330398 294.135391 
L 125.14858 294.006637 
L 127.966761 294.048171 
L 130.784943 294.031557 
L 133.603125 294.081398 
L 136.421307 294.035711 
L 139.239489 293.82389 
L 142.05767 294.056478 
L 144.875852 294.098011 
L 147.694034 294.243378 
L 150.512216 294.214305 
L 153.330398 293.998331 
L 156.14858 293.990024 
L 158.966761 294.122931 
L 161.784943 294.073091 
L 164.603125 294.222611 
L 167.421307 294.338905 
L 170.239489 294.031557 
L 173.05767 294.147851 
L 175.875852 294.330598 
L 178.694034 294.214305 
L 181.512216 294.343058 
L 184.330398 294.147851 
L 187.14858 294.289065 
L 189.966761 294.351365 
L 192.784943 294.272451 
L 195.603125 294.355518 
L 198.421307 294.193538 
L 201.239489 294.164464 
L 204.05767 294.376285 
L 206.875852 294.235071 
L 209.694034 294.039864 
L 212.512216 294.280758 
L 215.330398 294.226765 
L 218.14858 294.110471 
L 220.966761 294.334752 
L 223.784943 294.318138 
L 226.603125 294.297371 
L 229.421307 294.268298 
L 232.239489 294.438585 
L 235.05767 294.426125 
L 237.875852 294.272451 
L 240.694034 294.430278 
L 243.512216 294.301525 
L 246.330398 294.363825 
L 249.14858 294.455199 
L 251.966761 294.388745 
L 254.784943 294.235071 
L 257.603125 294.289065 
L 260.421307 294.247531 
L 263.239489 294.330598 
L 266.05767 294.525805 
L 268.875852 294.322292 
L 271.694034 294.401205 
L 274.512216 294.392898 
L 277.330398 294.376285 
L 280.14858 294.397052 
L 282.966761 294.326445 
L 285.784943 294.397052 
L 288.603125 294.401205 
L 291.421307 294.409512 
L 294.239489 294.197691 
L 297.05767 294.446892 
L 299.875852 294.359672 
L 302.694034 294.554879 
L 305.512216 294.525805 
L 308.330398 294.384592 
L 311.14858 294.546572 
L 313.966761 294.484272 
L 316.784943 294.421972 
L 319.603125 294.583952 
" clip-path="url(#p7881b43765)" style="fill: none; stroke: #16ffe1; stroke-width: 1.5; stroke-linecap: square"/>
   </g>
   <g id="line2d_49">
    <path d="M 40.603125 240.291438 
L 43.421307 246.259794 
L 46.239489 251.405787 
L 49.05767 254.217601 
L 51.875852 259.816309 
L 54.694034 264.900002 
L 57.512216 271.005418 
L 60.330398 275.200295 
L 63.14858 276.288471 
L 65.966761 278.36099 
L 68.784943 280.562263 
L 71.603125 283.170563 
L 74.421307 283.810178 
L 77.239489 285.014647 
L 80.05767 286.082057 
L 82.875852 286.975026 
L 85.694034 288.466076 
L 88.512216 288.395469 
L 91.330398 290.222941 
L 94.14858 291.161597 
L 96.966761 292.121019 
L 99.784943 292.440827 
L 102.603125 292.802168 
L 105.421307 293.188429 
L 108.239489 293.529003 
L 111.05767 293.68683 
L 113.875852 293.865424 
L 116.694034 293.994177 
L 119.512216 293.931877 
L 122.330398 293.927724 
L 125.14858 293.952644 
L 127.966761 293.890344 
L 130.784943 293.952644 
L 133.603125 293.969257 
L 136.421307 293.994177 
L 139.239489 293.529003 
L 142.05767 294.002484 
L 144.875852 294.081398 
L 147.694034 293.952644 
L 150.512216 293.902804 
L 153.330398 294.164464 
L 156.14858 294.201845 
L 158.966761 294.048171 
L 161.784943 294.027404 
L 164.603125 294.093858 
L 167.421307 293.952644 
L 170.239489 294.085551 
L 173.05767 294.039864 
L 175.875852 293.882037 
L 178.694034 293.969257 
L 181.512216 294.110471 
L 184.330398 294.201845 
L 187.14858 294.064784 
L 189.966761 294.093858 
L 192.784943 294.035711 
L 195.603125 294.089704 
L 198.421307 294.102164 
L 201.239489 294.284911 
L 204.05767 294.131238 
L 206.875852 294.027404 
L 209.694034 294.172771 
L 212.512216 294.164464 
L 215.330398 294.264145 
L 218.14858 294.305678 
L 220.966761 294.255838 
L 223.784943 294.239225 
L 226.603125 294.185231 
L 229.421307 294.189385 
L 232.239489 294.214305 
L 235.05767 294.255838 
L 237.875852 294.272451 
L 240.694034 294.002484 
L 243.512216 294.276605 
L 246.330398 294.289065 
L 249.14858 294.392898 
L 251.966761 294.176924 
L 254.784943 294.243378 
L 257.603125 294.334752 
L 260.421307 294.318138 
L 263.239489 294.322292 
L 266.05767 294.226765 
L 268.875852 294.313985 
L 271.694034 294.380438 
L 274.512216 294.235071 
L 277.330398 294.471812 
L 280.14858 294.347212 
L 282.966761 294.397052 
L 285.784943 294.384592 
L 288.603125 294.384592 
L 291.421307 294.251685 
L 294.239489 294.359672 
L 297.05767 294.426125 
L 299.875852 294.172771 
L 302.694034 294.305678 
L 305.512216 294.525805 
L 308.330398 294.367978 
L 311.14858 294.318138 
L 313.966761 294.442739 
L 316.784943 294.289065 
L 319.603125 294.417818 
" clip-path="url(#p7881b43765)" style="fill: none; stroke: #7dff7a; stroke-width: 1.5; stroke-linecap: square"/>
   </g>
   <g id="line2d_50">
    <path d="M 40.603125 241.512521 
L 43.421307 247.725924 
L 46.239489 254.188527 
L 49.05767 255.932932 
L 51.875852 261.411193 
L 54.694034 267.823956 
L 57.512216 270.440563 
L 60.330398 273.862918 
L 63.14858 276.96962 
L 65.966761 278.867698 
L 68.784943 279.955874 
L 71.603125 283.469603 
L 74.421307 284.553626 
L 77.239489 286.763205 
L 80.05767 288.927098 
L 82.875852 290.825176 
L 85.694034 291.863512 
L 88.512216 292.033799 
L 91.330398 292.125172 
L 94.14858 292.133479 
L 96.966761 292.170859 
L 99.784943 292.141786 
L 102.603125 292.386833 
L 105.421307 292.378526 
L 108.239489 292.860314 
L 111.05767 292.768941 
L 113.875852 292.623574 
L 116.694034 293.130282 
L 119.512216 293.155202 
L 122.330398 293.383636 
L 125.14858 293.288109 
L 127.966761 293.466703 
L 130.784943 293.362869 
L 133.603125 293.570536 
L 136.421307 293.595456 
L 139.239489 293.890344 
L 142.05767 294.127084 
L 144.875852 294.122931 
L 147.694034 294.135391 
L 150.512216 294.014944 
L 153.330398 294.085551 
L 156.14858 294.118778 
L 158.966761 294.093858 
L 161.784943 294.122931 
L 164.603125 293.956797 
L 167.421307 294.106318 
L 170.239489 294.048171 
L 173.05767 294.152004 
L 175.875852 294.102164 
L 178.694034 294.085551 
L 181.512216 294.118778 
L 184.330398 294.284911 
L 187.14858 294.085551 
L 189.966761 294.122931 
L 192.784943 294.201845 
L 195.603125 294.243378 
L 198.421307 294.172771 
L 201.239489 294.309831 
L 204.05767 294.114624 
L 206.875852 294.147851 
L 209.694034 294.135391 
L 212.512216 294.301525 
L 215.330398 294.289065 
L 218.14858 294.255838 
L 220.966761 294.326445 
L 223.784943 294.268298 
L 226.603125 294.451045 
L 229.421307 294.230918 
L 232.239489 294.284911 
L 235.05767 294.239225 
L 237.875852 294.405358 
L 240.694034 294.367978 
L 243.512216 294.305678 
L 246.330398 294.397052 
L 249.14858 294.363825 
L 251.966761 294.388745 
L 254.784943 294.309831 
L 257.603125 294.380438 
L 260.421307 294.529959 
L 263.239489 294.255838 
L 266.05767 294.446892 
L 268.875852 294.239225 
L 271.694034 294.405358 
L 274.512216 294.384592 
L 277.330398 294.430278 
L 280.14858 294.521652 
L 282.966761 294.496732 
L 285.784943 294.372132 
L 288.603125 294.413665 
L 291.421307 294.471812 
L 294.239489 294.613026 
L 297.05767 294.475965 
L 299.875852 294.417818 
L 302.694034 294.376285 
L 305.512216 294.284911 
L 308.330398 294.463505 
L 311.14858 294.413665 
L 313.966761 294.500885 
L 316.784943 294.484272 
L 319.603125 294.442739 
" clip-path="url(#p7881b43765)" style="fill: none; stroke: #e4ff13; stroke-width: 1.5; stroke-linecap: square"/>
   </g>
   <g id="line2d_51">
    <path d="M 40.603125 243.202932 
L 43.421307 248.141258 
L 46.239489 252.896837 
L 49.05767 257.80609 
L 51.875852 261.191066 
L 54.694034 265.111822 
L 57.512216 270.266122 
L 60.330398 274.215953 
L 63.14858 275.387196 
L 65.966761 277.642462 
L 68.784943 278.593577 
L 71.603125 279.960028 
L 74.421307 280.562263 
L 77.239489 283.972158 
L 80.05767 285.043721 
L 82.875852 286.617838 
L 85.694034 288.598983 
L 88.512216 289.354892 
L 91.330398 290.069267 
L 94.14858 290.866709 
L 96.966761 291.244664 
L 99.784943 291.801212 
L 102.603125 293.088748 
L 105.421307 293.375329 
L 108.239489 293.803124 
L 111.05767 293.931877 
L 113.875852 293.882037 
L 116.694034 293.919417 
L 119.512216 293.927724 
L 122.330398 293.87373 
L 125.14858 293.990024 
L 127.966761 294.002484 
L 130.784943 293.985871 
L 133.603125 294.031557 
L 136.421307 294.098011 
L 139.239489 293.906957 
L 142.05767 293.84881 
L 144.875852 293.92357 
L 147.694034 294.010791 
L 150.512216 293.977564 
L 153.330398 294.002484 
L 156.14858 293.944337 
L 158.966761 293.91111 
L 161.784943 294.056478 
L 164.603125 294.044017 
L 167.421307 294.044017 
L 170.239489 294.102164 
L 173.05767 294.226765 
L 175.875852 294.056478 
L 178.694034 294.093858 
L 181.512216 294.230918 
L 184.330398 294.068938 
L 187.14858 294.143698 
L 189.966761 294.156158 
L 192.784943 294.359672 
L 195.603125 294.222611 
L 198.421307 294.131238 
L 201.239489 294.318138 
L 204.05767 294.152004 
L 206.875852 294.143698 
L 209.694034 294.168618 
L 212.512216 294.193538 
L 215.330398 294.318138 
L 218.14858 294.181078 
L 220.966761 294.214305 
L 223.784943 294.264145 
L 226.603125 294.347212 
L 229.421307 294.259991 
L 232.239489 294.222611 
L 235.05767 294.463505 
L 237.875852 294.284911 
L 240.694034 294.351365 
L 243.512216 294.326445 
L 246.330398 294.392898 
L 249.14858 294.426125 
L 251.966761 294.322292 
L 254.784943 294.313985 
L 257.603125 294.297371 
L 260.421307 294.426125 
L 263.239489 294.305678 
L 266.05767 294.351365 
L 268.875852 294.326445 
L 271.694034 294.426125 
L 274.512216 294.492579 
L 277.330398 294.367978 
L 280.14858 294.305678 
L 282.966761 294.409512 
L 285.784943 294.305678 
L 288.603125 294.201845 
L 291.421307 294.156158 
L 294.239489 294.384592 
L 297.05767 294.384592 
L 299.875852 294.322292 
L 302.694034 294.471812 
L 305.512216 294.397052 
L 308.330398 294.330598 
L 311.14858 294.363825 
L 313.966761 294.421972 
L 316.784943 294.529959 
L 319.603125 294.484272 
" clip-path="url(#p7881b43765)" style="fill: none; stroke: #ff9400; stroke-width: 1.5; stroke-linecap: square"/>
   </g>
   <g id="line2d_52">
    <path d="M 40.603125 240.490799 
L 43.421307 245.341905 
L 46.239489 250.741252 
L 49.05767 255.584051 
L 51.875852 262.93547 
L 54.694034 266.195845 
L 57.512216 268.372198 
L 60.330398 269.485294 
L 63.14858 272.076981 
L 65.966761 276.703806 
L 68.784943 278.768018 
L 71.603125 279.827121 
L 74.421307 282.368967 
L 77.239489 284.013691 
L 80.05767 286.692598 
L 82.875852 287.514961 
L 85.694034 288.333169 
L 88.512216 289.188758 
L 91.330398 290.185561 
L 94.14858 289.68716 
L 96.966761 290.052654 
L 99.784943 290.413995 
L 102.603125 291.248817 
L 105.421307 291.701531 
L 108.239489 291.988112 
L 111.05767 291.863512 
L 113.875852 292.764787 
L 116.694034 292.818781 
L 119.512216 292.885234 
L 122.330398 292.885234 
L 125.14858 292.831241 
L 127.966761 292.893541 
L 130.784943 292.847854 
L 133.603125 293.483316 
L 136.421307 293.487469 
L 139.239489 293.296416 
L 142.05767 293.603763 
L 144.875852 293.653603 
L 147.694034 294.064784 
L 150.512216 294.039864 
L 153.330398 293.92357 
L 156.14858 294.035711 
L 158.966761 294.152004 
L 161.784943 294.081398 
L 164.603125 294.176924 
L 167.421307 294.014944 
L 170.239489 294.251685 
L 173.05767 294.056478 
L 175.875852 294.197691 
L 178.694034 294.347212 
L 181.512216 294.226765 
L 184.330398 294.405358 
L 187.14858 294.284911 
L 189.966761 294.218458 
L 192.784943 294.164464 
L 195.603125 294.226765 
L 198.421307 294.413665 
L 201.239489 294.326445 
L 204.05767 294.401205 
L 206.875852 294.380438 
L 209.694034 294.152004 
L 212.512216 294.405358 
L 215.330398 294.264145 
L 218.14858 294.309831 
L 220.966761 294.343058 
L 223.784943 294.226765 
L 226.603125 294.289065 
L 229.421307 294.259991 
L 232.239489 294.185231 
L 235.05767 294.172771 
L 237.875852 294.367978 
L 240.694034 294.334752 
L 243.512216 294.426125 
L 246.330398 294.318138 
L 249.14858 294.409512 
L 251.966761 294.513345 
L 254.784943 294.409512 
L 257.603125 294.367978 
L 260.421307 294.430278 
L 263.239489 294.359672 
L 266.05767 294.251685 
L 268.875852 294.392898 
L 271.694034 294.421972 
L 274.512216 294.363825 
L 277.330398 294.355518 
L 280.14858 294.505039 
L 282.966761 294.413665 
L 285.784943 294.492579 
L 288.603125 294.355518 
L 291.421307 294.459352 
L 294.239489 294.405358 
L 297.05767 294.475965 
L 299.875852 294.426125 
L 302.694034 294.442739 
L 305.512216 294.401205 
L 308.330398 294.417818 
L 311.14858 294.343058 
L 313.966761 294.446892 
L 316.784943 294.434432 
L 319.603125 294.442739 
" clip-path="url(#p7881b43765)" style="fill: none; stroke: #ff1e00; stroke-width: 1.5; stroke-linecap: square"/>
   </g>
   <g id="line2d_53">
    <path d="M 40.603125 240.170991 
L 43.421307 241.828175 
L 46.239489 243.348299 
L 49.05767 246.122733 
L 51.875852 249.611542 
L 54.694034 251.937415 
L 57.512216 254.977663 
L 60.330398 257.85593 
L 63.14858 260.916945 
L 65.966761 265.253036 
L 68.784943 267.304788 
L 71.603125 271.694873 
L 74.421307 273.983365 
L 77.239489 274.431927 
L 80.05767 280.433509 
L 82.875852 283.619124 
L 85.694034 283.116569 
L 88.512216 283.756184 
L 91.330398 284.85682 
L 94.14858 286.430938 
L 96.966761 287.041479 
L 99.784943 287.485887 
L 102.603125 289.221985 
L 105.421307 289.620706 
L 108.239489 289.541792 
L 111.05767 290.696422 
L 113.875852 290.056807 
L 116.694034 291.24051 
L 119.512216 291.738911 
L 122.330398 292.104406 
L 125.14858 292.39514 
L 127.966761 293.155202 
L 130.784943 293.043062 
L 133.603125 293.981717 
L 136.421307 294.388745 
L 139.239489 294.338905 
L 142.05767 294.222611 
L 144.875852 294.334752 
L 147.694034 294.372132 
L 150.512216 294.205998 
L 153.330398 294.405358 
L 156.14858 294.351365 
L 158.966761 294.243378 
L 161.784943 294.488425 
L 164.603125 294.438585 
L 167.421307 294.334752 
L 170.239489 294.293218 
L 173.05767 294.500885 
L 175.875852 294.417818 
L 178.694034 294.430278 
L 181.512216 294.222611 
L 184.330398 294.355518 
L 187.14858 294.505039 
L 189.966761 294.426125 
L 192.784943 294.517499 
L 195.603125 294.442739 
L 198.421307 294.496732 
L 201.239489 294.505039 
L 204.05767 294.359672 
L 206.875852 294.438585 
L 209.694034 294.475965 
L 212.512216 294.500885 
L 215.330398 294.413665 
L 218.14858 294.596412 
L 220.966761 294.455199 
L 223.784943 294.538265 
L 226.603125 294.550725 
L 229.421307 294.563185 
L 232.239489 294.513345 
L 235.05767 294.600566 
L 237.875852 294.546572 
L 240.694034 294.392898 
L 243.512216 294.654559 
L 246.330398 294.529959 
L 249.14858 294.604719 
L 251.966761 294.642099 
L 254.784943 294.534112 
L 257.603125 294.592259 
L 260.421307 294.687786 
L 263.239489 294.625486 
L 266.05767 294.687786 
L 268.875852 294.525805 
L 271.694034 294.687786 
L 274.512216 294.683632 
L 277.330398 294.687786 
L 280.14858 294.621332 
L 282.966761 294.633792 
L 285.784943 294.679479 
L 288.603125 294.621332 
L 291.421307 294.554879 
L 294.239489 294.608872 
L 297.05767 294.679479 
L 299.875852 294.737626 
L 302.694034 294.687786 
L 305.512216 294.716859 
L 308.330398 294.691939 
L 311.14858 294.646252 
L 313.966761 294.637946 
L 316.784943 294.592259 
L 319.603125 294.642099 
" clip-path="url(#p7881b43765)" style="fill: none; stroke: #800000; stroke-width: 1.5; stroke-linecap: square"/>
   </g>
   <g id="line2d_54">
    <path d="M 40.603125 295.780115 
L 319.603125 295.780115 
" clip-path="url(#p7881b43765)" style="fill: none; stroke-dasharray: 5.55,2.4; stroke-dashoffset: 0; stroke: #808080; stroke-width: 1.5"/>
   </g>
   <g id="patch_9">
    <path d="M 40.603125 299.518125 
L 40.603125 236.518125 
" style="fill: none; stroke: #000000; stroke-width: 0.8; stroke-linejoin: miter; stroke-linecap: square"/>
   </g>
   <g id="patch_10">
    <path d="M 40.603125 299.518125 
L 319.603125 299.518125 
" style="fill: none; stroke: #000000; stroke-width: 0.8; stroke-linejoin: miter; stroke-linecap: square"/>
   </g>
   <g id="text_29">
    <!-- Labyrinth -->
    <g transform="translate(151.632188 230.518125) scale(0.12 -0.12)">
     <defs>
      <path id="DejaVuSans-62" d="M 3116 1747 
Q 3116 2381 2855 2742 
Q 2594 3103 2138 3103 
Q 1681 3103 1420 2742 
Q 1159 2381 1159 1747 
Q 1159 1113 1420 752 
Q 1681 391 2138 391 
Q 2594 391 2855 752 
Q 3116 1113 3116 1747 
z
M 1159 2969 
Q 1341 3281 1617 3432 
Q 1894 3584 2278 3584 
Q 2916 3584 3314 3078 
Q 3713 2572 3713 1747 
Q 3713 922 3314 415 
Q 2916 -91 2278 -91 
Q 1894 -91 1617 61 
Q 1341 213 1159 525 
L 1159 0 
L 581 0 
L 581 4863 
L 1159 4863 
L 1159 2969 
z
" transform="scale(0.015625)"/>
      <path id="DejaVuSans-68" d="M 3513 2113 
L 3513 0 
L 2938 0 
L 2938 2094 
Q 2938 2591 2744 2837 
Q 2550 3084 2163 3084 
Q 1697 3084 1428 2787 
Q 1159 2491 1159 1978 
L 1159 0 
L 581 0 
L 581 4863 
L 1159 4863 
L 1159 2956 
Q 1366 3272 1645 3428 
Q 1925 3584 2291 3584 
Q 2894 3584 3203 3211 
Q 3513 2838 3513 2113 
z
" transform="scale(0.015625)"/>
     </defs>
     <use xlink:href="#DejaVuSans-4c"/>
     <use xlink:href="#DejaVuSans-61" x="55.712891"/>
     <use xlink:href="#DejaVuSans-62" x="116.992188"/>
     <use xlink:href="#DejaVuSans-79" x="180.46875"/>
     <use xlink:href="#DejaVuSans-72" x="239.648438"/>
     <use xlink:href="#DejaVuSans-69" x="280.761719"/>
     <use xlink:href="#DejaVuSans-6e" x="308.544922"/>
     <use xlink:href="#DejaVuSans-74" x="371.923828"/>
     <use xlink:href="#DejaVuSans-68" x="411.132812"/>
    </g>
   </g>
   <g id="legend_1">
    <g id="patch_11">
     <path d="M 28.345313 371.524375 
L 331.860937 371.524375 
Q 333.860937 371.524375 333.860937 369.524375 
L 333.860937 341.168125 
Q 333.860937 339.168125 331.860937 339.168125 
L 28.345313 339.168125 
Q 26.345313 339.168125 26.345313 341.168125 
L 26.345313 369.524375 
Q 26.345313 371.524375 28.345313 371.524375 
z
" style="fill: #ffffff; opacity: 0.8; stroke: #cccccc; stroke-linejoin: miter"/>
    </g>
    <g id="line2d_55">
     <path d="M 30.345313 347.266562 
L 40.345313 347.266562 
L 50.345313 347.266562 
" style="fill: none; stroke: #000080; stroke-width: 1.5; stroke-linecap: square"/>
    </g>
    <g id="text_30">
     <!-- 0.1 -->
     <g transform="translate(58.345313 350.766562) scale(0.1 -0.1)">
      <defs>
       <path id="DejaVuSans-2e" d="M 684 794 
L 1344 794 
L 1344 0 
L 684 0 
L 684 794 
z
" transform="scale(0.015625)"/>
      </defs>
      <use xlink:href="#DejaVuSans-30"/>
      <use xlink:href="#DejaVuSans-2e" x="63.623047"/>
      <use xlink:href="#DejaVuSans-31" x="95.410156"/>
     </g>
    </g>
    <g id="line2d_56">
     <path d="M 30.345313 361.944687 
L 40.345313 361.944687 
L 50.345313 361.944687 
" style="fill: none; stroke: #0000ff; stroke-width: 1.5; stroke-linecap: square"/>
    </g>
    <g id="text_31">
     <!-- 0.2 -->
     <g transform="translate(58.345313 365.444687) scale(0.1 -0.1)">
      <use xlink:href="#DejaVuSans-30"/>
      <use xlink:href="#DejaVuSans-2e" x="63.623047"/>
      <use xlink:href="#DejaVuSans-32" x="95.410156"/>
     </g>
    </g>
    <g id="line2d_57">
     <path d="M 94.248438 347.266562 
L 104.248438 347.266562 
L 114.248438 347.266562 
" style="fill: none; stroke: #0080ff; stroke-width: 1.5; stroke-linecap: square"/>
    </g>
    <g id="text_32">
     <!-- 0.3 -->
     <g transform="translate(122.248438 350.766562) scale(0.1 -0.1)">
      <defs>
       <path id="DejaVuSans-33" d="M 2597 2516 
Q 3050 2419 3304 2112 
Q 3559 1806 3559 1356 
Q 3559 666 3084 287 
Q 2609 -91 1734 -91 
Q 1441 -91 1130 -33 
Q 819 25 488 141 
L 488 750 
Q 750 597 1062 519 
Q 1375 441 1716 441 
Q 2309 441 2620 675 
Q 2931 909 2931 1356 
Q 2931 1769 2642 2001 
Q 2353 2234 1838 2234 
L 1294 2234 
L 1294 2753 
L 1863 2753 
Q 2328 2753 2575 2939 
Q 2822 3125 2822 3475 
Q 2822 3834 2567 4026 
Q 2313 4219 1838 4219 
Q 1578 4219 1281 4162 
Q 984 4106 628 3988 
L 628 4550 
Q 988 4650 1302 4700 
Q 1616 4750 1894 4750 
Q 2613 4750 3031 4423 
Q 3450 4097 3450 3541 
Q 3450 3153 3228 2886 
Q 3006 2619 2597 2516 
z
" transform="scale(0.015625)"/>
      </defs>
      <use xlink:href="#DejaVuSans-30"/>
      <use xlink:href="#DejaVuSans-2e" x="63.623047"/>
      <use xlink:href="#DejaVuSans-33" x="95.410156"/>
     </g>
    </g>
    <g id="line2d_58">
     <path d="M 94.248438 361.944687 
L 104.248438 361.944687 
L 114.248438 361.944687 
" style="fill: none; stroke: #16ffe1; stroke-width: 1.5; stroke-linecap: square"/>
    </g>
    <g id="text_33">
     <!-- 0.4 -->
     <g transform="translate(122.248438 365.444687) scale(0.1 -0.1)">
      <use xlink:href="#DejaVuSans-30"/>
      <use xlink:href="#DejaVuSans-2e" x="63.623047"/>
      <use xlink:href="#DejaVuSans-34" x="95.410156"/>
     </g>
    </g>
    <g id="line2d_59">
     <path d="M 158.151563 347.266562 
L 168.151563 347.266562 
L 178.151563 347.266562 
" style="fill: none; stroke: #7dff7a; stroke-width: 1.5; stroke-linecap: square"/>
    </g>
    <g id="text_34">
     <!-- 0.5 -->
     <g transform="translate(186.151563 350.766562) scale(0.1 -0.1)">
      <use xlink:href="#DejaVuSans-30"/>
      <use xlink:href="#DejaVuSans-2e" x="63.623047"/>
      <use xlink:href="#DejaVuSans-35" x="95.410156"/>
     </g>
    </g>
    <g id="line2d_60">
     <path d="M 158.151563 361.944687 
L 168.151563 361.944687 
L 178.151563 361.944687 
" style="fill: none; stroke: #e4ff13; stroke-width: 1.5; stroke-linecap: square"/>
    </g>
    <g id="text_35">
     <!-- 0.6 -->
     <g transform="translate(186.151563 365.444687) scale(0.1 -0.1)">
      <use xlink:href="#DejaVuSans-30"/>
      <use xlink:href="#DejaVuSans-2e" x="63.623047"/>
      <use xlink:href="#DejaVuSans-36" x="95.410156"/>
     </g>
    </g>
    <g id="line2d_61">
     <path d="M 222.054688 347.266562 
L 232.054688 347.266562 
L 242.054688 347.266562 
" style="fill: none; stroke: #ff9400; stroke-width: 1.5; stroke-linecap: square"/>
    </g>
    <g id="text_36">
     <!-- 0.7 -->
     <g transform="translate(250.054688 350.766562) scale(0.1 -0.1)">
      <defs>
       <path id="DejaVuSans-37" d="M 525 4666 
L 3525 4666 
L 3525 4397 
L 1831 0 
L 1172 0 
L 2766 4134 
L 525 4134 
L 525 4666 
z
" transform="scale(0.015625)"/>
      </defs>
      <use xlink:href="#DejaVuSans-30"/>
      <use xlink:href="#DejaVuSans-2e" x="63.623047"/>
      <use xlink:href="#DejaVuSans-37" x="95.410156"/>
     </g>
    </g>
    <g id="line2d_62">
     <path d="M 222.054688 361.944687 
L 232.054688 361.944687 
L 242.054688 361.944687 
" style="fill: none; stroke: #ff1e00; stroke-width: 1.5; stroke-linecap: square"/>
    </g>
    <g id="text_37">
     <!-- 0.8 -->
     <g transform="translate(250.054688 365.444687) scale(0.1 -0.1)">
      <use xlink:href="#DejaVuSans-30"/>
      <use xlink:href="#DejaVuSans-2e" x="63.623047"/>
      <use xlink:href="#DejaVuSans-38" x="95.410156"/>
     </g>
    </g>
    <g id="line2d_63">
     <path d="M 285.957813 347.266562 
L 295.957813 347.266562 
L 305.957813 347.266562 
" style="fill: none; stroke: #800000; stroke-width: 1.5; stroke-linecap: square"/>
    </g>
    <g id="text_38">
     <!-- 0.9 -->
     <g transform="translate(313.957813 350.766562) scale(0.1 -0.1)">
      <defs>
       <path id="DejaVuSans-39" d="M 703 97 
L 703 672 
Q 941 559 1184 500 
Q 1428 441 1663 441 
Q 2288 441 2617 861 
Q 2947 1281 2994 2138 
Q 2813 1869 2534 1725 
Q 2256 1581 1919 1581 
Q 1219 1581 811 2004 
Q 403 2428 403 3163 
Q 403 3881 828 4315 
Q 1253 4750 1959 4750 
Q 2769 4750 3195 4129 
Q 3622 3509 3622 2328 
Q 3622 1225 3098 567 
Q 2575 -91 1691 -91 
Q 1453 -91 1209 -44 
Q 966 3 703 97 
z
M 1959 2075 
Q 2384 2075 2632 2365 
Q 2881 2656 2881 3163 
Q 2881 3666 2632 3958 
Q 2384 4250 1959 4250 
Q 1534 4250 1286 3958 
Q 1038 3666 1038 3163 
Q 1038 2656 1286 2365 
Q 1534 2075 1959 2075 
z
" transform="scale(0.015625)"/>
      </defs>
      <use xlink:href="#DejaVuSans-30"/>
      <use xlink:href="#DejaVuSans-2e" x="63.623047"/>
      <use xlink:href="#DejaVuSans-39" x="95.410156"/>
     </g>
    </g>
   </g>
  </g>
 </g>
 <defs>
  <clipPath id="pec2a5a3f45">
   <rect x="40.603125" y="22.318125" width="279" height="63"/>
  </clipPath>
  <clipPath id="pb702f71468">
   <rect x="40.603125" y="129.418125" width="279" height="63"/>
  </clipPath>
  <clipPath id="p7881b43765">
   <rect x="40.603125" y="236.518125" width="279" height="63"/>
  </clipPath>
 </defs>
</svg>
