<?xml version="1.0" encoding="utf-8" standalone="no"?>
<!DOCTYPE svg PUBLIC "-//W3C//DTD SVG 1.1//EN"
  "http://www.w3.org/Graphics/SVG/1.1/DTD/svg11.dtd">
<svg xmlns:xlink="http://www.w3.org/1999/xlink" width="347.423437pt" height="378.724375pt" viewBox="0 0 347.423437 378.724375" xmlns="http://www.w3.org/2000/svg" version="1.1">
 <metadata>
  <rdf:RDF xmlns:dc="http://purl.org/dc/elements/1.1/" xmlns:cc="http://creativecommons.org/ns#" xmlns:rdf="http://www.w3.org/1999/02/22-rdf-syntax-ns#">
   <cc:Work>
    <dc:type rdf:resource="http://purl.org/dc/dcmitype/StillImage"/>
    <dc:date>2023-01-18T13:19:54.975649</dc:date>
    <dc:format>image/svg+xml</dc:format>
    <dc:creator>
     <cc:Agent>
      <dc:title>Matplotlib v3.6.1, https://matplotlib.org/</dc:title>
     </cc:Agent>
    </dc:creator>
   </cc:Work>
  </rdf:RDF>
 </metadata>
 <defs>
  <style type="text/css">*{stroke-linejoin: round; stroke-linecap: butt}</style>
 </defs>
 <g id="figure_1">
  <g id="patch_1">
   <path d="M 0 378.724375 
L 347.423437 378.724375 
L 347.423437 0 
L 0 0 
z
" style="fill: #ffffff"/>
  </g>
  <g id="axes_1">
   <g id="patch_2">
    <path d="M 46.965625 85.318125 
L 325.965625 85.318125 
L 325.965625 22.318125 
L 46.965625 22.318125 
z
" style="fill: #ffffff"/>
   </g>
   <g id="matplotlib.axis_1">
    <g id="xtick_1">
     <g id="line2d_1">
      <defs>
       <path id="md480fdc32a" d="M 0 0 
L 0 3.5 
" style="stroke: #000000; stroke-width: 0.8"/>
      </defs>
      <g>
       <use xlink:href="#md480fdc32a" x="46.965625" y="85.318125" style="stroke: #000000; stroke-width: 0.8"/>
      </g>
     </g>
     <g id="text_1">
      <!-- 1 -->
      <g transform="translate(43.784375 99.916562) scale(0.1 -0.1)">
       <defs>
        <path id="DejaVuSans-31" d="M 794 531 
L 1825 531 
L 1825 4091 
L 703 3866 
L 703 4441 
L 1819 4666 
L 2450 4666 
L 2450 531 
L 3481 531 
L 3481 0 
L 794 0 
L 794 531 
z
" transform="scale(0.015625)"/>
       </defs>
       <use xlink:href="#DejaVuSans-31"/>
      </g>
     </g>
    </g>
    <g id="xtick_2">
     <g id="line2d_2">
      <g>
       <use xlink:href="#md480fdc32a" x="105.702467" y="85.318125" style="stroke: #000000; stroke-width: 0.8"/>
      </g>
     </g>
     <g id="text_2">
      <!-- 5 -->
      <g transform="translate(102.521217 99.916562) scale(0.1 -0.1)">
       <defs>
        <path id="DejaVuSans-35" d="M 691 4666 
L 3169 4666 
L 3169 4134 
L 1269 4134 
L 1269 2991 
Q 1406 3038 1543 3061 
Q 1681 3084 1819 3084 
Q 2600 3084 3056 2656 
Q 3513 2228 3513 1497 
Q 3513 744 3044 326 
Q 2575 -91 1722 -91 
Q 1428 -91 1123 -41 
Q 819 9 494 109 
L 494 744 
Q 775 591 1075 516 
Q 1375 441 1709 441 
Q 2250 441 2565 725 
Q 2881 1009 2881 1497 
Q 2881 1984 2565 2268 
Q 2250 2553 1709 2553 
Q 1456 2553 1204 2497 
Q 953 2441 691 2322 
L 691 4666 
z
" transform="scale(0.015625)"/>
       </defs>
       <use xlink:href="#DejaVuSans-35"/>
      </g>
     </g>
    </g>
    <g id="xtick_3">
     <g id="line2d_3">
      <g>
       <use xlink:href="#md480fdc32a" x="179.12352" y="85.318125" style="stroke: #000000; stroke-width: 0.8"/>
      </g>
     </g>
     <g id="text_3">
      <!-- 10 -->
      <g transform="translate(172.76102 99.916562) scale(0.1 -0.1)">
       <defs>
        <path id="DejaVuSans-30" d="M 2034 4250 
Q 1547 4250 1301 3770 
Q 1056 3291 1056 2328 
Q 1056 1369 1301 889 
Q 1547 409 2034 409 
Q 2525 409 2770 889 
Q 3016 1369 3016 2328 
Q 3016 3291 2770 3770 
Q 2525 4250 2034 4250 
z
M 2034 4750 
Q 2819 4750 3233 4129 
Q 3647 3509 3647 2328 
Q 3647 1150 3233 529 
Q 2819 -91 2034 -91 
Q 1250 -91 836 529 
Q 422 1150 422 2328 
Q 422 3509 836 4129 
Q 1250 4750 2034 4750 
z
" transform="scale(0.015625)"/>
       </defs>
       <use xlink:href="#DejaVuSans-31"/>
       <use xlink:href="#DejaVuSans-30" x="63.623047"/>
      </g>
     </g>
    </g>
    <g id="xtick_4">
     <g id="line2d_4">
      <g>
       <use xlink:href="#md480fdc32a" x="252.544572" y="85.318125" style="stroke: #000000; stroke-width: 0.8"/>
      </g>
     </g>
     <g id="text_4">
      <!-- 15 -->
      <g transform="translate(246.182072 99.916562) scale(0.1 -0.1)">
       <use xlink:href="#DejaVuSans-31"/>
       <use xlink:href="#DejaVuSans-35" x="63.623047"/>
      </g>
     </g>
    </g>
    <g id="xtick_5">
     <g id="line2d_5">
      <g>
       <use xlink:href="#md480fdc32a" x="325.965625" y="85.318125" style="stroke: #000000; stroke-width: 0.8"/>
      </g>
     </g>
     <g id="text_5">
      <!-- 20 -->
      <g transform="translate(319.603125 99.916562) scale(0.1 -0.1)">
       <defs>
        <path id="DejaVuSans-32" d="M 1228 531 
L 3431 531 
L 3431 0 
L 469 0 
L 469 531 
Q 828 903 1448 1529 
Q 2069 2156 2228 2338 
Q 2531 2678 2651 2914 
Q 2772 3150 2772 3378 
Q 2772 3750 2511 3984 
Q 2250 4219 1831 4219 
Q 1534 4219 1204 4116 
Q 875 4013 500 3803 
L 500 4441 
Q 881 4594 1212 4672 
Q 1544 4750 1819 4750 
Q 2544 4750 2975 4387 
Q 3406 4025 3406 3419 
Q 3406 3131 3298 2873 
Q 3191 2616 2906 2266 
Q 2828 2175 2409 1742 
Q 1991 1309 1228 531 
z
" transform="scale(0.015625)"/>
       </defs>
       <use xlink:href="#DejaVuSans-32"/>
       <use xlink:href="#DejaVuSans-30" x="63.623047"/>
      </g>
     </g>
    </g>
   </g>
   <g id="matplotlib.axis_2">
    <g id="ytick_1">
     <g id="line2d_6">
      <defs>
       <path id="m46a81e608e" d="M 0 0 
L -3.5 0 
" style="stroke: #000000; stroke-width: 0.8"/>
      </defs>
      <g>
       <use xlink:href="#m46a81e608e" x="46.965625" y="85.318125" style="stroke: #000000; stroke-width: 0.8"/>
      </g>
     </g>
     <g id="text_6">
      <!-- 0 -->
      <g transform="translate(33.603125 89.117344) scale(0.1 -0.1)">
       <use xlink:href="#DejaVuSans-30"/>
      </g>
     </g>
    </g>
    <g id="ytick_2">
     <g id="line2d_7">
      <g>
       <use xlink:href="#m46a81e608e" x="46.965625" y="62.769969" style="stroke: #000000; stroke-width: 0.8"/>
      </g>
     </g>
     <g id="text_7">
      <!-- 25 -->
      <g transform="translate(27.240625 66.569187) scale(0.1 -0.1)">
       <use xlink:href="#DejaVuSans-32"/>
       <use xlink:href="#DejaVuSans-35" x="63.623047"/>
      </g>
     </g>
    </g>
    <g id="ytick_3">
     <g id="line2d_8">
      <g>
       <use xlink:href="#m46a81e608e" x="46.965625" y="40.221812" style="stroke: #000000; stroke-width: 0.8"/>
      </g>
     </g>
     <g id="text_8">
      <!-- 50 -->
      <g transform="translate(27.240625 44.021031) scale(0.1 -0.1)">
       <use xlink:href="#DejaVuSans-35"/>
       <use xlink:href="#DejaVuSans-30" x="63.623047"/>
      </g>
     </g>
    </g>
   </g>
   <g id="line2d_9">
    <path d="M 46.965625 29.497909 
L 61.649836 63.184855 
L 76.334046 72.573907 
L 91.018257 74.828723 
L 105.702467 77.345097 
L 120.386678 77.543521 
L 135.070888 76.876095 
L 149.755099 77.290981 
L 164.439309 77.218827 
L 179.12352 77.218827 
L 193.80773 77.417251 
L 208.491941 77.30902 
L 223.176151 77.236866 
L 237.860362 77.363135 
L 252.544572 77.236866 
L 267.228783 77.633713 
L 281.912993 77.381174 
L 296.597204 77.363135 
L 311.281414 77.236866 
L 325.965625 77.417251 
" clip-path="url(#pe7d6030e49)" style="fill: none; stroke: #000080; stroke-width: 1.5; stroke-linecap: square"/>
   </g>
   <g id="line2d_10">
    <path d="M 46.965625 31.355877 
L 61.649836 62.219794 
L 76.334046 74.107182 
L 91.018257 76.749826 
L 105.702467 77.200789 
L 120.386678 77.345097 
L 135.070888 77.399212 
L 149.755099 77.236866 
L 164.439309 77.200789 
L 179.12352 77.327058 
L 193.80773 77.290981 
L 208.491941 77.30902 
L 223.176151 77.236866 
L 237.860362 77.200789 
L 252.544572 77.399212 
L 267.228783 77.381174 
L 281.912993 77.30902 
L 296.597204 77.525482 
L 311.281414 77.146673 
L 325.965625 77.327058 
" clip-path="url(#pe7d6030e49)" style="fill: none; stroke: #0000ff; stroke-width: 1.5; stroke-linecap: square"/>
   </g>
   <g id="line2d_11">
    <path d="M 46.965625 29.597121 
L 61.649836 61.624522 
L 76.334046 73.124082 
L 91.018257 76.145535 
L 105.702467 76.650614 
L 120.386678 76.713749 
L 135.070888 77.561559 
L 149.755099 77.18275 
L 164.439309 77.399212 
L 179.12352 77.272943 
L 193.80773 77.345097 
L 208.491941 77.417251 
L 223.176151 77.092558 
L 237.860362 77.218827 
L 252.544572 77.345097 
L 267.228783 77.272943 
L 281.912993 77.05648 
L 296.597204 77.453328 
L 311.281414 77.543521 
L 325.965625 77.399212 
" clip-path="url(#pe7d6030e49)" style="fill: none; stroke: #0080ff; stroke-width: 1.5; stroke-linecap: square"/>
   </g>
   <g id="line2d_12">
    <path d="M 46.965625 33.40325 
L 61.649836 63.193874 
L 76.334046 73.773469 
L 91.018257 75.739668 
L 105.702467 76.56944 
L 120.386678 76.912172 
L 135.070888 77.290981 
L 149.755099 77.092558 
L 164.439309 77.236866 
L 179.12352 77.327058 
L 193.80773 77.507444 
L 208.491941 77.164712 
L 223.176151 77.30902 
L 237.860362 77.399212 
L 252.544572 77.002365 
L 267.228783 77.471367 
L 281.912993 77.254904 
L 296.597204 77.254904 
L 311.281414 77.327058 
L 325.965625 77.200789 
" clip-path="url(#pe7d6030e49)" style="fill: none; stroke: #16ffe1; stroke-width: 1.5; stroke-linecap: square"/>
   </g>
   <g id="line2d_13">
    <path d="M 46.965625 30.147296 
L 61.649836 64.844399 
L 76.334046 71.518653 
L 91.018257 74.61226 
L 105.702467 75.342821 
L 120.386678 76.398074 
L 135.070888 76.542383 
L 149.755099 76.479248 
L 164.439309 77.038442 
L 179.12352 76.966288 
L 193.80773 77.417251 
L 208.491941 77.399212 
L 223.176151 77.18275 
L 237.860362 77.110596 
L 252.544572 77.254904 
L 267.228783 77.507444 
L 281.912993 77.453328 
L 296.597204 77.43529 
L 311.281414 77.254904 
L 325.965625 77.399212 
" clip-path="url(#pe7d6030e49)" style="fill: none; stroke: #7dff7a; stroke-width: 1.5; stroke-linecap: square"/>
   </g>
   <g id="line2d_14">
    <path d="M 46.965625 29.633198 
L 61.649836 57.232141 
L 76.334046 69.056395 
L 91.018257 73.692296 
L 105.702467 76.046323 
L 120.386678 77.074519 
L 135.070888 77.381174 
L 149.755099 77.200789 
L 164.439309 77.272943 
L 179.12352 77.381174 
L 193.80773 77.146673 
L 208.491941 77.110596 
L 223.176151 77.290981 
L 237.860362 77.399212 
L 252.544572 77.290981 
L 267.228783 77.290981 
L 281.912993 77.05648 
L 296.597204 77.30902 
L 311.281414 77.43529 
L 325.965625 77.272943 
" clip-path="url(#pe7d6030e49)" style="fill: none; stroke: #e4ff13; stroke-width: 1.5; stroke-linecap: square"/>
   </g>
   <g id="line2d_15">
    <path d="M 46.965625 28.866561 
L 61.649836 60.632403 
L 76.334046 72.447637 
L 91.018257 76.785903 
L 105.702467 76.785903 
L 120.386678 77.363135 
L 135.070888 77.236866 
L 149.755099 77.579598 
L 164.439309 77.18275 
L 179.12352 77.327058 
L 193.80773 77.43529 
L 208.491941 77.561559 
L 223.176151 77.30902 
L 237.860362 77.471367 
L 252.544572 77.236866 
L 267.228783 77.200789 
L 281.912993 77.254904 
L 296.597204 77.597636 
L 311.281414 77.254904 
L 325.965625 77.18275 
" clip-path="url(#pe7d6030e49)" style="fill: none; stroke: #ff9400; stroke-width: 1.5; stroke-linecap: square"/>
   </g>
   <g id="line2d_16">
    <path d="M 46.965625 29.876718 
L 61.649836 57.159987 
L 76.334046 69.804993 
L 91.018257 75.387917 
L 105.702467 76.749826 
L 120.386678 77.417251 
L 135.070888 77.489405 
L 149.755099 77.272943 
L 164.439309 77.110596 
L 179.12352 77.363135 
L 193.80773 77.128635 
L 208.491941 77.110596 
L 223.176151 77.236866 
L 237.860362 77.381174 
L 252.544572 77.363135 
L 267.228783 77.345097 
L 281.912993 77.200789 
L 296.597204 77.200789 
L 311.281414 77.543521 
L 325.965625 77.489405 
" clip-path="url(#pe7d6030e49)" style="fill: none; stroke: #ff1e00; stroke-width: 1.5; stroke-linecap: square"/>
   </g>
   <g id="line2d_17">
    <path d="M 46.965625 24.952201 
L 61.649836 49.385383 
L 76.334046 60.379864 
L 91.018257 70.255957 
L 105.702467 75.342821 
L 120.386678 76.641594 
L 135.070888 76.876095 
L 149.755099 77.254904 
L 164.439309 77.30902 
L 179.12352 77.345097 
L 193.80773 77.290981 
L 208.491941 77.489405 
L 223.176151 77.30902 
L 237.860362 77.453328 
L 252.544572 77.381174 
L 267.228783 77.272943 
L 281.912993 77.345097 
L 296.597204 77.074519 
L 311.281414 77.110596 
L 325.965625 77.525482 
" clip-path="url(#pe7d6030e49)" style="fill: none; stroke: #800000; stroke-width: 1.5; stroke-linecap: square"/>
   </g>
   <g id="line2d_18">
    <path d="M 46.965625 77.200789 
L 325.965625 77.200789 
" clip-path="url(#pe7d6030e49)" style="fill: none; stroke-dasharray: 5.55,2.4; stroke-dashoffset: 0; stroke: #808080; stroke-width: 1.5"/>
   </g>
   <g id="patch_3">
    <path d="M 46.965625 85.318125 
L 46.965625 22.318125 
" style="fill: none; stroke: #000000; stroke-width: 0.8; stroke-linejoin: miter; stroke-linecap: square"/>
   </g>
   <g id="patch_4">
    <path d="M 46.965625 85.318125 
L 325.965625 85.318125 
" style="fill: none; stroke: #000000; stroke-width: 0.8; stroke-linejoin: miter; stroke-linecap: square"/>
   </g>
   <g id="text_9">
    <!-- Linear Track -->
    <g transform="translate(150.214375 16.318125) scale(0.12 -0.12)">
     <defs>
      <path id="DejaVuSans-4c" d="M 628 4666 
L 1259 4666 
L 1259 531 
L 3531 531 
L 3531 0 
L 628 0 
L 628 4666 
z
" transform="scale(0.015625)"/>
      <path id="DejaVuSans-69" d="M 603 3500 
L 1178 3500 
L 1178 0 
L 603 0 
L 603 3500 
z
M 603 4863 
L 1178 4863 
L 1178 4134 
L 603 4134 
L 603 4863 
z
" transform="scale(0.015625)"/>
      <path id="DejaVuSans-6e" d="M 3513 2113 
L 3513 0 
L 2938 0 
L 2938 2094 
Q 2938 2591 2744 2837 
Q 2550 3084 2163 3084 
Q 1697 3084 1428 2787 
Q 1159 2491 1159 1978 
L 1159 0 
L 581 0 
L 581 3500 
L 1159 3500 
L 1159 2956 
Q 1366 3272 1645 3428 
Q 1925 3584 2291 3584 
Q 2894 3584 3203 3211 
Q 3513 2838 3513 2113 
z
" transform="scale(0.015625)"/>
      <path id="DejaVuSans-65" d="M 3597 1894 
L 3597 1613 
L 953 1613 
Q 991 1019 1311 708 
Q 1631 397 2203 397 
Q 2534 397 2845 478 
Q 3156 559 3463 722 
L 3463 178 
Q 3153 47 2828 -22 
Q 2503 -91 2169 -91 
Q 1331 -91 842 396 
Q 353 884 353 1716 
Q 353 2575 817 3079 
Q 1281 3584 2069 3584 
Q 2775 3584 3186 3129 
Q 3597 2675 3597 1894 
z
M 3022 2063 
Q 3016 2534 2758 2815 
Q 2500 3097 2075 3097 
Q 1594 3097 1305 2825 
Q 1016 2553 972 2059 
L 3022 2063 
z
" transform="scale(0.015625)"/>
      <path id="DejaVuSans-61" d="M 2194 1759 
Q 1497 1759 1228 1600 
Q 959 1441 959 1056 
Q 959 750 1161 570 
Q 1363 391 1709 391 
Q 2188 391 2477 730 
Q 2766 1069 2766 1631 
L 2766 1759 
L 2194 1759 
z
M 3341 1997 
L 3341 0 
L 2766 0 
L 2766 531 
Q 2569 213 2275 61 
Q 1981 -91 1556 -91 
Q 1019 -91 701 211 
Q 384 513 384 1019 
Q 384 1609 779 1909 
Q 1175 2209 1959 2209 
L 2766 2209 
L 2766 2266 
Q 2766 2663 2505 2880 
Q 2244 3097 1772 3097 
Q 1472 3097 1187 3025 
Q 903 2953 641 2809 
L 641 3341 
Q 956 3463 1253 3523 
Q 1550 3584 1831 3584 
Q 2591 3584 2966 3190 
Q 3341 2797 3341 1997 
z
" transform="scale(0.015625)"/>
      <path id="DejaVuSans-72" d="M 2631 2963 
Q 2534 3019 2420 3045 
Q 2306 3072 2169 3072 
Q 1681 3072 1420 2755 
Q 1159 2438 1159 1844 
L 1159 0 
L 581 0 
L 581 3500 
L 1159 3500 
L 1159 2956 
Q 1341 3275 1631 3429 
Q 1922 3584 2338 3584 
Q 2397 3584 2469 3576 
Q 2541 3569 2628 3553 
L 2631 2963 
z
" transform="scale(0.015625)"/>
      <path id="DejaVuSans-20" transform="scale(0.015625)"/>
      <path id="DejaVuSans-54" d="M -19 4666 
L 3928 4666 
L 3928 4134 
L 2272 4134 
L 2272 0 
L 1638 0 
L 1638 4134 
L -19 4134 
L -19 4666 
z
" transform="scale(0.015625)"/>
      <path id="DejaVuSans-63" d="M 3122 3366 
L 3122 2828 
Q 2878 2963 2633 3030 
Q 2388 3097 2138 3097 
Q 1578 3097 1268 2742 
Q 959 2388 959 1747 
Q 959 1106 1268 751 
Q 1578 397 2138 397 
Q 2388 397 2633 464 
Q 2878 531 3122 666 
L 3122 134 
Q 2881 22 2623 -34 
Q 2366 -91 2075 -91 
Q 1284 -91 818 406 
Q 353 903 353 1747 
Q 353 2603 823 3093 
Q 1294 3584 2113 3584 
Q 2378 3584 2631 3529 
Q 2884 3475 3122 3366 
z
" transform="scale(0.015625)"/>
      <path id="DejaVuSans-6b" d="M 581 4863 
L 1159 4863 
L 1159 1991 
L 2875 3500 
L 3609 3500 
L 1753 1863 
L 3688 0 
L 2938 0 
L 1159 1709 
L 1159 0 
L 581 0 
L 581 4863 
z
" transform="scale(0.015625)"/>
     </defs>
     <use xlink:href="#DejaVuSans-4c"/>
     <use xlink:href="#DejaVuSans-69" x="55.712891"/>
     <use xlink:href="#DejaVuSans-6e" x="83.496094"/>
     <use xlink:href="#DejaVuSans-65" x="146.875"/>
     <use xlink:href="#DejaVuSans-61" x="208.398438"/>
     <use xlink:href="#DejaVuSans-72" x="269.677734"/>
     <use xlink:href="#DejaVuSans-20" x="310.791016"/>
     <use xlink:href="#DejaVuSans-54" x="342.578125"/>
     <use xlink:href="#DejaVuSans-72" x="388.912109"/>
     <use xlink:href="#DejaVuSans-61" x="430.025391"/>
     <use xlink:href="#DejaVuSans-63" x="491.304688"/>
     <use xlink:href="#DejaVuSans-6b" x="546.285156"/>
    </g>
   </g>
  </g>
  <g id="axes_2">
   <g id="patch_5">
    <path d="M 46.965625 192.418125 
L 325.965625 192.418125 
L 325.965625 129.418125 
L 46.965625 129.418125 
z
" style="fill: #ffffff"/>
   </g>
   <g id="matplotlib.axis_3">
    <g id="xtick_6">
     <g id="line2d_19">
      <g>
       <use xlink:href="#md480fdc32a" x="46.965625" y="192.418125" style="stroke: #000000; stroke-width: 0.8"/>
      </g>
     </g>
     <g id="text_10">
      <!-- 1 -->
      <g transform="translate(43.784375 207.016562) scale(0.1 -0.1)">
       <use xlink:href="#DejaVuSans-31"/>
      </g>
     </g>
    </g>
    <g id="xtick_7">
     <g id="line2d_20">
      <g>
       <use xlink:href="#md480fdc32a" x="100.51108" y="192.418125" style="stroke: #000000; stroke-width: 0.8"/>
      </g>
     </g>
     <g id="text_11">
      <!-- 20 -->
      <g transform="translate(94.14858 207.016562) scale(0.1 -0.1)">
       <use xlink:href="#DejaVuSans-32"/>
       <use xlink:href="#DejaVuSans-30" x="63.623047"/>
      </g>
     </g>
    </g>
    <g id="xtick_8">
     <g id="line2d_21">
      <g>
       <use xlink:href="#md480fdc32a" x="156.874716" y="192.418125" style="stroke: #000000; stroke-width: 0.8"/>
      </g>
     </g>
     <g id="text_12">
      <!-- 40 -->
      <g transform="translate(150.512216 207.016562) scale(0.1 -0.1)">
       <defs>
        <path id="DejaVuSans-34" d="M 2419 4116 
L 825 1625 
L 2419 1625 
L 2419 4116 
z
M 2253 4666 
L 3047 4666 
L 3047 1625 
L 3713 1625 
L 3713 1100 
L 3047 1100 
L 3047 0 
L 2419 0 
L 2419 1100 
L 313 1100 
L 313 1709 
L 2253 4666 
z
" transform="scale(0.015625)"/>
       </defs>
       <use xlink:href="#DejaVuSans-34"/>
       <use xlink:href="#DejaVuSans-30" x="63.623047"/>
      </g>
     </g>
    </g>
    <g id="xtick_9">
     <g id="line2d_22">
      <g>
       <use xlink:href="#md480fdc32a" x="213.238352" y="192.418125" style="stroke: #000000; stroke-width: 0.8"/>
      </g>
     </g>
     <g id="text_13">
      <!-- 60 -->
      <g transform="translate(206.875852 207.016562) scale(0.1 -0.1)">
       <defs>
        <path id="DejaVuSans-36" d="M 2113 2584 
Q 1688 2584 1439 2293 
Q 1191 2003 1191 1497 
Q 1191 994 1439 701 
Q 1688 409 2113 409 
Q 2538 409 2786 701 
Q 3034 994 3034 1497 
Q 3034 2003 2786 2293 
Q 2538 2584 2113 2584 
z
M 3366 4563 
L 3366 3988 
Q 3128 4100 2886 4159 
Q 2644 4219 2406 4219 
Q 1781 4219 1451 3797 
Q 1122 3375 1075 2522 
Q 1259 2794 1537 2939 
Q 1816 3084 2150 3084 
Q 2853 3084 3261 2657 
Q 3669 2231 3669 1497 
Q 3669 778 3244 343 
Q 2819 -91 2113 -91 
Q 1303 -91 875 529 
Q 447 1150 447 2328 
Q 447 3434 972 4092 
Q 1497 4750 2381 4750 
Q 2619 4750 2861 4703 
Q 3103 4656 3366 4563 
z
" transform="scale(0.015625)"/>
       </defs>
       <use xlink:href="#DejaVuSans-36"/>
       <use xlink:href="#DejaVuSans-30" x="63.623047"/>
      </g>
     </g>
    </g>
    <g id="xtick_10">
     <g id="line2d_23">
      <g>
       <use xlink:href="#md480fdc32a" x="269.601989" y="192.418125" style="stroke: #000000; stroke-width: 0.8"/>
      </g>
     </g>
     <g id="text_14">
      <!-- 80 -->
      <g transform="translate(263.239489 207.016562) scale(0.1 -0.1)">
       <defs>
        <path id="DejaVuSans-38" d="M 2034 2216 
Q 1584 2216 1326 1975 
Q 1069 1734 1069 1313 
Q 1069 891 1326 650 
Q 1584 409 2034 409 
Q 2484 409 2743 651 
Q 3003 894 3003 1313 
Q 3003 1734 2745 1975 
Q 2488 2216 2034 2216 
z
M 1403 2484 
Q 997 2584 770 2862 
Q 544 3141 544 3541 
Q 544 4100 942 4425 
Q 1341 4750 2034 4750 
Q 2731 4750 3128 4425 
Q 3525 4100 3525 3541 
Q 3525 3141 3298 2862 
Q 3072 2584 2669 2484 
Q 3125 2378 3379 2068 
Q 3634 1759 3634 1313 
Q 3634 634 3220 271 
Q 2806 -91 2034 -91 
Q 1263 -91 848 271 
Q 434 634 434 1313 
Q 434 1759 690 2068 
Q 947 2378 1403 2484 
z
M 1172 3481 
Q 1172 3119 1398 2916 
Q 1625 2713 2034 2713 
Q 2441 2713 2670 2916 
Q 2900 3119 2900 3481 
Q 2900 3844 2670 4047 
Q 2441 4250 2034 4250 
Q 1625 4250 1398 4047 
Q 1172 3844 1172 3481 
z
" transform="scale(0.015625)"/>
       </defs>
       <use xlink:href="#DejaVuSans-38"/>
       <use xlink:href="#DejaVuSans-30" x="63.623047"/>
      </g>
     </g>
    </g>
    <g id="xtick_11">
     <g id="line2d_24">
      <g>
       <use xlink:href="#md480fdc32a" x="325.965625" y="192.418125" style="stroke: #000000; stroke-width: 0.8"/>
      </g>
     </g>
     <g id="text_15">
      <!-- 100 -->
      <g transform="translate(316.421875 207.016562) scale(0.1 -0.1)">
       <use xlink:href="#DejaVuSans-31"/>
       <use xlink:href="#DejaVuSans-30" x="63.623047"/>
       <use xlink:href="#DejaVuSans-30" x="127.246094"/>
      </g>
     </g>
    </g>
   </g>
   <g id="matplotlib.axis_4">
    <g id="ytick_4">
     <g id="line2d_25">
      <g>
       <use xlink:href="#m46a81e608e" x="46.965625" y="192.418125" style="stroke: #000000; stroke-width: 0.8"/>
      </g>
     </g>
     <g id="text_16">
      <!-- 0 -->
      <g transform="translate(33.603125 196.217344) scale(0.1 -0.1)">
       <use xlink:href="#DejaVuSans-30"/>
      </g>
     </g>
    </g>
    <g id="ytick_5">
     <g id="line2d_26">
      <g>
       <use xlink:href="#m46a81e608e" x="46.965625" y="161.269174" style="stroke: #000000; stroke-width: 0.8"/>
      </g>
     </g>
     <g id="text_17">
      <!-- 50 -->
      <g transform="translate(27.240625 165.068392) scale(0.1 -0.1)">
       <use xlink:href="#DejaVuSans-35"/>
       <use xlink:href="#DejaVuSans-30" x="63.623047"/>
      </g>
     </g>
    </g>
    <g id="ytick_6">
     <g id="line2d_27">
      <g>
       <use xlink:href="#m46a81e608e" x="46.965625" y="130.120222" style="stroke: #000000; stroke-width: 0.8"/>
      </g>
     </g>
     <g id="text_18">
      <!-- 100 -->
      <g transform="translate(20.878125 133.919441) scale(0.1 -0.1)">
       <use xlink:href="#DejaVuSans-31"/>
       <use xlink:href="#DejaVuSans-30" x="63.623047"/>
       <use xlink:href="#DejaVuSans-30" x="127.246094"/>
      </g>
     </g>
    </g>
    <g id="text_19">
     <!-- Escape Latency [#steps] -->
     <g transform="translate(14.798438 223.200156) rotate(-90) scale(0.1 -0.1)">
      <defs>
       <path id="DejaVuSans-45" d="M 628 4666 
L 3578 4666 
L 3578 4134 
L 1259 4134 
L 1259 2753 
L 3481 2753 
L 3481 2222 
L 1259 2222 
L 1259 531 
L 3634 531 
L 3634 0 
L 628 0 
L 628 4666 
z
" transform="scale(0.015625)"/>
       <path id="DejaVuSans-73" d="M 2834 3397 
L 2834 2853 
Q 2591 2978 2328 3040 
Q 2066 3103 1784 3103 
Q 1356 3103 1142 2972 
Q 928 2841 928 2578 
Q 928 2378 1081 2264 
Q 1234 2150 1697 2047 
L 1894 2003 
Q 2506 1872 2764 1633 
Q 3022 1394 3022 966 
Q 3022 478 2636 193 
Q 2250 -91 1575 -91 
Q 1294 -91 989 -36 
Q 684 19 347 128 
L 347 722 
Q 666 556 975 473 
Q 1284 391 1588 391 
Q 1994 391 2212 530 
Q 2431 669 2431 922 
Q 2431 1156 2273 1281 
Q 2116 1406 1581 1522 
L 1381 1569 
Q 847 1681 609 1914 
Q 372 2147 372 2553 
Q 372 3047 722 3315 
Q 1072 3584 1716 3584 
Q 2034 3584 2315 3537 
Q 2597 3491 2834 3397 
z
" transform="scale(0.015625)"/>
       <path id="DejaVuSans-70" d="M 1159 525 
L 1159 -1331 
L 581 -1331 
L 581 3500 
L 1159 3500 
L 1159 2969 
Q 1341 3281 1617 3432 
Q 1894 3584 2278 3584 
Q 2916 3584 3314 3078 
Q 3713 2572 3713 1747 
Q 3713 922 3314 415 
Q 2916 -91 2278 -91 
Q 1894 -91 1617 61 
Q 1341 213 1159 525 
z
M 3116 1747 
Q 3116 2381 2855 2742 
Q 2594 3103 2138 3103 
Q 1681 3103 1420 2742 
Q 1159 2381 1159 1747 
Q 1159 1113 1420 752 
Q 1681 391 2138 391 
Q 2594 391 2855 752 
Q 3116 1113 3116 1747 
z
" transform="scale(0.015625)"/>
       <path id="DejaVuSans-74" d="M 1172 4494 
L 1172 3500 
L 2356 3500 
L 2356 3053 
L 1172 3053 
L 1172 1153 
Q 1172 725 1289 603 
Q 1406 481 1766 481 
L 2356 481 
L 2356 0 
L 1766 0 
Q 1100 0 847 248 
Q 594 497 594 1153 
L 594 3053 
L 172 3053 
L 172 3500 
L 594 3500 
L 594 4494 
L 1172 4494 
z
" transform="scale(0.015625)"/>
       <path id="DejaVuSans-79" d="M 2059 -325 
Q 1816 -950 1584 -1140 
Q 1353 -1331 966 -1331 
L 506 -1331 
L 506 -850 
L 844 -850 
Q 1081 -850 1212 -737 
Q 1344 -625 1503 -206 
L 1606 56 
L 191 3500 
L 800 3500 
L 1894 763 
L 2988 3500 
L 3597 3500 
L 2059 -325 
z
" transform="scale(0.015625)"/>
       <path id="DejaVuSans-5b" d="M 550 4863 
L 1875 4863 
L 1875 4416 
L 1125 4416 
L 1125 -397 
L 1875 -397 
L 1875 -844 
L 550 -844 
L 550 4863 
z
" transform="scale(0.015625)"/>
       <path id="DejaVuSans-23" d="M 3272 2816 
L 2363 2816 
L 2100 1772 
L 3016 1772 
L 3272 2816 
z
M 2803 4594 
L 2478 3297 
L 3391 3297 
L 3719 4594 
L 4219 4594 
L 3897 3297 
L 4872 3297 
L 4872 2816 
L 3775 2816 
L 3519 1772 
L 4513 1772 
L 4513 1294 
L 3397 1294 
L 3072 0 
L 2572 0 
L 2894 1294 
L 1978 1294 
L 1656 0 
L 1153 0 
L 1478 1294 
L 494 1294 
L 494 1772 
L 1594 1772 
L 1856 2816 
L 850 2816 
L 850 3297 
L 1978 3297 
L 2297 4594 
L 2803 4594 
z
" transform="scale(0.015625)"/>
       <path id="DejaVuSans-5d" d="M 1947 4863 
L 1947 -844 
L 622 -844 
L 622 -397 
L 1369 -397 
L 1369 4416 
L 622 4416 
L 622 4863 
L 1947 4863 
z
" transform="scale(0.015625)"/>
      </defs>
      <use xlink:href="#DejaVuSans-45"/>
      <use xlink:href="#DejaVuSans-73" x="63.183594"/>
      <use xlink:href="#DejaVuSans-63" x="115.283203"/>
      <use xlink:href="#DejaVuSans-61" x="170.263672"/>
      <use xlink:href="#DejaVuSans-70" x="231.542969"/>
      <use xlink:href="#DejaVuSans-65" x="295.019531"/>
      <use xlink:href="#DejaVuSans-20" x="356.542969"/>
      <use xlink:href="#DejaVuSans-4c" x="388.330078"/>
      <use xlink:href="#DejaVuSans-61" x="444.042969"/>
      <use xlink:href="#DejaVuSans-74" x="505.322266"/>
      <use xlink:href="#DejaVuSans-65" x="544.53125"/>
      <use xlink:href="#DejaVuSans-6e" x="606.054688"/>
      <use xlink:href="#DejaVuSans-63" x="669.433594"/>
      <use xlink:href="#DejaVuSans-79" x="724.414062"/>
      <use xlink:href="#DejaVuSans-20" x="783.59375"/>
      <use xlink:href="#DejaVuSans-5b" x="815.380859"/>
      <use xlink:href="#DejaVuSans-23" x="854.394531"/>
      <use xlink:href="#DejaVuSans-73" x="938.183594"/>
      <use xlink:href="#DejaVuSans-74" x="990.283203"/>
      <use xlink:href="#DejaVuSans-65" x="1029.492188"/>
      <use xlink:href="#DejaVuSans-70" x="1091.015625"/>
      <use xlink:href="#DejaVuSans-73" x="1154.492188"/>
      <use xlink:href="#DejaVuSans-5d" x="1206.591797"/>
     </g>
    </g>
   </g>
   <g id="line2d_28">
    <path d="M 46.965625 134.829944 
L 49.783807 137.708107 
L 52.601989 140.710866 
L 55.42017 146.193081 
L 58.238352 145.6324 
L 61.056534 149.008946 
L 63.874716 154.653136 
L 66.692898 156.385018 
L 69.51108 159.088747 
L 72.329261 161.044901 
L 75.147443 164.882452 
L 77.965625 169.467578 
L 80.783807 168.371135 
L 83.601989 171.112242 
L 86.42017 175.747206 
L 89.238352 175.510474 
L 92.056534 177.753199 
L 94.874716 177.317113 
L 97.692898 179.372944 
L 100.51108 179.024076 
L 103.329261 180.544145 
L 106.147443 181.727805 
L 108.965625 182.114052 
L 111.783807 181.752724 
L 114.601989 181.378937 
L 117.42017 182.325865 
L 120.238352 183.235414 
L 123.056534 182.16389 
L 125.874716 184.107585 
L 128.692898 184.219721 
L 131.51108 183.95807 
L 134.329261 184.693185 
L 137.147443 183.908231 
L 139.965625 183.34755 
L 142.783807 183.384929 
L 145.601989 184.531211 
L 148.42017 183.235414 
L 151.238352 184.443993 
L 154.056534 183.883312 
L 156.874716 184.581049 
L 159.692898 184.593508 
L 162.51108 183.796095 
L 165.329261 184.605968 
L 168.147443 184.394155 
L 170.965625 183.858393 
L 173.783807 183.758717 
L 176.601989 184.394155 
L 179.42017 184.581049 
L 182.238352 183.397389 
L 185.056534 183.883312 
L 187.874716 183.808555 
L 190.692898 183.559363 
L 193.51108 184.780402 
L 196.329261 184.194802 
L 199.147443 184.979755 
L 201.965625 184.481372 
L 204.783807 184.792862 
L 207.601989 184.232181 
L 210.42017 184.805321 
L 213.238352 184.593508 
L 216.056534 184.306938 
L 218.874716 184.917458 
L 221.692898 185.054513 
L 224.51108 184.456453 
L 227.329261 184.506291 
L 230.147443 185.15419 
L 232.965625 184.929917 
L 235.783807 185.104351 
L 238.601989 185.054513 
L 241.42017 185.253866 
L 244.238352 184.967296 
L 247.056534 184.929917 
L 249.874716 185.116811 
L 252.692898 185.4283 
L 255.51108 183.671499 
L 258.329261 185.390922 
L 261.147443 185.054513 
L 263.965625 184.705645 
L 266.783807 185.241407 
L 269.601989 184.506291 
L 272.42017 185.253866 
L 275.238352 185.453219 
L 278.056534 184.755483 
L 280.874716 184.443993 
L 283.692898 184.705645 
L 286.51108 184.992215 
L 289.329261 185.478139 
L 292.147443 185.478139 
L 294.965625 185.4283 
L 297.783807 184.605968 
L 300.601989 184.929917 
L 303.42017 185.017134 
L 306.238352 184.805321 
L 309.056534 184.693185 
L 311.874716 185.166649 
L 314.692898 185.266326 
L 317.51108 185.415841 
L 320.329261 185.303705 
L 323.147443 185.390922 
L 325.965625 185.341083 
" clip-path="url(#p4ce20cd632)" style="fill: none; stroke: #000080; stroke-width: 1.5; stroke-linecap: square"/>
   </g>
   <g id="line2d_29">
    <path d="M 46.965625 137.110047 
L 49.783807 140.224942 
L 52.601989 143.177863 
L 55.42017 146.741303 
L 58.238352 144.610715 
L 61.056534 150.142768 
L 63.874716 151.052318 
L 66.692898 156.559452 
L 69.51108 161.231795 
L 72.329261 160.18519 
L 75.147443 163.312545 
L 77.965625 164.010281 
L 80.783807 165.592648 
L 83.601989 163.786009 
L 86.42017 169.629552 
L 89.238352 169.380361 
L 92.056534 171.398813 
L 94.874716 175.124227 
L 97.692898 174.663223 
L 100.51108 175.448176 
L 103.329261 176.843649 
L 106.147443 178.587991 
L 108.965625 180.531685 
L 111.783807 178.550612 
L 114.601989 180.743498 
L 117.42017 178.949318 
L 120.238352 181.2668 
L 123.056534 182.961303 
L 125.874716 182.849167 
L 128.692898 181.976997 
L 131.51108 181.740264 
L 134.329261 183.098359 
L 137.147443 182.16389 
L 139.965625 182.014375 
L 142.783807 182.512758 
L 145.601989 183.110818 
L 148.42017 183.509525 
L 151.238352 183.933151 
L 154.056534 183.671499 
L 156.874716 183.970529 
L 159.692898 182.537678 
L 162.51108 183.160657 
L 165.329261 183.933151 
L 168.147443 184.730564 
L 170.965625 182.699652 
L 173.783807 183.297712 
L 176.601989 184.655806 
L 179.42017 184.132504 
L 182.238352 183.845934 
L 185.056534 184.55613 
L 187.874716 183.808555 
L 190.692898 184.655806 
L 193.51108 184.394155 
L 196.329261 184.443993 
L 199.147443 183.297712 
L 201.965625 183.796095 
L 204.783807 183.94561 
L 207.601989 184.468913 
L 210.42017 184.369236 
L 213.238352 184.743023 
L 216.056534 184.954836 
L 218.874716 184.518751 
L 221.692898 184.643347 
L 224.51108 184.518751 
L 227.329261 183.95807 
L 230.147443 184.593508 
L 232.965625 184.481372 
L 235.783807 184.007908 
L 238.601989 184.767943 
L 241.42017 184.630887 
L 244.238352 184.85516 
L 247.056534 184.767943 
L 249.874716 184.942377 
L 252.692898 184.83024 
L 255.51108 184.705645 
L 258.329261 184.169883 
L 261.147443 185.14173 
L 263.965625 184.817781 
L 266.783807 184.817781 
L 269.601989 184.54367 
L 272.42017 184.805321 
L 275.238352 184.929917 
L 278.056534 184.431534 
L 280.874716 185.12927 
L 283.692898 185.291245 
L 286.51108 185.054513 
L 289.329261 184.431534 
L 292.147443 185.253866 
L 294.965625 185.341083 
L 297.783807 185.066972 
L 300.601989 185.179109 
L 303.42017 184.618428 
L 306.238352 185.079432 
L 309.056534 185.366002 
L 311.874716 184.419074 
L 314.692898 185.266326 
L 317.51108 185.378462 
L 320.329261 184.917458 
L 323.147443 184.506291 
L 325.965625 185.390922 
" clip-path="url(#p4ce20cd632)" style="fill: none; stroke: #0000ff; stroke-width: 1.5; stroke-linecap: square"/>
   </g>
   <g id="line2d_30">
    <path d="M 46.965625 134.107288 
L 49.783807 138.542899 
L 52.601989 141.882066 
L 55.42017 140.922679 
L 58.238352 148.037099 
L 61.056534 152.148761 
L 63.874716 155.13906 
L 66.692898 157.842789 
L 69.51108 159.948458 
L 72.329261 164.022741 
L 75.147443 163.661413 
L 77.965625 170.028259 
L 80.783807 171.560787 
L 83.601989 175.423257 
L 86.42017 173.990405 
L 89.238352 174.912414 
L 92.056534 178.450935 
L 94.874716 176.968245 
L 97.692898 178.762425 
L 100.51108 180.569064 
L 103.329261 179.49754 
L 106.147443 179.360485 
L 108.965625 181.653047 
L 111.783807 181.702886 
L 114.601989 181.540911 
L 117.42017 181.428775 
L 120.238352 182.525218 
L 123.056534 183.110818 
L 125.874716 182.338324 
L 128.692898 183.796095 
L 131.51108 183.808555 
L 134.329261 183.07344 
L 137.147443 183.584282 
L 139.965625 183.484606 
L 142.783807 183.06098 
L 145.601989 183.011142 
L 148.42017 182.986223 
L 151.238352 182.998682 
L 154.056534 184.605968 
L 156.874716 184.356776 
L 159.692898 184.568589 
L 162.51108 184.892538 
L 165.329261 184.194802 
L 168.147443 184.157423 
L 170.965625 184.182342 
L 173.783807 184.581049 
L 176.601989 183.94561 
L 179.42017 183.683959 
L 182.238352 184.406615 
L 185.056534 184.917458 
L 187.874716 184.755483 
L 190.692898 184.169883 
L 193.51108 183.708878 
L 196.329261 184.867619 
L 199.147443 185.116811 
L 201.965625 184.917458 
L 204.783807 185.017134 
L 207.601989 183.733797 
L 210.42017 183.596742 
L 213.238352 185.228947 
L 216.056534 184.892538 
L 218.874716 184.992215 
L 221.692898 184.593508 
L 224.51108 184.55613 
L 227.329261 184.8427 
L 230.147443 184.24464 
L 232.965625 184.805321 
L 235.783807 184.493832 
L 238.601989 185.042053 
L 241.42017 185.042053 
L 244.238352 184.618428 
L 247.056534 184.767943 
L 249.874716 185.266326 
L 252.692898 184.306938 
L 255.51108 185.066972 
L 258.329261 184.805321 
L 261.147443 185.316164 
L 263.965625 184.917458 
L 266.783807 184.481372 
L 269.601989 184.581049 
L 272.42017 185.253866 
L 275.238352 185.054513 
L 278.056534 184.880079 
L 280.874716 185.278785 
L 283.692898 185.515517 
L 286.51108 185.15419 
L 289.329261 185.091892 
L 292.147443 185.179109 
L 294.965625 185.540437 
L 297.783807 184.967296 
L 300.601989 185.465679 
L 303.42017 185.104351 
L 306.238352 184.605968 
L 309.056534 185.44076 
L 311.874716 185.527977 
L 314.692898 185.15419 
L 317.51108 184.680725 
L 320.329261 184.867619 
L 323.147443 184.755483 
L 325.965625 185.104351 
" clip-path="url(#p4ce20cd632)" style="fill: none; stroke: #0080ff; stroke-width: 1.5; stroke-linecap: square"/>
   </g>
   <g id="line2d_31">
    <path d="M 46.965625 132.101296 
L 49.783807 135.477842 
L 52.601989 140.224942 
L 55.42017 141.682713 
L 58.238352 143.626408 
L 61.056534 148.348589 
L 63.874716 149.133542 
L 66.692898 155.188898 
L 69.51108 156.846023 
L 72.329261 162.241021 
L 75.147443 162.976136 
L 77.965625 166.340223 
L 80.783807 168.906897 
L 83.601989 172.146387 
L 86.42017 170.725995 
L 89.238352 175.560313 
L 92.056534 177.254815 
L 94.874716 176.893488 
L 97.692898 177.653522 
L 100.51108 178.587991 
L 103.329261 180.145438 
L 106.147443 180.344791 
L 108.965625 183.310172 
L 111.783807 181.216962 
L 114.601989 181.192043 
L 117.42017 182.114052 
L 120.238352 180.743498 
L 123.056534 182.238648 
L 125.874716 182.151431 
L 128.692898 182.662273 
L 131.51108 182.687193 
L 134.329261 182.612435 
L 137.147443 183.596742 
L 139.965625 182.400622 
L 142.783807 183.06098 
L 145.601989 183.04852 
L 148.42017 183.771176 
L 151.238352 182.911465 
L 154.056534 183.895772 
L 156.874716 183.696419 
L 159.692898 184.294478 
L 162.51108 184.120044 
L 165.329261 184.157423 
L 168.147443 183.397389 
L 170.965625 183.95807 
L 173.783807 184.493832 
L 176.601989 184.107585 
L 179.42017 183.584282 
L 182.238352 184.095125 
L 185.056534 184.54367 
L 187.874716 184.55613 
L 190.692898 184.443993 
L 193.51108 184.082666 
L 196.329261 184.232181 
L 199.147443 184.443993 
L 201.965625 184.618428 
L 204.783807 184.381696 
L 207.601989 184.805321 
L 210.42017 184.107585 
L 213.238352 184.319398 
L 216.056534 184.992215 
L 218.874716 184.443993 
L 221.692898 184.805321 
L 224.51108 184.743023 
L 227.329261 185.004675 
L 230.147443 184.331857 
L 232.965625 183.683959 
L 235.783807 184.817781 
L 238.601989 184.904998 
L 241.42017 185.116811 
L 244.238352 184.743023 
L 247.056534 184.394155 
L 249.874716 184.443993 
L 252.692898 184.680725 
L 255.51108 184.668266 
L 258.329261 184.979755 
L 261.147443 184.269559 
L 263.965625 184.693185 
L 266.783807 185.15419 
L 269.601989 184.593508 
L 272.42017 184.531211 
L 275.238352 185.316164 
L 278.056534 185.328624 
L 280.874716 184.880079 
L 283.692898 185.266326 
L 286.51108 184.867619 
L 289.329261 185.066972 
L 292.147443 185.241407 
L 294.965625 185.191568 
L 297.783807 184.979755 
L 300.601989 184.643347 
L 303.42017 185.253866 
L 306.238352 184.917458 
L 309.056534 185.390922 
L 311.874716 184.605968 
L 314.692898 185.291245 
L 317.51108 185.390922 
L 320.329261 185.503058 
L 323.147443 185.478139 
L 325.965625 185.216487 
" clip-path="url(#p4ce20cd632)" style="fill: none; stroke: #16ffe1; stroke-width: 1.5; stroke-linecap: square"/>
   </g>
   <g id="line2d_32">
    <path d="M 46.965625 134.169586 
L 49.783807 138.194031 
L 52.601989 141.558117 
L 55.42017 146.629167 
L 58.238352 148.834512 
L 61.056534 151.488403 
L 63.874716 154.727894 
L 66.692898 157.51884 
L 69.51108 162.041668 
L 72.329261 159.749105 
L 75.147443 164.683099 
L 77.965625 165.704784 
L 80.783807 169.455118 
L 83.601989 171.261757 
L 86.42017 171.448651 
L 89.238352 174.899955 
L 92.056534 175.709828 
L 94.874716 176.370185 
L 97.692898 177.142679 
L 100.51108 178.737506 
L 103.329261 181.254341 
L 106.147443 178.89948 
L 108.965625 179.534919 
L 111.783807 181.727805 
L 114.601989 181.378937 
L 117.42017 182.114052 
L 120.238352 182.687193 
L 123.056534 182.724571 
L 125.874716 183.634121 
L 128.692898 184.331857 
L 131.51108 183.982989 
L 134.329261 184.219721 
L 137.147443 183.833474 
L 139.965625 184.194802 
L 142.783807 184.618428 
L 145.601989 183.933151 
L 148.42017 184.531211 
L 151.238352 183.571823 
L 154.056534 184.394155 
L 156.874716 184.169883 
L 159.692898 184.194802 
L 162.51108 184.468913 
L 165.329261 183.297712 
L 168.147443 184.294478 
L 170.965625 184.095125 
L 173.783807 184.232181 
L 176.601989 185.042053 
L 179.42017 183.721338 
L 182.238352 184.007908 
L 185.056534 184.718104 
L 187.874716 184.705645 
L 190.692898 184.518751 
L 193.51108 184.668266 
L 196.329261 183.497065 
L 199.147443 184.668266 
L 201.965625 184.55613 
L 204.783807 184.942377 
L 207.601989 183.671499 
L 210.42017 184.730564 
L 213.238352 185.091892 
L 216.056534 185.116811 
L 218.874716 184.55613 
L 221.692898 184.967296 
L 224.51108 183.970529 
L 227.329261 184.381696 
L 230.147443 185.091892 
L 232.965625 185.14173 
L 235.783807 185.091892 
L 238.601989 184.605968 
L 241.42017 184.618428 
L 244.238352 184.904998 
L 247.056534 184.867619 
L 249.874716 185.216487 
L 252.692898 185.191568 
L 255.51108 184.593508 
L 258.329261 185.4283 
L 261.147443 184.144964 
L 263.965625 184.767943 
L 266.783807 184.207261 
L 269.601989 185.328624 
L 272.42017 184.954836 
L 275.238352 184.780402 
L 278.056534 185.091892 
L 280.874716 185.241407 
L 283.692898 185.316164 
L 286.51108 185.216487 
L 289.329261 185.017134 
L 292.147443 184.8427 
L 294.965625 185.191568 
L 297.783807 185.12927 
L 300.601989 184.954836 
L 303.42017 185.403381 
L 306.238352 184.817781 
L 309.056534 184.817781 
L 311.874716 185.14173 
L 314.692898 185.303705 
L 317.51108 185.066972 
L 320.329261 185.278785 
L 323.147443 185.104351 
L 325.965625 184.630887 
" clip-path="url(#p4ce20cd632)" style="fill: none; stroke: #7dff7a; stroke-width: 1.5; stroke-linecap: square"/>
   </g>
   <g id="line2d_33">
    <path d="M 46.965625 135.428004 
L 49.783807 136.549366 
L 52.601989 140.449215 
L 55.42017 146.504571 
L 58.238352 148.049559 
L 61.056534 151.637918 
L 63.874716 154.192132 
L 66.692898 157.356865 
L 69.51108 159.30056 
L 72.329261 163.16303 
L 75.147443 164.259473 
L 77.965625 166.178248 
L 80.783807 167.199934 
L 83.601989 169.754148 
L 86.42017 171.984413 
L 89.238352 171.436191 
L 92.056534 174.401572 
L 94.874716 177.030543 
L 97.692898 177.603684 
L 100.51108 177.616143 
L 103.329261 178.139446 
L 106.147443 178.251582 
L 108.965625 179.522459 
L 111.783807 180.930392 
L 114.601989 181.129745 
L 117.42017 182.114052 
L 120.238352 182.425541 
L 123.056534 181.478613 
L 125.874716 182.637354 
L 128.692898 183.634121 
L 131.51108 182.861627 
L 134.329261 183.571823 
L 137.147443 184.045287 
L 139.965625 183.497065 
L 142.783807 182.46292 
L 145.601989 183.509525 
L 148.42017 183.322631 
L 151.238352 184.120044 
L 154.056534 184.194802 
L 156.874716 184.282019 
L 159.692898 184.306938 
L 162.51108 183.297712 
L 165.329261 183.023601 
L 168.147443 184.144964 
L 170.965625 183.696419 
L 173.783807 184.157423 
L 176.601989 184.668266 
L 179.42017 184.605968 
L 182.238352 184.2571 
L 185.056534 184.668266 
L 187.874716 184.194802 
L 190.692898 184.344317 
L 193.51108 184.693185 
L 196.329261 184.207261 
L 199.147443 184.630887 
L 201.965625 183.596742 
L 204.783807 184.431534 
L 207.601989 184.917458 
L 210.42017 184.182342 
L 213.238352 184.568589 
L 216.056534 184.618428 
L 218.874716 184.83024 
L 221.692898 184.892538 
L 224.51108 184.55613 
L 227.329261 185.054513 
L 230.147443 184.007908 
L 232.965625 184.792862 
L 235.783807 184.693185 
L 238.601989 184.593508 
L 241.42017 184.506291 
L 244.238352 184.743023 
L 247.056534 184.743023 
L 249.874716 184.792862 
L 252.692898 184.954836 
L 255.51108 184.805321 
L 258.329261 185.104351 
L 261.147443 185.004675 
L 263.965625 185.029594 
L 266.783807 184.506291 
L 269.601989 184.506291 
L 272.42017 184.630887 
L 275.238352 184.979755 
L 278.056534 184.431534 
L 280.874716 184.967296 
L 283.692898 184.680725 
L 286.51108 185.14173 
L 289.329261 184.618428 
L 292.147443 185.029594 
L 294.965625 185.15419 
L 297.783807 184.805321 
L 300.601989 185.14173 
L 303.42017 184.880079 
L 306.238352 185.44076 
L 309.056534 185.179109 
L 311.874716 184.880079 
L 314.692898 185.303705 
L 317.51108 185.14173 
L 320.329261 185.166649 
L 323.147443 185.116811 
L 325.965625 185.116811 
" clip-path="url(#p4ce20cd632)" style="fill: none; stroke: #e4ff13; stroke-width: 1.5; stroke-linecap: square"/>
   </g>
   <g id="line2d_34">
    <path d="M 46.965625 136.873315 
L 49.783807 139.215716 
L 52.601989 143.128024 
L 55.42017 145.096638 
L 58.238352 149.768981 
L 61.056534 151.58808 
L 63.874716 156.497154 
L 66.692898 160.471761 
L 69.51108 161.692799 
L 72.329261 166.215627 
L 75.147443 163.686332 
L 77.965625 164.458826 
L 80.783807 168.109483 
L 83.601989 168.994114 
L 86.42017 173.741214 
L 89.238352 174.488789 
L 92.056534 174.426491 
L 94.874716 176.581998 
L 97.692898 177.765658 
L 100.51108 179.136212 
L 103.329261 181.341558 
L 106.147443 180.706119 
L 108.965625 180.444468 
L 111.783807 179.647055 
L 114.601989 181.87732 
L 117.42017 182.500299 
L 120.238352 183.185576 
L 123.056534 183.260333 
L 125.874716 183.06098 
L 128.692898 183.559363 
L 131.51108 182.899005 
L 134.329261 183.210495 
L 137.147443 183.434767 
L 139.965625 183.634121 
L 142.783807 183.546904 
L 145.601989 184.867619 
L 148.42017 184.294478 
L 151.238352 183.472146 
L 154.056534 183.085899 
L 156.874716 183.011142 
L 159.692898 183.198035 
L 162.51108 182.238648 
L 165.329261 183.198035 
L 168.147443 183.609202 
L 170.965625 183.995449 
L 173.783807 184.306938 
L 176.601989 184.456453 
L 179.42017 182.662273 
L 182.238352 184.394155 
L 185.056534 184.007908 
L 187.874716 183.883312 
L 190.692898 184.269559 
L 193.51108 184.967296 
L 196.329261 184.904998 
L 199.147443 183.708878 
L 201.965625 183.995449 
L 204.783807 184.344317 
L 207.601989 184.705645 
L 210.42017 183.796095 
L 213.238352 184.531211 
L 216.056534 183.796095 
L 218.874716 185.465679 
L 221.692898 184.892538 
L 224.51108 184.83024 
L 227.329261 184.182342 
L 230.147443 185.017134 
L 232.965625 184.593508 
L 235.783807 184.157423 
L 238.601989 185.179109 
L 241.42017 185.278785 
L 244.238352 184.144964 
L 247.056534 185.166649 
L 249.874716 185.316164 
L 252.692898 184.805321 
L 255.51108 184.232181 
L 258.329261 184.531211 
L 261.147443 184.730564 
L 263.965625 185.104351 
L 266.783807 184.194802 
L 269.601989 184.282019 
L 272.42017 185.266326 
L 275.238352 184.817781 
L 278.056534 185.316164 
L 280.874716 185.490598 
L 283.692898 184.967296 
L 286.51108 185.079432 
L 289.329261 185.191568 
L 292.147443 185.191568 
L 294.965625 185.366002 
L 297.783807 185.079432 
L 300.601989 185.15419 
L 303.42017 185.179109 
L 306.238352 184.979755 
L 309.056534 185.191568 
L 311.874716 185.042053 
L 314.692898 184.655806 
L 317.51108 185.378462 
L 320.329261 184.680725 
L 323.147443 185.14173 
L 325.965625 185.328624 
" clip-path="url(#p4ce20cd632)" style="fill: none; stroke: #ff9400; stroke-width: 1.5; stroke-linecap: square"/>
   </g>
   <g id="line2d_35">
    <path d="M 46.965625 136.113281 
L 49.783807 135.452923 
L 52.601989 140.947598 
L 55.42017 138.80455 
L 58.238352 146.741303 
L 61.056534 148.871891 
L 63.874716 150.641151 
L 66.692898 154.603298 
L 69.51108 158.615283 
L 72.329261 160.060594 
L 75.147443 159.911079 
L 77.965625 164.396528 
L 80.783807 166.153329 
L 83.601989 169.056412 
L 86.42017 171.361434 
L 89.238352 174.600925 
L 92.056534 174.663223 
L 94.874716 175.63507 
L 97.692898 178.027309 
L 100.51108 177.740739 
L 103.329261 178.949318 
L 106.147443 178.89948 
L 108.965625 180.569064 
L 111.783807 179.435242 
L 114.601989 179.958544 
L 117.42017 181.740264 
L 120.238352 182.961303 
L 123.056534 183.210495 
L 125.874716 183.098359 
L 128.692898 183.310172 
L 131.51108 184.531211 
L 134.329261 183.198035 
L 137.147443 183.982989 
L 139.965625 183.634121 
L 142.783807 184.144964 
L 145.601989 183.422308 
L 148.42017 183.036061 
L 151.238352 183.584282 
L 154.056534 184.032827 
L 156.874716 184.306938 
L 159.692898 184.655806 
L 162.51108 183.447227 
L 165.329261 184.904998 
L 168.147443 183.908231 
L 170.965625 183.335091 
L 173.783807 185.091892 
L 176.601989 185.191568 
L 179.42017 183.671499 
L 182.238352 183.696419 
L 185.056534 185.079432 
L 187.874716 185.066972 
L 190.692898 184.967296 
L 193.51108 184.867619 
L 196.329261 185.017134 
L 199.147443 185.029594 
L 201.965625 184.394155 
L 204.783807 185.104351 
L 207.601989 185.228947 
L 210.42017 184.456453 
L 213.238352 184.618428 
L 216.056534 184.431534 
L 218.874716 185.415841 
L 221.692898 185.228947 
L 224.51108 184.867619 
L 227.329261 184.992215 
L 230.147443 185.15419 
L 232.965625 185.179109 
L 235.783807 185.004675 
L 238.601989 184.767943 
L 241.42017 185.366002 
L 244.238352 184.55613 
L 247.056534 184.419074 
L 249.874716 185.328624 
L 252.692898 185.191568 
L 255.51108 185.166649 
L 258.329261 184.904998 
L 261.147443 185.017134 
L 263.965625 185.453219 
L 266.783807 185.241407 
L 269.601989 184.481372 
L 272.42017 185.316164 
L 275.238352 185.415841 
L 278.056534 184.157423 
L 280.874716 185.12927 
L 283.692898 184.743023 
L 286.51108 184.54367 
L 289.329261 184.817781 
L 292.147443 184.967296 
L 294.965625 185.316164 
L 297.783807 185.004675 
L 300.601989 184.817781 
L 303.42017 185.72733 
L 306.238352 185.166649 
L 309.056534 185.291245 
L 311.874716 185.378462 
L 314.692898 185.503058 
L 317.51108 185.366002 
L 320.329261 185.241407 
L 323.147443 185.228947 
L 325.965625 185.552896 
" clip-path="url(#p4ce20cd632)" style="fill: none; stroke: #ff1e00; stroke-width: 1.5; stroke-linecap: square"/>
   </g>
   <g id="line2d_36">
    <path d="M 46.965625 133.870556 
L 49.783807 136.188038 
L 52.601989 136.873315 
L 55.42017 141.234168 
L 58.238352 143.040807 
L 61.056534 143.950357 
L 63.874716 148.286291 
L 66.692898 153.618991 
L 69.51108 152.858957 
L 72.329261 158.964151 
L 75.147443 159.113666 
L 77.965625 163.474519 
L 80.783807 164.907371 
L 83.601989 167.723236 
L 86.42017 168.607867 
L 89.238352 171.137161 
L 92.056534 172.08409 
L 94.874716 172.594932 
L 97.692898 174.301895 
L 100.51108 174.875036 
L 103.329261 175.360959 
L 106.147443 176.245589 
L 108.965625 179.634595 
L 111.783807 178.338799 
L 114.601989 179.958544 
L 117.42017 182.039294 
L 120.238352 180.706119 
L 123.056534 182.17635 
L 125.874716 183.297712 
L 128.692898 182.649814 
L 131.51108 181.142205 
L 134.329261 182.350784 
L 137.147443 183.472146 
L 139.965625 183.173116 
L 142.783807 182.674733 
L 145.601989 183.37247 
L 148.42017 182.836708 
L 151.238352 183.497065 
L 154.056534 184.020368 
L 156.874716 182.637354 
L 159.692898 183.422308 
L 162.51108 183.65904 
L 165.329261 183.883312 
L 168.147443 183.07344 
L 170.965625 183.036061 
L 173.783807 184.668266 
L 176.601989 184.518751 
L 179.42017 185.017134 
L 182.238352 184.057746 
L 185.056534 184.967296 
L 187.874716 185.15419 
L 190.692898 184.630887 
L 193.51108 184.880079 
L 196.329261 184.369236 
L 199.147443 184.954836 
L 201.965625 184.979755 
L 204.783807 183.858393 
L 207.601989 184.705645 
L 210.42017 184.83024 
L 213.238352 184.481372 
L 216.056534 183.821014 
L 218.874716 184.655806 
L 221.692898 185.179109 
L 224.51108 184.431534 
L 227.329261 185.415841 
L 230.147443 184.954836 
L 232.965625 185.503058 
L 235.783807 185.527977 
L 238.601989 184.493832 
L 241.42017 184.095125 
L 244.238352 185.104351 
L 247.056534 185.378462 
L 249.874716 184.904998 
L 252.692898 185.378462 
L 255.51108 185.054513 
L 258.329261 184.867619 
L 261.147443 184.954836 
L 263.965625 185.216487 
L 266.783807 184.55613 
L 269.601989 185.278785 
L 272.42017 185.216487 
L 275.238352 185.191568 
L 278.056534 185.490598 
L 280.874716 184.668266 
L 283.692898 185.017134 
L 286.51108 185.017134 
L 289.329261 185.764709 
L 292.147443 184.904998 
L 294.965625 185.552896 
L 297.783807 185.179109 
L 300.601989 185.12927 
L 303.42017 185.366002 
L 306.238352 184.493832 
L 309.056534 184.979755 
L 311.874716 185.266326 
L 314.692898 185.490598 
L 317.51108 185.552896 
L 320.329261 185.204028 
L 323.147443 185.4283 
L 325.965625 185.328624 
" clip-path="url(#p4ce20cd632)" style="fill: none; stroke: #800000; stroke-width: 1.5; stroke-linecap: square"/>
   </g>
   <g id="line2d_37">
    <path d="M 46.965625 186.188335 
L 325.965625 186.188335 
" clip-path="url(#p4ce20cd632)" style="fill: none; stroke-dasharray: 5.55,2.4; stroke-dashoffset: 0; stroke: #808080; stroke-width: 1.5"/>
   </g>
   <g id="patch_6">
    <path d="M 46.965625 192.418125 
L 46.965625 129.418125 
" style="fill: none; stroke: #000000; stroke-width: 0.8; stroke-linejoin: miter; stroke-linecap: square"/>
   </g>
   <g id="patch_7">
    <path d="M 46.965625 192.418125 
L 325.965625 192.418125 
" style="fill: none; stroke: #000000; stroke-width: 0.8; stroke-linejoin: miter; stroke-linecap: square"/>
   </g>
   <g id="text_20">
    <!-- Open Field -->
    <g transform="translate(154.681563 123.418125) scale(0.12 -0.12)">
     <defs>
      <path id="DejaVuSans-4f" d="M 2522 4238 
Q 1834 4238 1429 3725 
Q 1025 3213 1025 2328 
Q 1025 1447 1429 934 
Q 1834 422 2522 422 
Q 3209 422 3611 934 
Q 4013 1447 4013 2328 
Q 4013 3213 3611 3725 
Q 3209 4238 2522 4238 
z
M 2522 4750 
Q 3503 4750 4090 4092 
Q 4678 3434 4678 2328 
Q 4678 1225 4090 567 
Q 3503 -91 2522 -91 
Q 1538 -91 948 565 
Q 359 1222 359 2328 
Q 359 3434 948 4092 
Q 1538 4750 2522 4750 
z
" transform="scale(0.015625)"/>
      <path id="DejaVuSans-46" d="M 628 4666 
L 3309 4666 
L 3309 4134 
L 1259 4134 
L 1259 2759 
L 3109 2759 
L 3109 2228 
L 1259 2228 
L 1259 0 
L 628 0 
L 628 4666 
z
" transform="scale(0.015625)"/>
      <path id="DejaVuSans-6c" d="M 603 4863 
L 1178 4863 
L 1178 0 
L 603 0 
L 603 4863 
z
" transform="scale(0.015625)"/>
      <path id="DejaVuSans-64" d="M 2906 2969 
L 2906 4863 
L 3481 4863 
L 3481 0 
L 2906 0 
L 2906 525 
Q 2725 213 2448 61 
Q 2172 -91 1784 -91 
Q 1150 -91 751 415 
Q 353 922 353 1747 
Q 353 2572 751 3078 
Q 1150 3584 1784 3584 
Q 2172 3584 2448 3432 
Q 2725 3281 2906 2969 
z
M 947 1747 
Q 947 1113 1208 752 
Q 1469 391 1925 391 
Q 2381 391 2643 752 
Q 2906 1113 2906 1747 
Q 2906 2381 2643 2742 
Q 2381 3103 1925 3103 
Q 1469 3103 1208 2742 
Q 947 2381 947 1747 
z
" transform="scale(0.015625)"/>
     </defs>
     <use xlink:href="#DejaVuSans-4f"/>
     <use xlink:href="#DejaVuSans-70" x="78.710938"/>
     <use xlink:href="#DejaVuSans-65" x="142.1875"/>
     <use xlink:href="#DejaVuSans-6e" x="203.710938"/>
     <use xlink:href="#DejaVuSans-20" x="267.089844"/>
     <use xlink:href="#DejaVuSans-46" x="298.876953"/>
     <use xlink:href="#DejaVuSans-69" x="349.146484"/>
     <use xlink:href="#DejaVuSans-65" x="376.929688"/>
     <use xlink:href="#DejaVuSans-6c" x="438.453125"/>
     <use xlink:href="#DejaVuSans-64" x="466.236328"/>
    </g>
   </g>
  </g>
  <g id="axes_3">
   <g id="patch_8">
    <path d="M 46.965625 299.518125 
L 325.965625 299.518125 
L 325.965625 236.518125 
L 46.965625 236.518125 
z
" style="fill: #ffffff"/>
   </g>
   <g id="matplotlib.axis_5">
    <g id="xtick_12">
     <g id="line2d_38">
      <g>
       <use xlink:href="#md480fdc32a" x="46.965625" y="299.518125" style="stroke: #000000; stroke-width: 0.8"/>
      </g>
     </g>
     <g id="text_21">
      <!-- 1 -->
      <g transform="translate(43.784375 314.116562) scale(0.1 -0.1)">
       <use xlink:href="#DejaVuSans-31"/>
      </g>
     </g>
    </g>
    <g id="xtick_13">
     <g id="line2d_39">
      <g>
       <use xlink:href="#md480fdc32a" x="100.51108" y="299.518125" style="stroke: #000000; stroke-width: 0.8"/>
      </g>
     </g>
     <g id="text_22">
      <!-- 20 -->
      <g transform="translate(94.14858 314.116562) scale(0.1 -0.1)">
       <use xlink:href="#DejaVuSans-32"/>
       <use xlink:href="#DejaVuSans-30" x="63.623047"/>
      </g>
     </g>
    </g>
    <g id="xtick_14">
     <g id="line2d_40">
      <g>
       <use xlink:href="#md480fdc32a" x="156.874716" y="299.518125" style="stroke: #000000; stroke-width: 0.8"/>
      </g>
     </g>
     <g id="text_23">
      <!-- 40 -->
      <g transform="translate(150.512216 314.116562) scale(0.1 -0.1)">
       <use xlink:href="#DejaVuSans-34"/>
       <use xlink:href="#DejaVuSans-30" x="63.623047"/>
      </g>
     </g>
    </g>
    <g id="xtick_15">
     <g id="line2d_41">
      <g>
       <use xlink:href="#md480fdc32a" x="213.238352" y="299.518125" style="stroke: #000000; stroke-width: 0.8"/>
      </g>
     </g>
     <g id="text_24">
      <!-- 60 -->
      <g transform="translate(206.875852 314.116562) scale(0.1 -0.1)">
       <use xlink:href="#DejaVuSans-36"/>
       <use xlink:href="#DejaVuSans-30" x="63.623047"/>
      </g>
     </g>
    </g>
    <g id="xtick_16">
     <g id="line2d_42">
      <g>
       <use xlink:href="#md480fdc32a" x="269.601989" y="299.518125" style="stroke: #000000; stroke-width: 0.8"/>
      </g>
     </g>
     <g id="text_25">
      <!-- 80 -->
      <g transform="translate(263.239489 314.116562) scale(0.1 -0.1)">
       <use xlink:href="#DejaVuSans-38"/>
       <use xlink:href="#DejaVuSans-30" x="63.623047"/>
      </g>
     </g>
    </g>
    <g id="xtick_17">
     <g id="line2d_43">
      <g>
       <use xlink:href="#md480fdc32a" x="325.965625" y="299.518125" style="stroke: #000000; stroke-width: 0.8"/>
      </g>
     </g>
     <g id="text_26">
      <!-- 100 -->
      <g transform="translate(316.421875 314.116562) scale(0.1 -0.1)">
       <use xlink:href="#DejaVuSans-31"/>
       <use xlink:href="#DejaVuSans-30" x="63.623047"/>
       <use xlink:href="#DejaVuSans-30" x="127.246094"/>
      </g>
     </g>
    </g>
    <g id="text_27">
     <!-- Trial -->
     <g transform="translate(176.251563 327.794687) scale(0.1 -0.1)">
      <use xlink:href="#DejaVuSans-54"/>
      <use xlink:href="#DejaVuSans-72" x="46.333984"/>
      <use xlink:href="#DejaVuSans-69" x="87.447266"/>
      <use xlink:href="#DejaVuSans-61" x="115.230469"/>
      <use xlink:href="#DejaVuSans-6c" x="176.509766"/>
     </g>
    </g>
   </g>
   <g id="matplotlib.axis_6">
    <g id="ytick_7">
     <g id="line2d_44">
      <g>
       <use xlink:href="#m46a81e608e" x="46.965625" y="299.518125" style="stroke: #000000; stroke-width: 0.8"/>
      </g>
     </g>
     <g id="text_28">
      <!-- 0 -->
      <g transform="translate(33.603125 303.317344) scale(0.1 -0.1)">
       <use xlink:href="#DejaVuSans-30"/>
      </g>
     </g>
    </g>
    <g id="ytick_8">
     <g id="line2d_45">
      <g>
       <use xlink:href="#m46a81e608e" x="46.965625" y="278.482083" style="stroke: #000000; stroke-width: 0.8"/>
      </g>
     </g>
     <g id="text_29">
      <!-- 100 -->
      <g transform="translate(20.878125 282.281302) scale(0.1 -0.1)">
       <use xlink:href="#DejaVuSans-31"/>
       <use xlink:href="#DejaVuSans-30" x="63.623047"/>
       <use xlink:href="#DejaVuSans-30" x="127.246094"/>
      </g>
     </g>
    </g>
    <g id="ytick_9">
     <g id="line2d_46">
      <g>
       <use xlink:href="#m46a81e608e" x="46.965625" y="257.446041" style="stroke: #000000; stroke-width: 0.8"/>
      </g>
     </g>
     <g id="text_30">
      <!-- 200 -->
      <g transform="translate(20.878125 261.24526) scale(0.1 -0.1)">
       <use xlink:href="#DejaVuSans-32"/>
       <use xlink:href="#DejaVuSans-30" x="63.623047"/>
       <use xlink:href="#DejaVuSans-30" x="127.246094"/>
      </g>
     </g>
    </g>
   </g>
   <g id="line2d_47">
    <path d="M 46.965625 239.291937 
L 49.783807 249.595391 
L 52.601989 258.859664 
L 55.42017 263.071079 
L 58.238352 265.473395 
L 61.056534 273.134721 
L 63.874716 276.340614 
L 66.692898 278.646164 
L 69.51108 280.434228 
L 72.329261 281.490237 
L 75.147443 280.859156 
L 77.965625 281.679562 
L 80.783807 282.449481 
L 83.601989 284.443697 
L 86.42017 286.391635 
L 89.238352 287.712698 
L 92.056534 288.352194 
L 94.874716 289.403996 
L 97.692898 289.795267 
L 100.51108 290.207573 
L 103.329261 290.28751 
L 106.147443 291.015357 
L 108.965625 291.890456 
L 111.783807 291.995636 
L 114.601989 292.193375 
L 117.42017 292.445808 
L 120.238352 292.757141 
L 123.056534 293.21152 
L 125.874716 293.564925 
L 128.692898 293.712177 
L 131.51108 293.699556 
L 134.329261 293.724799 
L 137.147443 293.640655 
L 139.965625 293.686934 
L 142.783807 293.657484 
L 145.601989 293.855223 
L 148.42017 293.817358 
L 151.238352 293.787907 
L 154.056534 293.804736 
L 156.874716 293.905709 
L 159.692898 293.914123 
L 162.51108 293.909916 
L 165.329261 293.96461 
L 168.147443 293.851015 
L 170.965625 293.75425 
L 173.783807 293.821565 
L 176.601989 293.897295 
L 179.42017 294.036133 
L 182.238352 293.922538 
L 185.056534 294.128691 
L 187.874716 294.052961 
L 190.692898 294.031925 
L 193.51108 294.153934 
L 196.329261 294.073997 
L 199.147443 294.103448 
L 201.965625 294.095033 
L 204.783807 294.036133 
L 207.601989 294.082412 
L 210.42017 294.284358 
L 213.238352 294.124484 
L 216.056534 294.065583 
L 218.874716 294.191799 
L 221.692898 294.010889 
L 224.51108 294.246493 
L 227.329261 294.259115 
L 230.147443 294.090826 
L 232.965625 294.263322 
L 235.783807 294.057169 
L 238.601989 294.301187 
L 241.42017 294.107655 
L 244.238352 294.263322 
L 247.056534 294.217042 
L 249.874716 294.22125 
L 252.692898 294.351673 
L 255.51108 294.318015 
L 258.329261 294.183385 
L 261.147443 294.334844 
L 263.965625 294.191799 
L 266.783807 294.393745 
L 269.601989 294.35588 
L 272.42017 294.284358 
L 275.238352 294.32643 
L 278.056534 294.440025 
L 280.874716 294.444232 
L 283.692898 294.456853 
L 286.51108 294.35588 
L 289.329261 294.410574 
L 292.147443 294.35588 
L 294.965625 294.275943 
L 297.783807 294.389538 
L 300.601989 294.309601 
L 303.42017 294.452646 
L 306.238352 294.347466 
L 309.056534 294.267529 
L 311.874716 294.372709 
L 314.692898 294.456853 
L 317.51108 294.2507 
L 320.329261 294.305394 
L 323.147443 294.490511 
L 325.965625 294.482097 
" clip-path="url(#p6e6af976f2)" style="fill: none; stroke: #000080; stroke-width: 1.5; stroke-linecap: square"/>
   </g>
   <g id="line2d_48">
    <path d="M 46.965625 239.43919 
L 49.783807 247.125759 
L 52.601989 253.487058 
L 55.42017 259.389772 
L 58.238352 262.452619 
L 61.056534 266.516783 
L 63.874716 271.927253 
L 66.692898 276.197569 
L 69.51108 280.396363 
L 72.329261 282.714535 
L 75.147443 284.157607 
L 77.965625 287.245698 
L 80.783807 290.295924 
L 83.601989 291.574916 
L 86.42017 292.033501 
L 89.238352 292.681411 
L 92.056534 292.643547 
L 94.874716 292.971709 
L 97.692898 293.169448 
L 100.51108 293.543889 
L 103.329261 293.590168 
L 106.147443 293.405051 
L 108.965625 293.564925 
L 111.783807 293.476574 
L 114.601989 293.661691 
L 117.42017 293.640655 
L 120.238352 293.787907 
L 123.056534 293.686934 
L 125.874716 293.741628 
L 128.692898 293.729006 
L 131.51108 293.564925 
L 134.329261 293.796322 
L 137.147443 293.564925 
L 139.965625 293.724799 
L 142.783807 293.623826 
L 145.601989 293.872051 
L 148.42017 293.67852 
L 151.238352 293.851015 
L 154.056534 293.872051 
L 156.874716 293.821565 
L 159.692898 293.872051 
L 162.51108 293.884673 
L 165.329261 293.947781 
L 168.147443 293.897295 
L 170.965625 293.943574 
L 173.783807 293.939367 
L 176.601989 293.85943 
L 179.42017 293.968817 
L 182.238352 294.036133 
L 185.056534 293.762664 
L 187.874716 294.015096 
L 190.692898 294.116069 
L 193.51108 293.838394 
L 196.329261 294.002475 
L 199.147443 293.99406 
L 201.965625 293.85943 
L 204.783807 294.048754 
L 207.601989 294.233871 
L 210.42017 294.023511 
L 213.238352 293.926745 
L 216.056534 294.082412 
L 218.874716 294.082412 
L 221.692898 294.14552 
L 224.51108 294.111862 
L 227.329261 294.14552 
L 230.147443 294.057169 
L 232.965625 294.162349 
L 235.783807 294.082412 
L 238.601989 294.027718 
L 241.42017 294.204421 
L 244.238352 294.153934 
L 247.056534 294.200214 
L 249.874716 294.116069 
L 252.692898 294.141313 
L 255.51108 294.196006 
L 258.329261 294.217042 
L 261.147443 294.263322 
L 263.965625 294.368502 
L 266.783807 294.267529 
L 269.601989 294.376916 
L 272.42017 294.288565 
L 275.238352 294.217042 
L 278.056534 294.271736 
L 280.874716 294.330637 
L 283.692898 294.191799 
L 286.51108 294.313808 
L 289.329261 294.200214 
L 292.147443 294.271736 
L 294.965625 294.212835 
L 297.783807 294.35588 
L 300.601989 294.360088 
L 303.42017 294.410574 
L 306.238352 294.343259 
L 309.056534 294.389538 
L 311.874716 294.448439 
L 314.692898 294.339052 
L 317.51108 294.322223 
L 320.329261 294.301187 
L 323.147443 294.322223 
L 325.965625 294.469475 
" clip-path="url(#p6e6af976f2)" style="fill: none; stroke: #0000ff; stroke-width: 1.5; stroke-linecap: square"/>
   </g>
   <g id="line2d_49">
    <path d="M 46.965625 240.852812 
L 49.783807 248.131282 
L 52.601989 254.702942 
L 55.42017 260.391087 
L 58.238352 266.996404 
L 61.056534 270.656676 
L 63.874716 274.220181 
L 66.692898 278.444218 
L 69.51108 280.543615 
L 72.329261 282.941724 
L 75.147443 284.178643 
L 77.965625 285.613301 
L 80.783807 286.559923 
L 83.601989 288.512068 
L 86.42017 288.966446 
L 89.238352 290.123429 
L 92.056534 290.460005 
L 94.874716 290.628294 
L 97.692898 290.990114 
L 100.51108 291.322483 
L 103.329261 291.415042 
L 106.147443 292.046123 
L 108.965625 292.02088 
L 111.783807 292.534159 
L 114.601989 292.761348 
L 117.42017 293.262006 
L 120.238352 293.312493 
L 123.056534 293.190484 
L 125.874716 293.224141 
L 128.692898 293.34615 
L 131.51108 294.095033 
L 134.329261 293.829979 
L 137.147443 293.867844 
L 139.965625 293.968817 
L 142.783807 293.872051 
L 145.601989 293.947781 
L 148.42017 294.078205 
L 151.238352 294.006682 
L 154.056534 294.073997 
L 156.874716 293.872051 
L 159.692898 294.141313 
L 162.51108 294.132898 
L 165.329261 294.225457 
L 168.147443 294.06979 
L 170.965625 294.132898 
L 173.783807 294.2507 
L 176.601989 294.162349 
L 179.42017 294.006682 
L 182.238352 294.208628 
L 185.056534 294.17497 
L 187.874716 294.027718 
L 190.692898 294.204421 
L 193.51108 294.120277 
L 196.329261 294.301187 
L 199.147443 294.410574 
L 201.965625 294.376916 
L 204.783807 294.170763 
L 207.601989 294.343259 
L 210.42017 294.389538 
L 213.238352 294.288565 
L 216.056534 294.263322 
L 218.874716 294.318015 
L 221.692898 294.179178 
L 224.51108 294.305394 
L 227.329261 294.22125 
L 230.147443 294.330637 
L 232.965625 294.128691 
L 235.783807 294.393745 
L 238.601989 294.187592 
L 241.42017 294.347466 
L 244.238352 294.254907 
L 247.056534 294.183385 
L 249.874716 294.343259 
L 252.692898 294.334844 
L 255.51108 294.444232 
L 258.329261 294.477889 
L 261.147443 294.271736 
L 263.965625 294.305394 
L 266.783807 294.418988 
L 269.601989 294.40216 
L 272.42017 294.473682 
L 275.238352 294.275943 
L 278.056534 294.191799 
L 280.874716 294.322223 
L 283.692898 294.50734 
L 286.51108 294.473682 
L 289.329261 294.376916 
L 292.147443 294.318015 
L 294.965625 294.330637 
L 297.783807 294.448439 
L 300.601989 294.50734 
L 303.42017 294.2507 
L 306.238352 294.364295 
L 309.056534 294.490511 
L 311.874716 294.242286 
L 314.692898 294.452646 
L 317.51108 294.440025 
L 320.329261 294.389538 
L 323.147443 294.448439 
L 325.965625 294.410574 
" clip-path="url(#p6e6af976f2)" style="fill: none; stroke: #0080ff; stroke-width: 1.5; stroke-linecap: square"/>
   </g>
   <g id="line2d_50">
    <path d="M 46.965625 239.98192 
L 49.783807 245.5733 
L 52.601989 251.22358 
L 55.42017 257.340861 
L 58.238352 264.488908 
L 61.056534 268.910684 
L 63.874716 274.098172 
L 66.692898 277.249371 
L 69.51108 280.58148 
L 72.329261 282.937517 
L 75.147443 283.888346 
L 77.965625 285.461842 
L 80.783807 286.492608 
L 83.601989 287.212041 
L 86.42017 287.561239 
L 89.238352 288.499446 
L 92.056534 288.995897 
L 94.874716 290.127636 
L 97.692898 290.152879 
L 100.51108 290.90597 
L 103.329261 291.204681 
L 106.147443 291.271997 
L 108.965625 291.520222 
L 111.783807 291.330898 
L 114.601989 291.591744 
L 117.42017 292.630925 
L 120.238352 292.723484 
L 123.056534 293.329322 
L 125.874716 293.177862 
L 128.692898 293.009574 
L 131.51108 293.426087 
L 134.329261 293.367186 
L 137.147443 293.851015 
L 139.965625 293.96461 
L 142.783807 293.686934 
L 145.601989 293.787907 
L 148.42017 293.75425 
L 151.238352 293.968817 
L 154.056534 293.914123 
L 156.874716 293.872051 
L 159.692898 293.956196 
L 162.51108 293.947781 
L 165.329261 294.06979 
L 168.147443 293.39243 
L 170.965625 293.762664 
L 173.783807 294.015096 
L 176.601989 294.22125 
L 179.42017 294.031925 
L 182.238352 293.973024 
L 185.056534 294.078205 
L 187.874716 294.057169 
L 190.692898 294.116069 
L 193.51108 294.090826 
L 196.329261 294.318015 
L 199.147443 294.162349 
L 201.965625 294.238079 
L 204.783807 293.851015 
L 207.601989 294.166556 
L 210.42017 294.095033 
L 213.238352 294.086619 
L 216.056534 294.006682 
L 218.874716 294.141313 
L 221.692898 293.989853 
L 224.51108 294.137106 
L 227.329261 294.191799 
L 230.147443 294.212835 
L 232.965625 294.238079 
L 235.783807 293.998268 
L 238.601989 294.296979 
L 241.42017 294.204421 
L 244.238352 294.254907 
L 247.056534 294.313808 
L 249.874716 294.196006 
L 252.692898 294.263322 
L 255.51108 294.435817 
L 258.329261 294.183385 
L 261.147443 294.360088 
L 263.965625 294.351673 
L 266.783807 294.322223 
L 269.601989 294.410574 
L 272.42017 294.284358 
L 275.238352 294.339052 
L 278.056534 294.40216 
L 280.874716 294.271736 
L 283.692898 294.381124 
L 286.51108 294.389538 
L 289.329261 294.381124 
L 292.147443 294.503133 
L 294.965625 294.423196 
L 297.783807 294.545205 
L 300.601989 294.368502 
L 303.42017 294.32643 
L 306.238352 294.50734 
L 309.056534 294.313808 
L 311.874716 294.296979 
L 314.692898 294.376916 
L 317.51108 294.322223 
L 320.329261 294.372709 
L 323.147443 294.418988 
L 325.965625 294.461061 
" clip-path="url(#p6e6af976f2)" style="fill: none; stroke: #16ffe1; stroke-width: 1.5; stroke-linecap: square"/>
   </g>
   <g id="line2d_51">
    <path d="M 46.965625 240.183866 
L 49.783807 247.33612 
L 52.601989 253.478644 
L 55.42017 258.283276 
L 58.238352 263.449728 
L 61.056534 266.091855 
L 63.874716 269.642739 
L 66.692898 273.168379 
L 69.51108 277.400831 
L 72.329261 280.383741 
L 75.147443 283.358238 
L 77.965625 287.397158 
L 80.783807 289.176807 
L 83.601989 289.429239 
L 86.42017 290.1066 
L 89.238352 290.350618 
L 92.056534 290.253852 
L 94.874716 290.704024 
L 97.692898 291.271997 
L 100.51108 292.088195 
L 103.329261 292.037709 
L 106.147443 292.496294 
L 108.965625 292.811835 
L 111.783807 292.504709 
L 114.601989 292.748727 
L 117.42017 292.471051 
L 120.238352 292.719276 
L 123.056534 292.475258 
L 125.874716 292.521538 
L 128.692898 292.891772 
L 131.51108 293.139997 
L 134.329261 293.266213 
L 137.147443 293.39243 
L 139.965625 293.447123 
L 142.783807 293.729006 
L 145.601989 293.733214 
L 148.42017 294.019304 
L 151.238352 293.825772 
L 154.056534 293.88888 
L 156.874716 293.88888 
L 159.692898 294.019304 
L 162.51108 294.006682 
L 165.329261 293.93516 
L 168.147443 293.703763 
L 170.965625 294.057169 
L 173.783807 293.947781 
L 176.601989 293.829979 
L 179.42017 294.107655 
L 182.238352 293.880466 
L 185.056534 294.057169 
L 187.874716 293.977232 
L 190.692898 294.132898 
L 193.51108 294.015096 
L 196.329261 294.015096 
L 199.147443 294.073997 
L 201.965625 294.149727 
L 204.783807 293.99406 
L 207.601989 294.065583 
L 210.42017 294.271736 
L 213.238352 294.086619 
L 216.056534 294.292772 
L 218.874716 294.187592 
L 221.692898 294.149727 
L 224.51108 294.132898 
L 227.329261 294.246493 
L 230.147443 294.204421 
L 232.965625 294.204421 
L 235.783807 294.246493 
L 238.601989 294.086619 
L 241.42017 294.132898 
L 244.238352 293.52706 
L 247.056534 294.296979 
L 249.874716 294.233871 
L 252.692898 294.280151 
L 255.51108 294.196006 
L 258.329261 294.296979 
L 261.147443 294.284358 
L 263.965625 294.334844 
L 266.783807 294.32643 
L 269.601989 294.149727 
L 272.42017 294.309601 
L 275.238352 294.40216 
L 278.056534 294.414781 
L 280.874716 294.292772 
L 283.692898 294.35588 
L 286.51108 294.208628 
L 289.329261 294.330637 
L 292.147443 294.246493 
L 294.965625 294.322223 
L 297.783807 294.40216 
L 300.601989 294.414781 
L 303.42017 294.259115 
L 306.238352 294.313808 
L 309.056534 294.35588 
L 311.874716 294.393745 
L 314.692898 294.435817 
L 317.51108 294.254907 
L 320.329261 294.259115 
L 323.147443 294.435817 
L 325.965625 294.482097 
" clip-path="url(#p6e6af976f2)" style="fill: none; stroke: #7dff7a; stroke-width: 1.5; stroke-linecap: square"/>
   </g>
   <g id="line2d_52">
    <path d="M 46.965625 240.604586 
L 49.783807 247.580138 
L 52.601989 256.192293 
L 55.42017 262.545178 
L 58.238352 269.377684 
L 61.056534 273.971956 
L 63.874716 276.403722 
L 66.692898 278.63775 
L 69.51108 280.324841 
L 72.329261 281.296706 
L 75.147443 282.672463 
L 77.965625 284.279616 
L 80.783807 284.41004 
L 83.601989 286.231761 
L 86.42017 288.827609 
L 89.238352 289.950933 
L 92.056534 290.460005 
L 94.874716 291.415042 
L 97.692898 291.452907 
L 100.51108 291.469735 
L 103.329261 293.03061 
L 106.147443 293.055853 
L 108.965625 293.24097 
L 111.783807 293.548096 
L 114.601989 293.724799 
L 117.42017 293.640655 
L 120.238352 293.863637 
L 123.056534 293.762664 
L 125.874716 293.872051 
L 128.692898 293.989853 
L 131.51108 293.872051 
L 134.329261 293.834187 
L 137.147443 293.981439 
L 139.965625 293.741628 
L 142.783807 293.930952 
L 145.601989 293.947781 
L 148.42017 294.073997 
L 151.238352 293.989853 
L 154.056534 293.821565 
L 156.874716 293.914123 
L 159.692898 293.897295 
L 162.51108 294.048754 
L 165.329261 293.834187 
L 168.147443 294.052961 
L 170.965625 294.010889 
L 173.783807 294.090826 
L 176.601989 294.061376 
L 179.42017 294.124484 
L 182.238352 294.116069 
L 185.056534 294.031925 
L 187.874716 293.96461 
L 190.692898 294.149727 
L 193.51108 294.187592 
L 196.329261 293.981439 
L 199.147443 294.212835 
L 201.965625 294.052961 
L 204.783807 294.271736 
L 207.601989 294.086619 
L 210.42017 294.187592 
L 213.238352 294.179178 
L 216.056534 293.998268 
L 218.874716 294.14552 
L 221.692898 294.259115 
L 224.51108 294.259115 
L 227.329261 294.267529 
L 230.147443 294.137106 
L 232.965625 294.351673 
L 235.783807 294.111862 
L 238.601989 294.191799 
L 241.42017 294.132898 
L 244.238352 294.318015 
L 247.056534 294.103448 
L 249.874716 294.263322 
L 252.692898 294.183385 
L 255.51108 294.414781 
L 258.329261 294.170763 
L 261.147443 294.309601 
L 263.965625 294.284358 
L 266.783807 294.330637 
L 269.601989 294.200214 
L 272.42017 294.313808 
L 275.238352 294.22125 
L 278.056534 294.322223 
L 280.874716 294.330637 
L 283.692898 294.313808 
L 286.51108 294.418988 
L 289.329261 294.351673 
L 292.147443 294.423196 
L 294.965625 294.242286 
L 297.783807 294.263322 
L 300.601989 294.288565 
L 303.42017 294.339052 
L 306.238352 294.347466 
L 309.056534 294.32643 
L 311.874716 294.187592 
L 314.692898 294.339052 
L 317.51108 294.389538 
L 320.329261 294.444232 
L 323.147443 294.557826 
L 325.965625 294.330637 
" clip-path="url(#p6e6af976f2)" style="fill: none; stroke: #e4ff13; stroke-width: 1.5; stroke-linecap: square"/>
   </g>
   <g id="line2d_53">
    <path d="M 46.965625 241.029515 
L 49.783807 244.710822 
L 52.601989 251.04267 
L 55.42017 256.419483 
L 58.238352 258.762898 
L 61.056534 262.473655 
L 63.874716 268.637216 
L 66.692898 271.300379 
L 69.51108 275.974587 
L 72.329261 277.291443 
L 75.147443 278.389525 
L 77.965625 279.10475 
L 80.783807 281.788949 
L 83.601989 283.522319 
L 86.42017 285.907806 
L 89.238352 286.946986 
L 92.056534 288.310122 
L 94.874716 288.028239 
L 97.692898 288.751879 
L 100.51108 289.660636 
L 103.329261 289.420825 
L 106.147443 290.157086 
L 108.965625 290.245438 
L 111.783807 290.691402 
L 114.601989 290.901762 
L 117.42017 290.868105 
L 120.238352 291.802105 
L 123.056534 291.898871 
L 125.874716 292.887565 
L 128.692898 293.375601 
L 131.51108 293.3167 
L 134.329261 293.396637 
L 137.147443 293.287249 
L 139.965625 293.611204 
L 142.783807 294.065583 
L 145.601989 293.96461 
L 148.42017 293.973024 
L 151.238352 294.002475 
L 154.056534 293.918331 
L 156.874716 294.132898 
L 159.692898 294.010889 
L 162.51108 294.132898 
L 165.329261 294.052961 
L 168.147443 294.183385 
L 170.965625 294.128691 
L 173.783807 294.095033 
L 176.601989 294.082412 
L 179.42017 294.166556 
L 182.238352 294.006682 
L 185.056534 294.111862 
L 187.874716 294.166556 
L 190.692898 294.057169 
L 193.51108 294.183385 
L 196.329261 294.149727 
L 199.147443 294.263322 
L 201.965625 294.183385 
L 204.783807 294.103448 
L 207.601989 294.196006 
L 210.42017 294.225457 
L 213.238352 294.170763 
L 216.056534 294.196006 
L 218.874716 294.196006 
L 221.692898 294.208628 
L 224.51108 294.086619 
L 227.329261 294.204421 
L 230.147443 294.301187 
L 232.965625 294.196006 
L 235.783807 294.318015 
L 238.601989 294.360088 
L 241.42017 294.32643 
L 244.238352 294.347466 
L 247.056534 294.35588 
L 249.874716 294.200214 
L 252.692898 294.309601 
L 255.51108 294.32643 
L 258.329261 294.360088 
L 261.147443 294.233871 
L 263.965625 294.301187 
L 266.783807 294.347466 
L 269.601989 294.32643 
L 272.42017 294.397952 
L 275.238352 294.393745 
L 278.056534 294.397952 
L 280.874716 294.271736 
L 283.692898 294.385331 
L 286.51108 294.35588 
L 289.329261 294.461061 
L 292.147443 294.32643 
L 294.965625 294.22125 
L 297.783807 294.410574 
L 300.601989 294.444232 
L 303.42017 294.486304 
L 306.238352 294.40216 
L 309.056534 294.43161 
L 311.874716 294.440025 
L 314.692898 294.347466 
L 317.51108 294.465268 
L 320.329261 294.372709 
L 323.147443 294.465268 
L 325.965625 294.360088 
" clip-path="url(#p6e6af976f2)" style="fill: none; stroke: #ff9400; stroke-width: 1.5; stroke-linecap: square"/>
   </g>
   <g id="line2d_54">
    <path d="M 46.965625 241.429199 
L 49.783807 244.6982 
L 52.601989 246.444192 
L 55.42017 250.887004 
L 58.238352 253.007437 
L 61.056534 258.136024 
L 63.874716 262.831268 
L 66.692898 267.518098 
L 69.51108 270.660883 
L 72.329261 275.288812 
L 75.147443 276.748713 
L 77.965625 279.319318 
L 80.783807 280.467886 
L 83.601989 281.725841 
L 86.42017 283.459211 
L 89.238352 283.677986 
L 92.056534 286.35377 
L 94.874716 288.625663 
L 97.692898 288.974861 
L 100.51108 290.914384 
L 103.329261 291.486564 
L 106.147443 291.246753 
L 108.965625 291.629609 
L 111.783807 291.663267 
L 114.601989 291.818934 
L 117.42017 291.772654 
L 120.238352 291.999844 
L 123.056534 292.319592 
L 125.874716 292.59306 
L 128.692898 292.807628 
L 131.51108 292.904393 
L 134.329261 293.017988 
L 137.147443 292.895979 
L 139.965625 293.320907 
L 142.783807 293.480781 
L 145.601989 293.484988 
L 148.42017 293.548096 
L 151.238352 293.463952 
L 154.056534 293.653277 
L 156.874716 293.463952 
L 159.692898 293.472367 
L 162.51108 293.518646 
L 165.329261 293.741628 
L 168.147443 293.829979 
L 170.965625 294.095033 
L 173.783807 294.099241 
L 176.601989 294.280151 
L 179.42017 294.254907 
L 182.238352 294.187592 
L 185.056534 294.263322 
L 187.874716 294.17497 
L 190.692898 294.217042 
L 193.51108 294.233871 
L 196.329261 294.170763 
L 199.147443 294.263322 
L 201.965625 294.322223 
L 204.783807 294.32643 
L 207.601989 294.301187 
L 210.42017 294.360088 
L 213.238352 294.347466 
L 216.056534 294.368502 
L 218.874716 294.292772 
L 221.692898 294.452646 
L 224.51108 294.368502 
L 227.329261 294.360088 
L 230.147443 294.477889 
L 232.965625 294.254907 
L 235.783807 294.322223 
L 238.601989 294.334844 
L 241.42017 294.360088 
L 244.238352 294.423196 
L 247.056534 294.444232 
L 249.874716 294.389538 
L 252.692898 294.418988 
L 255.51108 294.330637 
L 258.329261 294.393745 
L 261.147443 294.490511 
L 263.965625 294.482097 
L 266.783807 294.397952 
L 269.601989 294.339052 
L 272.42017 294.414781 
L 275.238352 294.318015 
L 278.056534 294.423196 
L 280.874716 294.570448 
L 283.692898 294.540998 
L 286.51108 294.570448 
L 289.329261 294.43161 
L 292.147443 294.553619 
L 294.965625 294.351673 
L 297.783807 294.515754 
L 300.601989 294.389538 
L 303.42017 294.427403 
L 306.238352 294.549412 
L 309.056534 294.477889 
L 311.874716 294.553619 
L 314.692898 294.456853 
L 317.51108 294.339052 
L 320.329261 294.448439 
L 323.147443 294.511547 
L 325.965625 294.700871 
" clip-path="url(#p6e6af976f2)" style="fill: none; stroke: #ff1e00; stroke-width: 1.5; stroke-linecap: square"/>
   </g>
   <g id="line2d_55">
    <path d="M 46.965625 240.655073 
L 49.783807 242.270641 
L 52.601989 241.361884 
L 55.42017 243.423416 
L 58.238352 248.497309 
L 61.056534 252.401599 
L 63.874716 254.370572 
L 66.692898 258.737654 
L 69.51108 260.189141 
L 72.329261 263.9588 
L 75.147443 266.903846 
L 77.965625 268.510999 
L 80.783807 271.859937 
L 83.601989 274.670352 
L 86.42017 275.747398 
L 89.238352 276.963281 
L 92.056534 279.050056 
L 94.874716 280.753976 
L 97.692898 281.040066 
L 100.51108 283.358238 
L 103.329261 284.107121 
L 106.147443 284.679301 
L 108.965625 286.479986 
L 111.783807 287.460266 
L 114.601989 287.304599 
L 117.42017 288.045068 
L 120.238352 289.324059 
L 123.056534 289.559663 
L 125.874716 290.83024 
L 128.692898 290.838654 
L 131.51108 291.293033 
L 134.329261 291.154195 
L 137.147443 291.457114 
L 139.965625 291.772654 
L 142.783807 292.218619 
L 145.601989 291.987222 
L 148.42017 291.73479 
L 151.238352 291.928321 
L 154.056534 291.873627 
L 156.874716 292.328006 
L 159.692898 292.77397 
L 162.51108 292.639339 
L 165.329261 292.550988 
L 168.147443 292.807628 
L 170.965625 292.736105 
L 173.783807 293.60279 
L 176.601989 293.632241 
L 179.42017 293.842601 
L 182.238352 293.758457 
L 185.056534 293.817358 
L 187.874716 293.981439 
L 190.692898 294.200214 
L 193.51108 294.423196 
L 196.329261 294.40216 
L 199.147443 294.50734 
L 201.965625 294.397952 
L 204.783807 294.477889 
L 207.601989 294.444232 
L 210.42017 294.532583 
L 213.238352 294.448439 
L 216.056534 294.482097 
L 218.874716 294.519961 
L 221.692898 294.511547 
L 224.51108 294.557826 
L 227.329261 294.456853 
L 230.147443 294.343259 
L 232.965625 294.498925 
L 235.783807 294.50734 
L 238.601989 294.578862 
L 241.42017 294.456853 
L 244.238352 294.461061 
L 247.056534 294.498925 
L 249.874716 294.540998 
L 252.692898 294.456853 
L 255.51108 294.50734 
L 258.329261 294.448439 
L 261.147443 294.452646 
L 263.965625 294.486304 
L 266.783807 294.549412 
L 269.601989 294.50734 
L 272.42017 294.376916 
L 275.238352 294.566241 
L 278.056534 294.566241 
L 280.874716 294.545205 
L 283.692898 294.532583 
L 286.51108 294.562034 
L 289.329261 294.557826 
L 292.147443 294.477889 
L 294.965625 294.53679 
L 297.783807 294.524169 
L 300.601989 294.486304 
L 303.42017 294.608313 
L 306.238352 294.557826 
L 309.056534 294.654592 
L 311.874716 294.641971 
L 314.692898 294.68825 
L 317.51108 294.768187 
L 320.329261 294.503133 
L 323.147443 294.578862 
L 325.965625 294.61252 
" clip-path="url(#p6e6af976f2)" style="fill: none; stroke: #800000; stroke-width: 1.5; stroke-linecap: square"/>
   </g>
   <g id="line2d_56">
    <path d="M 46.965625 295.731637 
L 325.965625 295.731637 
" clip-path="url(#p6e6af976f2)" style="fill: none; stroke-dasharray: 5.55,2.4; stroke-dashoffset: 0; stroke: #808080; stroke-width: 1.5"/>
   </g>
   <g id="patch_9">
    <path d="M 46.965625 299.518125 
L 46.965625 236.518125 
" style="fill: none; stroke: #000000; stroke-width: 0.8; stroke-linejoin: miter; stroke-linecap: square"/>
   </g>
   <g id="patch_10">
    <path d="M 46.965625 299.518125 
L 325.965625 299.518125 
" style="fill: none; stroke: #000000; stroke-width: 0.8; stroke-linejoin: miter; stroke-linecap: square"/>
   </g>
   <g id="text_31">
    <!-- Labyrinth -->
    <g transform="translate(157.994688 230.518125) scale(0.12 -0.12)">
     <defs>
      <path id="DejaVuSans-62" d="M 3116 1747 
Q 3116 2381 2855 2742 
Q 2594 3103 2138 3103 
Q 1681 3103 1420 2742 
Q 1159 2381 1159 1747 
Q 1159 1113 1420 752 
Q 1681 391 2138 391 
Q 2594 391 2855 752 
Q 3116 1113 3116 1747 
z
M 1159 2969 
Q 1341 3281 1617 3432 
Q 1894 3584 2278 3584 
Q 2916 3584 3314 3078 
Q 3713 2572 3713 1747 
Q 3713 922 3314 415 
Q 2916 -91 2278 -91 
Q 1894 -91 1617 61 
Q 1341 213 1159 525 
L 1159 0 
L 581 0 
L 581 4863 
L 1159 4863 
L 1159 2969 
z
" transform="scale(0.015625)"/>
      <path id="DejaVuSans-68" d="M 3513 2113 
L 3513 0 
L 2938 0 
L 2938 2094 
Q 2938 2591 2744 2837 
Q 2550 3084 2163 3084 
Q 1697 3084 1428 2787 
Q 1159 2491 1159 1978 
L 1159 0 
L 581 0 
L 581 4863 
L 1159 4863 
L 1159 2956 
Q 1366 3272 1645 3428 
Q 1925 3584 2291 3584 
Q 2894 3584 3203 3211 
Q 3513 2838 3513 2113 
z
" transform="scale(0.015625)"/>
     </defs>
     <use xlink:href="#DejaVuSans-4c"/>
     <use xlink:href="#DejaVuSans-61" x="55.712891"/>
     <use xlink:href="#DejaVuSans-62" x="116.992188"/>
     <use xlink:href="#DejaVuSans-79" x="180.46875"/>
     <use xlink:href="#DejaVuSans-72" x="239.648438"/>
     <use xlink:href="#DejaVuSans-69" x="280.761719"/>
     <use xlink:href="#DejaVuSans-6e" x="308.544922"/>
     <use xlink:href="#DejaVuSans-74" x="371.923828"/>
     <use xlink:href="#DejaVuSans-68" x="411.132812"/>
    </g>
   </g>
   <g id="legend_1">
    <g id="patch_11">
     <path d="M 34.707813 371.524375 
L 338.223438 371.524375 
Q 340.223438 371.524375 340.223438 369.524375 
L 340.223438 341.168125 
Q 340.223438 339.168125 338.223438 339.168125 
L 34.707813 339.168125 
Q 32.707813 339.168125 32.707813 341.168125 
L 32.707813 369.524375 
Q 32.707813 371.524375 34.707813 371.524375 
z
" style="fill: #ffffff; opacity: 0.8; stroke: #cccccc; stroke-linejoin: miter"/>
    </g>
    <g id="line2d_57">
     <path d="M 36.707813 347.266562 
L 46.707813 347.266562 
L 56.707813 347.266562 
" style="fill: none; stroke: #000080; stroke-width: 1.5; stroke-linecap: square"/>
    </g>
    <g id="text_32">
     <!-- 0.1 -->
     <g transform="translate(64.707813 350.766562) scale(0.1 -0.1)">
      <defs>
       <path id="DejaVuSans-2e" d="M 684 794 
L 1344 794 
L 1344 0 
L 684 0 
L 684 794 
z
" transform="scale(0.015625)"/>
      </defs>
      <use xlink:href="#DejaVuSans-30"/>
      <use xlink:href="#DejaVuSans-2e" x="63.623047"/>
      <use xlink:href="#DejaVuSans-31" x="95.410156"/>
     </g>
    </g>
    <g id="line2d_58">
     <path d="M 36.707813 361.944687 
L 46.707813 361.944687 
L 56.707813 361.944687 
" style="fill: none; stroke: #0000ff; stroke-width: 1.5; stroke-linecap: square"/>
    </g>
    <g id="text_33">
     <!-- 0.2 -->
     <g transform="translate(64.707813 365.444687) scale(0.1 -0.1)">
      <use xlink:href="#DejaVuSans-30"/>
      <use xlink:href="#DejaVuSans-2e" x="63.623047"/>
      <use xlink:href="#DejaVuSans-32" x="95.410156"/>
     </g>
    </g>
    <g id="line2d_59">
     <path d="M 100.610938 347.266562 
L 110.610938 347.266562 
L 120.610938 347.266562 
" style="fill: none; stroke: #0080ff; stroke-width: 1.5; stroke-linecap: square"/>
    </g>
    <g id="text_34">
     <!-- 0.3 -->
     <g transform="translate(128.610938 350.766562) scale(0.1 -0.1)">
      <defs>
       <path id="DejaVuSans-33" d="M 2597 2516 
Q 3050 2419 3304 2112 
Q 3559 1806 3559 1356 
Q 3559 666 3084 287 
Q 2609 -91 1734 -91 
Q 1441 -91 1130 -33 
Q 819 25 488 141 
L 488 750 
Q 750 597 1062 519 
Q 1375 441 1716 441 
Q 2309 441 2620 675 
Q 2931 909 2931 1356 
Q 2931 1769 2642 2001 
Q 2353 2234 1838 2234 
L 1294 2234 
L 1294 2753 
L 1863 2753 
Q 2328 2753 2575 2939 
Q 2822 3125 2822 3475 
Q 2822 3834 2567 4026 
Q 2313 4219 1838 4219 
Q 1578 4219 1281 4162 
Q 984 4106 628 3988 
L 628 4550 
Q 988 4650 1302 4700 
Q 1616 4750 1894 4750 
Q 2613 4750 3031 4423 
Q 3450 4097 3450 3541 
Q 3450 3153 3228 2886 
Q 3006 2619 2597 2516 
z
" transform="scale(0.015625)"/>
      </defs>
      <use xlink:href="#DejaVuSans-30"/>
      <use xlink:href="#DejaVuSans-2e" x="63.623047"/>
      <use xlink:href="#DejaVuSans-33" x="95.410156"/>
     </g>
    </g>
    <g id="line2d_60">
     <path d="M 100.610938 361.944687 
L 110.610938 361.944687 
L 120.610938 361.944687 
" style="fill: none; stroke: #16ffe1; stroke-width: 1.5; stroke-linecap: square"/>
    </g>
    <g id="text_35">
     <!-- 0.4 -->
     <g transform="translate(128.610938 365.444687) scale(0.1 -0.1)">
      <use xlink:href="#DejaVuSans-30"/>
      <use xlink:href="#DejaVuSans-2e" x="63.623047"/>
      <use xlink:href="#DejaVuSans-34" x="95.410156"/>
     </g>
    </g>
    <g id="line2d_61">
     <path d="M 164.514063 347.266562 
L 174.514063 347.266562 
L 184.514063 347.266562 
" style="fill: none; stroke: #7dff7a; stroke-width: 1.5; stroke-linecap: square"/>
    </g>
    <g id="text_36">
     <!-- 0.5 -->
     <g transform="translate(192.514063 350.766562) scale(0.1 -0.1)">
      <use xlink:href="#DejaVuSans-30"/>
      <use xlink:href="#DejaVuSans-2e" x="63.623047"/>
      <use xlink:href="#DejaVuSans-35" x="95.410156"/>
     </g>
    </g>
    <g id="line2d_62">
     <path d="M 164.514063 361.944687 
L 174.514063 361.944687 
L 184.514063 361.944687 
" style="fill: none; stroke: #e4ff13; stroke-width: 1.5; stroke-linecap: square"/>
    </g>
    <g id="text_37">
     <!-- 0.6 -->
     <g transform="translate(192.514063 365.444687) scale(0.1 -0.1)">
      <use xlink:href="#DejaVuSans-30"/>
      <use xlink:href="#DejaVuSans-2e" x="63.623047"/>
      <use xlink:href="#DejaVuSans-36" x="95.410156"/>
     </g>
    </g>
    <g id="line2d_63">
     <path d="M 228.417188 347.266562 
L 238.417188 347.266562 
L 248.417188 347.266562 
" style="fill: none; stroke: #ff9400; stroke-width: 1.5; stroke-linecap: square"/>
    </g>
    <g id="text_38">
     <!-- 0.7 -->
     <g transform="translate(256.417188 350.766562) scale(0.1 -0.1)">
      <defs>
       <path id="DejaVuSans-37" d="M 525 4666 
L 3525 4666 
L 3525 4397 
L 1831 0 
L 1172 0 
L 2766 4134 
L 525 4134 
L 525 4666 
z
" transform="scale(0.015625)"/>
      </defs>
      <use xlink:href="#DejaVuSans-30"/>
      <use xlink:href="#DejaVuSans-2e" x="63.623047"/>
      <use xlink:href="#DejaVuSans-37" x="95.410156"/>
     </g>
    </g>
    <g id="line2d_64">
     <path d="M 228.417188 361.944687 
L 238.417188 361.944687 
L 248.417188 361.944687 
" style="fill: none; stroke: #ff1e00; stroke-width: 1.5; stroke-linecap: square"/>
    </g>
    <g id="text_39">
     <!-- 0.8 -->
     <g transform="translate(256.417188 365.444687) scale(0.1 -0.1)">
      <use xlink:href="#DejaVuSans-30"/>
      <use xlink:href="#DejaVuSans-2e" x="63.623047"/>
      <use xlink:href="#DejaVuSans-38" x="95.410156"/>
     </g>
    </g>
    <g id="line2d_65">
     <path d="M 292.320312 347.266562 
L 302.320312 347.266562 
L 312.320312 347.266562 
" style="fill: none; stroke: #800000; stroke-width: 1.5; stroke-linecap: square"/>
    </g>
    <g id="text_40">
     <!-- 0.9 -->
     <g transform="translate(320.320312 350.766562) scale(0.1 -0.1)">
      <defs>
       <path id="DejaVuSans-39" d="M 703 97 
L 703 672 
Q 941 559 1184 500 
Q 1428 441 1663 441 
Q 2288 441 2617 861 
Q 2947 1281 2994 2138 
Q 2813 1869 2534 1725 
Q 2256 1581 1919 1581 
Q 1219 1581 811 2004 
Q 403 2428 403 3163 
Q 403 3881 828 4315 
Q 1253 4750 1959 4750 
Q 2769 4750 3195 4129 
Q 3622 3509 3622 2328 
Q 3622 1225 3098 567 
Q 2575 -91 1691 -91 
Q 1453 -91 1209 -44 
Q 966 3 703 97 
z
M 1959 2075 
Q 2384 2075 2632 2365 
Q 2881 2656 2881 3163 
Q 2881 3666 2632 3958 
Q 2384 4250 1959 4250 
Q 1534 4250 1286 3958 
Q 1038 3666 1038 3163 
Q 1038 2656 1286 2365 
Q 1534 2075 1959 2075 
z
" transform="scale(0.015625)"/>
      </defs>
      <use xlink:href="#DejaVuSans-30"/>
      <use xlink:href="#DejaVuSans-2e" x="63.623047"/>
      <use xlink:href="#DejaVuSans-39" x="95.410156"/>
     </g>
    </g>
   </g>
  </g>
 </g>
 <defs>
  <clipPath id="pe7d6030e49">
   <rect x="46.965625" y="22.318125" width="279" height="63"/>
  </clipPath>
  <clipPath id="p4ce20cd632">
   <rect x="46.965625" y="129.418125" width="279" height="63"/>
  </clipPath>
  <clipPath id="p6e6af976f2">
   <rect x="46.965625" y="236.518125" width="279" height="63"/>
  </clipPath>
 </defs>
</svg>
