<?xml version="1.0" encoding="utf-8" standalone="no"?>
<!DOCTYPE svg PUBLIC "-//W3C//DTD SVG 1.1//EN"
  "http://www.w3.org/Graphics/SVG/1.1/DTD/svg11.dtd">
<svg height="372.649375pt" version="1.1" viewBox="0 0 341.060937 372.649375" width="341.060937pt" xmlns="http://www.w3.org/2000/svg" xmlns:xlink="http://www.w3.org/1999/xlink">
 <metadata>
  <rdf:RDF xmlns:cc="http://creativecommons.org/ns#" xmlns:dc="http://purl.org/dc/elements/1.1/" xmlns:rdf="http://www.w3.org/1999/02/22-rdf-syntax-ns#">
   <cc:Work>
    <dc:type rdf:resource="http://purl.org/dc/dcmitype/StillImage"/>
    <dc:date>2022-06-19T01:43:07.487662</dc:date>
    <dc:format>image/svg+xml</dc:format>
    <dc:creator>
     <cc:Agent>
      <dc:title>Matplotlib v3.4.3, https://matplotlib.org/</dc:title>
     </cc:Agent>
    </dc:creator>
   </cc:Work>
  </rdf:RDF>
 </metadata>
 <defs>
  <style type="text/css">*{stroke-linecap:butt;stroke-linejoin:round;}</style>
 </defs>
 <g id="figure_1">
  <g id="patch_1">
   <path d="M 0 372.649375 
L 341.060937 372.649375 
L 341.060937 0 
L 0 0 
z
" style="fill:#ffffff;"/>
  </g>
  <g id="axes_1">
   <g id="patch_2">
    <path d="M 40.603125 84.090852 
L 319.603125 84.090852 
L 319.603125 22.318125 
L 40.603125 22.318125 
z
" style="fill:#ffffff;"/>
   </g>
   <g id="matplotlib.axis_1">
    <g id="xtick_1">
     <g id="line2d_1">
      <defs>
       <path d="M 0 0 
L 0 3.5 
" id="m93c087141e" style="stroke:#000000;stroke-width:0.8;"/>
      </defs>
      <g>
       <use style="stroke:#000000;stroke-width:0.8;" x="40.603125" xlink:href="#m93c087141e" y="84.090852"/>
      </g>
     </g>
     <g id="text_1">
      <!-- 1 -->
      <g transform="translate(37.421875 98.68929)scale(0.1 -0.1)">
       <defs>
        <path d="M 794 531 
L 1825 531 
L 1825 4091 
L 703 3866 
L 703 4441 
L 1819 4666 
L 2450 4666 
L 2450 531 
L 3481 531 
L 3481 0 
L 794 0 
L 794 531 
z
" id="DejaVuSans-31" transform="scale(0.015625)"/>
       </defs>
       <use xlink:href="#DejaVuSans-31"/>
      </g>
     </g>
    </g>
    <g id="xtick_2">
     <g id="line2d_2">
      <g>
       <use style="stroke:#000000;stroke-width:0.8;" x="99.339967" xlink:href="#m93c087141e" y="84.090852"/>
      </g>
     </g>
     <g id="text_2">
      <!-- 5 -->
      <g transform="translate(96.158717 98.68929)scale(0.1 -0.1)">
       <defs>
        <path d="M 691 4666 
L 3169 4666 
L 3169 4134 
L 1269 4134 
L 1269 2991 
Q 1406 3038 1543 3061 
Q 1681 3084 1819 3084 
Q 2600 3084 3056 2656 
Q 3513 2228 3513 1497 
Q 3513 744 3044 326 
Q 2575 -91 1722 -91 
Q 1428 -91 1123 -41 
Q 819 9 494 109 
L 494 744 
Q 775 591 1075 516 
Q 1375 441 1709 441 
Q 2250 441 2565 725 
Q 2881 1009 2881 1497 
Q 2881 1984 2565 2268 
Q 2250 2553 1709 2553 
Q 1456 2553 1204 2497 
Q 953 2441 691 2322 
L 691 4666 
z
" id="DejaVuSans-35" transform="scale(0.015625)"/>
       </defs>
       <use xlink:href="#DejaVuSans-35"/>
      </g>
     </g>
    </g>
    <g id="xtick_3">
     <g id="line2d_3">
      <g>
       <use style="stroke:#000000;stroke-width:0.8;" x="172.76102" xlink:href="#m93c087141e" y="84.090852"/>
      </g>
     </g>
     <g id="text_3">
      <!-- 10 -->
      <g transform="translate(166.39852 98.68929)scale(0.1 -0.1)">
       <defs>
        <path d="M 2034 4250 
Q 1547 4250 1301 3770 
Q 1056 3291 1056 2328 
Q 1056 1369 1301 889 
Q 1547 409 2034 409 
Q 2525 409 2770 889 
Q 3016 1369 3016 2328 
Q 3016 3291 2770 3770 
Q 2525 4250 2034 4250 
z
M 2034 4750 
Q 2819 4750 3233 4129 
Q 3647 3509 3647 2328 
Q 3647 1150 3233 529 
Q 2819 -91 2034 -91 
Q 1250 -91 836 529 
Q 422 1150 422 2328 
Q 422 3509 836 4129 
Q 1250 4750 2034 4750 
z
" id="DejaVuSans-30" transform="scale(0.015625)"/>
       </defs>
       <use xlink:href="#DejaVuSans-31"/>
       <use x="63.623047" xlink:href="#DejaVuSans-30"/>
      </g>
     </g>
    </g>
    <g id="xtick_4">
     <g id="line2d_4">
      <g>
       <use style="stroke:#000000;stroke-width:0.8;" x="246.182072" xlink:href="#m93c087141e" y="84.090852"/>
      </g>
     </g>
     <g id="text_4">
      <!-- 15 -->
      <g transform="translate(239.819572 98.68929)scale(0.1 -0.1)">
       <use xlink:href="#DejaVuSans-31"/>
       <use x="63.623047" xlink:href="#DejaVuSans-35"/>
      </g>
     </g>
    </g>
    <g id="xtick_5">
     <g id="line2d_5">
      <g>
       <use style="stroke:#000000;stroke-width:0.8;" x="319.603125" xlink:href="#m93c087141e" y="84.090852"/>
      </g>
     </g>
     <g id="text_5">
      <!-- 20 -->
      <g transform="translate(313.240625 98.68929)scale(0.1 -0.1)">
       <defs>
        <path d="M 1228 531 
L 3431 531 
L 3431 0 
L 469 0 
L 469 531 
Q 828 903 1448 1529 
Q 2069 2156 2228 2338 
Q 2531 2678 2651 2914 
Q 2772 3150 2772 3378 
Q 2772 3750 2511 3984 
Q 2250 4219 1831 4219 
Q 1534 4219 1204 4116 
Q 875 4013 500 3803 
L 500 4441 
Q 881 4594 1212 4672 
Q 1544 4750 1819 4750 
Q 2544 4750 2975 4387 
Q 3406 4025 3406 3419 
Q 3406 3131 3298 2873 
Q 3191 2616 2906 2266 
Q 2828 2175 2409 1742 
Q 1991 1309 1228 531 
z
" id="DejaVuSans-32" transform="scale(0.015625)"/>
       </defs>
       <use xlink:href="#DejaVuSans-32"/>
       <use x="63.623047" xlink:href="#DejaVuSans-30"/>
      </g>
     </g>
    </g>
   </g>
   <g id="matplotlib.axis_2">
    <g id="ytick_1">
     <g id="line2d_6">
      <defs>
       <path d="M 0 0 
L -3.5 0 
" id="mae75a5f37e" style="stroke:#000000;stroke-width:0.8;"/>
      </defs>
      <g>
       <use style="stroke:#000000;stroke-width:0.8;" x="40.603125" xlink:href="#mae75a5f37e" y="84.090852"/>
      </g>
     </g>
     <g id="text_6">
      <!-- 0 -->
      <g transform="translate(27.240625 87.890071)scale(0.1 -0.1)">
       <use xlink:href="#DejaVuSans-30"/>
      </g>
     </g>
    </g>
    <g id="ytick_2">
     <g id="line2d_7">
      <g>
       <use style="stroke:#000000;stroke-width:0.8;" x="40.603125" xlink:href="#mae75a5f37e" y="62.034363"/>
      </g>
     </g>
     <g id="text_7">
      <!-- 25 -->
      <g transform="translate(20.878125 65.833582)scale(0.1 -0.1)">
       <use xlink:href="#DejaVuSans-32"/>
       <use x="63.623047" xlink:href="#DejaVuSans-35"/>
      </g>
     </g>
    </g>
    <g id="ytick_3">
     <g id="line2d_8">
      <g>
       <use style="stroke:#000000;stroke-width:0.8;" x="40.603125" xlink:href="#mae75a5f37e" y="39.977874"/>
      </g>
     </g>
     <g id="text_8">
      <!-- 50 -->
      <g transform="translate(20.878125 43.777092)scale(0.1 -0.1)">
       <use xlink:href="#DejaVuSans-35"/>
       <use x="63.623047" xlink:href="#DejaVuSans-30"/>
      </g>
     </g>
    </g>
   </g>
   <g id="line2d_9">
    <path clip-path="url(#p0e52acfddd)" d="M 40.603125 31.428778 
L 55.287336 65.095804 
L 69.971546 73.486092 
L 84.655757 75.62116 
L 99.339967 76.150516 
L 114.024178 76.326968 
L 128.708388 76.344613 
L 143.392599 76.274032 
L 158.076809 76.150516 
L 172.76102 76.379904 
L 187.44523 76.291678 
L 202.129441 76.168161 
L 216.813651 76.274032 
L 231.497862 76.344613 
L 246.182072 76.344613 
L 260.866283 76.291678 
L 275.550493 76.274032 
L 290.234704 76.256387 
L 304.918914 76.362258 
L 319.603125 76.415194 
" style="fill:none;stroke:#1f77b4;stroke-linecap:square;stroke-width:1.5;"/>
   </g>
   <g id="line2d_10">
    <path clip-path="url(#p0e52acfddd)" d="M 40.603125 28.782 
L 55.287336 62.519606 
L 69.971546 71.836267 
L 84.655757 74.553626 
L 99.339967 76.150516 
L 114.024178 76.256387 
L 128.708388 76.379904 
L 143.392599 76.450484 
L 158.076809 75.991709 
L 172.76102 76.274032 
L 187.44523 76.485775 
L 202.129441 76.256387 
L 216.813651 76.344613 
L 231.497862 76.309323 
L 246.182072 76.450484 
L 260.866283 76.150516 
L 275.550493 76.50342 
L 290.234704 76.06229 
L 304.918914 76.203452 
L 319.603125 76.521065 
" style="fill:none;stroke:#ff7f0e;stroke-linecap:square;stroke-width:1.5;"/>
   </g>
   <g id="line2d_11">
    <path clip-path="url(#p0e52acfddd)" d="M 40.603125 30.802374 
L 55.287336 65.307546 
L 69.971546 74.518336 
L 84.655757 76.203452 
L 99.339967 76.291678 
L 114.024178 76.344613 
L 128.708388 76.450484 
L 143.392599 76.274032 
L 158.076809 76.309323 
L 172.76102 76.521065 
L 187.44523 76.53871 
L 202.129441 76.50342 
L 216.813651 76.256387 
L 231.497862 76.379904 
L 246.182072 76.309323 
L 260.866283 76.309323 
L 275.550493 76.203452 
L 290.234704 76.485775 
L 304.918914 76.132871 
L 319.603125 76.274032 
" style="fill:none;stroke:#2ca02c;stroke-linecap:square;stroke-width:1.5;"/>
   </g>
   <g id="line2d_12">
    <path clip-path="url(#p0e52acfddd)" d="M 40.603125 31.60523 
L 55.287336 63.675366 
L 69.971546 71.465718 
L 84.655757 74.87124 
L 99.339967 75.956419 
L 114.024178 76.150516 
L 128.708388 76.485775 
L 143.392599 76.256387 
L 158.076809 76.256387 
L 172.76102 76.150516 
L 187.44523 76.079935 
L 202.129441 76.203452 
L 216.813651 76.326968 
L 231.497862 76.203452 
L 246.182072 76.221097 
L 260.866283 76.256387 
L 275.550493 76.203452 
L 290.234704 76.432839 
L 304.918914 76.203452 
L 319.603125 76.397549 
" style="fill:none;stroke:#d62728;stroke-linecap:square;stroke-width:1.5;"/>
   </g>
   <g id="line2d_13">
    <path clip-path="url(#p0e52acfddd)" d="M 40.603125 30.114212 
L 55.287336 59.069971 
L 69.971546 70.239377 
L 84.655757 73.150834 
L 99.339967 75.365305 
L 114.024178 75.956419 
L 128.708388 76.415194 
L 143.392599 76.079935 
L 158.076809 76.362258 
L 172.76102 76.291678 
L 187.44523 75.991709 
L 202.129441 76.079935 
L 216.813651 76.291678 
L 231.497862 76.238742 
L 246.182072 76.326968 
L 260.866283 76.274032 
L 275.550493 76.326968 
L 290.234704 76.309323 
L 304.918914 76.115226 
L 319.603125 76.203452 
" style="fill:none;stroke:#9467bd;stroke-linecap:square;stroke-width:1.5;"/>
   </g>
   <g id="line2d_14">
    <path clip-path="url(#p0e52acfddd)" d="M 40.603125 24.900058 
L 55.287336 60.552167 
L 69.971546 73.230237 
L 84.655757 75.938774 
L 99.339967 76.344613 
L 114.024178 76.309323 
L 128.708388 76.291678 
L 143.392599 76.115226 
L 158.076809 76.50342 
L 172.76102 76.115226 
L 187.44523 76.238742 
L 202.129441 76.379904 
L 216.813651 76.115226 
L 231.497862 76.415194 
L 246.182072 76.50342 
L 260.866283 76.221097 
L 275.550493 76.415194 
L 290.234704 76.238742 
L 304.918914 76.415194 
L 319.603125 76.238742 
" style="fill:none;stroke:#8c564b;stroke-linecap:square;stroke-width:1.5;"/>
   </g>
   <g id="line2d_15">
    <path clip-path="url(#p0e52acfddd)" d="M 40.603125 33.060959 
L 55.287336 60.860958 
L 69.971546 70.945185 
L 84.655757 75.409418 
L 99.339967 76.450484 
L 114.024178 76.238742 
L 128.708388 76.168161 
L 143.392599 76.150516 
L 158.076809 76.079935 
L 172.76102 76.50342 
L 187.44523 76.238742 
L 202.129441 76.432839 
L 216.813651 76.309323 
L 231.497862 76.150516 
L 246.182072 76.150516 
L 260.866283 76.238742 
L 275.550493 76.238742 
L 290.234704 76.06229 
L 304.918914 76.238742 
L 319.603125 76.432839 
" style="fill:none;stroke:#e377c2;stroke-linecap:square;stroke-width:1.5;"/>
   </g>
   <g id="line2d_16">
    <path clip-path="url(#p0e52acfddd)" d="M 40.603125 26.98219 
L 55.287336 54.835125 
L 69.971546 68.086664 
L 84.655757 74.950643 
L 99.339967 75.374128 
L 114.024178 75.497644 
L 128.708388 76.256387 
L 143.392599 76.06229 
L 158.076809 76.150516 
L 172.76102 76.132871 
L 187.44523 76.291678 
L 202.129441 76.132871 
L 216.813651 76.397549 
L 231.497862 76.379904 
L 246.182072 76.221097 
L 260.866283 76.238742 
L 275.550493 76.238742 
L 290.234704 76.168161 
L 304.918914 76.132871 
L 319.603125 76.326968 
" style="fill:none;stroke:#7f7f7f;stroke-linecap:square;stroke-width:1.5;"/>
   </g>
   <g id="line2d_17">
    <path clip-path="url(#p0e52acfddd)" d="M 40.603125 35.487172 
L 55.287336 57.623065 
L 69.971546 70.751088 
L 84.655757 73.944867 
L 99.339967 75.797612 
L 114.024178 76.009355 
L 128.708388 76.379904 
L 143.392599 76.309323 
L 158.076809 76.291678 
L 172.76102 76.326968 
L 187.44523 76.168161 
L 202.129441 76.274032 
L 216.813651 76.309323 
L 231.497862 76.203452 
L 246.182072 76.203452 
L 260.866283 76.344613 
L 275.550493 76.326968 
L 290.234704 76.362258 
L 304.918914 76.168161 
L 319.603125 76.362258 
" style="fill:none;stroke:#bcbd22;stroke-linecap:square;stroke-width:1.5;"/>
   </g>
   <g id="line2d_18">
    <path clip-path="url(#p0e52acfddd)" d="M 40.603125 76.150516 
L 319.603125 76.150516 
" style="fill:none;stroke:#808080;stroke-dasharray:5.55,2.4;stroke-dashoffset:0;stroke-width:1.5;"/>
   </g>
   <g id="patch_3">
    <path d="M 40.603125 84.090852 
L 40.603125 22.318125 
" style="fill:none;stroke:#000000;stroke-linecap:square;stroke-linejoin:miter;stroke-width:0.8;"/>
   </g>
   <g id="patch_4">
    <path d="M 40.603125 84.090852 
L 319.603125 84.090852 
" style="fill:none;stroke:#000000;stroke-linecap:square;stroke-linejoin:miter;stroke-width:0.8;"/>
   </g>
   <g id="text_9">
    <!-- Linear Track -->
    <g transform="translate(143.851875 16.318125)scale(0.12 -0.12)">
     <defs>
      <path d="M 628 4666 
L 1259 4666 
L 1259 531 
L 3531 531 
L 3531 0 
L 628 0 
L 628 4666 
z
" id="DejaVuSans-4c" transform="scale(0.015625)"/>
      <path d="M 603 3500 
L 1178 3500 
L 1178 0 
L 603 0 
L 603 3500 
z
M 603 4863 
L 1178 4863 
L 1178 4134 
L 603 4134 
L 603 4863 
z
" id="DejaVuSans-69" transform="scale(0.015625)"/>
      <path d="M 3513 2113 
L 3513 0 
L 2938 0 
L 2938 2094 
Q 2938 2591 2744 2837 
Q 2550 3084 2163 3084 
Q 1697 3084 1428 2787 
Q 1159 2491 1159 1978 
L 1159 0 
L 581 0 
L 581 3500 
L 1159 3500 
L 1159 2956 
Q 1366 3272 1645 3428 
Q 1925 3584 2291 3584 
Q 2894 3584 3203 3211 
Q 3513 2838 3513 2113 
z
" id="DejaVuSans-6e" transform="scale(0.015625)"/>
      <path d="M 3597 1894 
L 3597 1613 
L 953 1613 
Q 991 1019 1311 708 
Q 1631 397 2203 397 
Q 2534 397 2845 478 
Q 3156 559 3463 722 
L 3463 178 
Q 3153 47 2828 -22 
Q 2503 -91 2169 -91 
Q 1331 -91 842 396 
Q 353 884 353 1716 
Q 353 2575 817 3079 
Q 1281 3584 2069 3584 
Q 2775 3584 3186 3129 
Q 3597 2675 3597 1894 
z
M 3022 2063 
Q 3016 2534 2758 2815 
Q 2500 3097 2075 3097 
Q 1594 3097 1305 2825 
Q 1016 2553 972 2059 
L 3022 2063 
z
" id="DejaVuSans-65" transform="scale(0.015625)"/>
      <path d="M 2194 1759 
Q 1497 1759 1228 1600 
Q 959 1441 959 1056 
Q 959 750 1161 570 
Q 1363 391 1709 391 
Q 2188 391 2477 730 
Q 2766 1069 2766 1631 
L 2766 1759 
L 2194 1759 
z
M 3341 1997 
L 3341 0 
L 2766 0 
L 2766 531 
Q 2569 213 2275 61 
Q 1981 -91 1556 -91 
Q 1019 -91 701 211 
Q 384 513 384 1019 
Q 384 1609 779 1909 
Q 1175 2209 1959 2209 
L 2766 2209 
L 2766 2266 
Q 2766 2663 2505 2880 
Q 2244 3097 1772 3097 
Q 1472 3097 1187 3025 
Q 903 2953 641 2809 
L 641 3341 
Q 956 3463 1253 3523 
Q 1550 3584 1831 3584 
Q 2591 3584 2966 3190 
Q 3341 2797 3341 1997 
z
" id="DejaVuSans-61" transform="scale(0.015625)"/>
      <path d="M 2631 2963 
Q 2534 3019 2420 3045 
Q 2306 3072 2169 3072 
Q 1681 3072 1420 2755 
Q 1159 2438 1159 1844 
L 1159 0 
L 581 0 
L 581 3500 
L 1159 3500 
L 1159 2956 
Q 1341 3275 1631 3429 
Q 1922 3584 2338 3584 
Q 2397 3584 2469 3576 
Q 2541 3569 2628 3553 
L 2631 2963 
z
" id="DejaVuSans-72" transform="scale(0.015625)"/>
      <path id="DejaVuSans-20" transform="scale(0.015625)"/>
      <path d="M -19 4666 
L 3928 4666 
L 3928 4134 
L 2272 4134 
L 2272 0 
L 1638 0 
L 1638 4134 
L -19 4134 
L -19 4666 
z
" id="DejaVuSans-54" transform="scale(0.015625)"/>
      <path d="M 3122 3366 
L 3122 2828 
Q 2878 2963 2633 3030 
Q 2388 3097 2138 3097 
Q 1578 3097 1268 2742 
Q 959 2388 959 1747 
Q 959 1106 1268 751 
Q 1578 397 2138 397 
Q 2388 397 2633 464 
Q 2878 531 3122 666 
L 3122 134 
Q 2881 22 2623 -34 
Q 2366 -91 2075 -91 
Q 1284 -91 818 406 
Q 353 903 353 1747 
Q 353 2603 823 3093 
Q 1294 3584 2113 3584 
Q 2378 3584 2631 3529 
Q 2884 3475 3122 3366 
z
" id="DejaVuSans-63" transform="scale(0.015625)"/>
      <path d="M 581 4863 
L 1159 4863 
L 1159 1991 
L 2875 3500 
L 3609 3500 
L 1753 1863 
L 3688 0 
L 2938 0 
L 1159 1709 
L 1159 0 
L 581 0 
L 581 4863 
z
" id="DejaVuSans-6b" transform="scale(0.015625)"/>
     </defs>
     <use xlink:href="#DejaVuSans-4c"/>
     <use x="55.712891" xlink:href="#DejaVuSans-69"/>
     <use x="83.496094" xlink:href="#DejaVuSans-6e"/>
     <use x="146.875" xlink:href="#DejaVuSans-65"/>
     <use x="208.398438" xlink:href="#DejaVuSans-61"/>
     <use x="269.677734" xlink:href="#DejaVuSans-72"/>
     <use x="310.791016" xlink:href="#DejaVuSans-20"/>
     <use x="342.578125" xlink:href="#DejaVuSans-54"/>
     <use x="388.912109" xlink:href="#DejaVuSans-72"/>
     <use x="430.025391" xlink:href="#DejaVuSans-61"/>
     <use x="491.304688" xlink:href="#DejaVuSans-63"/>
     <use x="546.285156" xlink:href="#DejaVuSans-6b"/>
    </g>
   </g>
  </g>
  <g id="axes_2">
   <g id="patch_5">
    <path d="M 40.603125 189.104489 
L 319.603125 189.104489 
L 319.603125 127.331761 
L 40.603125 127.331761 
z
" style="fill:#ffffff;"/>
   </g>
   <g id="matplotlib.axis_3">
    <g id="xtick_6">
     <g id="line2d_19">
      <g>
       <use style="stroke:#000000;stroke-width:0.8;" x="40.603125" xlink:href="#m93c087141e" y="189.104489"/>
      </g>
     </g>
     <g id="text_10">
      <!-- 1 -->
      <g transform="translate(37.421875 203.702926)scale(0.1 -0.1)">
       <use xlink:href="#DejaVuSans-31"/>
      </g>
     </g>
    </g>
    <g id="xtick_7">
     <g id="line2d_20">
      <g>
       <use style="stroke:#000000;stroke-width:0.8;" x="94.14858" xlink:href="#m93c087141e" y="189.104489"/>
      </g>
     </g>
     <g id="text_11">
      <!-- 20 -->
      <g transform="translate(87.78608 203.702926)scale(0.1 -0.1)">
       <use xlink:href="#DejaVuSans-32"/>
       <use x="63.623047" xlink:href="#DejaVuSans-30"/>
      </g>
     </g>
    </g>
    <g id="xtick_8">
     <g id="line2d_21">
      <g>
       <use style="stroke:#000000;stroke-width:0.8;" x="150.512216" xlink:href="#m93c087141e" y="189.104489"/>
      </g>
     </g>
     <g id="text_12">
      <!-- 40 -->
      <g transform="translate(144.149716 203.702926)scale(0.1 -0.1)">
       <defs>
        <path d="M 2419 4116 
L 825 1625 
L 2419 1625 
L 2419 4116 
z
M 2253 4666 
L 3047 4666 
L 3047 1625 
L 3713 1625 
L 3713 1100 
L 3047 1100 
L 3047 0 
L 2419 0 
L 2419 1100 
L 313 1100 
L 313 1709 
L 2253 4666 
z
" id="DejaVuSans-34" transform="scale(0.015625)"/>
       </defs>
       <use xlink:href="#DejaVuSans-34"/>
       <use x="63.623047" xlink:href="#DejaVuSans-30"/>
      </g>
     </g>
    </g>
    <g id="xtick_9">
     <g id="line2d_22">
      <g>
       <use style="stroke:#000000;stroke-width:0.8;" x="206.875852" xlink:href="#m93c087141e" y="189.104489"/>
      </g>
     </g>
     <g id="text_13">
      <!-- 60 -->
      <g transform="translate(200.513352 203.702926)scale(0.1 -0.1)">
       <defs>
        <path d="M 2113 2584 
Q 1688 2584 1439 2293 
Q 1191 2003 1191 1497 
Q 1191 994 1439 701 
Q 1688 409 2113 409 
Q 2538 409 2786 701 
Q 3034 994 3034 1497 
Q 3034 2003 2786 2293 
Q 2538 2584 2113 2584 
z
M 3366 4563 
L 3366 3988 
Q 3128 4100 2886 4159 
Q 2644 4219 2406 4219 
Q 1781 4219 1451 3797 
Q 1122 3375 1075 2522 
Q 1259 2794 1537 2939 
Q 1816 3084 2150 3084 
Q 2853 3084 3261 2657 
Q 3669 2231 3669 1497 
Q 3669 778 3244 343 
Q 2819 -91 2113 -91 
Q 1303 -91 875 529 
Q 447 1150 447 2328 
Q 447 3434 972 4092 
Q 1497 4750 2381 4750 
Q 2619 4750 2861 4703 
Q 3103 4656 3366 4563 
z
" id="DejaVuSans-36" transform="scale(0.015625)"/>
       </defs>
       <use xlink:href="#DejaVuSans-36"/>
       <use x="63.623047" xlink:href="#DejaVuSans-30"/>
      </g>
     </g>
    </g>
    <g id="xtick_10">
     <g id="line2d_23">
      <g>
       <use style="stroke:#000000;stroke-width:0.8;" x="263.239489" xlink:href="#m93c087141e" y="189.104489"/>
      </g>
     </g>
     <g id="text_14">
      <!-- 80 -->
      <g transform="translate(256.876989 203.702926)scale(0.1 -0.1)">
       <defs>
        <path d="M 2034 2216 
Q 1584 2216 1326 1975 
Q 1069 1734 1069 1313 
Q 1069 891 1326 650 
Q 1584 409 2034 409 
Q 2484 409 2743 651 
Q 3003 894 3003 1313 
Q 3003 1734 2745 1975 
Q 2488 2216 2034 2216 
z
M 1403 2484 
Q 997 2584 770 2862 
Q 544 3141 544 3541 
Q 544 4100 942 4425 
Q 1341 4750 2034 4750 
Q 2731 4750 3128 4425 
Q 3525 4100 3525 3541 
Q 3525 3141 3298 2862 
Q 3072 2584 2669 2484 
Q 3125 2378 3379 2068 
Q 3634 1759 3634 1313 
Q 3634 634 3220 271 
Q 2806 -91 2034 -91 
Q 1263 -91 848 271 
Q 434 634 434 1313 
Q 434 1759 690 2068 
Q 947 2378 1403 2484 
z
M 1172 3481 
Q 1172 3119 1398 2916 
Q 1625 2713 2034 2713 
Q 2441 2713 2670 2916 
Q 2900 3119 2900 3481 
Q 2900 3844 2670 4047 
Q 2441 4250 2034 4250 
Q 1625 4250 1398 4047 
Q 1172 3844 1172 3481 
z
" id="DejaVuSans-38" transform="scale(0.015625)"/>
       </defs>
       <use xlink:href="#DejaVuSans-38"/>
       <use x="63.623047" xlink:href="#DejaVuSans-30"/>
      </g>
     </g>
    </g>
    <g id="xtick_11">
     <g id="line2d_24">
      <g>
       <use style="stroke:#000000;stroke-width:0.8;" x="319.603125" xlink:href="#m93c087141e" y="189.104489"/>
      </g>
     </g>
     <g id="text_15">
      <!-- 100 -->
      <g transform="translate(310.059375 203.702926)scale(0.1 -0.1)">
       <use xlink:href="#DejaVuSans-31"/>
       <use x="63.623047" xlink:href="#DejaVuSans-30"/>
       <use x="127.246094" xlink:href="#DejaVuSans-30"/>
      </g>
     </g>
    </g>
   </g>
   <g id="matplotlib.axis_4">
    <g id="ytick_4">
     <g id="line2d_25">
      <g>
       <use style="stroke:#000000;stroke-width:0.8;" x="40.603125" xlink:href="#mae75a5f37e" y="189.104489"/>
      </g>
     </g>
     <g id="text_16">
      <!-- 0 -->
      <g transform="translate(27.240625 192.903707)scale(0.1 -0.1)">
       <use xlink:href="#DejaVuSans-30"/>
      </g>
     </g>
    </g>
    <g id="ytick_5">
     <g id="line2d_26">
      <g>
       <use style="stroke:#000000;stroke-width:0.8;" x="40.603125" xlink:href="#mae75a5f37e" y="158.177301"/>
      </g>
     </g>
     <g id="text_17">
      <!-- 50 -->
      <g transform="translate(20.878125 161.97652)scale(0.1 -0.1)">
       <use xlink:href="#DejaVuSans-35"/>
       <use x="63.623047" xlink:href="#DejaVuSans-30"/>
      </g>
     </g>
    </g>
    <g id="text_18">
     <!-- Escape Latency [#steps] -->
     <g transform="translate(14.798438 220.500156)rotate(-90)scale(0.1 -0.1)">
      <defs>
       <path d="M 628 4666 
L 3578 4666 
L 3578 4134 
L 1259 4134 
L 1259 2753 
L 3481 2753 
L 3481 2222 
L 1259 2222 
L 1259 531 
L 3634 531 
L 3634 0 
L 628 0 
L 628 4666 
z
" id="DejaVuSans-45" transform="scale(0.015625)"/>
       <path d="M 2834 3397 
L 2834 2853 
Q 2591 2978 2328 3040 
Q 2066 3103 1784 3103 
Q 1356 3103 1142 2972 
Q 928 2841 928 2578 
Q 928 2378 1081 2264 
Q 1234 2150 1697 2047 
L 1894 2003 
Q 2506 1872 2764 1633 
Q 3022 1394 3022 966 
Q 3022 478 2636 193 
Q 2250 -91 1575 -91 
Q 1294 -91 989 -36 
Q 684 19 347 128 
L 347 722 
Q 666 556 975 473 
Q 1284 391 1588 391 
Q 1994 391 2212 530 
Q 2431 669 2431 922 
Q 2431 1156 2273 1281 
Q 2116 1406 1581 1522 
L 1381 1569 
Q 847 1681 609 1914 
Q 372 2147 372 2553 
Q 372 3047 722 3315 
Q 1072 3584 1716 3584 
Q 2034 3584 2315 3537 
Q 2597 3491 2834 3397 
z
" id="DejaVuSans-73" transform="scale(0.015625)"/>
       <path d="M 1159 525 
L 1159 -1331 
L 581 -1331 
L 581 3500 
L 1159 3500 
L 1159 2969 
Q 1341 3281 1617 3432 
Q 1894 3584 2278 3584 
Q 2916 3584 3314 3078 
Q 3713 2572 3713 1747 
Q 3713 922 3314 415 
Q 2916 -91 2278 -91 
Q 1894 -91 1617 61 
Q 1341 213 1159 525 
z
M 3116 1747 
Q 3116 2381 2855 2742 
Q 2594 3103 2138 3103 
Q 1681 3103 1420 2742 
Q 1159 2381 1159 1747 
Q 1159 1113 1420 752 
Q 1681 391 2138 391 
Q 2594 391 2855 752 
Q 3116 1113 3116 1747 
z
" id="DejaVuSans-70" transform="scale(0.015625)"/>
       <path d="M 1172 4494 
L 1172 3500 
L 2356 3500 
L 2356 3053 
L 1172 3053 
L 1172 1153 
Q 1172 725 1289 603 
Q 1406 481 1766 481 
L 2356 481 
L 2356 0 
L 1766 0 
Q 1100 0 847 248 
Q 594 497 594 1153 
L 594 3053 
L 172 3053 
L 172 3500 
L 594 3500 
L 594 4494 
L 1172 4494 
z
" id="DejaVuSans-74" transform="scale(0.015625)"/>
       <path d="M 2059 -325 
Q 1816 -950 1584 -1140 
Q 1353 -1331 966 -1331 
L 506 -1331 
L 506 -850 
L 844 -850 
Q 1081 -850 1212 -737 
Q 1344 -625 1503 -206 
L 1606 56 
L 191 3500 
L 800 3500 
L 1894 763 
L 2988 3500 
L 3597 3500 
L 2059 -325 
z
" id="DejaVuSans-79" transform="scale(0.015625)"/>
       <path d="M 550 4863 
L 1875 4863 
L 1875 4416 
L 1125 4416 
L 1125 -397 
L 1875 -397 
L 1875 -844 
L 550 -844 
L 550 4863 
z
" id="DejaVuSans-5b" transform="scale(0.015625)"/>
       <path d="M 3272 2816 
L 2363 2816 
L 2100 1772 
L 3016 1772 
L 3272 2816 
z
M 2803 4594 
L 2478 3297 
L 3391 3297 
L 3719 4594 
L 4219 4594 
L 3897 3297 
L 4872 3297 
L 4872 2816 
L 3775 2816 
L 3519 1772 
L 4513 1772 
L 4513 1294 
L 3397 1294 
L 3072 0 
L 2572 0 
L 2894 1294 
L 1978 1294 
L 1656 0 
L 1153 0 
L 1478 1294 
L 494 1294 
L 494 1772 
L 1594 1772 
L 1856 2816 
L 850 2816 
L 850 3297 
L 1978 3297 
L 2297 4594 
L 2803 4594 
z
" id="DejaVuSans-23" transform="scale(0.015625)"/>
       <path d="M 1947 4863 
L 1947 -844 
L 622 -844 
L 622 -397 
L 1369 -397 
L 1369 4416 
L 622 4416 
L 622 4863 
L 1947 4863 
z
" id="DejaVuSans-5d" transform="scale(0.015625)"/>
      </defs>
      <use xlink:href="#DejaVuSans-45"/>
      <use x="63.183594" xlink:href="#DejaVuSans-73"/>
      <use x="115.283203" xlink:href="#DejaVuSans-63"/>
      <use x="170.263672" xlink:href="#DejaVuSans-61"/>
      <use x="231.542969" xlink:href="#DejaVuSans-70"/>
      <use x="295.019531" xlink:href="#DejaVuSans-65"/>
      <use x="356.542969" xlink:href="#DejaVuSans-20"/>
      <use x="388.330078" xlink:href="#DejaVuSans-4c"/>
      <use x="444.042969" xlink:href="#DejaVuSans-61"/>
      <use x="505.322266" xlink:href="#DejaVuSans-74"/>
      <use x="544.53125" xlink:href="#DejaVuSans-65"/>
      <use x="606.054688" xlink:href="#DejaVuSans-6e"/>
      <use x="669.433594" xlink:href="#DejaVuSans-63"/>
      <use x="724.414062" xlink:href="#DejaVuSans-79"/>
      <use x="783.59375" xlink:href="#DejaVuSans-20"/>
      <use x="815.380859" xlink:href="#DejaVuSans-5b"/>
      <use x="854.394531" xlink:href="#DejaVuSans-23"/>
      <use x="938.183594" xlink:href="#DejaVuSans-73"/>
      <use x="990.283203" xlink:href="#DejaVuSans-74"/>
      <use x="1029.492188" xlink:href="#DejaVuSans-65"/>
      <use x="1091.015625" xlink:href="#DejaVuSans-70"/>
      <use x="1154.492188" xlink:href="#DejaVuSans-73"/>
      <use x="1206.591797" xlink:href="#DejaVuSans-5d"/>
     </g>
    </g>
   </g>
   <g id="line2d_27">
    <path clip-path="url(#p178233e51c)" d="M 40.603125 130.59025 
L 43.421307 133.819048 
L 46.239489 140.6354 
L 49.05767 146.635275 
L 51.875852 148.528019 
L 54.694034 152.041347 
L 57.512216 157.385565 
L 60.330398 159.983449 
L 63.14858 163.583373 
L 65.966761 167.195669 
L 68.784943 168.222452 
L 71.603125 170.164679 
L 74.421307 171.364654 
L 77.239489 172.30484 
L 80.05767 174.915095 
L 82.875852 175.459414 
L 85.694034 175.224367 
L 88.512216 175.298592 
L 91.330398 175.83054 
L 94.14858 176.783097 
L 96.966761 177.018144 
L 99.784943 177.042886 
L 102.603125 177.067627 
L 105.421307 177.228449 
L 108.239489 177.203707 
L 111.05767 178.304715 
L 113.875852 178.66347 
L 116.694034 178.181006 
L 119.512216 178.910888 
L 122.330398 179.183047 
L 125.14858 178.948 
L 127.966761 178.675841 
L 130.784943 178.873775 
L 133.603125 178.774808 
L 136.421307 179.455206 
L 139.239489 178.527391 
L 142.05767 179.393352 
L 144.875852 179.430464 
L 147.694034 179.591286 
L 150.512216 179.813962 
L 153.330398 179.640769 
L 156.14858 179.393352 
L 158.966761 179.826332 
L 161.784943 179.900558 
L 164.603125 179.541802 
L 167.421307 180.185088 
L 170.239489 180.234571 
L 173.05767 179.925299 
L 175.875852 180.333538 
L 178.694034 179.479948 
L 181.512216 180.49436 
L 184.330398 179.541802 
L 187.14858 180.568585 
L 189.966761 180.2222 
L 192.784943 180.333538 
L 195.603125 180.296426 
L 198.421307 179.739736 
L 201.239489 180.469618 
L 204.05767 180.185088 
L 206.875852 180.679923 
L 209.694034 180.20983 
L 212.512216 180.246942 
L 215.330398 180.049008 
L 218.14858 180.692294 
L 220.966761 180.444876 
L 223.784943 180.679923 
L 226.603125 180.605698 
L 229.421307 180.717035 
L 232.239489 180.692294 
L 235.05767 180.593327 
L 237.875852 180.890228 
L 240.694034 180.754148 
L 243.512216 180.383022 
L 246.330398 180.704665 
L 249.14858 180.407764 
L 251.966761 180.667552 
L 254.784943 179.851074 
L 257.603125 180.704665 
L 260.421307 180.246942 
L 263.239489 180.914969 
L 266.05767 180.543843 
L 268.875852 181.1995 
L 271.694034 180.568585 
L 274.512216 180.791261 
L 277.330398 180.989195 
L 280.14858 180.828373 
L 282.966761 180.395393 
L 285.784943 181.013936 
L 288.603125 181.125274 
L 291.421307 181.397434 
L 294.239489 181.125274 
L 297.05767 180.593327 
L 299.875852 180.939711 
L 302.694034 180.989195 
L 305.512216 181.125274 
L 308.330398 181.125274 
L 311.14858 181.125274 
L 313.966761 180.840744 
L 316.784943 181.248983 
L 319.603125 181.298467 
" style="fill:none;stroke:#1f77b4;stroke-linecap:square;stroke-width:1.5;"/>
   </g>
   <g id="line2d_28">
    <path clip-path="url(#p178233e51c)" d="M 40.603125 129.934593 
L 43.421307 134.140691 
L 46.239489 139.818923 
L 49.05767 144.890981 
L 51.875852 149.010483 
L 54.694034 152.610407 
L 57.512216 157.632983 
L 60.330398 161.034973 
L 63.14858 162.791637 
L 65.966761 164.931799 
L 68.784943 168.296677 
L 71.603125 169.917261 
L 74.421307 171.760522 
L 77.239489 172.972868 
L 80.05767 171.834747 
L 82.875852 173.814087 
L 85.694034 173.640895 
L 88.512216 174.865612 
L 91.330398 175.051175 
L 94.14858 174.890353 
L 96.966761 176.238779 
L 99.784943 175.781056 
L 102.603125 176.449084 
L 105.421307 176.634647 
L 108.239489 177.315045 
L 111.05767 177.550091 
L 113.875852 177.859363 
L 116.694034 176.906806 
L 119.512216 177.587204 
L 122.330398 179.244901 
L 125.14858 179.640769 
L 127.966761 179.096451 
L 130.784943 178.638728 
L 133.603125 178.787179 
L 136.421307 179.343868 
L 139.239489 179.616028 
L 142.05767 179.096451 
L 144.875852 178.391311 
L 147.694034 179.739736 
L 150.512216 180.234571 
L 153.330398 178.811921 
L 156.14858 179.319127 
L 158.966761 179.727365 
L 161.784943 179.739736 
L 164.603125 179.863445 
L 167.421307 179.764478 
L 170.239489 179.875816 
L 173.05767 179.50469 
L 175.875852 180.395393 
L 178.694034 179.455206 
L 181.512216 179.987154 
L 184.330398 179.838703 
L 187.14858 180.07375 
L 189.966761 180.407764 
L 192.784943 179.93767 
L 195.603125 180.383022 
L 198.421307 180.568585 
L 201.239489 180.086121 
L 204.05767 180.655181 
L 206.875852 180.803632 
L 209.694034 180.2222 
L 212.512216 181.088162 
L 215.330398 180.383022 
L 218.14858 180.432505 
L 220.966761 180.135604 
L 223.784943 180.469618 
L 226.603125 180.49436 
L 229.421307 180.754148 
L 232.239489 180.420134 
L 235.05767 180.717035 
L 237.875852 181.150016 
L 240.694034 180.766519 
L 243.512216 180.877857 
L 246.330398 181.06342 
L 249.14858 180.667552 
L 251.966761 180.531472 
L 254.784943 180.803632 
L 257.603125 180.840744 
L 260.421307 180.729406 
L 263.239489 181.038678 
L 266.05767 181.162387 
L 268.875852 180.791261 
L 271.694034 180.939711 
L 274.512216 180.865486 
L 277.330398 181.397434 
L 280.14858 180.605698 
L 282.966761 180.952082 
L 285.784943 181.013936 
L 288.603125 181.558255 
L 291.421307 180.741777 
L 294.239489 180.816002 
L 297.05767 181.013936 
L 299.875852 180.976824 
L 302.694034 180.754148 
L 305.512216 180.457247 
L 308.330398 181.013936 
L 311.14858 180.828373 
L 313.966761 180.853115 
L 316.784943 180.902599 
L 319.603125 180.840744 
" style="fill:none;stroke:#ff7f0e;stroke-linecap:square;stroke-width:1.5;"/>
   </g>
   <g id="line2d_29">
    <path clip-path="url(#p178233e51c)" d="M 40.603125 131.777854 
L 43.421307 137.307635 
L 46.239489 139.831293 
L 49.05767 145.707459 
L 51.875852 149.802219 
L 54.694034 154.404184 
L 57.512216 158.845328 
L 60.330398 162.96483 
L 63.14858 165.587455 
L 65.966761 168.284306 
L 68.784943 170.523434 
L 71.603125 169.942003 
L 74.421307 171.475992 
L 77.239489 174.049134 
L 80.05767 175.286221 
L 82.875852 175.1254 
L 85.694034 175.941878 
L 88.512216 175.496526 
L 91.330398 176.647018 
L 94.14858 177.154223 
L 96.966761 178.082039 
L 99.784943 178.465536 
L 102.603125 179.08408 
L 105.421307 179.009855 
L 108.239489 178.218119 
L 111.05767 178.688212 
L 113.875852 178.886146 
L 116.694034 179.282014 
L 119.512216 180.234571 
L 122.330398 180.531472 
L 125.14858 180.444876 
L 127.966761 180.110863 
L 130.784943 179.677882 
L 133.603125 179.23253 
L 136.421307 179.93767 
L 139.239489 180.432505 
L 142.05767 180.123233 
L 144.875852 180.395393 
L 147.694034 180.234571 
L 150.512216 180.370651 
L 153.330398 179.517061 
L 156.14858 180.197459 
L 158.966761 180.308797 
L 161.784943 180.506731 
L 164.603125 180.766519 
L 167.421307 180.147975 
L 170.239489 179.925299 
L 173.05767 180.444876 
L 175.875852 180.840744 
L 178.694034 180.618068 
L 181.512216 180.729406 
L 184.330398 180.766519 
L 187.14858 180.729406 
L 189.966761 180.457247 
L 192.784943 180.123233 
L 195.603125 180.370651 
L 198.421307 180.766519 
L 201.239489 180.890228 
L 204.05767 180.717035 
L 206.875852 180.853115 
L 209.694034 180.605698 
L 212.512216 181.001566 
L 215.330398 180.308797 
L 218.14858 180.618068 
L 220.966761 180.865486 
L 223.784943 180.902599 
L 226.603125 180.655181 
L 229.421307 181.248983 
L 232.239489 181.261354 
L 235.05767 180.890228 
L 237.875852 180.77889 
L 240.694034 181.310837 
L 243.512216 181.248983 
L 246.330398 180.754148 
L 249.14858 180.147975 
L 251.966761 181.607738 
L 254.784943 181.397434 
L 257.603125 180.902599 
L 260.421307 181.48403 
L 263.239489 181.026307 
L 266.05767 180.914969 
L 268.875852 180.605698 
L 271.694034 181.372692 
L 274.512216 181.088162 
L 277.330398 181.286096 
L 280.14858 181.026307 
L 282.966761 181.100533 
L 285.784943 181.521142 
L 288.603125 181.137645 
L 291.421307 181.657222 
L 294.239489 181.075791 
L 297.05767 181.286096 
L 299.875852 181.224241 
L 302.694034 181.21187 
L 305.512216 181.038678 
L 308.330398 181.409804 
L 311.14858 181.446917 
L 313.966761 181.06342 
L 316.784943 181.694335 
L 319.603125 181.607738 
" style="fill:none;stroke:#2ca02c;stroke-linecap:square;stroke-width:1.5;"/>
   </g>
   <g id="line2d_30">
    <path clip-path="url(#p178233e51c)" d="M 40.603125 135.25407 
L 43.421307 140.895189 
L 46.239489 145.064174 
L 49.05767 148.55276 
L 51.875852 155.876318 
L 54.694034 158.956666 
L 57.512216 162.878234 
L 60.330398 163.806049 
L 63.14858 165.946211 
L 65.966761 166.935881 
L 68.784943 169.038929 
L 71.603125 170.572918 
L 74.421307 171.636813 
L 77.239489 173.739862 
L 80.05767 173.022351 
L 82.875852 174.803757 
L 85.694034 176.671759 
L 88.512216 175.286221 
L 91.330398 176.065586 
L 94.14858 177.550091 
L 96.966761 178.032556 
L 99.784943 177.80988 
L 102.603125 178.168635 
L 105.421307 179.121193 
L 108.239489 179.08408 
L 111.05767 179.566544 
L 113.875852 179.22016 
L 116.694034 179.343868 
L 119.512216 179.492319 
L 122.330398 178.948 
L 125.14858 179.121193 
L 127.966761 179.78922 
L 130.784943 179.492319 
L 133.603125 179.059338 
L 136.421307 179.492319 
L 139.239489 179.616028 
L 142.05767 179.727365 
L 144.875852 178.675841 
L 147.694034 179.93767 
L 150.512216 179.838703 
L 153.330398 179.578915 
L 156.14858 179.974783 
L 158.966761 179.405723 
L 161.784943 179.578915 
L 164.603125 179.875816 
L 167.421307 179.912929 
L 170.239489 180.2222 
L 173.05767 180.729406 
L 175.875852 180.444876 
L 178.694034 179.380981 
L 181.512216 180.457247 
L 184.330398 180.655181 
L 187.14858 180.741777 
L 189.966761 180.964453 
L 192.784943 180.407764 
L 195.603125 181.013936 
L 198.421307 180.630439 
L 201.239489 181.088162 
L 204.05767 181.075791 
L 206.875852 180.902599 
L 209.694034 181.075791 
L 212.512216 181.051049 
L 215.330398 180.803632 
L 218.14858 181.224241 
L 220.966761 180.791261 
L 223.784943 180.865486 
L 226.603125 181.112903 
L 229.421307 181.075791 
L 232.239489 181.038678 
L 235.05767 180.890228 
L 237.875852 180.939711 
L 240.694034 181.224241 
L 243.512216 181.100533 
L 246.330398 181.06342 
L 249.14858 180.605698 
L 251.966761 181.409804 
L 254.784943 181.582997 
L 257.603125 181.545884 
L 260.421307 181.273725 
L 263.239489 181.21187 
L 266.05767 181.496401 
L 268.875852 181.236612 
L 271.694034 181.310837 
L 274.512216 181.112903 
L 277.330398 180.828373 
L 280.14858 181.298467 
L 282.966761 181.409804 
L 285.784943 180.939711 
L 288.603125 181.273725 
L 291.421307 181.248983 
L 294.239489 181.261354 
L 297.05767 180.952082 
L 299.875852 181.323208 
L 302.694034 181.409804 
L 305.512216 181.187129 
L 308.330398 181.372692 
L 311.14858 181.471659 
L 313.966761 181.088162 
L 316.784943 181.323208 
L 319.603125 181.360321 
" style="fill:none;stroke:#d62728;stroke-linecap:square;stroke-width:1.5;"/>
   </g>
   <g id="line2d_31">
    <path clip-path="url(#p178233e51c)" d="M 40.603125 132.074755 
L 43.421307 137.678761 
L 46.239489 142.985867 
L 49.05767 145.571379 
L 51.875852 151.163015 
L 54.694034 157.632983 
L 57.512216 159.43913 
L 60.330398 159.352534 
L 63.14858 163.546261 
L 65.966761 166.985364 
L 68.784943 168.556465 
L 71.603125 167.789471 
L 74.421307 171.463621 
L 77.239489 172.948126 
L 80.05767 172.700708 
L 82.875852 174.593452 
L 85.694034 175.137771 
L 88.512216 175.842911 
L 91.330398 176.919177 
L 94.14858 177.203707 
L 96.966761 177.537721 
L 99.784943 178.131523 
L 102.603125 177.649058 
L 105.421307 179.071709 
L 108.239489 179.380981 
L 111.05767 178.66347 
L 113.875852 179.257272 
L 116.694034 179.566544 
L 119.512216 178.811921 
L 122.330398 178.972742 
L 125.14858 178.985113 
L 127.966761 180.036637 
L 130.784943 180.345909 
L 133.603125 179.467577 
L 136.421307 179.034596 
L 139.239489 179.93767 
L 142.05767 179.541802 
L 144.875852 179.999525 
L 147.694034 180.630439 
L 150.512216 179.380981 
L 153.330398 179.714995 
L 156.14858 180.086121 
L 158.966761 180.197459 
L 161.784943 180.35828 
L 164.603125 179.962412 
L 167.421307 180.506731 
L 170.239489 180.135604 
L 173.05767 180.308797 
L 175.875852 180.197459 
L 178.694034 180.605698 
L 181.512216 180.877857 
L 184.330398 180.667552 
L 187.14858 180.741777 
L 189.966761 180.630439 
L 192.784943 180.865486 
L 195.603125 180.791261 
L 198.421307 180.976824 
L 201.239489 180.234571 
L 204.05767 180.259313 
L 206.875852 180.469618 
L 209.694034 180.77889 
L 212.512216 181.21187 
L 215.330398 181.360321 
L 218.14858 181.088162 
L 220.966761 180.383022 
L 223.784943 181.261354 
L 226.603125 180.890228 
L 229.421307 180.395393 
L 232.239489 181.286096 
L 235.05767 181.112903 
L 237.875852 180.370651 
L 240.694034 181.125274 
L 243.512216 180.964453 
L 246.330398 180.432505 
L 249.14858 180.939711 
L 251.966761 181.150016 
L 254.784943 181.360321 
L 257.603125 181.075791 
L 260.421307 180.976824 
L 263.239489 181.298467 
L 266.05767 181.112903 
L 268.875852 181.261354 
L 271.694034 181.125274 
L 274.512216 180.914969 
L 277.330398 181.112903 
L 280.14858 181.385063 
L 282.966761 181.286096 
L 285.784943 181.088162 
L 288.603125 181.1995 
L 291.421307 180.976824 
L 294.239489 181.508771 
L 297.05767 181.21187 
L 299.875852 181.471659 
L 302.694034 181.310837 
L 305.512216 181.1995 
L 308.330398 180.531472 
L 311.14858 180.840744 
L 313.966761 181.100533 
L 316.784943 180.64281 
L 319.603125 181.137645 
" style="fill:none;stroke:#9467bd;stroke-linecap:square;stroke-width:1.5;"/>
   </g>
   <g id="line2d_32">
    <path clip-path="url(#p178233e51c)" d="M 40.603125 130.602621 
L 43.421307 135.476745 
L 46.239489 136.293223 
L 49.05767 142.058051 
L 51.875852 147.84762 
L 54.694034 150.80426 
L 57.512216 157.868029 
L 60.330398 161.368987 
L 63.14858 162.420511 
L 65.966761 164.610156 
L 68.784943 167.517312 
L 71.603125 169.768811 
L 74.421307 171.513104 
L 77.239489 169.60799 
L 80.05767 171.327541 
L 82.875852 173.220285 
L 85.694034 172.675967 
L 88.512216 174.803757 
L 91.330398 174.308922 
L 94.14858 174.692419 
L 96.966761 175.904765 
L 99.784943 176.721243 
L 102.603125 177.129482 
L 105.421307 177.797509 
L 108.239489 177.463495 
L 111.05767 177.624317 
L 113.875852 177.302674 
L 116.694034 178.267602 
L 119.512216 177.636688 
L 122.330398 178.51502 
L 125.14858 177.550091 
L 127.966761 178.849033 
L 130.784943 178.675841 
L 133.603125 178.737695 
L 136.421307 179.108822 
L 139.239489 178.79955 
L 142.05767 178.688212 
L 144.875852 179.331497 
L 147.694034 179.925299 
L 150.512216 179.009855 
L 153.330398 179.554173 
L 156.14858 179.529431 
L 158.966761 179.282014 
L 161.784943 179.430464 
L 164.603125 179.987154 
L 167.421307 179.442835 
L 170.239489 180.049008 
L 173.05767 179.912929 
L 175.875852 180.457247 
L 178.694034 179.987154 
L 181.512216 180.147975 
L 184.330398 180.284055 
L 187.14858 180.011896 
L 189.966761 180.049008 
L 192.784943 180.271684 
L 195.603125 180.049008 
L 198.421307 179.677882 
L 201.239489 180.469618 
L 204.05767 179.863445 
L 206.875852 180.543843 
L 209.694034 180.296426 
L 212.512216 180.49436 
L 215.330398 180.717035 
L 218.14858 179.603657 
L 220.966761 179.690253 
L 223.784943 180.519101 
L 226.603125 180.110863 
L 229.421307 180.370651 
L 232.239489 180.370651 
L 235.05767 179.974783 
L 237.875852 180.49436 
L 240.694034 180.77889 
L 243.512216 180.35828 
L 246.330398 180.308797 
L 249.14858 180.519101 
L 251.966761 180.457247 
L 254.784943 180.024266 
L 257.603125 181.026307 
L 260.421307 180.679923 
L 263.239489 180.877857 
L 266.05767 181.001566 
L 268.875852 180.618068 
L 271.694034 181.150016 
L 274.512216 180.086121 
L 277.330398 180.246942 
L 280.14858 180.766519 
L 282.966761 181.112903 
L 285.784943 180.890228 
L 288.603125 180.77889 
L 291.421307 181.150016 
L 294.239489 180.457247 
L 297.05767 181.112903 
L 299.875852 181.088162 
L 302.694034 180.952082 
L 305.512216 180.64281 
L 308.330398 180.469618 
L 311.14858 181.001566 
L 313.966761 180.791261 
L 316.784943 180.605698 
L 319.603125 181.286096 
" style="fill:none;stroke:#8c564b;stroke-linecap:square;stroke-width:1.5;"/>
   </g>
   <g id="line2d_33">
    <path clip-path="url(#p178233e51c)" d="M 40.603125 133.905644 
L 43.421307 138.94059 
L 46.239489 141.303428 
L 49.05767 147.488865 
L 51.875852 146.400228 
L 54.694034 152.474328 
L 57.512216 157.162889 
L 60.330398 159.166971 
L 63.14858 163.236989 
L 65.966761 165.080249 
L 68.784943 165.773018 
L 71.603125 167.529683 
L 74.421307 168.581207 
L 77.239489 169.286347 
L 80.05767 169.348201 
L 82.875852 170.968786 
L 85.694034 170.919302 
L 88.512216 171.253316 
L 91.330398 174.445002 
L 94.14858 174.618194 
L 96.966761 174.445002 
L 99.784943 176.82021 
L 102.603125 177.24082 
L 105.421307 177.302674 
L 108.239489 177.339787 
L 111.05767 178.09441 
L 113.875852 176.795468 
L 116.694034 178.09441 
L 119.512216 179.158305 
L 122.330398 178.576874 
L 125.14858 178.613987 
L 127.966761 179.36861 
L 130.784943 179.306756 
L 133.603125 180.110863 
L 136.421307 179.714995 
L 139.239489 179.517061 
L 142.05767 179.702624 
L 144.875852 180.011896 
L 147.694034 180.135604 
L 150.512216 180.061379 
L 153.330398 180.061379 
L 156.14858 180.259313 
L 158.966761 180.741777 
L 161.784943 179.727365 
L 164.603125 179.888187 
L 167.421307 180.816002 
L 170.239489 180.321167 
L 173.05767 180.568585 
L 175.875852 180.234571 
L 178.694034 180.407764 
L 181.512216 180.061379 
L 184.330398 179.702624 
L 187.14858 180.679923 
L 189.966761 180.49436 
L 192.784943 180.729406 
L 195.603125 180.469618 
L 198.421307 180.605698 
L 201.239489 181.100533 
L 204.05767 180.902599 
L 206.875852 180.704665 
L 209.694034 180.321167 
L 212.512216 180.432505 
L 215.330398 180.655181 
L 218.14858 180.976824 
L 220.966761 180.556214 
L 223.784943 180.543843 
L 226.603125 180.791261 
L 229.421307 181.21187 
L 232.239489 180.754148 
L 235.05767 179.776849 
L 237.875852 180.791261 
L 240.694034 180.77889 
L 243.512216 181.261354 
L 246.330398 180.92734 
L 249.14858 181.174758 
L 251.966761 180.902599 
L 254.784943 181.026307 
L 257.603125 180.877857 
L 260.421307 181.372692 
L 263.239489 181.248983 
L 266.05767 180.902599 
L 268.875852 180.77889 
L 271.694034 180.766519 
L 274.512216 180.939711 
L 277.330398 181.620109 
L 280.14858 181.06342 
L 282.966761 181.100533 
L 285.784943 181.026307 
L 288.603125 181.125274 
L 291.421307 180.704665 
L 294.239489 181.236612 
L 297.05767 181.038678 
L 299.875852 181.335579 
L 302.694034 180.791261 
L 305.512216 180.853115 
L 308.330398 181.34795 
L 311.14858 181.06342 
L 313.966761 181.298467 
L 316.784943 181.224241 
L 319.603125 180.902599 
" style="fill:none;stroke:#e377c2;stroke-linecap:square;stroke-width:1.5;"/>
   </g>
   <g id="line2d_34">
    <path clip-path="url(#p178233e51c)" d="M 40.603125 132.050013 
L 43.421307 136.577753 
L 46.239489 138.767398 
L 49.05767 142.688966 
L 51.875852 148.453793 
L 54.694034 151.138273 
L 57.512216 152.857825 
L 60.330398 156.569087 
L 63.14858 157.521645 
L 65.966761 163.53389 
L 68.784943 165.067878 
L 71.603125 166.21837 
L 74.421307 167.62865 
L 77.239489 170.028599 
L 80.05767 171.302799 
L 82.875852 172.873901 
L 85.694034 172.997609 
L 88.512216 172.181132 
L 91.330398 173.702749 
L 94.14858 174.445002 
L 96.966761 176.634647 
L 99.784943 177.018144 
L 102.603125 177.500608 
L 105.421307 177.624317 
L 108.239489 177.537721 
L 111.05767 178.317086 
L 113.875852 178.873775 
L 116.694034 179.08408 
L 119.512216 178.651099 
L 122.330398 179.640769 
L 125.14858 179.121193 
L 127.966761 179.096451 
L 130.784943 178.527391 
L 133.603125 178.613987 
L 136.421307 179.405723 
L 139.239489 179.517061 
L 142.05767 179.022226 
L 144.875852 179.50469 
L 147.694034 179.306756 
L 150.512216 180.457247 
L 153.330398 180.07375 
L 156.14858 179.752107 
L 158.966761 180.160346 
L 161.784943 180.506731 
L 164.603125 180.35828 
L 167.421307 180.20983 
L 170.239489 180.123233 
L 173.05767 180.160346 
L 175.875852 180.853115 
L 178.694034 180.939711 
L 181.512216 180.444876 
L 184.330398 179.950041 
L 187.14858 180.432505 
L 189.966761 180.160346 
L 192.784943 180.630439 
L 195.603125 180.939711 
L 198.421307 180.593327 
L 201.239489 180.667552 
L 204.05767 180.506731 
L 206.875852 180.110863 
L 209.694034 180.667552 
L 212.512216 180.914969 
L 215.330398 180.952082 
L 218.14858 180.890228 
L 220.966761 180.655181 
L 223.784943 181.174758 
L 226.603125 181.051049 
L 229.421307 181.21187 
L 232.239489 180.64281 
L 235.05767 180.568585 
L 237.875852 181.150016 
L 240.694034 180.531472 
L 243.512216 181.187129 
L 246.330398 180.729406 
L 249.14858 181.06342 
L 251.966761 181.125274 
L 254.784943 181.150016 
L 257.603125 181.125274 
L 260.421307 181.187129 
L 263.239489 180.989195 
L 266.05767 181.323208 
L 268.875852 180.568585 
L 271.694034 180.605698 
L 274.512216 181.075791 
L 277.330398 180.655181 
L 280.14858 180.964453 
L 282.966761 181.323208 
L 285.784943 180.766519 
L 288.603125 181.607738 
L 291.421307 181.570626 
L 294.239489 181.533513 
L 297.05767 181.224241 
L 299.875852 181.286096 
L 302.694034 181.372692 
L 305.512216 181.187129 
L 308.330398 181.1995 
L 311.14858 181.150016 
L 313.966761 181.446917 
L 316.784943 180.865486 
L 319.603125 181.422175 
" style="fill:none;stroke:#7f7f7f;stroke-linecap:square;stroke-width:1.5;"/>
   </g>
   <g id="line2d_35">
    <path clip-path="url(#p178233e51c)" d="M 40.603125 134.610784 
L 43.421307 136.317965 
L 46.239489 141.798263 
L 49.05767 143.480702 
L 51.875852 146.28889 
L 54.694034 151.336207 
L 57.512216 158.498944 
L 60.330398 159.488614 
L 63.14858 160.725701 
L 65.966761 164.053467 
L 68.784943 165.773018 
L 71.603125 165.278183 
L 74.421307 168.593578 
L 77.239489 169.175009 
L 80.05767 169.768811 
L 82.875852 171.921343 
L 85.694034 172.502774 
L 88.512216 172.58937 
L 91.330398 172.824417 
L 94.14858 174.209955 
L 96.966761 175.607864 
L 99.784943 176.733614 
L 102.603125 178.317086 
L 105.421307 178.675841 
L 108.239489 179.356239 
L 111.05767 178.255231 
L 113.875852 179.541802 
L 116.694034 179.78922 
L 119.512216 179.343868 
L 122.330398 180.172717 
L 125.14858 179.603657 
L 127.966761 179.863445 
L 130.784943 179.925299 
L 133.603125 179.776849 
L 136.421307 180.432505 
L 139.239489 180.234571 
L 142.05767 179.801591 
L 144.875852 180.20983 
L 147.694034 180.024266 
L 150.512216 180.840744 
L 153.330398 180.989195 
L 156.14858 181.051049 
L 158.966761 180.890228 
L 161.784943 180.655181 
L 164.603125 181.1995 
L 167.421307 181.595368 
L 170.239489 180.667552 
L 173.05767 180.902599 
L 175.875852 180.618068 
L 178.694034 180.457247 
L 181.512216 181.273725 
L 184.330398 180.741777 
L 187.14858 180.296426 
L 189.966761 181.224241 
L 192.784943 181.323208 
L 195.603125 181.607738 
L 198.421307 180.989195 
L 201.239489 180.618068 
L 204.05767 180.816002 
L 206.875852 181.1995 
L 209.694034 180.853115 
L 212.512216 180.952082 
L 215.330398 181.051049 
L 218.14858 181.026307 
L 220.966761 181.323208 
L 223.784943 181.162387 
L 226.603125 181.63248 
L 229.421307 180.655181 
L 232.239489 181.298467 
L 235.05767 180.791261 
L 237.875852 181.508771 
L 240.694034 181.323208 
L 243.512216 180.519101 
L 246.330398 181.248983 
L 249.14858 181.372692 
L 251.966761 181.100533 
L 254.784943 181.174758 
L 257.603125 181.558255 
L 260.421307 181.434546 
L 263.239489 181.261354 
L 266.05767 181.533513 
L 268.875852 181.397434 
L 271.694034 181.34795 
L 274.512216 181.162387 
L 277.330398 181.06342 
L 280.14858 181.385063 
L 282.966761 181.558255 
L 285.784943 181.459288 
L 288.603125 181.521142 
L 291.421307 181.21187 
L 294.239489 181.63248 
L 297.05767 181.793302 
L 299.875852 181.162387 
L 302.694034 181.323208 
L 305.512216 181.706705 
L 308.330398 181.681964 
L 311.14858 181.508771 
L 313.966761 181.991236 
L 316.784943 181.360321 
L 319.603125 181.644851 
" style="fill:none;stroke:#bcbd22;stroke-linecap:square;stroke-width:1.5;"/>
   </g>
   <g id="line2d_36">
    <path clip-path="url(#p178233e51c)" d="M 40.603125 182.919051 
L 319.603125 182.919051 
" style="fill:none;stroke:#808080;stroke-dasharray:5.55,2.4;stroke-dashoffset:0;stroke-width:1.5;"/>
   </g>
   <g id="patch_6">
    <path d="M 40.603125 189.104489 
L 40.603125 127.331761 
" style="fill:none;stroke:#000000;stroke-linecap:square;stroke-linejoin:miter;stroke-width:0.8;"/>
   </g>
   <g id="patch_7">
    <path d="M 40.603125 189.104489 
L 319.603125 189.104489 
" style="fill:none;stroke:#000000;stroke-linecap:square;stroke-linejoin:miter;stroke-width:0.8;"/>
   </g>
   <g id="text_19">
    <!-- Open Field -->
    <g transform="translate(148.319063 121.331761)scale(0.12 -0.12)">
     <defs>
      <path d="M 2522 4238 
Q 1834 4238 1429 3725 
Q 1025 3213 1025 2328 
Q 1025 1447 1429 934 
Q 1834 422 2522 422 
Q 3209 422 3611 934 
Q 4013 1447 4013 2328 
Q 4013 3213 3611 3725 
Q 3209 4238 2522 4238 
z
M 2522 4750 
Q 3503 4750 4090 4092 
Q 4678 3434 4678 2328 
Q 4678 1225 4090 567 
Q 3503 -91 2522 -91 
Q 1538 -91 948 565 
Q 359 1222 359 2328 
Q 359 3434 948 4092 
Q 1538 4750 2522 4750 
z
" id="DejaVuSans-4f" transform="scale(0.015625)"/>
      <path d="M 628 4666 
L 3309 4666 
L 3309 4134 
L 1259 4134 
L 1259 2759 
L 3109 2759 
L 3109 2228 
L 1259 2228 
L 1259 0 
L 628 0 
L 628 4666 
z
" id="DejaVuSans-46" transform="scale(0.015625)"/>
      <path d="M 603 4863 
L 1178 4863 
L 1178 0 
L 603 0 
L 603 4863 
z
" id="DejaVuSans-6c" transform="scale(0.015625)"/>
      <path d="M 2906 2969 
L 2906 4863 
L 3481 4863 
L 3481 0 
L 2906 0 
L 2906 525 
Q 2725 213 2448 61 
Q 2172 -91 1784 -91 
Q 1150 -91 751 415 
Q 353 922 353 1747 
Q 353 2572 751 3078 
Q 1150 3584 1784 3584 
Q 2172 3584 2448 3432 
Q 2725 3281 2906 2969 
z
M 947 1747 
Q 947 1113 1208 752 
Q 1469 391 1925 391 
Q 2381 391 2643 752 
Q 2906 1113 2906 1747 
Q 2906 2381 2643 2742 
Q 2381 3103 1925 3103 
Q 1469 3103 1208 2742 
Q 947 2381 947 1747 
z
" id="DejaVuSans-64" transform="scale(0.015625)"/>
     </defs>
     <use xlink:href="#DejaVuSans-4f"/>
     <use x="78.710938" xlink:href="#DejaVuSans-70"/>
     <use x="142.1875" xlink:href="#DejaVuSans-65"/>
     <use x="203.710938" xlink:href="#DejaVuSans-6e"/>
     <use x="267.089844" xlink:href="#DejaVuSans-20"/>
     <use x="298.876953" xlink:href="#DejaVuSans-46"/>
     <use x="349.146484" xlink:href="#DejaVuSans-69"/>
     <use x="376.929688" xlink:href="#DejaVuSans-65"/>
     <use x="438.453125" xlink:href="#DejaVuSans-6c"/>
     <use x="466.236328" xlink:href="#DejaVuSans-64"/>
    </g>
   </g>
  </g>
  <g id="axes_3">
   <g id="patch_8">
    <path d="M 40.603125 294.118125 
L 319.603125 294.118125 
L 319.603125 232.345398 
L 40.603125 232.345398 
z
" style="fill:#ffffff;"/>
   </g>
   <g id="matplotlib.axis_5">
    <g id="xtick_12">
     <g id="line2d_37">
      <g>
       <use style="stroke:#000000;stroke-width:0.8;" x="40.603125" xlink:href="#m93c087141e" y="294.118125"/>
      </g>
     </g>
     <g id="text_20">
      <!-- 1 -->
      <g transform="translate(37.421875 308.716562)scale(0.1 -0.1)">
       <use xlink:href="#DejaVuSans-31"/>
      </g>
     </g>
    </g>
    <g id="xtick_13">
     <g id="line2d_38">
      <g>
       <use style="stroke:#000000;stroke-width:0.8;" x="94.14858" xlink:href="#m93c087141e" y="294.118125"/>
      </g>
     </g>
     <g id="text_21">
      <!-- 20 -->
      <g transform="translate(87.78608 308.716562)scale(0.1 -0.1)">
       <use xlink:href="#DejaVuSans-32"/>
       <use x="63.623047" xlink:href="#DejaVuSans-30"/>
      </g>
     </g>
    </g>
    <g id="xtick_14">
     <g id="line2d_39">
      <g>
       <use style="stroke:#000000;stroke-width:0.8;" x="150.512216" xlink:href="#m93c087141e" y="294.118125"/>
      </g>
     </g>
     <g id="text_22">
      <!-- 40 -->
      <g transform="translate(144.149716 308.716562)scale(0.1 -0.1)">
       <use xlink:href="#DejaVuSans-34"/>
       <use x="63.623047" xlink:href="#DejaVuSans-30"/>
      </g>
     </g>
    </g>
    <g id="xtick_15">
     <g id="line2d_40">
      <g>
       <use style="stroke:#000000;stroke-width:0.8;" x="206.875852" xlink:href="#m93c087141e" y="294.118125"/>
      </g>
     </g>
     <g id="text_23">
      <!-- 60 -->
      <g transform="translate(200.513352 308.716562)scale(0.1 -0.1)">
       <use xlink:href="#DejaVuSans-36"/>
       <use x="63.623047" xlink:href="#DejaVuSans-30"/>
      </g>
     </g>
    </g>
    <g id="xtick_16">
     <g id="line2d_41">
      <g>
       <use style="stroke:#000000;stroke-width:0.8;" x="263.239489" xlink:href="#m93c087141e" y="294.118125"/>
      </g>
     </g>
     <g id="text_24">
      <!-- 80 -->
      <g transform="translate(256.876989 308.716562)scale(0.1 -0.1)">
       <use xlink:href="#DejaVuSans-38"/>
       <use x="63.623047" xlink:href="#DejaVuSans-30"/>
      </g>
     </g>
    </g>
    <g id="xtick_17">
     <g id="line2d_42">
      <g>
       <use style="stroke:#000000;stroke-width:0.8;" x="319.603125" xlink:href="#m93c087141e" y="294.118125"/>
      </g>
     </g>
     <g id="text_25">
      <!-- 100 -->
      <g transform="translate(310.059375 308.716562)scale(0.1 -0.1)">
       <use xlink:href="#DejaVuSans-31"/>
       <use x="63.623047" xlink:href="#DejaVuSans-30"/>
       <use x="127.246094" xlink:href="#DejaVuSans-30"/>
      </g>
     </g>
    </g>
    <g id="text_26">
     <!-- Trial -->
     <g transform="translate(169.889062 322.394687)scale(0.1 -0.1)">
      <use xlink:href="#DejaVuSans-54"/>
      <use x="46.333984" xlink:href="#DejaVuSans-72"/>
      <use x="87.447266" xlink:href="#DejaVuSans-69"/>
      <use x="115.230469" xlink:href="#DejaVuSans-61"/>
      <use x="176.509766" xlink:href="#DejaVuSans-6c"/>
     </g>
    </g>
   </g>
   <g id="matplotlib.axis_6">
    <g id="ytick_6">
     <g id="line2d_43">
      <g>
       <use style="stroke:#000000;stroke-width:0.8;" x="40.603125" xlink:href="#mae75a5f37e" y="294.118125"/>
      </g>
     </g>
     <g id="text_27">
      <!-- 0 -->
      <g transform="translate(27.240625 297.917344)scale(0.1 -0.1)">
       <use xlink:href="#DejaVuSans-30"/>
      </g>
     </g>
    </g>
    <g id="ytick_7">
     <g id="line2d_44">
      <g>
       <use style="stroke:#000000;stroke-width:0.8;" x="40.603125" xlink:href="#mae75a5f37e" y="273.407925"/>
      </g>
     </g>
     <g id="text_28">
      <!-- 100 -->
      <g transform="translate(14.515625 277.207144)scale(0.1 -0.1)">
       <use xlink:href="#DejaVuSans-31"/>
       <use x="63.623047" xlink:href="#DejaVuSans-30"/>
       <use x="127.246094" xlink:href="#DejaVuSans-30"/>
      </g>
     </g>
    </g>
    <g id="ytick_8">
     <g id="line2d_45">
      <g>
       <use style="stroke:#000000;stroke-width:0.8;" x="40.603125" xlink:href="#mae75a5f37e" y="252.697725"/>
      </g>
     </g>
     <g id="text_29">
      <!-- 200 -->
      <g transform="translate(14.515625 256.496944)scale(0.1 -0.1)">
       <use xlink:href="#DejaVuSans-32"/>
       <use x="63.623047" xlink:href="#DejaVuSans-30"/>
       <use x="127.246094" xlink:href="#DejaVuSans-30"/>
      </g>
     </g>
    </g>
   </g>
   <g id="line2d_46">
    <path clip-path="url(#pcca43e8e19)" d="M 40.603125 235.065061 
L 43.421307 243.253874 
L 46.239489 252.142692 
L 49.05767 259.494813 
L 51.875852 264.842187 
L 54.694034 268.11854 
L 57.512216 272.64579 
L 60.330398 274.153492 
L 63.14858 275.657053 
L 65.966761 278.129851 
L 68.784943 280.217439 
L 71.603125 282.313311 
L 74.421307 283.340537 
L 77.239489 284.144093 
L 80.05767 284.226934 
L 82.875852 284.30149 
L 85.694034 285.411557 
L 88.512216 285.72221 
L 91.330398 285.407415 
L 94.14858 286.650027 
L 96.966761 286.815709 
L 99.784943 286.886123 
L 102.603125 286.637601 
L 105.421307 287.093225 
L 108.239489 288.112167 
L 111.05767 288.294417 
L 113.875852 288.26128 
L 116.694034 288.538797 
L 119.512216 288.555365 
L 122.330398 288.397968 
L 125.14858 288.580218 
L 127.966761 288.472525 
L 130.784943 288.629922 
L 133.603125 288.406252 
L 136.421307 288.501519 
L 139.239489 288.489093 
L 142.05767 288.642348 
L 144.875852 288.600928 
L 147.694034 288.687911 
L 150.512216 288.542939 
L 153.330398 288.78732 
L 156.14858 288.754183 
L 158.966761 288.559507 
L 161.784943 288.750041 
L 164.603125 288.600928 
L 167.421307 288.650632 
L 170.239489 288.774893 
L 173.05767 288.712763 
L 175.875852 288.522229 
L 178.694034 288.658916 
L 181.512216 288.729331 
L 184.330398 288.754183 
L 187.14858 288.629922 
L 189.966761 288.78732 
L 192.784943 288.704479 
L 195.603125 288.766609 
L 198.421307 288.712763 
L 201.239489 288.940575 
L 204.05767 288.899155 
L 206.875852 288.779035 
L 209.694034 288.874302 
L 212.512216 288.994422 
L 215.330398 288.899155 
L 218.14858 288.82874 
L 220.966761 288.87016 
L 223.784943 288.953001 
L 226.603125 288.80803 
L 229.421307 288.745899 
L 232.239489 288.84945 
L 235.05767 288.791462 
L 237.875852 288.878444 
L 240.694034 288.845308 
L 243.512216 288.861876 
L 246.330398 288.961285 
L 249.14858 288.953001 
L 251.966761 288.832882 
L 254.784943 289.05241 
L 257.603125 289.056552 
L 260.421307 289.039984 
L 263.239489 289.027558 
L 266.05767 288.919865 
L 268.875852 289.097973 
L 271.694034 288.961285 
L 274.512216 289.006848 
L 277.330398 289.019274 
L 280.14858 288.837024 
L 282.966761 288.841166 
L 285.784943 288.981995 
L 288.603125 288.961285 
L 291.421307 288.795604 
L 294.239489 288.903297 
L 297.05767 288.915723 
L 299.875852 288.878444 
L 302.694034 289.006848 
L 305.512216 288.965427 
L 308.330398 289.039984 
L 311.14858 288.837024 
L 313.966761 289.039984 
L 316.784943 288.886729 
L 319.603125 288.861876 
" style="fill:none;stroke:#1f77b4;stroke-linecap:square;stroke-width:1.5;"/>
   </g>
   <g id="line2d_47">
    <path clip-path="url(#pcca43e8e19)" d="M 40.603125 239.012425 
L 43.421307 249.852144 
L 46.239489 253.182344 
L 49.05767 259.664637 
L 51.875852 264.237449 
L 54.694034 267.50966 
L 57.512216 271.307911 
L 60.330398 273.813845 
L 63.14858 275.362968 
L 65.966761 279.219207 
L 68.784943 281.41863 
L 71.603125 282.810356 
L 74.421307 283.705037 
L 77.239489 285.361853 
L 80.05767 286.529908 
L 82.875852 286.658311 
L 85.694034 286.542334 
L 88.512216 286.683163 
L 91.330398 287.076657 
L 94.14858 287.238197 
L 96.966761 287.403878 
L 99.784943 287.731099 
L 102.603125 287.896781 
L 105.421307 287.867787 
L 108.239489 287.929917 
L 111.05767 287.871929 
L 113.875852 287.942343 
L 116.694034 287.900923 
L 119.512216 288.108025 
L 122.330398 287.822224 
L 125.14858 288.091457 
L 127.966761 288.103883 
L 130.784943 288.339979 
L 133.603125 288.716905 
L 136.421307 288.687911 
L 139.239489 288.580218 
L 142.05767 288.675484 
L 144.875852 288.716905 
L 147.694034 288.650632 
L 150.512216 288.725189 
L 153.330398 288.663058 
L 156.14858 288.729331 
L 158.966761 288.766609 
L 161.784943 288.725189 
L 164.603125 288.716905 
L 167.421307 288.716905 
L 170.239489 288.857734 
L 173.05767 288.708621 
L 175.875852 288.716905 
L 178.694034 288.774893 
L 181.512216 288.658916 
L 184.330398 288.78732 
L 187.14858 288.766609 
L 189.966761 288.692053 
L 192.784943 288.911581 
L 195.603125 288.721047 
L 198.421307 288.642348 
L 201.239489 288.80803 
L 204.05767 288.654774 
L 206.875852 288.895013 
L 209.694034 288.721047 
L 212.512216 288.791462 
L 215.330398 288.816314 
L 218.14858 288.944717 
L 220.966761 288.832882 
L 223.784943 288.969569 
L 226.603125 288.882586 
L 229.421307 289.056552 
L 232.239489 288.986137 
L 235.05767 288.936433 
L 237.875852 288.953001 
L 240.694034 288.940575 
L 243.512216 288.986137 
L 246.330398 289.044126 
L 249.14858 288.878444 
L 251.966761 289.056552 
L 254.784943 288.994422 
L 257.603125 289.089688 
L 260.421307 289.015132 
L 263.239489 289.006848 
L 266.05767 289.151819 
L 268.875852 288.969569 
L 271.694034 289.01099 
L 274.512216 289.209808 
L 277.330398 289.081404 
L 280.14858 289.01099 
L 282.966761 289.147677 
L 285.784943 289.085546 
L 288.603125 289.044126 
L 291.421307 288.986137 
L 294.239489 289.035842 
L 297.05767 289.102115 
L 299.875852 289.05241 
L 302.694034 288.994422 
L 305.512216 288.948859 
L 308.330398 288.911581 
L 311.14858 289.023416 
L 313.966761 289.160103 
L 316.784943 288.969569 
L 319.603125 289.139393 
" style="fill:none;stroke:#ff7f0e;stroke-linecap:square;stroke-width:1.5;"/>
   </g>
   <g id="line2d_48">
    <path clip-path="url(#pcca43e8e19)" d="M 40.603125 237.057382 
L 43.421307 244.836133 
L 46.239489 250.055104 
L 49.05767 258.446877 
L 51.875852 262.456371 
L 54.694034 267.778893 
L 57.512216 270.193702 
L 60.330398 274.443435 
L 63.14858 277.976595 
L 65.966761 280.826319 
L 68.784943 282.847634 
L 71.603125 283.183139 
L 74.421307 283.870718 
L 77.239489 284.388473 
L 80.05767 284.52516 
L 82.875852 285.548244 
L 85.694034 286.277243 
L 88.512216 286.51334 
L 91.330398 286.695589 
L 94.14858 286.720442 
L 96.966761 286.583754 
L 99.784943 287.271333 
L 102.603125 287.362458 
L 105.421307 287.354174 
L 108.239489 287.267191 
L 111.05767 287.341748 
L 113.875852 287.18435 
L 116.694034 287.635832 
L 119.512216 287.457725 
L 122.330398 288.041752 
L 125.14858 288.000332 
L 127.966761 288.087315 
L 130.784943 287.917491 
L 133.603125 288.066605 
L 136.421307 288.066605 
L 139.239489 288.041752 
L 142.05767 288.000332 
L 144.875852 288.087315 
L 147.694034 288.228144 
L 150.512216 288.012758 
L 153.330398 288.008616 
L 156.14858 288.277849 
L 158.966761 288.613354 
L 161.784943 288.663058 
L 164.603125 288.861876 
L 167.421307 288.745899 
L 170.239489 288.489093 
L 173.05767 288.704479 
L 175.875852 288.518087 
L 178.694034 288.298559 
L 181.512216 288.783178 
L 184.330398 288.750041 
L 187.14858 288.774893 
L 189.966761 288.837024 
L 192.784943 288.878444 
L 195.603125 288.932291 
L 198.421307 288.700337 
L 201.239489 288.845308 
L 204.05767 288.654774 
L 206.875852 288.770751 
L 209.694034 288.82874 
L 212.512216 288.953001 
L 215.330398 288.791462 
L 218.14858 288.779035 
L 220.966761 288.953001 
L 223.784943 288.932291 
L 226.603125 288.957143 
L 229.421307 288.80803 
L 232.239489 288.924007 
L 235.05767 288.708621 
L 237.875852 288.973711 
L 240.694034 288.969569 
L 243.512216 288.733473 
L 246.330398 289.085546 
L 249.14858 288.961285 
L 251.966761 288.99028 
L 254.784943 289.093831 
L 257.603125 288.924007 
L 260.421307 289.002706 
L 263.239489 289.006848 
L 266.05767 288.882586 
L 268.875852 288.911581 
L 271.694034 288.969569 
L 274.512216 289.060694 
L 277.330398 289.044126 
L 280.14858 289.218092 
L 282.966761 288.998564 
L 285.784943 289.155961 
L 288.603125 289.077262 
L 291.421307 289.048268 
L 294.239489 289.189097 
L 297.05767 288.961285 
L 299.875852 289.044126 
L 302.694034 288.940575 
L 305.512216 289.135251 
L 308.330398 288.882586 
L 311.14858 288.940575 
L 313.966761 289.155961 
L 316.784943 289.05241 
L 319.603125 289.209808 
" style="fill:none;stroke:#2ca02c;stroke-linecap:square;stroke-width:1.5;"/>
   </g>
   <g id="line2d_49">
    <path clip-path="url(#pcca43e8e19)" d="M 40.603125 236.042583 
L 43.421307 243.378135 
L 46.239489 252.358078 
L 49.05767 259.44925 
L 51.875852 265.952253 
L 54.694034 269.369436 
L 57.512216 270.222696 
L 60.330398 273.507334 
L 63.14858 275.251133 
L 65.966761 277.765351 
L 68.784943 279.869508 
L 71.603125 282.951185 
L 74.421307 285.730494 
L 77.239489 286.658311 
L 80.05767 287.147072 
L 82.875852 287.138788 
L 85.694034 287.105651 
L 88.512216 287.234055 
L 91.330398 287.507429 
L 94.14858 287.818082 
L 96.966761 287.681395 
L 99.784943 288.153587 
L 102.603125 288.281991 
L 105.421307 288.319269 
L 108.239489 288.571933 
L 111.05767 288.555365 
L 113.875852 288.654774 
L 116.694034 288.476667 
L 119.512216 288.567791 
L 122.330398 288.547081 
L 125.14858 288.551223 
L 127.966761 288.671342 
L 130.784943 288.621638 
L 133.603125 288.654774 
L 136.421307 288.733473 
L 139.239489 288.6672 
L 142.05767 288.820456 
L 144.875852 288.799746 
L 147.694034 288.762467 
L 150.512216 288.596786 
L 153.330398 288.696195 
L 156.14858 288.745899 
L 158.966761 288.716905 
L 161.784943 288.629922 
L 164.603125 288.687911 
L 167.421307 288.832882 
L 170.239489 288.832882 
L 173.05767 288.758325 
L 175.875852 288.754183 
L 178.694034 288.80803 
L 181.512216 288.708621 
L 184.330398 288.762467 
L 187.14858 288.638206 
L 189.966761 288.642348 
L 192.784943 288.837024 
L 195.603125 288.791462 
L 198.421307 288.837024 
L 201.239489 289.085546 
L 204.05767 288.725189 
L 206.875852 288.866018 
L 209.694034 288.99028 
L 212.512216 288.953001 
L 215.330398 288.903297 
L 218.14858 288.832882 
L 220.966761 288.82874 
L 223.784943 288.78732 
L 226.603125 288.915723 
L 229.421307 288.911581 
L 232.239489 288.874302 
L 235.05767 288.903297 
L 237.875852 289.044126 
L 240.694034 288.874302 
L 243.512216 289.114541 
L 246.330398 289.006848 
L 249.14858 288.932291 
L 251.966761 288.948859 
L 254.784943 288.994422 
L 257.603125 288.986137 
L 260.421307 288.994422 
L 263.239489 289.102115 
L 266.05767 289.164245 
L 268.875852 289.089688 
L 271.694034 289.01099 
L 274.512216 289.102115 
L 277.330398 289.085546 
L 280.14858 289.155961 
L 282.966761 289.07312 
L 285.784943 288.994422 
L 288.603125 289.176671 
L 291.421307 289.048268 
L 294.239489 289.172529 
L 297.05767 289.118683 
L 299.875852 289.114541 
L 302.694034 289.209808 
L 305.512216 289.147677 
L 308.330398 289.093831 
L 311.14858 289.110399 
L 313.966761 289.081404 
L 316.784943 289.230518 
L 319.603125 289.184955 
" style="fill:none;stroke:#d62728;stroke-linecap:square;stroke-width:1.5;"/>
   </g>
   <g id="line2d_50">
    <path clip-path="url(#pcca43e8e19)" d="M 40.603125 235.342578 
L 43.421307 240.959184 
L 46.239489 250.253922 
L 49.05767 255.481176 
L 51.875852 261.698378 
L 54.694034 267.803745 
L 57.512216 271.908507 
L 60.330398 273.983669 
L 63.14858 276.120961 
L 65.966761 277.699079 
L 68.784943 278.622753 
L 71.603125 281.273659 
L 74.421307 281.170108 
L 77.239489 283.584917 
L 80.05767 284.591433 
L 82.875852 285.332858 
L 85.694034 285.941738 
L 88.512216 286.612749 
L 91.330398 286.997958 
L 94.14858 287.3666 
L 96.966761 287.511571 
L 99.784943 287.747668 
L 102.603125 288.215718 
L 105.421307 288.526371 
L 108.239489 288.377258 
L 111.05767 288.302701 
L 113.875852 288.319269 
L 116.694034 288.389684 
L 119.512216 288.497377 
L 122.330398 288.3814 
L 125.14858 288.480809 
L 127.966761 288.567791 
L 130.784943 288.559507 
L 133.603125 288.460098 
L 136.421307 288.567791 
L 139.239489 288.567791 
L 142.05767 288.40211 
L 144.875852 288.6672 
L 147.694034 288.547081 
L 150.512216 288.629922 
L 153.330398 288.451814 
L 156.14858 288.476667 
L 158.966761 288.650632 
L 161.784943 288.729331 
L 164.603125 288.766609 
L 167.421307 288.675484 
L 170.239489 288.592644 
L 173.05767 288.716905 
L 175.875852 288.832882 
L 178.694034 288.64649 
L 181.512216 288.721047 
L 184.330398 288.812172 
L 187.14858 288.750041 
L 189.966761 288.638206 
L 192.784943 288.812172 
L 195.603125 288.600928 
L 198.421307 288.791462 
L 201.239489 288.80803 
L 204.05767 288.754183 
L 206.875852 288.919865 
L 209.694034 288.803888 
L 212.512216 288.932291 
L 215.330398 288.87016 
L 218.14858 288.911581 
L 220.966761 288.899155 
L 223.784943 288.832882 
L 226.603125 288.961285 
L 229.421307 288.745899 
L 232.239489 288.957143 
L 235.05767 288.944717 
L 237.875852 288.845308 
L 240.694034 288.899155 
L 243.512216 289.039984 
L 246.330398 288.774893 
L 249.14858 289.081404 
L 251.966761 289.089688 
L 254.784943 288.998564 
L 257.603125 288.973711 
L 260.421307 288.816314 
L 263.239489 288.882586 
L 266.05767 288.87016 
L 268.875852 288.961285 
L 271.694034 288.932291 
L 274.512216 288.878444 
L 277.330398 289.01099 
L 280.14858 289.027558 
L 282.966761 289.060694 
L 285.784943 288.866018 
L 288.603125 288.940575 
L 291.421307 289.015132 
L 294.239489 288.986137 
L 297.05767 288.953001 
L 299.875852 288.969569 
L 302.694034 288.919865 
L 305.512216 288.853592 
L 308.330398 288.953001 
L 311.14858 288.932291 
L 313.966761 288.82874 
L 316.784943 288.973711 
L 319.603125 289.056552 
" style="fill:none;stroke:#9467bd;stroke-linecap:square;stroke-width:1.5;"/>
   </g>
   <g id="line2d_51">
    <path clip-path="url(#pcca43e8e19)" d="M 40.603125 236.771582 
L 43.421307 240.74794 
L 46.239489 245.188207 
L 49.05767 250.320194 
L 51.875852 254.379394 
L 54.694034 257.999536 
L 57.512216 261.561691 
L 60.330398 266.088941 
L 63.14858 267.812029 
L 65.966761 271.332763 
L 68.784943 273.084846 
L 71.603125 276.97008 
L 74.421307 279.790809 
L 77.239489 280.540518 
L 80.05767 281.948812 
L 82.875852 282.739941 
L 85.694034 282.889055 
L 88.512216 284.347053 
L 91.330398 283.837582 
L 94.14858 284.492024 
L 96.966761 285.950022 
L 99.784943 286.094994 
L 102.603125 286.910975 
L 105.421307 286.579612 
L 108.239489 287.905065 
L 111.05767 288.099741 
L 113.875852 288.489093 
L 116.694034 288.547081 
L 119.512216 288.600928 
L 122.330398 288.634064 
L 125.14858 288.621638 
L 127.966761 288.414536 
L 130.784943 288.795604 
L 133.603125 288.721047 
L 136.421307 288.886729 
L 139.239489 288.617496 
L 142.05767 288.762467 
L 144.875852 288.795604 
L 147.694034 288.704479 
L 150.512216 288.6672 
L 153.330398 288.638206 
L 156.14858 288.526371 
L 158.966761 288.762467 
L 161.784943 288.803888 
L 164.603125 288.733473 
L 167.421307 288.679627 
L 170.239489 288.737615 
L 173.05767 288.812172 
L 175.875852 288.940575 
L 178.694034 288.903297 
L 181.512216 288.766609 
L 184.330398 288.812172 
L 187.14858 288.928149 
L 189.966761 288.928149 
L 192.784943 289.035842 
L 195.603125 288.998564 
L 198.421307 288.663058 
L 201.239489 288.78732 
L 204.05767 288.924007 
L 206.875852 288.87016 
L 209.694034 288.953001 
L 212.512216 288.899155 
L 215.330398 288.953001 
L 218.14858 288.866018 
L 220.966761 288.845308 
L 223.784943 288.84945 
L 226.603125 289.048268 
L 229.421307 288.961285 
L 232.239489 288.886729 
L 235.05767 288.998564 
L 237.875852 289.035842 
L 240.694034 288.886729 
L 243.512216 289.093831 
L 246.330398 289.039984 
L 249.14858 288.907439 
L 251.966761 288.907439 
L 254.784943 289.085546 
L 257.603125 289.147677 
L 260.421307 288.969569 
L 263.239489 289.110399 
L 266.05767 289.002706 
L 268.875852 289.077262 
L 271.694034 289.035842 
L 274.512216 289.114541 
L 277.330398 289.023416 
L 280.14858 289.01099 
L 282.966761 288.969569 
L 285.784943 288.986137 
L 288.603125 289.143535 
L 291.421307 289.07312 
L 294.239489 289.060694 
L 297.05767 289.271938 
L 299.875852 289.081404 
L 302.694034 289.093831 
L 305.512216 289.110399 
L 308.330398 289.039984 
L 311.14858 289.193239 
L 313.966761 289.168387 
L 316.784943 289.056552 
L 319.603125 289.056552 
" style="fill:none;stroke:#8c564b;stroke-linecap:square;stroke-width:1.5;"/>
   </g>
   <g id="line2d_52">
    <path clip-path="url(#pcca43e8e19)" d="M 40.603125 236.386372 
L 43.421307 240.963326 
L 46.239489 247.035557 
L 49.05767 249.375809 
L 51.875852 254.528507 
L 54.694034 260.720857 
L 57.512216 266.142787 
L 60.330398 267.662916 
L 63.14858 270.968264 
L 65.966761 274.472429 
L 68.784943 276.299069 
L 71.603125 278.096714 
L 74.421307 279.273054 
L 77.239489 280.213297 
L 80.05767 282.25118 
L 82.875852 283.361247 
L 85.694034 284.86895 
L 88.512216 285.138182 
L 91.330398 286.252391 
L 94.14858 286.902691 
L 96.966761 287.619264 
L 99.784943 287.726957 
L 102.603125 287.946485 
L 105.421307 287.942343 
L 108.239489 287.830508 
L 111.05767 287.747668 
L 113.875852 287.880213 
L 116.694034 287.909207 
L 119.512216 288.050036 
L 122.330398 288.029326 
L 125.14858 288.021042 
L 127.966761 288.058321 
L 130.784943 287.95477 
L 133.603125 288.074889 
L 136.421307 288.079031 
L 139.239489 287.97548 
L 142.05767 287.983764 
L 144.875852 287.97548 
L 147.694034 287.979622 
L 150.512216 288.062463 
L 153.330398 288.161872 
L 156.14858 288.816314 
L 158.966761 288.6672 
L 161.784943 288.642348 
L 164.603125 288.750041 
L 167.421307 288.563649 
L 170.239489 288.592644 
L 173.05767 288.658916 
L 175.875852 288.832882 
L 178.694034 288.78732 
L 181.512216 288.770751 
L 184.330398 288.654774 
L 187.14858 288.899155 
L 189.966761 288.774893 
L 192.784943 288.779035 
L 195.603125 288.157729 
L 198.421307 288.737615 
L 201.239489 288.861876 
L 204.05767 288.692053 
L 206.875852 288.915723 
L 209.694034 288.886729 
L 212.512216 288.874302 
L 215.330398 288.981995 
L 218.14858 288.940575 
L 220.966761 288.903297 
L 223.784943 288.766609 
L 226.603125 288.803888 
L 229.421307 288.841166 
L 232.239489 288.915723 
L 235.05767 288.961285 
L 237.875852 288.895013 
L 240.694034 288.82874 
L 243.512216 289.023416 
L 246.330398 288.944717 
L 249.14858 288.915723 
L 251.966761 289.023416 
L 254.784943 288.981995 
L 257.603125 289.07312 
L 260.421307 289.015132 
L 263.239489 289.035842 
L 266.05767 288.907439 
L 268.875852 289.035842 
L 271.694034 288.919865 
L 274.512216 288.903297 
L 277.330398 289.07312 
L 280.14858 289.0317 
L 282.966761 288.977853 
L 285.784943 288.890871 
L 288.603125 289.089688 
L 291.421307 289.015132 
L 294.239489 288.99028 
L 297.05767 289.135251 
L 299.875852 289.027558 
L 302.694034 289.135251 
L 305.512216 288.994422 
L 308.330398 289.118683 
L 311.14858 289.168387 
L 313.966761 289.21395 
L 316.784943 289.164245 
L 319.603125 289.068978 
" style="fill:none;stroke:#e377c2;stroke-linecap:square;stroke-width:1.5;"/>
   </g>
   <g id="line2d_53">
    <path clip-path="url(#pcca43e8e19)" d="M 40.603125 237.976915 
L 43.421307 239.236095 
L 46.239489 244.658026 
L 49.05767 249.065156 
L 51.875852 251.090614 
L 54.694034 256.226743 
L 57.512216 259.213154 
L 60.330398 262.684184 
L 63.14858 265.272959 
L 65.966761 266.755809 
L 68.784943 268.3215 
L 71.603125 272.310285 
L 74.421307 273.291948 
L 77.239489 277.21446 
L 80.05767 277.860618 
L 82.875852 279.567139 
L 85.694034 281.17425 
L 88.512216 283.067162 
L 91.330398 283.613912 
L 94.14858 283.916281 
L 96.966761 284.690842 
L 99.784943 284.454746 
L 102.603125 284.674274 
L 105.421307 285.784341 
L 108.239489 286.480203 
L 111.05767 286.413931 
L 113.875852 286.496771 
L 116.694034 286.409789 
L 119.512216 286.521624 
L 122.330398 286.633459 
L 125.14858 286.931686 
L 127.966761 287.134646 
L 130.784943 287.482577 
L 133.603125 287.573702 
L 136.421307 287.83465 
L 139.239489 288.095599 
L 142.05767 288.228144 
L 144.875852 288.000332 
L 147.694034 288.244712 
L 150.512216 288.352405 
L 153.330398 288.190866 
L 156.14858 288.074889 
L 158.966761 288.087315 
L 161.784943 288.244712 
L 164.603125 288.277849 
L 167.421307 288.319269 
L 170.239489 288.306843 
L 173.05767 288.327553 
L 175.875852 288.286133 
L 178.694034 288.344121 
L 181.512216 288.095599 
L 184.330398 288.3814 
L 187.14858 288.228144 
L 189.966761 288.286133 
L 192.784943 288.360689 
L 195.603125 288.310985 
L 198.421307 288.480809 
L 201.239489 288.953001 
L 204.05767 288.82874 
L 206.875852 288.940575 
L 209.694034 289.085546 
L 212.512216 288.961285 
L 215.330398 288.907439 
L 218.14858 288.986137 
L 220.966761 288.948859 
L 223.784943 288.853592 
L 226.603125 288.878444 
L 229.421307 289.039984 
L 232.239489 289.01099 
L 235.05767 288.911581 
L 237.875852 288.994422 
L 240.694034 289.060694 
L 243.512216 289.068978 
L 246.330398 289.048268 
L 249.14858 289.07312 
L 251.966761 289.048268 
L 254.784943 288.907439 
L 257.603125 288.961285 
L 260.421307 289.143535 
L 263.239489 289.056552 
L 266.05767 288.965427 
L 268.875852 289.0317 
L 271.694034 289.168387 
L 274.512216 289.102115 
L 277.330398 288.973711 
L 280.14858 289.0317 
L 282.966761 289.081404 
L 285.784943 289.106257 
L 288.603125 289.027558 
L 291.421307 289.226376 
L 294.239489 289.160103 
L 297.05767 289.015132 
L 299.875852 289.039984 
L 302.694034 289.143535 
L 305.512216 289.168387 
L 308.330398 289.135251 
L 311.14858 289.143535 
L 313.966761 288.986137 
L 316.784943 289.093831 
L 319.603125 289.118683 
" style="fill:none;stroke:#7f7f7f;stroke-linecap:square;stroke-width:1.5;"/>
   </g>
   <g id="line2d_54">
    <path clip-path="url(#pcca43e8e19)" d="M 40.603125 236.415366 
L 43.421307 236.742587 
L 46.239489 238.101176 
L 49.05767 238.02662 
L 51.875852 240.97161 
L 54.694034 242.599432 
L 57.512216 247.105971 
L 60.330398 246.637921 
L 63.14858 250.568717 
L 65.966761 254.532649 
L 68.784943 258.612558 
L 71.603125 259.991858 
L 74.421307 263.056967 
L 77.239489 265.720299 
L 80.05767 269.307306 
L 82.875852 273.441061 
L 85.694034 273.631595 
L 88.512216 277.39671 
L 91.330398 277.023926 
L 94.14858 277.757067 
L 96.966761 279.939922 
L 99.784943 280.283712 
L 102.603125 282.019226 
L 105.421307 282.172482 
L 108.239489 283.377815 
L 111.05767 284.46303 
L 113.875852 285.374279 
L 116.694034 285.660079 
L 119.512216 285.56067 
L 122.330398 285.979016 
L 125.14858 286.032863 
L 127.966761 286.567186 
L 130.784943 286.695589 
L 133.603125 286.790856 
L 136.421307 287.627548 
L 139.239489 287.552992 
L 142.05767 287.987906 
L 144.875852 287.743525 
L 147.694034 288.120451 
L 150.512216 288.277849 
L 153.330398 288.936433 
L 156.14858 288.588502 
L 158.966761 288.812172 
L 161.784943 288.957143 
L 164.603125 288.907439 
L 167.421307 288.78732 
L 170.239489 288.928149 
L 173.05767 288.907439 
L 175.875852 288.928149 
L 178.694034 289.019274 
L 181.512216 289.023416 
L 184.330398 288.994422 
L 187.14858 289.035842 
L 189.966761 289.039984 
L 192.784943 288.932291 
L 195.603125 289.023416 
L 198.421307 288.890871 
L 201.239489 289.172529 
L 204.05767 289.097973 
L 206.875852 289.089688 
L 209.694034 289.147677 
L 212.512216 289.044126 
L 215.330398 289.155961 
L 218.14858 289.097973 
L 220.966761 289.114541 
L 223.784943 289.155961 
L 226.603125 289.048268 
L 229.421307 289.205666 
L 232.239489 289.093831 
L 235.05767 289.064836 
L 237.875852 289.110399 
L 240.694034 289.201524 
L 243.512216 289.122825 
L 246.330398 289.122825 
L 249.14858 289.126967 
L 251.966761 289.147677 
L 254.784943 289.039984 
L 257.603125 289.288506 
L 260.421307 289.23466 
L 263.239489 289.160103 
L 266.05767 289.147677 
L 268.875852 289.147677 
L 271.694034 289.209808 
L 274.512216 289.209808 
L 277.330398 289.209808 
L 280.14858 289.309217 
L 282.966761 289.172529 
L 285.784943 289.346495 
L 288.603125 289.143535 
L 291.421307 289.27608 
L 294.239489 289.45833 
L 297.05767 289.27608 
L 299.875852 289.176671 
L 302.694034 289.238802 
L 305.512216 289.201524 
L 308.330398 289.189097 
L 311.14858 289.114541 
L 313.966761 289.317501 
L 316.784943 289.251228 
L 319.603125 289.300933 
" style="fill:none;stroke:#bcbd22;stroke-linecap:square;stroke-width:1.5;"/>
   </g>
   <g id="line2d_55">
    <path clip-path="url(#pcca43e8e19)" d="M 40.603125 290.390289 
L 319.603125 290.390289 
" style="fill:none;stroke:#808080;stroke-dasharray:5.55,2.4;stroke-dashoffset:0;stroke-width:1.5;"/>
   </g>
   <g id="patch_9">
    <path d="M 40.603125 294.118125 
L 40.603125 232.345398 
" style="fill:none;stroke:#000000;stroke-linecap:square;stroke-linejoin:miter;stroke-width:0.8;"/>
   </g>
   <g id="patch_10">
    <path d="M 40.603125 294.118125 
L 319.603125 294.118125 
" style="fill:none;stroke:#000000;stroke-linecap:square;stroke-linejoin:miter;stroke-width:0.8;"/>
   </g>
   <g id="text_30">
    <!-- Labyrinth -->
    <g transform="translate(151.632188 226.345398)scale(0.12 -0.12)">
     <defs>
      <path d="M 3116 1747 
Q 3116 2381 2855 2742 
Q 2594 3103 2138 3103 
Q 1681 3103 1420 2742 
Q 1159 2381 1159 1747 
Q 1159 1113 1420 752 
Q 1681 391 2138 391 
Q 2594 391 2855 752 
Q 3116 1113 3116 1747 
z
M 1159 2969 
Q 1341 3281 1617 3432 
Q 1894 3584 2278 3584 
Q 2916 3584 3314 3078 
Q 3713 2572 3713 1747 
Q 3713 922 3314 415 
Q 2916 -91 2278 -91 
Q 1894 -91 1617 61 
Q 1341 213 1159 525 
L 1159 0 
L 581 0 
L 581 4863 
L 1159 4863 
L 1159 2969 
z
" id="DejaVuSans-62" transform="scale(0.015625)"/>
      <path d="M 3513 2113 
L 3513 0 
L 2938 0 
L 2938 2094 
Q 2938 2591 2744 2837 
Q 2550 3084 2163 3084 
Q 1697 3084 1428 2787 
Q 1159 2491 1159 1978 
L 1159 0 
L 581 0 
L 581 4863 
L 1159 4863 
L 1159 2956 
Q 1366 3272 1645 3428 
Q 1925 3584 2291 3584 
Q 2894 3584 3203 3211 
Q 3513 2838 3513 2113 
z
" id="DejaVuSans-68" transform="scale(0.015625)"/>
     </defs>
     <use xlink:href="#DejaVuSans-4c"/>
     <use x="55.712891" xlink:href="#DejaVuSans-61"/>
     <use x="116.992188" xlink:href="#DejaVuSans-62"/>
     <use x="180.46875" xlink:href="#DejaVuSans-79"/>
     <use x="239.648438" xlink:href="#DejaVuSans-72"/>
     <use x="280.761719" xlink:href="#DejaVuSans-69"/>
     <use x="308.544922" xlink:href="#DejaVuSans-6e"/>
     <use x="371.923828" xlink:href="#DejaVuSans-74"/>
     <use x="411.132812" xlink:href="#DejaVuSans-68"/>
    </g>
   </g>
   <g id="legend_1">
    <g id="patch_11">
     <path d="M 28.345313 365.449375 
L 331.860937 365.449375 
Q 333.860937 365.449375 333.860937 363.449375 
L 333.860937 335.093125 
Q 333.860937 333.093125 331.860937 333.093125 
L 28.345313 333.093125 
Q 26.345313 333.093125 26.345313 335.093125 
L 26.345313 363.449375 
Q 26.345313 365.449375 28.345313 365.449375 
z
" style="fill:#ffffff;opacity:0.8;stroke:#cccccc;stroke-linejoin:miter;"/>
    </g>
    <g id="line2d_56">
     <path d="M 30.345313 341.191562 
L 50.345313 341.191562 
" style="fill:none;stroke:#1f77b4;stroke-linecap:square;stroke-width:1.5;"/>
    </g>
    <g id="line2d_57"/>
    <g id="text_31">
     <!-- 0.1 -->
     <g transform="translate(58.345313 344.691562)scale(0.1 -0.1)">
      <defs>
       <path d="M 684 794 
L 1344 794 
L 1344 0 
L 684 0 
L 684 794 
z
" id="DejaVuSans-2e" transform="scale(0.015625)"/>
      </defs>
      <use xlink:href="#DejaVuSans-30"/>
      <use x="63.623047" xlink:href="#DejaVuSans-2e"/>
      <use x="95.410156" xlink:href="#DejaVuSans-31"/>
     </g>
    </g>
    <g id="line2d_58">
     <path d="M 30.345313 355.869687 
L 50.345313 355.869687 
" style="fill:none;stroke:#ff7f0e;stroke-linecap:square;stroke-width:1.5;"/>
    </g>
    <g id="line2d_59"/>
    <g id="text_32">
     <!-- 0.2 -->
     <g transform="translate(58.345313 359.369687)scale(0.1 -0.1)">
      <use xlink:href="#DejaVuSans-30"/>
      <use x="63.623047" xlink:href="#DejaVuSans-2e"/>
      <use x="95.410156" xlink:href="#DejaVuSans-32"/>
     </g>
    </g>
    <g id="line2d_60">
     <path d="M 94.248438 341.191562 
L 114.248438 341.191562 
" style="fill:none;stroke:#2ca02c;stroke-linecap:square;stroke-width:1.5;"/>
    </g>
    <g id="line2d_61"/>
    <g id="text_33">
     <!-- 0.3 -->
     <g transform="translate(122.248438 344.691562)scale(0.1 -0.1)">
      <defs>
       <path d="M 2597 2516 
Q 3050 2419 3304 2112 
Q 3559 1806 3559 1356 
Q 3559 666 3084 287 
Q 2609 -91 1734 -91 
Q 1441 -91 1130 -33 
Q 819 25 488 141 
L 488 750 
Q 750 597 1062 519 
Q 1375 441 1716 441 
Q 2309 441 2620 675 
Q 2931 909 2931 1356 
Q 2931 1769 2642 2001 
Q 2353 2234 1838 2234 
L 1294 2234 
L 1294 2753 
L 1863 2753 
Q 2328 2753 2575 2939 
Q 2822 3125 2822 3475 
Q 2822 3834 2567 4026 
Q 2313 4219 1838 4219 
Q 1578 4219 1281 4162 
Q 984 4106 628 3988 
L 628 4550 
Q 988 4650 1302 4700 
Q 1616 4750 1894 4750 
Q 2613 4750 3031 4423 
Q 3450 4097 3450 3541 
Q 3450 3153 3228 2886 
Q 3006 2619 2597 2516 
z
" id="DejaVuSans-33" transform="scale(0.015625)"/>
      </defs>
      <use xlink:href="#DejaVuSans-30"/>
      <use x="63.623047" xlink:href="#DejaVuSans-2e"/>
      <use x="95.410156" xlink:href="#DejaVuSans-33"/>
     </g>
    </g>
    <g id="line2d_62">
     <path d="M 94.248438 355.869687 
L 114.248438 355.869687 
" style="fill:none;stroke:#d62728;stroke-linecap:square;stroke-width:1.5;"/>
    </g>
    <g id="line2d_63"/>
    <g id="text_34">
     <!-- 0.4 -->
     <g transform="translate(122.248438 359.369687)scale(0.1 -0.1)">
      <use xlink:href="#DejaVuSans-30"/>
      <use x="63.623047" xlink:href="#DejaVuSans-2e"/>
      <use x="95.410156" xlink:href="#DejaVuSans-34"/>
     </g>
    </g>
    <g id="line2d_64">
     <path d="M 158.151563 341.191562 
L 178.151563 341.191562 
" style="fill:none;stroke:#9467bd;stroke-linecap:square;stroke-width:1.5;"/>
    </g>
    <g id="line2d_65"/>
    <g id="text_35">
     <!-- 0.5 -->
     <g transform="translate(186.151563 344.691562)scale(0.1 -0.1)">
      <use xlink:href="#DejaVuSans-30"/>
      <use x="63.623047" xlink:href="#DejaVuSans-2e"/>
      <use x="95.410156" xlink:href="#DejaVuSans-35"/>
     </g>
    </g>
    <g id="line2d_66">
     <path d="M 158.151563 355.869687 
L 178.151563 355.869687 
" style="fill:none;stroke:#8c564b;stroke-linecap:square;stroke-width:1.5;"/>
    </g>
    <g id="line2d_67"/>
    <g id="text_36">
     <!-- 0.6 -->
     <g transform="translate(186.151563 359.369687)scale(0.1 -0.1)">
      <use xlink:href="#DejaVuSans-30"/>
      <use x="63.623047" xlink:href="#DejaVuSans-2e"/>
      <use x="95.410156" xlink:href="#DejaVuSans-36"/>
     </g>
    </g>
    <g id="line2d_68">
     <path d="M 222.054688 341.191562 
L 242.054688 341.191562 
" style="fill:none;stroke:#e377c2;stroke-linecap:square;stroke-width:1.5;"/>
    </g>
    <g id="line2d_69"/>
    <g id="text_37">
     <!-- 0.7 -->
     <g transform="translate(250.054688 344.691562)scale(0.1 -0.1)">
      <defs>
       <path d="M 525 4666 
L 3525 4666 
L 3525 4397 
L 1831 0 
L 1172 0 
L 2766 4134 
L 525 4134 
L 525 4666 
z
" id="DejaVuSans-37" transform="scale(0.015625)"/>
      </defs>
      <use xlink:href="#DejaVuSans-30"/>
      <use x="63.623047" xlink:href="#DejaVuSans-2e"/>
      <use x="95.410156" xlink:href="#DejaVuSans-37"/>
     </g>
    </g>
    <g id="line2d_70">
     <path d="M 222.054688 355.869687 
L 242.054688 355.869687 
" style="fill:none;stroke:#7f7f7f;stroke-linecap:square;stroke-width:1.5;"/>
    </g>
    <g id="line2d_71"/>
    <g id="text_38">
     <!-- 0.8 -->
     <g transform="translate(250.054688 359.369687)scale(0.1 -0.1)">
      <use xlink:href="#DejaVuSans-30"/>
      <use x="63.623047" xlink:href="#DejaVuSans-2e"/>
      <use x="95.410156" xlink:href="#DejaVuSans-38"/>
     </g>
    </g>
    <g id="line2d_72">
     <path d="M 285.957813 341.191562 
L 305.957813 341.191562 
" style="fill:none;stroke:#bcbd22;stroke-linecap:square;stroke-width:1.5;"/>
    </g>
    <g id="line2d_73"/>
    <g id="text_39">
     <!-- 0.9 -->
     <g transform="translate(313.957813 344.691562)scale(0.1 -0.1)">
      <defs>
       <path d="M 703 97 
L 703 672 
Q 941 559 1184 500 
Q 1428 441 1663 441 
Q 2288 441 2617 861 
Q 2947 1281 2994 2138 
Q 2813 1869 2534 1725 
Q 2256 1581 1919 1581 
Q 1219 1581 811 2004 
Q 403 2428 403 3163 
Q 403 3881 828 4315 
Q 1253 4750 1959 4750 
Q 2769 4750 3195 4129 
Q 3622 3509 3622 2328 
Q 3622 1225 3098 567 
Q 2575 -91 1691 -91 
Q 1453 -91 1209 -44 
Q 966 3 703 97 
z
M 1959 2075 
Q 2384 2075 2632 2365 
Q 2881 2656 2881 3163 
Q 2881 3666 2632 3958 
Q 2384 4250 1959 4250 
Q 1534 4250 1286 3958 
Q 1038 3666 1038 3163 
Q 1038 2656 1286 2365 
Q 1534 2075 1959 2075 
z
" id="DejaVuSans-39" transform="scale(0.015625)"/>
      </defs>
      <use xlink:href="#DejaVuSans-30"/>
      <use x="63.623047" xlink:href="#DejaVuSans-2e"/>
      <use x="95.410156" xlink:href="#DejaVuSans-39"/>
     </g>
    </g>
   </g>
  </g>
 </g>
 <defs>
  <clipPath id="p0e52acfddd">
   <rect height="61.772727" width="279" x="40.603125" y="22.318125"/>
  </clipPath>
  <clipPath id="p178233e51c">
   <rect height="61.772727" width="279" x="40.603125" y="127.331761"/>
  </clipPath>
  <clipPath id="pcca43e8e19">
   <rect height="61.772727" width="279" x="40.603125" y="232.345398"/>
  </clipPath>
 </defs>
</svg>
