<?xml version="1.0" encoding="utf-8" standalone="no"?>
<!DOCTYPE svg PUBLIC "-//W3C//DTD SVG 1.1//EN"
  "http://www.w3.org/Graphics/SVG/1.1/DTD/svg11.dtd">
<svg height="372.649375pt" version="1.1" viewBox="0 0 341.060937 372.649375" width="341.060937pt" xmlns="http://www.w3.org/2000/svg" xmlns:xlink="http://www.w3.org/1999/xlink">
 <metadata>
  <rdf:RDF xmlns:cc="http://creativecommons.org/ns#" xmlns:dc="http://purl.org/dc/elements/1.1/" xmlns:rdf="http://www.w3.org/1999/02/22-rdf-syntax-ns#">
   <cc:Work>
    <dc:type rdf:resource="http://purl.org/dc/dcmitype/StillImage"/>
    <dc:date>2022-06-19T01:43:06.420507</dc:date>
    <dc:format>image/svg+xml</dc:format>
    <dc:creator>
     <cc:Agent>
      <dc:title>Matplotlib v3.4.3, https://matplotlib.org/</dc:title>
     </cc:Agent>
    </dc:creator>
   </cc:Work>
  </rdf:RDF>
 </metadata>
 <defs>
  <style type="text/css">*{stroke-linecap:butt;stroke-linejoin:round;}</style>
 </defs>
 <g id="figure_1">
  <g id="patch_1">
   <path d="M 0 372.649375 
L 341.060937 372.649375 
L 341.060937 0 
L 0 0 
z
" style="fill:#ffffff;"/>
  </g>
  <g id="axes_1">
   <g id="patch_2">
    <path d="M 40.603125 84.090852 
L 319.603125 84.090852 
L 319.603125 22.318125 
L 40.603125 22.318125 
z
" style="fill:#ffffff;"/>
   </g>
   <g id="matplotlib.axis_1">
    <g id="xtick_1">
     <g id="line2d_1">
      <defs>
       <path d="M 0 0 
L 0 3.5 
" id="m54f286892b" style="stroke:#000000;stroke-width:0.8;"/>
      </defs>
      <g>
       <use style="stroke:#000000;stroke-width:0.8;" x="40.603125" xlink:href="#m54f286892b" y="84.090852"/>
      </g>
     </g>
     <g id="text_1">
      <!-- 1 -->
      <g transform="translate(37.421875 98.68929)scale(0.1 -0.1)">
       <defs>
        <path d="M 794 531 
L 1825 531 
L 1825 4091 
L 703 3866 
L 703 4441 
L 1819 4666 
L 2450 4666 
L 2450 531 
L 3481 531 
L 3481 0 
L 794 0 
L 794 531 
z
" id="DejaVuSans-31" transform="scale(0.015625)"/>
       </defs>
       <use xlink:href="#DejaVuSans-31"/>
      </g>
     </g>
    </g>
    <g id="xtick_2">
     <g id="line2d_2">
      <g>
       <use style="stroke:#000000;stroke-width:0.8;" x="99.339967" xlink:href="#m54f286892b" y="84.090852"/>
      </g>
     </g>
     <g id="text_2">
      <!-- 5 -->
      <g transform="translate(96.158717 98.68929)scale(0.1 -0.1)">
       <defs>
        <path d="M 691 4666 
L 3169 4666 
L 3169 4134 
L 1269 4134 
L 1269 2991 
Q 1406 3038 1543 3061 
Q 1681 3084 1819 3084 
Q 2600 3084 3056 2656 
Q 3513 2228 3513 1497 
Q 3513 744 3044 326 
Q 2575 -91 1722 -91 
Q 1428 -91 1123 -41 
Q 819 9 494 109 
L 494 744 
Q 775 591 1075 516 
Q 1375 441 1709 441 
Q 2250 441 2565 725 
Q 2881 1009 2881 1497 
Q 2881 1984 2565 2268 
Q 2250 2553 1709 2553 
Q 1456 2553 1204 2497 
Q 953 2441 691 2322 
L 691 4666 
z
" id="DejaVuSans-35" transform="scale(0.015625)"/>
       </defs>
       <use xlink:href="#DejaVuSans-35"/>
      </g>
     </g>
    </g>
    <g id="xtick_3">
     <g id="line2d_3">
      <g>
       <use style="stroke:#000000;stroke-width:0.8;" x="172.76102" xlink:href="#m54f286892b" y="84.090852"/>
      </g>
     </g>
     <g id="text_3">
      <!-- 10 -->
      <g transform="translate(166.39852 98.68929)scale(0.1 -0.1)">
       <defs>
        <path d="M 2034 4250 
Q 1547 4250 1301 3770 
Q 1056 3291 1056 2328 
Q 1056 1369 1301 889 
Q 1547 409 2034 409 
Q 2525 409 2770 889 
Q 3016 1369 3016 2328 
Q 3016 3291 2770 3770 
Q 2525 4250 2034 4250 
z
M 2034 4750 
Q 2819 4750 3233 4129 
Q 3647 3509 3647 2328 
Q 3647 1150 3233 529 
Q 2819 -91 2034 -91 
Q 1250 -91 836 529 
Q 422 1150 422 2328 
Q 422 3509 836 4129 
Q 1250 4750 2034 4750 
z
" id="DejaVuSans-30" transform="scale(0.015625)"/>
       </defs>
       <use xlink:href="#DejaVuSans-31"/>
       <use x="63.623047" xlink:href="#DejaVuSans-30"/>
      </g>
     </g>
    </g>
    <g id="xtick_4">
     <g id="line2d_4">
      <g>
       <use style="stroke:#000000;stroke-width:0.8;" x="246.182072" xlink:href="#m54f286892b" y="84.090852"/>
      </g>
     </g>
     <g id="text_4">
      <!-- 15 -->
      <g transform="translate(239.819572 98.68929)scale(0.1 -0.1)">
       <use xlink:href="#DejaVuSans-31"/>
       <use x="63.623047" xlink:href="#DejaVuSans-35"/>
      </g>
     </g>
    </g>
    <g id="xtick_5">
     <g id="line2d_5">
      <g>
       <use style="stroke:#000000;stroke-width:0.8;" x="319.603125" xlink:href="#m54f286892b" y="84.090852"/>
      </g>
     </g>
     <g id="text_5">
      <!-- 20 -->
      <g transform="translate(313.240625 98.68929)scale(0.1 -0.1)">
       <defs>
        <path d="M 1228 531 
L 3431 531 
L 3431 0 
L 469 0 
L 469 531 
Q 828 903 1448 1529 
Q 2069 2156 2228 2338 
Q 2531 2678 2651 2914 
Q 2772 3150 2772 3378 
Q 2772 3750 2511 3984 
Q 2250 4219 1831 4219 
Q 1534 4219 1204 4116 
Q 875 4013 500 3803 
L 500 4441 
Q 881 4594 1212 4672 
Q 1544 4750 1819 4750 
Q 2544 4750 2975 4387 
Q 3406 4025 3406 3419 
Q 3406 3131 3298 2873 
Q 3191 2616 2906 2266 
Q 2828 2175 2409 1742 
Q 1991 1309 1228 531 
z
" id="DejaVuSans-32" transform="scale(0.015625)"/>
       </defs>
       <use xlink:href="#DejaVuSans-32"/>
       <use x="63.623047" xlink:href="#DejaVuSans-30"/>
      </g>
     </g>
    </g>
   </g>
   <g id="matplotlib.axis_2">
    <g id="ytick_1">
     <g id="line2d_6">
      <defs>
       <path d="M 0 0 
L -3.5 0 
" id="m27a78b70da" style="stroke:#000000;stroke-width:0.8;"/>
      </defs>
      <g>
       <use style="stroke:#000000;stroke-width:0.8;" x="40.603125" xlink:href="#m27a78b70da" y="84.090852"/>
      </g>
     </g>
     <g id="text_6">
      <!-- 0 -->
      <g transform="translate(27.240625 87.890071)scale(0.1 -0.1)">
       <use xlink:href="#DejaVuSans-30"/>
      </g>
     </g>
    </g>
    <g id="ytick_2">
     <g id="line2d_7">
      <g>
       <use style="stroke:#000000;stroke-width:0.8;" x="40.603125" xlink:href="#m27a78b70da" y="62.253156"/>
      </g>
     </g>
     <g id="text_7">
      <!-- 25 -->
      <g transform="translate(20.878125 66.052375)scale(0.1 -0.1)">
       <use xlink:href="#DejaVuSans-32"/>
       <use x="63.623047" xlink:href="#DejaVuSans-35"/>
      </g>
     </g>
    </g>
    <g id="ytick_3">
     <g id="line2d_8">
      <g>
       <use style="stroke:#000000;stroke-width:0.8;" x="40.603125" xlink:href="#m27a78b70da" y="40.41546"/>
      </g>
     </g>
     <g id="text_8">
      <!-- 50 -->
      <g transform="translate(20.878125 44.214679)scale(0.1 -0.1)">
       <use xlink:href="#DejaVuSans-35"/>
       <use x="63.623047" xlink:href="#DejaVuSans-30"/>
      </g>
     </g>
    </g>
   </g>
   <g id="line2d_9">
    <path clip-path="url(#p2f80e527e3)" d="M 40.603125 27.094466 
L 55.287336 37.235892 
L 69.971546 52.941563 
L 84.655757 63.283896 
L 99.339967 67.336972 
L 114.024178 71.355108 
L 128.708388 74.255154 
L 143.392599 75.897349 
L 158.076809 76.01964 
L 172.76102 76.386513 
L 187.44523 76.508804 
L 202.129441 76.194341 
L 216.813651 76.456394 
L 231.497862 76.141931 
L 246.182072 76.403983 
L 260.866283 76.316633 
L 275.550493 76.369043 
L 290.234704 76.316633 
L 304.918914 76.491334 
L 319.603125 76.421453 
" style="fill:none;stroke:#1f77b4;stroke-linecap:square;stroke-width:1.5;"/>
   </g>
   <g id="line2d_10">
    <path clip-path="url(#p2f80e527e3)" d="M 40.603125 28.430933 
L 55.287336 46.687247 
L 69.971546 58.357311 
L 84.655757 65.013441 
L 99.339967 68.725849 
L 114.024178 74.359975 
L 128.708388 75.565416 
L 143.392599 76.316633 
L 158.076809 76.246752 
L 172.76102 76.211812 
L 187.44523 76.421453 
L 202.129441 76.194341 
L 216.813651 76.421453 
L 231.497862 76.281692 
L 246.182072 76.456394 
L 260.866283 76.421453 
L 275.550493 76.473864 
L 290.234704 76.281692 
L 304.918914 76.491334 
L 319.603125 76.08952 
" style="fill:none;stroke:#ff7f0e;stroke-linecap:square;stroke-width:1.5;"/>
   </g>
   <g id="line2d_11">
    <path clip-path="url(#p2f80e527e3)" d="M 40.603125 30.88549 
L 55.287336 42.241092 
L 69.971546 54.120798 
L 84.655757 68.402652 
L 99.339967 69.29363 
L 114.024178 72.525609 
L 128.708388 73.23315 
L 143.392599 74.980166 
L 158.076809 74.613292 
L 172.76102 76.03711 
L 187.44523 75.914819 
L 202.129441 76.456394 
L 216.813651 76.316633 
L 231.497862 76.473864 
L 246.182072 76.508804 
L 260.866283 76.229282 
L 275.550493 76.211812 
L 290.234704 76.473864 
L 304.918914 76.403983 
L 319.603125 76.369043 
" style="fill:none;stroke:#2ca02c;stroke-linecap:square;stroke-width:1.5;"/>
   </g>
   <g id="line2d_12">
    <path clip-path="url(#p2f80e527e3)" d="M 40.603125 27.644776 
L 55.287336 42.249827 
L 69.971546 56.854878 
L 84.655757 60.672107 
L 99.339967 70.778593 
L 114.024178 73.678639 
L 128.708388 74.517206 
L 143.392599 75.565416 
L 158.076809 76.316633 
L 172.76102 76.176871 
L 187.44523 76.246752 
L 202.129441 76.229282 
L 216.813651 76.386513 
L 231.497862 76.438924 
L 246.182072 76.508804 
L 260.866283 76.159401 
L 275.550493 76.281692 
L 290.234704 76.351573 
L 304.918914 76.299162 
L 319.603125 76.316633 
" style="fill:none;stroke:#d62728;stroke-linecap:square;stroke-width:1.5;"/>
   </g>
   <g id="line2d_13">
    <path clip-path="url(#p2f80e527e3)" d="M 40.603125 25.854085 
L 55.287336 40.41546 
L 69.971546 50.42586 
L 84.655757 62.296832 
L 99.339967 70.149667 
L 114.024178 72.621694 
L 128.708388 74.185273 
L 143.392599 75.181072 
L 158.076809 76.369043 
L 172.76102 76.438924 
L 187.44523 76.421453 
L 202.129441 76.526274 
L 216.813651 76.543745 
L 231.497862 76.281692 
L 246.182072 76.456394 
L 260.866283 76.369043 
L 275.550493 76.08952 
L 290.234704 76.281692 
L 304.918914 76.194341 
L 319.603125 76.211812 
" style="fill:none;stroke:#9467bd;stroke-linecap:square;stroke-width:1.5;"/>
   </g>
   <g id="line2d_14">
    <path clip-path="url(#p2f80e527e3)" d="M 40.603125 24.901961 
L 55.287336 41.227823 
L 69.971546 56.53168 
L 84.655757 66.04418 
L 99.339967 67.834871 
L 114.024178 72.944892 
L 128.708388 74.674438 
L 143.392599 75.076251 
L 158.076809 76.00217 
L 172.76102 76.229282 
L 187.44523 76.246752 
L 202.129441 76.421453 
L 216.813651 76.07205 
L 231.497862 76.351573 
L 246.182072 76.176871 
L 260.866283 76.229282 
L 275.550493 76.246752 
L 290.234704 76.07205 
L 304.918914 76.543745 
L 319.603125 76.176871 
" style="fill:none;stroke:#8c564b;stroke-linecap:square;stroke-width:1.5;"/>
   </g>
   <g id="line2d_15">
    <path clip-path="url(#p2f80e527e3)" d="M 40.603125 34.309641 
L 55.287336 43.289301 
L 69.971546 60.523611 
L 84.655757 65.161937 
L 99.339967 68.76079 
L 114.024178 73.626228 
L 128.708388 75.163602 
L 143.392599 76.194341 
L 158.076809 76.211812 
L 172.76102 76.526274 
L 187.44523 76.316633 
L 202.129441 76.264222 
L 216.813651 76.299162 
L 231.497862 76.299162 
L 246.182072 76.403983 
L 260.866283 76.438924 
L 275.550493 76.421453 
L 290.234704 76.141931 
L 304.918914 76.403983 
L 319.603125 76.176871 
" style="fill:none;stroke:#e377c2;stroke-linecap:square;stroke-width:1.5;"/>
   </g>
   <g id="line2d_16">
    <path clip-path="url(#p2f80e527e3)" d="M 40.603125 31.45327 
L 55.287336 38.755795 
L 69.971546 53.675309 
L 84.655757 61.510675 
L 99.339967 68.655969 
L 114.024178 73.206945 
L 128.708388 74.499736 
L 143.392599 76.03711 
L 158.076809 76.334103 
L 172.76102 76.194341 
L 187.44523 76.421453 
L 202.129441 76.456394 
L 216.813651 76.578685 
L 231.497862 76.351573 
L 246.182072 76.386513 
L 260.866283 76.403983 
L 275.550493 76.299162 
L 290.234704 76.246752 
L 304.918914 76.473864 
L 319.603125 76.403983 
" style="fill:none;stroke:#7f7f7f;stroke-linecap:square;stroke-width:1.5;"/>
   </g>
   <g id="line2d_17">
    <path clip-path="url(#p2f80e527e3)" d="M 40.603125 33.374987 
L 55.287336 42.04892 
L 69.971546 55.238888 
L 84.655757 63.642034 
L 99.339967 70.376779 
L 114.024178 72.543079 
L 128.708388 74.447326 
L 143.392599 75.390714 
L 158.076809 75.9847 
L 172.76102 76.281692 
L 187.44523 76.351573 
L 202.129441 76.473864 
L 216.813651 76.316633 
L 231.497862 76.561215 
L 246.182072 76.334103 
L 260.866283 76.299162 
L 275.550493 76.281692 
L 290.234704 76.281692 
L 304.918914 76.351573 
L 319.603125 76.141931 
" style="fill:none;stroke:#bcbd22;stroke-linecap:square;stroke-width:1.5;"/>
   </g>
   <g id="line2d_18">
    <path clip-path="url(#p2f80e527e3)" d="M 40.603125 76.229282 
L 319.603125 76.229282 
" style="fill:none;stroke:#808080;stroke-dasharray:5.55,2.4;stroke-dashoffset:0;stroke-width:1.5;"/>
   </g>
   <g id="patch_3">
    <path d="M 40.603125 84.090852 
L 40.603125 22.318125 
" style="fill:none;stroke:#000000;stroke-linecap:square;stroke-linejoin:miter;stroke-width:0.8;"/>
   </g>
   <g id="patch_4">
    <path d="M 40.603125 84.090852 
L 319.603125 84.090852 
" style="fill:none;stroke:#000000;stroke-linecap:square;stroke-linejoin:miter;stroke-width:0.8;"/>
   </g>
   <g id="text_9">
    <!-- Linear Track -->
    <g transform="translate(143.851875 16.318125)scale(0.12 -0.12)">
     <defs>
      <path d="M 628 4666 
L 1259 4666 
L 1259 531 
L 3531 531 
L 3531 0 
L 628 0 
L 628 4666 
z
" id="DejaVuSans-4c" transform="scale(0.015625)"/>
      <path d="M 603 3500 
L 1178 3500 
L 1178 0 
L 603 0 
L 603 3500 
z
M 603 4863 
L 1178 4863 
L 1178 4134 
L 603 4134 
L 603 4863 
z
" id="DejaVuSans-69" transform="scale(0.015625)"/>
      <path d="M 3513 2113 
L 3513 0 
L 2938 0 
L 2938 2094 
Q 2938 2591 2744 2837 
Q 2550 3084 2163 3084 
Q 1697 3084 1428 2787 
Q 1159 2491 1159 1978 
L 1159 0 
L 581 0 
L 581 3500 
L 1159 3500 
L 1159 2956 
Q 1366 3272 1645 3428 
Q 1925 3584 2291 3584 
Q 2894 3584 3203 3211 
Q 3513 2838 3513 2113 
z
" id="DejaVuSans-6e" transform="scale(0.015625)"/>
      <path d="M 3597 1894 
L 3597 1613 
L 953 1613 
Q 991 1019 1311 708 
Q 1631 397 2203 397 
Q 2534 397 2845 478 
Q 3156 559 3463 722 
L 3463 178 
Q 3153 47 2828 -22 
Q 2503 -91 2169 -91 
Q 1331 -91 842 396 
Q 353 884 353 1716 
Q 353 2575 817 3079 
Q 1281 3584 2069 3584 
Q 2775 3584 3186 3129 
Q 3597 2675 3597 1894 
z
M 3022 2063 
Q 3016 2534 2758 2815 
Q 2500 3097 2075 3097 
Q 1594 3097 1305 2825 
Q 1016 2553 972 2059 
L 3022 2063 
z
" id="DejaVuSans-65" transform="scale(0.015625)"/>
      <path d="M 2194 1759 
Q 1497 1759 1228 1600 
Q 959 1441 959 1056 
Q 959 750 1161 570 
Q 1363 391 1709 391 
Q 2188 391 2477 730 
Q 2766 1069 2766 1631 
L 2766 1759 
L 2194 1759 
z
M 3341 1997 
L 3341 0 
L 2766 0 
L 2766 531 
Q 2569 213 2275 61 
Q 1981 -91 1556 -91 
Q 1019 -91 701 211 
Q 384 513 384 1019 
Q 384 1609 779 1909 
Q 1175 2209 1959 2209 
L 2766 2209 
L 2766 2266 
Q 2766 2663 2505 2880 
Q 2244 3097 1772 3097 
Q 1472 3097 1187 3025 
Q 903 2953 641 2809 
L 641 3341 
Q 956 3463 1253 3523 
Q 1550 3584 1831 3584 
Q 2591 3584 2966 3190 
Q 3341 2797 3341 1997 
z
" id="DejaVuSans-61" transform="scale(0.015625)"/>
      <path d="M 2631 2963 
Q 2534 3019 2420 3045 
Q 2306 3072 2169 3072 
Q 1681 3072 1420 2755 
Q 1159 2438 1159 1844 
L 1159 0 
L 581 0 
L 581 3500 
L 1159 3500 
L 1159 2956 
Q 1341 3275 1631 3429 
Q 1922 3584 2338 3584 
Q 2397 3584 2469 3576 
Q 2541 3569 2628 3553 
L 2631 2963 
z
" id="DejaVuSans-72" transform="scale(0.015625)"/>
      <path id="DejaVuSans-20" transform="scale(0.015625)"/>
      <path d="M -19 4666 
L 3928 4666 
L 3928 4134 
L 2272 4134 
L 2272 0 
L 1638 0 
L 1638 4134 
L -19 4134 
L -19 4666 
z
" id="DejaVuSans-54" transform="scale(0.015625)"/>
      <path d="M 3122 3366 
L 3122 2828 
Q 2878 2963 2633 3030 
Q 2388 3097 2138 3097 
Q 1578 3097 1268 2742 
Q 959 2388 959 1747 
Q 959 1106 1268 751 
Q 1578 397 2138 397 
Q 2388 397 2633 464 
Q 2878 531 3122 666 
L 3122 134 
Q 2881 22 2623 -34 
Q 2366 -91 2075 -91 
Q 1284 -91 818 406 
Q 353 903 353 1747 
Q 353 2603 823 3093 
Q 1294 3584 2113 3584 
Q 2378 3584 2631 3529 
Q 2884 3475 3122 3366 
z
" id="DejaVuSans-63" transform="scale(0.015625)"/>
      <path d="M 581 4863 
L 1159 4863 
L 1159 1991 
L 2875 3500 
L 3609 3500 
L 1753 1863 
L 3688 0 
L 2938 0 
L 1159 1709 
L 1159 0 
L 581 0 
L 581 4863 
z
" id="DejaVuSans-6b" transform="scale(0.015625)"/>
     </defs>
     <use xlink:href="#DejaVuSans-4c"/>
     <use x="55.712891" xlink:href="#DejaVuSans-69"/>
     <use x="83.496094" xlink:href="#DejaVuSans-6e"/>
     <use x="146.875" xlink:href="#DejaVuSans-65"/>
     <use x="208.398438" xlink:href="#DejaVuSans-61"/>
     <use x="269.677734" xlink:href="#DejaVuSans-72"/>
     <use x="310.791016" xlink:href="#DejaVuSans-20"/>
     <use x="342.578125" xlink:href="#DejaVuSans-54"/>
     <use x="388.912109" xlink:href="#DejaVuSans-72"/>
     <use x="430.025391" xlink:href="#DejaVuSans-61"/>
     <use x="491.304688" xlink:href="#DejaVuSans-63"/>
     <use x="546.285156" xlink:href="#DejaVuSans-6b"/>
    </g>
   </g>
  </g>
  <g id="axes_2">
   <g id="patch_5">
    <path d="M 40.603125 189.104489 
L 319.603125 189.104489 
L 319.603125 127.331761 
L 40.603125 127.331761 
z
" style="fill:#ffffff;"/>
   </g>
   <g id="matplotlib.axis_3">
    <g id="xtick_6">
     <g id="line2d_19">
      <g>
       <use style="stroke:#000000;stroke-width:0.8;" x="40.603125" xlink:href="#m54f286892b" y="189.104489"/>
      </g>
     </g>
     <g id="text_10">
      <!-- 1 -->
      <g transform="translate(37.421875 203.702926)scale(0.1 -0.1)">
       <use xlink:href="#DejaVuSans-31"/>
      </g>
     </g>
    </g>
    <g id="xtick_7">
     <g id="line2d_20">
      <g>
       <use style="stroke:#000000;stroke-width:0.8;" x="94.14858" xlink:href="#m54f286892b" y="189.104489"/>
      </g>
     </g>
     <g id="text_11">
      <!-- 20 -->
      <g transform="translate(87.78608 203.702926)scale(0.1 -0.1)">
       <use xlink:href="#DejaVuSans-32"/>
       <use x="63.623047" xlink:href="#DejaVuSans-30"/>
      </g>
     </g>
    </g>
    <g id="xtick_8">
     <g id="line2d_21">
      <g>
       <use style="stroke:#000000;stroke-width:0.8;" x="150.512216" xlink:href="#m54f286892b" y="189.104489"/>
      </g>
     </g>
     <g id="text_12">
      <!-- 40 -->
      <g transform="translate(144.149716 203.702926)scale(0.1 -0.1)">
       <defs>
        <path d="M 2419 4116 
L 825 1625 
L 2419 1625 
L 2419 4116 
z
M 2253 4666 
L 3047 4666 
L 3047 1625 
L 3713 1625 
L 3713 1100 
L 3047 1100 
L 3047 0 
L 2419 0 
L 2419 1100 
L 313 1100 
L 313 1709 
L 2253 4666 
z
" id="DejaVuSans-34" transform="scale(0.015625)"/>
       </defs>
       <use xlink:href="#DejaVuSans-34"/>
       <use x="63.623047" xlink:href="#DejaVuSans-30"/>
      </g>
     </g>
    </g>
    <g id="xtick_9">
     <g id="line2d_22">
      <g>
       <use style="stroke:#000000;stroke-width:0.8;" x="206.875852" xlink:href="#m54f286892b" y="189.104489"/>
      </g>
     </g>
     <g id="text_13">
      <!-- 60 -->
      <g transform="translate(200.513352 203.702926)scale(0.1 -0.1)">
       <defs>
        <path d="M 2113 2584 
Q 1688 2584 1439 2293 
Q 1191 2003 1191 1497 
Q 1191 994 1439 701 
Q 1688 409 2113 409 
Q 2538 409 2786 701 
Q 3034 994 3034 1497 
Q 3034 2003 2786 2293 
Q 2538 2584 2113 2584 
z
M 3366 4563 
L 3366 3988 
Q 3128 4100 2886 4159 
Q 2644 4219 2406 4219 
Q 1781 4219 1451 3797 
Q 1122 3375 1075 2522 
Q 1259 2794 1537 2939 
Q 1816 3084 2150 3084 
Q 2853 3084 3261 2657 
Q 3669 2231 3669 1497 
Q 3669 778 3244 343 
Q 2819 -91 2113 -91 
Q 1303 -91 875 529 
Q 447 1150 447 2328 
Q 447 3434 972 4092 
Q 1497 4750 2381 4750 
Q 2619 4750 2861 4703 
Q 3103 4656 3366 4563 
z
" id="DejaVuSans-36" transform="scale(0.015625)"/>
       </defs>
       <use xlink:href="#DejaVuSans-36"/>
       <use x="63.623047" xlink:href="#DejaVuSans-30"/>
      </g>
     </g>
    </g>
    <g id="xtick_10">
     <g id="line2d_23">
      <g>
       <use style="stroke:#000000;stroke-width:0.8;" x="263.239489" xlink:href="#m54f286892b" y="189.104489"/>
      </g>
     </g>
     <g id="text_14">
      <!-- 80 -->
      <g transform="translate(256.876989 203.702926)scale(0.1 -0.1)">
       <defs>
        <path d="M 2034 2216 
Q 1584 2216 1326 1975 
Q 1069 1734 1069 1313 
Q 1069 891 1326 650 
Q 1584 409 2034 409 
Q 2484 409 2743 651 
Q 3003 894 3003 1313 
Q 3003 1734 2745 1975 
Q 2488 2216 2034 2216 
z
M 1403 2484 
Q 997 2584 770 2862 
Q 544 3141 544 3541 
Q 544 4100 942 4425 
Q 1341 4750 2034 4750 
Q 2731 4750 3128 4425 
Q 3525 4100 3525 3541 
Q 3525 3141 3298 2862 
Q 3072 2584 2669 2484 
Q 3125 2378 3379 2068 
Q 3634 1759 3634 1313 
Q 3634 634 3220 271 
Q 2806 -91 2034 -91 
Q 1263 -91 848 271 
Q 434 634 434 1313 
Q 434 1759 690 2068 
Q 947 2378 1403 2484 
z
M 1172 3481 
Q 1172 3119 1398 2916 
Q 1625 2713 2034 2713 
Q 2441 2713 2670 2916 
Q 2900 3119 2900 3481 
Q 2900 3844 2670 4047 
Q 2441 4250 2034 4250 
Q 1625 4250 1398 4047 
Q 1172 3844 1172 3481 
z
" id="DejaVuSans-38" transform="scale(0.015625)"/>
       </defs>
       <use xlink:href="#DejaVuSans-38"/>
       <use x="63.623047" xlink:href="#DejaVuSans-30"/>
      </g>
     </g>
    </g>
    <g id="xtick_11">
     <g id="line2d_24">
      <g>
       <use style="stroke:#000000;stroke-width:0.8;" x="319.603125" xlink:href="#m54f286892b" y="189.104489"/>
      </g>
     </g>
     <g id="text_15">
      <!-- 100 -->
      <g transform="translate(310.059375 203.702926)scale(0.1 -0.1)">
       <use xlink:href="#DejaVuSans-31"/>
       <use x="63.623047" xlink:href="#DejaVuSans-30"/>
       <use x="127.246094" xlink:href="#DejaVuSans-30"/>
      </g>
     </g>
    </g>
   </g>
   <g id="matplotlib.axis_4">
    <g id="ytick_4">
     <g id="line2d_25">
      <g>
       <use style="stroke:#000000;stroke-width:0.8;" x="40.603125" xlink:href="#m27a78b70da" y="189.104489"/>
      </g>
     </g>
     <g id="text_16">
      <!-- 0 -->
      <g transform="translate(27.240625 192.903707)scale(0.1 -0.1)">
       <use xlink:href="#DejaVuSans-30"/>
      </g>
     </g>
    </g>
    <g id="ytick_5">
     <g id="line2d_26">
      <g>
       <use style="stroke:#000000;stroke-width:0.8;" x="40.603125" xlink:href="#m27a78b70da" y="158.057613"/>
      </g>
     </g>
     <g id="text_17">
      <!-- 50 -->
      <g transform="translate(20.878125 161.856831)scale(0.1 -0.1)">
       <use xlink:href="#DejaVuSans-35"/>
       <use x="63.623047" xlink:href="#DejaVuSans-30"/>
      </g>
     </g>
    </g>
    <g id="text_18">
     <!-- Escape Latency [#steps] -->
     <g transform="translate(14.798438 220.500156)rotate(-90)scale(0.1 -0.1)">
      <defs>
       <path d="M 628 4666 
L 3578 4666 
L 3578 4134 
L 1259 4134 
L 1259 2753 
L 3481 2753 
L 3481 2222 
L 1259 2222 
L 1259 531 
L 3634 531 
L 3634 0 
L 628 0 
L 628 4666 
z
" id="DejaVuSans-45" transform="scale(0.015625)"/>
       <path d="M 2834 3397 
L 2834 2853 
Q 2591 2978 2328 3040 
Q 2066 3103 1784 3103 
Q 1356 3103 1142 2972 
Q 928 2841 928 2578 
Q 928 2378 1081 2264 
Q 1234 2150 1697 2047 
L 1894 2003 
Q 2506 1872 2764 1633 
Q 3022 1394 3022 966 
Q 3022 478 2636 193 
Q 2250 -91 1575 -91 
Q 1294 -91 989 -36 
Q 684 19 347 128 
L 347 722 
Q 666 556 975 473 
Q 1284 391 1588 391 
Q 1994 391 2212 530 
Q 2431 669 2431 922 
Q 2431 1156 2273 1281 
Q 2116 1406 1581 1522 
L 1381 1569 
Q 847 1681 609 1914 
Q 372 2147 372 2553 
Q 372 3047 722 3315 
Q 1072 3584 1716 3584 
Q 2034 3584 2315 3537 
Q 2597 3491 2834 3397 
z
" id="DejaVuSans-73" transform="scale(0.015625)"/>
       <path d="M 1159 525 
L 1159 -1331 
L 581 -1331 
L 581 3500 
L 1159 3500 
L 1159 2969 
Q 1341 3281 1617 3432 
Q 1894 3584 2278 3584 
Q 2916 3584 3314 3078 
Q 3713 2572 3713 1747 
Q 3713 922 3314 415 
Q 2916 -91 2278 -91 
Q 1894 -91 1617 61 
Q 1341 213 1159 525 
z
M 3116 1747 
Q 3116 2381 2855 2742 
Q 2594 3103 2138 3103 
Q 1681 3103 1420 2742 
Q 1159 2381 1159 1747 
Q 1159 1113 1420 752 
Q 1681 391 2138 391 
Q 2594 391 2855 752 
Q 3116 1113 3116 1747 
z
" id="DejaVuSans-70" transform="scale(0.015625)"/>
       <path d="M 1172 4494 
L 1172 3500 
L 2356 3500 
L 2356 3053 
L 1172 3053 
L 1172 1153 
Q 1172 725 1289 603 
Q 1406 481 1766 481 
L 2356 481 
L 2356 0 
L 1766 0 
Q 1100 0 847 248 
Q 594 497 594 1153 
L 594 3053 
L 172 3053 
L 172 3500 
L 594 3500 
L 594 4494 
L 1172 4494 
z
" id="DejaVuSans-74" transform="scale(0.015625)"/>
       <path d="M 2059 -325 
Q 1816 -950 1584 -1140 
Q 1353 -1331 966 -1331 
L 506 -1331 
L 506 -850 
L 844 -850 
Q 1081 -850 1212 -737 
Q 1344 -625 1503 -206 
L 1606 56 
L 191 3500 
L 800 3500 
L 1894 763 
L 2988 3500 
L 3597 3500 
L 2059 -325 
z
" id="DejaVuSans-79" transform="scale(0.015625)"/>
       <path d="M 550 4863 
L 1875 4863 
L 1875 4416 
L 1125 4416 
L 1125 -397 
L 1875 -397 
L 1875 -844 
L 550 -844 
L 550 4863 
z
" id="DejaVuSans-5b" transform="scale(0.015625)"/>
       <path d="M 3272 2816 
L 2363 2816 
L 2100 1772 
L 3016 1772 
L 3272 2816 
z
M 2803 4594 
L 2478 3297 
L 3391 3297 
L 3719 4594 
L 4219 4594 
L 3897 3297 
L 4872 3297 
L 4872 2816 
L 3775 2816 
L 3519 1772 
L 4513 1772 
L 4513 1294 
L 3397 1294 
L 3072 0 
L 2572 0 
L 2894 1294 
L 1978 1294 
L 1656 0 
L 1153 0 
L 1478 1294 
L 494 1294 
L 494 1772 
L 1594 1772 
L 1856 2816 
L 850 2816 
L 850 3297 
L 1978 3297 
L 2297 4594 
L 2803 4594 
z
" id="DejaVuSans-23" transform="scale(0.015625)"/>
       <path d="M 1947 4863 
L 1947 -844 
L 622 -844 
L 622 -397 
L 1369 -397 
L 1369 4416 
L 622 4416 
L 622 4863 
L 1947 4863 
z
" id="DejaVuSans-5d" transform="scale(0.015625)"/>
      </defs>
      <use xlink:href="#DejaVuSans-45"/>
      <use x="63.183594" xlink:href="#DejaVuSans-73"/>
      <use x="115.283203" xlink:href="#DejaVuSans-63"/>
      <use x="170.263672" xlink:href="#DejaVuSans-61"/>
      <use x="231.542969" xlink:href="#DejaVuSans-70"/>
      <use x="295.019531" xlink:href="#DejaVuSans-65"/>
      <use x="356.542969" xlink:href="#DejaVuSans-20"/>
      <use x="388.330078" xlink:href="#DejaVuSans-4c"/>
      <use x="444.042969" xlink:href="#DejaVuSans-61"/>
      <use x="505.322266" xlink:href="#DejaVuSans-74"/>
      <use x="544.53125" xlink:href="#DejaVuSans-65"/>
      <use x="606.054688" xlink:href="#DejaVuSans-6e"/>
      <use x="669.433594" xlink:href="#DejaVuSans-63"/>
      <use x="724.414062" xlink:href="#DejaVuSans-79"/>
      <use x="783.59375" xlink:href="#DejaVuSans-20"/>
      <use x="815.380859" xlink:href="#DejaVuSans-5b"/>
      <use x="854.394531" xlink:href="#DejaVuSans-23"/>
      <use x="938.183594" xlink:href="#DejaVuSans-73"/>
      <use x="990.283203" xlink:href="#DejaVuSans-74"/>
      <use x="1029.492188" xlink:href="#DejaVuSans-65"/>
      <use x="1091.015625" xlink:href="#DejaVuSans-70"/>
      <use x="1154.492188" xlink:href="#DejaVuSans-73"/>
      <use x="1206.591797" xlink:href="#DejaVuSans-5d"/>
     </g>
    </g>
   </g>
   <g id="line2d_27">
    <path clip-path="url(#p4c57161aa1)" d="M 40.603125 132.586756 
L 43.421307 132.127262 
L 46.239489 133.617512 
L 49.05767 134.822131 
L 51.875852 136.672524 
L 54.694034 134.474406 
L 57.512216 137.61635 
L 60.330398 139.292881 
L 63.14858 139.876562 
L 65.966761 139.094181 
L 68.784943 141.764212 
L 71.603125 146.917994 
L 74.421307 144.285218 
L 77.239489 145.56435 
L 80.05767 145.812725 
L 82.875852 151.363906 
L 85.694034 150.991344 
L 88.512216 150.767806 
L 91.330398 153.102531 
L 94.14858 153.686213 
L 96.966761 156.107869 
L 99.784943 156.542525 
L 102.603125 162.143382 
L 105.421307 159.311906 
L 108.239489 162.540782 
L 111.05767 164.701644 
L 113.875852 162.801575 
L 116.694034 165.918682 
L 119.512216 167.458607 
L 122.330398 168.141638 
L 125.14858 170.215569 
L 127.966761 170.240407 
L 130.784943 170.774413 
L 133.603125 170.165894 
L 136.421307 171.320838 
L 139.239489 171.618888 
L 142.05767 173.171232 
L 144.875852 172.997369 
L 147.694034 174.636644 
L 150.512216 175.034044 
L 153.330398 174.735994 
L 156.14858 175.158232 
L 158.966761 175.183069 
L 161.784943 177.033463 
L 164.603125 175.294838 
L 167.421307 178.312595 
L 170.239489 178.349851 
L 173.05767 178.175988 
L 175.875852 178.921113 
L 178.694034 178.399526 
L 181.512216 180.510713 
L 184.330398 179.591726 
L 187.14858 180.063638 
L 189.966761 180.026382 
L 192.784943 180.237501 
L 195.603125 180.920532 
L 198.421307 180.138151 
L 201.239489 179.75317 
L 204.05767 179.877357 
L 206.875852 182.03822 
L 209.694034 180.138151 
L 212.512216 181.193745 
L 215.330398 181.901613 
L 218.14858 180.982626 
L 220.966761 182.398363 
L 223.784943 181.491795 
L 226.603125 181.827101 
L 229.421307 182.23692 
L 232.239489 181.64082 
L 235.05767 181.069557 
L 237.875852 182.063057 
L 240.694034 181.715332 
L 243.512216 182.03822 
L 246.330398 181.777426 
L 249.14858 182.23692 
L 251.966761 182.274176 
L 254.784943 182.125151 
L 257.603125 181.951288 
L 260.421307 181.54147 
L 263.239489 181.516632 
L 266.05767 181.876776 
L 268.875852 181.653238 
L 271.694034 181.777426 
L 274.512216 181.976126 
L 277.330398 181.914032 
L 280.14858 181.404863 
L 282.966761 180.821182 
L 285.784943 181.454538 
L 288.603125 181.827101 
L 291.421307 182.299013 
L 294.239489 181.851938 
L 297.05767 181.255838 
L 299.875852 181.802263 
L 302.694034 182.000963 
L 305.512216 182.274176 
L 308.330398 181.765007 
L 311.14858 182.460457 
L 313.966761 181.789845 
L 316.784943 182.174826 
L 319.603125 182.43562 
" style="fill:none;stroke:#1f77b4;stroke-linecap:square;stroke-width:1.5;"/>
   </g>
   <g id="line2d_28">
    <path clip-path="url(#p4c57161aa1)" d="M 40.603125 132.884806 
L 43.421307 132.487406 
L 46.239489 133.145599 
L 49.05767 133.654768 
L 51.875852 136.809131 
L 54.694034 133.903143 
L 57.512216 138.01375 
L 60.330398 140.79555 
L 63.14858 142.000168 
L 65.966761 142.832225 
L 68.784943 141.565512 
L 71.603125 143.540093 
L 74.421307 145.204206 
L 77.239489 148.0481 
L 80.05767 148.669037 
L 82.875852 153.686213 
L 85.694034 151.674375 
L 88.512216 152.742387 
L 91.330398 154.356825 
L 94.14858 158.939344 
L 96.966761 162.503525 
L 99.784943 161.336163 
L 102.603125 162.913344 
L 105.421307 165.719982 
L 108.239489 165.297744 
L 111.05767 166.800413 
L 113.875852 166.241569 
L 116.694034 170.389432 
L 119.512216 170.923438 
L 122.330398 172.786251 
L 125.14858 172.190151 
L 127.966761 173.692819 
L 130.784943 173.295419 
L 133.603125 174.748413 
L 136.421307 175.481119 
L 139.239489 175.158232 
L 142.05767 176.598807 
L 144.875852 177.530213 
L 147.694034 177.778588 
L 150.512216 177.455701 
L 153.330398 178.933532 
L 156.14858 179.504795 
L 158.966761 178.424363 
L 161.784943 178.287757 
L 164.603125 179.467538 
L 167.421307 180.100895 
L 170.239489 180.100895 
L 173.05767 179.181907 
L 175.875852 180.34927 
L 178.694034 180.100895 
L 181.512216 180.324432 
L 184.330398 181.827101 
L 187.14858 180.485876 
L 189.966761 180.920532 
L 192.784943 179.045301 
L 195.603125 181.529051 
L 198.421307 182.13757 
L 201.239489 181.466957 
L 204.05767 181.851938 
L 206.875852 181.752588 
L 209.694034 182.050638 
L 212.512216 181.24342 
L 215.330398 181.628401 
L 218.14858 181.690495 
L 220.966761 182.087895 
L 223.784943 181.355188 
L 226.603125 182.348688 
L 229.421307 181.529051 
L 232.239489 182.013382 
L 235.05767 181.715332 
L 237.875852 182.050638 
L 240.694034 181.777426 
L 243.512216 181.827101 
L 246.330398 182.025801 
L 249.14858 181.529051 
L 251.966761 181.591145 
L 254.784943 181.702913 
L 257.603125 181.479376 
L 260.421307 182.025801 
L 263.239489 181.976126 
L 266.05767 182.249338 
L 268.875852 181.392445 
L 271.694034 181.864357 
L 274.512216 182.13757 
L 277.330398 182.075476 
L 280.14858 182.249338 
L 282.966761 181.678076 
L 285.784943 182.410782 
L 288.603125 181.988545 
L 291.421307 182.33627 
L 294.239489 181.926451 
L 297.05767 182.199663 
L 299.875852 182.187245 
L 302.694034 182.348688 
L 305.512216 181.851938 
L 308.330398 181.74017 
L 311.14858 181.814682 
L 313.966761 181.901613 
L 316.784943 182.274176 
L 319.603125 181.603563 
" style="fill:none;stroke:#ff7f0e;stroke-linecap:square;stroke-width:1.5;"/>
   </g>
   <g id="line2d_29">
    <path clip-path="url(#p4c57161aa1)" d="M 40.603125 131.158599 
L 43.421307 132.077587 
L 46.239489 133.754118 
L 49.05767 132.350799 
L 51.875852 134.846968 
L 54.694034 139.019668 
L 57.512216 137.256206 
L 60.330398 138.21245 
L 63.14858 142.472081 
L 65.966761 138.969993 
L 68.784943 141.577931 
L 71.603125 141.416487 
L 74.421307 143.999587 
L 77.239489 145.402906 
L 80.05767 147.228462 
L 82.875852 148.656619 
L 85.694034 152.344987 
L 88.512216 150.904412 
L 91.330398 154.567944 
L 94.14858 152.779644 
L 96.966761 156.083031 
L 99.784943 159.920425 
L 102.603125 158.256313 
L 105.421307 158.256313 
L 108.239489 159.684469 
L 111.05767 163.993775 
L 113.875852 163.397675 
L 116.694034 166.440269 
L 119.512216 168.005032 
L 122.330398 167.967775 
L 125.14858 170.650226 
L 127.966761 173.133976 
L 130.784943 172.041126 
L 133.603125 172.500619 
L 136.421307 174.586969 
L 139.239489 175.356932 
L 142.05767 175.518376 
L 144.875852 174.599388 
L 147.694034 176.549132 
L 150.512216 177.76617 
L 153.330398 177.058301 
L 156.14858 178.151151 
L 158.966761 176.536713 
L 161.784943 178.871438 
L 164.603125 178.436782 
L 167.421307 179.281257 
L 170.239489 178.225663 
L 173.05767 178.213245 
L 175.875852 177.716495 
L 178.694034 179.864938 
L 181.512216 178.498876 
L 184.330398 179.778007 
L 187.14858 181.081976 
L 189.966761 179.55447 
L 192.784943 180.324432 
L 195.603125 180.610063 
L 198.421307 180.684576 
L 201.239489 180.473457 
L 204.05767 181.181326 
L 206.875852 180.64732 
L 209.694034 180.883276 
L 212.512216 180.709413 
L 215.330398 181.44212 
L 218.14858 181.280676 
L 220.966761 181.355188 
L 223.784943 181.032301 
L 226.603125 181.317932 
L 229.421307 181.392445 
L 232.239489 181.615982 
L 235.05767 181.64082 
L 237.875852 181.479376 
L 240.694034 180.634901 
L 243.512216 180.436201 
L 246.330398 180.597645 
L 249.14858 181.591145 
L 251.966761 182.13757 
L 254.784943 180.498295 
L 257.603125 180.684576 
L 260.421307 180.970207 
L 263.239489 181.44212 
L 266.05767 181.889195 
L 268.875852 181.83952 
L 271.694034 181.64082 
L 274.512216 181.93887 
L 277.330398 181.417282 
L 280.14858 180.957788 
L 282.966761 182.187245 
L 285.784943 181.578726 
L 288.603125 181.330351 
L 291.421307 180.821182 
L 294.239489 181.802263 
L 297.05767 181.466957 
L 299.875852 181.963707 
L 302.694034 181.293095 
L 305.512216 181.578726 
L 308.330398 181.603563 
L 311.14858 181.14407 
L 313.966761 182.174826 
L 316.784943 181.93887 
L 319.603125 181.789845 
" style="fill:none;stroke:#2ca02c;stroke-linecap:square;stroke-width:1.5;"/>
   </g>
   <g id="line2d_30">
    <path clip-path="url(#p4c57161aa1)" d="M 40.603125 132.325962 
L 43.421307 131.705024 
L 46.239489 134.263287 
L 49.05767 133.865887 
L 51.875852 136.883643 
L 54.694034 136.709781 
L 57.512216 139.839306 
L 60.330398 138.696781 
L 63.14858 141.043925 
L 65.966761 140.2988 
L 68.784943 140.845225 
L 71.603125 145.402906 
L 74.421307 147.625862 
L 77.239489 150.246219 
L 80.05767 149.997844 
L 82.875852 151.810981 
L 85.694034 150.618781 
L 88.512216 156.045775 
L 91.330398 151.997262 
L 94.14858 157.1883 
L 96.966761 156.505269 
L 99.784943 157.834075 
L 102.603125 161.274069 
L 105.421307 162.739482 
L 108.239489 162.838832 
L 111.05767 161.112625 
L 113.875852 166.22915 
L 116.694034 165.459188 
L 119.512216 167.756657 
L 122.330398 167.62005 
L 125.14858 169.395932 
L 127.966761 170.513619 
L 130.784943 171.817588 
L 133.603125 172.463363 
L 136.421307 174.040544 
L 139.239489 173.705238 
L 142.05767 172.947694 
L 144.875852 174.686319 
L 147.694034 175.754332 
L 150.512216 174.822926 
L 153.330398 177.120395 
L 156.14858 177.592307 
L 158.966761 176.573969 
L 161.784943 176.760251 
L 164.603125 176.648482 
L 167.421307 177.728913 
L 170.239489 178.486457 
L 173.05767 177.480538 
L 175.875852 178.325013 
L 178.694034 178.821763 
L 181.512216 178.536132 
L 184.330398 179.840101 
L 187.14858 179.989126 
L 189.966761 180.05122 
L 192.784943 180.622482 
L 195.603125 181.019882 
L 198.421307 179.815263 
L 201.239489 180.957788 
L 204.05767 181.466957 
L 206.875852 181.392445 
L 209.694034 181.516632 
L 212.512216 181.54147 
L 215.330398 180.709413 
L 218.14858 181.529051 
L 220.966761 181.529051 
L 223.784943 181.491795 
L 226.603125 182.025801 
L 229.421307 181.516632 
L 232.239489 181.715332 
L 235.05767 181.218582 
L 237.875852 181.901613 
L 240.694034 181.752588 
L 243.512216 182.199663 
L 246.330398 181.367607 
L 249.14858 181.690495 
L 251.966761 182.013382 
L 254.784943 182.249338 
L 257.603125 182.075476 
L 260.421307 181.901613 
L 263.239489 181.392445 
L 266.05767 181.727751 
L 268.875852 181.914032 
L 271.694034 181.864357 
L 274.512216 182.299013 
L 277.330398 181.131651 
L 280.14858 181.789845 
L 282.966761 182.497713 
L 285.784943 181.789845 
L 288.603125 181.864357 
L 291.421307 180.982626 
L 294.239489 181.802263 
L 297.05767 181.628401 
L 299.875852 181.305513 
L 302.694034 182.000963 
L 305.512216 182.063057 
L 308.330398 182.174826 
L 311.14858 181.64082 
L 313.966761 181.814682 
L 316.784943 181.715332 
L 319.603125 181.814682 
" style="fill:none;stroke:#d62728;stroke-linecap:square;stroke-width:1.5;"/>
   </g>
   <g id="line2d_31">
    <path clip-path="url(#p4c57161aa1)" d="M 40.603125 134.971156 
L 43.421307 133.468487 
L 46.239489 133.865887 
L 49.05767 137.641187 
L 51.875852 136.660106 
L 54.694034 139.168693 
L 57.512216 138.373893 
L 60.330398 142.943993 
L 63.14858 142.6832 
L 65.966761 143.465581 
L 68.784943 145.092437 
L 71.603125 150.2338 
L 74.421307 147.178787 
L 77.239489 149.712212 
L 80.05767 151.92275 
L 82.875852 151.562606 
L 85.694034 154.220219 
L 88.512216 156.256894 
L 91.330398 157.275231 
L 94.14858 158.3805 
L 96.966761 157.821656 
L 99.784943 160.317825 
L 102.603125 163.410094 
L 105.421307 162.776738 
L 108.239489 164.800994 
L 111.05767 165.484025 
L 113.875852 167.545538 
L 116.694034 168.961275 
L 119.512216 169.855426 
L 122.330398 170.128638 
L 125.14858 170.377013 
L 127.966761 170.153476 
L 130.784943 171.954194 
L 133.603125 174.351013 
L 136.421307 175.282419 
L 139.239489 172.699319 
L 142.05767 174.661482 
L 144.875852 174.251663 
L 147.694034 175.120976 
L 150.512216 178.213245 
L 153.330398 178.039382 
L 156.14858 177.430863 
L 158.966761 178.175988 
L 161.784943 179.95187 
L 164.603125 179.070138 
L 167.421307 180.957788 
L 170.239489 181.181326 
L 173.05767 180.44862 
L 175.875852 179.318513 
L 178.694034 180.461038 
L 181.512216 180.759088 
L 184.330398 181.678076 
L 187.14858 180.324432 
L 189.966761 181.04472 
L 192.784943 181.293095 
L 195.603125 181.367607 
L 198.421307 180.796345 
L 201.239489 181.34277 
L 204.05767 180.84602 
L 206.875852 181.317932 
L 209.694034 181.553888 
L 212.512216 180.759088 
L 215.330398 182.000963 
L 218.14858 182.000963 
L 220.966761 182.063057 
L 223.784943 182.187245 
L 226.603125 179.802845 
L 229.421307 181.963707 
L 232.239489 181.34277 
L 235.05767 181.951288 
L 237.875852 182.03822 
L 240.694034 182.361107 
L 243.512216 182.212082 
L 246.330398 181.988545 
L 249.14858 182.460457 
L 251.966761 181.83952 
L 254.784943 182.100313 
L 257.603125 181.851938 
L 260.421307 181.64082 
L 263.239489 182.53497 
L 266.05767 181.653238 
L 268.875852 182.087895 
L 271.694034 182.33627 
L 274.512216 182.659157 
L 277.330398 181.516632 
L 280.14858 181.752588 
L 282.966761 182.311432 
L 285.784943 181.54147 
L 288.603125 182.13757 
L 291.421307 182.174826 
L 294.239489 182.286595 
L 297.05767 182.261757 
L 299.875852 182.485295 
L 302.694034 182.348688 
L 305.512216 182.13757 
L 308.330398 182.149988 
L 311.14858 181.926451 
L 313.966761 181.93887 
L 316.784943 181.951288 
L 319.603125 182.013382 
" style="fill:none;stroke:#9467bd;stroke-linecap:square;stroke-width:1.5;"/>
   </g>
   <g id="line2d_32">
    <path clip-path="url(#p4c57161aa1)" d="M 40.603125 129.966399 
L 43.421307 131.978237 
L 46.239489 135.964656 
L 49.05767 135.405812 
L 51.875852 134.971156 
L 54.694034 136.250287 
L 57.512216 138.3118 
L 60.330398 136.150937 
L 63.14858 139.839306 
L 65.966761 139.1066 
L 68.784943 140.1001 
L 71.603125 141.2923 
L 74.421307 145.042762 
L 77.239489 143.664281 
L 80.05767 146.073519 
L 82.875852 149.265137 
L 85.694034 150.891994 
L 88.512216 151.661956 
L 91.330398 154.4065 
L 94.14858 152.804481 
L 96.966761 158.889669 
L 99.784943 159.485769 
L 102.603125 158.7779 
L 105.421307 165.049369 
L 108.239489 164.825832 
L 111.05767 166.974275 
L 113.875852 166.067707 
L 116.694034 165.744819 
L 119.512216 167.967775 
L 122.330398 170.588132 
L 125.14858 169.085463 
L 127.966761 171.146976 
L 130.784943 171.531957 
L 133.603125 172.227407 
L 136.421307 174.574551 
L 139.239489 174.810507 
L 142.05767 172.053544 
L 144.875852 174.152313 
L 147.694034 176.449782 
L 150.512216 176.226244 
L 153.330398 177.617145 
L 156.14858 178.275338 
L 158.966761 178.486457 
L 161.784943 178.734832 
L 164.603125 177.915195 
L 167.421307 180.162988 
L 170.239489 179.281257 
L 173.05767 177.741332 
L 175.875852 180.026382 
L 178.694034 180.783926 
L 181.512216 180.771507 
L 184.330398 180.076057 
L 187.14858 180.883276 
L 189.966761 180.485876 
L 192.784943 181.491795 
L 195.603125 180.771507 
L 198.421307 180.473457 
L 201.239489 181.392445 
L 204.05767 181.355188 
L 206.875852 181.206163 
L 209.694034 180.274757 
L 212.512216 181.802263 
L 215.330398 181.591145 
L 218.14858 181.417282 
L 220.966761 180.833601 
L 223.784943 181.690495 
L 226.603125 182.063057 
L 229.421307 181.963707 
L 232.239489 181.44212 
L 235.05767 181.827101 
L 237.875852 182.162407 
L 240.694034 182.199663 
L 243.512216 181.429701 
L 246.330398 181.603563 
L 249.14858 181.876776 
L 251.966761 182.13757 
L 254.784943 182.261757 
L 257.603125 182.087895 
L 260.421307 181.83952 
L 263.239489 181.83952 
L 266.05767 182.249338 
L 268.875852 181.802263 
L 271.694034 182.187245 
L 274.512216 181.690495 
L 277.330398 181.926451 
L 280.14858 182.212082 
L 282.966761 182.13757 
L 285.784943 181.404863 
L 288.603125 181.963707 
L 291.421307 181.690495 
L 294.239489 181.976126 
L 297.05767 182.423201 
L 299.875852 181.404863 
L 302.694034 181.566307 
L 305.512216 182.112732 
L 308.330398 182.149988 
L 311.14858 182.249338 
L 313.966761 182.000963 
L 316.784943 181.988545 
L 319.603125 182.050638 
" style="fill:none;stroke:#8c564b;stroke-linecap:square;stroke-width:1.5;"/>
   </g>
   <g id="line2d_33">
    <path clip-path="url(#p4c57161aa1)" d="M 40.603125 132.313543 
L 43.421307 133.257368 
L 46.239489 133.542999 
L 49.05767 135.691443 
L 51.875852 136.573174 
L 54.694034 138.249706 
L 57.512216 138.41115 
L 60.330398 139.690281 
L 63.14858 140.224287 
L 65.966761 140.807968 
L 68.784943 144.036843 
L 71.603125 144.098937 
L 74.421307 145.738212 
L 77.239489 146.172869 
L 80.05767 151.736469 
L 82.875852 149.426581 
L 85.694034 150.444919 
L 88.512216 154.021519 
L 91.330398 154.456175 
L 94.14858 156.877831 
L 96.966761 155.611119 
L 99.784943 157.834075 
L 102.603125 156.666713 
L 105.421307 157.138625 
L 108.239489 159.485769 
L 111.05767 162.193057 
L 113.875852 162.540782 
L 116.694034 168.439688 
L 119.512216 166.999113 
L 122.330398 167.632469 
L 125.14858 170.327338 
L 127.966761 170.414269 
L 130.784943 173.444444 
L 133.603125 170.687482 
L 136.421307 173.767332 
L 139.239489 173.456863 
L 142.05767 172.190151 
L 144.875852 176.039963 
L 147.694034 177.86552 
L 150.512216 176.834763 
L 153.330398 176.685738 
L 156.14858 178.387107 
L 158.966761 179.15707 
L 161.784943 178.809345 
L 164.603125 178.883857 
L 167.421307 179.293676 
L 170.239489 180.225082 
L 173.05767 179.318513 
L 175.875852 179.393026 
L 178.694034 180.423782 
L 181.512216 180.995045 
L 184.330398 179.417863 
L 187.14858 180.833601 
L 189.966761 180.299595 
L 192.784943 180.585226 
L 195.603125 181.04472 
L 198.421307 179.827682 
L 201.239489 181.553888 
L 204.05767 181.404863 
L 206.875852 181.094395 
L 209.694034 181.106813 
L 212.512216 181.690495 
L 215.330398 182.149988 
L 218.14858 181.218582 
L 220.966761 181.876776 
L 223.784943 180.84602 
L 226.603125 182.050638 
L 229.421307 181.864357 
L 232.239489 182.23692 
L 235.05767 181.690495 
L 237.875852 182.286595 
L 240.694034 181.553888 
L 243.512216 182.025801 
L 246.330398 181.665657 
L 249.14858 181.392445 
L 251.966761 181.380026 
L 254.784943 182.224501 
L 257.603125 181.34277 
L 260.421307 181.926451 
L 263.239489 182.373526 
L 266.05767 181.926451 
L 268.875852 181.702913 
L 271.694034 181.901613 
L 274.512216 181.702913 
L 277.330398 181.963707 
L 280.14858 182.000963 
L 282.966761 181.591145 
L 285.784943 182.149988 
L 288.603125 181.566307 
L 291.421307 182.149988 
L 294.239489 182.174826 
L 297.05767 182.423201 
L 299.875852 181.777426 
L 302.694034 181.777426 
L 305.512216 181.24342 
L 308.330398 181.653238 
L 311.14858 182.063057 
L 313.966761 182.361107 
L 316.784943 181.553888 
L 319.603125 182.373526 
" style="fill:none;stroke:#e377c2;stroke-linecap:square;stroke-width:1.5;"/>
   </g>
   <g id="line2d_34">
    <path clip-path="url(#p4c57161aa1)" d="M 40.603125 132.537081 
L 43.421307 131.804374 
L 46.239489 135.741118 
L 49.05767 136.113681 
L 51.875852 135.741118 
L 54.694034 138.187612 
L 57.512216 138.957575 
L 60.330398 140.745875 
L 63.14858 141.155693 
L 65.966761 144.533593 
L 68.784943 143.415906 
L 71.603125 145.56435 
L 74.421307 146.272219 
L 77.239489 150.395244 
L 80.05767 152.096612 
L 82.875852 151.065856 
L 85.694034 152.146287 
L 88.512216 154.580363 
L 91.330398 153.040437 
L 94.14858 156.753644 
L 96.966761 155.69805 
L 99.784943 158.839994 
L 102.603125 157.970681 
L 105.421307 160.342663 
L 108.239489 160.913925 
L 111.05767 161.485188 
L 113.875852 161.808075 
L 116.694034 163.5467 
L 119.512216 166.502363 
L 122.330398 167.582794 
L 125.14858 165.670307 
L 127.966761 170.277663 
L 130.784943 170.252826 
L 133.603125 170.165894 
L 136.421307 172.438526 
L 139.239489 174.102638 
L 142.05767 171.991451 
L 144.875852 172.960113 
L 147.694034 174.872601 
L 150.512216 175.741913 
L 153.330398 176.822344 
L 156.14858 177.480538 
L 158.966761 176.102057 
L 161.784943 178.325013 
L 164.603125 178.076638 
L 167.421307 177.853101 
L 170.239489 177.505376 
L 173.05767 178.56097 
L 175.875852 177.604726 
L 178.694034 180.361688 
L 181.512216 179.070138 
L 184.330398 179.070138 
L 187.14858 178.722413 
L 189.966761 179.119813 
L 192.784943 179.231582 
L 195.603125 179.802845 
L 198.421307 178.672738 
L 201.239489 180.560388 
L 204.05767 179.393026 
L 206.875852 180.870857 
L 209.694034 180.84602 
L 212.512216 180.610063 
L 215.330398 180.212663 
L 218.14858 181.106813 
L 220.966761 180.386526 
L 223.784943 179.889776 
L 226.603125 181.404863 
L 229.421307 181.727751 
L 232.239489 181.529051 
L 235.05767 180.995045 
L 237.875852 181.827101 
L 240.694034 180.920532 
L 243.512216 181.34277 
L 246.330398 181.665657 
L 249.14858 181.367607 
L 251.966761 181.926451 
L 254.784943 181.305513 
L 257.603125 181.727751 
L 260.421307 182.224501 
L 263.239489 182.112732 
L 266.05767 181.752588 
L 268.875852 181.417282 
L 271.694034 181.802263 
L 274.512216 182.224501 
L 277.330398 182.212082 
L 280.14858 182.33627 
L 282.966761 181.727751 
L 285.784943 181.727751 
L 288.603125 181.44212 
L 291.421307 182.112732 
L 294.239489 182.423201 
L 297.05767 182.212082 
L 299.875852 182.162407 
L 302.694034 181.851938 
L 305.512216 182.162407 
L 308.330398 182.187245 
L 311.14858 181.727751 
L 313.966761 182.013382 
L 316.784943 181.392445 
L 319.603125 182.423201 
" style="fill:none;stroke:#7f7f7f;stroke-linecap:square;stroke-width:1.5;"/>
   </g>
   <g id="line2d_35">
    <path clip-path="url(#p4c57161aa1)" d="M 40.603125 130.289287 
L 43.421307 131.816793 
L 46.239489 134.399893 
L 49.05767 132.537081 
L 51.875852 134.126681 
L 54.694034 136.920899 
L 57.512216 135.890143 
L 60.330398 135.306462 
L 63.14858 139.081762 
L 65.966761 141.341975 
L 68.784943 141.59035 
L 71.603125 142.409987 
L 74.421307 140.39815 
L 77.239489 142.919156 
L 80.05767 142.695618 
L 82.875852 143.142693 
L 85.694034 146.0611 
L 88.512216 147.0546 
L 91.330398 147.302975 
L 94.14858 150.258637 
L 96.966761 153.959425 
L 99.784943 155.586281 
L 102.603125 154.170544 
L 105.421307 158.554363 
L 108.239489 159.7714 
L 111.05767 159.448513 
L 113.875852 160.988438 
L 116.694034 164.751319 
L 119.512216 166.378175 
L 122.330398 165.918682 
L 125.14858 168.700482 
L 127.966761 168.774994 
L 130.784943 168.104382 
L 133.603125 172.575132 
L 136.421307 170.563294 
L 139.239489 172.426107 
L 142.05767 173.518957 
L 144.875852 176.834763 
L 147.694034 174.351013 
L 150.512216 173.941194 
L 153.330398 174.102638 
L 156.14858 174.934694 
L 158.966761 175.481119 
L 161.784943 176.710576 
L 164.603125 176.586388 
L 167.421307 179.119813 
L 170.239489 178.312595 
L 173.05767 179.070138 
L 175.875852 179.244001 
L 178.694034 179.380607 
L 181.512216 178.36227 
L 184.330398 179.032882 
L 187.14858 180.74667 
L 189.966761 179.815263 
L 192.784943 178.883857 
L 195.603125 181.206163 
L 198.421307 180.74667 
L 201.239489 181.466957 
L 204.05767 180.771507 
L 206.875852 181.367607 
L 209.694034 181.504213 
L 212.512216 182.100313 
L 215.330398 181.715332 
L 218.14858 181.218582 
L 220.966761 181.851938 
L 223.784943 181.802263 
L 226.603125 181.417282 
L 229.421307 180.883276 
L 232.239489 182.075476 
L 235.05767 181.914032 
L 237.875852 182.162407 
L 240.694034 181.83952 
L 243.512216 181.380026 
L 246.330398 182.087895 
L 249.14858 182.050638 
L 251.966761 182.323851 
L 254.784943 181.752588 
L 257.603125 181.094395 
L 260.421307 181.678076 
L 263.239489 181.678076 
L 266.05767 182.075476 
L 268.875852 182.13757 
L 271.694034 181.976126 
L 274.512216 181.74017 
L 277.330398 181.454538 
L 280.14858 182.174826 
L 282.966761 182.03822 
L 285.784943 182.212082 
L 288.603125 182.13757 
L 291.421307 181.827101 
L 294.239489 181.715332 
L 297.05767 181.690495 
L 299.875852 182.025801 
L 302.694034 182.187245 
L 305.512216 181.988545 
L 308.330398 181.876776 
L 311.14858 181.690495 
L 313.966761 182.162407 
L 316.784943 181.889195 
L 319.603125 182.274176 
" style="fill:none;stroke:#bcbd22;stroke-linecap:square;stroke-width:1.5;"/>
   </g>
   <g id="line2d_36">
    <path clip-path="url(#p4c57161aa1)" d="M 40.603125 182.895113 
L 319.603125 182.895113 
" style="fill:none;stroke:#808080;stroke-dasharray:5.55,2.4;stroke-dashoffset:0;stroke-width:1.5;"/>
   </g>
   <g id="patch_6">
    <path d="M 40.603125 189.104489 
L 40.603125 127.331761 
" style="fill:none;stroke:#000000;stroke-linecap:square;stroke-linejoin:miter;stroke-width:0.8;"/>
   </g>
   <g id="patch_7">
    <path d="M 40.603125 189.104489 
L 319.603125 189.104489 
" style="fill:none;stroke:#000000;stroke-linecap:square;stroke-linejoin:miter;stroke-width:0.8;"/>
   </g>
   <g id="text_19">
    <!-- Open Field -->
    <g transform="translate(148.319063 121.331761)scale(0.12 -0.12)">
     <defs>
      <path d="M 2522 4238 
Q 1834 4238 1429 3725 
Q 1025 3213 1025 2328 
Q 1025 1447 1429 934 
Q 1834 422 2522 422 
Q 3209 422 3611 934 
Q 4013 1447 4013 2328 
Q 4013 3213 3611 3725 
Q 3209 4238 2522 4238 
z
M 2522 4750 
Q 3503 4750 4090 4092 
Q 4678 3434 4678 2328 
Q 4678 1225 4090 567 
Q 3503 -91 2522 -91 
Q 1538 -91 948 565 
Q 359 1222 359 2328 
Q 359 3434 948 4092 
Q 1538 4750 2522 4750 
z
" id="DejaVuSans-4f" transform="scale(0.015625)"/>
      <path d="M 628 4666 
L 3309 4666 
L 3309 4134 
L 1259 4134 
L 1259 2759 
L 3109 2759 
L 3109 2228 
L 1259 2228 
L 1259 0 
L 628 0 
L 628 4666 
z
" id="DejaVuSans-46" transform="scale(0.015625)"/>
      <path d="M 603 4863 
L 1178 4863 
L 1178 0 
L 603 0 
L 603 4863 
z
" id="DejaVuSans-6c" transform="scale(0.015625)"/>
      <path d="M 2906 2969 
L 2906 4863 
L 3481 4863 
L 3481 0 
L 2906 0 
L 2906 525 
Q 2725 213 2448 61 
Q 2172 -91 1784 -91 
Q 1150 -91 751 415 
Q 353 922 353 1747 
Q 353 2572 751 3078 
Q 1150 3584 1784 3584 
Q 2172 3584 2448 3432 
Q 2725 3281 2906 2969 
z
M 947 1747 
Q 947 1113 1208 752 
Q 1469 391 1925 391 
Q 2381 391 2643 752 
Q 2906 1113 2906 1747 
Q 2906 2381 2643 2742 
Q 2381 3103 1925 3103 
Q 1469 3103 1208 2742 
Q 947 2381 947 1747 
z
" id="DejaVuSans-64" transform="scale(0.015625)"/>
     </defs>
     <use xlink:href="#DejaVuSans-4f"/>
     <use x="78.710938" xlink:href="#DejaVuSans-70"/>
     <use x="142.1875" xlink:href="#DejaVuSans-65"/>
     <use x="203.710938" xlink:href="#DejaVuSans-6e"/>
     <use x="267.089844" xlink:href="#DejaVuSans-20"/>
     <use x="298.876953" xlink:href="#DejaVuSans-46"/>
     <use x="349.146484" xlink:href="#DejaVuSans-69"/>
     <use x="376.929688" xlink:href="#DejaVuSans-65"/>
     <use x="438.453125" xlink:href="#DejaVuSans-6c"/>
     <use x="466.236328" xlink:href="#DejaVuSans-64"/>
    </g>
   </g>
  </g>
  <g id="axes_3">
   <g id="patch_8">
    <path d="M 40.603125 294.118125 
L 319.603125 294.118125 
L 319.603125 232.345398 
L 40.603125 232.345398 
z
" style="fill:#ffffff;"/>
   </g>
   <g id="matplotlib.axis_5">
    <g id="xtick_12">
     <g id="line2d_37">
      <g>
       <use style="stroke:#000000;stroke-width:0.8;" x="40.603125" xlink:href="#m54f286892b" y="294.118125"/>
      </g>
     </g>
     <g id="text_20">
      <!-- 1 -->
      <g transform="translate(37.421875 308.716562)scale(0.1 -0.1)">
       <use xlink:href="#DejaVuSans-31"/>
      </g>
     </g>
    </g>
    <g id="xtick_13">
     <g id="line2d_38">
      <g>
       <use style="stroke:#000000;stroke-width:0.8;" x="94.14858" xlink:href="#m54f286892b" y="294.118125"/>
      </g>
     </g>
     <g id="text_21">
      <!-- 20 -->
      <g transform="translate(87.78608 308.716562)scale(0.1 -0.1)">
       <use xlink:href="#DejaVuSans-32"/>
       <use x="63.623047" xlink:href="#DejaVuSans-30"/>
      </g>
     </g>
    </g>
    <g id="xtick_14">
     <g id="line2d_39">
      <g>
       <use style="stroke:#000000;stroke-width:0.8;" x="150.512216" xlink:href="#m54f286892b" y="294.118125"/>
      </g>
     </g>
     <g id="text_22">
      <!-- 40 -->
      <g transform="translate(144.149716 308.716562)scale(0.1 -0.1)">
       <use xlink:href="#DejaVuSans-34"/>
       <use x="63.623047" xlink:href="#DejaVuSans-30"/>
      </g>
     </g>
    </g>
    <g id="xtick_15">
     <g id="line2d_40">
      <g>
       <use style="stroke:#000000;stroke-width:0.8;" x="206.875852" xlink:href="#m54f286892b" y="294.118125"/>
      </g>
     </g>
     <g id="text_23">
      <!-- 60 -->
      <g transform="translate(200.513352 308.716562)scale(0.1 -0.1)">
       <use xlink:href="#DejaVuSans-36"/>
       <use x="63.623047" xlink:href="#DejaVuSans-30"/>
      </g>
     </g>
    </g>
    <g id="xtick_16">
     <g id="line2d_41">
      <g>
       <use style="stroke:#000000;stroke-width:0.8;" x="263.239489" xlink:href="#m54f286892b" y="294.118125"/>
      </g>
     </g>
     <g id="text_24">
      <!-- 80 -->
      <g transform="translate(256.876989 308.716562)scale(0.1 -0.1)">
       <use xlink:href="#DejaVuSans-38"/>
       <use x="63.623047" xlink:href="#DejaVuSans-30"/>
      </g>
     </g>
    </g>
    <g id="xtick_17">
     <g id="line2d_42">
      <g>
       <use style="stroke:#000000;stroke-width:0.8;" x="319.603125" xlink:href="#m54f286892b" y="294.118125"/>
      </g>
     </g>
     <g id="text_25">
      <!-- 100 -->
      <g transform="translate(310.059375 308.716562)scale(0.1 -0.1)">
       <use xlink:href="#DejaVuSans-31"/>
       <use x="63.623047" xlink:href="#DejaVuSans-30"/>
       <use x="127.246094" xlink:href="#DejaVuSans-30"/>
      </g>
     </g>
    </g>
    <g id="text_26">
     <!-- Trial -->
     <g transform="translate(169.889062 322.394687)scale(0.1 -0.1)">
      <use xlink:href="#DejaVuSans-54"/>
      <use x="46.333984" xlink:href="#DejaVuSans-72"/>
      <use x="87.447266" xlink:href="#DejaVuSans-69"/>
      <use x="115.230469" xlink:href="#DejaVuSans-61"/>
      <use x="176.509766" xlink:href="#DejaVuSans-6c"/>
     </g>
    </g>
   </g>
   <g id="matplotlib.axis_6">
    <g id="ytick_6">
     <g id="line2d_43">
      <g>
       <use style="stroke:#000000;stroke-width:0.8;" x="40.603125" xlink:href="#m27a78b70da" y="294.118125"/>
      </g>
     </g>
     <g id="text_27">
      <!-- 0 -->
      <g transform="translate(27.240625 297.917344)scale(0.1 -0.1)">
       <use xlink:href="#DejaVuSans-30"/>
      </g>
     </g>
    </g>
    <g id="ytick_7">
     <g id="line2d_44">
      <g>
       <use style="stroke:#000000;stroke-width:0.8;" x="40.603125" xlink:href="#m27a78b70da" y="253.257472"/>
      </g>
     </g>
     <g id="text_28">
      <!-- 200 -->
      <g transform="translate(14.515625 257.05669)scale(0.1 -0.1)">
       <use xlink:href="#DejaVuSans-32"/>
       <use x="63.623047" xlink:href="#DejaVuSans-30"/>
       <use x="127.246094" xlink:href="#DejaVuSans-30"/>
      </g>
     </g>
    </g>
   </g>
   <g id="line2d_45">
    <path clip-path="url(#p3f70c2a726)" d="M 40.603125 239.344419 
L 43.421307 236.059223 
L 46.239489 237.812145 
L 49.05767 235.940727 
L 51.875852 239.123772 
L 54.694034 238.743767 
L 57.512216 237.101169 
L 60.330398 240.2883 
L 63.14858 240.390452 
L 65.966761 242.572411 
L 68.784943 242.850263 
L 71.603125 244.627702 
L 74.421307 244.832005 
L 77.239489 246.392882 
L 80.05767 245.767714 
L 82.875852 246.744283 
L 85.694034 246.082341 
L 88.512216 249.870123 
L 91.330398 251.606701 
L 94.14858 251.292074 
L 96.966761 254.728455 
L 99.784943 253.008222 
L 102.603125 255.271902 
L 105.421307 255.974705 
L 108.239489 260.203783 
L 111.05767 262.630905 
L 113.875852 262.757573 
L 116.694034 265.438032 
L 119.512216 265.532012 
L 122.330398 269.254417 
L 125.14858 270.173782 
L 127.966761 271.43229 
L 130.784943 269.618077 
L 133.603125 272.102405 
L 136.421307 271.673368 
L 139.239489 276.736003 
L 142.05767 274.639852 
L 144.875852 274.386515 
L 147.694034 277.545044 
L 150.512216 277.916876 
L 153.330398 279.980339 
L 156.14858 278.962909 
L 158.966761 281.6924 
L 161.784943 278.697314 
L 164.603125 282.084663 
L 167.421307 281.696486 
L 170.239489 283.277794 
L 173.05767 281.447236 
L 175.875852 285.860187 
L 178.694034 286.616109 
L 181.512216 287.077834 
L 184.330398 287.000199 
L 187.14858 286.734605 
L 189.966761 286.714175 
L 192.784943 287.045146 
L 195.603125 286.505785 
L 198.421307 287.1759 
L 201.239489 286.734605 
L 204.05767 287.032888 
L 206.875852 287.55999 
L 209.694034 287.600851 
L 212.512216 287.752035 
L 215.330398 288.1729 
L 218.14858 288.512043 
L 220.966761 287.866445 
L 223.784943 288.369031 
L 226.603125 288.299568 
L 229.421307 288.593765 
L 232.239489 288.499785 
L 235.05767 288.479355 
L 237.875852 288.626453 
L 240.694034 288.761293 
L 243.512216 289.03506 
L 246.330398 289.415064 
L 249.14858 289.345601 
L 251.966761 289.333342 
L 254.784943 289.370117 
L 257.603125 289.447752 
L 260.421307 289.349687 
L 263.239489 289.39872 
L 266.05767 289.366031 
L 268.875852 289.496785 
L 271.694034 289.578506 
L 274.512216 289.451838 
L 277.330398 289.537646 
L 280.14858 289.443666 
L 282.966761 289.468183 
L 285.784943 289.345601 
L 288.603125 289.402806 
L 291.421307 289.455924 
L 294.239489 289.639797 
L 297.05767 289.410978 
L 299.875852 289.480441 
L 302.694034 289.472269 
L 305.512216 289.521301 
L 308.330398 289.455924 
L 311.14858 289.476355 
L 313.966761 289.496785 
L 316.784943 289.488613 
L 319.603125 289.566248 
" style="fill:none;stroke:#1f77b4;stroke-linecap:square;stroke-width:1.5;"/>
   </g>
   <g id="line2d_46">
    <path clip-path="url(#p3f70c2a726)" d="M 40.603125 237.951071 
L 43.421307 237.714079 
L 46.239489 238.233009 
L 49.05767 238.572153 
L 51.875852 236.189977 
L 54.694034 240.13303 
L 57.512216 236.815145 
L 60.330398 241.820575 
L 63.14858 242.413054 
L 65.966761 241.906382 
L 68.784943 242.037136 
L 71.603125 245.959759 
L 74.421307 246.078255 
L 77.239489 244.770714 
L 80.05767 248.558496 
L 82.875852 248.17032 
L 85.694034 248.096771 
L 88.512216 252.411656 
L 91.330398 253.612959 
L 94.14858 256.252557 
L 96.966761 252.775316 
L 99.784943 257.50698 
L 102.603125 256.681594 
L 105.421307 259.9055 
L 108.239489 263.382741 
L 111.05767 264.179524 
L 113.875852 265.552442 
L 116.694034 264.003823 
L 119.512216 266.831381 
L 122.330398 269.348397 
L 125.14858 270.533356 
L 127.966761 269.748831 
L 130.784943 273.185212 
L 133.603125 273.320052 
L 136.421307 276.785036 
L 139.239489 275.522442 
L 142.05767 277.324396 
L 144.875852 278.076232 
L 147.694034 278.615593 
L 150.512216 281.116265 
L 153.330398 282.30531 
L 156.14858 281.757777 
L 158.966761 283.66597 
L 161.784943 282.6894 
L 164.603125 283.596507 
L 167.421307 284.344257 
L 170.239489 283.947908 
L 173.05767 284.229847 
L 175.875852 285.65997 
L 178.694034 286.54256 
L 181.512216 286.603851 
L 184.330398 286.150298 
L 187.14858 285.974597 
L 189.966761 287.151384 
L 192.784943 287.065576 
L 195.603125 286.505785 
L 198.421307 287.372031 
L 201.239489 287.478269 
L 204.05767 287.543646 
L 206.875852 288.115695 
L 209.694034 287.960425 
L 212.512216 287.543646 
L 215.330398 287.764293 
L 218.14858 288.634625 
L 220.966761 288.242363 
L 223.784943 289.239363 
L 226.603125 289.32517 
L 229.421307 289.333342 
L 232.239489 288.69183 
L 235.05767 289.239363 
L 237.875852 289.410978 
L 240.694034 289.361945 
L 243.512216 289.345601 
L 246.330398 289.329256 
L 249.14858 289.28431 
L 251.966761 289.382375 
L 254.784943 289.30474 
L 257.603125 289.423236 
L 260.421307 289.415064 
L 263.239489 289.259793 
L 266.05767 289.321084 
L 268.875852 289.361945 
L 271.694034 289.423236 
L 274.512216 289.247535 
L 277.330398 289.504957 
L 280.14858 289.496785 
L 282.966761 289.468183 
L 285.784943 289.476355 
L 288.603125 289.447752 
L 291.421307 289.415064 
L 294.239489 289.484527 
L 297.05767 289.374203 
L 299.875852 289.423236 
L 302.694034 289.455924 
L 305.512216 289.435494 
L 308.330398 289.447752 
L 311.14858 289.492699 
L 313.966761 289.500871 
L 316.784943 289.370117 
L 319.603125 289.517215 
" style="fill:none;stroke:#ff7f0e;stroke-linecap:square;stroke-width:1.5;"/>
   </g>
   <g id="line2d_47">
    <path clip-path="url(#p3f70c2a726)" d="M 40.603125 236.590411 
L 43.421307 235.074481 
L 46.239489 236.77837 
L 49.05767 238.461829 
L 51.875852 238.461829 
L 54.694034 239.009362 
L 57.512216 239.144202 
L 60.330398 240.112599 
L 63.14858 238.343333 
L 65.966761 239.896038 
L 68.784943 242.294558 
L 71.603125 242.64596 
L 74.421307 242.539722 
L 77.239489 244.2763 
L 80.05767 246.478689 
L 82.875852 244.709423 
L 85.694034 245.277386 
L 88.512216 248.538066 
L 91.330398 247.884296 
L 94.14858 250.858951 
L 96.966761 252.29316 
L 99.784943 255.120717 
L 102.603125 257.176008 
L 105.421307 257.772574 
L 108.239489 261.323365 
L 111.05767 260.395828 
L 113.875852 261.01691 
L 116.694034 263.962963 
L 119.512216 265.854811 
L 122.330398 266.827295 
L 125.14858 268.490323 
L 127.966761 269.254417 
L 130.784943 271.199384 
L 133.603125 270.696798 
L 136.421307 272.000253 
L 139.239489 272.474237 
L 142.05767 272.241331 
L 144.875852 275.526528 
L 147.694034 279.686142 
L 150.512216 277.708487 
L 153.330398 279.931306 
L 156.14858 280.339913 
L 158.966761 279.383773 
L 161.784943 281.565732 
L 164.603125 282.423806 
L 167.421307 283.682314 
L 170.239489 283.559732 
L 173.05767 283.731347 
L 175.875852 283.449408 
L 178.694034 283.420806 
L 181.512216 283.412634 
L 184.330398 283.89479 
L 187.14858 284.77738 
L 189.966761 284.920392 
L 192.784943 286.203416 
L 195.603125 285.92965 
L 198.421307 286.146212 
L 201.239489 285.56599 
L 204.05767 285.615023 
L 206.875852 287.6744 
L 209.694034 286.093093 
L 212.512216 286.56299 
L 215.330398 286.65697 
L 218.14858 287.241277 
L 220.966761 288.589679 
L 223.784943 288.013543 
L 226.603125 288.94108 
L 229.421307 288.683658 
L 232.239489 288.201502 
L 235.05767 289.30474 
L 237.875852 288.413978 
L 240.694034 289.145383 
L 243.512216 289.259793 
L 246.330398 289.333342 
L 249.14858 289.28431 
L 251.966761 289.30474 
L 254.784943 289.337429 
L 257.603125 289.247535 
L 260.421307 289.280224 
L 263.239489 289.321084 
L 266.05767 289.390547 
L 268.875852 289.316998 
L 271.694034 289.333342 
L 274.512216 289.427322 
L 277.330398 289.382375 
L 280.14858 289.349687 
L 282.966761 289.353773 
L 285.784943 289.361945 
L 288.603125 289.423236 
L 291.421307 289.472269 
L 294.239489 289.263879 
L 297.05767 289.410978 
L 299.875852 289.337429 
L 302.694034 289.337429 
L 305.512216 289.341515 
L 308.330398 289.255707 
L 311.14858 289.447752 
L 313.966761 289.361945 
L 316.784943 289.410978 
L 319.603125 289.239363 
" style="fill:none;stroke:#2ca02c;stroke-linecap:square;stroke-width:1.5;"/>
   </g>
   <g id="line2d_48">
    <path clip-path="url(#p3f70c2a726)" d="M 40.603125 235.26244 
L 43.421307 235.622014 
L 46.239489 237.554722 
L 49.05767 237.513862 
L 51.875852 236.443313 
L 54.694034 237.464829 
L 57.512216 239.793886 
L 60.330398 239.814317 
L 63.14858 239.67539 
L 65.966761 242.486603 
L 68.784943 241.215837 
L 71.603125 242.678648 
L 74.421307 243.785972 
L 77.239489 244.374365 
L 80.05767 245.616529 
L 82.875852 245.800402 
L 85.694034 246.736111 
L 88.512216 246.413312 
L 91.330398 248.811832 
L 94.14858 250.519808 
L 96.966761 250.197009 
L 99.784943 257.895156 
L 102.603125 256.228041 
L 105.421307 254.981791 
L 108.239489 257.964619 
L 111.05767 256.898156 
L 113.875852 260.056684 
L 116.694034 260.408086 
L 119.512216 264.473721 
L 122.330398 264.338881 
L 125.14858 266.410516 
L 127.966761 268.269676 
L 130.784943 268.894844 
L 133.603125 267.914188 
L 136.421307 268.992909 
L 139.239489 270.64368 
L 142.05767 273.585647 
L 144.875852 275.048458 
L 147.694034 273.953393 
L 150.512216 276.609335 
L 153.330398 279.645282 
L 156.14858 278.088491 
L 158.966761 281.737347 
L 161.784943 280.5197 
L 164.603125 280.854757 
L 167.421307 284.45458 
L 170.239489 284.891789 
L 173.05767 283.661884 
L 175.875852 283.727261 
L 178.694034 285.668142 
L 181.512216 287.028802 
L 184.330398 287.482355 
L 187.14858 287.351601 
L 189.966761 287.114609 
L 192.784943 287.531388 
L 195.603125 287.833757 
L 198.421307 288.083006 
L 201.239489 287.363859 
L 204.05767 287.617195 
L 206.875852 288.070748 
L 209.694034 288.69183 
L 212.512216 288.507957 
L 215.330398 288.724519 
L 218.14858 288.450752 
L 220.966761 288.630539 
L 223.784943 288.667314 
L 226.603125 288.732691 
L 229.421307 288.708174 
L 232.239489 289.002371 
L 235.05767 289.386461 
L 237.875852 288.834843 
L 240.694034 288.822584 
L 243.512216 289.288396 
L 246.330398 289.468183 
L 249.14858 289.28431 
L 251.966761 289.345601 
L 254.784943 289.488613 
L 257.603125 289.390547 
L 260.421307 289.341515 
L 263.239489 289.406892 
L 266.05767 289.394633 
L 268.875852 289.378289 
L 271.694034 289.394633 
L 274.512216 289.431408 
L 277.330398 289.321084 
L 280.14858 289.435494 
L 282.966761 289.431408 
L 285.784943 289.480441 
L 288.603125 289.525388 
L 291.421307 289.500871 
L 294.239489 289.43958 
L 297.05767 289.427322 
L 299.875852 289.406892 
L 302.694034 289.480441 
L 305.512216 289.41915 
L 308.330398 289.447752 
L 311.14858 289.496785 
L 313.966761 289.517215 
L 316.784943 289.43958 
L 319.603125 289.468183 
" style="fill:none;stroke:#d62728;stroke-linecap:square;stroke-width:1.5;"/>
   </g>
   <g id="line2d_49">
    <path clip-path="url(#p3f70c2a726)" d="M 40.603125 237.881608 
L 43.421307 236.843747 
L 46.239489 236.745681 
L 49.05767 237.423968 
L 51.875852 237.338161 
L 54.694034 240.2883 
L 57.512216 238.020534 
L 60.330398 240.296472 
L 63.14858 244.231353 
L 65.966761 240.745939 
L 68.784943 242.662304 
L 71.603125 244.627702 
L 74.421307 245.894382 
L 77.239489 246.074169 
L 80.05767 248.979361 
L 82.875852 248.333763 
L 85.694034 251.144976 
L 88.512216 252.047996 
L 91.330398 253.563926 
L 94.14858 255.823521 
L 96.966761 256.730627 
L 99.784943 258.029996 
L 102.603125 258.834951 
L 105.421307 261.15175 
L 108.239489 263.554356 
L 111.05767 265.033512 
L 113.875852 265.805778 
L 116.694034 266.263418 
L 119.512216 267.656766 
L 122.330398 267.513754 
L 125.14858 268.760003 
L 127.966761 272.633593 
L 130.784943 271.27702 
L 133.603125 274.022856 
L 136.421307 272.882843 
L 139.239489 273.736831 
L 142.05767 274.697056 
L 144.875852 277.671712 
L 147.694034 276.078147 
L 150.512216 279.469581 
L 153.330398 279.424634 
L 156.14858 277.692142 
L 158.966761 279.04463 
L 161.784943 281.206159 
L 164.603125 282.513699 
L 167.421307 281.144868 
L 170.239489 282.599507 
L 173.05767 282.415634 
L 175.875852 282.501441 
L 178.694034 283.980597 
L 181.512216 285.365773 
L 184.330398 284.315654 
L 187.14858 285.185986 
L 189.966761 284.462753 
L 192.784943 285.398462 
L 195.603125 286.346429 
L 198.421307 286.893961 
L 201.239489 286.538474 
L 204.05767 286.930736 
L 206.875852 286.039974 
L 209.694034 286.40772 
L 212.512216 286.133953 
L 215.330398 287.08192 
L 218.14858 287.322998 
L 220.966761 287.792896 
L 223.784943 287.490527 
L 226.603125 287.649884 
L 229.421307 288.6714 
L 232.239489 288.847101 
L 235.05767 288.859359 
L 237.875852 288.091179 
L 240.694034 288.618281 
L 243.512216 289.349687 
L 246.330398 289.370117 
L 249.14858 289.345601 
L 251.966761 289.386461 
L 254.784943 289.370117 
L 257.603125 289.443666 
L 260.421307 289.308826 
L 263.239489 289.406892 
L 266.05767 289.472269 
L 268.875852 289.288396 
L 271.694034 289.333342 
L 274.512216 289.32517 
L 277.330398 289.382375 
L 280.14858 289.366031 
L 282.966761 289.39872 
L 285.784943 289.402806 
L 288.603125 289.410978 
L 291.421307 289.43958 
L 294.239489 289.521301 
L 297.05767 289.423236 
L 299.875852 289.41915 
L 302.694034 289.500871 
L 305.512216 289.464097 
L 308.330398 289.333342 
L 311.14858 289.427322 
L 313.966761 289.370117 
L 316.784943 289.517215 
L 319.603125 289.492699 
" style="fill:none;stroke:#9467bd;stroke-linecap:square;stroke-width:1.5;"/>
   </g>
   <g id="line2d_50">
    <path clip-path="url(#p3f70c2a726)" d="M 40.603125 235.732337 
L 43.421307 238.482259 
L 46.239489 239.638616 
L 49.05767 235.654702 
L 51.875852 240.218837 
L 54.694034 239.548722 
L 57.512216 238.384194 
L 60.330398 240.987017 
L 63.14858 240.856263 
L 65.966761 243.888124 
L 68.784943 242.797144 
L 71.603125 243.340591 
L 74.421307 243.965759 
L 77.239489 243.43457 
L 80.05767 247.177406 
L 82.875852 247.128374 
L 85.694034 250.127546 
L 88.512216 252.995963 
L 91.330398 250.286902 
L 94.14858 253.894898 
L 96.966761 256.608045 
L 99.784943 256.072771 
L 102.603125 259.443774 
L 105.421307 258.626561 
L 108.239489 260.469377 
L 111.05767 261.511324 
L 113.875852 264.167266 
L 116.694034 263.746401 
L 119.512216 267.791606 
L 122.330398 265.111147 
L 125.14858 267.550528 
L 127.966761 265.482979 
L 130.784943 272.535528 
L 133.603125 271.464979 
L 136.421307 271.714229 
L 139.239489 272.135093 
L 142.05767 275.007597 
L 144.875852 274.80738 
L 147.694034 276.535786 
L 150.512216 278.468495 
L 153.330398 278.427634 
L 156.14858 278.521614 
L 158.966761 278.239675 
L 161.784943 278.345913 
L 164.603125 278.979253 
L 167.421307 280.098835 
L 170.239489 281.03863 
L 173.05767 282.276708 
L 175.875852 281.94165 
L 178.694034 283.825326 
L 181.512216 283.008113 
L 184.330398 283.576076 
L 187.14858 283.110265 
L 189.966761 284.605765 
L 192.784943 285.643625 
L 195.603125 286.162556 
L 198.421307 286.799982 
L 201.239489 286.138039 
L 204.05767 286.881703 
L 206.875852 286.379117 
L 209.694034 287.515043 
L 212.512216 287.486441 
L 215.330398 287.976769 
L 218.14858 287.510957 
L 220.966761 287.890961 
L 223.784943 287.600851 
L 226.603125 287.989027 
L 229.421307 287.907306 
L 232.239489 287.596765 
L 235.05767 288.242363 
L 237.875852 288.091179 
L 240.694034 288.242363 
L 243.512216 288.908392 
L 246.330398 288.871617 
L 249.14858 289.206674 
L 251.966761 289.239363 
L 254.784943 288.953338 
L 257.603125 289.218933 
L 260.421307 288.847101 
L 263.239489 289.28431 
L 266.05767 289.415064 
L 268.875852 289.182158 
L 271.694034 289.43958 
L 274.512216 289.280224 
L 277.330398 289.460011 
L 280.14858 289.406892 
L 282.966761 289.366031 
L 285.784943 289.427322 
L 288.603125 289.378289 
L 291.421307 289.447752 
L 294.239489 289.455924 
L 297.05767 289.402806 
L 299.875852 289.345601 
L 302.694034 289.374203 
L 305.512216 289.451838 
L 308.330398 289.378289 
L 311.14858 289.415064 
L 313.966761 289.41915 
L 316.784943 289.41915 
L 319.603125 289.333342 
" style="fill:none;stroke:#8c564b;stroke-linecap:square;stroke-width:1.5;"/>
   </g>
   <g id="line2d_51">
    <path clip-path="url(#p3f70c2a726)" d="M 40.603125 235.184805 
L 43.421307 237.260526 
L 46.239489 237.219665 
L 49.05767 237.759026 
L 51.875852 238.568067 
L 54.694034 240.374108 
L 57.512216 238.821403 
L 60.330398 238.470001 
L 63.14858 238.821403 
L 65.966761 240.872607 
L 68.784943 244.456087 
L 71.603125 241.612185 
L 74.421307 245.240611 
L 77.239489 246.682992 
L 80.05767 245.432656 
L 82.875852 249.069255 
L 85.694034 248.971189 
L 88.512216 247.970103 
L 91.330398 249.821091 
L 94.14858 252.146062 
L 96.966761 254.520066 
L 99.784943 254.695767 
L 102.603125 254.160492 
L 105.421307 259.762488 
L 108.239489 258.810434 
L 111.05767 261.67068 
L 113.875852 262.075201 
L 116.694034 261.053684 
L 119.512216 263.014996 
L 122.330398 267.027512 
L 125.14858 269.270762 
L 127.966761 269.838725 
L 130.784943 269.274848 
L 133.603125 272.077889 
L 136.421307 273.896188 
L 139.239489 275.951478 
L 142.05767 276.482667 
L 144.875852 277.312138 
L 147.694034 278.403118 
L 150.512216 279.432806 
L 153.330398 279.445064 
L 156.14858 281.659712 
L 158.966761 281.855843 
L 161.784943 282.133695 
L 164.603125 282.084663 
L 167.421307 283.257363 
L 170.239489 284.695658 
L 173.05767 284.675228 
L 175.875852 283.980597 
L 178.694034 284.998027 
L 181.512216 284.560818 
L 184.330398 284.961253 
L 187.14858 286.481269 
L 189.966761 286.276966 
L 192.784943 287.408806 
L 195.603125 287.322998 
L 198.421307 287.367945 
L 201.239489 287.151384 
L 204.05767 287.670314 
L 206.875852 287.886875 
L 209.694034 288.164728 
L 212.512216 288.209675 
L 215.330398 288.352687 
L 218.14858 288.32817 
L 220.966761 288.262793 
L 223.784943 288.299568 
L 226.603125 288.552904 
L 229.421307 288.356773 
L 232.239489 288.630539 
L 235.05767 288.209675 
L 237.875852 288.704088 
L 240.694034 288.242363 
L 243.512216 288.369031 
L 246.330398 288.291396 
L 249.14858 288.30774 
L 251.966761 288.859359 
L 254.784943 288.369031 
L 257.603125 288.781724 
L 260.421307 288.30774 
L 263.239489 288.863445 
L 266.05767 288.311826 
L 268.875852 288.724519 
L 271.694034 289.006457 
L 274.512216 288.44258 
L 277.330398 288.340429 
L 280.14858 289.406892 
L 282.966761 288.352687 
L 285.784943 289.394633 
L 288.603125 288.924736 
L 291.421307 289.451838 
L 294.239489 289.41915 
L 297.05767 289.509043 
L 299.875852 289.272052 
L 302.694034 289.337429 
L 305.512216 289.468183 
L 308.330398 289.484527 
L 311.14858 289.53356 
L 313.966761 289.41915 
L 316.784943 289.468183 
L 319.603125 289.447752 
" style="fill:none;stroke:#e377c2;stroke-linecap:square;stroke-width:1.5;"/>
   </g>
   <g id="line2d_52">
    <path clip-path="url(#p3f70c2a726)" d="M 40.603125 236.222665 
L 43.421307 237.452571 
L 46.239489 237.987845 
L 49.05767 237.873436 
L 51.875852 239.283128 
L 54.694034 241.849177 
L 57.512216 237.366763 
L 60.330398 239.663132 
L 63.14858 238.396452 
L 65.966761 242.923812 
L 68.784943 241.902296 
L 71.603125 242.744025 
L 74.421307 242.429398 
L 77.239489 244.513292 
L 80.05767 245.50212 
L 82.875852 245.763628 
L 85.694034 246.666648 
L 88.512216 245.461259 
L 91.330398 253.122631 
L 94.14858 251.132718 
L 96.966761 251.173578 
L 99.784943 250.262386 
L 102.603125 255.888898 
L 105.421307 256.089115 
L 108.239489 255.574271 
L 111.05767 260.31002 
L 113.875852 261.936274 
L 116.694034 265.033512 
L 119.512216 265.961049 
L 122.330398 264.886414 
L 125.14858 264.624905 
L 127.966761 267.615905 
L 130.784943 271.268848 
L 133.603125 268.584303 
L 136.421307 272.519184 
L 139.239489 275.522442 
L 142.05767 272.633593 
L 144.875852 276.131265 
L 147.694034 274.202643 
L 150.512216 276.862671 
L 153.330398 277.728917 
L 156.14858 277.099663 
L 158.966761 278.157954 
L 161.784943 280.65454 
L 164.603125 280.491097 
L 167.421307 281.161212 
L 170.239489 281.598421 
L 173.05767 281.283794 
L 175.875852 283.621023 
L 178.694034 283.294138 
L 181.512216 283.878445 
L 184.330398 284.086835 
L 187.14858 284.1849 
L 189.966761 284.07049 
L 192.784943 284.20533 
L 195.603125 284.054146 
L 198.421307 285.619109 
L 201.239489 286.109437 
L 204.05767 286.281052 
L 206.875852 286.83267 
L 209.694034 287.727519 
L 212.512216 287.482355 
L 215.330398 287.188158 
L 218.14858 287.220847 
L 220.966761 288.099351 
L 223.784943 288.42215 
L 226.603125 288.597851 
L 229.421307 288.597851 
L 232.239489 288.855273 
L 235.05767 288.626453 
L 237.875852 289.210761 
L 240.694034 288.467097 
L 243.512216 288.740863 
L 246.330398 289.235277 
L 249.14858 289.312912 
L 251.966761 289.276138 
L 254.784943 289.357859 
L 257.603125 289.300654 
L 260.421307 289.488613 
L 263.239489 289.488613 
L 266.05767 289.43958 
L 268.875852 289.488613 
L 271.694034 289.41915 
L 274.512216 289.357859 
L 277.330398 289.378289 
L 280.14858 289.300654 
L 282.966761 289.390547 
L 285.784943 289.517215 
L 288.603125 289.513129 
L 291.421307 289.431408 
L 294.239489 289.484527 
L 297.05767 289.513129 
L 299.875852 289.488613 
L 302.694034 289.378289 
L 305.512216 289.39872 
L 308.330398 289.386461 
L 311.14858 289.476355 
L 313.966761 289.500871 
L 316.784943 289.566248 
L 319.603125 289.366031 
" style="fill:none;stroke:#7f7f7f;stroke-linecap:square;stroke-width:1.5;"/>
   </g>
   <g id="line2d_53">
    <path clip-path="url(#p3f70c2a726)" d="M 40.603125 238.163546 
L 43.421307 236.312559 
L 46.239489 238.339247 
L 49.05767 238.359677 
L 51.875852 236.627186 
L 54.694034 239.875608 
L 57.512216 238.13903 
L 60.330398 240.864435 
L 63.14858 243.532636 
L 65.966761 244.447915 
L 68.784943 242.470259 
L 71.603125 242.7808 
L 74.421307 241.632616 
L 77.239489 246.67482 
L 80.05767 245.399968 
L 82.875852 248.521722 
L 85.694034 246.748369 
L 88.512216 249.829263 
L 91.330398 252.979619 
L 94.14858 253.400484 
L 96.966761 252.575099 
L 99.784943 255.790832 
L 102.603125 260.081201 
L 105.421307 261.253901 
L 108.239489 257.948275 
L 111.05767 261.968963 
L 113.875852 261.466377 
L 116.694034 263.198869 
L 119.512216 263.676938 
L 122.330398 268.310536 
L 125.14858 269.066458 
L 127.966761 268.351397 
L 130.784943 268.40043 
L 133.603125 272.012511 
L 136.421307 272.641766 
L 139.239489 276.294708 
L 142.05767 273.475323 
L 144.875852 276.625679 
L 147.694034 276.192556 
L 150.512216 276.05363 
L 153.330398 278.938392 
L 156.14858 278.0272 
L 158.966761 278.194728 
L 161.784943 279.800552 
L 164.603125 282.223589 
L 167.421307 279.028286 
L 170.239489 280.760777 
L 173.05767 282.685314 
L 175.875852 284.699744 
L 178.694034 283.138867 
L 181.512216 284.871359 
L 184.330398 285.843843 
L 187.14858 287.077834 
L 189.966761 286.174814 
L 192.784943 285.839757 
L 195.603125 288.099351 
L 198.421307 287.609023 
L 201.239489 287.44558 
L 204.05767 287.727519 
L 206.875852 288.099351 
L 209.694034 288.765379 
L 212.512216 288.03806 
L 215.330398 288.315912 
L 218.14858 288.843015 
L 220.966761 289.063662 
L 223.784943 288.94108 
L 226.603125 289.406892 
L 229.421307 288.704088 
L 232.239489 288.781724 
L 235.05767 289.210761 
L 237.875852 289.32517 
L 240.694034 289.214847 
L 243.512216 289.460011 
L 246.330398 288.961511 
L 249.14858 288.875703 
L 251.966761 289.423236 
L 254.784943 289.1699 
L 257.603125 289.484527 
L 260.421307 289.480441 
L 263.239489 289.500871 
L 266.05767 289.504957 
L 268.875852 289.415064 
L 271.694034 289.427322 
L 274.512216 289.476355 
L 277.330398 289.410978 
L 280.14858 289.41915 
L 282.966761 289.455924 
L 285.784943 289.55399 
L 288.603125 289.476355 
L 291.421307 289.57442 
L 294.239489 289.496785 
L 297.05767 289.607109 
L 299.875852 289.656142 
L 302.694034 289.374203 
L 305.512216 289.541732 
L 308.330398 289.500871 
L 311.14858 289.53356 
L 313.966761 289.492699 
L 316.784943 289.43958 
L 319.603125 289.451838 
" style="fill:none;stroke:#bcbd22;stroke-linecap:square;stroke-width:1.5;"/>
   </g>
   <g id="line2d_54">
    <path clip-path="url(#p3f70c2a726)" d="M 40.603125 290.440666 
L 319.603125 290.440666 
" style="fill:none;stroke:#808080;stroke-dasharray:5.55,2.4;stroke-dashoffset:0;stroke-width:1.5;"/>
   </g>
   <g id="patch_9">
    <path d="M 40.603125 294.118125 
L 40.603125 232.345398 
" style="fill:none;stroke:#000000;stroke-linecap:square;stroke-linejoin:miter;stroke-width:0.8;"/>
   </g>
   <g id="patch_10">
    <path d="M 40.603125 294.118125 
L 319.603125 294.118125 
" style="fill:none;stroke:#000000;stroke-linecap:square;stroke-linejoin:miter;stroke-width:0.8;"/>
   </g>
   <g id="text_29">
    <!-- Labyrinth -->
    <g transform="translate(151.632188 226.345398)scale(0.12 -0.12)">
     <defs>
      <path d="M 3116 1747 
Q 3116 2381 2855 2742 
Q 2594 3103 2138 3103 
Q 1681 3103 1420 2742 
Q 1159 2381 1159 1747 
Q 1159 1113 1420 752 
Q 1681 391 2138 391 
Q 2594 391 2855 752 
Q 3116 1113 3116 1747 
z
M 1159 2969 
Q 1341 3281 1617 3432 
Q 1894 3584 2278 3584 
Q 2916 3584 3314 3078 
Q 3713 2572 3713 1747 
Q 3713 922 3314 415 
Q 2916 -91 2278 -91 
Q 1894 -91 1617 61 
Q 1341 213 1159 525 
L 1159 0 
L 581 0 
L 581 4863 
L 1159 4863 
L 1159 2969 
z
" id="DejaVuSans-62" transform="scale(0.015625)"/>
      <path d="M 3513 2113 
L 3513 0 
L 2938 0 
L 2938 2094 
Q 2938 2591 2744 2837 
Q 2550 3084 2163 3084 
Q 1697 3084 1428 2787 
Q 1159 2491 1159 1978 
L 1159 0 
L 581 0 
L 581 4863 
L 1159 4863 
L 1159 2956 
Q 1366 3272 1645 3428 
Q 1925 3584 2291 3584 
Q 2894 3584 3203 3211 
Q 3513 2838 3513 2113 
z
" id="DejaVuSans-68" transform="scale(0.015625)"/>
     </defs>
     <use xlink:href="#DejaVuSans-4c"/>
     <use x="55.712891" xlink:href="#DejaVuSans-61"/>
     <use x="116.992188" xlink:href="#DejaVuSans-62"/>
     <use x="180.46875" xlink:href="#DejaVuSans-79"/>
     <use x="239.648438" xlink:href="#DejaVuSans-72"/>
     <use x="280.761719" xlink:href="#DejaVuSans-69"/>
     <use x="308.544922" xlink:href="#DejaVuSans-6e"/>
     <use x="371.923828" xlink:href="#DejaVuSans-74"/>
     <use x="411.132812" xlink:href="#DejaVuSans-68"/>
    </g>
   </g>
   <g id="legend_1">
    <g id="patch_11">
     <path d="M 28.345313 365.449375 
L 331.860937 365.449375 
Q 333.860937 365.449375 333.860937 363.449375 
L 333.860937 335.093125 
Q 333.860937 333.093125 331.860937 333.093125 
L 28.345313 333.093125 
Q 26.345313 333.093125 26.345313 335.093125 
L 26.345313 363.449375 
Q 26.345313 365.449375 28.345313 365.449375 
z
" style="fill:#ffffff;opacity:0.8;stroke:#cccccc;stroke-linejoin:miter;"/>
    </g>
    <g id="line2d_55">
     <path d="M 30.345313 341.191562 
L 50.345313 341.191562 
" style="fill:none;stroke:#1f77b4;stroke-linecap:square;stroke-width:1.5;"/>
    </g>
    <g id="line2d_56"/>
    <g id="text_30">
     <!-- 0.1 -->
     <g transform="translate(58.345313 344.691562)scale(0.1 -0.1)">
      <defs>
       <path d="M 684 794 
L 1344 794 
L 1344 0 
L 684 0 
L 684 794 
z
" id="DejaVuSans-2e" transform="scale(0.015625)"/>
      </defs>
      <use xlink:href="#DejaVuSans-30"/>
      <use x="63.623047" xlink:href="#DejaVuSans-2e"/>
      <use x="95.410156" xlink:href="#DejaVuSans-31"/>
     </g>
    </g>
    <g id="line2d_57">
     <path d="M 30.345313 355.869687 
L 50.345313 355.869687 
" style="fill:none;stroke:#ff7f0e;stroke-linecap:square;stroke-width:1.5;"/>
    </g>
    <g id="line2d_58"/>
    <g id="text_31">
     <!-- 0.2 -->
     <g transform="translate(58.345313 359.369687)scale(0.1 -0.1)">
      <use xlink:href="#DejaVuSans-30"/>
      <use x="63.623047" xlink:href="#DejaVuSans-2e"/>
      <use x="95.410156" xlink:href="#DejaVuSans-32"/>
     </g>
    </g>
    <g id="line2d_59">
     <path d="M 94.248438 341.191562 
L 114.248438 341.191562 
" style="fill:none;stroke:#2ca02c;stroke-linecap:square;stroke-width:1.5;"/>
    </g>
    <g id="line2d_60"/>
    <g id="text_32">
     <!-- 0.3 -->
     <g transform="translate(122.248438 344.691562)scale(0.1 -0.1)">
      <defs>
       <path d="M 2597 2516 
Q 3050 2419 3304 2112 
Q 3559 1806 3559 1356 
Q 3559 666 3084 287 
Q 2609 -91 1734 -91 
Q 1441 -91 1130 -33 
Q 819 25 488 141 
L 488 750 
Q 750 597 1062 519 
Q 1375 441 1716 441 
Q 2309 441 2620 675 
Q 2931 909 2931 1356 
Q 2931 1769 2642 2001 
Q 2353 2234 1838 2234 
L 1294 2234 
L 1294 2753 
L 1863 2753 
Q 2328 2753 2575 2939 
Q 2822 3125 2822 3475 
Q 2822 3834 2567 4026 
Q 2313 4219 1838 4219 
Q 1578 4219 1281 4162 
Q 984 4106 628 3988 
L 628 4550 
Q 988 4650 1302 4700 
Q 1616 4750 1894 4750 
Q 2613 4750 3031 4423 
Q 3450 4097 3450 3541 
Q 3450 3153 3228 2886 
Q 3006 2619 2597 2516 
z
" id="DejaVuSans-33" transform="scale(0.015625)"/>
      </defs>
      <use xlink:href="#DejaVuSans-30"/>
      <use x="63.623047" xlink:href="#DejaVuSans-2e"/>
      <use x="95.410156" xlink:href="#DejaVuSans-33"/>
     </g>
    </g>
    <g id="line2d_61">
     <path d="M 94.248438 355.869687 
L 114.248438 355.869687 
" style="fill:none;stroke:#d62728;stroke-linecap:square;stroke-width:1.5;"/>
    </g>
    <g id="line2d_62"/>
    <g id="text_33">
     <!-- 0.4 -->
     <g transform="translate(122.248438 359.369687)scale(0.1 -0.1)">
      <use xlink:href="#DejaVuSans-30"/>
      <use x="63.623047" xlink:href="#DejaVuSans-2e"/>
      <use x="95.410156" xlink:href="#DejaVuSans-34"/>
     </g>
    </g>
    <g id="line2d_63">
     <path d="M 158.151563 341.191562 
L 178.151563 341.191562 
" style="fill:none;stroke:#9467bd;stroke-linecap:square;stroke-width:1.5;"/>
    </g>
    <g id="line2d_64"/>
    <g id="text_34">
     <!-- 0.5 -->
     <g transform="translate(186.151563 344.691562)scale(0.1 -0.1)">
      <use xlink:href="#DejaVuSans-30"/>
      <use x="63.623047" xlink:href="#DejaVuSans-2e"/>
      <use x="95.410156" xlink:href="#DejaVuSans-35"/>
     </g>
    </g>
    <g id="line2d_65">
     <path d="M 158.151563 355.869687 
L 178.151563 355.869687 
" style="fill:none;stroke:#8c564b;stroke-linecap:square;stroke-width:1.5;"/>
    </g>
    <g id="line2d_66"/>
    <g id="text_35">
     <!-- 0.6 -->
     <g transform="translate(186.151563 359.369687)scale(0.1 -0.1)">
      <use xlink:href="#DejaVuSans-30"/>
      <use x="63.623047" xlink:href="#DejaVuSans-2e"/>
      <use x="95.410156" xlink:href="#DejaVuSans-36"/>
     </g>
    </g>
    <g id="line2d_67">
     <path d="M 222.054688 341.191562 
L 242.054688 341.191562 
" style="fill:none;stroke:#e377c2;stroke-linecap:square;stroke-width:1.5;"/>
    </g>
    <g id="line2d_68"/>
    <g id="text_36">
     <!-- 0.7 -->
     <g transform="translate(250.054688 344.691562)scale(0.1 -0.1)">
      <defs>
       <path d="M 525 4666 
L 3525 4666 
L 3525 4397 
L 1831 0 
L 1172 0 
L 2766 4134 
L 525 4134 
L 525 4666 
z
" id="DejaVuSans-37" transform="scale(0.015625)"/>
      </defs>
      <use xlink:href="#DejaVuSans-30"/>
      <use x="63.623047" xlink:href="#DejaVuSans-2e"/>
      <use x="95.410156" xlink:href="#DejaVuSans-37"/>
     </g>
    </g>
    <g id="line2d_69">
     <path d="M 222.054688 355.869687 
L 242.054688 355.869687 
" style="fill:none;stroke:#7f7f7f;stroke-linecap:square;stroke-width:1.5;"/>
    </g>
    <g id="line2d_70"/>
    <g id="text_37">
     <!-- 0.8 -->
     <g transform="translate(250.054688 359.369687)scale(0.1 -0.1)">
      <use xlink:href="#DejaVuSans-30"/>
      <use x="63.623047" xlink:href="#DejaVuSans-2e"/>
      <use x="95.410156" xlink:href="#DejaVuSans-38"/>
     </g>
    </g>
    <g id="line2d_71">
     <path d="M 285.957813 341.191562 
L 305.957813 341.191562 
" style="fill:none;stroke:#bcbd22;stroke-linecap:square;stroke-width:1.5;"/>
    </g>
    <g id="line2d_72"/>
    <g id="text_38">
     <!-- 0.9 -->
     <g transform="translate(313.957813 344.691562)scale(0.1 -0.1)">
      <defs>
       <path d="M 703 97 
L 703 672 
Q 941 559 1184 500 
Q 1428 441 1663 441 
Q 2288 441 2617 861 
Q 2947 1281 2994 2138 
Q 2813 1869 2534 1725 
Q 2256 1581 1919 1581 
Q 1219 1581 811 2004 
Q 403 2428 403 3163 
Q 403 3881 828 4315 
Q 1253 4750 1959 4750 
Q 2769 4750 3195 4129 
Q 3622 3509 3622 2328 
Q 3622 1225 3098 567 
Q 2575 -91 1691 -91 
Q 1453 -91 1209 -44 
Q 966 3 703 97 
z
M 1959 2075 
Q 2384 2075 2632 2365 
Q 2881 2656 2881 3163 
Q 2881 3666 2632 3958 
Q 2384 4250 1959 4250 
Q 1534 4250 1286 3958 
Q 1038 3666 1038 3163 
Q 1038 2656 1286 2365 
Q 1534 2075 1959 2075 
z
" id="DejaVuSans-39" transform="scale(0.015625)"/>
      </defs>
      <use xlink:href="#DejaVuSans-30"/>
      <use x="63.623047" xlink:href="#DejaVuSans-2e"/>
      <use x="95.410156" xlink:href="#DejaVuSans-39"/>
     </g>
    </g>
   </g>
  </g>
 </g>
 <defs>
  <clipPath id="p2f80e527e3">
   <rect height="61.772727" width="279" x="40.603125" y="22.318125"/>
  </clipPath>
  <clipPath id="p4c57161aa1">
   <rect height="61.772727" width="279" x="40.603125" y="127.331761"/>
  </clipPath>
  <clipPath id="p3f70c2a726">
   <rect height="61.772727" width="279" x="40.603125" y="232.345398"/>
  </clipPath>
 </defs>
</svg>
