<?xml version="1.0" encoding="utf-8" standalone="no"?>
<!DOCTYPE svg PUBLIC "-//W3C//DTD SVG 1.1//EN"
  "http://www.w3.org/Graphics/SVG/1.1/DTD/svg11.dtd">
<svg height="319.670062pt" version="1.1" viewBox="0 0 560.751562 319.670062" width="560.751562pt" xmlns="http://www.w3.org/2000/svg" xmlns:xlink="http://www.w3.org/1999/xlink">
 <metadata>
  <rdf:RDF xmlns:cc="http://creativecommons.org/ns#" xmlns:dc="http://purl.org/dc/elements/1.1/" xmlns:rdf="http://www.w3.org/1999/02/22-rdf-syntax-ns#">
   <cc:Work>
    <dc:type rdf:resource="http://purl.org/dc/dcmitype/StillImage"/>
    <dc:date>2022-07-21T20:26:31.539498</dc:date>
    <dc:format>image/svg+xml</dc:format>
    <dc:creator>
     <cc:Agent>
      <dc:title>Matplotlib v3.4.3, https://matplotlib.org/</dc:title>
     </cc:Agent>
    </dc:creator>
   </cc:Work>
  </rdf:RDF>
 </metadata>
 <defs>
  <style type="text/css">*{stroke-linecap:butt;stroke-linejoin:round;}</style>
 </defs>
 <g id="figure_1">
  <g id="patch_1">
   <path d="M 0 319.670062 
L 560.751562 319.670062 
L 560.751562 0 
L 0 0 
z
" style="fill:none;"/>
  </g>
  <g id="axes_1">
   <g id="patch_2">
    <path d="M 112.975781 245.836875 
L 447.775781 245.836875 
L 447.775781 28.396875 
L 112.975781 28.396875 
z
" style="fill:none;"/>
   </g>
   <g id="matplotlib.axis_1">
    <g id="xtick_1">
     <g id="line2d_1">
      <defs>
       <path d="M 0 0 
L 0 3.5 
" id="m94f91fe4c8" style="stroke:#000000;stroke-width:0.8;"/>
      </defs>
      <g>
       <use style="stroke:#000000;stroke-width:0.8;" x="112.975781" xlink:href="#m94f91fe4c8" y="245.836875"/>
      </g>
     </g>
     <g id="text_1">
      <!-- 1 -->
      <g transform="translate(108.203906 264.234531)scale(0.15 -0.15)">
       <defs>
        <path d="M 794 531 
L 1825 531 
L 1825 4091 
L 703 3866 
L 703 4441 
L 1819 4666 
L 2450 4666 
L 2450 531 
L 3481 531 
L 3481 0 
L 794 0 
L 794 531 
z
" id="DejaVuSans-31" transform="scale(0.015625)"/>
       </defs>
       <use xlink:href="#DejaVuSans-31"/>
      </g>
     </g>
    </g>
    <g id="xtick_2">
     <g id="line2d_2">
      <g>
       <use style="stroke:#000000;stroke-width:0.8;" x="153.353671" xlink:href="#m94f91fe4c8" y="245.836875"/>
      </g>
     </g>
     <g id="text_2">
      <!-- 25 -->
      <g transform="translate(143.809921 264.234531)scale(0.15 -0.15)">
       <defs>
        <path d="M 1228 531 
L 3431 531 
L 3431 0 
L 469 0 
L 469 531 
Q 828 903 1448 1529 
Q 2069 2156 2228 2338 
Q 2531 2678 2651 2914 
Q 2772 3150 2772 3378 
Q 2772 3750 2511 3984 
Q 2250 4219 1831 4219 
Q 1534 4219 1204 4116 
Q 875 4013 500 3803 
L 500 4441 
Q 881 4594 1212 4672 
Q 1544 4750 1819 4750 
Q 2544 4750 2975 4387 
Q 3406 4025 3406 3419 
Q 3406 3131 3298 2873 
Q 3191 2616 2906 2266 
Q 2828 2175 2409 1742 
Q 1991 1309 1228 531 
z
" id="DejaVuSans-32" transform="scale(0.015625)"/>
        <path d="M 691 4666 
L 3169 4666 
L 3169 4134 
L 1269 4134 
L 1269 2991 
Q 1406 3038 1543 3061 
Q 1681 3084 1819 3084 
Q 2600 3084 3056 2656 
Q 3513 2228 3513 1497 
Q 3513 744 3044 326 
Q 2575 -91 1722 -91 
Q 1428 -91 1123 -41 
Q 819 9 494 109 
L 494 744 
Q 775 591 1075 516 
Q 1375 441 1709 441 
Q 2250 441 2565 725 
Q 2881 1009 2881 1497 
Q 2881 1984 2565 2268 
Q 2250 2553 1709 2553 
Q 1456 2553 1204 2497 
Q 953 2441 691 2322 
L 691 4666 
z
" id="DejaVuSans-35" transform="scale(0.015625)"/>
       </defs>
       <use xlink:href="#DejaVuSans-32"/>
       <use x="63.623047" xlink:href="#DejaVuSans-35"/>
      </g>
     </g>
    </g>
    <g id="xtick_3">
     <g id="line2d_3">
      <g>
       <use style="stroke:#000000;stroke-width:0.8;" x="195.413972" xlink:href="#m94f91fe4c8" y="245.836875"/>
      </g>
     </g>
     <g id="text_3">
      <!-- 50 -->
      <g transform="translate(185.870222 264.234531)scale(0.15 -0.15)">
       <defs>
        <path d="M 2034 4250 
Q 1547 4250 1301 3770 
Q 1056 3291 1056 2328 
Q 1056 1369 1301 889 
Q 1547 409 2034 409 
Q 2525 409 2770 889 
Q 3016 1369 3016 2328 
Q 3016 3291 2770 3770 
Q 2525 4250 2034 4250 
z
M 2034 4750 
Q 2819 4750 3233 4129 
Q 3647 3509 3647 2328 
Q 3647 1150 3233 529 
Q 2819 -91 2034 -91 
Q 1250 -91 836 529 
Q 422 1150 422 2328 
Q 422 3509 836 4129 
Q 1250 4750 2034 4750 
z
" id="DejaVuSans-30" transform="scale(0.015625)"/>
       </defs>
       <use xlink:href="#DejaVuSans-35"/>
       <use x="63.623047" xlink:href="#DejaVuSans-30"/>
      </g>
     </g>
    </g>
    <g id="xtick_4">
     <g id="line2d_4">
      <g>
       <use style="stroke:#000000;stroke-width:0.8;" x="237.474274" xlink:href="#m94f91fe4c8" y="245.836875"/>
      </g>
     </g>
     <g id="text_4">
      <!-- 75 -->
      <g transform="translate(227.930524 264.234531)scale(0.15 -0.15)">
       <defs>
        <path d="M 525 4666 
L 3525 4666 
L 3525 4397 
L 1831 0 
L 1172 0 
L 2766 4134 
L 525 4134 
L 525 4666 
z
" id="DejaVuSans-37" transform="scale(0.015625)"/>
       </defs>
       <use xlink:href="#DejaVuSans-37"/>
       <use x="63.623047" xlink:href="#DejaVuSans-35"/>
      </g>
     </g>
    </g>
    <g id="xtick_5">
     <g id="line2d_5">
      <g>
       <use style="stroke:#000000;stroke-width:0.8;" x="279.534575" xlink:href="#m94f91fe4c8" y="245.836875"/>
      </g>
     </g>
     <g id="text_5">
      <!-- 100 -->
      <g transform="translate(265.21895 264.234531)scale(0.15 -0.15)">
       <use xlink:href="#DejaVuSans-31"/>
       <use x="63.623047" xlink:href="#DejaVuSans-30"/>
       <use x="127.246094" xlink:href="#DejaVuSans-30"/>
      </g>
     </g>
    </g>
    <g id="xtick_6">
     <g id="line2d_6">
      <g>
       <use style="stroke:#000000;stroke-width:0.8;" x="321.594877" xlink:href="#m94f91fe4c8" y="245.836875"/>
      </g>
     </g>
     <g id="text_6">
      <!-- 125 -->
      <g transform="translate(307.279252 264.234531)scale(0.15 -0.15)">
       <use xlink:href="#DejaVuSans-31"/>
       <use x="63.623047" xlink:href="#DejaVuSans-32"/>
       <use x="127.246094" xlink:href="#DejaVuSans-35"/>
      </g>
     </g>
    </g>
    <g id="xtick_7">
     <g id="line2d_7">
      <g>
       <use style="stroke:#000000;stroke-width:0.8;" x="363.655178" xlink:href="#m94f91fe4c8" y="245.836875"/>
      </g>
     </g>
     <g id="text_7">
      <!-- 150 -->
      <g transform="translate(349.339553 264.234531)scale(0.15 -0.15)">
       <use xlink:href="#DejaVuSans-31"/>
       <use x="63.623047" xlink:href="#DejaVuSans-35"/>
       <use x="127.246094" xlink:href="#DejaVuSans-30"/>
      </g>
     </g>
    </g>
    <g id="xtick_8">
     <g id="line2d_8">
      <g>
       <use style="stroke:#000000;stroke-width:0.8;" x="405.71548" xlink:href="#m94f91fe4c8" y="245.836875"/>
      </g>
     </g>
     <g id="text_8">
      <!-- 175 -->
      <g transform="translate(391.399855 264.234531)scale(0.15 -0.15)">
       <use xlink:href="#DejaVuSans-31"/>
       <use x="63.623047" xlink:href="#DejaVuSans-37"/>
       <use x="127.246094" xlink:href="#DejaVuSans-35"/>
      </g>
     </g>
    </g>
    <g id="xtick_9">
     <g id="line2d_9">
      <g>
       <use style="stroke:#000000;stroke-width:0.8;" x="447.775781" xlink:href="#m94f91fe4c8" y="245.836875"/>
      </g>
     </g>
     <g id="text_9">
      <!-- 200 -->
      <g transform="translate(433.460156 264.234531)scale(0.15 -0.15)">
       <use xlink:href="#DejaVuSans-32"/>
       <use x="63.623047" xlink:href="#DejaVuSans-30"/>
       <use x="127.246094" xlink:href="#DejaVuSans-30"/>
      </g>
     </g>
    </g>
    <g id="text_10">
     <!-- Trial -->
     <g transform="translate(265.054688 282.751719)scale(0.15 -0.15)">
      <defs>
       <path d="M -19 4666 
L 3928 4666 
L 3928 4134 
L 2272 4134 
L 2272 0 
L 1638 0 
L 1638 4134 
L -19 4134 
L -19 4666 
z
" id="DejaVuSans-54" transform="scale(0.015625)"/>
       <path d="M 2631 2963 
Q 2534 3019 2420 3045 
Q 2306 3072 2169 3072 
Q 1681 3072 1420 2755 
Q 1159 2438 1159 1844 
L 1159 0 
L 581 0 
L 581 3500 
L 1159 3500 
L 1159 2956 
Q 1341 3275 1631 3429 
Q 1922 3584 2338 3584 
Q 2397 3584 2469 3576 
Q 2541 3569 2628 3553 
L 2631 2963 
z
" id="DejaVuSans-72" transform="scale(0.015625)"/>
       <path d="M 603 3500 
L 1178 3500 
L 1178 0 
L 603 0 
L 603 3500 
z
M 603 4863 
L 1178 4863 
L 1178 4134 
L 603 4134 
L 603 4863 
z
" id="DejaVuSans-69" transform="scale(0.015625)"/>
       <path d="M 2194 1759 
Q 1497 1759 1228 1600 
Q 959 1441 959 1056 
Q 959 750 1161 570 
Q 1363 391 1709 391 
Q 2188 391 2477 730 
Q 2766 1069 2766 1631 
L 2766 1759 
L 2194 1759 
z
M 3341 1997 
L 3341 0 
L 2766 0 
L 2766 531 
Q 2569 213 2275 61 
Q 1981 -91 1556 -91 
Q 1019 -91 701 211 
Q 384 513 384 1019 
Q 384 1609 779 1909 
Q 1175 2209 1959 2209 
L 2766 2209 
L 2766 2266 
Q 2766 2663 2505 2880 
Q 2244 3097 1772 3097 
Q 1472 3097 1187 3025 
Q 903 2953 641 2809 
L 641 3341 
Q 956 3463 1253 3523 
Q 1550 3584 1831 3584 
Q 2591 3584 2966 3190 
Q 3341 2797 3341 1997 
z
" id="DejaVuSans-61" transform="scale(0.015625)"/>
       <path d="M 603 4863 
L 1178 4863 
L 1178 0 
L 603 0 
L 603 4863 
z
" id="DejaVuSans-6c" transform="scale(0.015625)"/>
      </defs>
      <use xlink:href="#DejaVuSans-54"/>
      <use x="46.333984" xlink:href="#DejaVuSans-72"/>
      <use x="87.447266" xlink:href="#DejaVuSans-69"/>
      <use x="115.230469" xlink:href="#DejaVuSans-61"/>
      <use x="176.509766" xlink:href="#DejaVuSans-6c"/>
     </g>
    </g>
   </g>
   <g id="matplotlib.axis_2">
    <g id="ytick_1">
     <g id="line2d_10">
      <defs>
       <path d="M 0 0 
L -3.5 0 
" id="m07d821cf18" style="stroke:#000000;stroke-width:0.8;"/>
      </defs>
      <g>
       <use style="stroke:#000000;stroke-width:0.8;" x="112.975781" xlink:href="#m07d821cf18" y="245.836875"/>
      </g>
     </g>
     <g id="text_11">
      <!-- 0.0 -->
      <g transform="translate(82.121094 251.535703)scale(0.15 -0.15)">
       <defs>
        <path d="M 684 794 
L 1344 794 
L 1344 0 
L 684 0 
L 684 794 
z
" id="DejaVuSans-2e" transform="scale(0.015625)"/>
       </defs>
       <use xlink:href="#DejaVuSans-30"/>
       <use x="63.623047" xlink:href="#DejaVuSans-2e"/>
       <use x="95.410156" xlink:href="#DejaVuSans-30"/>
      </g>
     </g>
    </g>
    <g id="ytick_2">
     <g id="line2d_11">
      <g>
       <use style="stroke:#000000;stroke-width:0.8;" x="112.975781" xlink:href="#m07d821cf18" y="202.348875"/>
      </g>
     </g>
     <g id="text_12">
      <!-- 0.2 -->
      <g transform="translate(82.121094 208.047703)scale(0.15 -0.15)">
       <use xlink:href="#DejaVuSans-30"/>
       <use x="63.623047" xlink:href="#DejaVuSans-2e"/>
       <use x="95.410156" xlink:href="#DejaVuSans-32"/>
      </g>
     </g>
    </g>
    <g id="ytick_3">
     <g id="line2d_12">
      <g>
       <use style="stroke:#000000;stroke-width:0.8;" x="112.975781" xlink:href="#m07d821cf18" y="158.860875"/>
      </g>
     </g>
     <g id="text_13">
      <!-- 0.4 -->
      <g transform="translate(82.121094 164.559703)scale(0.15 -0.15)">
       <defs>
        <path d="M 2419 4116 
L 825 1625 
L 2419 1625 
L 2419 4116 
z
M 2253 4666 
L 3047 4666 
L 3047 1625 
L 3713 1625 
L 3713 1100 
L 3047 1100 
L 3047 0 
L 2419 0 
L 2419 1100 
L 313 1100 
L 313 1709 
L 2253 4666 
z
" id="DejaVuSans-34" transform="scale(0.015625)"/>
       </defs>
       <use xlink:href="#DejaVuSans-30"/>
       <use x="63.623047" xlink:href="#DejaVuSans-2e"/>
       <use x="95.410156" xlink:href="#DejaVuSans-34"/>
      </g>
     </g>
    </g>
    <g id="ytick_4">
     <g id="line2d_13">
      <g>
       <use style="stroke:#000000;stroke-width:0.8;" x="112.975781" xlink:href="#m07d821cf18" y="115.372875"/>
      </g>
     </g>
     <g id="text_14">
      <!-- 0.6 -->
      <g transform="translate(82.121094 121.071703)scale(0.15 -0.15)">
       <defs>
        <path d="M 2113 2584 
Q 1688 2584 1439 2293 
Q 1191 2003 1191 1497 
Q 1191 994 1439 701 
Q 1688 409 2113 409 
Q 2538 409 2786 701 
Q 3034 994 3034 1497 
Q 3034 2003 2786 2293 
Q 2538 2584 2113 2584 
z
M 3366 4563 
L 3366 3988 
Q 3128 4100 2886 4159 
Q 2644 4219 2406 4219 
Q 1781 4219 1451 3797 
Q 1122 3375 1075 2522 
Q 1259 2794 1537 2939 
Q 1816 3084 2150 3084 
Q 2853 3084 3261 2657 
Q 3669 2231 3669 1497 
Q 3669 778 3244 343 
Q 2819 -91 2113 -91 
Q 1303 -91 875 529 
Q 447 1150 447 2328 
Q 447 3434 972 4092 
Q 1497 4750 2381 4750 
Q 2619 4750 2861 4703 
Q 3103 4656 3366 4563 
z
" id="DejaVuSans-36" transform="scale(0.015625)"/>
       </defs>
       <use xlink:href="#DejaVuSans-30"/>
       <use x="63.623047" xlink:href="#DejaVuSans-2e"/>
       <use x="95.410156" xlink:href="#DejaVuSans-36"/>
      </g>
     </g>
    </g>
    <g id="ytick_5">
     <g id="line2d_14">
      <g>
       <use style="stroke:#000000;stroke-width:0.8;" x="112.975781" xlink:href="#m07d821cf18" y="71.884875"/>
      </g>
     </g>
     <g id="text_15">
      <!-- 0.8 -->
      <g transform="translate(82.121094 77.583703)scale(0.15 -0.15)">
       <defs>
        <path d="M 2034 2216 
Q 1584 2216 1326 1975 
Q 1069 1734 1069 1313 
Q 1069 891 1326 650 
Q 1584 409 2034 409 
Q 2484 409 2743 651 
Q 3003 894 3003 1313 
Q 3003 1734 2745 1975 
Q 2488 2216 2034 2216 
z
M 1403 2484 
Q 997 2584 770 2862 
Q 544 3141 544 3541 
Q 544 4100 942 4425 
Q 1341 4750 2034 4750 
Q 2731 4750 3128 4425 
Q 3525 4100 3525 3541 
Q 3525 3141 3298 2862 
Q 3072 2584 2669 2484 
Q 3125 2378 3379 2068 
Q 3634 1759 3634 1313 
Q 3634 634 3220 271 
Q 2806 -91 2034 -91 
Q 1263 -91 848 271 
Q 434 634 434 1313 
Q 434 1759 690 2068 
Q 947 2378 1403 2484 
z
M 1172 3481 
Q 1172 3119 1398 2916 
Q 1625 2713 2034 2713 
Q 2441 2713 2670 2916 
Q 2900 3119 2900 3481 
Q 2900 3844 2670 4047 
Q 2441 4250 2034 4250 
Q 1625 4250 1398 4047 
Q 1172 3844 1172 3481 
z
" id="DejaVuSans-38" transform="scale(0.015625)"/>
       </defs>
       <use xlink:href="#DejaVuSans-30"/>
       <use x="63.623047" xlink:href="#DejaVuSans-2e"/>
       <use x="95.410156" xlink:href="#DejaVuSans-38"/>
      </g>
     </g>
    </g>
    <g id="ytick_6">
     <g id="line2d_15">
      <g>
       <use style="stroke:#000000;stroke-width:0.8;" x="112.975781" xlink:href="#m07d821cf18" y="28.396875"/>
      </g>
     </g>
     <g id="text_16">
      <!-- 1.0 -->
      <g transform="translate(82.121094 34.095703)scale(0.15 -0.15)">
       <use xlink:href="#DejaVuSans-31"/>
       <use x="63.623047" xlink:href="#DejaVuSans-2e"/>
       <use x="95.410156" xlink:href="#DejaVuSans-30"/>
      </g>
     </g>
    </g>
    <g id="text_17">
     <!-- Correct Choice [%] -->
     <g transform="translate(75.001562 207.635625)rotate(-90)scale(0.15 -0.15)">
      <defs>
       <path d="M 4122 4306 
L 4122 3641 
Q 3803 3938 3442 4084 
Q 3081 4231 2675 4231 
Q 1875 4231 1450 3742 
Q 1025 3253 1025 2328 
Q 1025 1406 1450 917 
Q 1875 428 2675 428 
Q 3081 428 3442 575 
Q 3803 722 4122 1019 
L 4122 359 
Q 3791 134 3420 21 
Q 3050 -91 2638 -91 
Q 1578 -91 968 557 
Q 359 1206 359 2328 
Q 359 3453 968 4101 
Q 1578 4750 2638 4750 
Q 3056 4750 3426 4639 
Q 3797 4528 4122 4306 
z
" id="DejaVuSans-43" transform="scale(0.015625)"/>
       <path d="M 1959 3097 
Q 1497 3097 1228 2736 
Q 959 2375 959 1747 
Q 959 1119 1226 758 
Q 1494 397 1959 397 
Q 2419 397 2687 759 
Q 2956 1122 2956 1747 
Q 2956 2369 2687 2733 
Q 2419 3097 1959 3097 
z
M 1959 3584 
Q 2709 3584 3137 3096 
Q 3566 2609 3566 1747 
Q 3566 888 3137 398 
Q 2709 -91 1959 -91 
Q 1206 -91 779 398 
Q 353 888 353 1747 
Q 353 2609 779 3096 
Q 1206 3584 1959 3584 
z
" id="DejaVuSans-6f" transform="scale(0.015625)"/>
       <path d="M 3597 1894 
L 3597 1613 
L 953 1613 
Q 991 1019 1311 708 
Q 1631 397 2203 397 
Q 2534 397 2845 478 
Q 3156 559 3463 722 
L 3463 178 
Q 3153 47 2828 -22 
Q 2503 -91 2169 -91 
Q 1331 -91 842 396 
Q 353 884 353 1716 
Q 353 2575 817 3079 
Q 1281 3584 2069 3584 
Q 2775 3584 3186 3129 
Q 3597 2675 3597 1894 
z
M 3022 2063 
Q 3016 2534 2758 2815 
Q 2500 3097 2075 3097 
Q 1594 3097 1305 2825 
Q 1016 2553 972 2059 
L 3022 2063 
z
" id="DejaVuSans-65" transform="scale(0.015625)"/>
       <path d="M 3122 3366 
L 3122 2828 
Q 2878 2963 2633 3030 
Q 2388 3097 2138 3097 
Q 1578 3097 1268 2742 
Q 959 2388 959 1747 
Q 959 1106 1268 751 
Q 1578 397 2138 397 
Q 2388 397 2633 464 
Q 2878 531 3122 666 
L 3122 134 
Q 2881 22 2623 -34 
Q 2366 -91 2075 -91 
Q 1284 -91 818 406 
Q 353 903 353 1747 
Q 353 2603 823 3093 
Q 1294 3584 2113 3584 
Q 2378 3584 2631 3529 
Q 2884 3475 3122 3366 
z
" id="DejaVuSans-63" transform="scale(0.015625)"/>
       <path d="M 1172 4494 
L 1172 3500 
L 2356 3500 
L 2356 3053 
L 1172 3053 
L 1172 1153 
Q 1172 725 1289 603 
Q 1406 481 1766 481 
L 2356 481 
L 2356 0 
L 1766 0 
Q 1100 0 847 248 
Q 594 497 594 1153 
L 594 3053 
L 172 3053 
L 172 3500 
L 594 3500 
L 594 4494 
L 1172 4494 
z
" id="DejaVuSans-74" transform="scale(0.015625)"/>
       <path id="DejaVuSans-20" transform="scale(0.015625)"/>
       <path d="M 3513 2113 
L 3513 0 
L 2938 0 
L 2938 2094 
Q 2938 2591 2744 2837 
Q 2550 3084 2163 3084 
Q 1697 3084 1428 2787 
Q 1159 2491 1159 1978 
L 1159 0 
L 581 0 
L 581 4863 
L 1159 4863 
L 1159 2956 
Q 1366 3272 1645 3428 
Q 1925 3584 2291 3584 
Q 2894 3584 3203 3211 
Q 3513 2838 3513 2113 
z
" id="DejaVuSans-68" transform="scale(0.015625)"/>
       <path d="M 550 4863 
L 1875 4863 
L 1875 4416 
L 1125 4416 
L 1125 -397 
L 1875 -397 
L 1875 -844 
L 550 -844 
L 550 4863 
z
" id="DejaVuSans-5b" transform="scale(0.015625)"/>
       <path d="M 4653 2053 
Q 4381 2053 4226 1822 
Q 4072 1591 4072 1178 
Q 4072 772 4226 539 
Q 4381 306 4653 306 
Q 4919 306 5073 539 
Q 5228 772 5228 1178 
Q 5228 1588 5073 1820 
Q 4919 2053 4653 2053 
z
M 4653 2450 
Q 5147 2450 5437 2106 
Q 5728 1763 5728 1178 
Q 5728 594 5436 251 
Q 5144 -91 4653 -91 
Q 4153 -91 3862 251 
Q 3572 594 3572 1178 
Q 3572 1766 3864 2108 
Q 4156 2450 4653 2450 
z
M 1428 4353 
Q 1159 4353 1004 4120 
Q 850 3888 850 3481 
Q 850 3069 1003 2837 
Q 1156 2606 1428 2606 
Q 1700 2606 1854 2837 
Q 2009 3069 2009 3481 
Q 2009 3884 1853 4118 
Q 1697 4353 1428 4353 
z
M 4250 4750 
L 4750 4750 
L 1831 -91 
L 1331 -91 
L 4250 4750 
z
M 1428 4750 
Q 1922 4750 2215 4408 
Q 2509 4066 2509 3481 
Q 2509 2891 2217 2550 
Q 1925 2209 1428 2209 
Q 931 2209 642 2551 
Q 353 2894 353 3481 
Q 353 4063 643 4406 
Q 934 4750 1428 4750 
z
" id="DejaVuSans-25" transform="scale(0.015625)"/>
       <path d="M 1947 4863 
L 1947 -844 
L 622 -844 
L 622 -397 
L 1369 -397 
L 1369 4416 
L 622 4416 
L 622 4863 
L 1947 4863 
z
" id="DejaVuSans-5d" transform="scale(0.015625)"/>
      </defs>
      <use xlink:href="#DejaVuSans-43"/>
      <use x="69.824219" xlink:href="#DejaVuSans-6f"/>
      <use x="131.005859" xlink:href="#DejaVuSans-72"/>
      <use x="170.369141" xlink:href="#DejaVuSans-72"/>
      <use x="209.232422" xlink:href="#DejaVuSans-65"/>
      <use x="270.755859" xlink:href="#DejaVuSans-63"/>
      <use x="325.736328" xlink:href="#DejaVuSans-74"/>
      <use x="364.945312" xlink:href="#DejaVuSans-20"/>
      <use x="396.732422" xlink:href="#DejaVuSans-43"/>
      <use x="466.556641" xlink:href="#DejaVuSans-68"/>
      <use x="529.935547" xlink:href="#DejaVuSans-6f"/>
      <use x="591.117188" xlink:href="#DejaVuSans-69"/>
      <use x="618.900391" xlink:href="#DejaVuSans-63"/>
      <use x="673.880859" xlink:href="#DejaVuSans-65"/>
      <use x="735.404297" xlink:href="#DejaVuSans-20"/>
      <use x="767.191406" xlink:href="#DejaVuSans-5b"/>
      <use x="806.205078" xlink:href="#DejaVuSans-25"/>
      <use x="901.224609" xlink:href="#DejaVuSans-5d"/>
     </g>
    </g>
   </g>
   <g id="line2d_16">
    <path clip-path="url(#p6ed16072d7)" d="M 112.975781 137.116875 
L 116.340605 84.931275 
L 118.023017 63.187275 
L 119.705429 67.536075 
L 121.387842 63.187275 
L 123.070254 61.012875 
L 124.752666 67.536075 
L 126.435078 65.361675 
L 129.799902 52.315275 
L 131.482314 61.012875 
L 133.164726 61.012875 
L 134.847138 56.664075 
L 136.52955 56.664075 
L 138.211962 67.536075 
L 139.894374 56.664075 
L 141.576786 58.838475 
L 143.259198 63.187275 
L 144.94161 58.838475 
L 146.624022 71.884875 
L 148.306435 52.315275 
L 151.671259 52.315275 
L 153.353671 87.105675 
L 155.036083 56.664075 
L 156.718495 54.489675 
L 158.400907 61.012875 
L 160.083319 50.140875 
L 161.765731 52.315275 
L 163.448143 65.361675 
L 165.130555 52.315275 
L 166.812967 63.187275 
L 168.495379 65.361675 
L 170.177791 43.617675 
L 171.860203 56.664075 
L 173.542615 65.361675 
L 175.225027 58.838475 
L 176.90744 47.966475 
L 178.589852 63.187275 
L 180.272264 65.361675 
L 181.954676 50.140875 
L 183.637088 67.536075 
L 185.3195 58.838475 
L 187.001912 65.361675 
L 188.684324 47.966475 
L 190.366736 58.838475 
L 192.049148 56.664075 
L 193.73156 52.315275 
L 195.413972 67.536075 
L 197.096384 67.536075 
L 198.778796 63.187275 
L 200.461208 82.756875 
L 202.14362 63.187275 
L 203.826033 50.140875 
L 205.508445 56.664075 
L 207.190857 65.361675 
L 208.873269 61.012875 
L 210.555681 63.187275 
L 212.238093 63.187275 
L 213.920505 50.140875 
L 215.602917 63.187275 
L 218.967741 58.838475 
L 220.650153 63.187275 
L 222.332565 58.838475 
L 224.014977 67.536075 
L 225.697389 63.187275 
L 227.379801 47.966475 
L 229.062213 74.059275 
L 230.744625 63.187275 
L 232.427038 47.966475 
L 234.10945 56.664075 
L 235.791862 52.315275 
L 237.474274 58.838475 
L 239.156686 58.838475 
L 240.839098 56.664075 
L 242.52151 67.536075 
L 244.203922 61.012875 
L 245.886334 52.315275 
L 247.568746 56.664075 
L 249.251158 65.361675 
L 250.93357 52.315275 
L 252.615982 78.408075 
L 254.298394 61.012875 
L 255.980806 50.140875 
L 257.663218 69.710475 
L 259.34563 67.536075 
L 261.028043 63.187275 
L 264.392867 67.536075 
L 266.075279 65.361675 
L 267.757691 56.664075 
L 269.440103 74.059275 
L 271.122515 65.361675 
L 272.804927 54.489675 
L 274.487339 54.489675 
L 276.169751 56.664075 
L 277.852163 63.187275 
L 279.534575 58.838475 
L 281.216987 221.918475 
L 282.899399 202.348875 
L 284.581811 204.523275 
L 286.264223 132.768075 
L 287.946636 128.419275 
L 289.629048 113.198475 
L 291.31146 104.500875 
L 292.993872 100.152075 
L 294.676284 82.756875 
L 296.358696 71.884875 
L 298.041108 76.233675 
L 299.72352 89.280075 
L 301.405932 65.361675 
L 303.088344 80.582475 
L 304.770756 56.664075 
L 306.453168 58.838475 
L 308.13558 47.966475 
L 309.817992 56.664075 
L 311.500404 63.187275 
L 313.182816 63.187275 
L 314.865228 56.664075 
L 318.230053 56.664075 
L 319.912465 54.489675 
L 321.594877 58.838475 
L 323.277289 45.792075 
L 324.959701 54.489675 
L 326.642113 50.140875 
L 328.324525 58.838475 
L 330.006937 63.187275 
L 331.689349 65.361675 
L 333.371761 78.408075 
L 335.054173 74.059275 
L 336.736585 47.966475 
L 338.418997 54.489675 
L 340.101409 63.187275 
L 341.783821 63.187275 
L 343.466234 54.489675 
L 345.148646 43.617675 
L 346.831058 54.489675 
L 348.51347 61.012875 
L 351.878294 61.012875 
L 353.560706 56.664075 
L 355.243118 56.664075 
L 356.92553 50.140875 
L 358.607942 76.233675 
L 360.290354 54.489675 
L 361.972766 58.838475 
L 363.655178 71.884875 
L 365.33759 47.966475 
L 367.020002 74.059275 
L 368.702414 63.187275 
L 370.384826 65.361675 
L 372.067239 69.710475 
L 373.749651 52.315275 
L 375.432063 61.012875 
L 377.114475 67.536075 
L 378.796887 61.012875 
L 380.479299 69.710475 
L 382.161711 58.838475 
L 383.844123 61.012875 
L 385.526535 54.489675 
L 387.208947 74.059275 
L 388.891359 52.315275 
L 390.573771 67.536075 
L 392.256183 54.489675 
L 393.938595 54.489675 
L 395.621007 61.012875 
L 397.303419 56.664075 
L 398.985832 67.536075 
L 400.668244 61.012875 
L 402.350656 61.012875 
L 404.033068 45.792075 
L 407.397892 71.884875 
L 409.080304 63.187275 
L 410.762716 65.361675 
L 412.445128 61.012875 
L 414.12754 63.187275 
L 415.809952 52.315275 
L 417.492364 71.884875 
L 419.174776 61.012875 
L 420.857188 61.012875 
L 422.5396 67.536075 
L 424.222012 61.012875 
L 425.904424 78.408075 
L 427.586837 74.059275 
L 429.269249 74.059275 
L 430.951661 61.012875 
L 432.634073 56.664075 
L 434.316485 71.884875 
L 435.998897 63.187275 
L 439.363721 63.187275 
L 441.046133 69.710475 
L 442.728545 56.664075 
L 444.410957 63.187275 
L 446.093369 50.140875 
L 447.775781 63.187275 
L 447.775781 63.187275 
" style="fill:none;stroke:#008000;stroke-dasharray:5.55,2.4;stroke-dashoffset:0;stroke-width:1.5;"/>
   </g>
   <g id="line2d_17">
    <path clip-path="url(#p6ed16072d7)" d="M 112.975781 130.593675 
L 114.658193 100.152075 
L 116.340605 78.408075 
L 118.023017 87.105675 
L 121.387842 74.059275 
L 123.070254 74.059275 
L 124.752666 69.710475 
L 126.435078 61.012875 
L 128.11749 56.664075 
L 129.799902 63.187275 
L 131.482314 63.187275 
L 133.164726 61.012875 
L 134.847138 61.012875 
L 138.211962 65.361675 
L 139.894374 63.187275 
L 141.576786 69.710475 
L 144.94161 61.012875 
L 146.624022 63.187275 
L 148.306435 58.838475 
L 149.988847 50.140875 
L 151.671259 61.012875 
L 153.353671 67.536075 
L 155.036083 63.187275 
L 156.718495 69.710475 
L 158.400907 67.536075 
L 160.083319 74.059275 
L 161.765731 63.187275 
L 163.448143 45.792075 
L 165.130555 67.536075 
L 166.812967 69.710475 
L 168.495379 61.012875 
L 170.177791 56.664075 
L 171.860203 58.838475 
L 173.542615 67.536075 
L 175.225027 47.966475 
L 176.90744 74.059275 
L 178.589852 67.536075 
L 180.272264 54.489675 
L 181.954676 69.710475 
L 183.637088 67.536075 
L 185.3195 54.489675 
L 187.001912 78.408075 
L 188.684324 54.489675 
L 190.366736 54.489675 
L 192.049148 50.140875 
L 193.73156 54.489675 
L 195.413972 67.536075 
L 197.096384 71.884875 
L 198.778796 65.361675 
L 200.461208 56.664075 
L 202.14362 71.884875 
L 203.826033 61.012875 
L 205.508445 52.315275 
L 207.190857 54.489675 
L 208.873269 50.140875 
L 212.238093 67.536075 
L 213.920505 52.315275 
L 215.602917 65.361675 
L 217.285329 71.884875 
L 218.967741 54.489675 
L 220.650153 61.012875 
L 222.332565 65.361675 
L 224.014977 58.838475 
L 225.697389 76.233675 
L 227.379801 43.617675 
L 229.062213 69.710475 
L 230.744625 58.838475 
L 232.427038 63.187275 
L 234.10945 47.966475 
L 235.791862 80.582475 
L 237.474274 71.884875 
L 239.156686 61.012875 
L 240.839098 47.966475 
L 242.52151 52.315275 
L 244.203922 54.489675 
L 245.886334 61.012875 
L 247.568746 69.710475 
L 249.251158 71.884875 
L 250.93357 67.536075 
L 252.615982 69.710475 
L 254.298394 58.838475 
L 257.663218 63.187275 
L 259.34563 58.838475 
L 261.028043 78.408075 
L 262.710455 61.012875 
L 264.392867 50.140875 
L 266.075279 58.838475 
L 267.757691 52.315275 
L 269.440103 61.012875 
L 271.122515 54.489675 
L 272.804927 52.315275 
L 274.487339 54.489675 
L 276.169751 52.315275 
L 277.852163 54.489675 
L 279.534575 71.884875 
L 281.216987 213.220875 
L 282.899399 200.174475 
L 284.581811 200.174475 
L 286.264223 215.395275 
L 287.946636 202.348875 
L 289.629048 174.081675 
L 291.31146 178.430475 
L 292.993872 152.337675 
L 294.676284 147.988875 
L 296.358696 147.988875 
L 298.041108 141.465675 
L 299.72352 132.768075 
L 301.405932 117.547275 
L 304.770756 104.500875 
L 306.453168 111.024075 
L 308.13558 95.803275 
L 309.817992 102.326475 
L 311.500404 91.454475 
L 314.865228 95.803275 
L 316.547641 87.105675 
L 318.230053 74.059275 
L 319.912465 76.233675 
L 321.594877 63.187275 
L 323.277289 67.536075 
L 324.959701 69.710475 
L 326.642113 56.664075 
L 330.006937 74.059275 
L 331.689349 74.059275 
L 333.371761 71.884875 
L 335.054173 67.536075 
L 336.736585 71.884875 
L 338.418997 67.536075 
L 340.101409 56.664075 
L 341.783821 61.012875 
L 343.466234 52.315275 
L 345.148646 69.710475 
L 346.831058 65.361675 
L 348.51347 67.536075 
L 350.195882 41.443275 
L 351.878294 61.012875 
L 353.560706 61.012875 
L 355.243118 47.966475 
L 356.92553 69.710475 
L 358.607942 54.489675 
L 360.290354 54.489675 
L 361.972766 52.315275 
L 363.655178 61.012875 
L 365.33759 63.187275 
L 367.020002 54.489675 
L 368.702414 58.838475 
L 370.384826 65.361675 
L 372.067239 80.582475 
L 373.749651 58.838475 
L 375.432063 63.187275 
L 377.114475 54.489675 
L 378.796887 63.187275 
L 380.479299 58.838475 
L 382.161711 56.664075 
L 383.844123 63.187275 
L 387.208947 58.838475 
L 388.891359 54.489675 
L 390.573771 54.489675 
L 392.256183 67.536075 
L 393.938595 69.710475 
L 398.985832 56.664075 
L 400.668244 63.187275 
L 402.350656 71.884875 
L 404.033068 71.884875 
L 405.71548 47.966475 
L 407.397892 78.408075 
L 409.080304 58.838475 
L 410.762716 61.012875 
L 412.445128 56.664075 
L 414.12754 74.059275 
L 415.809952 65.361675 
L 417.492364 76.233675 
L 419.174776 56.664075 
L 420.857188 61.012875 
L 422.5396 67.536075 
L 424.222012 58.838475 
L 425.904424 74.059275 
L 427.586837 52.315275 
L 429.269249 54.489675 
L 430.951661 61.012875 
L 432.634073 54.489675 
L 434.316485 52.315275 
L 435.998897 52.315275 
L 437.681309 65.361675 
L 439.363721 65.361675 
L 441.046133 54.489675 
L 442.728545 56.664075 
L 444.410957 71.884875 
L 446.093369 54.489675 
L 447.775781 67.536075 
L 447.775781 67.536075 
" style="fill:none;stroke:#008000;stroke-linecap:square;stroke-width:1.5;"/>
   </g>
   <g id="line2d_18">
    <path clip-path="url(#p6ed16072d7)" d="M 112.975781 137.116875 
L 114.658193 117.547275 
L 116.340605 128.419275 
L 118.023017 130.593675 
L 119.705429 147.988875 
L 121.387842 150.163275 
L 123.070254 113.198475 
L 124.752666 108.849675 
L 126.435078 102.326475 
L 128.11749 91.454475 
L 129.799902 69.710475 
L 131.482314 74.059275 
L 133.164726 50.140875 
L 134.847138 69.710475 
L 136.52955 67.536075 
L 138.211962 67.536075 
L 139.894374 56.664075 
L 141.576786 47.966475 
L 143.259198 56.664075 
L 144.94161 61.012875 
L 146.624022 56.664075 
L 148.306435 65.361675 
L 149.988847 61.012875 
L 151.671259 54.489675 
L 153.353671 52.315275 
L 155.036083 67.536075 
L 156.718495 63.187275 
L 158.400907 63.187275 
L 160.083319 78.408075 
L 161.765731 63.187275 
L 163.448143 69.710475 
L 165.130555 56.664075 
L 166.812967 47.966475 
L 168.495379 56.664075 
L 170.177791 50.140875 
L 171.860203 58.838475 
L 173.542615 37.094475 
L 176.90744 67.536075 
L 178.589852 56.664075 
L 180.272264 61.012875 
L 181.954676 47.966475 
L 183.637088 58.838475 
L 185.3195 65.361675 
L 187.001912 67.536075 
L 188.684324 61.012875 
L 190.366736 52.315275 
L 192.049148 56.664075 
L 193.73156 56.664075 
L 195.413972 74.059275 
L 198.778796 47.966475 
L 200.461208 61.012875 
L 202.14362 63.187275 
L 203.826033 54.489675 
L 205.508445 69.710475 
L 207.190857 54.489675 
L 208.873269 56.664075 
L 210.555681 63.187275 
L 212.238093 58.838475 
L 213.920505 69.710475 
L 215.602917 67.536075 
L 217.285329 61.012875 
L 218.967741 58.838475 
L 220.650153 65.361675 
L 222.332565 65.361675 
L 224.014977 54.489675 
L 225.697389 93.628875 
L 227.379801 80.582475 
L 229.062213 54.489675 
L 232.427038 63.187275 
L 235.791862 67.536075 
L 240.839098 61.012875 
L 242.52151 54.489675 
L 244.203922 65.361675 
L 245.886334 65.361675 
L 247.568746 58.838475 
L 249.251158 69.710475 
L 250.93357 52.315275 
L 252.615982 52.315275 
L 254.298394 58.838475 
L 255.980806 61.012875 
L 257.663218 71.884875 
L 259.34563 67.536075 
L 261.028043 78.408075 
L 264.392867 47.966475 
L 267.757691 61.012875 
L 269.440103 58.838475 
L 271.122515 63.187275 
L 272.804927 69.710475 
L 274.487339 58.838475 
L 276.169751 52.315275 
L 277.852163 50.140875 
L 279.534575 45.792075 
L 281.216987 221.918475 
L 282.899399 217.569675 
L 284.581811 189.302475 
L 286.264223 208.872075 
L 287.946636 211.046475 
L 289.629048 200.174475 
L 291.31146 215.395275 
L 292.993872 219.744075 
L 294.676284 200.174475 
L 296.358696 213.220875 
L 298.041108 195.825675 
L 299.72352 191.476875 
L 301.405932 169.732875 
L 303.088344 150.163275 
L 304.770756 145.814475 
L 306.453168 137.116875 
L 308.13558 134.942475 
L 309.817992 124.070475 
L 311.500404 111.024075 
L 313.182816 106.675275 
L 314.865228 95.803275 
L 316.547641 100.152075 
L 318.230053 97.977675 
L 321.594877 71.884875 
L 323.277289 87.105675 
L 324.959701 69.710475 
L 326.642113 95.803275 
L 328.324525 76.233675 
L 330.006937 74.059275 
L 331.689349 67.536075 
L 333.371761 80.582475 
L 335.054173 61.012875 
L 336.736585 67.536075 
L 338.418997 69.710475 
L 340.101409 65.361675 
L 345.148646 65.361675 
L 346.831058 69.710475 
L 348.51347 56.664075 
L 350.195882 63.187275 
L 351.878294 67.536075 
L 353.560706 63.187275 
L 355.243118 67.536075 
L 358.607942 58.838475 
L 360.290354 69.710475 
L 361.972766 65.361675 
L 363.655178 78.408075 
L 365.33759 63.187275 
L 368.702414 58.838475 
L 370.384826 61.012875 
L 372.067239 54.489675 
L 373.749651 50.140875 
L 375.432063 67.536075 
L 377.114475 63.187275 
L 378.796887 56.664075 
L 380.479299 45.792075 
L 382.161711 61.012875 
L 383.844123 52.315275 
L 385.526535 61.012875 
L 387.208947 63.187275 
L 388.891359 47.966475 
L 390.573771 54.489675 
L 392.256183 63.187275 
L 393.938595 50.140875 
L 395.621007 54.489675 
L 397.303419 56.664075 
L 398.985832 65.361675 
L 400.668244 56.664075 
L 402.350656 50.140875 
L 404.033068 65.361675 
L 405.71548 67.536075 
L 407.397892 65.361675 
L 409.080304 50.140875 
L 410.762716 58.838475 
L 412.445128 50.140875 
L 414.12754 69.710475 
L 417.492364 61.012875 
L 419.174776 50.140875 
L 420.857188 71.884875 
L 422.5396 56.664075 
L 424.222012 56.664075 
L 425.904424 41.443275 
L 427.586837 58.838475 
L 429.269249 56.664075 
L 430.951661 69.710475 
L 432.634073 56.664075 
L 434.316485 58.838475 
L 435.998897 52.315275 
L 437.681309 65.361675 
L 439.363721 54.489675 
L 441.046133 69.710475 
L 442.728545 65.361675 
L 444.410957 67.536075 
L 446.093369 58.838475 
L 447.775781 74.059275 
L 447.775781 74.059275 
" style="fill:none;stroke:#000000;stroke-linecap:square;stroke-width:1.5;"/>
   </g>
   <g id="patch_3">
    <path d="M 112.975781 245.836875 
L 112.975781 28.396875 
" style="fill:none;stroke:#000000;stroke-linecap:square;stroke-linejoin:miter;stroke-width:0.8;"/>
   </g>
   <g id="patch_4">
    <path d="M 112.975781 245.836875 
L 447.775781 245.836875 
" style="fill:none;stroke:#000000;stroke-linecap:square;stroke-linejoin:miter;stroke-width:0.8;"/>
   </g>
   <g id="text_18">
    <!-- Learning Performance -->
    <g transform="translate(170.417969 22.396875)scale(0.2 -0.2)">
     <defs>
      <path d="M 628 4666 
L 1259 4666 
L 1259 531 
L 3531 531 
L 3531 0 
L 628 0 
L 628 4666 
z
" id="DejaVuSans-4c" transform="scale(0.015625)"/>
      <path d="M 3513 2113 
L 3513 0 
L 2938 0 
L 2938 2094 
Q 2938 2591 2744 2837 
Q 2550 3084 2163 3084 
Q 1697 3084 1428 2787 
Q 1159 2491 1159 1978 
L 1159 0 
L 581 0 
L 581 3500 
L 1159 3500 
L 1159 2956 
Q 1366 3272 1645 3428 
Q 1925 3584 2291 3584 
Q 2894 3584 3203 3211 
Q 3513 2838 3513 2113 
z
" id="DejaVuSans-6e" transform="scale(0.015625)"/>
      <path d="M 2906 1791 
Q 2906 2416 2648 2759 
Q 2391 3103 1925 3103 
Q 1463 3103 1205 2759 
Q 947 2416 947 1791 
Q 947 1169 1205 825 
Q 1463 481 1925 481 
Q 2391 481 2648 825 
Q 2906 1169 2906 1791 
z
M 3481 434 
Q 3481 -459 3084 -895 
Q 2688 -1331 1869 -1331 
Q 1566 -1331 1297 -1286 
Q 1028 -1241 775 -1147 
L 775 -588 
Q 1028 -725 1275 -790 
Q 1522 -856 1778 -856 
Q 2344 -856 2625 -561 
Q 2906 -266 2906 331 
L 2906 616 
Q 2728 306 2450 153 
Q 2172 0 1784 0 
Q 1141 0 747 490 
Q 353 981 353 1791 
Q 353 2603 747 3093 
Q 1141 3584 1784 3584 
Q 2172 3584 2450 3431 
Q 2728 3278 2906 2969 
L 2906 3500 
L 3481 3500 
L 3481 434 
z
" id="DejaVuSans-67" transform="scale(0.015625)"/>
      <path d="M 1259 4147 
L 1259 2394 
L 2053 2394 
Q 2494 2394 2734 2622 
Q 2975 2850 2975 3272 
Q 2975 3691 2734 3919 
Q 2494 4147 2053 4147 
L 1259 4147 
z
M 628 4666 
L 2053 4666 
Q 2838 4666 3239 4311 
Q 3641 3956 3641 3272 
Q 3641 2581 3239 2228 
Q 2838 1875 2053 1875 
L 1259 1875 
L 1259 0 
L 628 0 
L 628 4666 
z
" id="DejaVuSans-50" transform="scale(0.015625)"/>
      <path d="M 2375 4863 
L 2375 4384 
L 1825 4384 
Q 1516 4384 1395 4259 
Q 1275 4134 1275 3809 
L 1275 3500 
L 2222 3500 
L 2222 3053 
L 1275 3053 
L 1275 0 
L 697 0 
L 697 3053 
L 147 3053 
L 147 3500 
L 697 3500 
L 697 3744 
Q 697 4328 969 4595 
Q 1241 4863 1831 4863 
L 2375 4863 
z
" id="DejaVuSans-66" transform="scale(0.015625)"/>
      <path d="M 3328 2828 
Q 3544 3216 3844 3400 
Q 4144 3584 4550 3584 
Q 5097 3584 5394 3201 
Q 5691 2819 5691 2113 
L 5691 0 
L 5113 0 
L 5113 2094 
Q 5113 2597 4934 2840 
Q 4756 3084 4391 3084 
Q 3944 3084 3684 2787 
Q 3425 2491 3425 1978 
L 3425 0 
L 2847 0 
L 2847 2094 
Q 2847 2600 2669 2842 
Q 2491 3084 2119 3084 
Q 1678 3084 1418 2786 
Q 1159 2488 1159 1978 
L 1159 0 
L 581 0 
L 581 3500 
L 1159 3500 
L 1159 2956 
Q 1356 3278 1631 3431 
Q 1906 3584 2284 3584 
Q 2666 3584 2933 3390 
Q 3200 3197 3328 2828 
z
" id="DejaVuSans-6d" transform="scale(0.015625)"/>
     </defs>
     <use xlink:href="#DejaVuSans-4c"/>
     <use x="53.962891" xlink:href="#DejaVuSans-65"/>
     <use x="115.486328" xlink:href="#DejaVuSans-61"/>
     <use x="176.765625" xlink:href="#DejaVuSans-72"/>
     <use x="216.128906" xlink:href="#DejaVuSans-6e"/>
     <use x="279.507812" xlink:href="#DejaVuSans-69"/>
     <use x="307.291016" xlink:href="#DejaVuSans-6e"/>
     <use x="370.669922" xlink:href="#DejaVuSans-67"/>
     <use x="434.146484" xlink:href="#DejaVuSans-20"/>
     <use x="465.933594" xlink:href="#DejaVuSans-50"/>
     <use x="522.611328" xlink:href="#DejaVuSans-65"/>
     <use x="584.134766" xlink:href="#DejaVuSans-72"/>
     <use x="625.248047" xlink:href="#DejaVuSans-66"/>
     <use x="660.453125" xlink:href="#DejaVuSans-6f"/>
     <use x="721.634766" xlink:href="#DejaVuSans-72"/>
     <use x="760.998047" xlink:href="#DejaVuSans-6d"/>
     <use x="858.410156" xlink:href="#DejaVuSans-61"/>
     <use x="919.689453" xlink:href="#DejaVuSans-6e"/>
     <use x="983.068359" xlink:href="#DejaVuSans-63"/>
     <use x="1038.048828" xlink:href="#DejaVuSans-65"/>
    </g>
   </g>
   <g id="legend_1">
    <g id="patch_5">
     <path d="M 10.2 312.470062 
L 550.551563 312.470062 
Q 553.551563 312.470062 553.551563 309.470062 
L 553.551563 288.952875 
Q 553.551563 285.952875 550.551563 285.952875 
L 10.2 285.952875 
Q 7.2 285.952875 7.2 288.952875 
L 7.2 309.470062 
Q 7.2 312.470062 10.2 312.470062 
z
" style="fill:none;opacity:0;"/>
    </g>
    <g id="line2d_19">
     <path d="M 13.2 298.100531 
L 43.2 298.100531 
" style="fill:none;stroke:#008000;stroke-dasharray:5.55,2.4;stroke-dashoffset:0;stroke-width:1.5;"/>
    </g>
    <g id="line2d_20"/>
    <g id="text_19">
     <!-- SFMA (Reverse) -->
     <g transform="translate(55.2 303.350531)scale(0.15 -0.15)">
      <defs>
       <path d="M 3425 4513 
L 3425 3897 
Q 3066 4069 2747 4153 
Q 2428 4238 2131 4238 
Q 1616 4238 1336 4038 
Q 1056 3838 1056 3469 
Q 1056 3159 1242 3001 
Q 1428 2844 1947 2747 
L 2328 2669 
Q 3034 2534 3370 2195 
Q 3706 1856 3706 1288 
Q 3706 609 3251 259 
Q 2797 -91 1919 -91 
Q 1588 -91 1214 -16 
Q 841 59 441 206 
L 441 856 
Q 825 641 1194 531 
Q 1563 422 1919 422 
Q 2459 422 2753 634 
Q 3047 847 3047 1241 
Q 3047 1584 2836 1778 
Q 2625 1972 2144 2069 
L 1759 2144 
Q 1053 2284 737 2584 
Q 422 2884 422 3419 
Q 422 4038 858 4394 
Q 1294 4750 2059 4750 
Q 2388 4750 2728 4690 
Q 3069 4631 3425 4513 
z
" id="DejaVuSans-53" transform="scale(0.015625)"/>
       <path d="M 628 4666 
L 3309 4666 
L 3309 4134 
L 1259 4134 
L 1259 2759 
L 3109 2759 
L 3109 2228 
L 1259 2228 
L 1259 0 
L 628 0 
L 628 4666 
z
" id="DejaVuSans-46" transform="scale(0.015625)"/>
       <path d="M 628 4666 
L 1569 4666 
L 2759 1491 
L 3956 4666 
L 4897 4666 
L 4897 0 
L 4281 0 
L 4281 4097 
L 3078 897 
L 2444 897 
L 1241 4097 
L 1241 0 
L 628 0 
L 628 4666 
z
" id="DejaVuSans-4d" transform="scale(0.015625)"/>
       <path d="M 2188 4044 
L 1331 1722 
L 3047 1722 
L 2188 4044 
z
M 1831 4666 
L 2547 4666 
L 4325 0 
L 3669 0 
L 3244 1197 
L 1141 1197 
L 716 0 
L 50 0 
L 1831 4666 
z
" id="DejaVuSans-41" transform="scale(0.015625)"/>
       <path d="M 1984 4856 
Q 1566 4138 1362 3434 
Q 1159 2731 1159 2009 
Q 1159 1288 1364 580 
Q 1569 -128 1984 -844 
L 1484 -844 
Q 1016 -109 783 600 
Q 550 1309 550 2009 
Q 550 2706 781 3412 
Q 1013 4119 1484 4856 
L 1984 4856 
z
" id="DejaVuSans-28" transform="scale(0.015625)"/>
       <path d="M 2841 2188 
Q 3044 2119 3236 1894 
Q 3428 1669 3622 1275 
L 4263 0 
L 3584 0 
L 2988 1197 
Q 2756 1666 2539 1819 
Q 2322 1972 1947 1972 
L 1259 1972 
L 1259 0 
L 628 0 
L 628 4666 
L 2053 4666 
Q 2853 4666 3247 4331 
Q 3641 3997 3641 3322 
Q 3641 2881 3436 2590 
Q 3231 2300 2841 2188 
z
M 1259 4147 
L 1259 2491 
L 2053 2491 
Q 2509 2491 2742 2702 
Q 2975 2913 2975 3322 
Q 2975 3731 2742 3939 
Q 2509 4147 2053 4147 
L 1259 4147 
z
" id="DejaVuSans-52" transform="scale(0.015625)"/>
       <path d="M 191 3500 
L 800 3500 
L 1894 563 
L 2988 3500 
L 3597 3500 
L 2284 0 
L 1503 0 
L 191 3500 
z
" id="DejaVuSans-76" transform="scale(0.015625)"/>
       <path d="M 2834 3397 
L 2834 2853 
Q 2591 2978 2328 3040 
Q 2066 3103 1784 3103 
Q 1356 3103 1142 2972 
Q 928 2841 928 2578 
Q 928 2378 1081 2264 
Q 1234 2150 1697 2047 
L 1894 2003 
Q 2506 1872 2764 1633 
Q 3022 1394 3022 966 
Q 3022 478 2636 193 
Q 2250 -91 1575 -91 
Q 1294 -91 989 -36 
Q 684 19 347 128 
L 347 722 
Q 666 556 975 473 
Q 1284 391 1588 391 
Q 1994 391 2212 530 
Q 2431 669 2431 922 
Q 2431 1156 2273 1281 
Q 2116 1406 1581 1522 
L 1381 1569 
Q 847 1681 609 1914 
Q 372 2147 372 2553 
Q 372 3047 722 3315 
Q 1072 3584 1716 3584 
Q 2034 3584 2315 3537 
Q 2597 3491 2834 3397 
z
" id="DejaVuSans-73" transform="scale(0.015625)"/>
       <path d="M 513 4856 
L 1013 4856 
Q 1481 4119 1714 3412 
Q 1947 2706 1947 2009 
Q 1947 1309 1714 600 
Q 1481 -109 1013 -844 
L 513 -844 
Q 928 -128 1133 580 
Q 1338 1288 1338 2009 
Q 1338 2731 1133 3434 
Q 928 4138 513 4856 
z
" id="DejaVuSans-29" transform="scale(0.015625)"/>
      </defs>
      <use xlink:href="#DejaVuSans-53"/>
      <use x="63.476562" xlink:href="#DejaVuSans-46"/>
      <use x="120.996094" xlink:href="#DejaVuSans-4d"/>
      <use x="207.275391" xlink:href="#DejaVuSans-41"/>
      <use x="275.683594" xlink:href="#DejaVuSans-20"/>
      <use x="307.470703" xlink:href="#DejaVuSans-28"/>
      <use x="346.484375" xlink:href="#DejaVuSans-52"/>
      <use x="411.466797" xlink:href="#DejaVuSans-65"/>
      <use x="472.990234" xlink:href="#DejaVuSans-76"/>
      <use x="532.169922" xlink:href="#DejaVuSans-65"/>
      <use x="593.693359" xlink:href="#DejaVuSans-72"/>
      <use x="634.806641" xlink:href="#DejaVuSans-73"/>
      <use x="686.90625" xlink:href="#DejaVuSans-65"/>
      <use x="748.429688" xlink:href="#DejaVuSans-29"/>
     </g>
    </g>
    <g id="line2d_21">
     <path d="M 203.320313 298.100531 
L 233.320313 298.100531 
" style="fill:none;stroke:#008000;stroke-linecap:square;stroke-width:1.5;"/>
    </g>
    <g id="line2d_22"/>
    <g id="text_20">
     <!-- SFMA (Default) -->
     <g transform="translate(245.320313 303.350531)scale(0.15 -0.15)">
      <defs>
       <path d="M 1259 4147 
L 1259 519 
L 2022 519 
Q 2988 519 3436 956 
Q 3884 1394 3884 2338 
Q 3884 3275 3436 3711 
Q 2988 4147 2022 4147 
L 1259 4147 
z
M 628 4666 
L 1925 4666 
Q 3281 4666 3915 4102 
Q 4550 3538 4550 2338 
Q 4550 1131 3912 565 
Q 3275 0 1925 0 
L 628 0 
L 628 4666 
z
" id="DejaVuSans-44" transform="scale(0.015625)"/>
       <path d="M 544 1381 
L 544 3500 
L 1119 3500 
L 1119 1403 
Q 1119 906 1312 657 
Q 1506 409 1894 409 
Q 2359 409 2629 706 
Q 2900 1003 2900 1516 
L 2900 3500 
L 3475 3500 
L 3475 0 
L 2900 0 
L 2900 538 
Q 2691 219 2414 64 
Q 2138 -91 1772 -91 
Q 1169 -91 856 284 
Q 544 659 544 1381 
z
M 1991 3584 
L 1991 3584 
z
" id="DejaVuSans-75" transform="scale(0.015625)"/>
      </defs>
      <use xlink:href="#DejaVuSans-53"/>
      <use x="63.476562" xlink:href="#DejaVuSans-46"/>
      <use x="120.996094" xlink:href="#DejaVuSans-4d"/>
      <use x="207.275391" xlink:href="#DejaVuSans-41"/>
      <use x="275.683594" xlink:href="#DejaVuSans-20"/>
      <use x="307.470703" xlink:href="#DejaVuSans-28"/>
      <use x="346.484375" xlink:href="#DejaVuSans-44"/>
      <use x="423.486328" xlink:href="#DejaVuSans-65"/>
      <use x="485.009766" xlink:href="#DejaVuSans-66"/>
      <use x="520.214844" xlink:href="#DejaVuSans-61"/>
      <use x="581.494141" xlink:href="#DejaVuSans-75"/>
      <use x="644.873047" xlink:href="#DejaVuSans-6c"/>
      <use x="672.65625" xlink:href="#DejaVuSans-74"/>
      <use x="711.865234" xlink:href="#DejaVuSans-29"/>
     </g>
    </g>
    <g id="line2d_23">
     <path d="M 387.951563 298.100531 
L 417.951563 298.100531 
" style="fill:none;stroke:#000000;stroke-linecap:square;stroke-width:1.5;"/>
    </g>
    <g id="line2d_24"/>
    <g id="text_21">
     <!-- Random Replay -->
     <g transform="translate(429.951563 303.350531)scale(0.15 -0.15)">
      <defs>
       <path d="M 2906 2969 
L 2906 4863 
L 3481 4863 
L 3481 0 
L 2906 0 
L 2906 525 
Q 2725 213 2448 61 
Q 2172 -91 1784 -91 
Q 1150 -91 751 415 
Q 353 922 353 1747 
Q 353 2572 751 3078 
Q 1150 3584 1784 3584 
Q 2172 3584 2448 3432 
Q 2725 3281 2906 2969 
z
M 947 1747 
Q 947 1113 1208 752 
Q 1469 391 1925 391 
Q 2381 391 2643 752 
Q 2906 1113 2906 1747 
Q 2906 2381 2643 2742 
Q 2381 3103 1925 3103 
Q 1469 3103 1208 2742 
Q 947 2381 947 1747 
z
" id="DejaVuSans-64" transform="scale(0.015625)"/>
       <path d="M 1159 525 
L 1159 -1331 
L 581 -1331 
L 581 3500 
L 1159 3500 
L 1159 2969 
Q 1341 3281 1617 3432 
Q 1894 3584 2278 3584 
Q 2916 3584 3314 3078 
Q 3713 2572 3713 1747 
Q 3713 922 3314 415 
Q 2916 -91 2278 -91 
Q 1894 -91 1617 61 
Q 1341 213 1159 525 
z
M 3116 1747 
Q 3116 2381 2855 2742 
Q 2594 3103 2138 3103 
Q 1681 3103 1420 2742 
Q 1159 2381 1159 1747 
Q 1159 1113 1420 752 
Q 1681 391 2138 391 
Q 2594 391 2855 752 
Q 3116 1113 3116 1747 
z
" id="DejaVuSans-70" transform="scale(0.015625)"/>
       <path d="M 2059 -325 
Q 1816 -950 1584 -1140 
Q 1353 -1331 966 -1331 
L 506 -1331 
L 506 -850 
L 844 -850 
Q 1081 -850 1212 -737 
Q 1344 -625 1503 -206 
L 1606 56 
L 191 3500 
L 800 3500 
L 1894 763 
L 2988 3500 
L 3597 3500 
L 2059 -325 
z
" id="DejaVuSans-79" transform="scale(0.015625)"/>
      </defs>
      <use xlink:href="#DejaVuSans-52"/>
      <use x="67.232422" xlink:href="#DejaVuSans-61"/>
      <use x="128.511719" xlink:href="#DejaVuSans-6e"/>
      <use x="191.890625" xlink:href="#DejaVuSans-64"/>
      <use x="255.367188" xlink:href="#DejaVuSans-6f"/>
      <use x="316.548828" xlink:href="#DejaVuSans-6d"/>
      <use x="413.960938" xlink:href="#DejaVuSans-20"/>
      <use x="445.748047" xlink:href="#DejaVuSans-52"/>
      <use x="510.730469" xlink:href="#DejaVuSans-65"/>
      <use x="572.253906" xlink:href="#DejaVuSans-70"/>
      <use x="635.730469" xlink:href="#DejaVuSans-6c"/>
      <use x="663.513672" xlink:href="#DejaVuSans-61"/>
      <use x="724.792969" xlink:href="#DejaVuSans-79"/>
     </g>
    </g>
   </g>
  </g>
 </g>
 <defs>
  <clipPath id="p6ed16072d7">
   <rect height="217.44" width="334.8" x="112.975781" y="28.396875"/>
  </clipPath>
 </defs>
</svg>
