<?xml version="1.0" encoding="utf-8" standalone="no"?>
<!DOCTYPE svg PUBLIC "-//W3C//DTD SVG 1.1//EN"
  "http://www.w3.org/Graphics/SVG/1.1/DTD/svg11.dtd">
<svg height="316.464pt" version="1.1" viewBox="0 0 453.628437 316.464" width="453.628437pt" xmlns="http://www.w3.org/2000/svg" xmlns:xlink="http://www.w3.org/1999/xlink">
 <metadata>
  <rdf:RDF xmlns:cc="http://creativecommons.org/ns#" xmlns:dc="http://purl.org/dc/elements/1.1/" xmlns:rdf="http://www.w3.org/1999/02/22-rdf-syntax-ns#">
   <cc:Work>
    <dc:type rdf:resource="http://purl.org/dc/dcmitype/StillImage"/>
    <dc:date>2022-06-19T18:26:26.180217</dc:date>
    <dc:format>image/svg+xml</dc:format>
    <dc:creator>
     <cc:Agent>
      <dc:title>Matplotlib v3.4.3, https://matplotlib.org/</dc:title>
     </cc:Agent>
    </dc:creator>
   </cc:Work>
  </rdf:RDF>
 </metadata>
 <defs>
  <style type="text/css">*{stroke-linecap:butt;stroke-linejoin:round;}</style>
 </defs>
 <g id="figure_1">
  <g id="patch_1">
   <path d="M 0 316.464 
L 453.628437 316.464 
L 453.628437 0 
L 0 0 
z
" style="fill:none;"/>
  </g>
  <g id="axes_1">
   <g id="patch_2">
    <path d="M 61.348438 224.64 
L 396.148438 224.64 
L 396.148438 7.2 
L 61.348438 7.2 
z
" style="fill:none;"/>
   </g>
   <g id="patch_3">
    <path clip-path="url(#p7eb61e96a0)" d="M 76.566619 224.64 
L 80.519394 224.64 
L 80.519394 145.947429 
L 76.566619 145.947429 
z
" style="fill:#000080;"/>
   </g>
   <g id="patch_4">
    <path clip-path="url(#p7eb61e96a0)" d="M 163.527658 224.64 
L 167.480433 224.64 
L 167.480433 17.554286 
L 163.527658 17.554286 
z
" style="fill:#000080;"/>
   </g>
   <g id="patch_5">
    <path clip-path="url(#p7eb61e96a0)" d="M 250.488697 224.64 
L 254.441472 224.64 
L 254.441472 85.892571 
L 250.488697 85.892571 
z
" style="fill:#000080;"/>
   </g>
   <g id="patch_6">
    <path clip-path="url(#p7eb61e96a0)" d="M 337.449736 224.64 
L 341.402511 224.64 
L 341.402511 172.178286 
L 337.449736 172.178286 
z
" style="fill:#000080;"/>
   </g>
   <g id="patch_7">
    <path clip-path="url(#p7eb61e96a0)" d="M 80.519394 224.64 
L 84.472168 224.64 
L 84.472168 162.514286 
L 80.519394 162.514286 
z
" style="fill:#0000f1;"/>
   </g>
   <g id="patch_8">
    <path clip-path="url(#p7eb61e96a0)" d="M 167.480433 224.64 
L 171.433207 224.64 
L 171.433207 57.590857 
L 167.480433 57.590857 
z
" style="fill:#0000f1;"/>
   </g>
   <g id="patch_9">
    <path clip-path="url(#p7eb61e96a0)" d="M 254.441472 224.64 
L 258.394246 224.64 
L 258.394246 98.317714 
L 254.441472 98.317714 
z
" style="fill:#0000f1;"/>
   </g>
   <g id="patch_10">
    <path clip-path="url(#p7eb61e96a0)" d="M 341.402511 224.64 
L 345.355285 224.64 
L 345.355285 185.293714 
L 341.402511 185.293714 
z
" style="fill:#0000f1;"/>
   </g>
   <g id="patch_11">
    <path clip-path="url(#p7eb61e96a0)" d="M 84.472168 224.64 
L 88.424943 224.64 
L 88.424943 189.435429 
L 84.472168 189.435429 
z
" style="fill:#004cff;"/>
   </g>
   <g id="patch_12">
    <path clip-path="url(#p7eb61e96a0)" d="M 171.433207 224.64 
L 175.385982 224.64 
L 175.385982 106.601143 
L 171.433207 106.601143 
z
" style="fill:#004cff;"/>
   </g>
   <g id="patch_13">
    <path clip-path="url(#p7eb61e96a0)" d="M 258.394246 224.64 
L 262.347021 224.64 
L 262.347021 110.742857 
L 258.394246 110.742857 
z
" style="fill:#004cff;"/>
   </g>
   <g id="patch_14">
    <path clip-path="url(#p7eb61e96a0)" d="M 345.355285 224.64 
L 349.30806 224.64 
L 349.30806 201.860571 
L 345.355285 201.860571 
z
" style="fill:#004cff;"/>
   </g>
   <g id="patch_15">
    <path clip-path="url(#p7eb61e96a0)" d="M 88.424943 224.64 
L 92.377717 224.64 
L 92.377717 197.028571 
L 88.424943 197.028571 
z
" style="fill:#00b0ff;"/>
   </g>
   <g id="patch_16">
    <path clip-path="url(#p7eb61e96a0)" d="M 175.385982 224.64 
L 179.338756 224.64 
L 179.338756 119.026286 
L 175.385982 119.026286 
z
" style="fill:#00b0ff;"/>
   </g>
   <g id="patch_17">
    <path clip-path="url(#p7eb61e96a0)" d="M 262.347021 224.64 
L 266.299795 224.64 
L 266.299795 121.787429 
L 262.347021 121.787429 
z
" style="fill:#00b0ff;"/>
   </g>
   <g id="patch_18">
    <path clip-path="url(#p7eb61e96a0)" d="M 349.30806 224.64 
L 353.260834 224.64 
L 353.260834 211.524571 
L 349.30806 211.524571 
z
" style="fill:#00b0ff;"/>
   </g>
   <g id="patch_19">
    <path clip-path="url(#p7eb61e96a0)" d="M 92.377717 224.64 
L 96.330492 224.64 
L 96.330492 211.524571 
L 92.377717 211.524571 
z
" style="fill:#29ffce;"/>
   </g>
   <g id="patch_20">
    <path clip-path="url(#p7eb61e96a0)" d="M 179.338756 224.64 
L 183.291531 224.64 
L 183.291531 127.309714 
L 179.338756 127.309714 
z
" style="fill:#29ffce;"/>
   </g>
   <g id="patch_21">
    <path clip-path="url(#p7eb61e96a0)" d="M 266.299795 224.64 
L 270.25257 224.64 
L 270.25257 137.664 
L 266.299795 137.664 
z
" style="fill:#29ffce;"/>
   </g>
   <g id="patch_22">
    <path clip-path="url(#p7eb61e96a0)" d="M 353.260834 224.64 
L 357.213609 224.64 
L 357.213609 217.737143 
L 353.260834 217.737143 
z
" style="fill:#29ffce;"/>
   </g>
   <g id="patch_23">
    <path clip-path="url(#p7eb61e96a0)" d="M 96.330492 224.64 
L 100.283266 224.64 
L 100.283266 218.427429 
L 96.330492 218.427429 
z
" style="fill:#7dff7a;"/>
   </g>
   <g id="patch_24">
    <path clip-path="url(#p7eb61e96a0)" d="M 183.291531 224.64 
L 187.244305 224.64 
L 187.244305 159.753143 
L 183.291531 159.753143 
z
" style="fill:#7dff7a;"/>
   </g>
   <g id="patch_25">
    <path clip-path="url(#p7eb61e96a0)" d="M 270.25257 224.64 
L 274.205344 224.64 
L 274.205344 161.133714 
L 270.25257 161.133714 
z
" style="fill:#7dff7a;"/>
   </g>
   <g id="patch_26">
    <path clip-path="url(#p7eb61e96a0)" d="M 357.213609 224.64 
L 361.166383 224.64 
L 361.166383 221.878857 
L 357.213609 221.878857 
z
" style="fill:#7dff7a;"/>
   </g>
   <g id="patch_27">
    <path clip-path="url(#p7eb61e96a0)" d="M 100.283266 224.64 
L 104.236041 224.64 
L 104.236041 217.046857 
L 100.283266 217.046857 
z
" style="fill:#ceff29;"/>
   </g>
   <g id="patch_28">
    <path clip-path="url(#p7eb61e96a0)" d="M 187.244305 224.64 
L 191.19708 224.64 
L 191.19708 167.346286 
L 187.244305 167.346286 
z
" style="fill:#ceff29;"/>
   </g>
   <g id="patch_29">
    <path clip-path="url(#p7eb61e96a0)" d="M 274.205344 224.64 
L 278.158119 224.64 
L 278.158119 166.656 
L 274.205344 166.656 
z
" style="fill:#ceff29;"/>
   </g>
   <g id="patch_30">
    <path clip-path="url(#p7eb61e96a0)" d="M 361.166383 224.64 
L 365.119158 224.64 
L 365.119158 221.878857 
L 361.166383 221.878857 
z
" style="fill:#ceff29;"/>
   </g>
   <g id="patch_31">
    <path clip-path="url(#p7eb61e96a0)" d="M 104.236041 224.64 
L 108.188815 224.64 
L 108.188815 223.259429 
L 104.236041 223.259429 
z
" style="fill:#ffc400;"/>
   </g>
   <g id="patch_32">
    <path clip-path="url(#p7eb61e96a0)" d="M 191.19708 224.64 
L 195.149854 224.64 
L 195.149854 174.939429 
L 191.19708 174.939429 
z
" style="fill:#ffc400;"/>
   </g>
   <g id="patch_33">
    <path clip-path="url(#p7eb61e96a0)" d="M 278.158119 224.64 
L 282.110893 224.64 
L 282.110893 172.868571 
L 278.158119 172.868571 
z
" style="fill:#ffc400;"/>
   </g>
   <g id="patch_34">
    <path clip-path="url(#p7eb61e96a0)" d="M 365.119158 224.64 
L 369.071932 224.64 
L 369.071932 223.259429 
L 365.119158 223.259429 
z
" style="fill:#ffc400;"/>
   </g>
   <g id="patch_35">
    <path clip-path="url(#p7eb61e96a0)" d="M 108.188815 224.64 
L 112.14159 224.64 
L 112.14159 220.498286 
L 108.188815 220.498286 
z
" style="fill:#ff6800;"/>
   </g>
   <g id="patch_36">
    <path clip-path="url(#p7eb61e96a0)" d="M 195.149854 224.64 
L 199.102629 224.64 
L 199.102629 189.435429 
L 195.149854 189.435429 
z
" style="fill:#ff6800;"/>
   </g>
   <g id="patch_37">
    <path clip-path="url(#p7eb61e96a0)" d="M 282.110893 224.64 
L 286.063668 224.64 
L 286.063668 183.222857 
L 282.110893 183.222857 
z
" style="fill:#ff6800;"/>
   </g>
   <g id="patch_38">
    <path clip-path="url(#p7eb61e96a0)" d="M 369.071932 224.64 
L 373.024707 224.64 
L 373.024707 223.259429 
L 369.071932 223.259429 
z
" style="fill:#ff6800;"/>
   </g>
   <g id="patch_39">
    <path clip-path="url(#p7eb61e96a0)" d="M 112.14159 224.64 
L 116.094364 224.64 
L 116.094364 223.949714 
L 112.14159 223.949714 
z
" style="fill:#f10800;"/>
   </g>
   <g id="patch_40">
    <path clip-path="url(#p7eb61e96a0)" d="M 199.102629 224.64 
L 203.055403 224.64 
L 203.055403 193.577143 
L 199.102629 193.577143 
z
" style="fill:#f10800;"/>
   </g>
   <g id="patch_41">
    <path clip-path="url(#p7eb61e96a0)" d="M 286.063668 224.64 
L 290.016442 224.64 
L 290.016442 189.435429 
L 286.063668 189.435429 
z
" style="fill:#f10800;"/>
   </g>
   <g id="patch_42">
    <path clip-path="url(#p7eb61e96a0)" d="M 373.024707 224.64 
L 376.977481 224.64 
L 376.977481 224.64 
L 373.024707 224.64 
z
" style="fill:#f10800;"/>
   </g>
   <g id="patch_43">
    <path clip-path="url(#p7eb61e96a0)" d="M 116.094364 224.64 
L 120.047139 224.64 
L 120.047139 224.64 
L 116.094364 224.64 
z
" style="fill:#800000;"/>
   </g>
   <g id="patch_44">
    <path clip-path="url(#p7eb61e96a0)" d="M 203.055403 224.64 
L 207.008178 224.64 
L 207.008178 205.312 
L 203.055403 205.312 
z
" style="fill:#800000;"/>
   </g>
   <g id="patch_45">
    <path clip-path="url(#p7eb61e96a0)" d="M 290.016442 224.64 
L 293.969217 224.64 
L 293.969217 191.506286 
L 290.016442 191.506286 
z
" style="fill:#800000;"/>
   </g>
   <g id="patch_46">
    <path clip-path="url(#p7eb61e96a0)" d="M 376.977481 224.64 
L 380.930256 224.64 
L 380.930256 223.259429 
L 376.977481 223.259429 
z
" style="fill:#800000;"/>
   </g>
   <g id="matplotlib.axis_1">
    <g id="xtick_1">
     <g id="line2d_1">
      <defs>
       <path d="M 0 0 
L 0 3.5 
" id="m6490b7990d" style="stroke:#000000;stroke-width:0.8;"/>
      </defs>
      <g>
       <use style="stroke:#000000;stroke-width:0.8;" x="98.306879" xlink:href="#m6490b7990d" y="224.64"/>
      </g>
     </g>
     <g id="text_1">
      <!-- AA -->
      <g transform="translate(87.839692 243.037656)scale(0.15 -0.15)">
       <defs>
        <path d="M 2188 4044 
L 1331 1722 
L 3047 1722 
L 2188 4044 
z
M 1831 4666 
L 2547 4666 
L 4325 0 
L 3669 0 
L 3244 1197 
L 1141 1197 
L 716 0 
L 50 0 
L 1831 4666 
z
" id="DejaVuSans-41" transform="scale(0.015625)"/>
       </defs>
       <use xlink:href="#DejaVuSans-41"/>
       <use x="71.158203" xlink:href="#DejaVuSans-41"/>
      </g>
     </g>
    </g>
    <g id="xtick_2">
     <g id="line2d_2">
      <g>
       <use style="stroke:#000000;stroke-width:0.8;" x="185.267918" xlink:href="#m6490b7990d" y="224.64"/>
      </g>
     </g>
     <g id="text_2">
      <!-- RL -->
      <g transform="translate(175.877684 243.037656)scale(0.15 -0.15)">
       <defs>
        <path d="M 2841 2188 
Q 3044 2119 3236 1894 
Q 3428 1669 3622 1275 
L 4263 0 
L 3584 0 
L 2988 1197 
Q 2756 1666 2539 1819 
Q 2322 1972 1947 1972 
L 1259 1972 
L 1259 0 
L 628 0 
L 628 4666 
L 2053 4666 
Q 2853 4666 3247 4331 
Q 3641 3997 3641 3322 
Q 3641 2881 3436 2590 
Q 3231 2300 2841 2188 
z
M 1259 4147 
L 1259 2491 
L 2053 2491 
Q 2509 2491 2742 2702 
Q 2975 2913 2975 3322 
Q 2975 3731 2742 3939 
Q 2509 4147 2053 4147 
L 1259 4147 
z
" id="DejaVuSans-52" transform="scale(0.015625)"/>
        <path d="M 628 4666 
L 1259 4666 
L 1259 531 
L 3531 531 
L 3531 0 
L 628 0 
L 628 4666 
z
" id="DejaVuSans-4c" transform="scale(0.015625)"/>
       </defs>
       <use xlink:href="#DejaVuSans-52"/>
       <use x="69.482422" xlink:href="#DejaVuSans-4c"/>
      </g>
     </g>
    </g>
    <g id="xtick_3">
     <g id="line2d_3">
      <g>
       <use style="stroke:#000000;stroke-width:0.8;" x="272.228957" xlink:href="#m6490b7990d" y="224.64"/>
      </g>
     </g>
     <g id="text_3">
      <!-- RA -->
      <g transform="translate(262.18716 243.037656)scale(0.15 -0.15)">
       <use xlink:href="#DejaVuSans-52"/>
       <use x="65.482422" xlink:href="#DejaVuSans-41"/>
      </g>
     </g>
    </g>
    <g id="xtick_4">
     <g id="line2d_4">
      <g>
       <use style="stroke:#000000;stroke-width:0.8;" x="359.189996" xlink:href="#m6490b7990d" y="224.64"/>
      </g>
     </g>
     <g id="text_4">
      <!-- AL -->
      <g transform="translate(349.880621 243.037656)scale(0.15 -0.15)">
       <use xlink:href="#DejaVuSans-41"/>
       <use x="68.408203" xlink:href="#DejaVuSans-4c"/>
      </g>
     </g>
    </g>
   </g>
   <g id="matplotlib.axis_2">
    <g id="ytick_1">
     <g id="line2d_5">
      <defs>
       <path d="M 0 0 
L -3.5 0 
" id="mfe5cd93ee5" style="stroke:#000000;stroke-width:0.8;"/>
      </defs>
      <g>
       <use style="stroke:#000000;stroke-width:0.8;" x="61.348438" xlink:href="#mfe5cd93ee5" y="224.64"/>
      </g>
     </g>
     <g id="text_5">
      <!-- 0 -->
      <g transform="translate(44.804688 230.338828)scale(0.15 -0.15)">
       <defs>
        <path d="M 2034 4250 
Q 1547 4250 1301 3770 
Q 1056 3291 1056 2328 
Q 1056 1369 1301 889 
Q 1547 409 2034 409 
Q 2525 409 2770 889 
Q 3016 1369 3016 2328 
Q 3016 3291 2770 3770 
Q 2525 4250 2034 4250 
z
M 2034 4750 
Q 2819 4750 3233 4129 
Q 3647 3509 3647 2328 
Q 3647 1150 3233 529 
Q 2819 -91 2034 -91 
Q 1250 -91 836 529 
Q 422 1150 422 2328 
Q 422 3509 836 4129 
Q 1250 4750 2034 4750 
z
" id="DejaVuSans-30" transform="scale(0.015625)"/>
       </defs>
       <use xlink:href="#DejaVuSans-30"/>
      </g>
     </g>
    </g>
    <g id="ytick_2">
     <g id="line2d_6">
      <g>
       <use style="stroke:#000000;stroke-width:0.8;" x="61.348438" xlink:href="#mfe5cd93ee5" y="190.125714"/>
      </g>
     </g>
     <g id="text_6">
      <!-- 50 -->
      <g transform="translate(35.260938 195.824542)scale(0.15 -0.15)">
       <defs>
        <path d="M 691 4666 
L 3169 4666 
L 3169 4134 
L 1269 4134 
L 1269 2991 
Q 1406 3038 1543 3061 
Q 1681 3084 1819 3084 
Q 2600 3084 3056 2656 
Q 3513 2228 3513 1497 
Q 3513 744 3044 326 
Q 2575 -91 1722 -91 
Q 1428 -91 1123 -41 
Q 819 9 494 109 
L 494 744 
Q 775 591 1075 516 
Q 1375 441 1709 441 
Q 2250 441 2565 725 
Q 2881 1009 2881 1497 
Q 2881 1984 2565 2268 
Q 2250 2553 1709 2553 
Q 1456 2553 1204 2497 
Q 953 2441 691 2322 
L 691 4666 
z
" id="DejaVuSans-35" transform="scale(0.015625)"/>
       </defs>
       <use xlink:href="#DejaVuSans-35"/>
       <use x="63.623047" xlink:href="#DejaVuSans-30"/>
      </g>
     </g>
    </g>
    <g id="ytick_3">
     <g id="line2d_7">
      <g>
       <use style="stroke:#000000;stroke-width:0.8;" x="61.348438" xlink:href="#mfe5cd93ee5" y="155.611429"/>
      </g>
     </g>
     <g id="text_7">
      <!-- 100 -->
      <g transform="translate(25.717188 161.310257)scale(0.15 -0.15)">
       <defs>
        <path d="M 794 531 
L 1825 531 
L 1825 4091 
L 703 3866 
L 703 4441 
L 1819 4666 
L 2450 4666 
L 2450 531 
L 3481 531 
L 3481 0 
L 794 0 
L 794 531 
z
" id="DejaVuSans-31" transform="scale(0.015625)"/>
       </defs>
       <use xlink:href="#DejaVuSans-31"/>
       <use x="63.623047" xlink:href="#DejaVuSans-30"/>
       <use x="127.246094" xlink:href="#DejaVuSans-30"/>
      </g>
     </g>
    </g>
    <g id="ytick_4">
     <g id="line2d_8">
      <g>
       <use style="stroke:#000000;stroke-width:0.8;" x="61.348438" xlink:href="#mfe5cd93ee5" y="121.097143"/>
      </g>
     </g>
     <g id="text_8">
      <!-- 150 -->
      <g transform="translate(25.717188 126.795971)scale(0.15 -0.15)">
       <use xlink:href="#DejaVuSans-31"/>
       <use x="63.623047" xlink:href="#DejaVuSans-35"/>
       <use x="127.246094" xlink:href="#DejaVuSans-30"/>
      </g>
     </g>
    </g>
    <g id="ytick_5">
     <g id="line2d_9">
      <g>
       <use style="stroke:#000000;stroke-width:0.8;" x="61.348438" xlink:href="#mfe5cd93ee5" y="86.582857"/>
      </g>
     </g>
     <g id="text_9">
      <!-- 200 -->
      <g transform="translate(25.717188 92.281685)scale(0.15 -0.15)">
       <defs>
        <path d="M 1228 531 
L 3431 531 
L 3431 0 
L 469 0 
L 469 531 
Q 828 903 1448 1529 
Q 2069 2156 2228 2338 
Q 2531 2678 2651 2914 
Q 2772 3150 2772 3378 
Q 2772 3750 2511 3984 
Q 2250 4219 1831 4219 
Q 1534 4219 1204 4116 
Q 875 4013 500 3803 
L 500 4441 
Q 881 4594 1212 4672 
Q 1544 4750 1819 4750 
Q 2544 4750 2975 4387 
Q 3406 4025 3406 3419 
Q 3406 3131 3298 2873 
Q 3191 2616 2906 2266 
Q 2828 2175 2409 1742 
Q 1991 1309 1228 531 
z
" id="DejaVuSans-32" transform="scale(0.015625)"/>
       </defs>
       <use xlink:href="#DejaVuSans-32"/>
       <use x="63.623047" xlink:href="#DejaVuSans-30"/>
       <use x="127.246094" xlink:href="#DejaVuSans-30"/>
      </g>
     </g>
    </g>
    <g id="ytick_6">
     <g id="line2d_10">
      <g>
       <use style="stroke:#000000;stroke-width:0.8;" x="61.348438" xlink:href="#mfe5cd93ee5" y="52.068571"/>
      </g>
     </g>
     <g id="text_10">
      <!-- 250 -->
      <g transform="translate(25.717188 57.7674)scale(0.15 -0.15)">
       <use xlink:href="#DejaVuSans-32"/>
       <use x="63.623047" xlink:href="#DejaVuSans-35"/>
       <use x="127.246094" xlink:href="#DejaVuSans-30"/>
      </g>
     </g>
    </g>
    <g id="ytick_7">
     <g id="line2d_11">
      <g>
       <use style="stroke:#000000;stroke-width:0.8;" x="61.348438" xlink:href="#mfe5cd93ee5" y="17.554286"/>
      </g>
     </g>
     <g id="text_11">
      <!-- 300 -->
      <g transform="translate(25.717188 23.253114)scale(0.15 -0.15)">
       <defs>
        <path d="M 2597 2516 
Q 3050 2419 3304 2112 
Q 3559 1806 3559 1356 
Q 3559 666 3084 287 
Q 2609 -91 1734 -91 
Q 1441 -91 1130 -33 
Q 819 25 488 141 
L 488 750 
Q 750 597 1062 519 
Q 1375 441 1716 441 
Q 2309 441 2620 675 
Q 2931 909 2931 1356 
Q 2931 1769 2642 2001 
Q 2353 2234 1838 2234 
L 1294 2234 
L 1294 2753 
L 1863 2753 
Q 2328 2753 2575 2939 
Q 2822 3125 2822 3475 
Q 2822 3834 2567 4026 
Q 2313 4219 1838 4219 
Q 1578 4219 1281 4162 
Q 984 4106 628 3988 
L 628 4550 
Q 988 4650 1302 4700 
Q 1616 4750 1894 4750 
Q 2613 4750 3031 4423 
Q 3450 4097 3450 3541 
Q 3450 3153 3228 2886 
Q 3006 2619 2597 2516 
z
" id="DejaVuSans-33" transform="scale(0.015625)"/>
       </defs>
       <use xlink:href="#DejaVuSans-33"/>
       <use x="63.623047" xlink:href="#DejaVuSans-30"/>
       <use x="127.246094" xlink:href="#DejaVuSans-30"/>
      </g>
     </g>
    </g>
    <g id="text_12">
     <!-- Shortcuts [#] -->
     <g transform="translate(18.597656 166.291875)rotate(-90)scale(0.15 -0.15)">
      <defs>
       <path d="M 3425 4513 
L 3425 3897 
Q 3066 4069 2747 4153 
Q 2428 4238 2131 4238 
Q 1616 4238 1336 4038 
Q 1056 3838 1056 3469 
Q 1056 3159 1242 3001 
Q 1428 2844 1947 2747 
L 2328 2669 
Q 3034 2534 3370 2195 
Q 3706 1856 3706 1288 
Q 3706 609 3251 259 
Q 2797 -91 1919 -91 
Q 1588 -91 1214 -16 
Q 841 59 441 206 
L 441 856 
Q 825 641 1194 531 
Q 1563 422 1919 422 
Q 2459 422 2753 634 
Q 3047 847 3047 1241 
Q 3047 1584 2836 1778 
Q 2625 1972 2144 2069 
L 1759 2144 
Q 1053 2284 737 2584 
Q 422 2884 422 3419 
Q 422 4038 858 4394 
Q 1294 4750 2059 4750 
Q 2388 4750 2728 4690 
Q 3069 4631 3425 4513 
z
" id="DejaVuSans-53" transform="scale(0.015625)"/>
       <path d="M 3513 2113 
L 3513 0 
L 2938 0 
L 2938 2094 
Q 2938 2591 2744 2837 
Q 2550 3084 2163 3084 
Q 1697 3084 1428 2787 
Q 1159 2491 1159 1978 
L 1159 0 
L 581 0 
L 581 4863 
L 1159 4863 
L 1159 2956 
Q 1366 3272 1645 3428 
Q 1925 3584 2291 3584 
Q 2894 3584 3203 3211 
Q 3513 2838 3513 2113 
z
" id="DejaVuSans-68" transform="scale(0.015625)"/>
       <path d="M 1959 3097 
Q 1497 3097 1228 2736 
Q 959 2375 959 1747 
Q 959 1119 1226 758 
Q 1494 397 1959 397 
Q 2419 397 2687 759 
Q 2956 1122 2956 1747 
Q 2956 2369 2687 2733 
Q 2419 3097 1959 3097 
z
M 1959 3584 
Q 2709 3584 3137 3096 
Q 3566 2609 3566 1747 
Q 3566 888 3137 398 
Q 2709 -91 1959 -91 
Q 1206 -91 779 398 
Q 353 888 353 1747 
Q 353 2609 779 3096 
Q 1206 3584 1959 3584 
z
" id="DejaVuSans-6f" transform="scale(0.015625)"/>
       <path d="M 2631 2963 
Q 2534 3019 2420 3045 
Q 2306 3072 2169 3072 
Q 1681 3072 1420 2755 
Q 1159 2438 1159 1844 
L 1159 0 
L 581 0 
L 581 3500 
L 1159 3500 
L 1159 2956 
Q 1341 3275 1631 3429 
Q 1922 3584 2338 3584 
Q 2397 3584 2469 3576 
Q 2541 3569 2628 3553 
L 2631 2963 
z
" id="DejaVuSans-72" transform="scale(0.015625)"/>
       <path d="M 1172 4494 
L 1172 3500 
L 2356 3500 
L 2356 3053 
L 1172 3053 
L 1172 1153 
Q 1172 725 1289 603 
Q 1406 481 1766 481 
L 2356 481 
L 2356 0 
L 1766 0 
Q 1100 0 847 248 
Q 594 497 594 1153 
L 594 3053 
L 172 3053 
L 172 3500 
L 594 3500 
L 594 4494 
L 1172 4494 
z
" id="DejaVuSans-74" transform="scale(0.015625)"/>
       <path d="M 3122 3366 
L 3122 2828 
Q 2878 2963 2633 3030 
Q 2388 3097 2138 3097 
Q 1578 3097 1268 2742 
Q 959 2388 959 1747 
Q 959 1106 1268 751 
Q 1578 397 2138 397 
Q 2388 397 2633 464 
Q 2878 531 3122 666 
L 3122 134 
Q 2881 22 2623 -34 
Q 2366 -91 2075 -91 
Q 1284 -91 818 406 
Q 353 903 353 1747 
Q 353 2603 823 3093 
Q 1294 3584 2113 3584 
Q 2378 3584 2631 3529 
Q 2884 3475 3122 3366 
z
" id="DejaVuSans-63" transform="scale(0.015625)"/>
       <path d="M 544 1381 
L 544 3500 
L 1119 3500 
L 1119 1403 
Q 1119 906 1312 657 
Q 1506 409 1894 409 
Q 2359 409 2629 706 
Q 2900 1003 2900 1516 
L 2900 3500 
L 3475 3500 
L 3475 0 
L 2900 0 
L 2900 538 
Q 2691 219 2414 64 
Q 2138 -91 1772 -91 
Q 1169 -91 856 284 
Q 544 659 544 1381 
z
M 1991 3584 
L 1991 3584 
z
" id="DejaVuSans-75" transform="scale(0.015625)"/>
       <path d="M 2834 3397 
L 2834 2853 
Q 2591 2978 2328 3040 
Q 2066 3103 1784 3103 
Q 1356 3103 1142 2972 
Q 928 2841 928 2578 
Q 928 2378 1081 2264 
Q 1234 2150 1697 2047 
L 1894 2003 
Q 2506 1872 2764 1633 
Q 3022 1394 3022 966 
Q 3022 478 2636 193 
Q 2250 -91 1575 -91 
Q 1294 -91 989 -36 
Q 684 19 347 128 
L 347 722 
Q 666 556 975 473 
Q 1284 391 1588 391 
Q 1994 391 2212 530 
Q 2431 669 2431 922 
Q 2431 1156 2273 1281 
Q 2116 1406 1581 1522 
L 1381 1569 
Q 847 1681 609 1914 
Q 372 2147 372 2553 
Q 372 3047 722 3315 
Q 1072 3584 1716 3584 
Q 2034 3584 2315 3537 
Q 2597 3491 2834 3397 
z
" id="DejaVuSans-73" transform="scale(0.015625)"/>
       <path id="DejaVuSans-20" transform="scale(0.015625)"/>
       <path d="M 550 4863 
L 1875 4863 
L 1875 4416 
L 1125 4416 
L 1125 -397 
L 1875 -397 
L 1875 -844 
L 550 -844 
L 550 4863 
z
" id="DejaVuSans-5b" transform="scale(0.015625)"/>
       <path d="M 3272 2816 
L 2363 2816 
L 2100 1772 
L 3016 1772 
L 3272 2816 
z
M 2803 4594 
L 2478 3297 
L 3391 3297 
L 3719 4594 
L 4219 4594 
L 3897 3297 
L 4872 3297 
L 4872 2816 
L 3775 2816 
L 3519 1772 
L 4513 1772 
L 4513 1294 
L 3397 1294 
L 3072 0 
L 2572 0 
L 2894 1294 
L 1978 1294 
L 1656 0 
L 1153 0 
L 1478 1294 
L 494 1294 
L 494 1772 
L 1594 1772 
L 1856 2816 
L 850 2816 
L 850 3297 
L 1978 3297 
L 2297 4594 
L 2803 4594 
z
" id="DejaVuSans-23" transform="scale(0.015625)"/>
       <path d="M 1947 4863 
L 1947 -844 
L 622 -844 
L 622 -397 
L 1369 -397 
L 1369 4416 
L 622 4416 
L 622 4863 
L 1947 4863 
z
" id="DejaVuSans-5d" transform="scale(0.015625)"/>
      </defs>
      <use xlink:href="#DejaVuSans-53"/>
      <use x="63.476562" xlink:href="#DejaVuSans-68"/>
      <use x="126.855469" xlink:href="#DejaVuSans-6f"/>
      <use x="188.037109" xlink:href="#DejaVuSans-72"/>
      <use x="229.150391" xlink:href="#DejaVuSans-74"/>
      <use x="268.359375" xlink:href="#DejaVuSans-63"/>
      <use x="323.339844" xlink:href="#DejaVuSans-75"/>
      <use x="386.71875" xlink:href="#DejaVuSans-74"/>
      <use x="425.927734" xlink:href="#DejaVuSans-73"/>
      <use x="478.027344" xlink:href="#DejaVuSans-20"/>
      <use x="509.814453" xlink:href="#DejaVuSans-5b"/>
      <use x="548.828125" xlink:href="#DejaVuSans-23"/>
      <use x="632.617188" xlink:href="#DejaVuSans-5d"/>
     </g>
    </g>
   </g>
   <g id="patch_47">
    <path d="M 61.348438 224.64 
L 61.348438 7.2 
" style="fill:none;stroke:#000000;stroke-linecap:square;stroke-linejoin:miter;stroke-width:0.8;"/>
   </g>
   <g id="patch_48">
    <path d="M 61.348438 224.64 
L 396.148438 224.64 
" style="fill:none;stroke:#000000;stroke-linecap:square;stroke-linejoin:miter;stroke-width:0.8;"/>
   </g>
   <g id="legend_1">
    <g id="patch_49">
     <path d="M 13.468437 309.264 
L 444.028438 309.264 
Q 446.428438 309.264 446.428438 306.864 
L 446.428438 254.784 
Q 446.428438 252.384 444.028438 252.384 
L 13.468437 252.384 
Q 11.068437 252.384 11.068437 254.784 
L 11.068437 306.864 
Q 11.068437 309.264 13.468437 309.264 
z
" style="fill:none;opacity:0;"/>
    </g>
    <g id="patch_50">
     <path d="M 15.868437 266.424 
L 39.868437 266.424 
L 39.868437 258.024 
L 15.868437 258.024 
z
" style="fill:#000080;"/>
    </g>
    <g id="text_13">
     <!-- $\beta_M = 5.0$ -->
     <g transform="translate(49.468437 266.424)scale(0.12 -0.12)">
      <defs>
       <path d="M 872 216 
L 572 -1331 
L -6 -1331 
L 928 3478 
Q 1206 4903 2538 4903 
Q 3888 4903 3659 3700 
Q 3503 2844 2894 2531 
Q 3713 2250 3553 1416 
Q 3272 -69 1759 -66 
Q 1097 -63 872 216 
z
M 1019 966 
Q 1259 422 1875 425 
Q 2775 425 2966 1406 
Q 3138 2288 1675 2219 
L 1778 2750 
Q 2909 2731 3106 3750 
Q 3241 4438 2509 4434 
Q 1691 4434 1503 3459 
L 1019 966 
z
" id="DejaVuSans-Oblique-3b2" transform="scale(0.015625)"/>
       <path d="M 1081 4666 
L 2028 4666 
L 2572 1522 
L 4378 4666 
L 5350 4666 
L 4441 0 
L 3828 0 
L 4622 4091 
L 2791 897 
L 2175 897 
L 1581 4103 
L 788 0 
L 172 0 
L 1081 4666 
z
" id="DejaVuSans-Oblique-4d" transform="scale(0.015625)"/>
       <path d="M 678 2906 
L 4684 2906 
L 4684 2381 
L 678 2381 
L 678 2906 
z
M 678 1631 
L 4684 1631 
L 4684 1100 
L 678 1100 
L 678 1631 
z
" id="DejaVuSans-3d" transform="scale(0.015625)"/>
       <path d="M 684 794 
L 1344 794 
L 1344 0 
L 684 0 
L 684 794 
z
" id="DejaVuSans-2e" transform="scale(0.015625)"/>
      </defs>
      <use transform="translate(0 0.390625)" xlink:href="#DejaVuSans-Oblique-3b2"/>
      <use transform="translate(63.818359 -16.015625)scale(0.7)" xlink:href="#DejaVuSans-Oblique-4d"/>
      <use transform="translate(146.430664 0.390625)" xlink:href="#DejaVuSans-3d"/>
      <use transform="translate(249.702148 0.390625)" xlink:href="#DejaVuSans-35"/>
      <use transform="translate(313.325195 0.390625)" xlink:href="#DejaVuSans-2e"/>
      <use transform="translate(345.112305 0.390625)" xlink:href="#DejaVuSans-30"/>
     </g>
    </g>
    <g id="patch_51">
     <path d="M 15.868437 284.184 
L 39.868437 284.184 
L 39.868437 275.784 
L 15.868437 275.784 
z
" style="fill:#0000f1;"/>
    </g>
    <g id="text_14">
     <!-- $\beta_M = 6.0$ -->
     <g transform="translate(49.468437 284.184)scale(0.12 -0.12)">
      <defs>
       <path d="M 2113 2584 
Q 1688 2584 1439 2293 
Q 1191 2003 1191 1497 
Q 1191 994 1439 701 
Q 1688 409 2113 409 
Q 2538 409 2786 701 
Q 3034 994 3034 1497 
Q 3034 2003 2786 2293 
Q 2538 2584 2113 2584 
z
M 3366 4563 
L 3366 3988 
Q 3128 4100 2886 4159 
Q 2644 4219 2406 4219 
Q 1781 4219 1451 3797 
Q 1122 3375 1075 2522 
Q 1259 2794 1537 2939 
Q 1816 3084 2150 3084 
Q 2853 3084 3261 2657 
Q 3669 2231 3669 1497 
Q 3669 778 3244 343 
Q 2819 -91 2113 -91 
Q 1303 -91 875 529 
Q 447 1150 447 2328 
Q 447 3434 972 4092 
Q 1497 4750 2381 4750 
Q 2619 4750 2861 4703 
Q 3103 4656 3366 4563 
z
" id="DejaVuSans-36" transform="scale(0.015625)"/>
      </defs>
      <use transform="translate(0 0.390625)" xlink:href="#DejaVuSans-Oblique-3b2"/>
      <use transform="translate(63.818359 -16.015625)scale(0.7)" xlink:href="#DejaVuSans-Oblique-4d"/>
      <use transform="translate(146.430664 0.390625)" xlink:href="#DejaVuSans-3d"/>
      <use transform="translate(249.702148 0.390625)" xlink:href="#DejaVuSans-36"/>
      <use transform="translate(313.325195 0.390625)" xlink:href="#DejaVuSans-2e"/>
      <use transform="translate(345.112305 0.390625)" xlink:href="#DejaVuSans-30"/>
     </g>
    </g>
    <g id="patch_52">
     <path d="M 15.868437 301.944 
L 39.868437 301.944 
L 39.868437 293.544 
L 15.868437 293.544 
z
" style="fill:#004cff;"/>
    </g>
    <g id="text_15">
     <!-- $\beta_M = 7.0$ -->
     <g transform="translate(49.468437 301.944)scale(0.12 -0.12)">
      <defs>
       <path d="M 525 4666 
L 3525 4666 
L 3525 4397 
L 1831 0 
L 1172 0 
L 2766 4134 
L 525 4134 
L 525 4666 
z
" id="DejaVuSans-37" transform="scale(0.015625)"/>
      </defs>
      <use transform="translate(0 0.390625)" xlink:href="#DejaVuSans-Oblique-3b2"/>
      <use transform="translate(63.818359 -16.015625)scale(0.7)" xlink:href="#DejaVuSans-Oblique-4d"/>
      <use transform="translate(146.430664 0.390625)" xlink:href="#DejaVuSans-3d"/>
      <use transform="translate(249.702148 0.390625)" xlink:href="#DejaVuSans-37"/>
      <use transform="translate(313.325195 0.390625)" xlink:href="#DejaVuSans-2e"/>
      <use transform="translate(345.112305 0.390625)" xlink:href="#DejaVuSans-30"/>
     </g>
    </g>
    <g id="patch_53">
     <path d="M 122.548437 266.424 
L 146.548437 266.424 
L 146.548437 258.024 
L 122.548437 258.024 
z
" style="fill:#00b0ff;"/>
    </g>
    <g id="text_16">
     <!-- $\beta_M = 8.0$ -->
     <g transform="translate(156.148438 266.424)scale(0.12 -0.12)">
      <defs>
       <path d="M 2034 2216 
Q 1584 2216 1326 1975 
Q 1069 1734 1069 1313 
Q 1069 891 1326 650 
Q 1584 409 2034 409 
Q 2484 409 2743 651 
Q 3003 894 3003 1313 
Q 3003 1734 2745 1975 
Q 2488 2216 2034 2216 
z
M 1403 2484 
Q 997 2584 770 2862 
Q 544 3141 544 3541 
Q 544 4100 942 4425 
Q 1341 4750 2034 4750 
Q 2731 4750 3128 4425 
Q 3525 4100 3525 3541 
Q 3525 3141 3298 2862 
Q 3072 2584 2669 2484 
Q 3125 2378 3379 2068 
Q 3634 1759 3634 1313 
Q 3634 634 3220 271 
Q 2806 -91 2034 -91 
Q 1263 -91 848 271 
Q 434 634 434 1313 
Q 434 1759 690 2068 
Q 947 2378 1403 2484 
z
M 1172 3481 
Q 1172 3119 1398 2916 
Q 1625 2713 2034 2713 
Q 2441 2713 2670 2916 
Q 2900 3119 2900 3481 
Q 2900 3844 2670 4047 
Q 2441 4250 2034 4250 
Q 1625 4250 1398 4047 
Q 1172 3844 1172 3481 
z
" id="DejaVuSans-38" transform="scale(0.015625)"/>
      </defs>
      <use transform="translate(0 0.390625)" xlink:href="#DejaVuSans-Oblique-3b2"/>
      <use transform="translate(63.818359 -16.015625)scale(0.7)" xlink:href="#DejaVuSans-Oblique-4d"/>
      <use transform="translate(146.430664 0.390625)" xlink:href="#DejaVuSans-3d"/>
      <use transform="translate(249.702148 0.390625)" xlink:href="#DejaVuSans-38"/>
      <use transform="translate(313.325195 0.390625)" xlink:href="#DejaVuSans-2e"/>
      <use transform="translate(345.112305 0.390625)" xlink:href="#DejaVuSans-30"/>
     </g>
    </g>
    <g id="patch_54">
     <path d="M 122.548437 284.184 
L 146.548437 284.184 
L 146.548437 275.784 
L 122.548437 275.784 
z
" style="fill:#29ffce;"/>
    </g>
    <g id="text_17">
     <!-- $\beta_M = 9.0$ -->
     <g transform="translate(156.148438 284.184)scale(0.12 -0.12)">
      <defs>
       <path d="M 703 97 
L 703 672 
Q 941 559 1184 500 
Q 1428 441 1663 441 
Q 2288 441 2617 861 
Q 2947 1281 2994 2138 
Q 2813 1869 2534 1725 
Q 2256 1581 1919 1581 
Q 1219 1581 811 2004 
Q 403 2428 403 3163 
Q 403 3881 828 4315 
Q 1253 4750 1959 4750 
Q 2769 4750 3195 4129 
Q 3622 3509 3622 2328 
Q 3622 1225 3098 567 
Q 2575 -91 1691 -91 
Q 1453 -91 1209 -44 
Q 966 3 703 97 
z
M 1959 2075 
Q 2384 2075 2632 2365 
Q 2881 2656 2881 3163 
Q 2881 3666 2632 3958 
Q 2384 4250 1959 4250 
Q 1534 4250 1286 3958 
Q 1038 3666 1038 3163 
Q 1038 2656 1286 2365 
Q 1534 2075 1959 2075 
z
" id="DejaVuSans-39" transform="scale(0.015625)"/>
      </defs>
      <use transform="translate(0 0.390625)" xlink:href="#DejaVuSans-Oblique-3b2"/>
      <use transform="translate(63.818359 -16.015625)scale(0.7)" xlink:href="#DejaVuSans-Oblique-4d"/>
      <use transform="translate(146.430664 0.390625)" xlink:href="#DejaVuSans-3d"/>
      <use transform="translate(249.702148 0.390625)" xlink:href="#DejaVuSans-39"/>
      <use transform="translate(313.325195 0.390625)" xlink:href="#DejaVuSans-2e"/>
      <use transform="translate(345.112305 0.390625)" xlink:href="#DejaVuSans-30"/>
     </g>
    </g>
    <g id="patch_55">
     <path d="M 122.548437 301.944 
L 146.548437 301.944 
L 146.548437 293.544 
L 122.548437 293.544 
z
" style="fill:#7dff7a;"/>
    </g>
    <g id="text_18">
     <!-- $\beta_M = 10.0$ -->
     <g transform="translate(156.148438 301.944)scale(0.12 -0.12)">
      <use transform="translate(0 0.390625)" xlink:href="#DejaVuSans-Oblique-3b2"/>
      <use transform="translate(63.818359 -16.015625)scale(0.7)" xlink:href="#DejaVuSans-Oblique-4d"/>
      <use transform="translate(146.430664 0.390625)" xlink:href="#DejaVuSans-3d"/>
      <use transform="translate(249.702148 0.390625)" xlink:href="#DejaVuSans-31"/>
      <use transform="translate(313.325195 0.390625)" xlink:href="#DejaVuSans-30"/>
      <use transform="translate(376.948242 0.390625)" xlink:href="#DejaVuSans-2e"/>
      <use transform="translate(408.735352 0.390625)" xlink:href="#DejaVuSans-30"/>
     </g>
    </g>
    <g id="patch_56">
     <path d="M 236.908438 266.424 
L 260.908437 266.424 
L 260.908437 258.024 
L 236.908438 258.024 
z
" style="fill:#ceff29;"/>
    </g>
    <g id="text_19">
     <!-- $\beta_M = 11.0$ -->
     <g transform="translate(270.508438 266.424)scale(0.12 -0.12)">
      <use transform="translate(0 0.390625)" xlink:href="#DejaVuSans-Oblique-3b2"/>
      <use transform="translate(63.818359 -16.015625)scale(0.7)" xlink:href="#DejaVuSans-Oblique-4d"/>
      <use transform="translate(146.430664 0.390625)" xlink:href="#DejaVuSans-3d"/>
      <use transform="translate(249.702148 0.390625)" xlink:href="#DejaVuSans-31"/>
      <use transform="translate(313.325195 0.390625)" xlink:href="#DejaVuSans-31"/>
      <use transform="translate(376.948242 0.390625)" xlink:href="#DejaVuSans-2e"/>
      <use transform="translate(408.735352 0.390625)" xlink:href="#DejaVuSans-30"/>
     </g>
    </g>
    <g id="patch_57">
     <path d="M 236.908438 284.184 
L 260.908437 284.184 
L 260.908437 275.784 
L 236.908438 275.784 
z
" style="fill:#ffc400;"/>
    </g>
    <g id="text_20">
     <!-- $\beta_M = 12.0$ -->
     <g transform="translate(270.508438 284.184)scale(0.12 -0.12)">
      <use transform="translate(0 0.390625)" xlink:href="#DejaVuSans-Oblique-3b2"/>
      <use transform="translate(63.818359 -16.015625)scale(0.7)" xlink:href="#DejaVuSans-Oblique-4d"/>
      <use transform="translate(146.430664 0.390625)" xlink:href="#DejaVuSans-3d"/>
      <use transform="translate(249.702148 0.390625)" xlink:href="#DejaVuSans-31"/>
      <use transform="translate(313.325195 0.390625)" xlink:href="#DejaVuSans-32"/>
      <use transform="translate(376.948242 0.390625)" xlink:href="#DejaVuSans-2e"/>
      <use transform="translate(408.735352 0.390625)" xlink:href="#DejaVuSans-30"/>
     </g>
    </g>
    <g id="patch_58">
     <path d="M 236.908438 301.944 
L 260.908437 301.944 
L 260.908437 293.544 
L 236.908438 293.544 
z
" style="fill:#ff6800;"/>
    </g>
    <g id="text_21">
     <!-- $\beta_M = 13.0$ -->
     <g transform="translate(270.508438 301.944)scale(0.12 -0.12)">
      <use transform="translate(0 0.390625)" xlink:href="#DejaVuSans-Oblique-3b2"/>
      <use transform="translate(63.818359 -16.015625)scale(0.7)" xlink:href="#DejaVuSans-Oblique-4d"/>
      <use transform="translate(146.430664 0.390625)" xlink:href="#DejaVuSans-3d"/>
      <use transform="translate(249.702148 0.390625)" xlink:href="#DejaVuSans-31"/>
      <use transform="translate(313.325195 0.390625)" xlink:href="#DejaVuSans-33"/>
      <use transform="translate(376.948242 0.390625)" xlink:href="#DejaVuSans-2e"/>
      <use transform="translate(408.735352 0.390625)" xlink:href="#DejaVuSans-30"/>
     </g>
    </g>
    <g id="patch_59">
     <path d="M 351.268438 266.424 
L 375.268438 266.424 
L 375.268438 258.024 
L 351.268438 258.024 
z
" style="fill:#f10800;"/>
    </g>
    <g id="text_22">
     <!-- $\beta_M = 14.0$ -->
     <g transform="translate(384.868438 266.424)scale(0.12 -0.12)">
      <defs>
       <path d="M 2419 4116 
L 825 1625 
L 2419 1625 
L 2419 4116 
z
M 2253 4666 
L 3047 4666 
L 3047 1625 
L 3713 1625 
L 3713 1100 
L 3047 1100 
L 3047 0 
L 2419 0 
L 2419 1100 
L 313 1100 
L 313 1709 
L 2253 4666 
z
" id="DejaVuSans-34" transform="scale(0.015625)"/>
      </defs>
      <use transform="translate(0 0.390625)" xlink:href="#DejaVuSans-Oblique-3b2"/>
      <use transform="translate(63.818359 -16.015625)scale(0.7)" xlink:href="#DejaVuSans-Oblique-4d"/>
      <use transform="translate(146.430664 0.390625)" xlink:href="#DejaVuSans-3d"/>
      <use transform="translate(249.702148 0.390625)" xlink:href="#DejaVuSans-31"/>
      <use transform="translate(313.325195 0.390625)" xlink:href="#DejaVuSans-34"/>
      <use transform="translate(376.948242 0.390625)" xlink:href="#DejaVuSans-2e"/>
      <use transform="translate(408.735352 0.390625)" xlink:href="#DejaVuSans-30"/>
     </g>
    </g>
    <g id="patch_60">
     <path d="M 351.268438 284.184 
L 375.268438 284.184 
L 375.268438 275.784 
L 351.268438 275.784 
z
" style="fill:#800000;"/>
    </g>
    <g id="text_23">
     <!-- $\beta_M = 15.0$ -->
     <g transform="translate(384.868438 284.184)scale(0.12 -0.12)">
      <use transform="translate(0 0.390625)" xlink:href="#DejaVuSans-Oblique-3b2"/>
      <use transform="translate(63.818359 -16.015625)scale(0.7)" xlink:href="#DejaVuSans-Oblique-4d"/>
      <use transform="translate(146.430664 0.390625)" xlink:href="#DejaVuSans-3d"/>
      <use transform="translate(249.702148 0.390625)" xlink:href="#DejaVuSans-31"/>
      <use transform="translate(313.325195 0.390625)" xlink:href="#DejaVuSans-35"/>
      <use transform="translate(376.948242 0.390625)" xlink:href="#DejaVuSans-2e"/>
      <use transform="translate(408.735352 0.390625)" xlink:href="#DejaVuSans-30"/>
     </g>
    </g>
   </g>
  </g>
 </g>
 <defs>
  <clipPath id="p7eb61e96a0">
   <rect height="217.44" width="334.8" x="61.348438" y="7.2"/>
  </clipPath>
 </defs>
</svg>
