<?xml version="1.0" encoding="utf-8" standalone="no"?>
<!DOCTYPE svg PUBLIC "-//W3C//DTD SVG 1.1//EN"
  "http://www.w3.org/Graphics/SVG/1.1/DTD/svg11.dtd">
<svg height="749.167164pt" version="1.1" viewBox="0 0 751.364063 749.167164" width="751.364063pt" xmlns="http://www.w3.org/2000/svg" xmlns:xlink="http://www.w3.org/1999/xlink">
 <metadata>
  <rdf:RDF xmlns:cc="http://creativecommons.org/ns#" xmlns:dc="http://purl.org/dc/elements/1.1/" xmlns:rdf="http://www.w3.org/1999/02/22-rdf-syntax-ns#">
   <cc:Work>
    <dc:type rdf:resource="http://purl.org/dc/dcmitype/StillImage"/>
    <dc:date>2022-06-19T18:26:27.196247</dc:date>
    <dc:format>image/svg+xml</dc:format>
    <dc:creator>
     <cc:Agent>
      <dc:title>Matplotlib v3.4.3, https://matplotlib.org/</dc:title>
     </cc:Agent>
    </dc:creator>
   </cc:Work>
  </rdf:RDF>
 </metadata>
 <defs>
  <style type="text/css">*{stroke-linecap:butt;stroke-linejoin:round;}</style>
 </defs>
 <g id="figure_1">
  <g id="patch_1">
   <path d="M 0 749.167164 
L 751.364063 749.167164 
L 751.364063 0 
L 0 0 
z
" style="fill:none;"/>
  </g>
  <g id="axes_1">
   <g id="patch_2">
    <path d="M 68.201563 160.334328 
L 737.801563 160.334328 
L 737.801563 79.2 
L 68.201563 79.2 
z
" style="fill:none;"/>
   </g>
   <g id="matplotlib.axis_1">
    <g id="xtick_1">
     <g id="line2d_1">
      <defs>
       <path d="M 0 0 
L 0 3.5 
" id="meb3d705178" style="stroke:#000000;stroke-width:0.8;"/>
      </defs>
      <g>
       <use style="stroke:#000000;stroke-width:0.8;" x="68.201563" xlink:href="#meb3d705178" y="160.334328"/>
      </g>
     </g>
     <g id="text_1">
      <!-- 10 -->
      <g transform="translate(61.839063 174.932766)scale(0.1 -0.1)">
       <defs>
        <path d="M 794 531 
L 1825 531 
L 1825 4091 
L 703 3866 
L 703 4441 
L 1819 4666 
L 2450 4666 
L 2450 531 
L 3481 531 
L 3481 0 
L 794 0 
L 794 531 
z
" id="DejaVuSans-31" transform="scale(0.015625)"/>
        <path d="M 2034 4250 
Q 1547 4250 1301 3770 
Q 1056 3291 1056 2328 
Q 1056 1369 1301 889 
Q 1547 409 2034 409 
Q 2525 409 2770 889 
Q 3016 1369 3016 2328 
Q 3016 3291 2770 3770 
Q 2525 4250 2034 4250 
z
M 2034 4750 
Q 2819 4750 3233 4129 
Q 3647 3509 3647 2328 
Q 3647 1150 3233 529 
Q 2819 -91 2034 -91 
Q 1250 -91 836 529 
Q 422 1150 422 2328 
Q 422 3509 836 4129 
Q 1250 4750 2034 4750 
z
" id="DejaVuSans-30" transform="scale(0.015625)"/>
       </defs>
       <use xlink:href="#DejaVuSans-31"/>
       <use x="63.623047" xlink:href="#DejaVuSans-30"/>
      </g>
     </g>
    </g>
    <g id="xtick_2">
     <g id="line2d_2">
      <g>
       <use style="stroke:#000000;stroke-width:0.8;" x="202.121563" xlink:href="#meb3d705178" y="160.334328"/>
      </g>
     </g>
     <g id="text_2">
      <!-- 12 -->
      <g transform="translate(195.759063 174.932766)scale(0.1 -0.1)">
       <defs>
        <path d="M 1228 531 
L 3431 531 
L 3431 0 
L 469 0 
L 469 531 
Q 828 903 1448 1529 
Q 2069 2156 2228 2338 
Q 2531 2678 2651 2914 
Q 2772 3150 2772 3378 
Q 2772 3750 2511 3984 
Q 2250 4219 1831 4219 
Q 1534 4219 1204 4116 
Q 875 4013 500 3803 
L 500 4441 
Q 881 4594 1212 4672 
Q 1544 4750 1819 4750 
Q 2544 4750 2975 4387 
Q 3406 4025 3406 3419 
Q 3406 3131 3298 2873 
Q 3191 2616 2906 2266 
Q 2828 2175 2409 1742 
Q 1991 1309 1228 531 
z
" id="DejaVuSans-32" transform="scale(0.015625)"/>
       </defs>
       <use xlink:href="#DejaVuSans-31"/>
       <use x="63.623047" xlink:href="#DejaVuSans-32"/>
      </g>
     </g>
    </g>
    <g id="xtick_3">
     <g id="line2d_3">
      <g>
       <use style="stroke:#000000;stroke-width:0.8;" x="336.041563" xlink:href="#meb3d705178" y="160.334328"/>
      </g>
     </g>
     <g id="text_3">
      <!-- 14 -->
      <g transform="translate(329.679063 174.932766)scale(0.1 -0.1)">
       <defs>
        <path d="M 2419 4116 
L 825 1625 
L 2419 1625 
L 2419 4116 
z
M 2253 4666 
L 3047 4666 
L 3047 1625 
L 3713 1625 
L 3713 1100 
L 3047 1100 
L 3047 0 
L 2419 0 
L 2419 1100 
L 313 1100 
L 313 1709 
L 2253 4666 
z
" id="DejaVuSans-34" transform="scale(0.015625)"/>
       </defs>
       <use xlink:href="#DejaVuSans-31"/>
       <use x="63.623047" xlink:href="#DejaVuSans-34"/>
      </g>
     </g>
    </g>
    <g id="xtick_4">
     <g id="line2d_4">
      <g>
       <use style="stroke:#000000;stroke-width:0.8;" x="469.961563" xlink:href="#meb3d705178" y="160.334328"/>
      </g>
     </g>
     <g id="text_4">
      <!-- 16 -->
      <g transform="translate(463.599063 174.932766)scale(0.1 -0.1)">
       <defs>
        <path d="M 2113 2584 
Q 1688 2584 1439 2293 
Q 1191 2003 1191 1497 
Q 1191 994 1439 701 
Q 1688 409 2113 409 
Q 2538 409 2786 701 
Q 3034 994 3034 1497 
Q 3034 2003 2786 2293 
Q 2538 2584 2113 2584 
z
M 3366 4563 
L 3366 3988 
Q 3128 4100 2886 4159 
Q 2644 4219 2406 4219 
Q 1781 4219 1451 3797 
Q 1122 3375 1075 2522 
Q 1259 2794 1537 2939 
Q 1816 3084 2150 3084 
Q 2853 3084 3261 2657 
Q 3669 2231 3669 1497 
Q 3669 778 3244 343 
Q 2819 -91 2113 -91 
Q 1303 -91 875 529 
Q 447 1150 447 2328 
Q 447 3434 972 4092 
Q 1497 4750 2381 4750 
Q 2619 4750 2861 4703 
Q 3103 4656 3366 4563 
z
" id="DejaVuSans-36" transform="scale(0.015625)"/>
       </defs>
       <use xlink:href="#DejaVuSans-31"/>
       <use x="63.623047" xlink:href="#DejaVuSans-36"/>
      </g>
     </g>
    </g>
    <g id="xtick_5">
     <g id="line2d_5">
      <g>
       <use style="stroke:#000000;stroke-width:0.8;" x="603.881563" xlink:href="#meb3d705178" y="160.334328"/>
      </g>
     </g>
     <g id="text_5">
      <!-- 18 -->
      <g transform="translate(597.519063 174.932766)scale(0.1 -0.1)">
       <defs>
        <path d="M 2034 2216 
Q 1584 2216 1326 1975 
Q 1069 1734 1069 1313 
Q 1069 891 1326 650 
Q 1584 409 2034 409 
Q 2484 409 2743 651 
Q 3003 894 3003 1313 
Q 3003 1734 2745 1975 
Q 2488 2216 2034 2216 
z
M 1403 2484 
Q 997 2584 770 2862 
Q 544 3141 544 3541 
Q 544 4100 942 4425 
Q 1341 4750 2034 4750 
Q 2731 4750 3128 4425 
Q 3525 4100 3525 3541 
Q 3525 3141 3298 2862 
Q 3072 2584 2669 2484 
Q 3125 2378 3379 2068 
Q 3634 1759 3634 1313 
Q 3634 634 3220 271 
Q 2806 -91 2034 -91 
Q 1263 -91 848 271 
Q 434 634 434 1313 
Q 434 1759 690 2068 
Q 947 2378 1403 2484 
z
M 1172 3481 
Q 1172 3119 1398 2916 
Q 1625 2713 2034 2713 
Q 2441 2713 2670 2916 
Q 2900 3119 2900 3481 
Q 2900 3844 2670 4047 
Q 2441 4250 2034 4250 
Q 1625 4250 1398 4047 
Q 1172 3844 1172 3481 
z
" id="DejaVuSans-38" transform="scale(0.015625)"/>
       </defs>
       <use xlink:href="#DejaVuSans-31"/>
       <use x="63.623047" xlink:href="#DejaVuSans-38"/>
      </g>
     </g>
    </g>
    <g id="xtick_6">
     <g id="line2d_6">
      <g>
       <use style="stroke:#000000;stroke-width:0.8;" x="737.801563" xlink:href="#meb3d705178" y="160.334328"/>
      </g>
     </g>
     <g id="text_6">
      <!-- 20 -->
      <g transform="translate(731.439063 174.932766)scale(0.1 -0.1)">
       <use xlink:href="#DejaVuSans-32"/>
       <use x="63.623047" xlink:href="#DejaVuSans-30"/>
      </g>
     </g>
    </g>
   </g>
   <g id="matplotlib.axis_2">
    <g id="ytick_1">
     <g id="line2d_7">
      <defs>
       <path d="M 0 0 
L -3.5 0 
" id="m2a4ff0b2ae" style="stroke:#000000;stroke-width:0.8;"/>
      </defs>
      <g>
       <use style="stroke:#000000;stroke-width:0.8;" x="68.201563" xlink:href="#m2a4ff0b2ae" y="156.646404"/>
      </g>
     </g>
     <g id="text_7">
      <!-- −0.05 -->
      <g transform="translate(30.55625 160.445623)scale(0.1 -0.1)">
       <defs>
        <path d="M 678 2272 
L 4684 2272 
L 4684 1741 
L 678 1741 
L 678 2272 
z
" id="DejaVuSans-2212" transform="scale(0.015625)"/>
        <path d="M 684 794 
L 1344 794 
L 1344 0 
L 684 0 
L 684 794 
z
" id="DejaVuSans-2e" transform="scale(0.015625)"/>
        <path d="M 691 4666 
L 3169 4666 
L 3169 4134 
L 1269 4134 
L 1269 2991 
Q 1406 3038 1543 3061 
Q 1681 3084 1819 3084 
Q 2600 3084 3056 2656 
Q 3513 2228 3513 1497 
Q 3513 744 3044 326 
Q 2575 -91 1722 -91 
Q 1428 -91 1123 -41 
Q 819 9 494 109 
L 494 744 
Q 775 591 1075 516 
Q 1375 441 1709 441 
Q 2250 441 2565 725 
Q 2881 1009 2881 1497 
Q 2881 1984 2565 2268 
Q 2250 2553 1709 2553 
Q 1456 2553 1204 2497 
Q 953 2441 691 2322 
L 691 4666 
z
" id="DejaVuSans-35" transform="scale(0.015625)"/>
       </defs>
       <use xlink:href="#DejaVuSans-2212"/>
       <use x="83.789062" xlink:href="#DejaVuSans-30"/>
       <use x="147.412109" xlink:href="#DejaVuSans-2e"/>
       <use x="179.199219" xlink:href="#DejaVuSans-30"/>
       <use x="242.822266" xlink:href="#DejaVuSans-35"/>
      </g>
     </g>
    </g>
    <g id="ytick_2">
     <g id="line2d_8">
      <g>
       <use style="stroke:#000000;stroke-width:0.8;" x="68.201563" xlink:href="#m2a4ff0b2ae" y="119.767164"/>
      </g>
     </g>
     <g id="text_8">
      <!-- 0.00 -->
      <g transform="translate(38.935938 123.566383)scale(0.1 -0.1)">
       <use xlink:href="#DejaVuSans-30"/>
       <use x="63.623047" xlink:href="#DejaVuSans-2e"/>
       <use x="95.410156" xlink:href="#DejaVuSans-30"/>
       <use x="159.033203" xlink:href="#DejaVuSans-30"/>
      </g>
     </g>
    </g>
    <g id="ytick_3">
     <g id="line2d_9">
      <g>
       <use style="stroke:#000000;stroke-width:0.8;" x="68.201563" xlink:href="#m2a4ff0b2ae" y="82.887924"/>
      </g>
     </g>
     <g id="text_9">
      <!-- 0.05 -->
      <g transform="translate(38.935938 86.687143)scale(0.1 -0.1)">
       <use xlink:href="#DejaVuSans-30"/>
       <use x="63.623047" xlink:href="#DejaVuSans-2e"/>
       <use x="95.410156" xlink:href="#DejaVuSans-30"/>
       <use x="159.033203" xlink:href="#DejaVuSans-35"/>
      </g>
     </g>
    </g>
   </g>
   <g id="line2d_10">
    <path clip-path="url(#pae5517a01c)" d="M 68.201563 119.767164 
L 135.161563 119.767164 
L 202.121563 119.767164 
L 269.081563 119.767164 
L 336.041563 119.767164 
L 403.001563 119.767164 
L 469.961563 119.767164 
L 536.921563 119.767164 
L 603.881563 119.767164 
L 670.841563 119.767164 
L 737.801563 119.767164 
" style="fill:none;stroke:#000080;stroke-linecap:square;stroke-width:1.5;"/>
   </g>
   <g id="line2d_11">
    <path clip-path="url(#pae5517a01c)" d="M 68.201563 119.767164 
L 135.161563 119.767164 
L 202.121563 119.767164 
L 269.081563 119.767164 
L 336.041563 119.767164 
L 403.001563 119.767164 
L 469.961563 119.767164 
L 536.921563 119.767164 
L 603.881563 119.767164 
L 670.841563 119.767164 
L 737.801563 119.767164 
" style="fill:none;stroke:#0000f1;stroke-linecap:square;stroke-width:1.5;"/>
   </g>
   <g id="line2d_12">
    <path clip-path="url(#pae5517a01c)" d="M 68.201563 119.767164 
L 135.161563 119.767164 
L 202.121563 119.767164 
L 269.081563 119.767164 
L 336.041563 119.767164 
L 403.001563 119.767164 
L 469.961563 119.767164 
L 536.921563 119.767164 
L 603.881563 119.767164 
L 670.841563 119.767164 
L 737.801563 119.767164 
" style="fill:none;stroke:#004cff;stroke-linecap:square;stroke-width:1.5;"/>
   </g>
   <g id="line2d_13">
    <path clip-path="url(#pae5517a01c)" d="M 68.201563 119.767164 
L 135.161563 119.767164 
L 202.121563 119.767164 
L 269.081563 119.767164 
L 336.041563 119.767164 
L 403.001563 119.767164 
L 469.961563 119.767164 
L 536.921563 119.767164 
L 603.881563 119.767164 
L 670.841563 119.767164 
L 737.801563 119.767164 
" style="fill:none;stroke:#00b0ff;stroke-linecap:square;stroke-width:1.5;"/>
   </g>
   <g id="line2d_14">
    <path clip-path="url(#pae5517a01c)" d="M 68.201563 119.767164 
L 135.161563 119.767164 
L 202.121563 119.767164 
L 269.081563 119.767164 
L 336.041563 119.767164 
L 403.001563 119.767164 
L 469.961563 119.767164 
L 536.921563 119.767164 
L 603.881563 119.767164 
L 670.841563 119.767164 
L 737.801563 119.767164 
" style="fill:none;stroke:#29ffce;stroke-linecap:square;stroke-width:1.5;"/>
   </g>
   <g id="line2d_15">
    <path clip-path="url(#pae5517a01c)" d="M 68.201563 119.767164 
L 135.161563 119.767164 
L 202.121563 119.767164 
L 269.081563 119.767164 
L 336.041563 119.767164 
L 403.001563 119.767164 
L 469.961563 119.767164 
L 536.921563 119.767164 
L 603.881563 119.767164 
L 670.841563 119.767164 
L 737.801563 119.767164 
" style="fill:none;stroke:#7dff7a;stroke-linecap:square;stroke-width:1.5;"/>
   </g>
   <g id="line2d_16">
    <path clip-path="url(#pae5517a01c)" d="M 68.201563 119.767164 
L 135.161563 119.767164 
L 202.121563 119.767164 
L 269.081563 119.767164 
L 336.041563 119.767164 
L 403.001563 119.767164 
L 469.961563 119.767164 
L 536.921563 119.767164 
L 603.881563 119.767164 
L 670.841563 119.767164 
L 737.801563 119.767164 
" style="fill:none;stroke:#ceff29;stroke-linecap:square;stroke-width:1.5;"/>
   </g>
   <g id="line2d_17">
    <path clip-path="url(#pae5517a01c)" d="M 68.201563 119.767164 
L 135.161563 119.767164 
L 202.121563 119.767164 
L 269.081563 119.767164 
L 336.041563 119.767164 
L 403.001563 119.767164 
L 469.961563 119.767164 
L 536.921563 119.767164 
L 603.881563 119.767164 
L 670.841563 119.767164 
L 737.801563 119.767164 
" style="fill:none;stroke:#ffc400;stroke-linecap:square;stroke-width:1.5;"/>
   </g>
   <g id="line2d_18">
    <path clip-path="url(#pae5517a01c)" d="M 68.201563 119.767164 
L 135.161563 119.767164 
L 202.121563 119.767164 
L 269.081563 119.767164 
L 336.041563 119.767164 
L 403.001563 119.767164 
L 469.961563 119.767164 
L 536.921563 119.767164 
L 603.881563 119.767164 
L 670.841563 119.767164 
L 737.801563 119.767164 
" style="fill:none;stroke:#ff6800;stroke-linecap:square;stroke-width:1.5;"/>
   </g>
   <g id="line2d_19">
    <path clip-path="url(#pae5517a01c)" d="M 68.201563 119.767164 
L 135.161563 119.767164 
L 202.121563 119.767164 
L 269.081563 119.767164 
L 336.041563 119.767164 
L 403.001563 119.767164 
L 469.961563 119.767164 
L 536.921563 119.767164 
L 603.881563 119.767164 
L 670.841563 119.767164 
L 737.801563 119.767164 
" style="fill:none;stroke:#f10800;stroke-linecap:square;stroke-width:1.5;"/>
   </g>
   <g id="line2d_20">
    <path clip-path="url(#pae5517a01c)" d="M 68.201563 119.767164 
L 135.161563 119.767164 
L 202.121563 119.767164 
L 269.081563 119.767164 
L 336.041563 119.767164 
L 403.001563 119.767164 
L 469.961563 119.767164 
L 536.921563 119.767164 
L 603.881563 119.767164 
L 670.841563 119.767164 
L 737.801563 119.767164 
" style="fill:none;stroke:#800000;stroke-linecap:square;stroke-width:1.5;"/>
   </g>
   <g id="patch_3">
    <path d="M 68.201563 160.334328 
L 68.201563 79.2 
" style="fill:none;stroke:#000000;stroke-linecap:square;stroke-linejoin:miter;stroke-width:0.8;"/>
   </g>
   <g id="patch_4">
    <path d="M 68.201563 160.334328 
L 737.801563 160.334328 
" style="fill:none;stroke:#000000;stroke-linecap:square;stroke-linejoin:miter;stroke-width:0.8;"/>
   </g>
   <g id="text_10">
    <!-- Condition: AA -->
    <g transform="translate(334.778125 73.2)scale(0.2 -0.2)">
     <defs>
      <path d="M 4122 4306 
L 4122 3641 
Q 3803 3938 3442 4084 
Q 3081 4231 2675 4231 
Q 1875 4231 1450 3742 
Q 1025 3253 1025 2328 
Q 1025 1406 1450 917 
Q 1875 428 2675 428 
Q 3081 428 3442 575 
Q 3803 722 4122 1019 
L 4122 359 
Q 3791 134 3420 21 
Q 3050 -91 2638 -91 
Q 1578 -91 968 557 
Q 359 1206 359 2328 
Q 359 3453 968 4101 
Q 1578 4750 2638 4750 
Q 3056 4750 3426 4639 
Q 3797 4528 4122 4306 
z
" id="DejaVuSans-43" transform="scale(0.015625)"/>
      <path d="M 1959 3097 
Q 1497 3097 1228 2736 
Q 959 2375 959 1747 
Q 959 1119 1226 758 
Q 1494 397 1959 397 
Q 2419 397 2687 759 
Q 2956 1122 2956 1747 
Q 2956 2369 2687 2733 
Q 2419 3097 1959 3097 
z
M 1959 3584 
Q 2709 3584 3137 3096 
Q 3566 2609 3566 1747 
Q 3566 888 3137 398 
Q 2709 -91 1959 -91 
Q 1206 -91 779 398 
Q 353 888 353 1747 
Q 353 2609 779 3096 
Q 1206 3584 1959 3584 
z
" id="DejaVuSans-6f" transform="scale(0.015625)"/>
      <path d="M 3513 2113 
L 3513 0 
L 2938 0 
L 2938 2094 
Q 2938 2591 2744 2837 
Q 2550 3084 2163 3084 
Q 1697 3084 1428 2787 
Q 1159 2491 1159 1978 
L 1159 0 
L 581 0 
L 581 3500 
L 1159 3500 
L 1159 2956 
Q 1366 3272 1645 3428 
Q 1925 3584 2291 3584 
Q 2894 3584 3203 3211 
Q 3513 2838 3513 2113 
z
" id="DejaVuSans-6e" transform="scale(0.015625)"/>
      <path d="M 2906 2969 
L 2906 4863 
L 3481 4863 
L 3481 0 
L 2906 0 
L 2906 525 
Q 2725 213 2448 61 
Q 2172 -91 1784 -91 
Q 1150 -91 751 415 
Q 353 922 353 1747 
Q 353 2572 751 3078 
Q 1150 3584 1784 3584 
Q 2172 3584 2448 3432 
Q 2725 3281 2906 2969 
z
M 947 1747 
Q 947 1113 1208 752 
Q 1469 391 1925 391 
Q 2381 391 2643 752 
Q 2906 1113 2906 1747 
Q 2906 2381 2643 2742 
Q 2381 3103 1925 3103 
Q 1469 3103 1208 2742 
Q 947 2381 947 1747 
z
" id="DejaVuSans-64" transform="scale(0.015625)"/>
      <path d="M 603 3500 
L 1178 3500 
L 1178 0 
L 603 0 
L 603 3500 
z
M 603 4863 
L 1178 4863 
L 1178 4134 
L 603 4134 
L 603 4863 
z
" id="DejaVuSans-69" transform="scale(0.015625)"/>
      <path d="M 1172 4494 
L 1172 3500 
L 2356 3500 
L 2356 3053 
L 1172 3053 
L 1172 1153 
Q 1172 725 1289 603 
Q 1406 481 1766 481 
L 2356 481 
L 2356 0 
L 1766 0 
Q 1100 0 847 248 
Q 594 497 594 1153 
L 594 3053 
L 172 3053 
L 172 3500 
L 594 3500 
L 594 4494 
L 1172 4494 
z
" id="DejaVuSans-74" transform="scale(0.015625)"/>
      <path d="M 750 794 
L 1409 794 
L 1409 0 
L 750 0 
L 750 794 
z
M 750 3309 
L 1409 3309 
L 1409 2516 
L 750 2516 
L 750 3309 
z
" id="DejaVuSans-3a" transform="scale(0.015625)"/>
      <path id="DejaVuSans-20" transform="scale(0.015625)"/>
      <path d="M 2188 4044 
L 1331 1722 
L 3047 1722 
L 2188 4044 
z
M 1831 4666 
L 2547 4666 
L 4325 0 
L 3669 0 
L 3244 1197 
L 1141 1197 
L 716 0 
L 50 0 
L 1831 4666 
z
" id="DejaVuSans-41" transform="scale(0.015625)"/>
     </defs>
     <use xlink:href="#DejaVuSans-43"/>
     <use x="69.824219" xlink:href="#DejaVuSans-6f"/>
     <use x="131.005859" xlink:href="#DejaVuSans-6e"/>
     <use x="194.384766" xlink:href="#DejaVuSans-64"/>
     <use x="257.861328" xlink:href="#DejaVuSans-69"/>
     <use x="285.644531" xlink:href="#DejaVuSans-74"/>
     <use x="324.853516" xlink:href="#DejaVuSans-69"/>
     <use x="352.636719" xlink:href="#DejaVuSans-6f"/>
     <use x="413.818359" xlink:href="#DejaVuSans-6e"/>
     <use x="477.197266" xlink:href="#DejaVuSans-3a"/>
     <use x="510.888672" xlink:href="#DejaVuSans-20"/>
     <use x="542.675781" xlink:href="#DejaVuSans-41"/>
     <use x="613.833984" xlink:href="#DejaVuSans-41"/>
    </g>
   </g>
  </g>
  <g id="axes_2">
   <g id="patch_5">
    <path d="M 68.201563 314.489552 
L 737.801563 314.489552 
L 737.801563 233.355224 
L 68.201563 233.355224 
z
" style="fill:none;"/>
   </g>
   <g id="matplotlib.axis_3">
    <g id="xtick_7">
     <g id="line2d_21">
      <g>
       <use style="stroke:#000000;stroke-width:0.8;" x="68.201563" xlink:href="#meb3d705178" y="314.489552"/>
      </g>
     </g>
     <g id="text_11">
      <!-- 10 -->
      <g transform="translate(61.839063 329.08799)scale(0.1 -0.1)">
       <use xlink:href="#DejaVuSans-31"/>
       <use x="63.623047" xlink:href="#DejaVuSans-30"/>
      </g>
     </g>
    </g>
    <g id="xtick_8">
     <g id="line2d_22">
      <g>
       <use style="stroke:#000000;stroke-width:0.8;" x="202.121563" xlink:href="#meb3d705178" y="314.489552"/>
      </g>
     </g>
     <g id="text_12">
      <!-- 12 -->
      <g transform="translate(195.759063 329.08799)scale(0.1 -0.1)">
       <use xlink:href="#DejaVuSans-31"/>
       <use x="63.623047" xlink:href="#DejaVuSans-32"/>
      </g>
     </g>
    </g>
    <g id="xtick_9">
     <g id="line2d_23">
      <g>
       <use style="stroke:#000000;stroke-width:0.8;" x="336.041563" xlink:href="#meb3d705178" y="314.489552"/>
      </g>
     </g>
     <g id="text_13">
      <!-- 14 -->
      <g transform="translate(329.679063 329.08799)scale(0.1 -0.1)">
       <use xlink:href="#DejaVuSans-31"/>
       <use x="63.623047" xlink:href="#DejaVuSans-34"/>
      </g>
     </g>
    </g>
    <g id="xtick_10">
     <g id="line2d_24">
      <g>
       <use style="stroke:#000000;stroke-width:0.8;" x="469.961563" xlink:href="#meb3d705178" y="314.489552"/>
      </g>
     </g>
     <g id="text_14">
      <!-- 16 -->
      <g transform="translate(463.599063 329.08799)scale(0.1 -0.1)">
       <use xlink:href="#DejaVuSans-31"/>
       <use x="63.623047" xlink:href="#DejaVuSans-36"/>
      </g>
     </g>
    </g>
    <g id="xtick_11">
     <g id="line2d_25">
      <g>
       <use style="stroke:#000000;stroke-width:0.8;" x="603.881563" xlink:href="#meb3d705178" y="314.489552"/>
      </g>
     </g>
     <g id="text_15">
      <!-- 18 -->
      <g transform="translate(597.519063 329.08799)scale(0.1 -0.1)">
       <use xlink:href="#DejaVuSans-31"/>
       <use x="63.623047" xlink:href="#DejaVuSans-38"/>
      </g>
     </g>
    </g>
    <g id="xtick_12">
     <g id="line2d_26">
      <g>
       <use style="stroke:#000000;stroke-width:0.8;" x="737.801563" xlink:href="#meb3d705178" y="314.489552"/>
      </g>
     </g>
     <g id="text_16">
      <!-- 20 -->
      <g transform="translate(731.439063 329.08799)scale(0.1 -0.1)">
       <use xlink:href="#DejaVuSans-32"/>
       <use x="63.623047" xlink:href="#DejaVuSans-30"/>
      </g>
     </g>
    </g>
   </g>
   <g id="matplotlib.axis_4">
    <g id="ytick_4">
     <g id="line2d_27">
      <g>
       <use style="stroke:#000000;stroke-width:0.8;" x="68.201563" xlink:href="#m2a4ff0b2ae" y="310.801628"/>
      </g>
     </g>
     <g id="text_17">
      <!-- −0.05 -->
      <g transform="translate(30.55625 314.600847)scale(0.1 -0.1)">
       <use xlink:href="#DejaVuSans-2212"/>
       <use x="83.789062" xlink:href="#DejaVuSans-30"/>
       <use x="147.412109" xlink:href="#DejaVuSans-2e"/>
       <use x="179.199219" xlink:href="#DejaVuSans-30"/>
       <use x="242.822266" xlink:href="#DejaVuSans-35"/>
      </g>
     </g>
    </g>
    <g id="ytick_5">
     <g id="line2d_28">
      <g>
       <use style="stroke:#000000;stroke-width:0.8;" x="68.201563" xlink:href="#m2a4ff0b2ae" y="273.922388"/>
      </g>
     </g>
     <g id="text_18">
      <!-- 0.00 -->
      <g transform="translate(38.935938 277.721607)scale(0.1 -0.1)">
       <use xlink:href="#DejaVuSans-30"/>
       <use x="63.623047" xlink:href="#DejaVuSans-2e"/>
       <use x="95.410156" xlink:href="#DejaVuSans-30"/>
       <use x="159.033203" xlink:href="#DejaVuSans-30"/>
      </g>
     </g>
    </g>
    <g id="ytick_6">
     <g id="line2d_29">
      <g>
       <use style="stroke:#000000;stroke-width:0.8;" x="68.201563" xlink:href="#m2a4ff0b2ae" y="237.043148"/>
      </g>
     </g>
     <g id="text_19">
      <!-- 0.05 -->
      <g transform="translate(38.935938 240.842367)scale(0.1 -0.1)">
       <use xlink:href="#DejaVuSans-30"/>
       <use x="63.623047" xlink:href="#DejaVuSans-2e"/>
       <use x="95.410156" xlink:href="#DejaVuSans-30"/>
       <use x="159.033203" xlink:href="#DejaVuSans-35"/>
      </g>
     </g>
    </g>
    <g id="text_20">
     <!-- Shortcut Replays [#] -->
     <g transform="translate(22.396875 459.222341)rotate(-90)scale(0.2 -0.2)">
      <defs>
       <path d="M 3425 4513 
L 3425 3897 
Q 3066 4069 2747 4153 
Q 2428 4238 2131 4238 
Q 1616 4238 1336 4038 
Q 1056 3838 1056 3469 
Q 1056 3159 1242 3001 
Q 1428 2844 1947 2747 
L 2328 2669 
Q 3034 2534 3370 2195 
Q 3706 1856 3706 1288 
Q 3706 609 3251 259 
Q 2797 -91 1919 -91 
Q 1588 -91 1214 -16 
Q 841 59 441 206 
L 441 856 
Q 825 641 1194 531 
Q 1563 422 1919 422 
Q 2459 422 2753 634 
Q 3047 847 3047 1241 
Q 3047 1584 2836 1778 
Q 2625 1972 2144 2069 
L 1759 2144 
Q 1053 2284 737 2584 
Q 422 2884 422 3419 
Q 422 4038 858 4394 
Q 1294 4750 2059 4750 
Q 2388 4750 2728 4690 
Q 3069 4631 3425 4513 
z
" id="DejaVuSans-53" transform="scale(0.015625)"/>
       <path d="M 3513 2113 
L 3513 0 
L 2938 0 
L 2938 2094 
Q 2938 2591 2744 2837 
Q 2550 3084 2163 3084 
Q 1697 3084 1428 2787 
Q 1159 2491 1159 1978 
L 1159 0 
L 581 0 
L 581 4863 
L 1159 4863 
L 1159 2956 
Q 1366 3272 1645 3428 
Q 1925 3584 2291 3584 
Q 2894 3584 3203 3211 
Q 3513 2838 3513 2113 
z
" id="DejaVuSans-68" transform="scale(0.015625)"/>
       <path d="M 2631 2963 
Q 2534 3019 2420 3045 
Q 2306 3072 2169 3072 
Q 1681 3072 1420 2755 
Q 1159 2438 1159 1844 
L 1159 0 
L 581 0 
L 581 3500 
L 1159 3500 
L 1159 2956 
Q 1341 3275 1631 3429 
Q 1922 3584 2338 3584 
Q 2397 3584 2469 3576 
Q 2541 3569 2628 3553 
L 2631 2963 
z
" id="DejaVuSans-72" transform="scale(0.015625)"/>
       <path d="M 3122 3366 
L 3122 2828 
Q 2878 2963 2633 3030 
Q 2388 3097 2138 3097 
Q 1578 3097 1268 2742 
Q 959 2388 959 1747 
Q 959 1106 1268 751 
Q 1578 397 2138 397 
Q 2388 397 2633 464 
Q 2878 531 3122 666 
L 3122 134 
Q 2881 22 2623 -34 
Q 2366 -91 2075 -91 
Q 1284 -91 818 406 
Q 353 903 353 1747 
Q 353 2603 823 3093 
Q 1294 3584 2113 3584 
Q 2378 3584 2631 3529 
Q 2884 3475 3122 3366 
z
" id="DejaVuSans-63" transform="scale(0.015625)"/>
       <path d="M 544 1381 
L 544 3500 
L 1119 3500 
L 1119 1403 
Q 1119 906 1312 657 
Q 1506 409 1894 409 
Q 2359 409 2629 706 
Q 2900 1003 2900 1516 
L 2900 3500 
L 3475 3500 
L 3475 0 
L 2900 0 
L 2900 538 
Q 2691 219 2414 64 
Q 2138 -91 1772 -91 
Q 1169 -91 856 284 
Q 544 659 544 1381 
z
M 1991 3584 
L 1991 3584 
z
" id="DejaVuSans-75" transform="scale(0.015625)"/>
       <path d="M 2841 2188 
Q 3044 2119 3236 1894 
Q 3428 1669 3622 1275 
L 4263 0 
L 3584 0 
L 2988 1197 
Q 2756 1666 2539 1819 
Q 2322 1972 1947 1972 
L 1259 1972 
L 1259 0 
L 628 0 
L 628 4666 
L 2053 4666 
Q 2853 4666 3247 4331 
Q 3641 3997 3641 3322 
Q 3641 2881 3436 2590 
Q 3231 2300 2841 2188 
z
M 1259 4147 
L 1259 2491 
L 2053 2491 
Q 2509 2491 2742 2702 
Q 2975 2913 2975 3322 
Q 2975 3731 2742 3939 
Q 2509 4147 2053 4147 
L 1259 4147 
z
" id="DejaVuSans-52" transform="scale(0.015625)"/>
       <path d="M 3597 1894 
L 3597 1613 
L 953 1613 
Q 991 1019 1311 708 
Q 1631 397 2203 397 
Q 2534 397 2845 478 
Q 3156 559 3463 722 
L 3463 178 
Q 3153 47 2828 -22 
Q 2503 -91 2169 -91 
Q 1331 -91 842 396 
Q 353 884 353 1716 
Q 353 2575 817 3079 
Q 1281 3584 2069 3584 
Q 2775 3584 3186 3129 
Q 3597 2675 3597 1894 
z
M 3022 2063 
Q 3016 2534 2758 2815 
Q 2500 3097 2075 3097 
Q 1594 3097 1305 2825 
Q 1016 2553 972 2059 
L 3022 2063 
z
" id="DejaVuSans-65" transform="scale(0.015625)"/>
       <path d="M 1159 525 
L 1159 -1331 
L 581 -1331 
L 581 3500 
L 1159 3500 
L 1159 2969 
Q 1341 3281 1617 3432 
Q 1894 3584 2278 3584 
Q 2916 3584 3314 3078 
Q 3713 2572 3713 1747 
Q 3713 922 3314 415 
Q 2916 -91 2278 -91 
Q 1894 -91 1617 61 
Q 1341 213 1159 525 
z
M 3116 1747 
Q 3116 2381 2855 2742 
Q 2594 3103 2138 3103 
Q 1681 3103 1420 2742 
Q 1159 2381 1159 1747 
Q 1159 1113 1420 752 
Q 1681 391 2138 391 
Q 2594 391 2855 752 
Q 3116 1113 3116 1747 
z
" id="DejaVuSans-70" transform="scale(0.015625)"/>
       <path d="M 603 4863 
L 1178 4863 
L 1178 0 
L 603 0 
L 603 4863 
z
" id="DejaVuSans-6c" transform="scale(0.015625)"/>
       <path d="M 2194 1759 
Q 1497 1759 1228 1600 
Q 959 1441 959 1056 
Q 959 750 1161 570 
Q 1363 391 1709 391 
Q 2188 391 2477 730 
Q 2766 1069 2766 1631 
L 2766 1759 
L 2194 1759 
z
M 3341 1997 
L 3341 0 
L 2766 0 
L 2766 531 
Q 2569 213 2275 61 
Q 1981 -91 1556 -91 
Q 1019 -91 701 211 
Q 384 513 384 1019 
Q 384 1609 779 1909 
Q 1175 2209 1959 2209 
L 2766 2209 
L 2766 2266 
Q 2766 2663 2505 2880 
Q 2244 3097 1772 3097 
Q 1472 3097 1187 3025 
Q 903 2953 641 2809 
L 641 3341 
Q 956 3463 1253 3523 
Q 1550 3584 1831 3584 
Q 2591 3584 2966 3190 
Q 3341 2797 3341 1997 
z
" id="DejaVuSans-61" transform="scale(0.015625)"/>
       <path d="M 2059 -325 
Q 1816 -950 1584 -1140 
Q 1353 -1331 966 -1331 
L 506 -1331 
L 506 -850 
L 844 -850 
Q 1081 -850 1212 -737 
Q 1344 -625 1503 -206 
L 1606 56 
L 191 3500 
L 800 3500 
L 1894 763 
L 2988 3500 
L 3597 3500 
L 2059 -325 
z
" id="DejaVuSans-79" transform="scale(0.015625)"/>
       <path d="M 2834 3397 
L 2834 2853 
Q 2591 2978 2328 3040 
Q 2066 3103 1784 3103 
Q 1356 3103 1142 2972 
Q 928 2841 928 2578 
Q 928 2378 1081 2264 
Q 1234 2150 1697 2047 
L 1894 2003 
Q 2506 1872 2764 1633 
Q 3022 1394 3022 966 
Q 3022 478 2636 193 
Q 2250 -91 1575 -91 
Q 1294 -91 989 -36 
Q 684 19 347 128 
L 347 722 
Q 666 556 975 473 
Q 1284 391 1588 391 
Q 1994 391 2212 530 
Q 2431 669 2431 922 
Q 2431 1156 2273 1281 
Q 2116 1406 1581 1522 
L 1381 1569 
Q 847 1681 609 1914 
Q 372 2147 372 2553 
Q 372 3047 722 3315 
Q 1072 3584 1716 3584 
Q 2034 3584 2315 3537 
Q 2597 3491 2834 3397 
z
" id="DejaVuSans-73" transform="scale(0.015625)"/>
       <path d="M 550 4863 
L 1875 4863 
L 1875 4416 
L 1125 4416 
L 1125 -397 
L 1875 -397 
L 1875 -844 
L 550 -844 
L 550 4863 
z
" id="DejaVuSans-5b" transform="scale(0.015625)"/>
       <path d="M 3272 2816 
L 2363 2816 
L 2100 1772 
L 3016 1772 
L 3272 2816 
z
M 2803 4594 
L 2478 3297 
L 3391 3297 
L 3719 4594 
L 4219 4594 
L 3897 3297 
L 4872 3297 
L 4872 2816 
L 3775 2816 
L 3519 1772 
L 4513 1772 
L 4513 1294 
L 3397 1294 
L 3072 0 
L 2572 0 
L 2894 1294 
L 1978 1294 
L 1656 0 
L 1153 0 
L 1478 1294 
L 494 1294 
L 494 1772 
L 1594 1772 
L 1856 2816 
L 850 2816 
L 850 3297 
L 1978 3297 
L 2297 4594 
L 2803 4594 
z
" id="DejaVuSans-23" transform="scale(0.015625)"/>
       <path d="M 1947 4863 
L 1947 -844 
L 622 -844 
L 622 -397 
L 1369 -397 
L 1369 4416 
L 622 4416 
L 622 4863 
L 1947 4863 
z
" id="DejaVuSans-5d" transform="scale(0.015625)"/>
      </defs>
      <use xlink:href="#DejaVuSans-53"/>
      <use x="63.476562" xlink:href="#DejaVuSans-68"/>
      <use x="126.855469" xlink:href="#DejaVuSans-6f"/>
      <use x="188.037109" xlink:href="#DejaVuSans-72"/>
      <use x="229.150391" xlink:href="#DejaVuSans-74"/>
      <use x="268.359375" xlink:href="#DejaVuSans-63"/>
      <use x="323.339844" xlink:href="#DejaVuSans-75"/>
      <use x="386.71875" xlink:href="#DejaVuSans-74"/>
      <use x="425.927734" xlink:href="#DejaVuSans-20"/>
      <use x="457.714844" xlink:href="#DejaVuSans-52"/>
      <use x="522.697266" xlink:href="#DejaVuSans-65"/>
      <use x="584.220703" xlink:href="#DejaVuSans-70"/>
      <use x="647.697266" xlink:href="#DejaVuSans-6c"/>
      <use x="675.480469" xlink:href="#DejaVuSans-61"/>
      <use x="736.759766" xlink:href="#DejaVuSans-79"/>
      <use x="795.939453" xlink:href="#DejaVuSans-73"/>
      <use x="848.039062" xlink:href="#DejaVuSans-20"/>
      <use x="879.826172" xlink:href="#DejaVuSans-5b"/>
      <use x="918.839844" xlink:href="#DejaVuSans-23"/>
      <use x="1002.628906" xlink:href="#DejaVuSans-5d"/>
     </g>
    </g>
   </g>
   <g id="line2d_30">
    <path clip-path="url(#pab3d2465af)" d="M 68.201563 273.922388 
L 135.161563 273.922388 
L 202.121563 273.922388 
L 269.081563 273.922388 
L 336.041563 273.922388 
L 403.001563 273.922388 
L 469.961563 273.922388 
L 536.921563 273.922388 
L 603.881563 273.922388 
L 670.841563 273.922388 
L 737.801563 273.922388 
" style="fill:none;stroke:#000080;stroke-linecap:square;stroke-width:1.5;"/>
   </g>
   <g id="line2d_31">
    <path clip-path="url(#pab3d2465af)" d="M 68.201563 273.922388 
L 135.161563 273.922388 
L 202.121563 273.922388 
L 269.081563 273.922388 
L 336.041563 273.922388 
L 403.001563 273.922388 
L 469.961563 273.922388 
L 536.921563 273.922388 
L 603.881563 273.922388 
L 670.841563 273.922388 
L 737.801563 273.922388 
" style="fill:none;stroke:#0000f1;stroke-linecap:square;stroke-width:1.5;"/>
   </g>
   <g id="line2d_32">
    <path clip-path="url(#pab3d2465af)" d="M 68.201563 273.922388 
L 135.161563 273.922388 
L 202.121563 273.922388 
L 269.081563 273.922388 
L 336.041563 273.922388 
L 403.001563 273.922388 
L 469.961563 273.922388 
L 536.921563 273.922388 
L 603.881563 273.922388 
L 670.841563 273.922388 
L 737.801563 273.922388 
" style="fill:none;stroke:#004cff;stroke-linecap:square;stroke-width:1.5;"/>
   </g>
   <g id="line2d_33">
    <path clip-path="url(#pab3d2465af)" d="M 68.201563 273.922388 
L 135.161563 273.922388 
L 202.121563 273.922388 
L 269.081563 273.922388 
L 336.041563 273.922388 
L 403.001563 273.922388 
L 469.961563 273.922388 
L 536.921563 273.922388 
L 603.881563 273.922388 
L 670.841563 273.922388 
L 737.801563 273.922388 
" style="fill:none;stroke:#00b0ff;stroke-linecap:square;stroke-width:1.5;"/>
   </g>
   <g id="line2d_34">
    <path clip-path="url(#pab3d2465af)" d="M 68.201563 273.922388 
L 135.161563 273.922388 
L 202.121563 273.922388 
L 269.081563 273.922388 
L 336.041563 273.922388 
L 403.001563 273.922388 
L 469.961563 273.922388 
L 536.921563 273.922388 
L 603.881563 273.922388 
L 670.841563 273.922388 
L 737.801563 273.922388 
" style="fill:none;stroke:#29ffce;stroke-linecap:square;stroke-width:1.5;"/>
   </g>
   <g id="line2d_35">
    <path clip-path="url(#pab3d2465af)" d="M 68.201563 273.922388 
L 135.161563 273.922388 
L 202.121563 273.922388 
L 269.081563 273.922388 
L 336.041563 273.922388 
L 403.001563 273.922388 
L 469.961563 273.922388 
L 536.921563 273.922388 
L 603.881563 273.922388 
L 670.841563 273.922388 
L 737.801563 273.922388 
" style="fill:none;stroke:#7dff7a;stroke-linecap:square;stroke-width:1.5;"/>
   </g>
   <g id="line2d_36">
    <path clip-path="url(#pab3d2465af)" d="M 68.201563 273.922388 
L 135.161563 273.922388 
L 202.121563 273.922388 
L 269.081563 273.922388 
L 336.041563 273.922388 
L 403.001563 273.922388 
L 469.961563 273.922388 
L 536.921563 273.922388 
L 603.881563 273.922388 
L 670.841563 273.922388 
L 737.801563 273.922388 
" style="fill:none;stroke:#ceff29;stroke-linecap:square;stroke-width:1.5;"/>
   </g>
   <g id="line2d_37">
    <path clip-path="url(#pab3d2465af)" d="M 68.201563 273.922388 
L 135.161563 273.922388 
L 202.121563 273.922388 
L 269.081563 273.922388 
L 336.041563 273.922388 
L 403.001563 273.922388 
L 469.961563 273.922388 
L 536.921563 273.922388 
L 603.881563 273.922388 
L 670.841563 273.922388 
L 737.801563 273.922388 
" style="fill:none;stroke:#ffc400;stroke-linecap:square;stroke-width:1.5;"/>
   </g>
   <g id="line2d_38">
    <path clip-path="url(#pab3d2465af)" d="M 68.201563 273.922388 
L 135.161563 273.922388 
L 202.121563 273.922388 
L 269.081563 273.922388 
L 336.041563 273.922388 
L 403.001563 273.922388 
L 469.961563 273.922388 
L 536.921563 273.922388 
L 603.881563 273.922388 
L 670.841563 273.922388 
L 737.801563 273.922388 
" style="fill:none;stroke:#ff6800;stroke-linecap:square;stroke-width:1.5;"/>
   </g>
   <g id="line2d_39">
    <path clip-path="url(#pab3d2465af)" d="M 68.201563 273.922388 
L 135.161563 273.922388 
L 202.121563 273.922388 
L 269.081563 273.922388 
L 336.041563 273.922388 
L 403.001563 273.922388 
L 469.961563 273.922388 
L 536.921563 273.922388 
L 603.881563 273.922388 
L 670.841563 273.922388 
L 737.801563 273.922388 
" style="fill:none;stroke:#f10800;stroke-linecap:square;stroke-width:1.5;"/>
   </g>
   <g id="line2d_40">
    <path clip-path="url(#pab3d2465af)" d="M 68.201563 273.922388 
L 135.161563 273.922388 
L 202.121563 273.922388 
L 269.081563 273.922388 
L 336.041563 273.922388 
L 403.001563 273.922388 
L 469.961563 273.922388 
L 536.921563 273.922388 
L 603.881563 273.922388 
L 670.841563 273.922388 
L 737.801563 273.922388 
" style="fill:none;stroke:#800000;stroke-linecap:square;stroke-width:1.5;"/>
   </g>
   <g id="patch_6">
    <path d="M 68.201563 314.489552 
L 68.201563 233.355224 
" style="fill:none;stroke:#000000;stroke-linecap:square;stroke-linejoin:miter;stroke-width:0.8;"/>
   </g>
   <g id="patch_7">
    <path d="M 68.201563 314.489552 
L 737.801563 314.489552 
" style="fill:none;stroke:#000000;stroke-linecap:square;stroke-linejoin:miter;stroke-width:0.8;"/>
   </g>
   <g id="text_21">
    <!-- Condition: RL -->
    <g transform="translate(336.214063 227.355224)scale(0.2 -0.2)">
     <defs>
      <path d="M 628 4666 
L 1259 4666 
L 1259 531 
L 3531 531 
L 3531 0 
L 628 0 
L 628 4666 
z
" id="DejaVuSans-4c" transform="scale(0.015625)"/>
     </defs>
     <use xlink:href="#DejaVuSans-43"/>
     <use x="69.824219" xlink:href="#DejaVuSans-6f"/>
     <use x="131.005859" xlink:href="#DejaVuSans-6e"/>
     <use x="194.384766" xlink:href="#DejaVuSans-64"/>
     <use x="257.861328" xlink:href="#DejaVuSans-69"/>
     <use x="285.644531" xlink:href="#DejaVuSans-74"/>
     <use x="324.853516" xlink:href="#DejaVuSans-69"/>
     <use x="352.636719" xlink:href="#DejaVuSans-6f"/>
     <use x="413.818359" xlink:href="#DejaVuSans-6e"/>
     <use x="477.197266" xlink:href="#DejaVuSans-3a"/>
     <use x="510.888672" xlink:href="#DejaVuSans-20"/>
     <use x="542.675781" xlink:href="#DejaVuSans-52"/>
     <use x="612.158203" xlink:href="#DejaVuSans-4c"/>
    </g>
   </g>
  </g>
  <g id="axes_3">
   <g id="patch_8">
    <path d="M 68.201563 468.644776 
L 737.801563 468.644776 
L 737.801563 387.510448 
L 68.201563 387.510448 
z
" style="fill:none;"/>
   </g>
   <g id="matplotlib.axis_5">
    <g id="xtick_13">
     <g id="line2d_41">
      <g>
       <use style="stroke:#000000;stroke-width:0.8;" x="68.201563" xlink:href="#meb3d705178" y="468.644776"/>
      </g>
     </g>
     <g id="text_22">
      <!-- 10 -->
      <g transform="translate(61.839063 483.243214)scale(0.1 -0.1)">
       <use xlink:href="#DejaVuSans-31"/>
       <use x="63.623047" xlink:href="#DejaVuSans-30"/>
      </g>
     </g>
    </g>
    <g id="xtick_14">
     <g id="line2d_42">
      <g>
       <use style="stroke:#000000;stroke-width:0.8;" x="202.121563" xlink:href="#meb3d705178" y="468.644776"/>
      </g>
     </g>
     <g id="text_23">
      <!-- 12 -->
      <g transform="translate(195.759063 483.243214)scale(0.1 -0.1)">
       <use xlink:href="#DejaVuSans-31"/>
       <use x="63.623047" xlink:href="#DejaVuSans-32"/>
      </g>
     </g>
    </g>
    <g id="xtick_15">
     <g id="line2d_43">
      <g>
       <use style="stroke:#000000;stroke-width:0.8;" x="336.041563" xlink:href="#meb3d705178" y="468.644776"/>
      </g>
     </g>
     <g id="text_24">
      <!-- 14 -->
      <g transform="translate(329.679063 483.243214)scale(0.1 -0.1)">
       <use xlink:href="#DejaVuSans-31"/>
       <use x="63.623047" xlink:href="#DejaVuSans-34"/>
      </g>
     </g>
    </g>
    <g id="xtick_16">
     <g id="line2d_44">
      <g>
       <use style="stroke:#000000;stroke-width:0.8;" x="469.961563" xlink:href="#meb3d705178" y="468.644776"/>
      </g>
     </g>
     <g id="text_25">
      <!-- 16 -->
      <g transform="translate(463.599063 483.243214)scale(0.1 -0.1)">
       <use xlink:href="#DejaVuSans-31"/>
       <use x="63.623047" xlink:href="#DejaVuSans-36"/>
      </g>
     </g>
    </g>
    <g id="xtick_17">
     <g id="line2d_45">
      <g>
       <use style="stroke:#000000;stroke-width:0.8;" x="603.881563" xlink:href="#meb3d705178" y="468.644776"/>
      </g>
     </g>
     <g id="text_26">
      <!-- 18 -->
      <g transform="translate(597.519063 483.243214)scale(0.1 -0.1)">
       <use xlink:href="#DejaVuSans-31"/>
       <use x="63.623047" xlink:href="#DejaVuSans-38"/>
      </g>
     </g>
    </g>
    <g id="xtick_18">
     <g id="line2d_46">
      <g>
       <use style="stroke:#000000;stroke-width:0.8;" x="737.801563" xlink:href="#meb3d705178" y="468.644776"/>
      </g>
     </g>
     <g id="text_27">
      <!-- 20 -->
      <g transform="translate(731.439063 483.243214)scale(0.1 -0.1)">
       <use xlink:href="#DejaVuSans-32"/>
       <use x="63.623047" xlink:href="#DejaVuSans-30"/>
      </g>
     </g>
    </g>
   </g>
   <g id="matplotlib.axis_6">
    <g id="ytick_7">
     <g id="line2d_47">
      <g>
       <use style="stroke:#000000;stroke-width:0.8;" x="68.201563" xlink:href="#m2a4ff0b2ae" y="464.956852"/>
      </g>
     </g>
     <g id="text_28">
      <!-- −0.05 -->
      <g transform="translate(30.55625 468.756071)scale(0.1 -0.1)">
       <use xlink:href="#DejaVuSans-2212"/>
       <use x="83.789062" xlink:href="#DejaVuSans-30"/>
       <use x="147.412109" xlink:href="#DejaVuSans-2e"/>
       <use x="179.199219" xlink:href="#DejaVuSans-30"/>
       <use x="242.822266" xlink:href="#DejaVuSans-35"/>
      </g>
     </g>
    </g>
    <g id="ytick_8">
     <g id="line2d_48">
      <g>
       <use style="stroke:#000000;stroke-width:0.8;" x="68.201563" xlink:href="#m2a4ff0b2ae" y="428.077612"/>
      </g>
     </g>
     <g id="text_29">
      <!-- 0.00 -->
      <g transform="translate(38.935938 431.876831)scale(0.1 -0.1)">
       <use xlink:href="#DejaVuSans-30"/>
       <use x="63.623047" xlink:href="#DejaVuSans-2e"/>
       <use x="95.410156" xlink:href="#DejaVuSans-30"/>
       <use x="159.033203" xlink:href="#DejaVuSans-30"/>
      </g>
     </g>
    </g>
    <g id="ytick_9">
     <g id="line2d_49">
      <g>
       <use style="stroke:#000000;stroke-width:0.8;" x="68.201563" xlink:href="#m2a4ff0b2ae" y="391.198372"/>
      </g>
     </g>
     <g id="text_30">
      <!-- 0.05 -->
      <g transform="translate(38.935938 394.997591)scale(0.1 -0.1)">
       <use xlink:href="#DejaVuSans-30"/>
       <use x="63.623047" xlink:href="#DejaVuSans-2e"/>
       <use x="95.410156" xlink:href="#DejaVuSans-30"/>
       <use x="159.033203" xlink:href="#DejaVuSans-35"/>
      </g>
     </g>
    </g>
   </g>
   <g id="line2d_50">
    <path clip-path="url(#p0351740056)" d="M 68.201563 428.077612 
L 135.161563 428.077612 
L 202.121563 428.077612 
L 269.081563 428.077612 
L 336.041563 428.077612 
L 403.001563 428.077612 
L 469.961563 428.077612 
L 536.921563 428.077612 
L 603.881563 428.077612 
L 670.841563 428.077612 
L 737.801563 428.077612 
" style="fill:none;stroke:#000080;stroke-linecap:square;stroke-width:1.5;"/>
   </g>
   <g id="line2d_51">
    <path clip-path="url(#p0351740056)" d="M 68.201563 428.077612 
L 135.161563 428.077612 
L 202.121563 428.077612 
L 269.081563 428.077612 
L 336.041563 428.077612 
L 403.001563 428.077612 
L 469.961563 428.077612 
L 536.921563 428.077612 
L 603.881563 428.077612 
L 670.841563 428.077612 
L 737.801563 428.077612 
" style="fill:none;stroke:#0000f1;stroke-linecap:square;stroke-width:1.5;"/>
   </g>
   <g id="line2d_52">
    <path clip-path="url(#p0351740056)" d="M 68.201563 428.077612 
L 135.161563 428.077612 
L 202.121563 428.077612 
L 269.081563 428.077612 
L 336.041563 428.077612 
L 403.001563 428.077612 
L 469.961563 428.077612 
L 536.921563 428.077612 
L 603.881563 428.077612 
L 670.841563 428.077612 
L 737.801563 428.077612 
" style="fill:none;stroke:#004cff;stroke-linecap:square;stroke-width:1.5;"/>
   </g>
   <g id="line2d_53">
    <path clip-path="url(#p0351740056)" d="M 68.201563 428.077612 
L 135.161563 428.077612 
L 202.121563 428.077612 
L 269.081563 428.077612 
L 336.041563 428.077612 
L 403.001563 428.077612 
L 469.961563 428.077612 
L 536.921563 428.077612 
L 603.881563 428.077612 
L 670.841563 428.077612 
L 737.801563 428.077612 
" style="fill:none;stroke:#00b0ff;stroke-linecap:square;stroke-width:1.5;"/>
   </g>
   <g id="line2d_54">
    <path clip-path="url(#p0351740056)" d="M 68.201563 428.077612 
L 135.161563 428.077612 
L 202.121563 428.077612 
L 269.081563 428.077612 
L 336.041563 428.077612 
L 403.001563 428.077612 
L 469.961563 428.077612 
L 536.921563 428.077612 
L 603.881563 428.077612 
L 670.841563 428.077612 
L 737.801563 428.077612 
" style="fill:none;stroke:#29ffce;stroke-linecap:square;stroke-width:1.5;"/>
   </g>
   <g id="line2d_55">
    <path clip-path="url(#p0351740056)" d="M 68.201563 428.077612 
L 135.161563 428.077612 
L 202.121563 428.077612 
L 269.081563 428.077612 
L 336.041563 428.077612 
L 403.001563 428.077612 
L 469.961563 428.077612 
L 536.921563 428.077612 
L 603.881563 428.077612 
L 670.841563 428.077612 
L 737.801563 428.077612 
" style="fill:none;stroke:#7dff7a;stroke-linecap:square;stroke-width:1.5;"/>
   </g>
   <g id="line2d_56">
    <path clip-path="url(#p0351740056)" d="M 68.201563 428.077612 
L 135.161563 428.077612 
L 202.121563 428.077612 
L 269.081563 428.077612 
L 336.041563 428.077612 
L 403.001563 428.077612 
L 469.961563 428.077612 
L 536.921563 428.077612 
L 603.881563 428.077612 
L 670.841563 428.077612 
L 737.801563 428.077612 
" style="fill:none;stroke:#ceff29;stroke-linecap:square;stroke-width:1.5;"/>
   </g>
   <g id="line2d_57">
    <path clip-path="url(#p0351740056)" d="M 68.201563 428.077612 
L 135.161563 428.077612 
L 202.121563 428.077612 
L 269.081563 428.077612 
L 336.041563 428.077612 
L 403.001563 428.077612 
L 469.961563 428.077612 
L 536.921563 428.077612 
L 603.881563 428.077612 
L 670.841563 428.077612 
L 737.801563 428.077612 
" style="fill:none;stroke:#ffc400;stroke-linecap:square;stroke-width:1.5;"/>
   </g>
   <g id="line2d_58">
    <path clip-path="url(#p0351740056)" d="M 68.201563 428.077612 
L 135.161563 428.077612 
L 202.121563 428.077612 
L 269.081563 428.077612 
L 336.041563 428.077612 
L 403.001563 428.077612 
L 469.961563 428.077612 
L 536.921563 428.077612 
L 603.881563 428.077612 
L 670.841563 428.077612 
L 737.801563 428.077612 
" style="fill:none;stroke:#ff6800;stroke-linecap:square;stroke-width:1.5;"/>
   </g>
   <g id="line2d_59">
    <path clip-path="url(#p0351740056)" d="M 68.201563 428.077612 
L 135.161563 428.077612 
L 202.121563 428.077612 
L 269.081563 428.077612 
L 336.041563 428.077612 
L 403.001563 428.077612 
L 469.961563 428.077612 
L 536.921563 428.077612 
L 603.881563 428.077612 
L 670.841563 428.077612 
L 737.801563 428.077612 
" style="fill:none;stroke:#f10800;stroke-linecap:square;stroke-width:1.5;"/>
   </g>
   <g id="line2d_60">
    <path clip-path="url(#p0351740056)" d="M 68.201563 428.077612 
L 135.161563 428.077612 
L 202.121563 428.077612 
L 269.081563 428.077612 
L 336.041563 428.077612 
L 403.001563 428.077612 
L 469.961563 428.077612 
L 536.921563 428.077612 
L 603.881563 428.077612 
L 670.841563 428.077612 
L 737.801563 428.077612 
" style="fill:none;stroke:#800000;stroke-linecap:square;stroke-width:1.5;"/>
   </g>
   <g id="patch_9">
    <path d="M 68.201563 468.644776 
L 68.201563 387.510448 
" style="fill:none;stroke:#000000;stroke-linecap:square;stroke-linejoin:miter;stroke-width:0.8;"/>
   </g>
   <g id="patch_10">
    <path d="M 68.201563 468.644776 
L 737.801563 468.644776 
" style="fill:none;stroke:#000000;stroke-linecap:square;stroke-linejoin:miter;stroke-width:0.8;"/>
   </g>
   <g id="text_31">
    <!-- Condition: RA -->
    <g transform="translate(335.345313 381.510448)scale(0.2 -0.2)">
     <use xlink:href="#DejaVuSans-43"/>
     <use x="69.824219" xlink:href="#DejaVuSans-6f"/>
     <use x="131.005859" xlink:href="#DejaVuSans-6e"/>
     <use x="194.384766" xlink:href="#DejaVuSans-64"/>
     <use x="257.861328" xlink:href="#DejaVuSans-69"/>
     <use x="285.644531" xlink:href="#DejaVuSans-74"/>
     <use x="324.853516" xlink:href="#DejaVuSans-69"/>
     <use x="352.636719" xlink:href="#DejaVuSans-6f"/>
     <use x="413.818359" xlink:href="#DejaVuSans-6e"/>
     <use x="477.197266" xlink:href="#DejaVuSans-3a"/>
     <use x="510.888672" xlink:href="#DejaVuSans-20"/>
     <use x="542.675781" xlink:href="#DejaVuSans-52"/>
     <use x="608.158203" xlink:href="#DejaVuSans-41"/>
    </g>
   </g>
  </g>
  <g id="axes_4">
   <g id="patch_11">
    <path d="M 68.201563 622.8 
L 737.801563 622.8 
L 737.801563 541.665672 
L 68.201563 541.665672 
z
" style="fill:none;"/>
   </g>
   <g id="matplotlib.axis_7">
    <g id="xtick_19">
     <g id="line2d_61">
      <g>
       <use style="stroke:#000000;stroke-width:0.8;" x="68.201563" xlink:href="#meb3d705178" y="622.8"/>
      </g>
     </g>
     <g id="text_32">
      <!-- 10 -->
      <g transform="translate(61.839063 637.398437)scale(0.1 -0.1)">
       <use xlink:href="#DejaVuSans-31"/>
       <use x="63.623047" xlink:href="#DejaVuSans-30"/>
      </g>
     </g>
    </g>
    <g id="xtick_20">
     <g id="line2d_62">
      <g>
       <use style="stroke:#000000;stroke-width:0.8;" x="202.121563" xlink:href="#meb3d705178" y="622.8"/>
      </g>
     </g>
     <g id="text_33">
      <!-- 12 -->
      <g transform="translate(195.759063 637.398437)scale(0.1 -0.1)">
       <use xlink:href="#DejaVuSans-31"/>
       <use x="63.623047" xlink:href="#DejaVuSans-32"/>
      </g>
     </g>
    </g>
    <g id="xtick_21">
     <g id="line2d_63">
      <g>
       <use style="stroke:#000000;stroke-width:0.8;" x="336.041563" xlink:href="#meb3d705178" y="622.8"/>
      </g>
     </g>
     <g id="text_34">
      <!-- 14 -->
      <g transform="translate(329.679063 637.398437)scale(0.1 -0.1)">
       <use xlink:href="#DejaVuSans-31"/>
       <use x="63.623047" xlink:href="#DejaVuSans-34"/>
      </g>
     </g>
    </g>
    <g id="xtick_22">
     <g id="line2d_64">
      <g>
       <use style="stroke:#000000;stroke-width:0.8;" x="469.961563" xlink:href="#meb3d705178" y="622.8"/>
      </g>
     </g>
     <g id="text_35">
      <!-- 16 -->
      <g transform="translate(463.599063 637.398437)scale(0.1 -0.1)">
       <use xlink:href="#DejaVuSans-31"/>
       <use x="63.623047" xlink:href="#DejaVuSans-36"/>
      </g>
     </g>
    </g>
    <g id="xtick_23">
     <g id="line2d_65">
      <g>
       <use style="stroke:#000000;stroke-width:0.8;" x="603.881563" xlink:href="#meb3d705178" y="622.8"/>
      </g>
     </g>
     <g id="text_36">
      <!-- 18 -->
      <g transform="translate(597.519063 637.398437)scale(0.1 -0.1)">
       <use xlink:href="#DejaVuSans-31"/>
       <use x="63.623047" xlink:href="#DejaVuSans-38"/>
      </g>
     </g>
    </g>
    <g id="xtick_24">
     <g id="line2d_66">
      <g>
       <use style="stroke:#000000;stroke-width:0.8;" x="737.801563" xlink:href="#meb3d705178" y="622.8"/>
      </g>
     </g>
     <g id="text_37">
      <!-- 20 -->
      <g transform="translate(731.439063 637.398437)scale(0.1 -0.1)">
       <use xlink:href="#DejaVuSans-32"/>
       <use x="63.623047" xlink:href="#DejaVuSans-30"/>
      </g>
     </g>
    </g>
    <g id="text_38">
     <!-- Trial -->
     <g transform="translate(382.573438 658.675)scale(0.2 -0.2)">
      <defs>
       <path d="M -19 4666 
L 3928 4666 
L 3928 4134 
L 2272 4134 
L 2272 0 
L 1638 0 
L 1638 4134 
L -19 4134 
L -19 4666 
z
" id="DejaVuSans-54" transform="scale(0.015625)"/>
      </defs>
      <use xlink:href="#DejaVuSans-54"/>
      <use x="46.333984" xlink:href="#DejaVuSans-72"/>
      <use x="87.447266" xlink:href="#DejaVuSans-69"/>
      <use x="115.230469" xlink:href="#DejaVuSans-61"/>
      <use x="176.509766" xlink:href="#DejaVuSans-6c"/>
     </g>
    </g>
   </g>
   <g id="matplotlib.axis_8">
    <g id="ytick_10">
     <g id="line2d_67">
      <g>
       <use style="stroke:#000000;stroke-width:0.8;" x="68.201563" xlink:href="#m2a4ff0b2ae" y="619.112076"/>
      </g>
     </g>
     <g id="text_39">
      <!-- −0.05 -->
      <g transform="translate(30.55625 622.911295)scale(0.1 -0.1)">
       <use xlink:href="#DejaVuSans-2212"/>
       <use x="83.789062" xlink:href="#DejaVuSans-30"/>
       <use x="147.412109" xlink:href="#DejaVuSans-2e"/>
       <use x="179.199219" xlink:href="#DejaVuSans-30"/>
       <use x="242.822266" xlink:href="#DejaVuSans-35"/>
      </g>
     </g>
    </g>
    <g id="ytick_11">
     <g id="line2d_68">
      <g>
       <use style="stroke:#000000;stroke-width:0.8;" x="68.201563" xlink:href="#m2a4ff0b2ae" y="582.232836"/>
      </g>
     </g>
     <g id="text_40">
      <!-- 0.00 -->
      <g transform="translate(38.935938 586.032055)scale(0.1 -0.1)">
       <use xlink:href="#DejaVuSans-30"/>
       <use x="63.623047" xlink:href="#DejaVuSans-2e"/>
       <use x="95.410156" xlink:href="#DejaVuSans-30"/>
       <use x="159.033203" xlink:href="#DejaVuSans-30"/>
      </g>
     </g>
    </g>
    <g id="ytick_12">
     <g id="line2d_69">
      <g>
       <use style="stroke:#000000;stroke-width:0.8;" x="68.201563" xlink:href="#m2a4ff0b2ae" y="545.353596"/>
      </g>
     </g>
     <g id="text_41">
      <!-- 0.05 -->
      <g transform="translate(38.935938 549.152814)scale(0.1 -0.1)">
       <use xlink:href="#DejaVuSans-30"/>
       <use x="63.623047" xlink:href="#DejaVuSans-2e"/>
       <use x="95.410156" xlink:href="#DejaVuSans-30"/>
       <use x="159.033203" xlink:href="#DejaVuSans-35"/>
      </g>
     </g>
    </g>
   </g>
   <g id="line2d_70">
    <path clip-path="url(#p53d13e3aef)" d="M 68.201563 582.232836 
L 135.161563 582.232836 
L 202.121563 582.232836 
L 269.081563 582.232836 
L 336.041563 582.232836 
L 403.001563 582.232836 
L 469.961563 582.232836 
L 536.921563 582.232836 
L 603.881563 582.232836 
L 670.841563 582.232836 
L 737.801563 582.232836 
" style="fill:none;stroke:#000080;stroke-linecap:square;stroke-width:1.5;"/>
   </g>
   <g id="line2d_71">
    <path clip-path="url(#p53d13e3aef)" d="M 68.201563 582.232836 
L 135.161563 582.232836 
L 202.121563 582.232836 
L 269.081563 582.232836 
L 336.041563 582.232836 
L 403.001563 582.232836 
L 469.961563 582.232836 
L 536.921563 582.232836 
L 603.881563 582.232836 
L 670.841563 582.232836 
L 737.801563 582.232836 
" style="fill:none;stroke:#0000f1;stroke-linecap:square;stroke-width:1.5;"/>
   </g>
   <g id="line2d_72">
    <path clip-path="url(#p53d13e3aef)" d="M 68.201563 582.232836 
L 135.161563 582.232836 
L 202.121563 582.232836 
L 269.081563 582.232836 
L 336.041563 582.232836 
L 403.001563 582.232836 
L 469.961563 582.232836 
L 536.921563 582.232836 
L 603.881563 582.232836 
L 670.841563 582.232836 
L 737.801563 582.232836 
" style="fill:none;stroke:#004cff;stroke-linecap:square;stroke-width:1.5;"/>
   </g>
   <g id="line2d_73">
    <path clip-path="url(#p53d13e3aef)" d="M 68.201563 582.232836 
L 135.161563 582.232836 
L 202.121563 582.232836 
L 269.081563 582.232836 
L 336.041563 582.232836 
L 403.001563 582.232836 
L 469.961563 582.232836 
L 536.921563 582.232836 
L 603.881563 582.232836 
L 670.841563 582.232836 
L 737.801563 582.232836 
" style="fill:none;stroke:#00b0ff;stroke-linecap:square;stroke-width:1.5;"/>
   </g>
   <g id="line2d_74">
    <path clip-path="url(#p53d13e3aef)" d="M 68.201563 582.232836 
L 135.161563 582.232836 
L 202.121563 582.232836 
L 269.081563 582.232836 
L 336.041563 582.232836 
L 403.001563 582.232836 
L 469.961563 582.232836 
L 536.921563 582.232836 
L 603.881563 582.232836 
L 670.841563 582.232836 
L 737.801563 582.232836 
" style="fill:none;stroke:#29ffce;stroke-linecap:square;stroke-width:1.5;"/>
   </g>
   <g id="line2d_75">
    <path clip-path="url(#p53d13e3aef)" d="M 68.201563 582.232836 
L 135.161563 582.232836 
L 202.121563 582.232836 
L 269.081563 582.232836 
L 336.041563 582.232836 
L 403.001563 582.232836 
L 469.961563 582.232836 
L 536.921563 582.232836 
L 603.881563 582.232836 
L 670.841563 582.232836 
L 737.801563 582.232836 
" style="fill:none;stroke:#7dff7a;stroke-linecap:square;stroke-width:1.5;"/>
   </g>
   <g id="line2d_76">
    <path clip-path="url(#p53d13e3aef)" d="M 68.201563 582.232836 
L 135.161563 582.232836 
L 202.121563 582.232836 
L 269.081563 582.232836 
L 336.041563 582.232836 
L 403.001563 582.232836 
L 469.961563 582.232836 
L 536.921563 582.232836 
L 603.881563 582.232836 
L 670.841563 582.232836 
L 737.801563 582.232836 
" style="fill:none;stroke:#ceff29;stroke-linecap:square;stroke-width:1.5;"/>
   </g>
   <g id="line2d_77">
    <path clip-path="url(#p53d13e3aef)" d="M 68.201563 582.232836 
L 135.161563 582.232836 
L 202.121563 582.232836 
L 269.081563 582.232836 
L 336.041563 582.232836 
L 403.001563 582.232836 
L 469.961563 582.232836 
L 536.921563 582.232836 
L 603.881563 582.232836 
L 670.841563 582.232836 
L 737.801563 582.232836 
" style="fill:none;stroke:#ffc400;stroke-linecap:square;stroke-width:1.5;"/>
   </g>
   <g id="line2d_78">
    <path clip-path="url(#p53d13e3aef)" d="M 68.201563 582.232836 
L 135.161563 582.232836 
L 202.121563 582.232836 
L 269.081563 582.232836 
L 336.041563 582.232836 
L 403.001563 582.232836 
L 469.961563 582.232836 
L 536.921563 582.232836 
L 603.881563 582.232836 
L 670.841563 582.232836 
L 737.801563 582.232836 
" style="fill:none;stroke:#ff6800;stroke-linecap:square;stroke-width:1.5;"/>
   </g>
   <g id="line2d_79">
    <path clip-path="url(#p53d13e3aef)" d="M 68.201563 582.232836 
L 135.161563 582.232836 
L 202.121563 582.232836 
L 269.081563 582.232836 
L 336.041563 582.232836 
L 403.001563 582.232836 
L 469.961563 582.232836 
L 536.921563 582.232836 
L 603.881563 582.232836 
L 670.841563 582.232836 
L 737.801563 582.232836 
" style="fill:none;stroke:#f10800;stroke-linecap:square;stroke-width:1.5;"/>
   </g>
   <g id="line2d_80">
    <path clip-path="url(#p53d13e3aef)" d="M 68.201563 582.232836 
L 135.161563 582.232836 
L 202.121563 582.232836 
L 269.081563 582.232836 
L 336.041563 582.232836 
L 403.001563 582.232836 
L 469.961563 582.232836 
L 536.921563 582.232836 
L 603.881563 582.232836 
L 670.841563 582.232836 
L 737.801563 582.232836 
" style="fill:none;stroke:#800000;stroke-linecap:square;stroke-width:1.5;"/>
   </g>
   <g id="patch_12">
    <path d="M 68.201563 622.8 
L 68.201563 541.665672 
" style="fill:none;stroke:#000000;stroke-linecap:square;stroke-linejoin:miter;stroke-width:0.8;"/>
   </g>
   <g id="patch_13">
    <path d="M 68.201563 622.8 
L 737.801563 622.8 
" style="fill:none;stroke:#000000;stroke-linecap:square;stroke-linejoin:miter;stroke-width:0.8;"/>
   </g>
   <g id="text_42">
    <!-- Condition: AL -->
    <g transform="translate(336.321875 535.665672)scale(0.2 -0.2)">
     <use xlink:href="#DejaVuSans-43"/>
     <use x="69.824219" xlink:href="#DejaVuSans-6f"/>
     <use x="131.005859" xlink:href="#DejaVuSans-6e"/>
     <use x="194.384766" xlink:href="#DejaVuSans-64"/>
     <use x="257.861328" xlink:href="#DejaVuSans-69"/>
     <use x="285.644531" xlink:href="#DejaVuSans-74"/>
     <use x="324.853516" xlink:href="#DejaVuSans-69"/>
     <use x="352.636719" xlink:href="#DejaVuSans-6f"/>
     <use x="413.818359" xlink:href="#DejaVuSans-6e"/>
     <use x="477.197266" xlink:href="#DejaVuSans-3a"/>
     <use x="510.888672" xlink:href="#DejaVuSans-20"/>
     <use x="542.675781" xlink:href="#DejaVuSans-41"/>
     <use x="611.083984" xlink:href="#DejaVuSans-4c"/>
    </g>
   </g>
   <g id="legend_1">
    <g id="patch_14">
     <path d="M 67.226563 741.967164 
L 738.776562 741.967164 
Q 741.776562 741.967164 741.776562 738.967164 
L 741.776562 673.867164 
Q 741.776562 670.867164 738.776562 670.867164 
L 67.226563 670.867164 
Q 64.226563 670.867164 64.226563 673.867164 
L 64.226563 738.967164 
Q 64.226563 741.967164 67.226563 741.967164 
z
" style="fill:none;opacity:0;"/>
    </g>
    <g id="line2d_81">
     <path d="M 70.226563 683.167164 
L 100.226563 683.167164 
" style="fill:none;stroke:#000080;stroke-linecap:square;stroke-width:1.5;"/>
    </g>
    <g id="line2d_82"/>
    <g id="text_43">
     <!-- $\beta_M = 5.0$ -->
     <g transform="translate(112.226563 688.417164)scale(0.15 -0.15)">
      <defs>
       <path d="M 872 216 
L 572 -1331 
L -6 -1331 
L 928 3478 
Q 1206 4903 2538 4903 
Q 3888 4903 3659 3700 
Q 3503 2844 2894 2531 
Q 3713 2250 3553 1416 
Q 3272 -69 1759 -66 
Q 1097 -63 872 216 
z
M 1019 966 
Q 1259 422 1875 425 
Q 2775 425 2966 1406 
Q 3138 2288 1675 2219 
L 1778 2750 
Q 2909 2731 3106 3750 
Q 3241 4438 2509 4434 
Q 1691 4434 1503 3459 
L 1019 966 
z
" id="DejaVuSans-Oblique-3b2" transform="scale(0.015625)"/>
       <path d="M 1081 4666 
L 2028 4666 
L 2572 1522 
L 4378 4666 
L 5350 4666 
L 4441 0 
L 3828 0 
L 4622 4091 
L 2791 897 
L 2175 897 
L 1581 4103 
L 788 0 
L 172 0 
L 1081 4666 
z
" id="DejaVuSans-Oblique-4d" transform="scale(0.015625)"/>
       <path d="M 678 2906 
L 4684 2906 
L 4684 2381 
L 678 2381 
L 678 2906 
z
M 678 1631 
L 4684 1631 
L 4684 1100 
L 678 1100 
L 678 1631 
z
" id="DejaVuSans-3d" transform="scale(0.015625)"/>
      </defs>
      <use transform="translate(0 0.390625)" xlink:href="#DejaVuSans-Oblique-3b2"/>
      <use transform="translate(63.818359 -16.015625)scale(0.7)" xlink:href="#DejaVuSans-Oblique-4d"/>
      <use transform="translate(146.430664 0.390625)" xlink:href="#DejaVuSans-3d"/>
      <use transform="translate(249.702148 0.390625)" xlink:href="#DejaVuSans-35"/>
      <use transform="translate(313.325195 0.390625)" xlink:href="#DejaVuSans-2e"/>
      <use transform="translate(345.112305 0.390625)" xlink:href="#DejaVuSans-30"/>
     </g>
    </g>
    <g id="line2d_83">
     <path d="M 70.226563 705.367164 
L 100.226563 705.367164 
" style="fill:none;stroke:#0000f1;stroke-linecap:square;stroke-width:1.5;"/>
    </g>
    <g id="line2d_84"/>
    <g id="text_44">
     <!-- $\beta_M = 6.0$ -->
     <g transform="translate(112.226563 710.617164)scale(0.15 -0.15)">
      <use transform="translate(0 0.390625)" xlink:href="#DejaVuSans-Oblique-3b2"/>
      <use transform="translate(63.818359 -16.015625)scale(0.7)" xlink:href="#DejaVuSans-Oblique-4d"/>
      <use transform="translate(146.430664 0.390625)" xlink:href="#DejaVuSans-3d"/>
      <use transform="translate(249.702148 0.390625)" xlink:href="#DejaVuSans-36"/>
      <use transform="translate(313.325195 0.390625)" xlink:href="#DejaVuSans-2e"/>
      <use transform="translate(345.112305 0.390625)" xlink:href="#DejaVuSans-30"/>
     </g>
    </g>
    <g id="line2d_85">
     <path d="M 70.226563 727.567164 
L 100.226563 727.567164 
" style="fill:none;stroke:#004cff;stroke-linecap:square;stroke-width:1.5;"/>
    </g>
    <g id="line2d_86"/>
    <g id="text_45">
     <!-- $\beta_M = 7.0$ -->
     <g transform="translate(112.226563 732.817164)scale(0.15 -0.15)">
      <defs>
       <path d="M 525 4666 
L 3525 4666 
L 3525 4397 
L 1831 0 
L 1172 0 
L 2766 4134 
L 525 4134 
L 525 4666 
z
" id="DejaVuSans-37" transform="scale(0.015625)"/>
      </defs>
      <use transform="translate(0 0.390625)" xlink:href="#DejaVuSans-Oblique-3b2"/>
      <use transform="translate(63.818359 -16.015625)scale(0.7)" xlink:href="#DejaVuSans-Oblique-4d"/>
      <use transform="translate(146.430664 0.390625)" xlink:href="#DejaVuSans-3d"/>
      <use transform="translate(249.702148 0.390625)" xlink:href="#DejaVuSans-37"/>
      <use transform="translate(313.325195 0.390625)" xlink:href="#DejaVuSans-2e"/>
      <use transform="translate(345.112305 0.390625)" xlink:href="#DejaVuSans-30"/>
     </g>
    </g>
    <g id="line2d_87">
     <path d="M 203.576563 683.167164 
L 233.576563 683.167164 
" style="fill:none;stroke:#00b0ff;stroke-linecap:square;stroke-width:1.5;"/>
    </g>
    <g id="line2d_88"/>
    <g id="text_46">
     <!-- $\beta_M = 8.0$ -->
     <g transform="translate(245.576563 688.417164)scale(0.15 -0.15)">
      <use transform="translate(0 0.390625)" xlink:href="#DejaVuSans-Oblique-3b2"/>
      <use transform="translate(63.818359 -16.015625)scale(0.7)" xlink:href="#DejaVuSans-Oblique-4d"/>
      <use transform="translate(146.430664 0.390625)" xlink:href="#DejaVuSans-3d"/>
      <use transform="translate(249.702148 0.390625)" xlink:href="#DejaVuSans-38"/>
      <use transform="translate(313.325195 0.390625)" xlink:href="#DejaVuSans-2e"/>
      <use transform="translate(345.112305 0.390625)" xlink:href="#DejaVuSans-30"/>
     </g>
    </g>
    <g id="line2d_89">
     <path d="M 203.576563 705.367164 
L 233.576563 705.367164 
" style="fill:none;stroke:#29ffce;stroke-linecap:square;stroke-width:1.5;"/>
    </g>
    <g id="line2d_90"/>
    <g id="text_47">
     <!-- $\beta_M = 9.0$ -->
     <g transform="translate(245.576563 710.617164)scale(0.15 -0.15)">
      <defs>
       <path d="M 703 97 
L 703 672 
Q 941 559 1184 500 
Q 1428 441 1663 441 
Q 2288 441 2617 861 
Q 2947 1281 2994 2138 
Q 2813 1869 2534 1725 
Q 2256 1581 1919 1581 
Q 1219 1581 811 2004 
Q 403 2428 403 3163 
Q 403 3881 828 4315 
Q 1253 4750 1959 4750 
Q 2769 4750 3195 4129 
Q 3622 3509 3622 2328 
Q 3622 1225 3098 567 
Q 2575 -91 1691 -91 
Q 1453 -91 1209 -44 
Q 966 3 703 97 
z
M 1959 2075 
Q 2384 2075 2632 2365 
Q 2881 2656 2881 3163 
Q 2881 3666 2632 3958 
Q 2384 4250 1959 4250 
Q 1534 4250 1286 3958 
Q 1038 3666 1038 3163 
Q 1038 2656 1286 2365 
Q 1534 2075 1959 2075 
z
" id="DejaVuSans-39" transform="scale(0.015625)"/>
      </defs>
      <use transform="translate(0 0.390625)" xlink:href="#DejaVuSans-Oblique-3b2"/>
      <use transform="translate(63.818359 -16.015625)scale(0.7)" xlink:href="#DejaVuSans-Oblique-4d"/>
      <use transform="translate(146.430664 0.390625)" xlink:href="#DejaVuSans-3d"/>
      <use transform="translate(249.702148 0.390625)" xlink:href="#DejaVuSans-39"/>
      <use transform="translate(313.325195 0.390625)" xlink:href="#DejaVuSans-2e"/>
      <use transform="translate(345.112305 0.390625)" xlink:href="#DejaVuSans-30"/>
     </g>
    </g>
    <g id="line2d_91">
     <path d="M 336.926563 683.167164 
L 366.926563 683.167164 
" style="fill:none;stroke:#7dff7a;stroke-linecap:square;stroke-width:1.5;"/>
    </g>
    <g id="line2d_92"/>
    <g id="text_48">
     <!-- $\beta_M = 10.0$ -->
     <g transform="translate(378.926563 688.417164)scale(0.15 -0.15)">
      <use transform="translate(0 0.390625)" xlink:href="#DejaVuSans-Oblique-3b2"/>
      <use transform="translate(63.818359 -16.015625)scale(0.7)" xlink:href="#DejaVuSans-Oblique-4d"/>
      <use transform="translate(146.430664 0.390625)" xlink:href="#DejaVuSans-3d"/>
      <use transform="translate(249.702148 0.390625)" xlink:href="#DejaVuSans-31"/>
      <use transform="translate(313.325195 0.390625)" xlink:href="#DejaVuSans-30"/>
      <use transform="translate(376.948242 0.390625)" xlink:href="#DejaVuSans-2e"/>
      <use transform="translate(408.735352 0.390625)" xlink:href="#DejaVuSans-30"/>
     </g>
    </g>
    <g id="line2d_93">
     <path d="M 336.926563 705.367164 
L 366.926563 705.367164 
" style="fill:none;stroke:#ceff29;stroke-linecap:square;stroke-width:1.5;"/>
    </g>
    <g id="line2d_94"/>
    <g id="text_49">
     <!-- $\beta_M = 11.0$ -->
     <g transform="translate(378.926563 710.617164)scale(0.15 -0.15)">
      <use transform="translate(0 0.390625)" xlink:href="#DejaVuSans-Oblique-3b2"/>
      <use transform="translate(63.818359 -16.015625)scale(0.7)" xlink:href="#DejaVuSans-Oblique-4d"/>
      <use transform="translate(146.430664 0.390625)" xlink:href="#DejaVuSans-3d"/>
      <use transform="translate(249.702148 0.390625)" xlink:href="#DejaVuSans-31"/>
      <use transform="translate(313.325195 0.390625)" xlink:href="#DejaVuSans-31"/>
      <use transform="translate(376.948242 0.390625)" xlink:href="#DejaVuSans-2e"/>
      <use transform="translate(408.735352 0.390625)" xlink:href="#DejaVuSans-30"/>
     </g>
    </g>
    <g id="line2d_95">
     <path d="M 479.876563 683.167164 
L 509.876563 683.167164 
" style="fill:none;stroke:#ffc400;stroke-linecap:square;stroke-width:1.5;"/>
    </g>
    <g id="line2d_96"/>
    <g id="text_50">
     <!-- $\beta_M = 12.0$ -->
     <g transform="translate(521.876563 688.417164)scale(0.15 -0.15)">
      <use transform="translate(0 0.390625)" xlink:href="#DejaVuSans-Oblique-3b2"/>
      <use transform="translate(63.818359 -16.015625)scale(0.7)" xlink:href="#DejaVuSans-Oblique-4d"/>
      <use transform="translate(146.430664 0.390625)" xlink:href="#DejaVuSans-3d"/>
      <use transform="translate(249.702148 0.390625)" xlink:href="#DejaVuSans-31"/>
      <use transform="translate(313.325195 0.390625)" xlink:href="#DejaVuSans-32"/>
      <use transform="translate(376.948242 0.390625)" xlink:href="#DejaVuSans-2e"/>
      <use transform="translate(408.735352 0.390625)" xlink:href="#DejaVuSans-30"/>
     </g>
    </g>
    <g id="line2d_97">
     <path d="M 479.876563 705.367164 
L 509.876563 705.367164 
" style="fill:none;stroke:#ff6800;stroke-linecap:square;stroke-width:1.5;"/>
    </g>
    <g id="line2d_98"/>
    <g id="text_51">
     <!-- $\beta_M = 13.0$ -->
     <g transform="translate(521.876563 710.617164)scale(0.15 -0.15)">
      <defs>
       <path d="M 2597 2516 
Q 3050 2419 3304 2112 
Q 3559 1806 3559 1356 
Q 3559 666 3084 287 
Q 2609 -91 1734 -91 
Q 1441 -91 1130 -33 
Q 819 25 488 141 
L 488 750 
Q 750 597 1062 519 
Q 1375 441 1716 441 
Q 2309 441 2620 675 
Q 2931 909 2931 1356 
Q 2931 1769 2642 2001 
Q 2353 2234 1838 2234 
L 1294 2234 
L 1294 2753 
L 1863 2753 
Q 2328 2753 2575 2939 
Q 2822 3125 2822 3475 
Q 2822 3834 2567 4026 
Q 2313 4219 1838 4219 
Q 1578 4219 1281 4162 
Q 984 4106 628 3988 
L 628 4550 
Q 988 4650 1302 4700 
Q 1616 4750 1894 4750 
Q 2613 4750 3031 4423 
Q 3450 4097 3450 3541 
Q 3450 3153 3228 2886 
Q 3006 2619 2597 2516 
z
" id="DejaVuSans-33" transform="scale(0.015625)"/>
      </defs>
      <use transform="translate(0 0.390625)" xlink:href="#DejaVuSans-Oblique-3b2"/>
      <use transform="translate(63.818359 -16.015625)scale(0.7)" xlink:href="#DejaVuSans-Oblique-4d"/>
      <use transform="translate(146.430664 0.390625)" xlink:href="#DejaVuSans-3d"/>
      <use transform="translate(249.702148 0.390625)" xlink:href="#DejaVuSans-31"/>
      <use transform="translate(313.325195 0.390625)" xlink:href="#DejaVuSans-33"/>
      <use transform="translate(376.948242 0.390625)" xlink:href="#DejaVuSans-2e"/>
      <use transform="translate(408.735352 0.390625)" xlink:href="#DejaVuSans-30"/>
     </g>
    </g>
    <g id="line2d_99">
     <path d="M 622.826562 683.167164 
L 652.826562 683.167164 
" style="fill:none;stroke:#f10800;stroke-linecap:square;stroke-width:1.5;"/>
    </g>
    <g id="line2d_100"/>
    <g id="text_52">
     <!-- $\beta_M = 14.0$ -->
     <g transform="translate(664.826562 688.417164)scale(0.15 -0.15)">
      <use transform="translate(0 0.390625)" xlink:href="#DejaVuSans-Oblique-3b2"/>
      <use transform="translate(63.818359 -16.015625)scale(0.7)" xlink:href="#DejaVuSans-Oblique-4d"/>
      <use transform="translate(146.430664 0.390625)" xlink:href="#DejaVuSans-3d"/>
      <use transform="translate(249.702148 0.390625)" xlink:href="#DejaVuSans-31"/>
      <use transform="translate(313.325195 0.390625)" xlink:href="#DejaVuSans-34"/>
      <use transform="translate(376.948242 0.390625)" xlink:href="#DejaVuSans-2e"/>
      <use transform="translate(408.735352 0.390625)" xlink:href="#DejaVuSans-30"/>
     </g>
    </g>
    <g id="line2d_101">
     <path d="M 622.826562 705.367164 
L 652.826562 705.367164 
" style="fill:none;stroke:#800000;stroke-linecap:square;stroke-width:1.5;"/>
    </g>
    <g id="line2d_102"/>
    <g id="text_53">
     <!-- $\beta_M = 15.0$ -->
     <g transform="translate(664.826562 710.617164)scale(0.15 -0.15)">
      <use transform="translate(0 0.390625)" xlink:href="#DejaVuSans-Oblique-3b2"/>
      <use transform="translate(63.818359 -16.015625)scale(0.7)" xlink:href="#DejaVuSans-Oblique-4d"/>
      <use transform="translate(146.430664 0.390625)" xlink:href="#DejaVuSans-3d"/>
      <use transform="translate(249.702148 0.390625)" xlink:href="#DejaVuSans-31"/>
      <use transform="translate(313.325195 0.390625)" xlink:href="#DejaVuSans-35"/>
      <use transform="translate(376.948242 0.390625)" xlink:href="#DejaVuSans-2e"/>
      <use transform="translate(408.735352 0.390625)" xlink:href="#DejaVuSans-30"/>
     </g>
    </g>
   </g>
  </g>
  <g id="text_54">
   <!-- Shortcut Replays Across Trials -->
   <g transform="translate(205.469141 26.196094)scale(0.25 -0.25)">
    <use xlink:href="#DejaVuSans-53"/>
    <use x="63.476562" xlink:href="#DejaVuSans-68"/>
    <use x="126.855469" xlink:href="#DejaVuSans-6f"/>
    <use x="188.037109" xlink:href="#DejaVuSans-72"/>
    <use x="229.150391" xlink:href="#DejaVuSans-74"/>
    <use x="268.359375" xlink:href="#DejaVuSans-63"/>
    <use x="323.339844" xlink:href="#DejaVuSans-75"/>
    <use x="386.71875" xlink:href="#DejaVuSans-74"/>
    <use x="425.927734" xlink:href="#DejaVuSans-20"/>
    <use x="457.714844" xlink:href="#DejaVuSans-52"/>
    <use x="522.697266" xlink:href="#DejaVuSans-65"/>
    <use x="584.220703" xlink:href="#DejaVuSans-70"/>
    <use x="647.697266" xlink:href="#DejaVuSans-6c"/>
    <use x="675.480469" xlink:href="#DejaVuSans-61"/>
    <use x="736.759766" xlink:href="#DejaVuSans-79"/>
    <use x="795.939453" xlink:href="#DejaVuSans-73"/>
    <use x="848.039062" xlink:href="#DejaVuSans-20"/>
    <use x="879.826172" xlink:href="#DejaVuSans-41"/>
    <use x="946.484375" xlink:href="#DejaVuSans-63"/>
    <use x="1001.464844" xlink:href="#DejaVuSans-72"/>
    <use x="1040.328125" xlink:href="#DejaVuSans-6f"/>
    <use x="1101.509766" xlink:href="#DejaVuSans-73"/>
    <use x="1153.609375" xlink:href="#DejaVuSans-73"/>
    <use x="1205.708984" xlink:href="#DejaVuSans-20"/>
    <use x="1237.496094" xlink:href="#DejaVuSans-54"/>
    <use x="1283.830078" xlink:href="#DejaVuSans-72"/>
    <use x="1324.943359" xlink:href="#DejaVuSans-69"/>
    <use x="1352.726562" xlink:href="#DejaVuSans-61"/>
    <use x="1414.005859" xlink:href="#DejaVuSans-6c"/>
    <use x="1441.789062" xlink:href="#DejaVuSans-73"/>
   </g>
  </g>
 </g>
 <defs>
  <clipPath id="pae5517a01c">
   <rect height="81.134328" width="669.6" x="68.201563" y="79.2"/>
  </clipPath>
  <clipPath id="pab3d2465af">
   <rect height="81.134328" width="669.6" x="68.201563" y="233.355224"/>
  </clipPath>
  <clipPath id="p0351740056">
   <rect height="81.134328" width="669.6" x="68.201563" y="387.510448"/>
  </clipPath>
  <clipPath id="p53d13e3aef">
   <rect height="81.134328" width="669.6" x="68.201563" y="541.665672"/>
  </clipPath>
 </defs>
</svg>
