<?xml version="1.0" encoding="utf-8" standalone="no"?>
<!DOCTYPE svg PUBLIC "-//W3C//DTD SVG 1.1//EN"
  "http://www.w3.org/Graphics/SVG/1.1/DTD/svg11.dtd">
<svg height="277.314375pt" version="1.1" viewBox="0 0 732.802102 277.314375" width="732.802102pt" xmlns="http://www.w3.org/2000/svg" xmlns:xlink="http://www.w3.org/1999/xlink">
 <metadata>
  <rdf:RDF xmlns:cc="http://creativecommons.org/ns#" xmlns:dc="http://purl.org/dc/elements/1.1/" xmlns:rdf="http://www.w3.org/1999/02/22-rdf-syntax-ns#">
   <cc:Work>
    <dc:type rdf:resource="http://purl.org/dc/dcmitype/StillImage"/>
    <dc:date>2023-01-16T18:34:47.670382</dc:date>
    <dc:format>image/svg+xml</dc:format>
    <dc:creator>
     <cc:Agent>
      <dc:title>Matplotlib v3.4.3, https://matplotlib.org/</dc:title>
     </cc:Agent>
    </dc:creator>
   </cc:Work>
  </rdf:RDF>
 </metadata>
 <defs>
  <style type="text/css">*{stroke-linecap:butt;stroke-linejoin:round;}</style>
 </defs>
 <g id="figure_1">
  <g id="patch_1">
   <path d="M 0 277.314375 
L 732.802102 277.314375 
L 732.802102 0 
L 0 0 
z
" style="fill:none;"/>
  </g>
  <g id="axes_1">
   <g id="patch_2">
    <path d="M 46.965625 239.758125 
L 351.329261 239.758125 
L 351.329261 22.318125 
L 46.965625 22.318125 
z
" style="fill:none;"/>
   </g>
   <g id="matplotlib.axis_1">
    <g id="xtick_1">
     <g id="line2d_1">
      <defs>
       <path d="M 0 0 
L 0 3.5 
" id="m6541229d26" style="stroke:#000000;stroke-width:0.8;"/>
      </defs>
      <g>
       <use style="stroke:#000000;stroke-width:0.8;" x="97.185625" xlink:href="#m6541229d26" y="239.758125"/>
      </g>
     </g>
     <g id="text_1">
      <!-- 50 -->
      <g transform="translate(90.823125 254.356562)scale(0.1 -0.1)">
       <defs>
        <path d="M 691 4666 
L 3169 4666 
L 3169 4134 
L 1269 4134 
L 1269 2991 
Q 1406 3038 1543 3061 
Q 1681 3084 1819 3084 
Q 2600 3084 3056 2656 
Q 3513 2228 3513 1497 
Q 3513 744 3044 326 
Q 2575 -91 1722 -91 
Q 1428 -91 1123 -41 
Q 819 9 494 109 
L 494 744 
Q 775 591 1075 516 
Q 1375 441 1709 441 
Q 2250 441 2565 725 
Q 2881 1009 2881 1497 
Q 2881 1984 2565 2268 
Q 2250 2553 1709 2553 
Q 1456 2553 1204 2497 
Q 953 2441 691 2322 
L 691 4666 
z
" id="DejaVuSans-35" transform="scale(0.015625)"/>
        <path d="M 2034 4250 
Q 1547 4250 1301 3770 
Q 1056 3291 1056 2328 
Q 1056 1369 1301 889 
Q 1547 409 2034 409 
Q 2525 409 2770 889 
Q 3016 1369 3016 2328 
Q 3016 3291 2770 3770 
Q 2525 4250 2034 4250 
z
M 2034 4750 
Q 2819 4750 3233 4129 
Q 3647 3509 3647 2328 
Q 3647 1150 3233 529 
Q 2819 -91 2034 -91 
Q 1250 -91 836 529 
Q 422 1150 422 2328 
Q 422 3509 836 4129 
Q 1250 4750 2034 4750 
z
" id="DejaVuSans-30" transform="scale(0.015625)"/>
       </defs>
       <use xlink:href="#DejaVuSans-35"/>
       <use x="63.623047" xlink:href="#DejaVuSans-30"/>
      </g>
     </g>
    </g>
    <g id="xtick_2">
     <g id="line2d_2">
      <g>
       <use style="stroke:#000000;stroke-width:0.8;" x="147.912898" xlink:href="#m6541229d26" y="239.758125"/>
      </g>
     </g>
     <g id="text_2">
      <!-- 100 -->
      <g transform="translate(138.369148 254.356562)scale(0.1 -0.1)">
       <defs>
        <path d="M 794 531 
L 1825 531 
L 1825 4091 
L 703 3866 
L 703 4441 
L 1819 4666 
L 2450 4666 
L 2450 531 
L 3481 531 
L 3481 0 
L 794 0 
L 794 531 
z
" id="DejaVuSans-31" transform="scale(0.015625)"/>
       </defs>
       <use xlink:href="#DejaVuSans-31"/>
       <use x="63.623047" xlink:href="#DejaVuSans-30"/>
       <use x="127.246094" xlink:href="#DejaVuSans-30"/>
      </g>
     </g>
    </g>
    <g id="xtick_3">
     <g id="line2d_3">
      <g>
       <use style="stroke:#000000;stroke-width:0.8;" x="198.64017" xlink:href="#m6541229d26" y="239.758125"/>
      </g>
     </g>
     <g id="text_3">
      <!-- 150 -->
      <g transform="translate(189.09642 254.356562)scale(0.1 -0.1)">
       <use xlink:href="#DejaVuSans-31"/>
       <use x="63.623047" xlink:href="#DejaVuSans-35"/>
       <use x="127.246094" xlink:href="#DejaVuSans-30"/>
      </g>
     </g>
    </g>
    <g id="xtick_4">
     <g id="line2d_4">
      <g>
       <use style="stroke:#000000;stroke-width:0.8;" x="249.367443" xlink:href="#m6541229d26" y="239.758125"/>
      </g>
     </g>
     <g id="text_4">
      <!-- 200 -->
      <g transform="translate(239.823693 254.356562)scale(0.1 -0.1)">
       <defs>
        <path d="M 1228 531 
L 3431 531 
L 3431 0 
L 469 0 
L 469 531 
Q 828 903 1448 1529 
Q 2069 2156 2228 2338 
Q 2531 2678 2651 2914 
Q 2772 3150 2772 3378 
Q 2772 3750 2511 3984 
Q 2250 4219 1831 4219 
Q 1534 4219 1204 4116 
Q 875 4013 500 3803 
L 500 4441 
Q 881 4594 1212 4672 
Q 1544 4750 1819 4750 
Q 2544 4750 2975 4387 
Q 3406 4025 3406 3419 
Q 3406 3131 3298 2873 
Q 3191 2616 2906 2266 
Q 2828 2175 2409 1742 
Q 1991 1309 1228 531 
z
" id="DejaVuSans-32" transform="scale(0.015625)"/>
       </defs>
       <use xlink:href="#DejaVuSans-32"/>
       <use x="63.623047" xlink:href="#DejaVuSans-30"/>
       <use x="127.246094" xlink:href="#DejaVuSans-30"/>
      </g>
     </g>
    </g>
    <g id="xtick_5">
     <g id="line2d_5">
      <g>
       <use style="stroke:#000000;stroke-width:0.8;" x="300.094716" xlink:href="#m6541229d26" y="239.758125"/>
      </g>
     </g>
     <g id="text_5">
      <!-- 250 -->
      <g transform="translate(290.550966 254.356562)scale(0.1 -0.1)">
       <use xlink:href="#DejaVuSans-32"/>
       <use x="63.623047" xlink:href="#DejaVuSans-35"/>
       <use x="127.246094" xlink:href="#DejaVuSans-30"/>
      </g>
     </g>
    </g>
    <g id="xtick_6">
     <g id="line2d_6">
      <g>
       <use style="stroke:#000000;stroke-width:0.8;" x="350.821989" xlink:href="#m6541229d26" y="239.758125"/>
      </g>
     </g>
     <g id="text_6">
      <!-- 300 -->
      <g transform="translate(341.278239 254.356562)scale(0.1 -0.1)">
       <defs>
        <path d="M 2597 2516 
Q 3050 2419 3304 2112 
Q 3559 1806 3559 1356 
Q 3559 666 3084 287 
Q 2609 -91 1734 -91 
Q 1441 -91 1130 -33 
Q 819 25 488 141 
L 488 750 
Q 750 597 1062 519 
Q 1375 441 1716 441 
Q 2309 441 2620 675 
Q 2931 909 2931 1356 
Q 2931 1769 2642 2001 
Q 2353 2234 1838 2234 
L 1294 2234 
L 1294 2753 
L 1863 2753 
Q 2328 2753 2575 2939 
Q 2822 3125 2822 3475 
Q 2822 3834 2567 4026 
Q 2313 4219 1838 4219 
Q 1578 4219 1281 4162 
Q 984 4106 628 3988 
L 628 4550 
Q 988 4650 1302 4700 
Q 1616 4750 1894 4750 
Q 2613 4750 3031 4423 
Q 3450 4097 3450 3541 
Q 3450 3153 3228 2886 
Q 3006 2619 2597 2516 
z
" id="DejaVuSans-33" transform="scale(0.015625)"/>
       </defs>
       <use xlink:href="#DejaVuSans-33"/>
       <use x="63.623047" xlink:href="#DejaVuSans-30"/>
       <use x="127.246094" xlink:href="#DejaVuSans-30"/>
      </g>
     </g>
    </g>
    <g id="text_7">
     <!-- Trial -->
     <g transform="translate(188.933381 268.034687)scale(0.1 -0.1)">
      <defs>
       <path d="M -19 4666 
L 3928 4666 
L 3928 4134 
L 2272 4134 
L 2272 0 
L 1638 0 
L 1638 4134 
L -19 4134 
L -19 4666 
z
" id="DejaVuSans-54" transform="scale(0.015625)"/>
       <path d="M 2631 2963 
Q 2534 3019 2420 3045 
Q 2306 3072 2169 3072 
Q 1681 3072 1420 2755 
Q 1159 2438 1159 1844 
L 1159 0 
L 581 0 
L 581 3500 
L 1159 3500 
L 1159 2956 
Q 1341 3275 1631 3429 
Q 1922 3584 2338 3584 
Q 2397 3584 2469 3576 
Q 2541 3569 2628 3553 
L 2631 2963 
z
" id="DejaVuSans-72" transform="scale(0.015625)"/>
       <path d="M 603 3500 
L 1178 3500 
L 1178 0 
L 603 0 
L 603 3500 
z
M 603 4863 
L 1178 4863 
L 1178 4134 
L 603 4134 
L 603 4863 
z
" id="DejaVuSans-69" transform="scale(0.015625)"/>
       <path d="M 2194 1759 
Q 1497 1759 1228 1600 
Q 959 1441 959 1056 
Q 959 750 1161 570 
Q 1363 391 1709 391 
Q 2188 391 2477 730 
Q 2766 1069 2766 1631 
L 2766 1759 
L 2194 1759 
z
M 3341 1997 
L 3341 0 
L 2766 0 
L 2766 531 
Q 2569 213 2275 61 
Q 1981 -91 1556 -91 
Q 1019 -91 701 211 
Q 384 513 384 1019 
Q 384 1609 779 1909 
Q 1175 2209 1959 2209 
L 2766 2209 
L 2766 2266 
Q 2766 2663 2505 2880 
Q 2244 3097 1772 3097 
Q 1472 3097 1187 3025 
Q 903 2953 641 2809 
L 641 3341 
Q 956 3463 1253 3523 
Q 1550 3584 1831 3584 
Q 2591 3584 2966 3190 
Q 3341 2797 3341 1997 
z
" id="DejaVuSans-61" transform="scale(0.015625)"/>
       <path d="M 603 4863 
L 1178 4863 
L 1178 0 
L 603 0 
L 603 4863 
z
" id="DejaVuSans-6c" transform="scale(0.015625)"/>
      </defs>
      <use xlink:href="#DejaVuSans-54"/>
      <use x="46.333984" xlink:href="#DejaVuSans-72"/>
      <use x="87.447266" xlink:href="#DejaVuSans-69"/>
      <use x="115.230469" xlink:href="#DejaVuSans-61"/>
      <use x="176.509766" xlink:href="#DejaVuSans-6c"/>
     </g>
    </g>
   </g>
   <g id="matplotlib.axis_2">
    <g id="ytick_1">
     <g id="line2d_7">
      <defs>
       <path d="M 0 0 
L -3.5 0 
" id="m13b4476977" style="stroke:#000000;stroke-width:0.8;"/>
      </defs>
      <g>
       <use style="stroke:#000000;stroke-width:0.8;" x="46.965625" xlink:href="#m13b4476977" y="239.758125"/>
      </g>
     </g>
     <g id="text_8">
      <!-- 0 -->
      <g transform="translate(33.603125 243.557344)scale(0.1 -0.1)">
       <use xlink:href="#DejaVuSans-30"/>
      </g>
     </g>
    </g>
    <g id="ytick_2">
     <g id="line2d_8">
      <g>
       <use style="stroke:#000000;stroke-width:0.8;" x="46.965625" xlink:href="#m13b4476977" y="196.270125"/>
      </g>
     </g>
     <g id="text_9">
      <!-- 20 -->
      <g transform="translate(27.240625 200.069344)scale(0.1 -0.1)">
       <use xlink:href="#DejaVuSans-32"/>
       <use x="63.623047" xlink:href="#DejaVuSans-30"/>
      </g>
     </g>
    </g>
    <g id="ytick_3">
     <g id="line2d_9">
      <g>
       <use style="stroke:#000000;stroke-width:0.8;" x="46.965625" xlink:href="#m13b4476977" y="152.782125"/>
      </g>
     </g>
     <g id="text_10">
      <!-- 40 -->
      <g transform="translate(27.240625 156.581344)scale(0.1 -0.1)">
       <defs>
        <path d="M 2419 4116 
L 825 1625 
L 2419 1625 
L 2419 4116 
z
M 2253 4666 
L 3047 4666 
L 3047 1625 
L 3713 1625 
L 3713 1100 
L 3047 1100 
L 3047 0 
L 2419 0 
L 2419 1100 
L 313 1100 
L 313 1709 
L 2253 4666 
z
" id="DejaVuSans-34" transform="scale(0.015625)"/>
       </defs>
       <use xlink:href="#DejaVuSans-34"/>
       <use x="63.623047" xlink:href="#DejaVuSans-30"/>
      </g>
     </g>
    </g>
    <g id="ytick_4">
     <g id="line2d_10">
      <g>
       <use style="stroke:#000000;stroke-width:0.8;" x="46.965625" xlink:href="#m13b4476977" y="109.294125"/>
      </g>
     </g>
     <g id="text_11">
      <!-- 60 -->
      <g transform="translate(27.240625 113.093344)scale(0.1 -0.1)">
       <defs>
        <path d="M 2113 2584 
Q 1688 2584 1439 2293 
Q 1191 2003 1191 1497 
Q 1191 994 1439 701 
Q 1688 409 2113 409 
Q 2538 409 2786 701 
Q 3034 994 3034 1497 
Q 3034 2003 2786 2293 
Q 2538 2584 2113 2584 
z
M 3366 4563 
L 3366 3988 
Q 3128 4100 2886 4159 
Q 2644 4219 2406 4219 
Q 1781 4219 1451 3797 
Q 1122 3375 1075 2522 
Q 1259 2794 1537 2939 
Q 1816 3084 2150 3084 
Q 2853 3084 3261 2657 
Q 3669 2231 3669 1497 
Q 3669 778 3244 343 
Q 2819 -91 2113 -91 
Q 1303 -91 875 529 
Q 447 1150 447 2328 
Q 447 3434 972 4092 
Q 1497 4750 2381 4750 
Q 2619 4750 2861 4703 
Q 3103 4656 3366 4563 
z
" id="DejaVuSans-36" transform="scale(0.015625)"/>
       </defs>
       <use xlink:href="#DejaVuSans-36"/>
       <use x="63.623047" xlink:href="#DejaVuSans-30"/>
      </g>
     </g>
    </g>
    <g id="ytick_5">
     <g id="line2d_11">
      <g>
       <use style="stroke:#000000;stroke-width:0.8;" x="46.965625" xlink:href="#m13b4476977" y="65.806125"/>
      </g>
     </g>
     <g id="text_12">
      <!-- 80 -->
      <g transform="translate(27.240625 69.605344)scale(0.1 -0.1)">
       <defs>
        <path d="M 2034 2216 
Q 1584 2216 1326 1975 
Q 1069 1734 1069 1313 
Q 1069 891 1326 650 
Q 1584 409 2034 409 
Q 2484 409 2743 651 
Q 3003 894 3003 1313 
Q 3003 1734 2745 1975 
Q 2488 2216 2034 2216 
z
M 1403 2484 
Q 997 2584 770 2862 
Q 544 3141 544 3541 
Q 544 4100 942 4425 
Q 1341 4750 2034 4750 
Q 2731 4750 3128 4425 
Q 3525 4100 3525 3541 
Q 3525 3141 3298 2862 
Q 3072 2584 2669 2484 
Q 3125 2378 3379 2068 
Q 3634 1759 3634 1313 
Q 3634 634 3220 271 
Q 2806 -91 2034 -91 
Q 1263 -91 848 271 
Q 434 634 434 1313 
Q 434 1759 690 2068 
Q 947 2378 1403 2484 
z
M 1172 3481 
Q 1172 3119 1398 2916 
Q 1625 2713 2034 2713 
Q 2441 2713 2670 2916 
Q 2900 3119 2900 3481 
Q 2900 3844 2670 4047 
Q 2441 4250 2034 4250 
Q 1625 4250 1398 4047 
Q 1172 3844 1172 3481 
z
" id="DejaVuSans-38" transform="scale(0.015625)"/>
       </defs>
       <use xlink:href="#DejaVuSans-38"/>
       <use x="63.623047" xlink:href="#DejaVuSans-30"/>
      </g>
     </g>
    </g>
    <g id="ytick_6">
     <g id="line2d_12">
      <g>
       <use style="stroke:#000000;stroke-width:0.8;" x="46.965625" xlink:href="#m13b4476977" y="22.318125"/>
      </g>
     </g>
     <g id="text_13">
      <!-- 100 -->
      <g transform="translate(20.878125 26.117344)scale(0.1 -0.1)">
       <use xlink:href="#DejaVuSans-31"/>
       <use x="63.623047" xlink:href="#DejaVuSans-30"/>
       <use x="127.246094" xlink:href="#DejaVuSans-30"/>
      </g>
     </g>
    </g>
    <g id="text_14">
     <!-- Reverse Mode [%] -->
     <g transform="translate(14.798438 176.59125)rotate(-90)scale(0.1 -0.1)">
      <defs>
       <path d="M 2841 2188 
Q 3044 2119 3236 1894 
Q 3428 1669 3622 1275 
L 4263 0 
L 3584 0 
L 2988 1197 
Q 2756 1666 2539 1819 
Q 2322 1972 1947 1972 
L 1259 1972 
L 1259 0 
L 628 0 
L 628 4666 
L 2053 4666 
Q 2853 4666 3247 4331 
Q 3641 3997 3641 3322 
Q 3641 2881 3436 2590 
Q 3231 2300 2841 2188 
z
M 1259 4147 
L 1259 2491 
L 2053 2491 
Q 2509 2491 2742 2702 
Q 2975 2913 2975 3322 
Q 2975 3731 2742 3939 
Q 2509 4147 2053 4147 
L 1259 4147 
z
" id="DejaVuSans-52" transform="scale(0.015625)"/>
       <path d="M 3597 1894 
L 3597 1613 
L 953 1613 
Q 991 1019 1311 708 
Q 1631 397 2203 397 
Q 2534 397 2845 478 
Q 3156 559 3463 722 
L 3463 178 
Q 3153 47 2828 -22 
Q 2503 -91 2169 -91 
Q 1331 -91 842 396 
Q 353 884 353 1716 
Q 353 2575 817 3079 
Q 1281 3584 2069 3584 
Q 2775 3584 3186 3129 
Q 3597 2675 3597 1894 
z
M 3022 2063 
Q 3016 2534 2758 2815 
Q 2500 3097 2075 3097 
Q 1594 3097 1305 2825 
Q 1016 2553 972 2059 
L 3022 2063 
z
" id="DejaVuSans-65" transform="scale(0.015625)"/>
       <path d="M 191 3500 
L 800 3500 
L 1894 563 
L 2988 3500 
L 3597 3500 
L 2284 0 
L 1503 0 
L 191 3500 
z
" id="DejaVuSans-76" transform="scale(0.015625)"/>
       <path d="M 2834 3397 
L 2834 2853 
Q 2591 2978 2328 3040 
Q 2066 3103 1784 3103 
Q 1356 3103 1142 2972 
Q 928 2841 928 2578 
Q 928 2378 1081 2264 
Q 1234 2150 1697 2047 
L 1894 2003 
Q 2506 1872 2764 1633 
Q 3022 1394 3022 966 
Q 3022 478 2636 193 
Q 2250 -91 1575 -91 
Q 1294 -91 989 -36 
Q 684 19 347 128 
L 347 722 
Q 666 556 975 473 
Q 1284 391 1588 391 
Q 1994 391 2212 530 
Q 2431 669 2431 922 
Q 2431 1156 2273 1281 
Q 2116 1406 1581 1522 
L 1381 1569 
Q 847 1681 609 1914 
Q 372 2147 372 2553 
Q 372 3047 722 3315 
Q 1072 3584 1716 3584 
Q 2034 3584 2315 3537 
Q 2597 3491 2834 3397 
z
" id="DejaVuSans-73" transform="scale(0.015625)"/>
       <path id="DejaVuSans-20" transform="scale(0.015625)"/>
       <path d="M 628 4666 
L 1569 4666 
L 2759 1491 
L 3956 4666 
L 4897 4666 
L 4897 0 
L 4281 0 
L 4281 4097 
L 3078 897 
L 2444 897 
L 1241 4097 
L 1241 0 
L 628 0 
L 628 4666 
z
" id="DejaVuSans-4d" transform="scale(0.015625)"/>
       <path d="M 1959 3097 
Q 1497 3097 1228 2736 
Q 959 2375 959 1747 
Q 959 1119 1226 758 
Q 1494 397 1959 397 
Q 2419 397 2687 759 
Q 2956 1122 2956 1747 
Q 2956 2369 2687 2733 
Q 2419 3097 1959 3097 
z
M 1959 3584 
Q 2709 3584 3137 3096 
Q 3566 2609 3566 1747 
Q 3566 888 3137 398 
Q 2709 -91 1959 -91 
Q 1206 -91 779 398 
Q 353 888 353 1747 
Q 353 2609 779 3096 
Q 1206 3584 1959 3584 
z
" id="DejaVuSans-6f" transform="scale(0.015625)"/>
       <path d="M 2906 2969 
L 2906 4863 
L 3481 4863 
L 3481 0 
L 2906 0 
L 2906 525 
Q 2725 213 2448 61 
Q 2172 -91 1784 -91 
Q 1150 -91 751 415 
Q 353 922 353 1747 
Q 353 2572 751 3078 
Q 1150 3584 1784 3584 
Q 2172 3584 2448 3432 
Q 2725 3281 2906 2969 
z
M 947 1747 
Q 947 1113 1208 752 
Q 1469 391 1925 391 
Q 2381 391 2643 752 
Q 2906 1113 2906 1747 
Q 2906 2381 2643 2742 
Q 2381 3103 1925 3103 
Q 1469 3103 1208 2742 
Q 947 2381 947 1747 
z
" id="DejaVuSans-64" transform="scale(0.015625)"/>
       <path d="M 550 4863 
L 1875 4863 
L 1875 4416 
L 1125 4416 
L 1125 -397 
L 1875 -397 
L 1875 -844 
L 550 -844 
L 550 4863 
z
" id="DejaVuSans-5b" transform="scale(0.015625)"/>
       <path d="M 4653 2053 
Q 4381 2053 4226 1822 
Q 4072 1591 4072 1178 
Q 4072 772 4226 539 
Q 4381 306 4653 306 
Q 4919 306 5073 539 
Q 5228 772 5228 1178 
Q 5228 1588 5073 1820 
Q 4919 2053 4653 2053 
z
M 4653 2450 
Q 5147 2450 5437 2106 
Q 5728 1763 5728 1178 
Q 5728 594 5436 251 
Q 5144 -91 4653 -91 
Q 4153 -91 3862 251 
Q 3572 594 3572 1178 
Q 3572 1766 3864 2108 
Q 4156 2450 4653 2450 
z
M 1428 4353 
Q 1159 4353 1004 4120 
Q 850 3888 850 3481 
Q 850 3069 1003 2837 
Q 1156 2606 1428 2606 
Q 1700 2606 1854 2837 
Q 2009 3069 2009 3481 
Q 2009 3884 1853 4118 
Q 1697 4353 1428 4353 
z
M 4250 4750 
L 4750 4750 
L 1831 -91 
L 1331 -91 
L 4250 4750 
z
M 1428 4750 
Q 1922 4750 2215 4408 
Q 2509 4066 2509 3481 
Q 2509 2891 2217 2550 
Q 1925 2209 1428 2209 
Q 931 2209 642 2551 
Q 353 2894 353 3481 
Q 353 4063 643 4406 
Q 934 4750 1428 4750 
z
" id="DejaVuSans-25" transform="scale(0.015625)"/>
       <path d="M 1947 4863 
L 1947 -844 
L 622 -844 
L 622 -397 
L 1369 -397 
L 1369 4416 
L 622 4416 
L 622 4863 
L 1947 4863 
z
" id="DejaVuSans-5d" transform="scale(0.015625)"/>
      </defs>
      <use xlink:href="#DejaVuSans-52"/>
      <use x="64.982422" xlink:href="#DejaVuSans-65"/>
      <use x="126.505859" xlink:href="#DejaVuSans-76"/>
      <use x="185.685547" xlink:href="#DejaVuSans-65"/>
      <use x="247.208984" xlink:href="#DejaVuSans-72"/>
      <use x="288.322266" xlink:href="#DejaVuSans-73"/>
      <use x="340.421875" xlink:href="#DejaVuSans-65"/>
      <use x="401.945312" xlink:href="#DejaVuSans-20"/>
      <use x="433.732422" xlink:href="#DejaVuSans-4d"/>
      <use x="520.011719" xlink:href="#DejaVuSans-6f"/>
      <use x="581.193359" xlink:href="#DejaVuSans-64"/>
      <use x="644.669922" xlink:href="#DejaVuSans-65"/>
      <use x="706.193359" xlink:href="#DejaVuSans-20"/>
      <use x="737.980469" xlink:href="#DejaVuSans-5b"/>
      <use x="776.994141" xlink:href="#DejaVuSans-25"/>
      <use x="872.013672" xlink:href="#DejaVuSans-5d"/>
     </g>
    </g>
   </g>
   <g id="line2d_13">
    <path clip-path="url(#pa8c9d7b16a)" d="M 47.472898 183.223725 
L 48.487443 150.607725 
L 49.501989 148.433325 
L 50.516534 113.642925 
L 51.53108 107.119725 
L 52.545625 85.375725 
L 53.56017 98.422125 
L 54.574716 100.596525 
L 55.589261 94.073325 
L 56.603807 83.201325 
L 57.618352 96.247725 
L 58.632898 87.550125 
L 59.647443 91.898925 
L 60.661989 87.550125 
L 61.676534 111.468525 
L 62.69108 115.817325 
L 63.705625 91.898925 
L 64.72017 87.550125 
L 65.734716 104.945325 
L 66.749261 113.642925 
L 67.763807 98.422125 
L 69.792898 120.166125 
L 70.807443 133.212525 
L 71.821989 122.340525 
L 72.836534 120.166125 
L 73.85108 124.514925 
L 74.865625 100.596525 
L 75.88017 131.038125 
L 76.894716 104.945325 
L 77.909261 117.991725 
L 78.923807 113.642925 
L 79.938352 139.735725 
L 80.952898 117.991725 
L 81.967443 117.991725 
L 82.981989 131.038125 
L 83.996534 150.607725 
L 85.01108 139.735725 
L 86.025625 141.910125 
L 87.04017 137.561325 
L 88.054716 126.689325 
L 89.069261 146.258925 
L 90.083807 157.130925 
L 91.098352 146.258925 
L 92.112898 128.863725 
L 93.127443 131.038125 
L 94.141989 178.874925 
L 95.156534 157.130925 
L 96.17108 139.735725 
L 97.185625 163.654125 
L 98.20017 165.828525 
L 99.214716 152.782125 
L 100.229261 141.910125 
L 101.243807 152.782125 
L 102.258352 154.956525 
L 103.272898 148.433325 
L 104.287443 148.433325 
L 105.301989 168.002925 
L 106.316534 154.956525 
L 107.33108 144.084525 
L 108.345625 148.433325 
L 109.36017 150.607725 
L 110.374716 150.607725 
L 111.389261 144.084525 
L 112.403807 148.433325 
L 113.418352 168.002925 
L 114.432898 159.305325 
L 115.447443 159.305325 
L 116.461989 157.130925 
L 117.476534 146.258925 
L 118.49108 165.828525 
L 119.505625 174.526125 
L 120.52017 165.828525 
L 121.534716 161.479725 
L 122.549261 159.305325 
L 123.563807 161.479725 
L 124.578352 168.002925 
L 125.592898 170.177325 
L 126.607443 165.828525 
L 127.621989 165.828525 
L 129.65108 191.921325 
L 130.665625 187.572525 
L 131.68017 172.351725 
L 132.694716 172.351725 
L 133.709261 181.049325 
L 134.723807 165.828525 
L 135.738352 176.700525 
L 136.752898 174.526125 
L 137.767443 165.828525 
L 138.781989 172.351725 
L 139.796534 183.223725 
L 140.81108 174.526125 
L 141.825625 189.746925 
L 142.84017 165.828525 
L 143.854716 174.526125 
L 144.869261 174.526125 
L 145.883807 187.572525 
L 146.898352 194.095725 
L 147.912898 189.746925 
L 148.927443 196.270125 
L 149.941989 161.479725 
L 150.956534 70.154925 
L 151.97108 128.863725 
L 152.985625 170.177325 
L 154.00017 154.956525 
L 155.014716 172.351725 
L 156.029261 174.526125 
L 157.043807 163.654125 
L 159.072898 168.002925 
L 160.087443 174.526125 
L 161.101989 185.398125 
L 162.116534 157.130925 
L 163.13108 183.223725 
L 164.145625 170.177325 
L 165.16017 185.398125 
L 166.174716 157.130925 
L 167.189261 187.572525 
L 168.203807 187.572525 
L 169.218352 183.223725 
L 170.232898 183.223725 
L 171.247443 168.002925 
L 172.261989 194.095725 
L 173.276534 170.177325 
L 174.29108 165.828525 
L 175.305625 181.049325 
L 176.32017 194.095725 
L 177.334716 181.049325 
L 178.349261 176.700525 
L 179.363807 187.572525 
L 180.378352 200.618925 
L 181.392898 183.223725 
L 182.407443 185.398125 
L 183.421989 200.618925 
L 184.436534 198.444525 
L 185.45108 187.572525 
L 186.465625 183.223725 
L 188.494716 191.921325 
L 189.509261 191.921325 
L 190.523807 174.526125 
L 191.538352 176.700525 
L 192.552898 204.967725 
L 194.581989 187.572525 
L 195.596534 194.095725 
L 196.61108 198.444525 
L 197.625625 183.223725 
L 198.64017 189.746925 
L 199.654716 198.444525 
L 201.683807 185.398125 
L 202.698352 181.049325 
L 203.712898 189.746925 
L 204.727443 187.572525 
L 205.741989 181.049325 
L 206.756534 189.746925 
L 207.77108 202.793325 
L 208.785625 204.967725 
L 209.80017 209.316525 
L 210.814716 187.572525 
L 211.829261 200.618925 
L 212.843807 191.921325 
L 213.858352 198.444525 
L 214.872898 198.444525 
L 215.887443 194.095725 
L 216.901989 215.839725 
L 217.916534 194.095725 
L 218.93108 194.095725 
L 219.945625 185.398125 
L 220.96017 200.618925 
L 221.974716 194.095725 
L 222.989261 211.490925 
L 224.003807 202.793325 
L 225.018352 189.746925 
L 226.032898 202.793325 
L 227.047443 194.095725 
L 228.061989 220.188525 
L 229.076534 209.316525 
L 230.09108 207.142125 
L 231.105625 209.316525 
L 232.12017 170.177325 
L 233.134716 194.095725 
L 234.149261 194.095725 
L 235.163807 196.270125 
L 236.178352 183.223725 
L 237.192898 209.316525 
L 238.207443 191.921325 
L 239.221989 218.014125 
L 240.236534 204.967725 
L 241.25108 215.839725 
L 242.265625 198.444525 
L 243.28017 185.398125 
L 244.294716 204.967725 
L 245.309261 189.746925 
L 246.323807 191.921325 
L 247.338352 204.967725 
L 249.367443 191.921325 
L 250.381989 198.444525 
L 251.396534 194.095725 
L 252.41108 72.329325 
L 253.425625 67.980525 
L 254.44017 52.759725 
L 255.454716 48.410925 
L 256.469261 59.282925 
L 258.498352 100.596525 
L 259.512898 98.422125 
L 260.527443 107.119725 
L 261.541989 124.514925 
L 262.556534 137.561325 
L 263.57108 174.526125 
L 264.585625 137.561325 
L 265.60017 185.398125 
L 267.629261 181.049325 
L 268.643807 183.223725 
L 269.658352 181.049325 
L 270.672898 191.921325 
L 271.687443 181.049325 
L 272.701989 191.921325 
L 273.716534 187.572525 
L 274.73108 181.049325 
L 275.745625 176.700525 
L 276.76017 183.223725 
L 277.774716 185.398125 
L 278.789261 198.444525 
L 279.803807 194.095725 
L 280.818352 185.398125 
L 281.832898 194.095725 
L 282.847443 194.095725 
L 283.861989 204.967725 
L 284.876534 194.095725 
L 285.89108 191.921325 
L 286.905625 207.142125 
L 287.92017 198.444525 
L 289.949261 189.746925 
L 290.963807 198.444525 
L 291.978352 200.618925 
L 292.992898 196.270125 
L 294.007443 209.316525 
L 295.021989 200.618925 
L 296.036534 189.746925 
L 297.05108 187.572525 
L 298.065625 196.270125 
L 299.08017 185.398125 
L 300.094716 200.618925 
L 301.109261 200.618925 
L 302.123807 211.490925 
L 303.138352 187.572525 
L 304.152898 196.270125 
L 305.167443 200.618925 
L 306.181989 211.490925 
L 307.196534 200.618925 
L 308.21108 211.490925 
L 309.225625 198.444525 
L 310.24017 204.967725 
L 311.254716 204.967725 
L 312.269261 191.921325 
L 313.283807 207.142125 
L 314.298352 207.142125 
L 315.312898 185.398125 
L 316.327443 207.142125 
L 317.341989 187.572525 
L 318.356534 196.270125 
L 320.385625 204.967725 
L 321.40017 204.967725 
L 322.414716 178.874925 
L 323.429261 191.921325 
L 324.443807 213.665325 
L 325.458352 200.618925 
L 326.472898 191.921325 
L 328.501989 204.967725 
L 329.516534 200.618925 
L 330.53108 202.793325 
L 331.545625 200.618925 
L 332.56017 209.316525 
L 333.574716 207.142125 
L 334.589261 209.316525 
L 335.603807 207.142125 
L 336.618352 200.618925 
L 337.632898 200.618925 
L 338.647443 185.398125 
L 339.661989 198.444525 
L 340.676534 215.839725 
L 341.69108 202.793325 
L 342.705625 202.793325 
L 343.72017 211.490925 
L 344.734716 207.142125 
L 345.749261 191.921325 
L 346.763807 200.618925 
L 347.778352 200.618925 
L 348.792898 213.665325 
L 349.807443 198.444525 
L 350.821989 198.444525 
L 350.821989 198.444525 
" style="fill:none;stroke:#1f77b4;stroke-linecap:square;stroke-width:1.5;"/>
   </g>
   <g id="line2d_14">
    <path clip-path="url(#pa8c9d7b16a)" d="M 147.912898 239.758125 
L 147.912898 22.318125 
" style="fill:none;stroke:#000000;stroke-dasharray:5.55,2.4;stroke-dashoffset:0;stroke-width:1.5;"/>
   </g>
   <g id="line2d_15">
    <path clip-path="url(#pa8c9d7b16a)" d="M 249.367443 239.758125 
L 249.367443 22.318125 
" style="fill:none;stroke:#000000;stroke-dasharray:5.55,2.4;stroke-dashoffset:0;stroke-width:1.5;"/>
   </g>
   <g id="patch_3">
    <path d="M 46.965625 239.758125 
L 46.965625 22.318125 
" style="fill:none;stroke:#000000;stroke-linecap:square;stroke-linejoin:miter;stroke-width:0.8;"/>
   </g>
   <g id="patch_4">
    <path d="M 46.965625 239.758125 
L 351.329261 239.758125 
" style="fill:none;stroke:#000000;stroke-linecap:square;stroke-linejoin:miter;stroke-width:0.8;"/>
   </g>
   <g id="text_15">
    <!-- Open Field -->
    <g transform="translate(167.363381 16.318125)scale(0.12 -0.12)">
     <defs>
      <path d="M 2522 4238 
Q 1834 4238 1429 3725 
Q 1025 3213 1025 2328 
Q 1025 1447 1429 934 
Q 1834 422 2522 422 
Q 3209 422 3611 934 
Q 4013 1447 4013 2328 
Q 4013 3213 3611 3725 
Q 3209 4238 2522 4238 
z
M 2522 4750 
Q 3503 4750 4090 4092 
Q 4678 3434 4678 2328 
Q 4678 1225 4090 567 
Q 3503 -91 2522 -91 
Q 1538 -91 948 565 
Q 359 1222 359 2328 
Q 359 3434 948 4092 
Q 1538 4750 2522 4750 
z
" id="DejaVuSans-4f" transform="scale(0.015625)"/>
      <path d="M 1159 525 
L 1159 -1331 
L 581 -1331 
L 581 3500 
L 1159 3500 
L 1159 2969 
Q 1341 3281 1617 3432 
Q 1894 3584 2278 3584 
Q 2916 3584 3314 3078 
Q 3713 2572 3713 1747 
Q 3713 922 3314 415 
Q 2916 -91 2278 -91 
Q 1894 -91 1617 61 
Q 1341 213 1159 525 
z
M 3116 1747 
Q 3116 2381 2855 2742 
Q 2594 3103 2138 3103 
Q 1681 3103 1420 2742 
Q 1159 2381 1159 1747 
Q 1159 1113 1420 752 
Q 1681 391 2138 391 
Q 2594 391 2855 752 
Q 3116 1113 3116 1747 
z
" id="DejaVuSans-70" transform="scale(0.015625)"/>
      <path d="M 3513 2113 
L 3513 0 
L 2938 0 
L 2938 2094 
Q 2938 2591 2744 2837 
Q 2550 3084 2163 3084 
Q 1697 3084 1428 2787 
Q 1159 2491 1159 1978 
L 1159 0 
L 581 0 
L 581 3500 
L 1159 3500 
L 1159 2956 
Q 1366 3272 1645 3428 
Q 1925 3584 2291 3584 
Q 2894 3584 3203 3211 
Q 3513 2838 3513 2113 
z
" id="DejaVuSans-6e" transform="scale(0.015625)"/>
      <path d="M 628 4666 
L 3309 4666 
L 3309 4134 
L 1259 4134 
L 1259 2759 
L 3109 2759 
L 3109 2228 
L 1259 2228 
L 1259 0 
L 628 0 
L 628 4666 
z
" id="DejaVuSans-46" transform="scale(0.015625)"/>
     </defs>
     <use xlink:href="#DejaVuSans-4f"/>
     <use x="78.710938" xlink:href="#DejaVuSans-70"/>
     <use x="142.1875" xlink:href="#DejaVuSans-65"/>
     <use x="203.710938" xlink:href="#DejaVuSans-6e"/>
     <use x="267.089844" xlink:href="#DejaVuSans-20"/>
     <use x="298.876953" xlink:href="#DejaVuSans-46"/>
     <use x="349.146484" xlink:href="#DejaVuSans-69"/>
     <use x="376.929688" xlink:href="#DejaVuSans-65"/>
     <use x="438.453125" xlink:href="#DejaVuSans-6c"/>
     <use x="466.236328" xlink:href="#DejaVuSans-64"/>
    </g>
   </g>
  </g>
  <g id="axes_2">
   <g id="patch_5">
    <path d="M 412.201989 239.758125 
L 716.565625 239.758125 
L 716.565625 22.318125 
L 412.201989 22.318125 
z
" style="fill:none;"/>
   </g>
   <g id="matplotlib.axis_3">
    <g id="xtick_7">
     <g id="line2d_16">
      <g>
       <use style="stroke:#000000;stroke-width:0.8;" x="462.421989" xlink:href="#m6541229d26" y="239.758125"/>
      </g>
     </g>
     <g id="text_16">
      <!-- 50 -->
      <g transform="translate(456.059489 254.356562)scale(0.1 -0.1)">
       <use xlink:href="#DejaVuSans-35"/>
       <use x="63.623047" xlink:href="#DejaVuSans-30"/>
      </g>
     </g>
    </g>
    <g id="xtick_8">
     <g id="line2d_17">
      <g>
       <use style="stroke:#000000;stroke-width:0.8;" x="513.149261" xlink:href="#m6541229d26" y="239.758125"/>
      </g>
     </g>
     <g id="text_17">
      <!-- 100 -->
      <g transform="translate(503.605511 254.356562)scale(0.1 -0.1)">
       <use xlink:href="#DejaVuSans-31"/>
       <use x="63.623047" xlink:href="#DejaVuSans-30"/>
       <use x="127.246094" xlink:href="#DejaVuSans-30"/>
      </g>
     </g>
    </g>
    <g id="xtick_9">
     <g id="line2d_18">
      <g>
       <use style="stroke:#000000;stroke-width:0.8;" x="563.876534" xlink:href="#m6541229d26" y="239.758125"/>
      </g>
     </g>
     <g id="text_18">
      <!-- 150 -->
      <g transform="translate(554.332784 254.356562)scale(0.1 -0.1)">
       <use xlink:href="#DejaVuSans-31"/>
       <use x="63.623047" xlink:href="#DejaVuSans-35"/>
       <use x="127.246094" xlink:href="#DejaVuSans-30"/>
      </g>
     </g>
    </g>
    <g id="xtick_10">
     <g id="line2d_19">
      <g>
       <use style="stroke:#000000;stroke-width:0.8;" x="614.603807" xlink:href="#m6541229d26" y="239.758125"/>
      </g>
     </g>
     <g id="text_19">
      <!-- 200 -->
      <g transform="translate(605.060057 254.356562)scale(0.1 -0.1)">
       <use xlink:href="#DejaVuSans-32"/>
       <use x="63.623047" xlink:href="#DejaVuSans-30"/>
       <use x="127.246094" xlink:href="#DejaVuSans-30"/>
      </g>
     </g>
    </g>
    <g id="xtick_11">
     <g id="line2d_20">
      <g>
       <use style="stroke:#000000;stroke-width:0.8;" x="665.33108" xlink:href="#m6541229d26" y="239.758125"/>
      </g>
     </g>
     <g id="text_20">
      <!-- 250 -->
      <g transform="translate(655.78733 254.356562)scale(0.1 -0.1)">
       <use xlink:href="#DejaVuSans-32"/>
       <use x="63.623047" xlink:href="#DejaVuSans-35"/>
       <use x="127.246094" xlink:href="#DejaVuSans-30"/>
      </g>
     </g>
    </g>
    <g id="xtick_12">
     <g id="line2d_21">
      <g>
       <use style="stroke:#000000;stroke-width:0.8;" x="716.058352" xlink:href="#m6541229d26" y="239.758125"/>
      </g>
     </g>
     <g id="text_21">
      <!-- 300 -->
      <g transform="translate(706.514602 254.356562)scale(0.1 -0.1)">
       <use xlink:href="#DejaVuSans-33"/>
       <use x="63.623047" xlink:href="#DejaVuSans-30"/>
       <use x="127.246094" xlink:href="#DejaVuSans-30"/>
      </g>
     </g>
    </g>
    <g id="text_22">
     <!-- Trial -->
     <g transform="translate(554.169744 268.034687)scale(0.1 -0.1)">
      <use xlink:href="#DejaVuSans-54"/>
      <use x="46.333984" xlink:href="#DejaVuSans-72"/>
      <use x="87.447266" xlink:href="#DejaVuSans-69"/>
      <use x="115.230469" xlink:href="#DejaVuSans-61"/>
      <use x="176.509766" xlink:href="#DejaVuSans-6c"/>
     </g>
    </g>
   </g>
   <g id="matplotlib.axis_4">
    <g id="ytick_7">
     <g id="line2d_22">
      <g>
       <use style="stroke:#000000;stroke-width:0.8;" x="412.201989" xlink:href="#m13b4476977" y="239.758125"/>
      </g>
     </g>
     <g id="text_23">
      <!-- 0 -->
      <g transform="translate(398.839489 243.557344)scale(0.1 -0.1)">
       <use xlink:href="#DejaVuSans-30"/>
      </g>
     </g>
    </g>
    <g id="ytick_8">
     <g id="line2d_23">
      <g>
       <use style="stroke:#000000;stroke-width:0.8;" x="412.201989" xlink:href="#m13b4476977" y="196.270125"/>
      </g>
     </g>
     <g id="text_24">
      <!-- 20 -->
      <g transform="translate(392.476989 200.069344)scale(0.1 -0.1)">
       <use xlink:href="#DejaVuSans-32"/>
       <use x="63.623047" xlink:href="#DejaVuSans-30"/>
      </g>
     </g>
    </g>
    <g id="ytick_9">
     <g id="line2d_24">
      <g>
       <use style="stroke:#000000;stroke-width:0.8;" x="412.201989" xlink:href="#m13b4476977" y="152.782125"/>
      </g>
     </g>
     <g id="text_25">
      <!-- 40 -->
      <g transform="translate(392.476989 156.581344)scale(0.1 -0.1)">
       <use xlink:href="#DejaVuSans-34"/>
       <use x="63.623047" xlink:href="#DejaVuSans-30"/>
      </g>
     </g>
    </g>
    <g id="ytick_10">
     <g id="line2d_25">
      <g>
       <use style="stroke:#000000;stroke-width:0.8;" x="412.201989" xlink:href="#m13b4476977" y="109.294125"/>
      </g>
     </g>
     <g id="text_26">
      <!-- 60 -->
      <g transform="translate(392.476989 113.093344)scale(0.1 -0.1)">
       <use xlink:href="#DejaVuSans-36"/>
       <use x="63.623047" xlink:href="#DejaVuSans-30"/>
      </g>
     </g>
    </g>
    <g id="ytick_11">
     <g id="line2d_26">
      <g>
       <use style="stroke:#000000;stroke-width:0.8;" x="412.201989" xlink:href="#m13b4476977" y="65.806125"/>
      </g>
     </g>
     <g id="text_27">
      <!-- 80 -->
      <g transform="translate(392.476989 69.605344)scale(0.1 -0.1)">
       <use xlink:href="#DejaVuSans-38"/>
       <use x="63.623047" xlink:href="#DejaVuSans-30"/>
      </g>
     </g>
    </g>
    <g id="ytick_12">
     <g id="line2d_27">
      <g>
       <use style="stroke:#000000;stroke-width:0.8;" x="412.201989" xlink:href="#m13b4476977" y="22.318125"/>
      </g>
     </g>
     <g id="text_28">
      <!-- 100 -->
      <g transform="translate(386.114489 26.117344)scale(0.1 -0.1)">
       <use xlink:href="#DejaVuSans-31"/>
       <use x="63.623047" xlink:href="#DejaVuSans-30"/>
       <use x="127.246094" xlink:href="#DejaVuSans-30"/>
      </g>
     </g>
    </g>
    <g id="text_29">
     <!-- Reverse Mode [%] -->
     <g transform="translate(380.034801 176.59125)rotate(-90)scale(0.1 -0.1)">
      <use xlink:href="#DejaVuSans-52"/>
      <use x="64.982422" xlink:href="#DejaVuSans-65"/>
      <use x="126.505859" xlink:href="#DejaVuSans-76"/>
      <use x="185.685547" xlink:href="#DejaVuSans-65"/>
      <use x="247.208984" xlink:href="#DejaVuSans-72"/>
      <use x="288.322266" xlink:href="#DejaVuSans-73"/>
      <use x="340.421875" xlink:href="#DejaVuSans-65"/>
      <use x="401.945312" xlink:href="#DejaVuSans-20"/>
      <use x="433.732422" xlink:href="#DejaVuSans-4d"/>
      <use x="520.011719" xlink:href="#DejaVuSans-6f"/>
      <use x="581.193359" xlink:href="#DejaVuSans-64"/>
      <use x="644.669922" xlink:href="#DejaVuSans-65"/>
      <use x="706.193359" xlink:href="#DejaVuSans-20"/>
      <use x="737.980469" xlink:href="#DejaVuSans-5b"/>
      <use x="776.994141" xlink:href="#DejaVuSans-25"/>
      <use x="872.013672" xlink:href="#DejaVuSans-5d"/>
     </g>
    </g>
   </g>
   <g id="line2d_28">
    <path clip-path="url(#p735bc95da0)" d="M 412.709261 126.689325 
L 413.723807 81.026925 
L 414.738352 63.631725 
L 415.752898 48.410925 
L 416.767443 87.550125 
L 417.781989 109.294125 
L 419.81108 165.828525 
L 420.825625 159.305325 
L 421.84017 165.828525 
L 422.854716 174.526125 
L 423.869261 174.526125 
L 425.898352 196.270125 
L 426.912898 189.746925 
L 427.927443 196.270125 
L 428.941989 185.398125 
L 429.956534 191.921325 
L 430.97108 189.746925 
L 431.985625 189.746925 
L 433.00017 194.095725 
L 434.014716 202.793325 
L 435.029261 200.618925 
L 436.043807 189.746925 
L 437.058352 185.398125 
L 438.072898 204.967725 
L 439.087443 189.746925 
L 440.101989 200.618925 
L 441.116534 196.270125 
L 443.145625 191.921325 
L 444.16017 207.142125 
L 445.174716 191.921325 
L 446.189261 191.921325 
L 447.203807 207.142125 
L 448.218352 209.316525 
L 449.232898 198.444525 
L 450.247443 211.490925 
L 451.261989 194.095725 
L 452.276534 198.444525 
L 453.29108 200.618925 
L 454.305625 213.665325 
L 455.32017 194.095725 
L 456.334716 211.490925 
L 457.349261 218.014125 
L 458.363807 220.188525 
L 459.378352 211.490925 
L 460.392898 209.316525 
L 461.407443 209.316525 
L 462.421989 198.444525 
L 463.436534 204.967725 
L 464.45108 215.839725 
L 465.465625 207.142125 
L 466.48017 204.967725 
L 467.494716 218.014125 
L 468.509261 204.967725 
L 469.523807 211.490925 
L 470.538352 215.839725 
L 471.552898 209.316525 
L 473.581989 200.618925 
L 474.596534 222.362925 
L 475.61108 209.316525 
L 476.625625 218.014125 
L 477.64017 209.316525 
L 478.654716 202.793325 
L 479.669261 209.316525 
L 480.683807 194.095725 
L 481.698352 194.095725 
L 482.712898 213.665325 
L 483.727443 209.316525 
L 484.741989 207.142125 
L 485.756534 218.014125 
L 486.77108 207.142125 
L 487.785625 189.746925 
L 488.80017 207.142125 
L 489.814716 207.142125 
L 491.843807 220.188525 
L 492.858352 196.270125 
L 493.872898 222.362925 
L 494.887443 218.014125 
L 495.901989 202.793325 
L 496.916534 209.316525 
L 497.93108 204.967725 
L 498.945625 224.537325 
L 499.96017 215.839725 
L 500.974716 213.665325 
L 501.989261 220.188525 
L 504.018352 211.490925 
L 505.032898 215.839725 
L 506.047443 202.793325 
L 507.061989 211.490925 
L 508.076534 218.014125 
L 509.09108 209.316525 
L 510.105625 215.839725 
L 511.12017 213.665325 
L 512.134716 215.839725 
L 513.149261 224.537325 
L 514.163807 209.316525 
L 515.178352 202.793325 
L 516.192898 96.247725 
L 517.207443 168.002925 
L 518.221989 194.095725 
L 519.236534 204.967725 
L 520.25108 220.188525 
L 521.265625 202.793325 
L 522.28017 215.839725 
L 523.294716 211.490925 
L 524.309261 209.316525 
L 525.323807 211.490925 
L 526.338352 209.316525 
L 527.352898 209.316525 
L 528.367443 211.490925 
L 529.381989 218.014125 
L 530.396534 207.142125 
L 531.41108 200.618925 
L 532.425625 191.921325 
L 533.44017 213.665325 
L 534.454716 207.142125 
L 535.469261 213.665325 
L 536.483807 224.537325 
L 537.498352 228.886125 
L 538.512898 207.142125 
L 539.527443 226.711725 
L 540.541989 202.793325 
L 541.556534 211.490925 
L 542.57108 215.839725 
L 543.585625 215.839725 
L 544.60017 218.014125 
L 545.614716 207.142125 
L 546.629261 211.490925 
L 547.643807 213.665325 
L 548.658352 224.537325 
L 549.672898 218.014125 
L 550.687443 213.665325 
L 551.701989 222.362925 
L 552.716534 215.839725 
L 553.73108 213.665325 
L 554.745625 207.142125 
L 555.76017 224.537325 
L 556.774716 209.316525 
L 557.789261 200.618925 
L 558.803807 213.665325 
L 559.818352 218.014125 
L 560.832898 211.490925 
L 561.847443 209.316525 
L 562.861989 218.014125 
L 563.876534 218.014125 
L 564.89108 213.665325 
L 565.905625 211.490925 
L 566.92017 220.188525 
L 567.934716 209.316525 
L 568.949261 213.665325 
L 569.963807 213.665325 
L 571.992898 204.967725 
L 573.007443 215.839725 
L 574.021989 213.665325 
L 575.036534 200.618925 
L 577.065625 218.014125 
L 578.08017 204.967725 
L 579.094716 222.362925 
L 580.109261 211.490925 
L 581.123807 220.188525 
L 582.138352 204.967725 
L 583.152898 196.270125 
L 584.167443 215.839725 
L 585.181989 213.665325 
L 586.196534 218.014125 
L 587.21108 218.014125 
L 588.225625 207.142125 
L 590.254716 220.188525 
L 591.269261 213.665325 
L 592.283807 211.490925 
L 593.298352 211.490925 
L 594.312898 224.537325 
L 595.327443 215.839725 
L 596.341989 211.490925 
L 597.356534 211.490925 
L 598.37108 204.967725 
L 599.385625 209.316525 
L 600.40017 204.967725 
L 601.414716 202.793325 
L 602.429261 207.142125 
L 603.443807 226.711725 
L 604.458352 209.316525 
L 605.472898 215.839725 
L 606.487443 213.665325 
L 607.501989 224.537325 
L 608.516534 218.014125 
L 609.53108 218.014125 
L 610.545625 215.839725 
L 611.56017 202.793325 
L 612.574716 222.362925 
L 613.589261 226.711725 
L 614.603807 211.490925 
L 615.618352 209.316525 
L 616.632898 183.223725 
L 617.647443 85.375725 
L 618.661989 122.340525 
L 619.676534 170.177325 
L 620.69108 189.746925 
L 621.705625 194.095725 
L 622.72017 204.967725 
L 623.734716 222.362925 
L 624.749261 218.014125 
L 625.763807 222.362925 
L 626.778352 204.967725 
L 627.792898 209.316525 
L 629.821989 213.665325 
L 630.836534 218.014125 
L 631.85108 202.793325 
L 632.865625 211.490925 
L 633.88017 213.665325 
L 634.894716 202.793325 
L 635.909261 231.060525 
L 636.923807 207.142125 
L 637.938352 222.362925 
L 638.952898 218.014125 
L 639.967443 209.316525 
L 640.981989 218.014125 
L 641.996534 202.793325 
L 643.01108 211.490925 
L 644.025625 218.014125 
L 645.04017 200.618925 
L 646.054716 204.967725 
L 647.069261 213.665325 
L 648.083807 220.188525 
L 649.098352 228.886125 
L 650.112898 215.839725 
L 651.127443 200.618925 
L 652.141989 211.490925 
L 653.156534 215.839725 
L 654.17108 213.665325 
L 655.185625 220.188525 
L 656.20017 211.490925 
L 657.214716 220.188525 
L 658.229261 196.270125 
L 659.243807 218.014125 
L 660.258352 218.014125 
L 661.272898 220.188525 
L 662.287443 209.316525 
L 663.301989 213.665325 
L 664.316534 200.618925 
L 665.33108 220.188525 
L 666.345625 209.316525 
L 667.36017 209.316525 
L 668.374716 207.142125 
L 669.389261 207.142125 
L 670.403807 226.711725 
L 671.418352 218.014125 
L 672.432898 204.967725 
L 673.447443 211.490925 
L 674.461989 211.490925 
L 675.476534 215.839725 
L 678.52017 215.839725 
L 679.534716 213.665325 
L 681.563807 196.270125 
L 682.578352 198.444525 
L 683.592898 207.142125 
L 684.607443 222.362925 
L 685.621989 220.188525 
L 686.636534 213.665325 
L 687.65108 211.490925 
L 688.665625 215.839725 
L 689.68017 218.014125 
L 690.694716 222.362925 
L 691.709261 207.142125 
L 692.723807 218.014125 
L 693.738352 213.665325 
L 694.752898 226.711725 
L 695.767443 209.316525 
L 696.781989 209.316525 
L 697.796534 215.839725 
L 698.81108 220.188525 
L 699.825625 194.095725 
L 701.854716 215.839725 
L 702.869261 220.188525 
L 703.883807 226.711725 
L 704.898352 209.316525 
L 705.912898 215.839725 
L 706.927443 224.537325 
L 707.941989 215.839725 
L 708.956534 204.967725 
L 709.97108 202.793325 
L 710.985625 202.793325 
L 712.00017 215.839725 
L 713.014716 215.839725 
L 714.029261 222.362925 
L 715.043807 211.490925 
L 716.058352 211.490925 
L 716.058352 211.490925 
" style="fill:none;stroke:#1f77b4;stroke-linecap:square;stroke-width:1.5;"/>
   </g>
   <g id="line2d_29">
    <path clip-path="url(#p735bc95da0)" d="M 513.149261 239.758125 
L 513.149261 22.318125 
" style="fill:none;stroke:#000000;stroke-dasharray:5.55,2.4;stroke-dashoffset:0;stroke-width:1.5;"/>
   </g>
   <g id="line2d_30">
    <path clip-path="url(#p735bc95da0)" d="M 614.603807 239.758125 
L 614.603807 22.318125 
" style="fill:none;stroke:#000000;stroke-dasharray:5.55,2.4;stroke-dashoffset:0;stroke-width:1.5;"/>
   </g>
   <g id="patch_6">
    <path d="M 412.201989 239.758125 
L 412.201989 22.318125 
" style="fill:none;stroke:#000000;stroke-linecap:square;stroke-linejoin:miter;stroke-width:0.8;"/>
   </g>
   <g id="patch_7">
    <path d="M 412.201989 239.758125 
L 716.565625 239.758125 
" style="fill:none;stroke:#000000;stroke-linecap:square;stroke-linejoin:miter;stroke-width:0.8;"/>
   </g>
   <g id="text_30">
    <!-- T-Maze -->
    <g transform="translate(543.407244 16.318125)scale(0.12 -0.12)">
     <defs>
      <path d="M 313 2009 
L 1997 2009 
L 1997 1497 
L 313 1497 
L 313 2009 
z
" id="DejaVuSans-2d" transform="scale(0.015625)"/>
      <path d="M 353 3500 
L 3084 3500 
L 3084 2975 
L 922 459 
L 3084 459 
L 3084 0 
L 275 0 
L 275 525 
L 2438 3041 
L 353 3041 
L 353 3500 
z
" id="DejaVuSans-7a" transform="scale(0.015625)"/>
     </defs>
     <use xlink:href="#DejaVuSans-54"/>
     <use x="51.958984" xlink:href="#DejaVuSans-2d"/>
     <use x="88.042969" xlink:href="#DejaVuSans-4d"/>
     <use x="174.322266" xlink:href="#DejaVuSans-61"/>
     <use x="235.601562" xlink:href="#DejaVuSans-7a"/>
     <use x="288.091797" xlink:href="#DejaVuSans-65"/>
    </g>
   </g>
  </g>
 </g>
 <defs>
  <clipPath id="pa8c9d7b16a">
   <rect height="217.44" width="304.363636" x="46.965625" y="22.318125"/>
  </clipPath>
  <clipPath id="p735bc95da0">
   <rect height="217.44" width="304.363636" x="412.201989" y="22.318125"/>
  </clipPath>
 </defs>
</svg>
