<?xml version="1.0" encoding="utf-8" standalone="no"?>
<!DOCTYPE svg PUBLIC "-//W3C//DTD SVG 1.1//EN"
  "http://www.w3.org/Graphics/SVG/1.1/DTD/svg11.dtd">
<svg height="341.082321pt" version="1.1" viewBox="0 0 405.384062 341.082321" width="405.384062pt" xmlns="http://www.w3.org/2000/svg" xmlns:xlink="http://www.w3.org/1999/xlink">
 <metadata>
  <rdf:RDF xmlns:cc="http://creativecommons.org/ns#" xmlns:dc="http://purl.org/dc/elements/1.1/" xmlns:rdf="http://www.w3.org/1999/02/22-rdf-syntax-ns#">
   <cc:Work>
    <dc:type rdf:resource="http://purl.org/dc/dcmitype/StillImage"/>
    <dc:date>2023-01-28T03:51:36.324282</dc:date>
    <dc:format>image/svg+xml</dc:format>
    <dc:creator>
     <cc:Agent>
      <dc:title>Matplotlib v3.4.3, https://matplotlib.org/</dc:title>
     </cc:Agent>
    </dc:creator>
   </cc:Work>
  </rdf:RDF>
 </metadata>
 <defs>
  <style type="text/css">*{stroke-linecap:butt;stroke-linejoin:round;}</style>
 </defs>
 <g id="figure_1">
  <g id="patch_1">
   <path d="M 0 341.082321 
L 405.384062 341.082321 
L 405.384062 0 
L 0 0 
z
" style="fill:none;"/>
  </g>
  <g id="axes_1">
   <g id="patch_2">
    <path d="M 53.840313 128.057143 
L 388.640312 128.057143 
L 388.640312 50.4 
L 53.840313 50.4 
z
" style="fill:none;"/>
   </g>
   <g id="line2d_1">
    <path clip-path="url(#pbed6631650)" d="M 53.840313 89.228571 
L 388.640312 89.228571 
" style="fill:none;stroke:#808080;stroke-linecap:square;stroke-width:1.5;"/>
   </g>
   <g id="matplotlib.axis_1">
    <g id="xtick_1">
     <g id="line2d_2">
      <defs>
       <path d="M 0 0 
L 0 3.5 
" id="m149e3de2fd" style="stroke:#000000;stroke-width:0.8;"/>
      </defs>
      <g>
       <use style="stroke:#000000;stroke-width:0.8;" x="94.218202" xlink:href="#m149e3de2fd" y="128.057143"/>
      </g>
     </g>
     <g id="text_1">
      <!-- 25 -->
      <g transform="translate(87.855702 142.65558)scale(0.1 -0.1)">
       <defs>
        <path d="M 1228 531 
L 3431 531 
L 3431 0 
L 469 0 
L 469 531 
Q 828 903 1448 1529 
Q 2069 2156 2228 2338 
Q 2531 2678 2651 2914 
Q 2772 3150 2772 3378 
Q 2772 3750 2511 3984 
Q 2250 4219 1831 4219 
Q 1534 4219 1204 4116 
Q 875 4013 500 3803 
L 500 4441 
Q 881 4594 1212 4672 
Q 1544 4750 1819 4750 
Q 2544 4750 2975 4387 
Q 3406 4025 3406 3419 
Q 3406 3131 3298 2873 
Q 3191 2616 2906 2266 
Q 2828 2175 2409 1742 
Q 1991 1309 1228 531 
z
" id="DejaVuSans-32" transform="scale(0.015625)"/>
        <path d="M 691 4666 
L 3169 4666 
L 3169 4134 
L 1269 4134 
L 1269 2991 
Q 1406 3038 1543 3061 
Q 1681 3084 1819 3084 
Q 2600 3084 3056 2656 
Q 3513 2228 3513 1497 
Q 3513 744 3044 326 
Q 2575 -91 1722 -91 
Q 1428 -91 1123 -41 
Q 819 9 494 109 
L 494 744 
Q 775 591 1075 516 
Q 1375 441 1709 441 
Q 2250 441 2565 725 
Q 2881 1009 2881 1497 
Q 2881 1984 2565 2268 
Q 2250 2553 1709 2553 
Q 1456 2553 1204 2497 
Q 953 2441 691 2322 
L 691 4666 
z
" id="DejaVuSans-35" transform="scale(0.015625)"/>
       </defs>
       <use xlink:href="#DejaVuSans-32"/>
       <use x="63.623047" xlink:href="#DejaVuSans-35"/>
      </g>
     </g>
    </g>
    <g id="xtick_2">
     <g id="line2d_3">
      <g>
       <use style="stroke:#000000;stroke-width:0.8;" x="136.278503" xlink:href="#m149e3de2fd" y="128.057143"/>
      </g>
     </g>
     <g id="text_2">
      <!-- 50 -->
      <g transform="translate(129.916003 142.65558)scale(0.1 -0.1)">
       <defs>
        <path d="M 2034 4250 
Q 1547 4250 1301 3770 
Q 1056 3291 1056 2328 
Q 1056 1369 1301 889 
Q 1547 409 2034 409 
Q 2525 409 2770 889 
Q 3016 1369 3016 2328 
Q 3016 3291 2770 3770 
Q 2525 4250 2034 4250 
z
M 2034 4750 
Q 2819 4750 3233 4129 
Q 3647 3509 3647 2328 
Q 3647 1150 3233 529 
Q 2819 -91 2034 -91 
Q 1250 -91 836 529 
Q 422 1150 422 2328 
Q 422 3509 836 4129 
Q 1250 4750 2034 4750 
z
" id="DejaVuSans-30" transform="scale(0.015625)"/>
       </defs>
       <use xlink:href="#DejaVuSans-35"/>
       <use x="63.623047" xlink:href="#DejaVuSans-30"/>
      </g>
     </g>
    </g>
    <g id="xtick_3">
     <g id="line2d_4">
      <g>
       <use style="stroke:#000000;stroke-width:0.8;" x="178.338805" xlink:href="#m149e3de2fd" y="128.057143"/>
      </g>
     </g>
     <g id="text_3">
      <!-- 75 -->
      <g transform="translate(171.976305 142.65558)scale(0.1 -0.1)">
       <defs>
        <path d="M 525 4666 
L 3525 4666 
L 3525 4397 
L 1831 0 
L 1172 0 
L 2766 4134 
L 525 4134 
L 525 4666 
z
" id="DejaVuSans-37" transform="scale(0.015625)"/>
       </defs>
       <use xlink:href="#DejaVuSans-37"/>
       <use x="63.623047" xlink:href="#DejaVuSans-35"/>
      </g>
     </g>
    </g>
    <g id="xtick_4">
     <g id="line2d_5">
      <g>
       <use style="stroke:#000000;stroke-width:0.8;" x="220.399106" xlink:href="#m149e3de2fd" y="128.057143"/>
      </g>
     </g>
     <g id="text_4">
      <!-- 100 -->
      <g transform="translate(210.855356 142.65558)scale(0.1 -0.1)">
       <defs>
        <path d="M 794 531 
L 1825 531 
L 1825 4091 
L 703 3866 
L 703 4441 
L 1819 4666 
L 2450 4666 
L 2450 531 
L 3481 531 
L 3481 0 
L 794 0 
L 794 531 
z
" id="DejaVuSans-31" transform="scale(0.015625)"/>
       </defs>
       <use xlink:href="#DejaVuSans-31"/>
       <use x="63.623047" xlink:href="#DejaVuSans-30"/>
       <use x="127.246094" xlink:href="#DejaVuSans-30"/>
      </g>
     </g>
    </g>
    <g id="xtick_5">
     <g id="line2d_6">
      <g>
       <use style="stroke:#000000;stroke-width:0.8;" x="262.459408" xlink:href="#m149e3de2fd" y="128.057143"/>
      </g>
     </g>
     <g id="text_5">
      <!-- 125 -->
      <g transform="translate(252.915658 142.65558)scale(0.1 -0.1)">
       <use xlink:href="#DejaVuSans-31"/>
       <use x="63.623047" xlink:href="#DejaVuSans-32"/>
       <use x="127.246094" xlink:href="#DejaVuSans-35"/>
      </g>
     </g>
    </g>
    <g id="xtick_6">
     <g id="line2d_7">
      <g>
       <use style="stroke:#000000;stroke-width:0.8;" x="304.519709" xlink:href="#m149e3de2fd" y="128.057143"/>
      </g>
     </g>
     <g id="text_6">
      <!-- 150 -->
      <g transform="translate(294.975959 142.65558)scale(0.1 -0.1)">
       <use xlink:href="#DejaVuSans-31"/>
       <use x="63.623047" xlink:href="#DejaVuSans-35"/>
       <use x="127.246094" xlink:href="#DejaVuSans-30"/>
      </g>
     </g>
    </g>
    <g id="xtick_7">
     <g id="line2d_8">
      <g>
       <use style="stroke:#000000;stroke-width:0.8;" x="346.580011" xlink:href="#m149e3de2fd" y="128.057143"/>
      </g>
     </g>
     <g id="text_7">
      <!-- 175 -->
      <g transform="translate(337.036261 142.65558)scale(0.1 -0.1)">
       <use xlink:href="#DejaVuSans-31"/>
       <use x="63.623047" xlink:href="#DejaVuSans-37"/>
       <use x="127.246094" xlink:href="#DejaVuSans-35"/>
      </g>
     </g>
    </g>
    <g id="xtick_8">
     <g id="line2d_9">
      <g>
       <use style="stroke:#000000;stroke-width:0.8;" x="388.640312" xlink:href="#m149e3de2fd" y="128.057143"/>
      </g>
     </g>
     <g id="text_8">
      <!-- 200 -->
      <g transform="translate(379.096563 142.65558)scale(0.1 -0.1)">
       <use xlink:href="#DejaVuSans-32"/>
       <use x="63.623047" xlink:href="#DejaVuSans-30"/>
       <use x="127.246094" xlink:href="#DejaVuSans-30"/>
      </g>
     </g>
    </g>
    <g id="text_9">
     <!-- Trial -->
     <g transform="translate(211.02625 156.333705)scale(0.1 -0.1)">
      <defs>
       <path d="M -19 4666 
L 3928 4666 
L 3928 4134 
L 2272 4134 
L 2272 0 
L 1638 0 
L 1638 4134 
L -19 4134 
L -19 4666 
z
" id="DejaVuSans-54" transform="scale(0.015625)"/>
       <path d="M 2631 2963 
Q 2534 3019 2420 3045 
Q 2306 3072 2169 3072 
Q 1681 3072 1420 2755 
Q 1159 2438 1159 1844 
L 1159 0 
L 581 0 
L 581 3500 
L 1159 3500 
L 1159 2956 
Q 1341 3275 1631 3429 
Q 1922 3584 2338 3584 
Q 2397 3584 2469 3576 
Q 2541 3569 2628 3553 
L 2631 2963 
z
" id="DejaVuSans-72" transform="scale(0.015625)"/>
       <path d="M 603 3500 
L 1178 3500 
L 1178 0 
L 603 0 
L 603 3500 
z
M 603 4863 
L 1178 4863 
L 1178 4134 
L 603 4134 
L 603 4863 
z
" id="DejaVuSans-69" transform="scale(0.015625)"/>
       <path d="M 2194 1759 
Q 1497 1759 1228 1600 
Q 959 1441 959 1056 
Q 959 750 1161 570 
Q 1363 391 1709 391 
Q 2188 391 2477 730 
Q 2766 1069 2766 1631 
L 2766 1759 
L 2194 1759 
z
M 3341 1997 
L 3341 0 
L 2766 0 
L 2766 531 
Q 2569 213 2275 61 
Q 1981 -91 1556 -91 
Q 1019 -91 701 211 
Q 384 513 384 1019 
Q 384 1609 779 1909 
Q 1175 2209 1959 2209 
L 2766 2209 
L 2766 2266 
Q 2766 2663 2505 2880 
Q 2244 3097 1772 3097 
Q 1472 3097 1187 3025 
Q 903 2953 641 2809 
L 641 3341 
Q 956 3463 1253 3523 
Q 1550 3584 1831 3584 
Q 2591 3584 2966 3190 
Q 3341 2797 3341 1997 
z
" id="DejaVuSans-61" transform="scale(0.015625)"/>
       <path d="M 603 4863 
L 1178 4863 
L 1178 0 
L 603 0 
L 603 4863 
z
" id="DejaVuSans-6c" transform="scale(0.015625)"/>
      </defs>
      <use xlink:href="#DejaVuSans-54"/>
      <use x="46.333984" xlink:href="#DejaVuSans-72"/>
      <use x="87.447266" xlink:href="#DejaVuSans-69"/>
      <use x="115.230469" xlink:href="#DejaVuSans-61"/>
      <use x="176.509766" xlink:href="#DejaVuSans-6c"/>
     </g>
    </g>
   </g>
   <g id="matplotlib.axis_2">
    <g id="ytick_1">
     <g id="line2d_10">
      <defs>
       <path d="M 0 0 
L -3.5 0 
" id="mda83be068f" style="stroke:#000000;stroke-width:0.8;"/>
      </defs>
      <g>
       <use style="stroke:#000000;stroke-width:0.8;" x="53.840313" xlink:href="#mda83be068f" y="109.772789"/>
      </g>
     </g>
     <g id="text_10">
      <!-- −5 -->
      <g transform="translate(32.098125 113.572008)scale(0.1 -0.1)">
       <defs>
        <path d="M 678 2272 
L 4684 2272 
L 4684 1741 
L 678 1741 
L 678 2272 
z
" id="DejaVuSans-2212" transform="scale(0.015625)"/>
       </defs>
       <use xlink:href="#DejaVuSans-2212"/>
       <use x="83.789062" xlink:href="#DejaVuSans-35"/>
      </g>
     </g>
    </g>
    <g id="ytick_2">
     <g id="line2d_11">
      <g>
       <use style="stroke:#000000;stroke-width:0.8;" x="53.840313" xlink:href="#mda83be068f" y="89.228571"/>
      </g>
     </g>
     <g id="text_11">
      <!-- 0 -->
      <g transform="translate(40.477813 93.02779)scale(0.1 -0.1)">
       <use xlink:href="#DejaVuSans-30"/>
      </g>
     </g>
    </g>
    <g id="ytick_3">
     <g id="line2d_12">
      <g>
       <use style="stroke:#000000;stroke-width:0.8;" x="53.840313" xlink:href="#mda83be068f" y="68.684354"/>
      </g>
     </g>
     <g id="text_12">
      <!-- 5 -->
      <g transform="translate(40.477813 72.483572)scale(0.1 -0.1)">
       <use xlink:href="#DejaVuSans-35"/>
      </g>
     </g>
    </g>
    <g id="text_13">
     <!-- Directionality -->
     <g transform="translate(14.798438 122.575446)rotate(-90)scale(0.1 -0.1)">
      <defs>
       <path d="M 1259 4147 
L 1259 519 
L 2022 519 
Q 2988 519 3436 956 
Q 3884 1394 3884 2338 
Q 3884 3275 3436 3711 
Q 2988 4147 2022 4147 
L 1259 4147 
z
M 628 4666 
L 1925 4666 
Q 3281 4666 3915 4102 
Q 4550 3538 4550 2338 
Q 4550 1131 3912 565 
Q 3275 0 1925 0 
L 628 0 
L 628 4666 
z
" id="DejaVuSans-44" transform="scale(0.015625)"/>
       <path d="M 3597 1894 
L 3597 1613 
L 953 1613 
Q 991 1019 1311 708 
Q 1631 397 2203 397 
Q 2534 397 2845 478 
Q 3156 559 3463 722 
L 3463 178 
Q 3153 47 2828 -22 
Q 2503 -91 2169 -91 
Q 1331 -91 842 396 
Q 353 884 353 1716 
Q 353 2575 817 3079 
Q 1281 3584 2069 3584 
Q 2775 3584 3186 3129 
Q 3597 2675 3597 1894 
z
M 3022 2063 
Q 3016 2534 2758 2815 
Q 2500 3097 2075 3097 
Q 1594 3097 1305 2825 
Q 1016 2553 972 2059 
L 3022 2063 
z
" id="DejaVuSans-65" transform="scale(0.015625)"/>
       <path d="M 3122 3366 
L 3122 2828 
Q 2878 2963 2633 3030 
Q 2388 3097 2138 3097 
Q 1578 3097 1268 2742 
Q 959 2388 959 1747 
Q 959 1106 1268 751 
Q 1578 397 2138 397 
Q 2388 397 2633 464 
Q 2878 531 3122 666 
L 3122 134 
Q 2881 22 2623 -34 
Q 2366 -91 2075 -91 
Q 1284 -91 818 406 
Q 353 903 353 1747 
Q 353 2603 823 3093 
Q 1294 3584 2113 3584 
Q 2378 3584 2631 3529 
Q 2884 3475 3122 3366 
z
" id="DejaVuSans-63" transform="scale(0.015625)"/>
       <path d="M 1172 4494 
L 1172 3500 
L 2356 3500 
L 2356 3053 
L 1172 3053 
L 1172 1153 
Q 1172 725 1289 603 
Q 1406 481 1766 481 
L 2356 481 
L 2356 0 
L 1766 0 
Q 1100 0 847 248 
Q 594 497 594 1153 
L 594 3053 
L 172 3053 
L 172 3500 
L 594 3500 
L 594 4494 
L 1172 4494 
z
" id="DejaVuSans-74" transform="scale(0.015625)"/>
       <path d="M 1959 3097 
Q 1497 3097 1228 2736 
Q 959 2375 959 1747 
Q 959 1119 1226 758 
Q 1494 397 1959 397 
Q 2419 397 2687 759 
Q 2956 1122 2956 1747 
Q 2956 2369 2687 2733 
Q 2419 3097 1959 3097 
z
M 1959 3584 
Q 2709 3584 3137 3096 
Q 3566 2609 3566 1747 
Q 3566 888 3137 398 
Q 2709 -91 1959 -91 
Q 1206 -91 779 398 
Q 353 888 353 1747 
Q 353 2609 779 3096 
Q 1206 3584 1959 3584 
z
" id="DejaVuSans-6f" transform="scale(0.015625)"/>
       <path d="M 3513 2113 
L 3513 0 
L 2938 0 
L 2938 2094 
Q 2938 2591 2744 2837 
Q 2550 3084 2163 3084 
Q 1697 3084 1428 2787 
Q 1159 2491 1159 1978 
L 1159 0 
L 581 0 
L 581 3500 
L 1159 3500 
L 1159 2956 
Q 1366 3272 1645 3428 
Q 1925 3584 2291 3584 
Q 2894 3584 3203 3211 
Q 3513 2838 3513 2113 
z
" id="DejaVuSans-6e" transform="scale(0.015625)"/>
       <path d="M 2059 -325 
Q 1816 -950 1584 -1140 
Q 1353 -1331 966 -1331 
L 506 -1331 
L 506 -850 
L 844 -850 
Q 1081 -850 1212 -737 
Q 1344 -625 1503 -206 
L 1606 56 
L 191 3500 
L 800 3500 
L 1894 763 
L 2988 3500 
L 3597 3500 
L 2059 -325 
z
" id="DejaVuSans-79" transform="scale(0.015625)"/>
      </defs>
      <use xlink:href="#DejaVuSans-44"/>
      <use x="77.001953" xlink:href="#DejaVuSans-69"/>
      <use x="104.785156" xlink:href="#DejaVuSans-72"/>
      <use x="143.648438" xlink:href="#DejaVuSans-65"/>
      <use x="205.171875" xlink:href="#DejaVuSans-63"/>
      <use x="260.152344" xlink:href="#DejaVuSans-74"/>
      <use x="299.361328" xlink:href="#DejaVuSans-69"/>
      <use x="327.144531" xlink:href="#DejaVuSans-6f"/>
      <use x="388.326172" xlink:href="#DejaVuSans-6e"/>
      <use x="451.705078" xlink:href="#DejaVuSans-61"/>
      <use x="512.984375" xlink:href="#DejaVuSans-6c"/>
      <use x="540.767578" xlink:href="#DejaVuSans-69"/>
      <use x="568.550781" xlink:href="#DejaVuSans-74"/>
      <use x="607.759766" xlink:href="#DejaVuSans-79"/>
     </g>
     <!-- [$pairs_{fwd}-pairs_{bwd}$] -->
     <g transform="translate(25.998125 137.778571)rotate(-90)scale(0.1 -0.1)">
      <defs>
       <path d="M 550 4863 
L 1875 4863 
L 1875 4416 
L 1125 4416 
L 1125 -397 
L 1875 -397 
L 1875 -844 
L 550 -844 
L 550 4863 
z
" id="DejaVuSans-5b" transform="scale(0.015625)"/>
       <path d="M 3175 2156 
Q 3175 2616 2975 2859 
Q 2775 3103 2400 3103 
Q 2144 3103 1911 2972 
Q 1678 2841 1497 2591 
Q 1319 2344 1212 1994 
Q 1106 1644 1106 1300 
Q 1106 863 1306 627 
Q 1506 391 1875 391 
Q 2147 391 2380 519 
Q 2613 647 2778 891 
Q 2956 1147 3065 1494 
Q 3175 1841 3175 2156 
z
M 1394 2969 
Q 1625 3272 1939 3428 
Q 2253 3584 2638 3584 
Q 3175 3584 3472 3232 
Q 3769 2881 3769 2247 
Q 3769 1728 3584 1258 
Q 3400 788 3053 416 
Q 2822 169 2531 39 
Q 2241 -91 1919 -91 
Q 1547 -91 1294 64 
Q 1041 219 916 525 
L 556 -1331 
L -19 -1331 
L 922 3500 
L 1497 3500 
L 1394 2969 
z
" id="DejaVuSans-Oblique-70" transform="scale(0.015625)"/>
       <path d="M 3438 1997 
L 3047 0 
L 2472 0 
L 2578 531 
Q 2325 219 2001 64 
Q 1678 -91 1281 -91 
Q 834 -91 548 182 
Q 263 456 263 884 
Q 263 1497 752 1853 
Q 1241 2209 2100 2209 
L 2900 2209 
L 2931 2363 
Q 2938 2388 2941 2417 
Q 2944 2447 2944 2509 
Q 2944 2788 2717 2942 
Q 2491 3097 2081 3097 
Q 1800 3097 1504 3025 
Q 1209 2953 897 2809 
L 997 3341 
Q 1322 3463 1633 3523 
Q 1944 3584 2234 3584 
Q 2853 3584 3176 3315 
Q 3500 3047 3500 2534 
Q 3500 2431 3484 2292 
Q 3469 2153 3438 1997 
z
M 2816 1759 
L 2241 1759 
Q 1534 1759 1195 1570 
Q 856 1381 856 984 
Q 856 709 1029 553 
Q 1203 397 1509 397 
Q 1978 397 2328 733 
Q 2678 1069 2791 1631 
L 2816 1759 
z
" id="DejaVuSans-Oblique-61" transform="scale(0.015625)"/>
       <path d="M 1172 4863 
L 1747 4863 
L 1606 4134 
L 1031 4134 
L 1172 4863 
z
M 909 3500 
L 1484 3500 
L 800 0 
L 225 0 
L 909 3500 
z
" id="DejaVuSans-Oblique-69" transform="scale(0.015625)"/>
       <path d="M 2853 2969 
Q 2766 3016 2653 3041 
Q 2541 3066 2413 3066 
Q 1953 3066 1609 2717 
Q 1266 2369 1153 1784 
L 800 0 
L 225 0 
L 909 3500 
L 1484 3500 
L 1375 2956 
Q 1603 3259 1920 3421 
Q 2238 3584 2597 3584 
Q 2691 3584 2781 3573 
Q 2872 3563 2963 3538 
L 2853 2969 
z
" id="DejaVuSans-Oblique-72" transform="scale(0.015625)"/>
       <path d="M 3200 3397 
L 3091 2853 
Q 2863 2978 2609 3040 
Q 2356 3103 2088 3103 
Q 1634 3103 1373 2948 
Q 1113 2794 1113 2528 
Q 1113 2219 1719 2053 
Q 1766 2041 1788 2034 
L 1972 1978 
Q 2547 1819 2739 1644 
Q 2931 1469 2931 1166 
Q 2931 609 2489 259 
Q 2047 -91 1331 -91 
Q 1053 -91 747 -37 
Q 441 16 72 128 
L 184 722 
Q 500 559 806 475 
Q 1113 391 1394 391 
Q 1816 391 2080 572 
Q 2344 753 2344 1031 
Q 2344 1331 1650 1516 
L 1591 1531 
L 1394 1581 
Q 956 1697 753 1886 
Q 550 2075 550 2369 
Q 550 2928 970 3256 
Q 1391 3584 2113 3584 
Q 2397 3584 2667 3537 
Q 2938 3491 3200 3397 
z
" id="DejaVuSans-Oblique-73" transform="scale(0.015625)"/>
       <path d="M 3059 4863 
L 2969 4384 
L 2419 4384 
Q 2106 4384 1964 4261 
Q 1822 4138 1753 3809 
L 1691 3500 
L 2638 3500 
L 2553 3053 
L 1606 3053 
L 1013 0 
L 434 0 
L 1031 3053 
L 481 3053 
L 563 3500 
L 1113 3500 
L 1159 3744 
Q 1278 4363 1576 4613 
Q 1875 4863 2516 4863 
L 3059 4863 
z
" id="DejaVuSans-Oblique-66" transform="scale(0.015625)"/>
       <path d="M 544 3500 
L 1113 3500 
L 1259 684 
L 2566 3500 
L 3231 3500 
L 3425 684 
L 4666 3500 
L 5241 3500 
L 3641 0 
L 2969 0 
L 2797 2900 
L 1459 0 
L 781 0 
L 544 3500 
z
" id="DejaVuSans-Oblique-77" transform="scale(0.015625)"/>
       <path d="M 2675 525 
Q 2444 222 2128 65 
Q 1813 -91 1428 -91 
Q 903 -91 598 267 
Q 294 625 294 1247 
Q 294 1766 478 2236 
Q 663 2706 1013 3078 
Q 1244 3325 1534 3454 
Q 1825 3584 2144 3584 
Q 2481 3584 2739 3421 
Q 2997 3259 3138 2956 
L 3513 4863 
L 4091 4863 
L 3144 0 
L 2566 0 
L 2675 525 
z
M 891 1350 
Q 891 897 1095 644 
Q 1300 391 1663 391 
Q 1931 391 2161 520 
Q 2391 650 2566 903 
Q 2750 1166 2856 1509 
Q 2963 1853 2963 2188 
Q 2963 2622 2758 2865 
Q 2553 3109 2194 3109 
Q 1922 3109 1687 2981 
Q 1453 2853 1288 2613 
Q 1106 2353 998 2009 
Q 891 1666 891 1350 
z
" id="DejaVuSans-Oblique-64" transform="scale(0.015625)"/>
       <path d="M 3169 2138 
Q 3169 2591 2961 2847 
Q 2753 3103 2388 3103 
Q 2122 3103 1889 2973 
Q 1656 2844 1484 2597 
Q 1303 2338 1198 1995 
Q 1094 1653 1094 1313 
Q 1094 881 1298 636 
Q 1503 391 1863 391 
Q 2134 391 2365 517 
Q 2597 644 2772 891 
Q 2950 1147 3059 1487 
Q 3169 1828 3169 2138 
z
M 1381 2969 
Q 1594 3256 1914 3420 
Q 2234 3584 2584 3584 
Q 3122 3584 3439 3221 
Q 3756 2859 3756 2241 
Q 3756 1734 3570 1259 
Q 3384 784 3041 416 
Q 2816 172 2522 40 
Q 2228 -91 1906 -91 
Q 1566 -91 1316 65 
Q 1066 222 909 531 
L 806 0 
L 231 0 
L 1178 4863 
L 1753 4863 
L 1381 2969 
z
" id="DejaVuSans-Oblique-62" transform="scale(0.015625)"/>
       <path d="M 1947 4863 
L 1947 -844 
L 622 -844 
L 622 -397 
L 1369 -397 
L 1369 4416 
L 622 4416 
L 622 4863 
L 1947 4863 
z
" id="DejaVuSans-5d" transform="scale(0.015625)"/>
      </defs>
      <use transform="translate(0 0.015625)" xlink:href="#DejaVuSans-5b"/>
      <use transform="translate(39.013672 0.015625)" xlink:href="#DejaVuSans-Oblique-70"/>
      <use transform="translate(102.490234 0.015625)" xlink:href="#DejaVuSans-Oblique-61"/>
      <use transform="translate(163.769531 0.015625)" xlink:href="#DejaVuSans-Oblique-69"/>
      <use transform="translate(191.552734 0.015625)" xlink:href="#DejaVuSans-Oblique-72"/>
      <use transform="translate(232.666016 0.015625)" xlink:href="#DejaVuSans-Oblique-73"/>
      <use transform="translate(284.765625 -16.390625)scale(0.7)" xlink:href="#DejaVuSans-Oblique-66"/>
      <use transform="translate(309.40918 -16.390625)scale(0.7)" xlink:href="#DejaVuSans-Oblique-77"/>
      <use transform="translate(366.660156 -16.390625)scale(0.7)" xlink:href="#DejaVuSans-Oblique-64"/>
      <use transform="translate(433.310547 0.015625)" xlink:href="#DejaVuSans-2212"/>
      <use transform="translate(536.582031 0.015625)" xlink:href="#DejaVuSans-Oblique-70"/>
      <use transform="translate(600.058594 0.015625)" xlink:href="#DejaVuSans-Oblique-61"/>
      <use transform="translate(661.337891 0.015625)" xlink:href="#DejaVuSans-Oblique-69"/>
      <use transform="translate(689.121094 0.015625)" xlink:href="#DejaVuSans-Oblique-72"/>
      <use transform="translate(730.234375 0.015625)" xlink:href="#DejaVuSans-Oblique-73"/>
      <use transform="translate(782.333984 -16.390625)scale(0.7)" xlink:href="#DejaVuSans-Oblique-62"/>
      <use transform="translate(826.767578 -16.390625)scale(0.7)" xlink:href="#DejaVuSans-Oblique-77"/>
      <use transform="translate(884.018555 -16.390625)scale(0.7)" xlink:href="#DejaVuSans-Oblique-64"/>
      <use transform="translate(931.186523 0.015625)" xlink:href="#DejaVuSans-5d"/>
     </g>
    </g>
   </g>
   <g id="patch_3">
    <path d="M 53.840313 128.057143 
L 53.840313 50.4 
" style="fill:none;stroke:#000000;stroke-linecap:square;stroke-linejoin:miter;stroke-width:0.8;"/>
   </g>
   <g id="patch_4">
    <path d="M 53.840313 128.057143 
L 388.640312 128.057143 
" style="fill:none;stroke:#000000;stroke-linecap:square;stroke-linejoin:miter;stroke-width:0.8;"/>
   </g>
   <g id="text_14">
    <!-- Trial Start Replays -->
    <g transform="translate(167.092187 44.4)scale(0.12 -0.12)">
     <defs>
      <path id="DejaVuSans-20" transform="scale(0.015625)"/>
      <path d="M 3425 4513 
L 3425 3897 
Q 3066 4069 2747 4153 
Q 2428 4238 2131 4238 
Q 1616 4238 1336 4038 
Q 1056 3838 1056 3469 
Q 1056 3159 1242 3001 
Q 1428 2844 1947 2747 
L 2328 2669 
Q 3034 2534 3370 2195 
Q 3706 1856 3706 1288 
Q 3706 609 3251 259 
Q 2797 -91 1919 -91 
Q 1588 -91 1214 -16 
Q 841 59 441 206 
L 441 856 
Q 825 641 1194 531 
Q 1563 422 1919 422 
Q 2459 422 2753 634 
Q 3047 847 3047 1241 
Q 3047 1584 2836 1778 
Q 2625 1972 2144 2069 
L 1759 2144 
Q 1053 2284 737 2584 
Q 422 2884 422 3419 
Q 422 4038 858 4394 
Q 1294 4750 2059 4750 
Q 2388 4750 2728 4690 
Q 3069 4631 3425 4513 
z
" id="DejaVuSans-53" transform="scale(0.015625)"/>
      <path d="M 2841 2188 
Q 3044 2119 3236 1894 
Q 3428 1669 3622 1275 
L 4263 0 
L 3584 0 
L 2988 1197 
Q 2756 1666 2539 1819 
Q 2322 1972 1947 1972 
L 1259 1972 
L 1259 0 
L 628 0 
L 628 4666 
L 2053 4666 
Q 2853 4666 3247 4331 
Q 3641 3997 3641 3322 
Q 3641 2881 3436 2590 
Q 3231 2300 2841 2188 
z
M 1259 4147 
L 1259 2491 
L 2053 2491 
Q 2509 2491 2742 2702 
Q 2975 2913 2975 3322 
Q 2975 3731 2742 3939 
Q 2509 4147 2053 4147 
L 1259 4147 
z
" id="DejaVuSans-52" transform="scale(0.015625)"/>
      <path d="M 1159 525 
L 1159 -1331 
L 581 -1331 
L 581 3500 
L 1159 3500 
L 1159 2969 
Q 1341 3281 1617 3432 
Q 1894 3584 2278 3584 
Q 2916 3584 3314 3078 
Q 3713 2572 3713 1747 
Q 3713 922 3314 415 
Q 2916 -91 2278 -91 
Q 1894 -91 1617 61 
Q 1341 213 1159 525 
z
M 3116 1747 
Q 3116 2381 2855 2742 
Q 2594 3103 2138 3103 
Q 1681 3103 1420 2742 
Q 1159 2381 1159 1747 
Q 1159 1113 1420 752 
Q 1681 391 2138 391 
Q 2594 391 2855 752 
Q 3116 1113 3116 1747 
z
" id="DejaVuSans-70" transform="scale(0.015625)"/>
      <path d="M 2834 3397 
L 2834 2853 
Q 2591 2978 2328 3040 
Q 2066 3103 1784 3103 
Q 1356 3103 1142 2972 
Q 928 2841 928 2578 
Q 928 2378 1081 2264 
Q 1234 2150 1697 2047 
L 1894 2003 
Q 2506 1872 2764 1633 
Q 3022 1394 3022 966 
Q 3022 478 2636 193 
Q 2250 -91 1575 -91 
Q 1294 -91 989 -36 
Q 684 19 347 128 
L 347 722 
Q 666 556 975 473 
Q 1284 391 1588 391 
Q 1994 391 2212 530 
Q 2431 669 2431 922 
Q 2431 1156 2273 1281 
Q 2116 1406 1581 1522 
L 1381 1569 
Q 847 1681 609 1914 
Q 372 2147 372 2553 
Q 372 3047 722 3315 
Q 1072 3584 1716 3584 
Q 2034 3584 2315 3537 
Q 2597 3491 2834 3397 
z
" id="DejaVuSans-73" transform="scale(0.015625)"/>
     </defs>
     <use xlink:href="#DejaVuSans-54"/>
     <use x="46.333984" xlink:href="#DejaVuSans-72"/>
     <use x="87.447266" xlink:href="#DejaVuSans-69"/>
     <use x="115.230469" xlink:href="#DejaVuSans-61"/>
     <use x="176.509766" xlink:href="#DejaVuSans-6c"/>
     <use x="204.292969" xlink:href="#DejaVuSans-20"/>
     <use x="236.080078" xlink:href="#DejaVuSans-53"/>
     <use x="299.556641" xlink:href="#DejaVuSans-74"/>
     <use x="338.765625" xlink:href="#DejaVuSans-61"/>
     <use x="400.044922" xlink:href="#DejaVuSans-72"/>
     <use x="441.158203" xlink:href="#DejaVuSans-74"/>
     <use x="480.367188" xlink:href="#DejaVuSans-20"/>
     <use x="512.154297" xlink:href="#DejaVuSans-52"/>
     <use x="577.136719" xlink:href="#DejaVuSans-65"/>
     <use x="638.660156" xlink:href="#DejaVuSans-70"/>
     <use x="702.136719" xlink:href="#DejaVuSans-6c"/>
     <use x="729.919922" xlink:href="#DejaVuSans-61"/>
     <use x="791.199219" xlink:href="#DejaVuSans-79"/>
     <use x="850.378906" xlink:href="#DejaVuSans-73"/>
    </g>
   </g>
   <g id="line2d_13">
    <path clip-path="url(#pbed6631650)" d="M 53.840313 89.228571 
L 55.522725 89.228571 
L 57.205137 73.24517 
L 58.887549 72.135782 
L 60.569961 72.341224 
L 62.252373 72.094694 
L 63.934785 71.108571 
L 65.617197 71.272925 
L 67.299609 69.013061 
L 68.982021 69.711565 
L 70.664433 66.999728 
L 72.346845 68.848707 
L 74.029257 65.64381 
L 75.711669 66.999728 
L 77.394081 63.753741 
L 79.076493 65.89034 
L 80.758905 62.192381 
L 82.441318 65.232925 
L 84.12373 61.411701 
L 85.806142 64.452245 
L 87.488554 59.480544 
L 89.170966 64.041361 
L 90.853378 58.864218 
L 92.53579 62.849796 
L 94.218202 58.206803 
L 95.900614 63.137415 
L 97.583026 57.22068 
L 99.265438 62.438912 
L 100.94785 56.933061 
L 102.630262 62.028027 
L 104.312674 55.946939 
L 105.995086 62.151293 
L 107.677498 55.536054 
L 109.35991 61.863673 
L 111.042323 55.536054 
L 112.724735 61.822585 
L 114.407147 54.878639 
L 116.089559 61.658231 
L 117.771971 54.303401 
L 119.454383 61.576054 
L 121.136795 54.919728 
L 122.819207 61.082993 
L 124.501619 53.933605 
L 126.184031 61.288435 
L 127.866443 53.645986 
L 129.548855 61.247347 
L 131.231267 53.687075 
L 132.913679 61.041905 
L 134.596091 53.974694 
L 136.278503 60.918639 
L 137.960916 53.522721 
L 139.643328 61.000816 
L 141.32574 53.235102 
L 143.008152 60.918639 
L 144.690564 53.358367 
L 146.372976 60.795374 
L 148.055388 52.988571 
L 149.7378 60.795374 
L 151.420212 53.152925 
L 153.102624 60.959728 
L 154.785036 53.111837 
L 156.467448 60.836463 
L 158.14986 52.865306 
L 159.832272 60.877551 
L 161.514684 53.194014 
L 163.197096 60.672109 
L 164.879508 52.865306 
L 166.561921 60.877551 
L 168.244333 52.742041 
L 169.926745 60.918639 
L 171.609157 52.618776 
L 173.291569 60.507755 
L 174.973981 53.070748 
L 176.656393 60.713197 
L 178.338805 52.824218 
L 180.021217 60.754286 
L 181.703629 52.824218 
L 183.386041 60.589932 
L 185.068453 52.659864 
L 186.750865 60.589932 
L 188.433277 52.865306 
L 190.115689 60.836463 
L 191.798101 52.700952 
L 193.480514 60.548844 
L 195.162926 52.659864 
L 196.845338 60.548844 
L 198.52775 53.27619 
L 200.210162 60.63102 
L 201.892574 52.742041 
L 203.574986 60.507755 
L 205.257398 52.618776 
L 206.93981 60.672109 
L 208.622222 52.577687 
L 210.304634 60.63102 
L 211.987046 52.49551 
L 213.669458 60.548844 
L 215.35187 52.49551 
L 217.034282 60.507755 
L 218.716694 52.906395 
L 220.399106 60.589932 
L 222.081519 52.49551 
L 223.763931 60.507755 
L 225.446343 52.536599 
L 227.128755 60.589932 
L 228.811167 52.824218 
L 230.493579 60.672109 
L 232.175991 52.372245 
L 233.858403 60.548844 
L 235.540815 52.536599 
L 237.223227 60.548844 
L 238.905639 52.700952 
L 240.588051 60.63102 
L 242.270463 52.413333 
L 243.952875 60.507755 
L 245.635287 52.454422 
L 247.317699 60.589932 
L 249.000111 52.577687 
L 250.682524 60.466667 
L 252.364936 52.536599 
L 254.047348 60.466667 
L 255.72976 52.659864 
L 257.412172 60.507755 
L 259.094584 52.536599 
L 260.776996 60.548844 
L 262.459408 52.290068 
L 264.14182 60.507755 
L 265.824232 52.454422 
L 267.506644 60.466667 
L 269.189056 52.290068 
L 270.871468 60.466667 
L 272.55388 52.372245 
L 274.236292 60.548844 
L 275.918704 52.372245 
L 277.601117 60.548844 
L 279.283529 52.577687 
L 280.965941 60.548844 
L 282.648353 52.454422 
L 284.330765 60.507755 
L 286.013177 52.331156 
L 287.695589 60.589932 
L 289.378001 52.24898 
L 291.060413 60.548844 
L 292.742825 52.290068 
L 294.425237 60.589932 
L 296.107649 52.331156 
L 297.790061 60.507755 
L 299.472473 52.413333 
L 301.154885 60.548844 
L 302.837297 52.413333 
L 304.519709 60.507755 
L 306.202122 52.24898 
L 307.884534 60.548844 
L 309.566946 52.331156 
L 311.249358 60.466667 
L 312.93177 52.413333 
L 314.614182 60.507755 
L 316.296594 52.413333 
L 317.979006 60.548844 
L 319.661418 52.331156 
L 321.34383 60.507755 
L 323.026242 52.49551 
L 324.708654 60.507755 
L 326.391066 52.372245 
L 328.073478 60.507755 
L 329.75589 52.659864 
L 331.438302 60.507755 
L 333.120715 52.454422 
L 334.803127 60.466667 
L 336.485539 52.536599 
L 338.167951 60.466667 
L 339.850363 52.536599 
L 341.532775 60.507755 
L 343.215187 52.290068 
L 344.897599 60.548844 
L 346.580011 52.290068 
L 348.262423 60.507755 
L 349.944835 52.331156 
L 351.627247 60.548844 
L 353.309659 52.290068 
L 354.992071 60.507755 
L 356.674483 52.372245 
L 358.356895 60.507755 
L 360.039307 52.372245 
L 361.72172 60.548844 
L 363.404132 52.577687 
L 365.086544 60.466667 
L 366.768956 52.290068 
L 368.451368 60.425578 
L 370.13378 52.413333 
L 371.816192 60.466667 
L 373.498604 52.536599 
L 375.181016 60.466667 
L 376.863428 52.413333 
L 378.54584 60.466667 
L 380.228252 52.413333 
L 381.910664 60.466667 
L 383.593076 52.618776 
L 385.275488 60.548844 
L 386.9579 52.454422 
L 388.640312 60.507755 
L 388.640312 60.507755 
" style="fill:none;stroke:#008000;stroke-linecap:square;stroke-width:1.5;"/>
   </g>
   <g id="line2d_14">
    <path clip-path="url(#pbed6631650)" d="M 53.840313 89.228571 
L 55.522725 126.208163 
L 57.205137 102.253605 
L 58.887549 119.634014 
L 60.569961 100.938776 
L 62.252373 120.537959 
L 63.934785 101.88381 
L 65.617197 120.866667 
L 67.299609 101.924898 
L 68.982021 121.770612 
L 70.664433 100.81551 
L 72.346845 122.017143 
L 74.029257 101.103129 
L 75.711669 121.688435 
L 77.394081 99.993741 
L 79.076493 122.674558 
L 80.758905 100.075918 
L 82.441318 122.428027 
L 84.12373 100.075918 
L 85.806142 123.085442 
L 87.488554 99.130884 
L 89.170966 123.41415 
L 90.853378 100.240272 
L 92.53579 123.578503 
L 94.218202 99.870476 
L 95.900614 124.235918 
L 97.583026 99.870476 
L 99.265438 124.318095 
L 100.94785 100.199184 
L 102.630262 124.400272 
L 104.312674 99.870476 
L 105.995086 124.72898 
L 107.677498 100.610068 
L 109.35991 124.564626 
L 111.042323 101.924898 
L 112.724735 124.72898 
L 114.407147 101.144218 
L 116.089559 124.97551 
L 117.771971 100.56898 
L 119.454383 125.304218 
L 121.136795 101.472925 
L 122.819207 125.304218 
L 124.501619 101.555102 
L 126.184031 125.304218 
L 127.866443 101.59619 
L 129.548855 125.386395 
L 131.231267 99.993741 
L 132.913679 125.632925 
L 134.596091 101.431837 
L 136.278503 125.550748 
L 137.960916 102.048163 
L 139.643328 125.632925 
L 141.32574 101.185306 
L 143.008152 125.797279 
L 144.690564 101.678367 
L 146.372976 125.879456 
L 148.055388 104.020408 
L 149.7378 125.550748 
L 151.420212 102.952109 
L 153.102624 125.797279 
L 154.785036 103.362993 
L 156.467448 125.961633 
L 158.14986 103.773878 
L 159.832272 125.879456 
L 161.514684 102.376871 
L 163.197096 125.961633 
L 164.879508 103.44517 
L 166.561921 125.961633 
L 168.244333 105.170884 
L 169.926745 125.879456 
L 171.609157 103.527347 
L 173.291569 125.961633 
L 174.973981 104.020408 
L 176.656393 126.04381 
L 178.338805 103.773878 
L 180.021217 125.797279 
L 181.703629 104.102585 
L 183.386041 126.04381 
L 185.068453 103.609524 
L 186.750865 125.879456 
L 188.433277 103.773878 
L 190.115689 125.961633 
L 191.798101 104.349116 
L 193.480514 126.125986 
L 195.162926 105.828299 
L 196.845338 126.125986 
L 198.52775 105.581769 
L 200.210162 126.125986 
L 201.892574 104.924354 
L 203.574986 126.125986 
L 205.257398 103.97932 
L 206.93981 126.04381 
L 208.622222 104.76 
L 210.304634 126.125986 
L 211.987046 104.184762 
L 213.669458 126.125986 
L 215.35187 104.266939 
L 217.034282 125.961633 
L 218.716694 105.499592 
L 220.399106 125.961633 
L 222.081519 105.170884 
L 223.763931 126.04381 
L 225.446343 105.828299 
L 227.128755 126.125986 
L 228.811167 104.924354 
L 230.493579 126.125986 
L 232.175991 106.526803 
L 233.858403 126.04381 
L 235.540815 105.253061 
L 237.223227 126.208163 
L 238.905639 106.07483 
L 240.588051 126.208163 
L 242.270463 106.85551 
L 243.952875 126.04381 
L 245.635287 106.239184 
L 247.317699 126.125986 
L 249.000111 104.718912 
L 250.682524 126.208163 
L 252.364936 105.088707 
L 254.047348 126.208163 
L 255.72976 105.006531 
L 257.412172 126.208163 
L 259.094584 107.225306 
L 260.776996 126.125986 
L 262.459408 103.609524 
L 264.14182 126.125986 
L 265.824232 105.170884 
L 267.506644 126.208163 
L 269.189056 105.746122 
L 270.871468 126.208163 
L 272.55388 104.677823 
L 274.236292 126.04381 
L 275.918704 106.157007 
L 277.601117 126.208163 
L 279.283529 104.842177 
L 280.965941 126.208163 
L 282.648353 104.801088 
L 284.330765 126.208163 
L 286.013177 105.622857 
L 287.695589 126.208163 
L 289.378001 105.29415 
L 291.060413 126.208163 
L 292.742825 105.54068 
L 294.425237 126.125986 
L 296.107649 105.335238 
L 297.790061 126.125986 
L 299.472473 106.485714 
L 301.154885 126.208163 
L 302.837297 106.567891 
L 304.519709 126.125986 
L 306.202122 106.157007 
L 307.884534 126.208163 
L 309.566946 105.992653 
L 311.249358 126.208163 
L 312.93177 106.321361 
L 314.614182 126.125986 
L 316.296594 105.129796 
L 317.979006 126.084898 
L 319.661418 106.403537 
L 321.34383 126.208163 
L 323.026242 105.622857 
L 324.708654 126.125986 
L 326.391066 106.321361 
L 328.073478 126.125986 
L 329.75589 104.76 
L 331.438302 126.125986 
L 333.120715 104.308027 
L 334.803127 126.208163 
L 336.485539 104.595646 
L 338.167951 126.208163 
L 339.850363 106.157007 
L 341.532775 126.208163 
L 343.215187 106.07483 
L 344.897599 126.208163 
L 346.580011 107.060952 
L 348.262423 126.208163 
L 349.944835 105.746122 
L 351.627247 126.208163 
L 353.309659 106.814422 
L 354.992071 126.125986 
L 356.674483 107.225306 
L 358.356895 126.208163 
L 360.039307 105.910476 
L 361.72172 126.125986 
L 363.404132 106.403537 
L 365.086544 126.208163 
L 366.768956 105.869388 
L 368.451368 126.125986 
L 370.13378 105.663946 
L 371.816192 126.208163 
L 373.498604 106.115918 
L 375.181016 126.208163 
L 376.863428 106.85551 
L 378.54584 126.208163 
L 380.228252 106.732245 
L 381.910664 126.125986 
L 383.593076 106.814422 
L 385.275488 126.208163 
L 386.9579 105.458503 
L 388.640312 126.208163 
L 388.640312 126.208163 
" style="fill:none;stroke:#008000;stroke-dasharray:9.6,2.4,1.5,2.4;stroke-dashoffset:0;stroke-width:1.5;"/>
   </g>
  </g>
  <g id="axes_2">
   <g id="patch_5">
    <path d="M 53.840313 267.84 
L 388.640312 267.84 
L 388.640312 190.182857 
L 53.840313 190.182857 
z
" style="fill:none;"/>
   </g>
   <g id="line2d_15">
    <path clip-path="url(#pbce4c10800)" d="M 53.840313 225.558434 
L 388.640312 225.558434 
" style="fill:none;stroke:#808080;stroke-linecap:square;stroke-width:1.5;"/>
   </g>
   <g id="matplotlib.axis_3">
    <g id="xtick_9">
     <g id="line2d_16">
      <g>
       <use style="stroke:#000000;stroke-width:0.8;" x="94.218202" xlink:href="#m149e3de2fd" y="267.84"/>
      </g>
     </g>
     <g id="text_15">
      <!-- 25 -->
      <g transform="translate(87.855702 282.438437)scale(0.1 -0.1)">
       <use xlink:href="#DejaVuSans-32"/>
       <use x="63.623047" xlink:href="#DejaVuSans-35"/>
      </g>
     </g>
    </g>
    <g id="xtick_10">
     <g id="line2d_17">
      <g>
       <use style="stroke:#000000;stroke-width:0.8;" x="136.278503" xlink:href="#m149e3de2fd" y="267.84"/>
      </g>
     </g>
     <g id="text_16">
      <!-- 50 -->
      <g transform="translate(129.916003 282.438437)scale(0.1 -0.1)">
       <use xlink:href="#DejaVuSans-35"/>
       <use x="63.623047" xlink:href="#DejaVuSans-30"/>
      </g>
     </g>
    </g>
    <g id="xtick_11">
     <g id="line2d_18">
      <g>
       <use style="stroke:#000000;stroke-width:0.8;" x="178.338805" xlink:href="#m149e3de2fd" y="267.84"/>
      </g>
     </g>
     <g id="text_17">
      <!-- 75 -->
      <g transform="translate(171.976305 282.438437)scale(0.1 -0.1)">
       <use xlink:href="#DejaVuSans-37"/>
       <use x="63.623047" xlink:href="#DejaVuSans-35"/>
      </g>
     </g>
    </g>
    <g id="xtick_12">
     <g id="line2d_19">
      <g>
       <use style="stroke:#000000;stroke-width:0.8;" x="220.399106" xlink:href="#m149e3de2fd" y="267.84"/>
      </g>
     </g>
     <g id="text_18">
      <!-- 100 -->
      <g transform="translate(210.855356 282.438437)scale(0.1 -0.1)">
       <use xlink:href="#DejaVuSans-31"/>
       <use x="63.623047" xlink:href="#DejaVuSans-30"/>
       <use x="127.246094" xlink:href="#DejaVuSans-30"/>
      </g>
     </g>
    </g>
    <g id="xtick_13">
     <g id="line2d_20">
      <g>
       <use style="stroke:#000000;stroke-width:0.8;" x="262.459408" xlink:href="#m149e3de2fd" y="267.84"/>
      </g>
     </g>
     <g id="text_19">
      <!-- 125 -->
      <g transform="translate(252.915658 282.438437)scale(0.1 -0.1)">
       <use xlink:href="#DejaVuSans-31"/>
       <use x="63.623047" xlink:href="#DejaVuSans-32"/>
       <use x="127.246094" xlink:href="#DejaVuSans-35"/>
      </g>
     </g>
    </g>
    <g id="xtick_14">
     <g id="line2d_21">
      <g>
       <use style="stroke:#000000;stroke-width:0.8;" x="304.519709" xlink:href="#m149e3de2fd" y="267.84"/>
      </g>
     </g>
     <g id="text_20">
      <!-- 150 -->
      <g transform="translate(294.975959 282.438437)scale(0.1 -0.1)">
       <use xlink:href="#DejaVuSans-31"/>
       <use x="63.623047" xlink:href="#DejaVuSans-35"/>
       <use x="127.246094" xlink:href="#DejaVuSans-30"/>
      </g>
     </g>
    </g>
    <g id="xtick_15">
     <g id="line2d_22">
      <g>
       <use style="stroke:#000000;stroke-width:0.8;" x="346.580011" xlink:href="#m149e3de2fd" y="267.84"/>
      </g>
     </g>
     <g id="text_21">
      <!-- 175 -->
      <g transform="translate(337.036261 282.438437)scale(0.1 -0.1)">
       <use xlink:href="#DejaVuSans-31"/>
       <use x="63.623047" xlink:href="#DejaVuSans-37"/>
       <use x="127.246094" xlink:href="#DejaVuSans-35"/>
      </g>
     </g>
    </g>
    <g id="xtick_16">
     <g id="line2d_23">
      <g>
       <use style="stroke:#000000;stroke-width:0.8;" x="388.640312" xlink:href="#m149e3de2fd" y="267.84"/>
      </g>
     </g>
     <g id="text_22">
      <!-- 200 -->
      <g transform="translate(379.096563 282.438437)scale(0.1 -0.1)">
       <use xlink:href="#DejaVuSans-32"/>
       <use x="63.623047" xlink:href="#DejaVuSans-30"/>
       <use x="127.246094" xlink:href="#DejaVuSans-30"/>
      </g>
     </g>
    </g>
    <g id="text_23">
     <!-- Trial -->
     <g transform="translate(211.02625 296.116562)scale(0.1 -0.1)">
      <use xlink:href="#DejaVuSans-54"/>
      <use x="46.333984" xlink:href="#DejaVuSans-72"/>
      <use x="87.447266" xlink:href="#DejaVuSans-69"/>
      <use x="115.230469" xlink:href="#DejaVuSans-61"/>
      <use x="176.509766" xlink:href="#DejaVuSans-6c"/>
     </g>
    </g>
   </g>
   <g id="matplotlib.axis_4">
    <g id="ytick_4">
     <g id="line2d_24">
      <g>
       <use style="stroke:#000000;stroke-width:0.8;" x="53.840313" xlink:href="#mda83be068f" y="247.929633"/>
      </g>
     </g>
     <g id="text_24">
      <!-- −5 -->
      <g transform="translate(32.098125 251.728852)scale(0.1 -0.1)">
       <use xlink:href="#DejaVuSans-2212"/>
       <use x="83.789062" xlink:href="#DejaVuSans-35"/>
      </g>
     </g>
    </g>
    <g id="ytick_5">
     <g id="line2d_25">
      <g>
       <use style="stroke:#000000;stroke-width:0.8;" x="53.840313" xlink:href="#mda83be068f" y="225.558434"/>
      </g>
     </g>
     <g id="text_25">
      <!-- 0 -->
      <g transform="translate(40.477813 229.357653)scale(0.1 -0.1)">
       <use xlink:href="#DejaVuSans-30"/>
      </g>
     </g>
    </g>
    <g id="ytick_6">
     <g id="line2d_26">
      <g>
       <use style="stroke:#000000;stroke-width:0.8;" x="53.840313" xlink:href="#mda83be068f" y="203.187235"/>
      </g>
     </g>
     <g id="text_26">
      <!-- 5 -->
      <g transform="translate(40.477813 206.986454)scale(0.1 -0.1)">
       <use xlink:href="#DejaVuSans-35"/>
      </g>
     </g>
    </g>
    <g id="text_27">
     <!-- Directionality -->
     <g transform="translate(14.798438 262.358304)rotate(-90)scale(0.1 -0.1)">
      <use xlink:href="#DejaVuSans-44"/>
      <use x="77.001953" xlink:href="#DejaVuSans-69"/>
      <use x="104.785156" xlink:href="#DejaVuSans-72"/>
      <use x="143.648438" xlink:href="#DejaVuSans-65"/>
      <use x="205.171875" xlink:href="#DejaVuSans-63"/>
      <use x="260.152344" xlink:href="#DejaVuSans-74"/>
      <use x="299.361328" xlink:href="#DejaVuSans-69"/>
      <use x="327.144531" xlink:href="#DejaVuSans-6f"/>
      <use x="388.326172" xlink:href="#DejaVuSans-6e"/>
      <use x="451.705078" xlink:href="#DejaVuSans-61"/>
      <use x="512.984375" xlink:href="#DejaVuSans-6c"/>
      <use x="540.767578" xlink:href="#DejaVuSans-69"/>
      <use x="568.550781" xlink:href="#DejaVuSans-74"/>
      <use x="607.759766" xlink:href="#DejaVuSans-79"/>
     </g>
     <!-- [$pairs_{fwd}-pairs_{bwd}$] -->
     <g transform="translate(25.998125 277.561429)rotate(-90)scale(0.1 -0.1)">
      <use transform="translate(0 0.015625)" xlink:href="#DejaVuSans-5b"/>
      <use transform="translate(39.013672 0.015625)" xlink:href="#DejaVuSans-Oblique-70"/>
      <use transform="translate(102.490234 0.015625)" xlink:href="#DejaVuSans-Oblique-61"/>
      <use transform="translate(163.769531 0.015625)" xlink:href="#DejaVuSans-Oblique-69"/>
      <use transform="translate(191.552734 0.015625)" xlink:href="#DejaVuSans-Oblique-72"/>
      <use transform="translate(232.666016 0.015625)" xlink:href="#DejaVuSans-Oblique-73"/>
      <use transform="translate(284.765625 -16.390625)scale(0.7)" xlink:href="#DejaVuSans-Oblique-66"/>
      <use transform="translate(309.40918 -16.390625)scale(0.7)" xlink:href="#DejaVuSans-Oblique-77"/>
      <use transform="translate(366.660156 -16.390625)scale(0.7)" xlink:href="#DejaVuSans-Oblique-64"/>
      <use transform="translate(433.310547 0.015625)" xlink:href="#DejaVuSans-2212"/>
      <use transform="translate(536.582031 0.015625)" xlink:href="#DejaVuSans-Oblique-70"/>
      <use transform="translate(600.058594 0.015625)" xlink:href="#DejaVuSans-Oblique-61"/>
      <use transform="translate(661.337891 0.015625)" xlink:href="#DejaVuSans-Oblique-69"/>
      <use transform="translate(689.121094 0.015625)" xlink:href="#DejaVuSans-Oblique-72"/>
      <use transform="translate(730.234375 0.015625)" xlink:href="#DejaVuSans-Oblique-73"/>
      <use transform="translate(782.333984 -16.390625)scale(0.7)" xlink:href="#DejaVuSans-Oblique-62"/>
      <use transform="translate(826.767578 -16.390625)scale(0.7)" xlink:href="#DejaVuSans-Oblique-77"/>
      <use transform="translate(884.018555 -16.390625)scale(0.7)" xlink:href="#DejaVuSans-Oblique-64"/>
      <use transform="translate(931.186523 0.015625)" xlink:href="#DejaVuSans-5d"/>
     </g>
    </g>
   </g>
   <g id="patch_6">
    <path d="M 53.840313 267.84 
L 53.840313 190.182857 
" style="fill:none;stroke:#000000;stroke-linecap:square;stroke-linejoin:miter;stroke-width:0.8;"/>
   </g>
   <g id="patch_7">
    <path d="M 53.840313 267.84 
L 388.640312 267.84 
" style="fill:none;stroke:#000000;stroke-linecap:square;stroke-linejoin:miter;stroke-width:0.8;"/>
   </g>
   <g id="text_28">
    <!-- Trial End Replays -->
    <g transform="translate(170.34625 184.182857)scale(0.12 -0.12)">
     <defs>
      <path d="M 628 4666 
L 3578 4666 
L 3578 4134 
L 1259 4134 
L 1259 2753 
L 3481 2753 
L 3481 2222 
L 1259 2222 
L 1259 531 
L 3634 531 
L 3634 0 
L 628 0 
L 628 4666 
z
" id="DejaVuSans-45" transform="scale(0.015625)"/>
      <path d="M 2906 2969 
L 2906 4863 
L 3481 4863 
L 3481 0 
L 2906 0 
L 2906 525 
Q 2725 213 2448 61 
Q 2172 -91 1784 -91 
Q 1150 -91 751 415 
Q 353 922 353 1747 
Q 353 2572 751 3078 
Q 1150 3584 1784 3584 
Q 2172 3584 2448 3432 
Q 2725 3281 2906 2969 
z
M 947 1747 
Q 947 1113 1208 752 
Q 1469 391 1925 391 
Q 2381 391 2643 752 
Q 2906 1113 2906 1747 
Q 2906 2381 2643 2742 
Q 2381 3103 1925 3103 
Q 1469 3103 1208 2742 
Q 947 2381 947 1747 
z
" id="DejaVuSans-64" transform="scale(0.015625)"/>
     </defs>
     <use xlink:href="#DejaVuSans-54"/>
     <use x="46.333984" xlink:href="#DejaVuSans-72"/>
     <use x="87.447266" xlink:href="#DejaVuSans-69"/>
     <use x="115.230469" xlink:href="#DejaVuSans-61"/>
     <use x="176.509766" xlink:href="#DejaVuSans-6c"/>
     <use x="204.292969" xlink:href="#DejaVuSans-20"/>
     <use x="236.080078" xlink:href="#DejaVuSans-45"/>
     <use x="299.263672" xlink:href="#DejaVuSans-6e"/>
     <use x="362.642578" xlink:href="#DejaVuSans-64"/>
     <use x="426.119141" xlink:href="#DejaVuSans-20"/>
     <use x="457.90625" xlink:href="#DejaVuSans-52"/>
     <use x="522.888672" xlink:href="#DejaVuSans-65"/>
     <use x="584.412109" xlink:href="#DejaVuSans-70"/>
     <use x="647.888672" xlink:href="#DejaVuSans-6c"/>
     <use x="675.671875" xlink:href="#DejaVuSans-61"/>
     <use x="736.951172" xlink:href="#DejaVuSans-79"/>
     <use x="796.130859" xlink:href="#DejaVuSans-73"/>
    </g>
   </g>
   <g id="legend_1">
    <g id="patch_8">
     <path d="M 80.939687 333.882321 
L 361.540938 333.882321 
Q 363.940938 333.882321 363.940938 331.482321 
L 363.940938 315.068571 
Q 363.940938 312.668571 361.540938 312.668571 
L 80.939687 312.668571 
Q 78.539687 312.668571 78.539687 315.068571 
L 78.539687 331.482321 
Q 78.539687 333.882321 80.939687 333.882321 
z
" style="fill:none;opacity:0;"/>
    </g>
    <g id="line2d_27">
     <path d="M 83.339687 322.386696 
L 107.339687 322.386696 
" style="fill:none;stroke:#008000;stroke-linecap:square;stroke-width:1.5;"/>
    </g>
    <g id="line2d_28"/>
    <g id="text_29">
     <!-- SFMA (Default) -->
     <g transform="translate(116.939687 326.586696)scale(0.12 -0.12)">
      <defs>
       <path d="M 628 4666 
L 3309 4666 
L 3309 4134 
L 1259 4134 
L 1259 2759 
L 3109 2759 
L 3109 2228 
L 1259 2228 
L 1259 0 
L 628 0 
L 628 4666 
z
" id="DejaVuSans-46" transform="scale(0.015625)"/>
       <path d="M 628 4666 
L 1569 4666 
L 2759 1491 
L 3956 4666 
L 4897 4666 
L 4897 0 
L 4281 0 
L 4281 4097 
L 3078 897 
L 2444 897 
L 1241 4097 
L 1241 0 
L 628 0 
L 628 4666 
z
" id="DejaVuSans-4d" transform="scale(0.015625)"/>
       <path d="M 2188 4044 
L 1331 1722 
L 3047 1722 
L 2188 4044 
z
M 1831 4666 
L 2547 4666 
L 4325 0 
L 3669 0 
L 3244 1197 
L 1141 1197 
L 716 0 
L 50 0 
L 1831 4666 
z
" id="DejaVuSans-41" transform="scale(0.015625)"/>
       <path d="M 1984 4856 
Q 1566 4138 1362 3434 
Q 1159 2731 1159 2009 
Q 1159 1288 1364 580 
Q 1569 -128 1984 -844 
L 1484 -844 
Q 1016 -109 783 600 
Q 550 1309 550 2009 
Q 550 2706 781 3412 
Q 1013 4119 1484 4856 
L 1984 4856 
z
" id="DejaVuSans-28" transform="scale(0.015625)"/>
       <path d="M 2375 4863 
L 2375 4384 
L 1825 4384 
Q 1516 4384 1395 4259 
Q 1275 4134 1275 3809 
L 1275 3500 
L 2222 3500 
L 2222 3053 
L 1275 3053 
L 1275 0 
L 697 0 
L 697 3053 
L 147 3053 
L 147 3500 
L 697 3500 
L 697 3744 
Q 697 4328 969 4595 
Q 1241 4863 1831 4863 
L 2375 4863 
z
" id="DejaVuSans-66" transform="scale(0.015625)"/>
       <path d="M 544 1381 
L 544 3500 
L 1119 3500 
L 1119 1403 
Q 1119 906 1312 657 
Q 1506 409 1894 409 
Q 2359 409 2629 706 
Q 2900 1003 2900 1516 
L 2900 3500 
L 3475 3500 
L 3475 0 
L 2900 0 
L 2900 538 
Q 2691 219 2414 64 
Q 2138 -91 1772 -91 
Q 1169 -91 856 284 
Q 544 659 544 1381 
z
M 1991 3584 
L 1991 3584 
z
" id="DejaVuSans-75" transform="scale(0.015625)"/>
       <path d="M 513 4856 
L 1013 4856 
Q 1481 4119 1714 3412 
Q 1947 2706 1947 2009 
Q 1947 1309 1714 600 
Q 1481 -109 1013 -844 
L 513 -844 
Q 928 -128 1133 580 
Q 1338 1288 1338 2009 
Q 1338 2731 1133 3434 
Q 928 4138 513 4856 
z
" id="DejaVuSans-29" transform="scale(0.015625)"/>
      </defs>
      <use xlink:href="#DejaVuSans-53"/>
      <use x="63.476562" xlink:href="#DejaVuSans-46"/>
      <use x="120.996094" xlink:href="#DejaVuSans-4d"/>
      <use x="207.275391" xlink:href="#DejaVuSans-41"/>
      <use x="275.683594" xlink:href="#DejaVuSans-20"/>
      <use x="307.470703" xlink:href="#DejaVuSans-28"/>
      <use x="346.484375" xlink:href="#DejaVuSans-44"/>
      <use x="423.486328" xlink:href="#DejaVuSans-65"/>
      <use x="485.009766" xlink:href="#DejaVuSans-66"/>
      <use x="520.214844" xlink:href="#DejaVuSans-61"/>
      <use x="581.494141" xlink:href="#DejaVuSans-75"/>
      <use x="644.873047" xlink:href="#DejaVuSans-6c"/>
      <use x="672.65625" xlink:href="#DejaVuSans-74"/>
      <use x="711.865234" xlink:href="#DejaVuSans-29"/>
     </g>
    </g>
    <g id="line2d_29">
     <path d="M 231.044687 322.386696 
L 255.044687 322.386696 
" style="fill:none;stroke:#008000;stroke-dasharray:9.6,2.4,1.5,2.4;stroke-dashoffset:0;stroke-width:1.5;"/>
    </g>
    <g id="line2d_30"/>
    <g id="text_30">
     <!-- SFMA (Reverse) -->
     <g transform="translate(264.644687 326.586696)scale(0.12 -0.12)">
      <defs>
       <path d="M 191 3500 
L 800 3500 
L 1894 563 
L 2988 3500 
L 3597 3500 
L 2284 0 
L 1503 0 
L 191 3500 
z
" id="DejaVuSans-76" transform="scale(0.015625)"/>
      </defs>
      <use xlink:href="#DejaVuSans-53"/>
      <use x="63.476562" xlink:href="#DejaVuSans-46"/>
      <use x="120.996094" xlink:href="#DejaVuSans-4d"/>
      <use x="207.275391" xlink:href="#DejaVuSans-41"/>
      <use x="275.683594" xlink:href="#DejaVuSans-20"/>
      <use x="307.470703" xlink:href="#DejaVuSans-28"/>
      <use x="346.484375" xlink:href="#DejaVuSans-52"/>
      <use x="411.466797" xlink:href="#DejaVuSans-65"/>
      <use x="472.990234" xlink:href="#DejaVuSans-76"/>
      <use x="532.169922" xlink:href="#DejaVuSans-65"/>
      <use x="593.693359" xlink:href="#DejaVuSans-72"/>
      <use x="634.806641" xlink:href="#DejaVuSans-73"/>
      <use x="686.90625" xlink:href="#DejaVuSans-65"/>
      <use x="748.429688" xlink:href="#DejaVuSans-29"/>
     </g>
    </g>
   </g>
   <g id="line2d_31">
    <path clip-path="url(#pbce4c10800)" d="M 53.840313 221.9343 
L 55.522725 222.650178 
L 57.205137 224.037192 
L 58.887549 212.090972 
L 60.569961 226.587509 
L 62.252373 208.064156 
L 63.934785 233.254126 
L 65.617197 203.500432 
L 67.299609 235.893928 
L 68.982021 202.471357 
L 70.664433 237.996821 
L 72.346845 202.918781 
L 74.029257 242.515803 
L 75.711669 200.726403 
L 77.394081 243.231681 
L 79.076493 198.086602 
L 80.758905 245.468801 
L 82.441318 199.473616 
L 84.12373 248.198087 
L 85.806142 198.936707 
L 87.488554 248.377057 
L 89.170966 199.697328 
L 90.853378 249.674586 
L 92.53579 196.207421 
L 94.218202 251.464282 
L 95.900614 198.265571 
L 97.583026 251.24057 
L 99.265438 199.518358 
L 100.94785 252.627585 
L 102.630262 199.563101 
L 104.312674 253.030266 
L 105.995086 197.818147 
L 107.677498 253.164493 
L 109.35991 199.026192 
L 111.042323 254.417281 
L 112.724735 196.520618 
L 114.407147 254.417281 
L 116.089559 197.818147 
L 117.771971 254.909447 
L 119.454383 199.74207 
L 121.136795 254.819962 
L 122.819207 197.68392 
L 124.501619 255.133159 
L 126.184031 197.818147 
L 127.866443 255.401613 
L 129.548855 199.876298 
L 131.231267 255.804295 
L 132.913679 197.191754 
L 134.596091 255.043674 
L 136.278503 197.728663 
L 137.960916 254.998932 
L 139.643328 191.867408 
L 141.32574 255.401613 
L 143.008152 197.907632 
L 144.690564 255.267386 
L 146.372976 198.534026 
L 148.055388 255.670068 
L 149.7378 199.965782 
L 151.420212 255.804295 
L 153.102624 200.278979 
L 154.785036 255.938522 
L 156.467448 195.178346 
L 158.14986 256.028007 
L 159.832272 197.057527 
L 161.514684 256.520173 
L 163.197096 194.059786 
L 164.879508 256.072749 
L 166.561921 198.355056 
L 168.244333 256.564916 
L 169.926745 195.849482 
L 171.609157 256.341204 
L 173.291569 198.176087 
L 174.973981 256.072749 
L 176.656393 200.323722 
L 178.338805 255.983265 
L 180.021217 200.681661 
L 181.703629 255.938522 
L 183.386041 200.592176 
L 185.068453 256.341204 
L 186.750865 198.265571 
L 188.433277 255.804295 
L 190.115689 202.560842 
L 191.798101 256.072749 
L 193.480514 200.771146 
L 195.162926 256.341204 
L 196.845338 200.547434 
L 198.52775 256.520173 
L 200.210162 197.460208 
L 201.892574 256.117492 
L 203.574986 202.247645 
L 205.257398 256.609658 
L 206.93981 203.858371 
L 208.622222 255.938522 
L 210.304634 201.263312 
L 211.987046 256.520173 
L 213.669458 195.267831 
L 215.35187 256.743885 
L 217.034282 200.815888 
L 218.716694 256.475431 
L 220.399106 203.455689 
L 222.081519 256.743885 
L 223.763931 198.131344 
L 225.446343 256.878113 
L 227.128755 202.247645 
L 228.811167 256.206977 
L 230.493579 199.697328 
L 232.175991 256.341204 
L 233.858403 202.292387 
L 235.540815 256.743885 
L 237.223227 199.786813 
L 238.905639 256.654401 
L 240.588051 199.026192 
L 242.270463 256.251719 
L 243.952875 197.325981 
L 245.635287 256.341204 
L 247.317699 200.771146 
L 249.000111 256.878113 
L 250.682524 200.636918 
L 252.364936 256.206977 
L 254.047348 207.035081 
L 255.72976 256.430689 
L 257.412172 203.053008 
L 259.094584 256.743885 
L 260.776996 199.026192 
L 262.459408 256.743885 
L 264.14182 200.726403 
L 265.824232 256.475431 
L 267.506644 199.697328 
L 269.189056 256.743885 
L 270.871468 199.160419 
L 272.55388 256.475431 
L 274.236292 204.39528 
L 275.918704 256.475431 
L 277.601117 203.008265 
L 279.283529 256.385946 
L 280.965941 203.858371 
L 282.648353 256.878113 
L 284.330765 205.021673 
L 286.013177 256.743885 
L 287.695589 202.918781 
L 289.378001 256.878113 
L 291.060413 208.645808 
L 292.742825 256.878113 
L 294.425237 200.592176 
L 296.107649 256.743885 
L 297.790061 202.202902 
L 299.472473 256.609658 
L 301.154885 200.368464 
L 302.837297 256.878113 
L 304.519709 203.679401 
L 306.202122 256.878113 
L 307.884534 202.829296 
L 309.566946 256.743885 
L 311.249358 208.51158 
L 312.93177 256.743885 
L 314.614182 202.202902 
L 316.296594 256.475431 
L 317.979006 201.665994 
L 319.661418 256.878113 
L 321.34383 207.079824 
L 323.026242 256.609658 
L 324.708654 204.663734 
L 326.391066 256.743885 
L 328.073478 200.994858 
L 329.75589 256.743885 
L 331.438302 208.466838 
L 333.120715 256.609658 
L 334.803127 202.247645 
L 336.485539 256.743885 
L 338.167951 204.484765 
L 339.850363 256.475431 
L 341.532775 203.724144 
L 343.215187 256.743885 
L 344.897599 207.706217 
L 346.580011 256.475431 
L 348.262423 200.457949 
L 349.944835 256.878113 
L 351.627247 204.663734 
L 353.309659 256.743885 
L 354.992071 207.616732 
L 356.674483 256.743885 
L 358.356895 206.274461 
L 360.039307 256.743885 
L 361.72172 207.214051 
L 363.404132 256.743885 
L 365.086544 203.903113 
L 366.768956 256.743885 
L 368.451368 205.33487 
L 370.13378 256.878113 
L 371.816192 199.831555 
L 373.498604 256.609658 
L 375.181016 209.495913 
L 376.863428 256.878113 
L 378.54584 199.697328 
L 380.228252 256.878113 
L 381.910664 207.124566 
L 383.593076 256.878113 
L 385.275488 199.026192 
L 386.9579 256.878113 
L 388.640312 201.308054 
L 388.640312 201.308054 
" style="fill:none;stroke:#008000;stroke-linecap:square;stroke-width:1.5;"/>
   </g>
   <g id="line2d_32">
    <path clip-path="url(#pbce4c10800)" d="M 53.840313 263.142048 
L 55.522725 256.072749 
L 57.205137 265.334426 
L 58.887549 256.564916 
L 60.569961 265.558138 
L 62.252373 256.83337 
L 63.934785 265.737107 
L 65.617197 256.878113 
L 67.299609 265.826592 
L 68.982021 256.922855 
L 70.664433 265.826592 
L 72.346845 256.967597 
L 74.029257 265.826592 
L 75.711669 256.922855 
L 77.394081 265.826592 
L 79.076493 256.922855 
L 80.758905 265.826592 
L 82.441318 256.922855 
L 84.12373 265.826592 
L 85.806142 256.878113 
L 87.488554 265.826592 
L 89.170966 256.878113 
L 90.853378 265.826592 
L 92.53579 256.878113 
L 94.218202 265.826592 
L 95.900614 256.878113 
L 97.583026 265.826592 
L 99.265438 256.878113 
L 100.94785 265.826592 
L 102.630262 256.878113 
L 104.312674 265.647623 
L 105.995086 256.878113 
L 107.677498 265.826592 
L 109.35991 256.878113 
L 111.042323 265.826592 
L 112.724735 256.878113 
L 114.407147 265.826592 
L 116.089559 256.878113 
L 117.771971 265.826592 
L 119.454383 256.878113 
L 121.136795 265.826592 
L 122.819207 256.878113 
L 124.501619 265.826592 
L 126.184031 256.699143 
L 127.866443 265.826592 
L 129.548855 256.878113 
L 131.231267 265.826592 
L 132.913679 256.878113 
L 134.596091 265.826592 
L 136.278503 256.878113 
L 137.960916 265.826592 
L 139.643328 256.878113 
L 141.32574 265.826592 
L 143.008152 256.878113 
L 144.690564 265.826592 
L 146.372976 256.878113 
L 148.055388 265.826592 
L 149.7378 256.878113 
L 151.420212 265.826592 
L 153.102624 256.878113 
L 154.785036 265.826592 
L 156.467448 256.878113 
L 158.14986 265.826592 
L 159.832272 256.878113 
L 161.514684 265.826592 
L 163.197096 256.878113 
L 164.879508 265.826592 
L 166.561921 256.878113 
L 168.244333 265.826592 
L 169.926745 256.878113 
L 171.609157 265.826592 
L 173.291569 256.878113 
L 174.973981 265.826592 
L 176.656393 256.878113 
L 178.338805 265.826592 
L 180.021217 256.878113 
L 181.703629 265.826592 
L 183.386041 256.878113 
L 185.068453 265.826592 
L 186.750865 256.878113 
L 188.433277 265.826592 
L 190.115689 256.878113 
L 191.798101 265.826592 
L 193.480514 256.878113 
L 195.162926 265.826592 
L 196.845338 256.878113 
L 198.52775 265.826592 
L 200.210162 256.878113 
L 201.892574 265.647623 
L 203.574986 256.878113 
L 205.257398 265.826592 
L 206.93981 256.878113 
L 208.622222 265.78185 
L 210.304634 256.788628 
L 211.987046 265.826592 
L 213.669458 256.878113 
L 215.35187 265.826592 
L 217.034282 256.878113 
L 218.716694 265.826592 
L 220.399106 256.878113 
L 222.081519 265.826592 
L 223.763931 256.878113 
L 225.446343 265.826592 
L 227.128755 256.878113 
L 228.811167 265.826592 
L 230.493579 256.878113 
L 232.175991 265.826592 
L 233.858403 256.878113 
L 235.540815 265.826592 
L 237.223227 256.878113 
L 238.905639 265.826592 
L 240.588051 256.878113 
L 242.270463 265.826592 
L 243.952875 256.878113 
L 245.635287 265.826592 
L 247.317699 256.878113 
L 249.000111 265.826592 
L 250.682524 256.878113 
L 252.364936 265.826592 
L 254.047348 256.878113 
L 255.72976 265.826592 
L 257.412172 256.878113 
L 259.094584 265.826592 
L 260.776996 256.878113 
L 262.459408 265.78185 
L 264.14182 256.878113 
L 265.824232 265.826592 
L 267.506644 256.878113 
L 269.189056 265.826592 
L 270.871468 256.878113 
L 272.55388 265.826592 
L 274.236292 256.878113 
L 275.918704 265.826592 
L 277.601117 256.878113 
L 279.283529 265.826592 
L 280.965941 256.878113 
L 282.648353 265.826592 
L 284.330765 256.878113 
L 286.013177 265.826592 
L 287.695589 256.878113 
L 289.378001 265.826592 
L 291.060413 256.788628 
L 292.742825 265.826592 
L 294.425237 256.878113 
L 296.107649 265.826592 
L 297.790061 256.878113 
L 299.472473 265.826592 
L 301.154885 256.878113 
L 302.837297 265.826592 
L 304.519709 256.878113 
L 306.202122 265.826592 
L 307.884534 256.878113 
L 309.566946 265.826592 
L 311.249358 256.878113 
L 312.93177 265.826592 
L 314.614182 256.743885 
L 316.296594 265.78185 
L 317.979006 256.878113 
L 319.661418 265.826592 
L 321.34383 256.878113 
L 323.026242 265.826592 
L 324.708654 256.878113 
L 326.391066 265.826592 
L 328.073478 256.878113 
L 329.75589 265.826592 
L 331.438302 256.878113 
L 333.120715 265.826592 
L 334.803127 256.878113 
L 336.485539 265.826592 
L 338.167951 256.878113 
L 339.850363 265.826592 
L 341.532775 256.878113 
L 343.215187 265.826592 
L 344.897599 256.878113 
L 346.580011 265.826592 
L 348.262423 256.878113 
L 349.944835 265.826592 
L 351.627247 256.878113 
L 353.309659 265.826592 
L 354.992071 256.878113 
L 356.674483 265.826592 
L 358.356895 256.878113 
L 360.039307 265.826592 
L 361.72172 256.878113 
L 363.404132 265.826592 
L 365.086544 256.878113 
L 366.768956 265.826592 
L 368.451368 256.878113 
L 370.13378 265.826592 
L 371.816192 256.878113 
L 373.498604 265.826592 
L 375.181016 256.878113 
L 376.863428 265.826592 
L 378.54584 256.878113 
L 380.228252 265.826592 
L 381.910664 256.878113 
L 383.593076 265.826592 
L 385.275488 256.878113 
L 386.9579 265.826592 
L 388.640312 256.878113 
L 388.640312 256.878113 
" style="fill:none;stroke:#008000;stroke-dasharray:9.6,2.4,1.5,2.4;stroke-dashoffset:0;stroke-width:1.5;"/>
   </g>
  </g>
  <g id="text_31">
   <!-- Double Track -->
   <g transform="translate(167.259063 18.597656)scale(0.15 -0.15)">
    <defs>
     <path d="M 3116 1747 
Q 3116 2381 2855 2742 
Q 2594 3103 2138 3103 
Q 1681 3103 1420 2742 
Q 1159 2381 1159 1747 
Q 1159 1113 1420 752 
Q 1681 391 2138 391 
Q 2594 391 2855 752 
Q 3116 1113 3116 1747 
z
M 1159 2969 
Q 1341 3281 1617 3432 
Q 1894 3584 2278 3584 
Q 2916 3584 3314 3078 
Q 3713 2572 3713 1747 
Q 3713 922 3314 415 
Q 2916 -91 2278 -91 
Q 1894 -91 1617 61 
Q 1341 213 1159 525 
L 1159 0 
L 581 0 
L 581 4863 
L 1159 4863 
L 1159 2969 
z
" id="DejaVuSans-62" transform="scale(0.015625)"/>
     <path d="M 581 4863 
L 1159 4863 
L 1159 1991 
L 2875 3500 
L 3609 3500 
L 1753 1863 
L 3688 0 
L 2938 0 
L 1159 1709 
L 1159 0 
L 581 0 
L 581 4863 
z
" id="DejaVuSans-6b" transform="scale(0.015625)"/>
    </defs>
    <use xlink:href="#DejaVuSans-44"/>
    <use x="77.001953" xlink:href="#DejaVuSans-6f"/>
    <use x="138.183594" xlink:href="#DejaVuSans-75"/>
    <use x="201.5625" xlink:href="#DejaVuSans-62"/>
    <use x="265.039062" xlink:href="#DejaVuSans-6c"/>
    <use x="292.822266" xlink:href="#DejaVuSans-65"/>
    <use x="354.345703" xlink:href="#DejaVuSans-20"/>
    <use x="386.132812" xlink:href="#DejaVuSans-54"/>
    <use x="432.466797" xlink:href="#DejaVuSans-72"/>
    <use x="473.580078" xlink:href="#DejaVuSans-61"/>
    <use x="534.859375" xlink:href="#DejaVuSans-63"/>
    <use x="589.839844" xlink:href="#DejaVuSans-6b"/>
   </g>
  </g>
 </g>
 <defs>
  <clipPath id="pbed6631650">
   <rect height="77.657143" width="334.8" x="53.840313" y="50.4"/>
  </clipPath>
  <clipPath id="pbce4c10800">
   <rect height="77.657143" width="334.8" x="53.840313" y="190.182857"/>
  </clipPath>
 </defs>
</svg>
