<?xml version="1.0" encoding="utf-8" standalone="no"?>
<!DOCTYPE svg PUBLIC "-//W3C//DTD SVG 1.1//EN"
  "http://www.w3.org/Graphics/SVG/1.1/DTD/svg11.dtd">
<svg height="341.082321pt" version="1.1" viewBox="0 0 411.746563 341.082321" width="411.746563pt" xmlns="http://www.w3.org/2000/svg" xmlns:xlink="http://www.w3.org/1999/xlink">
 <metadata>
  <rdf:RDF xmlns:cc="http://creativecommons.org/ns#" xmlns:dc="http://purl.org/dc/elements/1.1/" xmlns:rdf="http://www.w3.org/1999/02/22-rdf-syntax-ns#">
   <cc:Work>
    <dc:type rdf:resource="http://purl.org/dc/dcmitype/StillImage"/>
    <dc:date>2022-07-21T20:15:01.721776</dc:date>
    <dc:format>image/svg+xml</dc:format>
    <dc:creator>
     <cc:Agent>
      <dc:title>Matplotlib v3.4.3, https://matplotlib.org/</dc:title>
     </cc:Agent>
    </dc:creator>
   </cc:Work>
  </rdf:RDF>
 </metadata>
 <defs>
  <style type="text/css">*{stroke-linecap:butt;stroke-linejoin:round;}</style>
 </defs>
 <g id="figure_1">
  <g id="patch_1">
   <path d="M 0 341.082321 
L 411.746563 341.082321 
L 411.746563 0 
L 0 0 
z
" style="fill:none;"/>
  </g>
  <g id="axes_1">
   <g id="patch_2">
    <path d="M 60.202813 128.057143 
L 395.002813 128.057143 
L 395.002813 50.4 
L 60.202813 50.4 
z
" style="fill:none;"/>
   </g>
   <g id="line2d_1">
    <path clip-path="url(#pfe4f202047)" d="M 60.202813 62.009687 
L 395.002813 62.009687 
" style="fill:none;stroke:#808080;stroke-linecap:square;stroke-width:1.5;"/>
   </g>
   <g id="matplotlib.axis_1">
    <g id="xtick_1">
     <g id="line2d_2">
      <defs>
       <path d="M 0 0 
L 0 3.5 
" id="m36da5cdd08" style="stroke:#000000;stroke-width:0.8;"/>
      </defs>
      <g>
       <use style="stroke:#000000;stroke-width:0.8;" x="124.457358" xlink:href="#m36da5cdd08" y="128.057143"/>
      </g>
     </g>
     <g id="text_1">
      <!-- 20 -->
      <g transform="translate(118.094858 142.65558)scale(0.1 -0.1)">
       <defs>
        <path d="M 1228 531 
L 3431 531 
L 3431 0 
L 469 0 
L 469 531 
Q 828 903 1448 1529 
Q 2069 2156 2228 2338 
Q 2531 2678 2651 2914 
Q 2772 3150 2772 3378 
Q 2772 3750 2511 3984 
Q 2250 4219 1831 4219 
Q 1534 4219 1204 4116 
Q 875 4013 500 3803 
L 500 4441 
Q 881 4594 1212 4672 
Q 1544 4750 1819 4750 
Q 2544 4750 2975 4387 
Q 3406 4025 3406 3419 
Q 3406 3131 3298 2873 
Q 3191 2616 2906 2266 
Q 2828 2175 2409 1742 
Q 1991 1309 1228 531 
z
" id="DejaVuSans-32" transform="scale(0.015625)"/>
        <path d="M 2034 4250 
Q 1547 4250 1301 3770 
Q 1056 3291 1056 2328 
Q 1056 1369 1301 889 
Q 1547 409 2034 409 
Q 2525 409 2770 889 
Q 3016 1369 3016 2328 
Q 3016 3291 2770 3770 
Q 2525 4250 2034 4250 
z
M 2034 4750 
Q 2819 4750 3233 4129 
Q 3647 3509 3647 2328 
Q 3647 1150 3233 529 
Q 2819 -91 2034 -91 
Q 1250 -91 836 529 
Q 422 1150 422 2328 
Q 422 3509 836 4129 
Q 1250 4750 2034 4750 
z
" id="DejaVuSans-30" transform="scale(0.015625)"/>
       </defs>
       <use xlink:href="#DejaVuSans-32"/>
       <use x="63.623047" xlink:href="#DejaVuSans-30"/>
      </g>
     </g>
    </g>
    <g id="xtick_2">
     <g id="line2d_3">
      <g>
       <use style="stroke:#000000;stroke-width:0.8;" x="192.093722" xlink:href="#m36da5cdd08" y="128.057143"/>
      </g>
     </g>
     <g id="text_2">
      <!-- 40 -->
      <g transform="translate(185.731222 142.65558)scale(0.1 -0.1)">
       <defs>
        <path d="M 2419 4116 
L 825 1625 
L 2419 1625 
L 2419 4116 
z
M 2253 4666 
L 3047 4666 
L 3047 1625 
L 3713 1625 
L 3713 1100 
L 3047 1100 
L 3047 0 
L 2419 0 
L 2419 1100 
L 313 1100 
L 313 1709 
L 2253 4666 
z
" id="DejaVuSans-34" transform="scale(0.015625)"/>
       </defs>
       <use xlink:href="#DejaVuSans-34"/>
       <use x="63.623047" xlink:href="#DejaVuSans-30"/>
      </g>
     </g>
    </g>
    <g id="xtick_3">
     <g id="line2d_4">
      <g>
       <use style="stroke:#000000;stroke-width:0.8;" x="259.730085" xlink:href="#m36da5cdd08" y="128.057143"/>
      </g>
     </g>
     <g id="text_3">
      <!-- 60 -->
      <g transform="translate(253.367585 142.65558)scale(0.1 -0.1)">
       <defs>
        <path d="M 2113 2584 
Q 1688 2584 1439 2293 
Q 1191 2003 1191 1497 
Q 1191 994 1439 701 
Q 1688 409 2113 409 
Q 2538 409 2786 701 
Q 3034 994 3034 1497 
Q 3034 2003 2786 2293 
Q 2538 2584 2113 2584 
z
M 3366 4563 
L 3366 3988 
Q 3128 4100 2886 4159 
Q 2644 4219 2406 4219 
Q 1781 4219 1451 3797 
Q 1122 3375 1075 2522 
Q 1259 2794 1537 2939 
Q 1816 3084 2150 3084 
Q 2853 3084 3261 2657 
Q 3669 2231 3669 1497 
Q 3669 778 3244 343 
Q 2819 -91 2113 -91 
Q 1303 -91 875 529 
Q 447 1150 447 2328 
Q 447 3434 972 4092 
Q 1497 4750 2381 4750 
Q 2619 4750 2861 4703 
Q 3103 4656 3366 4563 
z
" id="DejaVuSans-36" transform="scale(0.015625)"/>
       </defs>
       <use xlink:href="#DejaVuSans-36"/>
       <use x="63.623047" xlink:href="#DejaVuSans-30"/>
      </g>
     </g>
    </g>
    <g id="xtick_4">
     <g id="line2d_5">
      <g>
       <use style="stroke:#000000;stroke-width:0.8;" x="327.366449" xlink:href="#m36da5cdd08" y="128.057143"/>
      </g>
     </g>
     <g id="text_4">
      <!-- 80 -->
      <g transform="translate(321.003949 142.65558)scale(0.1 -0.1)">
       <defs>
        <path d="M 2034 2216 
Q 1584 2216 1326 1975 
Q 1069 1734 1069 1313 
Q 1069 891 1326 650 
Q 1584 409 2034 409 
Q 2484 409 2743 651 
Q 3003 894 3003 1313 
Q 3003 1734 2745 1975 
Q 2488 2216 2034 2216 
z
M 1403 2484 
Q 997 2584 770 2862 
Q 544 3141 544 3541 
Q 544 4100 942 4425 
Q 1341 4750 2034 4750 
Q 2731 4750 3128 4425 
Q 3525 4100 3525 3541 
Q 3525 3141 3298 2862 
Q 3072 2584 2669 2484 
Q 3125 2378 3379 2068 
Q 3634 1759 3634 1313 
Q 3634 634 3220 271 
Q 2806 -91 2034 -91 
Q 1263 -91 848 271 
Q 434 634 434 1313 
Q 434 1759 690 2068 
Q 947 2378 1403 2484 
z
M 1172 3481 
Q 1172 3119 1398 2916 
Q 1625 2713 2034 2713 
Q 2441 2713 2670 2916 
Q 2900 3119 2900 3481 
Q 2900 3844 2670 4047 
Q 2441 4250 2034 4250 
Q 1625 4250 1398 4047 
Q 1172 3844 1172 3481 
z
" id="DejaVuSans-38" transform="scale(0.015625)"/>
       </defs>
       <use xlink:href="#DejaVuSans-38"/>
       <use x="63.623047" xlink:href="#DejaVuSans-30"/>
      </g>
     </g>
    </g>
    <g id="xtick_5">
     <g id="line2d_6">
      <g>
       <use style="stroke:#000000;stroke-width:0.8;" x="395.002813" xlink:href="#m36da5cdd08" y="128.057143"/>
      </g>
     </g>
     <g id="text_5">
      <!-- 100 -->
      <g transform="translate(385.459063 142.65558)scale(0.1 -0.1)">
       <defs>
        <path d="M 794 531 
L 1825 531 
L 1825 4091 
L 703 3866 
L 703 4441 
L 1819 4666 
L 2450 4666 
L 2450 531 
L 3481 531 
L 3481 0 
L 794 0 
L 794 531 
z
" id="DejaVuSans-31" transform="scale(0.015625)"/>
       </defs>
       <use xlink:href="#DejaVuSans-31"/>
       <use x="63.623047" xlink:href="#DejaVuSans-30"/>
       <use x="127.246094" xlink:href="#DejaVuSans-30"/>
      </g>
     </g>
    </g>
    <g id="text_6">
     <!-- Trial -->
     <g transform="translate(217.38875 156.333705)scale(0.1 -0.1)">
      <defs>
       <path d="M -19 4666 
L 3928 4666 
L 3928 4134 
L 2272 4134 
L 2272 0 
L 1638 0 
L 1638 4134 
L -19 4134 
L -19 4666 
z
" id="DejaVuSans-54" transform="scale(0.015625)"/>
       <path d="M 2631 2963 
Q 2534 3019 2420 3045 
Q 2306 3072 2169 3072 
Q 1681 3072 1420 2755 
Q 1159 2438 1159 1844 
L 1159 0 
L 581 0 
L 581 3500 
L 1159 3500 
L 1159 2956 
Q 1341 3275 1631 3429 
Q 1922 3584 2338 3584 
Q 2397 3584 2469 3576 
Q 2541 3569 2628 3553 
L 2631 2963 
z
" id="DejaVuSans-72" transform="scale(0.015625)"/>
       <path d="M 603 3500 
L 1178 3500 
L 1178 0 
L 603 0 
L 603 3500 
z
M 603 4863 
L 1178 4863 
L 1178 4134 
L 603 4134 
L 603 4863 
z
" id="DejaVuSans-69" transform="scale(0.015625)"/>
       <path d="M 2194 1759 
Q 1497 1759 1228 1600 
Q 959 1441 959 1056 
Q 959 750 1161 570 
Q 1363 391 1709 391 
Q 2188 391 2477 730 
Q 2766 1069 2766 1631 
L 2766 1759 
L 2194 1759 
z
M 3341 1997 
L 3341 0 
L 2766 0 
L 2766 531 
Q 2569 213 2275 61 
Q 1981 -91 1556 -91 
Q 1019 -91 701 211 
Q 384 513 384 1019 
Q 384 1609 779 1909 
Q 1175 2209 1959 2209 
L 2766 2209 
L 2766 2266 
Q 2766 2663 2505 2880 
Q 2244 3097 1772 3097 
Q 1472 3097 1187 3025 
Q 903 2953 641 2809 
L 641 3341 
Q 956 3463 1253 3523 
Q 1550 3584 1831 3584 
Q 2591 3584 2966 3190 
Q 3341 2797 3341 1997 
z
" id="DejaVuSans-61" transform="scale(0.015625)"/>
       <path d="M 603 4863 
L 1178 4863 
L 1178 0 
L 603 0 
L 603 4863 
z
" id="DejaVuSans-6c" transform="scale(0.015625)"/>
      </defs>
      <use xlink:href="#DejaVuSans-54"/>
      <use x="46.333984" xlink:href="#DejaVuSans-72"/>
      <use x="87.447266" xlink:href="#DejaVuSans-69"/>
      <use x="115.230469" xlink:href="#DejaVuSans-61"/>
      <use x="176.509766" xlink:href="#DejaVuSans-6c"/>
     </g>
    </g>
   </g>
   <g id="matplotlib.axis_2">
    <g id="ytick_1">
     <g id="line2d_7">
      <defs>
       <path d="M 0 0 
L -3.5 0 
" id="m5390b4b669" style="stroke:#000000;stroke-width:0.8;"/>
      </defs>
      <g>
       <use style="stroke:#000000;stroke-width:0.8;" x="60.202813" xlink:href="#m5390b4b669" y="114.913252"/>
      </g>
     </g>
     <g id="text_7">
      <!-- −40 -->
      <g transform="translate(32.098125 118.712471)scale(0.1 -0.1)">
       <defs>
        <path d="M 678 2272 
L 4684 2272 
L 4684 1741 
L 678 1741 
L 678 2272 
z
" id="DejaVuSans-2212" transform="scale(0.015625)"/>
       </defs>
       <use xlink:href="#DejaVuSans-2212"/>
       <use x="83.789062" xlink:href="#DejaVuSans-34"/>
       <use x="147.412109" xlink:href="#DejaVuSans-30"/>
      </g>
     </g>
    </g>
    <g id="ytick_2">
     <g id="line2d_8">
      <g>
       <use style="stroke:#000000;stroke-width:0.8;" x="60.202813" xlink:href="#m5390b4b669" y="88.46147"/>
      </g>
     </g>
     <g id="text_8">
      <!-- −20 -->
      <g transform="translate(32.098125 92.260688)scale(0.1 -0.1)">
       <use xlink:href="#DejaVuSans-2212"/>
       <use x="83.789062" xlink:href="#DejaVuSans-32"/>
       <use x="147.412109" xlink:href="#DejaVuSans-30"/>
      </g>
     </g>
    </g>
    <g id="ytick_3">
     <g id="line2d_9">
      <g>
       <use style="stroke:#000000;stroke-width:0.8;" x="60.202813" xlink:href="#m5390b4b669" y="62.009687"/>
      </g>
     </g>
     <g id="text_9">
      <!-- 0 -->
      <g transform="translate(46.840313 65.808906)scale(0.1 -0.1)">
       <use xlink:href="#DejaVuSans-30"/>
      </g>
     </g>
    </g>
    <g id="text_10">
     <!-- Directionality -->
     <g transform="translate(14.798438 122.575446)rotate(-90)scale(0.1 -0.1)">
      <defs>
       <path d="M 1259 4147 
L 1259 519 
L 2022 519 
Q 2988 519 3436 956 
Q 3884 1394 3884 2338 
Q 3884 3275 3436 3711 
Q 2988 4147 2022 4147 
L 1259 4147 
z
M 628 4666 
L 1925 4666 
Q 3281 4666 3915 4102 
Q 4550 3538 4550 2338 
Q 4550 1131 3912 565 
Q 3275 0 1925 0 
L 628 0 
L 628 4666 
z
" id="DejaVuSans-44" transform="scale(0.015625)"/>
       <path d="M 3597 1894 
L 3597 1613 
L 953 1613 
Q 991 1019 1311 708 
Q 1631 397 2203 397 
Q 2534 397 2845 478 
Q 3156 559 3463 722 
L 3463 178 
Q 3153 47 2828 -22 
Q 2503 -91 2169 -91 
Q 1331 -91 842 396 
Q 353 884 353 1716 
Q 353 2575 817 3079 
Q 1281 3584 2069 3584 
Q 2775 3584 3186 3129 
Q 3597 2675 3597 1894 
z
M 3022 2063 
Q 3016 2534 2758 2815 
Q 2500 3097 2075 3097 
Q 1594 3097 1305 2825 
Q 1016 2553 972 2059 
L 3022 2063 
z
" id="DejaVuSans-65" transform="scale(0.015625)"/>
       <path d="M 3122 3366 
L 3122 2828 
Q 2878 2963 2633 3030 
Q 2388 3097 2138 3097 
Q 1578 3097 1268 2742 
Q 959 2388 959 1747 
Q 959 1106 1268 751 
Q 1578 397 2138 397 
Q 2388 397 2633 464 
Q 2878 531 3122 666 
L 3122 134 
Q 2881 22 2623 -34 
Q 2366 -91 2075 -91 
Q 1284 -91 818 406 
Q 353 903 353 1747 
Q 353 2603 823 3093 
Q 1294 3584 2113 3584 
Q 2378 3584 2631 3529 
Q 2884 3475 3122 3366 
z
" id="DejaVuSans-63" transform="scale(0.015625)"/>
       <path d="M 1172 4494 
L 1172 3500 
L 2356 3500 
L 2356 3053 
L 1172 3053 
L 1172 1153 
Q 1172 725 1289 603 
Q 1406 481 1766 481 
L 2356 481 
L 2356 0 
L 1766 0 
Q 1100 0 847 248 
Q 594 497 594 1153 
L 594 3053 
L 172 3053 
L 172 3500 
L 594 3500 
L 594 4494 
L 1172 4494 
z
" id="DejaVuSans-74" transform="scale(0.015625)"/>
       <path d="M 1959 3097 
Q 1497 3097 1228 2736 
Q 959 2375 959 1747 
Q 959 1119 1226 758 
Q 1494 397 1959 397 
Q 2419 397 2687 759 
Q 2956 1122 2956 1747 
Q 2956 2369 2687 2733 
Q 2419 3097 1959 3097 
z
M 1959 3584 
Q 2709 3584 3137 3096 
Q 3566 2609 3566 1747 
Q 3566 888 3137 398 
Q 2709 -91 1959 -91 
Q 1206 -91 779 398 
Q 353 888 353 1747 
Q 353 2609 779 3096 
Q 1206 3584 1959 3584 
z
" id="DejaVuSans-6f" transform="scale(0.015625)"/>
       <path d="M 3513 2113 
L 3513 0 
L 2938 0 
L 2938 2094 
Q 2938 2591 2744 2837 
Q 2550 3084 2163 3084 
Q 1697 3084 1428 2787 
Q 1159 2491 1159 1978 
L 1159 0 
L 581 0 
L 581 3500 
L 1159 3500 
L 1159 2956 
Q 1366 3272 1645 3428 
Q 1925 3584 2291 3584 
Q 2894 3584 3203 3211 
Q 3513 2838 3513 2113 
z
" id="DejaVuSans-6e" transform="scale(0.015625)"/>
       <path d="M 2059 -325 
Q 1816 -950 1584 -1140 
Q 1353 -1331 966 -1331 
L 506 -1331 
L 506 -850 
L 844 -850 
Q 1081 -850 1212 -737 
Q 1344 -625 1503 -206 
L 1606 56 
L 191 3500 
L 800 3500 
L 1894 763 
L 2988 3500 
L 3597 3500 
L 2059 -325 
z
" id="DejaVuSans-79" transform="scale(0.015625)"/>
      </defs>
      <use xlink:href="#DejaVuSans-44"/>
      <use x="77.001953" xlink:href="#DejaVuSans-69"/>
      <use x="104.785156" xlink:href="#DejaVuSans-72"/>
      <use x="143.648438" xlink:href="#DejaVuSans-65"/>
      <use x="205.171875" xlink:href="#DejaVuSans-63"/>
      <use x="260.152344" xlink:href="#DejaVuSans-74"/>
      <use x="299.361328" xlink:href="#DejaVuSans-69"/>
      <use x="327.144531" xlink:href="#DejaVuSans-6f"/>
      <use x="388.326172" xlink:href="#DejaVuSans-6e"/>
      <use x="451.705078" xlink:href="#DejaVuSans-61"/>
      <use x="512.984375" xlink:href="#DejaVuSans-6c"/>
      <use x="540.767578" xlink:href="#DejaVuSans-69"/>
      <use x="568.550781" xlink:href="#DejaVuSans-74"/>
      <use x="607.759766" xlink:href="#DejaVuSans-79"/>
     </g>
     <!-- [$pairs_{fwd}-pairs_{bwd}$] -->
     <g transform="translate(25.998125 137.778571)rotate(-90)scale(0.1 -0.1)">
      <defs>
       <path d="M 550 4863 
L 1875 4863 
L 1875 4416 
L 1125 4416 
L 1125 -397 
L 1875 -397 
L 1875 -844 
L 550 -844 
L 550 4863 
z
" id="DejaVuSans-5b" transform="scale(0.015625)"/>
       <path d="M 3175 2156 
Q 3175 2616 2975 2859 
Q 2775 3103 2400 3103 
Q 2144 3103 1911 2972 
Q 1678 2841 1497 2591 
Q 1319 2344 1212 1994 
Q 1106 1644 1106 1300 
Q 1106 863 1306 627 
Q 1506 391 1875 391 
Q 2147 391 2380 519 
Q 2613 647 2778 891 
Q 2956 1147 3065 1494 
Q 3175 1841 3175 2156 
z
M 1394 2969 
Q 1625 3272 1939 3428 
Q 2253 3584 2638 3584 
Q 3175 3584 3472 3232 
Q 3769 2881 3769 2247 
Q 3769 1728 3584 1258 
Q 3400 788 3053 416 
Q 2822 169 2531 39 
Q 2241 -91 1919 -91 
Q 1547 -91 1294 64 
Q 1041 219 916 525 
L 556 -1331 
L -19 -1331 
L 922 3500 
L 1497 3500 
L 1394 2969 
z
" id="DejaVuSans-Oblique-70" transform="scale(0.015625)"/>
       <path d="M 3438 1997 
L 3047 0 
L 2472 0 
L 2578 531 
Q 2325 219 2001 64 
Q 1678 -91 1281 -91 
Q 834 -91 548 182 
Q 263 456 263 884 
Q 263 1497 752 1853 
Q 1241 2209 2100 2209 
L 2900 2209 
L 2931 2363 
Q 2938 2388 2941 2417 
Q 2944 2447 2944 2509 
Q 2944 2788 2717 2942 
Q 2491 3097 2081 3097 
Q 1800 3097 1504 3025 
Q 1209 2953 897 2809 
L 997 3341 
Q 1322 3463 1633 3523 
Q 1944 3584 2234 3584 
Q 2853 3584 3176 3315 
Q 3500 3047 3500 2534 
Q 3500 2431 3484 2292 
Q 3469 2153 3438 1997 
z
M 2816 1759 
L 2241 1759 
Q 1534 1759 1195 1570 
Q 856 1381 856 984 
Q 856 709 1029 553 
Q 1203 397 1509 397 
Q 1978 397 2328 733 
Q 2678 1069 2791 1631 
L 2816 1759 
z
" id="DejaVuSans-Oblique-61" transform="scale(0.015625)"/>
       <path d="M 1172 4863 
L 1747 4863 
L 1606 4134 
L 1031 4134 
L 1172 4863 
z
M 909 3500 
L 1484 3500 
L 800 0 
L 225 0 
L 909 3500 
z
" id="DejaVuSans-Oblique-69" transform="scale(0.015625)"/>
       <path d="M 2853 2969 
Q 2766 3016 2653 3041 
Q 2541 3066 2413 3066 
Q 1953 3066 1609 2717 
Q 1266 2369 1153 1784 
L 800 0 
L 225 0 
L 909 3500 
L 1484 3500 
L 1375 2956 
Q 1603 3259 1920 3421 
Q 2238 3584 2597 3584 
Q 2691 3584 2781 3573 
Q 2872 3563 2963 3538 
L 2853 2969 
z
" id="DejaVuSans-Oblique-72" transform="scale(0.015625)"/>
       <path d="M 3200 3397 
L 3091 2853 
Q 2863 2978 2609 3040 
Q 2356 3103 2088 3103 
Q 1634 3103 1373 2948 
Q 1113 2794 1113 2528 
Q 1113 2219 1719 2053 
Q 1766 2041 1788 2034 
L 1972 1978 
Q 2547 1819 2739 1644 
Q 2931 1469 2931 1166 
Q 2931 609 2489 259 
Q 2047 -91 1331 -91 
Q 1053 -91 747 -37 
Q 441 16 72 128 
L 184 722 
Q 500 559 806 475 
Q 1113 391 1394 391 
Q 1816 391 2080 572 
Q 2344 753 2344 1031 
Q 2344 1331 1650 1516 
L 1591 1531 
L 1394 1581 
Q 956 1697 753 1886 
Q 550 2075 550 2369 
Q 550 2928 970 3256 
Q 1391 3584 2113 3584 
Q 2397 3584 2667 3537 
Q 2938 3491 3200 3397 
z
" id="DejaVuSans-Oblique-73" transform="scale(0.015625)"/>
       <path d="M 3059 4863 
L 2969 4384 
L 2419 4384 
Q 2106 4384 1964 4261 
Q 1822 4138 1753 3809 
L 1691 3500 
L 2638 3500 
L 2553 3053 
L 1606 3053 
L 1013 0 
L 434 0 
L 1031 3053 
L 481 3053 
L 563 3500 
L 1113 3500 
L 1159 3744 
Q 1278 4363 1576 4613 
Q 1875 4863 2516 4863 
L 3059 4863 
z
" id="DejaVuSans-Oblique-66" transform="scale(0.015625)"/>
       <path d="M 544 3500 
L 1113 3500 
L 1259 684 
L 2566 3500 
L 3231 3500 
L 3425 684 
L 4666 3500 
L 5241 3500 
L 3641 0 
L 2969 0 
L 2797 2900 
L 1459 0 
L 781 0 
L 544 3500 
z
" id="DejaVuSans-Oblique-77" transform="scale(0.015625)"/>
       <path d="M 2675 525 
Q 2444 222 2128 65 
Q 1813 -91 1428 -91 
Q 903 -91 598 267 
Q 294 625 294 1247 
Q 294 1766 478 2236 
Q 663 2706 1013 3078 
Q 1244 3325 1534 3454 
Q 1825 3584 2144 3584 
Q 2481 3584 2739 3421 
Q 2997 3259 3138 2956 
L 3513 4863 
L 4091 4863 
L 3144 0 
L 2566 0 
L 2675 525 
z
M 891 1350 
Q 891 897 1095 644 
Q 1300 391 1663 391 
Q 1931 391 2161 520 
Q 2391 650 2566 903 
Q 2750 1166 2856 1509 
Q 2963 1853 2963 2188 
Q 2963 2622 2758 2865 
Q 2553 3109 2194 3109 
Q 1922 3109 1687 2981 
Q 1453 2853 1288 2613 
Q 1106 2353 998 2009 
Q 891 1666 891 1350 
z
" id="DejaVuSans-Oblique-64" transform="scale(0.015625)"/>
       <path d="M 3169 2138 
Q 3169 2591 2961 2847 
Q 2753 3103 2388 3103 
Q 2122 3103 1889 2973 
Q 1656 2844 1484 2597 
Q 1303 2338 1198 1995 
Q 1094 1653 1094 1313 
Q 1094 881 1298 636 
Q 1503 391 1863 391 
Q 2134 391 2365 517 
Q 2597 644 2772 891 
Q 2950 1147 3059 1487 
Q 3169 1828 3169 2138 
z
M 1381 2969 
Q 1594 3256 1914 3420 
Q 2234 3584 2584 3584 
Q 3122 3584 3439 3221 
Q 3756 2859 3756 2241 
Q 3756 1734 3570 1259 
Q 3384 784 3041 416 
Q 2816 172 2522 40 
Q 2228 -91 1906 -91 
Q 1566 -91 1316 65 
Q 1066 222 909 531 
L 806 0 
L 231 0 
L 1178 4863 
L 1753 4863 
L 1381 2969 
z
" id="DejaVuSans-Oblique-62" transform="scale(0.015625)"/>
       <path d="M 1947 4863 
L 1947 -844 
L 622 -844 
L 622 -397 
L 1369 -397 
L 1369 4416 
L 622 4416 
L 622 4863 
L 1947 4863 
z
" id="DejaVuSans-5d" transform="scale(0.015625)"/>
      </defs>
      <use transform="translate(0 0.015625)" xlink:href="#DejaVuSans-5b"/>
      <use transform="translate(39.013672 0.015625)" xlink:href="#DejaVuSans-Oblique-70"/>
      <use transform="translate(102.490234 0.015625)" xlink:href="#DejaVuSans-Oblique-61"/>
      <use transform="translate(163.769531 0.015625)" xlink:href="#DejaVuSans-Oblique-69"/>
      <use transform="translate(191.552734 0.015625)" xlink:href="#DejaVuSans-Oblique-72"/>
      <use transform="translate(232.666016 0.015625)" xlink:href="#DejaVuSans-Oblique-73"/>
      <use transform="translate(284.765625 -16.390625)scale(0.7)" xlink:href="#DejaVuSans-Oblique-66"/>
      <use transform="translate(309.40918 -16.390625)scale(0.7)" xlink:href="#DejaVuSans-Oblique-77"/>
      <use transform="translate(366.660156 -16.390625)scale(0.7)" xlink:href="#DejaVuSans-Oblique-64"/>
      <use transform="translate(433.310547 0.015625)" xlink:href="#DejaVuSans-2212"/>
      <use transform="translate(536.582031 0.015625)" xlink:href="#DejaVuSans-Oblique-70"/>
      <use transform="translate(600.058594 0.015625)" xlink:href="#DejaVuSans-Oblique-61"/>
      <use transform="translate(661.337891 0.015625)" xlink:href="#DejaVuSans-Oblique-69"/>
      <use transform="translate(689.121094 0.015625)" xlink:href="#DejaVuSans-Oblique-72"/>
      <use transform="translate(730.234375 0.015625)" xlink:href="#DejaVuSans-Oblique-73"/>
      <use transform="translate(782.333984 -16.390625)scale(0.7)" xlink:href="#DejaVuSans-Oblique-62"/>
      <use transform="translate(826.767578 -16.390625)scale(0.7)" xlink:href="#DejaVuSans-Oblique-77"/>
      <use transform="translate(884.018555 -16.390625)scale(0.7)" xlink:href="#DejaVuSans-Oblique-64"/>
      <use transform="translate(931.186523 0.015625)" xlink:href="#DejaVuSans-5d"/>
     </g>
    </g>
   </g>
   <g id="patch_3">
    <path d="M 60.202813 128.057143 
L 60.202813 50.4 
" style="fill:none;stroke:#000000;stroke-linecap:square;stroke-linejoin:miter;stroke-width:0.8;"/>
   </g>
   <g id="patch_4">
    <path d="M 60.202813 128.057143 
L 395.002813 128.057143 
" style="fill:none;stroke:#000000;stroke-linecap:square;stroke-linejoin:miter;stroke-width:0.8;"/>
   </g>
   <g id="text_11">
    <!-- Trial Start Replays -->
    <g transform="translate(173.454688 44.4)scale(0.12 -0.12)">
     <defs>
      <path id="DejaVuSans-20" transform="scale(0.015625)"/>
      <path d="M 3425 4513 
L 3425 3897 
Q 3066 4069 2747 4153 
Q 2428 4238 2131 4238 
Q 1616 4238 1336 4038 
Q 1056 3838 1056 3469 
Q 1056 3159 1242 3001 
Q 1428 2844 1947 2747 
L 2328 2669 
Q 3034 2534 3370 2195 
Q 3706 1856 3706 1288 
Q 3706 609 3251 259 
Q 2797 -91 1919 -91 
Q 1588 -91 1214 -16 
Q 841 59 441 206 
L 441 856 
Q 825 641 1194 531 
Q 1563 422 1919 422 
Q 2459 422 2753 634 
Q 3047 847 3047 1241 
Q 3047 1584 2836 1778 
Q 2625 1972 2144 2069 
L 1759 2144 
Q 1053 2284 737 2584 
Q 422 2884 422 3419 
Q 422 4038 858 4394 
Q 1294 4750 2059 4750 
Q 2388 4750 2728 4690 
Q 3069 4631 3425 4513 
z
" id="DejaVuSans-53" transform="scale(0.015625)"/>
      <path d="M 2841 2188 
Q 3044 2119 3236 1894 
Q 3428 1669 3622 1275 
L 4263 0 
L 3584 0 
L 2988 1197 
Q 2756 1666 2539 1819 
Q 2322 1972 1947 1972 
L 1259 1972 
L 1259 0 
L 628 0 
L 628 4666 
L 2053 4666 
Q 2853 4666 3247 4331 
Q 3641 3997 3641 3322 
Q 3641 2881 3436 2590 
Q 3231 2300 2841 2188 
z
M 1259 4147 
L 1259 2491 
L 2053 2491 
Q 2509 2491 2742 2702 
Q 2975 2913 2975 3322 
Q 2975 3731 2742 3939 
Q 2509 4147 2053 4147 
L 1259 4147 
z
" id="DejaVuSans-52" transform="scale(0.015625)"/>
      <path d="M 1159 525 
L 1159 -1331 
L 581 -1331 
L 581 3500 
L 1159 3500 
L 1159 2969 
Q 1341 3281 1617 3432 
Q 1894 3584 2278 3584 
Q 2916 3584 3314 3078 
Q 3713 2572 3713 1747 
Q 3713 922 3314 415 
Q 2916 -91 2278 -91 
Q 1894 -91 1617 61 
Q 1341 213 1159 525 
z
M 3116 1747 
Q 3116 2381 2855 2742 
Q 2594 3103 2138 3103 
Q 1681 3103 1420 2742 
Q 1159 2381 1159 1747 
Q 1159 1113 1420 752 
Q 1681 391 2138 391 
Q 2594 391 2855 752 
Q 3116 1113 3116 1747 
z
" id="DejaVuSans-70" transform="scale(0.015625)"/>
      <path d="M 2834 3397 
L 2834 2853 
Q 2591 2978 2328 3040 
Q 2066 3103 1784 3103 
Q 1356 3103 1142 2972 
Q 928 2841 928 2578 
Q 928 2378 1081 2264 
Q 1234 2150 1697 2047 
L 1894 2003 
Q 2506 1872 2764 1633 
Q 3022 1394 3022 966 
Q 3022 478 2636 193 
Q 2250 -91 1575 -91 
Q 1294 -91 989 -36 
Q 684 19 347 128 
L 347 722 
Q 666 556 975 473 
Q 1284 391 1588 391 
Q 1994 391 2212 530 
Q 2431 669 2431 922 
Q 2431 1156 2273 1281 
Q 2116 1406 1581 1522 
L 1381 1569 
Q 847 1681 609 1914 
Q 372 2147 372 2553 
Q 372 3047 722 3315 
Q 1072 3584 1716 3584 
Q 2034 3584 2315 3537 
Q 2597 3491 2834 3397 
z
" id="DejaVuSans-73" transform="scale(0.015625)"/>
     </defs>
     <use xlink:href="#DejaVuSans-54"/>
     <use x="46.333984" xlink:href="#DejaVuSans-72"/>
     <use x="87.447266" xlink:href="#DejaVuSans-69"/>
     <use x="115.230469" xlink:href="#DejaVuSans-61"/>
     <use x="176.509766" xlink:href="#DejaVuSans-6c"/>
     <use x="204.292969" xlink:href="#DejaVuSans-20"/>
     <use x="236.080078" xlink:href="#DejaVuSans-53"/>
     <use x="299.556641" xlink:href="#DejaVuSans-74"/>
     <use x="338.765625" xlink:href="#DejaVuSans-61"/>
     <use x="400.044922" xlink:href="#DejaVuSans-72"/>
     <use x="441.158203" xlink:href="#DejaVuSans-74"/>
     <use x="480.367188" xlink:href="#DejaVuSans-20"/>
     <use x="512.154297" xlink:href="#DejaVuSans-52"/>
     <use x="577.136719" xlink:href="#DejaVuSans-65"/>
     <use x="638.660156" xlink:href="#DejaVuSans-70"/>
     <use x="702.136719" xlink:href="#DejaVuSans-6c"/>
     <use x="729.919922" xlink:href="#DejaVuSans-61"/>
     <use x="791.199219" xlink:href="#DejaVuSans-79"/>
     <use x="850.378906" xlink:href="#DejaVuSans-73"/>
    </g>
   </g>
   <g id="line2d_10">
    <path clip-path="url(#pfe4f202047)" d="M 60.202813 62.009687 
L 63.584631 52.010914 
L 66.966449 52.222528 
L 70.348267 53.174792 
L 73.730085 53.611246 
L 77.111903 51.111553 
L 80.493722 52.381239 
L 83.87554 52.658982 
L 87.257358 52.394464 
L 90.639176 52.050591 
L 94.020994 54.127056 
L 97.402813 53.505439 
L 100.784631 54.999965 
L 104.166449 55.290935 
L 107.548267 52.592853 
L 110.930085 53.320277 
L 114.311903 53.307051 
L 117.693722 53.822861 
L 121.07554 53.809635 
L 124.457358 53.426084 
L 127.839176 55.158676 
L 131.220994 51.997688 
L 134.602813 52.830919 
L 137.984631 52.619305 
L 141.366449 53.227696 
L 144.748267 53.068985 
L 148.130085 52.24898 
L 151.511903 53.968345 
L 154.893722 54.285767 
L 158.27554 51.786073 
L 161.657358 54.219637 
L 165.039176 52.949952 
L 168.420994 52.725112 
L 171.802813 55.674485 
L 175.184631 52.394464 
L 178.566449 53.452536 
L 181.948267 54.761899 
L 185.330085 55.105772 
L 188.711903 52.751563 
L 192.093722 54.365122 
L 195.47554 54.378348 
L 198.857358 53.756731 
L 202.239176 53.783183 
L 205.620994 53.862538 
L 209.002813 55.039643 
L 212.384631 52.897048 
L 215.766449 53.055759 
L 219.148267 53.161566 
L 222.530085 53.875764 
L 225.911903 53.333503 
L 229.293722 54.074153 
L 232.67554 53.21447 
L 236.057358 54.140282 
L 239.439176 53.518665 
L 242.820994 53.690602 
L 246.202813 52.817693 
L 249.584631 53.756731 
L 252.966449 53.677376 
L 256.348267 54.33867 
L 259.730085 51.984462 
L 263.111903 52.685434 
L 266.493722 53.042533 
L 269.87554 52.169624 
L 273.257358 52.460594 
L 276.639176 50.952842 
L 280.020994 53.280599 
L 283.402813 52.791241 
L 286.784631 52.949952 
L 290.166449 52.778015 
L 293.548267 53.928668 
L 296.930085 53.624472 
L 300.311903 53.135114 
L 303.693722 53.756731 
L 307.07554 54.246089 
L 310.457358 53.756731 
L 313.839176 53.161566 
L 317.220994 52.817693 
L 320.602813 52.077043 
L 323.984631 52.883822 
L 327.366449 54.285767 
L 330.748267 54.285767 
L 334.130085 52.976404 
L 337.511903 52.288657 
L 340.893722 54.021249 
L 344.27554 54.312219 
L 347.657358 52.844145 
L 351.039176 53.465762 
L 354.420994 52.791241 
L 357.802813 53.307051 
L 361.184631 54.761899 
L 364.566449 53.399632 
L 367.948267 51.190908 
L 371.330085 53.465762 
L 374.711903 55.290935 
L 378.093722 53.95512 
L 381.47554 52.817693 
L 384.857358 53.174792 
L 388.239176 54.748673 
L 391.620994 53.055759 
L 395.002813 54.457703 
" style="fill:none;stroke:#008000;stroke-linecap:square;stroke-width:1.5;"/>
   </g>
   <g id="line2d_11">
    <path clip-path="url(#pfe4f202047)" d="M 60.202813 62.009687 
L 63.584631 119.449733 
L 66.966449 123.285241 
L 70.348267 124.316861 
L 73.730085 124.012665 
L 77.111903 124.67396 
L 80.493722 124.197828 
L 83.87554 124.396216 
L 87.257358 124.462346 
L 90.639176 124.356538 
L 94.020994 124.343313 
L 97.402813 124.60783 
L 100.784631 124.356538 
L 104.166449 124.568153 
L 107.548267 124.488797 
L 110.930085 124.660734 
L 114.311903 124.422668 
L 117.693722 124.541701 
L 121.07554 124.912026 
L 124.457358 124.700412 
L 127.839176 124.726863 
L 131.220994 124.806219 
L 134.602813 124.885574 
L 137.984631 124.634282 
L 141.366449 124.621056 
L 144.748267 124.581379 
L 148.130085 124.779767 
L 151.511903 124.67396 
L 154.893722 124.885574 
L 158.27554 124.568153 
L 161.657358 124.779767 
L 165.039176 124.832671 
L 168.420994 124.634282 
L 171.802813 124.700412 
L 175.184631 124.528475 
L 178.566449 124.687186 
L 181.948267 124.647508 
L 185.330085 124.594605 
L 188.711903 124.753315 
L 192.093722 124.356538 
L 195.47554 124.594605 
L 198.857358 124.369764 
L 202.239176 124.502023 
L 205.620994 124.462346 
L 209.002813 124.766541 
L 212.384631 124.766541 
L 215.766449 124.369764 
L 219.148267 124.67396 
L 222.530085 124.528475 
L 225.911903 124.396216 
L 229.293722 124.568153 
L 232.67554 124.515249 
L 236.057358 124.462346 
L 239.439176 124.462346 
L 242.820994 124.409442 
L 246.202813 124.290409 
L 249.584631 124.369764 
L 252.966449 124.44912 
L 256.348267 124.277183 
L 259.730085 124.039117 
L 263.111903 124.171376 
L 266.493722 124.290409 
L 269.87554 124.290409 
L 273.257358 124.22428 
L 276.639176 124.330087 
L 280.020994 124.184602 
L 283.402813 124.171376 
L 286.784631 124.290409 
L 290.166449 124.15815 
L 293.548267 124.22428 
L 296.930085 124.052343 
L 300.311903 123.893632 
L 303.693722 124.118472 
L 307.07554 124.118472 
L 310.457358 123.972988 
L 313.839176 124.263957 
L 317.220994 123.827503 
L 320.602813 124.131698 
L 323.984631 124.131698 
L 327.366449 124.237505 
L 330.748267 124.237505 
L 334.130085 124.211054 
L 337.511903 123.827503 
L 340.893722 124.092021 
L 344.27554 124.131698 
L 347.657358 123.93331 
L 351.039176 123.893632 
L 354.420994 123.893632 
L 357.802813 124.197828 
L 361.184631 124.092021 
L 364.566449 123.70847 
L 367.948267 123.748147 
L 371.330085 123.774599 
L 374.711903 124.184602 
L 378.093722 123.840729 
L 381.47554 123.748147 
L 384.857358 123.801051 
L 388.239176 123.986214 
L 391.620994 123.787825 
L 395.002813 123.721696 
" style="fill:none;stroke:#008000;stroke-dasharray:9.6,2.4,1.5,2.4;stroke-dashoffset:0;stroke-width:1.5;"/>
   </g>
  </g>
  <g id="axes_2">
   <g id="patch_5">
    <path d="M 60.202813 267.84 
L 395.002813 267.84 
L 395.002813 190.182857 
L 60.202813 190.182857 
z
" style="fill:none;"/>
   </g>
   <g id="line2d_12">
    <path clip-path="url(#pdf5a9b147a)" d="M 60.202813 198.685671 
L 395.002813 198.685671 
" style="fill:none;stroke:#808080;stroke-linecap:square;stroke-width:1.5;"/>
   </g>
   <g id="matplotlib.axis_3">
    <g id="xtick_6">
     <g id="line2d_13">
      <g>
       <use style="stroke:#000000;stroke-width:0.8;" x="124.457358" xlink:href="#m36da5cdd08" y="267.84"/>
      </g>
     </g>
     <g id="text_12">
      <!-- 20 -->
      <g transform="translate(118.094858 282.438437)scale(0.1 -0.1)">
       <use xlink:href="#DejaVuSans-32"/>
       <use x="63.623047" xlink:href="#DejaVuSans-30"/>
      </g>
     </g>
    </g>
    <g id="xtick_7">
     <g id="line2d_14">
      <g>
       <use style="stroke:#000000;stroke-width:0.8;" x="192.093722" xlink:href="#m36da5cdd08" y="267.84"/>
      </g>
     </g>
     <g id="text_13">
      <!-- 40 -->
      <g transform="translate(185.731222 282.438437)scale(0.1 -0.1)">
       <use xlink:href="#DejaVuSans-34"/>
       <use x="63.623047" xlink:href="#DejaVuSans-30"/>
      </g>
     </g>
    </g>
    <g id="xtick_8">
     <g id="line2d_15">
      <g>
       <use style="stroke:#000000;stroke-width:0.8;" x="259.730085" xlink:href="#m36da5cdd08" y="267.84"/>
      </g>
     </g>
     <g id="text_14">
      <!-- 60 -->
      <g transform="translate(253.367585 282.438437)scale(0.1 -0.1)">
       <use xlink:href="#DejaVuSans-36"/>
       <use x="63.623047" xlink:href="#DejaVuSans-30"/>
      </g>
     </g>
    </g>
    <g id="xtick_9">
     <g id="line2d_16">
      <g>
       <use style="stroke:#000000;stroke-width:0.8;" x="327.366449" xlink:href="#m36da5cdd08" y="267.84"/>
      </g>
     </g>
     <g id="text_15">
      <!-- 80 -->
      <g transform="translate(321.003949 282.438437)scale(0.1 -0.1)">
       <use xlink:href="#DejaVuSans-38"/>
       <use x="63.623047" xlink:href="#DejaVuSans-30"/>
      </g>
     </g>
    </g>
    <g id="xtick_10">
     <g id="line2d_17">
      <g>
       <use style="stroke:#000000;stroke-width:0.8;" x="395.002813" xlink:href="#m36da5cdd08" y="267.84"/>
      </g>
     </g>
     <g id="text_16">
      <!-- 100 -->
      <g transform="translate(385.459063 282.438437)scale(0.1 -0.1)">
       <use xlink:href="#DejaVuSans-31"/>
       <use x="63.623047" xlink:href="#DejaVuSans-30"/>
       <use x="127.246094" xlink:href="#DejaVuSans-30"/>
      </g>
     </g>
    </g>
    <g id="text_17">
     <!-- Trial -->
     <g transform="translate(217.38875 296.116562)scale(0.1 -0.1)">
      <use xlink:href="#DejaVuSans-54"/>
      <use x="46.333984" xlink:href="#DejaVuSans-72"/>
      <use x="87.447266" xlink:href="#DejaVuSans-69"/>
      <use x="115.230469" xlink:href="#DejaVuSans-61"/>
      <use x="176.509766" xlink:href="#DejaVuSans-6c"/>
     </g>
    </g>
   </g>
   <g id="matplotlib.axis_4">
    <g id="ytick_4">
     <g id="line2d_18">
      <g>
       <use style="stroke:#000000;stroke-width:0.8;" x="60.202813" xlink:href="#m5390b4b669" y="252.58196"/>
      </g>
     </g>
     <g id="text_18">
      <!-- −40 -->
      <g transform="translate(32.098125 256.381179)scale(0.1 -0.1)">
       <use xlink:href="#DejaVuSans-2212"/>
       <use x="83.789062" xlink:href="#DejaVuSans-34"/>
       <use x="147.412109" xlink:href="#DejaVuSans-30"/>
      </g>
     </g>
    </g>
    <g id="ytick_5">
     <g id="line2d_19">
      <g>
       <use style="stroke:#000000;stroke-width:0.8;" x="60.202813" xlink:href="#m5390b4b669" y="225.633815"/>
      </g>
     </g>
     <g id="text_19">
      <!-- −20 -->
      <g transform="translate(32.098125 229.433034)scale(0.1 -0.1)">
       <use xlink:href="#DejaVuSans-2212"/>
       <use x="83.789062" xlink:href="#DejaVuSans-32"/>
       <use x="147.412109" xlink:href="#DejaVuSans-30"/>
      </g>
     </g>
    </g>
    <g id="ytick_6">
     <g id="line2d_20">
      <g>
       <use style="stroke:#000000;stroke-width:0.8;" x="60.202813" xlink:href="#m5390b4b669" y="198.685671"/>
      </g>
     </g>
     <g id="text_20">
      <!-- 0 -->
      <g transform="translate(46.840313 202.484889)scale(0.1 -0.1)">
       <use xlink:href="#DejaVuSans-30"/>
      </g>
     </g>
    </g>
    <g id="text_21">
     <!-- Directionality -->
     <g transform="translate(14.798438 262.358304)rotate(-90)scale(0.1 -0.1)">
      <use xlink:href="#DejaVuSans-44"/>
      <use x="77.001953" xlink:href="#DejaVuSans-69"/>
      <use x="104.785156" xlink:href="#DejaVuSans-72"/>
      <use x="143.648438" xlink:href="#DejaVuSans-65"/>
      <use x="205.171875" xlink:href="#DejaVuSans-63"/>
      <use x="260.152344" xlink:href="#DejaVuSans-74"/>
      <use x="299.361328" xlink:href="#DejaVuSans-69"/>
      <use x="327.144531" xlink:href="#DejaVuSans-6f"/>
      <use x="388.326172" xlink:href="#DejaVuSans-6e"/>
      <use x="451.705078" xlink:href="#DejaVuSans-61"/>
      <use x="512.984375" xlink:href="#DejaVuSans-6c"/>
      <use x="540.767578" xlink:href="#DejaVuSans-69"/>
      <use x="568.550781" xlink:href="#DejaVuSans-74"/>
      <use x="607.759766" xlink:href="#DejaVuSans-79"/>
     </g>
     <!-- [$pairs_{fwd}-pairs_{bwd}$] -->
     <g transform="translate(25.998125 277.561429)rotate(-90)scale(0.1 -0.1)">
      <use transform="translate(0 0.015625)" xlink:href="#DejaVuSans-5b"/>
      <use transform="translate(39.013672 0.015625)" xlink:href="#DejaVuSans-Oblique-70"/>
      <use transform="translate(102.490234 0.015625)" xlink:href="#DejaVuSans-Oblique-61"/>
      <use transform="translate(163.769531 0.015625)" xlink:href="#DejaVuSans-Oblique-69"/>
      <use transform="translate(191.552734 0.015625)" xlink:href="#DejaVuSans-Oblique-72"/>
      <use transform="translate(232.666016 0.015625)" xlink:href="#DejaVuSans-Oblique-73"/>
      <use transform="translate(284.765625 -16.390625)scale(0.7)" xlink:href="#DejaVuSans-Oblique-66"/>
      <use transform="translate(309.40918 -16.390625)scale(0.7)" xlink:href="#DejaVuSans-Oblique-77"/>
      <use transform="translate(366.660156 -16.390625)scale(0.7)" xlink:href="#DejaVuSans-Oblique-64"/>
      <use transform="translate(433.310547 0.015625)" xlink:href="#DejaVuSans-2212"/>
      <use transform="translate(536.582031 0.015625)" xlink:href="#DejaVuSans-Oblique-70"/>
      <use transform="translate(600.058594 0.015625)" xlink:href="#DejaVuSans-Oblique-61"/>
      <use transform="translate(661.337891 0.015625)" xlink:href="#DejaVuSans-Oblique-69"/>
      <use transform="translate(689.121094 0.015625)" xlink:href="#DejaVuSans-Oblique-72"/>
      <use transform="translate(730.234375 0.015625)" xlink:href="#DejaVuSans-Oblique-73"/>
      <use transform="translate(782.333984 -16.390625)scale(0.7)" xlink:href="#DejaVuSans-Oblique-62"/>
      <use transform="translate(826.767578 -16.390625)scale(0.7)" xlink:href="#DejaVuSans-Oblique-77"/>
      <use transform="translate(884.018555 -16.390625)scale(0.7)" xlink:href="#DejaVuSans-Oblique-64"/>
      <use transform="translate(931.186523 0.015625)" xlink:href="#DejaVuSans-5d"/>
     </g>
    </g>
   </g>
   <g id="patch_6">
    <path d="M 60.202813 267.84 
L 60.202813 190.182857 
" style="fill:none;stroke:#000000;stroke-linecap:square;stroke-linejoin:miter;stroke-width:0.8;"/>
   </g>
   <g id="patch_7">
    <path d="M 60.202813 267.84 
L 395.002813 267.84 
" style="fill:none;stroke:#000000;stroke-linecap:square;stroke-linejoin:miter;stroke-width:0.8;"/>
   </g>
   <g id="text_22">
    <!-- Trial End Replays -->
    <g transform="translate(176.70875 184.182857)scale(0.12 -0.12)">
     <defs>
      <path d="M 628 4666 
L 3578 4666 
L 3578 4134 
L 1259 4134 
L 1259 2753 
L 3481 2753 
L 3481 2222 
L 1259 2222 
L 1259 531 
L 3634 531 
L 3634 0 
L 628 0 
L 628 4666 
z
" id="DejaVuSans-45" transform="scale(0.015625)"/>
      <path d="M 2906 2969 
L 2906 4863 
L 3481 4863 
L 3481 0 
L 2906 0 
L 2906 525 
Q 2725 213 2448 61 
Q 2172 -91 1784 -91 
Q 1150 -91 751 415 
Q 353 922 353 1747 
Q 353 2572 751 3078 
Q 1150 3584 1784 3584 
Q 2172 3584 2448 3432 
Q 2725 3281 2906 2969 
z
M 947 1747 
Q 947 1113 1208 752 
Q 1469 391 1925 391 
Q 2381 391 2643 752 
Q 2906 1113 2906 1747 
Q 2906 2381 2643 2742 
Q 2381 3103 1925 3103 
Q 1469 3103 1208 2742 
Q 947 2381 947 1747 
z
" id="DejaVuSans-64" transform="scale(0.015625)"/>
     </defs>
     <use xlink:href="#DejaVuSans-54"/>
     <use x="46.333984" xlink:href="#DejaVuSans-72"/>
     <use x="87.447266" xlink:href="#DejaVuSans-69"/>
     <use x="115.230469" xlink:href="#DejaVuSans-61"/>
     <use x="176.509766" xlink:href="#DejaVuSans-6c"/>
     <use x="204.292969" xlink:href="#DejaVuSans-20"/>
     <use x="236.080078" xlink:href="#DejaVuSans-45"/>
     <use x="299.263672" xlink:href="#DejaVuSans-6e"/>
     <use x="362.642578" xlink:href="#DejaVuSans-64"/>
     <use x="426.119141" xlink:href="#DejaVuSans-20"/>
     <use x="457.90625" xlink:href="#DejaVuSans-52"/>
     <use x="522.888672" xlink:href="#DejaVuSans-65"/>
     <use x="584.412109" xlink:href="#DejaVuSans-70"/>
     <use x="647.888672" xlink:href="#DejaVuSans-6c"/>
     <use x="675.671875" xlink:href="#DejaVuSans-61"/>
     <use x="736.951172" xlink:href="#DejaVuSans-79"/>
     <use x="796.130859" xlink:href="#DejaVuSans-73"/>
    </g>
   </g>
   <g id="legend_1">
    <g id="patch_8">
     <path d="M 87.302188 333.882321 
L 367.903438 333.882321 
Q 370.303438 333.882321 370.303438 331.482321 
L 370.303438 315.068571 
Q 370.303438 312.668571 367.903438 312.668571 
L 87.302188 312.668571 
Q 84.902188 312.668571 84.902188 315.068571 
L 84.902188 331.482321 
Q 84.902188 333.882321 87.302188 333.882321 
z
" style="fill:none;opacity:0;"/>
    </g>
    <g id="line2d_21">
     <path d="M 89.702188 322.386696 
L 113.702188 322.386696 
" style="fill:none;stroke:#008000;stroke-linecap:square;stroke-width:1.5;"/>
    </g>
    <g id="line2d_22"/>
    <g id="text_23">
     <!-- SFMA (Default) -->
     <g transform="translate(123.302188 326.586696)scale(0.12 -0.12)">
      <defs>
       <path d="M 628 4666 
L 3309 4666 
L 3309 4134 
L 1259 4134 
L 1259 2759 
L 3109 2759 
L 3109 2228 
L 1259 2228 
L 1259 0 
L 628 0 
L 628 4666 
z
" id="DejaVuSans-46" transform="scale(0.015625)"/>
       <path d="M 628 4666 
L 1569 4666 
L 2759 1491 
L 3956 4666 
L 4897 4666 
L 4897 0 
L 4281 0 
L 4281 4097 
L 3078 897 
L 2444 897 
L 1241 4097 
L 1241 0 
L 628 0 
L 628 4666 
z
" id="DejaVuSans-4d" transform="scale(0.015625)"/>
       <path d="M 2188 4044 
L 1331 1722 
L 3047 1722 
L 2188 4044 
z
M 1831 4666 
L 2547 4666 
L 4325 0 
L 3669 0 
L 3244 1197 
L 1141 1197 
L 716 0 
L 50 0 
L 1831 4666 
z
" id="DejaVuSans-41" transform="scale(0.015625)"/>
       <path d="M 1984 4856 
Q 1566 4138 1362 3434 
Q 1159 2731 1159 2009 
Q 1159 1288 1364 580 
Q 1569 -128 1984 -844 
L 1484 -844 
Q 1016 -109 783 600 
Q 550 1309 550 2009 
Q 550 2706 781 3412 
Q 1013 4119 1484 4856 
L 1984 4856 
z
" id="DejaVuSans-28" transform="scale(0.015625)"/>
       <path d="M 2375 4863 
L 2375 4384 
L 1825 4384 
Q 1516 4384 1395 4259 
Q 1275 4134 1275 3809 
L 1275 3500 
L 2222 3500 
L 2222 3053 
L 1275 3053 
L 1275 0 
L 697 0 
L 697 3053 
L 147 3053 
L 147 3500 
L 697 3500 
L 697 3744 
Q 697 4328 969 4595 
Q 1241 4863 1831 4863 
L 2375 4863 
z
" id="DejaVuSans-66" transform="scale(0.015625)"/>
       <path d="M 544 1381 
L 544 3500 
L 1119 3500 
L 1119 1403 
Q 1119 906 1312 657 
Q 1506 409 1894 409 
Q 2359 409 2629 706 
Q 2900 1003 2900 1516 
L 2900 3500 
L 3475 3500 
L 3475 0 
L 2900 0 
L 2900 538 
Q 2691 219 2414 64 
Q 2138 -91 1772 -91 
Q 1169 -91 856 284 
Q 544 659 544 1381 
z
M 1991 3584 
L 1991 3584 
z
" id="DejaVuSans-75" transform="scale(0.015625)"/>
       <path d="M 513 4856 
L 1013 4856 
Q 1481 4119 1714 3412 
Q 1947 2706 1947 2009 
Q 1947 1309 1714 600 
Q 1481 -109 1013 -844 
L 513 -844 
Q 928 -128 1133 580 
Q 1338 1288 1338 2009 
Q 1338 2731 1133 3434 
Q 928 4138 513 4856 
z
" id="DejaVuSans-29" transform="scale(0.015625)"/>
      </defs>
      <use xlink:href="#DejaVuSans-53"/>
      <use x="63.476562" xlink:href="#DejaVuSans-46"/>
      <use x="120.996094" xlink:href="#DejaVuSans-4d"/>
      <use x="207.275391" xlink:href="#DejaVuSans-41"/>
      <use x="275.683594" xlink:href="#DejaVuSans-20"/>
      <use x="307.470703" xlink:href="#DejaVuSans-28"/>
      <use x="346.484375" xlink:href="#DejaVuSans-44"/>
      <use x="423.486328" xlink:href="#DejaVuSans-65"/>
      <use x="485.009766" xlink:href="#DejaVuSans-66"/>
      <use x="520.214844" xlink:href="#DejaVuSans-61"/>
      <use x="581.494141" xlink:href="#DejaVuSans-75"/>
      <use x="644.873047" xlink:href="#DejaVuSans-6c"/>
      <use x="672.65625" xlink:href="#DejaVuSans-74"/>
      <use x="711.865234" xlink:href="#DejaVuSans-29"/>
     </g>
    </g>
    <g id="line2d_23">
     <path d="M 237.407188 322.386696 
L 261.407188 322.386696 
" style="fill:none;stroke:#008000;stroke-dasharray:9.6,2.4,1.5,2.4;stroke-dashoffset:0;stroke-width:1.5;"/>
    </g>
    <g id="line2d_24"/>
    <g id="text_24">
     <!-- SFMA (Reverse) -->
     <g transform="translate(271.007188 326.586696)scale(0.12 -0.12)">
      <defs>
       <path d="M 191 3500 
L 800 3500 
L 1894 563 
L 2988 3500 
L 3597 3500 
L 2284 0 
L 1503 0 
L 191 3500 
z
" id="DejaVuSans-76" transform="scale(0.015625)"/>
      </defs>
      <use xlink:href="#DejaVuSans-53"/>
      <use x="63.476562" xlink:href="#DejaVuSans-46"/>
      <use x="120.996094" xlink:href="#DejaVuSans-4d"/>
      <use x="207.275391" xlink:href="#DejaVuSans-41"/>
      <use x="275.683594" xlink:href="#DejaVuSans-20"/>
      <use x="307.470703" xlink:href="#DejaVuSans-28"/>
      <use x="346.484375" xlink:href="#DejaVuSans-52"/>
      <use x="411.466797" xlink:href="#DejaVuSans-65"/>
      <use x="472.990234" xlink:href="#DejaVuSans-76"/>
      <use x="532.169922" xlink:href="#DejaVuSans-65"/>
      <use x="593.693359" xlink:href="#DejaVuSans-72"/>
      <use x="634.806641" xlink:href="#DejaVuSans-73"/>
      <use x="686.90625" xlink:href="#DejaVuSans-65"/>
      <use x="748.429688" xlink:href="#DejaVuSans-29"/>
     </g>
    </g>
   </g>
   <g id="line2d_25">
    <path clip-path="url(#pdf5a9b147a)" d="M 60.202813 192.272012 
L 63.584631 191.86779 
L 66.966449 191.665679 
L 70.348267 193.444256 
L 73.730085 191.180612 
L 77.111903 190.587753 
L 80.493722 192.110323 
L 83.87554 192.016005 
L 87.257358 191.692627 
L 90.639176 193.969745 
L 94.020994 193.349938 
L 97.402813 191.80042 
L 100.784631 194.023641 
L 104.166449 193.228671 
L 107.548267 194.966827 
L 110.930085 193.767634 
L 114.311903 194.818612 
L 117.693722 194.387441 
L 121.07554 196.624137 
L 124.457358 196.529819 
L 127.839176 197.729011 
L 131.220994 197.836804 
L 134.602813 200.113922 
L 137.984631 198.847359 
L 141.366449 199.938759 
L 144.748267 199.736648 
L 148.130085 200.935841 
L 151.511903 200.50467 
L 154.893722 201.811655 
L 158.27554 202.135033 
L 161.657358 201.865552 
L 165.039176 202.9839 
L 168.420994 203.132114 
L 171.802813 202.040715 
L 175.184631 202.525781 
L 178.566449 203.05127 
L 181.948267 202.094611 
L 185.330085 204.088774 
L 188.711903 204.93764 
L 192.093722 204.708581 
L 195.47554 205.085855 
L 198.857358 204.829848 
L 202.239176 205.934722 
L 205.620994 206.702744 
L 209.002813 206.446736 
L 212.384631 207.55161 
L 215.766449 205.314914 
L 219.148267 207.066544 
L 222.530085 208.009729 
L 225.911903 206.972225 
L 229.293722 206.015566 
L 232.67554 208.656484 
L 236.057358 207.996255 
L 239.439176 207.080018 
L 242.820994 208.616062 
L 246.202813 207.255181 
L 249.584631 209.00681 
L 252.966449 209.936521 
L 256.348267 209.087654 
L 259.730085 208.764277 
L 263.111903 208.925966 
L 266.493722 210.03084 
L 269.87554 208.696906 
L 273.257358 208.494795 
L 276.639176 208.198366 
L 280.020994 210.758439 
L 283.402813 210.502432 
L 286.784631 210.340743 
L 290.166449 209.976943 
L 293.548267 211.297402 
L 296.930085 211.270454 
L 300.311903 210.596751 
L 303.693722 211.364773 
L 307.07554 211.62078 
L 310.457358 210.987499 
L 313.839176 211.62078 
L 317.220994 210.192528 
L 320.602813 211.876787 
L 323.984631 211.849839 
L 327.366449 211.081817 
L 330.748267 211.728573 
L 334.130085 212.240587 
L 337.511903 211.162662 
L 340.893722 209.761358 
L 344.27554 211.364773 
L 347.657358 212.025002 
L 351.039176 211.283928 
L 354.420994 212.173217 
L 357.802813 213.561047 
L 361.184631 211.135714 
L 364.566449 211.472565 
L 367.948267 211.149188 
L 371.330085 212.294484 
L 374.711903 210.610225 
L 378.093722 211.903736 
L 381.47554 211.25698 
L 384.857358 212.078899 
L 388.239176 209.828728 
L 391.620994 211.957632 
L 395.002813 211.876787 
" style="fill:none;stroke:#008000;stroke-linecap:square;stroke-width:1.5;"/>
   </g>
   <g id="line2d_26">
    <path clip-path="url(#pdf5a9b147a)" d="M 60.202813 259.965752 
L 63.584631 262.256344 
L 66.966449 262.674041 
L 70.348267 263.199529 
L 73.730085 263.415115 
L 77.111903 263.495959 
L 80.493722 263.293848 
L 83.87554 263.819337 
L 87.257358 263.900181 
L 90.639176 263.873233 
L 94.020994 264.088818 
L 97.402813 264.210085 
L 100.784631 264.169663 
L 104.166449 264.12924 
L 107.548267 264.12924 
L 110.930085 264.398722 
L 114.311903 264.102292 
L 117.693722 264.331352 
L 121.07554 264.3583 
L 124.457358 264.12924 
L 127.839176 264.290929 
L 131.220994 264.479566 
L 134.602813 264.466092 
L 137.984631 264.546937 
L 141.366449 264.466092 
L 144.748267 264.49304 
L 148.130085 264.439144 
L 151.511903 264.439144 
L 154.893722 264.533463 
L 158.27554 264.439144 
L 161.657358 264.290929 
L 165.039176 264.42567 
L 168.420994 264.371774 
L 171.802813 264.223559 
L 175.184631 264.317877 
L 178.566449 264.3583 
L 181.948267 264.506514 
L 185.330085 264.412196 
L 188.711903 264.452618 
L 192.093722 264.506514 
L 195.47554 264.546937 
L 198.857358 264.398722 
L 202.239176 264.371774 
L 205.620994 264.398722 
L 209.002813 264.452618 
L 212.384631 264.371774 
L 215.766449 264.466092 
L 219.148267 264.506514 
L 222.530085 264.344826 
L 225.911903 264.344826 
L 229.293722 264.533463 
L 232.67554 264.385248 
L 236.057358 264.479566 
L 239.439176 264.439144 
L 242.820994 264.412196 
L 246.202813 264.439144 
L 249.584631 264.466092 
L 252.966449 264.466092 
L 256.348267 264.439144 
L 259.730085 264.452618 
L 263.111903 264.452618 
L 266.493722 264.290929 
L 269.87554 264.385248 
L 273.257358 264.3583 
L 276.639176 264.317877 
L 280.020994 264.277455 
L 283.402813 264.317877 
L 286.784631 264.371774 
L 290.166449 264.277455 
L 293.548267 264.290929 
L 296.930085 264.331352 
L 300.311903 264.3583 
L 303.693722 264.277455 
L 307.07554 264.3583 
L 310.457358 264.412196 
L 313.839176 264.331352 
L 317.220994 264.371774 
L 320.602813 264.344826 
L 323.984631 264.331352 
L 327.366449 264.263981 
L 330.748267 264.344826 
L 334.130085 264.466092 
L 337.511903 264.3583 
L 340.893722 264.210085 
L 344.27554 264.223559 
L 347.657358 264.304403 
L 351.039176 264.344826 
L 354.420994 264.115766 
L 357.802813 264.183137 
L 361.184631 264.223559 
L 364.566449 264.371774 
L 367.948267 264.169663 
L 371.330085 264.210085 
L 374.711903 264.169663 
L 378.093722 264.263981 
L 381.47554 264.317877 
L 384.857358 264.263981 
L 388.239176 264.250507 
L 391.620994 264.263981 
L 395.002813 264.439144 
" style="fill:none;stroke:#008000;stroke-dasharray:9.6,2.4,1.5,2.4;stroke-dashoffset:0;stroke-width:1.5;"/>
   </g>
  </g>
  <g id="text_25">
   <!-- Labyrinth -->
   <g transform="translate(186.614141 18.597656)scale(0.15 -0.15)">
    <defs>
     <path d="M 628 4666 
L 1259 4666 
L 1259 531 
L 3531 531 
L 3531 0 
L 628 0 
L 628 4666 
z
" id="DejaVuSans-4c" transform="scale(0.015625)"/>
     <path d="M 3116 1747 
Q 3116 2381 2855 2742 
Q 2594 3103 2138 3103 
Q 1681 3103 1420 2742 
Q 1159 2381 1159 1747 
Q 1159 1113 1420 752 
Q 1681 391 2138 391 
Q 2594 391 2855 752 
Q 3116 1113 3116 1747 
z
M 1159 2969 
Q 1341 3281 1617 3432 
Q 1894 3584 2278 3584 
Q 2916 3584 3314 3078 
Q 3713 2572 3713 1747 
Q 3713 922 3314 415 
Q 2916 -91 2278 -91 
Q 1894 -91 1617 61 
Q 1341 213 1159 525 
L 1159 0 
L 581 0 
L 581 4863 
L 1159 4863 
L 1159 2969 
z
" id="DejaVuSans-62" transform="scale(0.015625)"/>
     <path d="M 3513 2113 
L 3513 0 
L 2938 0 
L 2938 2094 
Q 2938 2591 2744 2837 
Q 2550 3084 2163 3084 
Q 1697 3084 1428 2787 
Q 1159 2491 1159 1978 
L 1159 0 
L 581 0 
L 581 4863 
L 1159 4863 
L 1159 2956 
Q 1366 3272 1645 3428 
Q 1925 3584 2291 3584 
Q 2894 3584 3203 3211 
Q 3513 2838 3513 2113 
z
" id="DejaVuSans-68" transform="scale(0.015625)"/>
    </defs>
    <use xlink:href="#DejaVuSans-4c"/>
    <use x="55.712891" xlink:href="#DejaVuSans-61"/>
    <use x="116.992188" xlink:href="#DejaVuSans-62"/>
    <use x="180.46875" xlink:href="#DejaVuSans-79"/>
    <use x="239.648438" xlink:href="#DejaVuSans-72"/>
    <use x="280.761719" xlink:href="#DejaVuSans-69"/>
    <use x="308.544922" xlink:href="#DejaVuSans-6e"/>
    <use x="371.923828" xlink:href="#DejaVuSans-74"/>
    <use x="411.132812" xlink:href="#DejaVuSans-68"/>
   </g>
  </g>
 </g>
 <defs>
  <clipPath id="pfe4f202047">
   <rect height="77.657143" width="334.8" x="60.202813" y="50.4"/>
  </clipPath>
  <clipPath id="pdf5a9b147a">
   <rect height="77.657143" width="334.8" x="60.202813" y="190.182857"/>
  </clipPath>
 </defs>
</svg>
