<?xml version="1.0" encoding="utf-8" standalone="no"?>
<!DOCTYPE svg PUBLIC "-//W3C//DTD SVG 1.1//EN"
  "http://www.w3.org/Graphics/SVG/1.1/DTD/svg11.dtd">
<svg height="341.082321pt" version="1.1" viewBox="0 0 405.384063 341.082321" width="405.384063pt" xmlns="http://www.w3.org/2000/svg" xmlns:xlink="http://www.w3.org/1999/xlink">
 <metadata>
  <rdf:RDF xmlns:cc="http://creativecommons.org/ns#" xmlns:dc="http://purl.org/dc/elements/1.1/" xmlns:rdf="http://www.w3.org/1999/02/22-rdf-syntax-ns#">
   <cc:Work>
    <dc:type rdf:resource="http://purl.org/dc/dcmitype/StillImage"/>
    <dc:date>2023-02-09T00:59:45.298765</dc:date>
    <dc:format>image/svg+xml</dc:format>
    <dc:creator>
     <cc:Agent>
      <dc:title>Matplotlib v3.4.3, https://matplotlib.org/</dc:title>
     </cc:Agent>
    </dc:creator>
   </cc:Work>
  </rdf:RDF>
 </metadata>
 <defs>
  <style type="text/css">*{stroke-linecap:butt;stroke-linejoin:round;}</style>
 </defs>
 <g id="figure_1">
  <g id="patch_1">
   <path d="M 0 341.082321 
L 405.384063 341.082321 
L 405.384063 0 
L 0 0 
z
" style="fill:none;"/>
  </g>
  <g id="axes_1">
   <g id="patch_2">
    <path d="M 53.840313 128.057143 
L 388.640312 128.057143 
L 388.640312 50.4 
L 53.840313 50.4 
z
" style="fill:none;"/>
   </g>
   <g id="line2d_1">
    <path clip-path="url(#pb2581e620c)" d="M 53.840313 91.949647 
L 388.640312 91.949647 
" style="fill:none;stroke:#808080;stroke-linecap:square;stroke-width:1.5;"/>
   </g>
   <g id="matplotlib.axis_1">
    <g id="xtick_1">
     <g id="line2d_2">
      <defs>
       <path d="M 0 0 
L 0 3.5 
" id="m3cc7ddd741" style="stroke:#000000;stroke-width:0.8;"/>
      </defs>
      <g>
       <use style="stroke:#000000;stroke-width:0.8;" x="118.094858" xlink:href="#m3cc7ddd741" y="128.057143"/>
      </g>
     </g>
     <g id="text_1">
      <!-- 20 -->
      <g transform="translate(111.732358 142.65558)scale(0.1 -0.1)">
       <defs>
        <path d="M 1228 531 
L 3431 531 
L 3431 0 
L 469 0 
L 469 531 
Q 828 903 1448 1529 
Q 2069 2156 2228 2338 
Q 2531 2678 2651 2914 
Q 2772 3150 2772 3378 
Q 2772 3750 2511 3984 
Q 2250 4219 1831 4219 
Q 1534 4219 1204 4116 
Q 875 4013 500 3803 
L 500 4441 
Q 881 4594 1212 4672 
Q 1544 4750 1819 4750 
Q 2544 4750 2975 4387 
Q 3406 4025 3406 3419 
Q 3406 3131 3298 2873 
Q 3191 2616 2906 2266 
Q 2828 2175 2409 1742 
Q 1991 1309 1228 531 
z
" id="DejaVuSans-32" transform="scale(0.015625)"/>
        <path d="M 2034 4250 
Q 1547 4250 1301 3770 
Q 1056 3291 1056 2328 
Q 1056 1369 1301 889 
Q 1547 409 2034 409 
Q 2525 409 2770 889 
Q 3016 1369 3016 2328 
Q 3016 3291 2770 3770 
Q 2525 4250 2034 4250 
z
M 2034 4750 
Q 2819 4750 3233 4129 
Q 3647 3509 3647 2328 
Q 3647 1150 3233 529 
Q 2819 -91 2034 -91 
Q 1250 -91 836 529 
Q 422 1150 422 2328 
Q 422 3509 836 4129 
Q 1250 4750 2034 4750 
z
" id="DejaVuSans-30" transform="scale(0.015625)"/>
       </defs>
       <use xlink:href="#DejaVuSans-32"/>
       <use x="63.623047" xlink:href="#DejaVuSans-30"/>
      </g>
     </g>
    </g>
    <g id="xtick_2">
     <g id="line2d_3">
      <g>
       <use style="stroke:#000000;stroke-width:0.8;" x="185.731222" xlink:href="#m3cc7ddd741" y="128.057143"/>
      </g>
     </g>
     <g id="text_2">
      <!-- 40 -->
      <g transform="translate(179.368722 142.65558)scale(0.1 -0.1)">
       <defs>
        <path d="M 2419 4116 
L 825 1625 
L 2419 1625 
L 2419 4116 
z
M 2253 4666 
L 3047 4666 
L 3047 1625 
L 3713 1625 
L 3713 1100 
L 3047 1100 
L 3047 0 
L 2419 0 
L 2419 1100 
L 313 1100 
L 313 1709 
L 2253 4666 
z
" id="DejaVuSans-34" transform="scale(0.015625)"/>
       </defs>
       <use xlink:href="#DejaVuSans-34"/>
       <use x="63.623047" xlink:href="#DejaVuSans-30"/>
      </g>
     </g>
    </g>
    <g id="xtick_3">
     <g id="line2d_4">
      <g>
       <use style="stroke:#000000;stroke-width:0.8;" x="253.367585" xlink:href="#m3cc7ddd741" y="128.057143"/>
      </g>
     </g>
     <g id="text_3">
      <!-- 60 -->
      <g transform="translate(247.005085 142.65558)scale(0.1 -0.1)">
       <defs>
        <path d="M 2113 2584 
Q 1688 2584 1439 2293 
Q 1191 2003 1191 1497 
Q 1191 994 1439 701 
Q 1688 409 2113 409 
Q 2538 409 2786 701 
Q 3034 994 3034 1497 
Q 3034 2003 2786 2293 
Q 2538 2584 2113 2584 
z
M 3366 4563 
L 3366 3988 
Q 3128 4100 2886 4159 
Q 2644 4219 2406 4219 
Q 1781 4219 1451 3797 
Q 1122 3375 1075 2522 
Q 1259 2794 1537 2939 
Q 1816 3084 2150 3084 
Q 2853 3084 3261 2657 
Q 3669 2231 3669 1497 
Q 3669 778 3244 343 
Q 2819 -91 2113 -91 
Q 1303 -91 875 529 
Q 447 1150 447 2328 
Q 447 3434 972 4092 
Q 1497 4750 2381 4750 
Q 2619 4750 2861 4703 
Q 3103 4656 3366 4563 
z
" id="DejaVuSans-36" transform="scale(0.015625)"/>
       </defs>
       <use xlink:href="#DejaVuSans-36"/>
       <use x="63.623047" xlink:href="#DejaVuSans-30"/>
      </g>
     </g>
    </g>
    <g id="xtick_4">
     <g id="line2d_5">
      <g>
       <use style="stroke:#000000;stroke-width:0.8;" x="321.003949" xlink:href="#m3cc7ddd741" y="128.057143"/>
      </g>
     </g>
     <g id="text_4">
      <!-- 80 -->
      <g transform="translate(314.641449 142.65558)scale(0.1 -0.1)">
       <defs>
        <path d="M 2034 2216 
Q 1584 2216 1326 1975 
Q 1069 1734 1069 1313 
Q 1069 891 1326 650 
Q 1584 409 2034 409 
Q 2484 409 2743 651 
Q 3003 894 3003 1313 
Q 3003 1734 2745 1975 
Q 2488 2216 2034 2216 
z
M 1403 2484 
Q 997 2584 770 2862 
Q 544 3141 544 3541 
Q 544 4100 942 4425 
Q 1341 4750 2034 4750 
Q 2731 4750 3128 4425 
Q 3525 4100 3525 3541 
Q 3525 3141 3298 2862 
Q 3072 2584 2669 2484 
Q 3125 2378 3379 2068 
Q 3634 1759 3634 1313 
Q 3634 634 3220 271 
Q 2806 -91 2034 -91 
Q 1263 -91 848 271 
Q 434 634 434 1313 
Q 434 1759 690 2068 
Q 947 2378 1403 2484 
z
M 1172 3481 
Q 1172 3119 1398 2916 
Q 1625 2713 2034 2713 
Q 2441 2713 2670 2916 
Q 2900 3119 2900 3481 
Q 2900 3844 2670 4047 
Q 2441 4250 2034 4250 
Q 1625 4250 1398 4047 
Q 1172 3844 1172 3481 
z
" id="DejaVuSans-38" transform="scale(0.015625)"/>
       </defs>
       <use xlink:href="#DejaVuSans-38"/>
       <use x="63.623047" xlink:href="#DejaVuSans-30"/>
      </g>
     </g>
    </g>
    <g id="xtick_5">
     <g id="line2d_6">
      <g>
       <use style="stroke:#000000;stroke-width:0.8;" x="388.640312" xlink:href="#m3cc7ddd741" y="128.057143"/>
      </g>
     </g>
     <g id="text_5">
      <!-- 100 -->
      <g transform="translate(379.096563 142.65558)scale(0.1 -0.1)">
       <defs>
        <path d="M 794 531 
L 1825 531 
L 1825 4091 
L 703 3866 
L 703 4441 
L 1819 4666 
L 2450 4666 
L 2450 531 
L 3481 531 
L 3481 0 
L 794 0 
L 794 531 
z
" id="DejaVuSans-31" transform="scale(0.015625)"/>
       </defs>
       <use xlink:href="#DejaVuSans-31"/>
       <use x="63.623047" xlink:href="#DejaVuSans-30"/>
       <use x="127.246094" xlink:href="#DejaVuSans-30"/>
      </g>
     </g>
    </g>
    <g id="text_6">
     <!-- Trial -->
     <g transform="translate(211.02625 156.333705)scale(0.1 -0.1)">
      <defs>
       <path d="M -19 4666 
L 3928 4666 
L 3928 4134 
L 2272 4134 
L 2272 0 
L 1638 0 
L 1638 4134 
L -19 4134 
L -19 4666 
z
" id="DejaVuSans-54" transform="scale(0.015625)"/>
       <path d="M 2631 2963 
Q 2534 3019 2420 3045 
Q 2306 3072 2169 3072 
Q 1681 3072 1420 2755 
Q 1159 2438 1159 1844 
L 1159 0 
L 581 0 
L 581 3500 
L 1159 3500 
L 1159 2956 
Q 1341 3275 1631 3429 
Q 1922 3584 2338 3584 
Q 2397 3584 2469 3576 
Q 2541 3569 2628 3553 
L 2631 2963 
z
" id="DejaVuSans-72" transform="scale(0.015625)"/>
       <path d="M 603 3500 
L 1178 3500 
L 1178 0 
L 603 0 
L 603 3500 
z
M 603 4863 
L 1178 4863 
L 1178 4134 
L 603 4134 
L 603 4863 
z
" id="DejaVuSans-69" transform="scale(0.015625)"/>
       <path d="M 2194 1759 
Q 1497 1759 1228 1600 
Q 959 1441 959 1056 
Q 959 750 1161 570 
Q 1363 391 1709 391 
Q 2188 391 2477 730 
Q 2766 1069 2766 1631 
L 2766 1759 
L 2194 1759 
z
M 3341 1997 
L 3341 0 
L 2766 0 
L 2766 531 
Q 2569 213 2275 61 
Q 1981 -91 1556 -91 
Q 1019 -91 701 211 
Q 384 513 384 1019 
Q 384 1609 779 1909 
Q 1175 2209 1959 2209 
L 2766 2209 
L 2766 2266 
Q 2766 2663 2505 2880 
Q 2244 3097 1772 3097 
Q 1472 3097 1187 3025 
Q 903 2953 641 2809 
L 641 3341 
Q 956 3463 1253 3523 
Q 1550 3584 1831 3584 
Q 2591 3584 2966 3190 
Q 3341 2797 3341 1997 
z
" id="DejaVuSans-61" transform="scale(0.015625)"/>
       <path d="M 603 4863 
L 1178 4863 
L 1178 0 
L 603 0 
L 603 4863 
z
" id="DejaVuSans-6c" transform="scale(0.015625)"/>
      </defs>
      <use xlink:href="#DejaVuSans-54"/>
      <use x="46.333984" xlink:href="#DejaVuSans-72"/>
      <use x="87.447266" xlink:href="#DejaVuSans-69"/>
      <use x="115.230469" xlink:href="#DejaVuSans-61"/>
      <use x="176.509766" xlink:href="#DejaVuSans-6c"/>
     </g>
    </g>
   </g>
   <g id="matplotlib.axis_2">
    <g id="ytick_1">
     <g id="line2d_7">
      <defs>
       <path d="M 0 0 
L -3.5 0 
" id="m14fdea3493" style="stroke:#000000;stroke-width:0.8;"/>
      </defs>
      <g>
       <use style="stroke:#000000;stroke-width:0.8;" x="53.840313" xlink:href="#m14fdea3493" y="114.484438"/>
      </g>
     </g>
     <g id="text_7">
      <!-- −5 -->
      <g transform="translate(32.098125 118.283657)scale(0.1 -0.1)">
       <defs>
        <path d="M 678 2272 
L 4684 2272 
L 4684 1741 
L 678 1741 
L 678 2272 
z
" id="DejaVuSans-2212" transform="scale(0.015625)"/>
        <path d="M 691 4666 
L 3169 4666 
L 3169 4134 
L 1269 4134 
L 1269 2991 
Q 1406 3038 1543 3061 
Q 1681 3084 1819 3084 
Q 2600 3084 3056 2656 
Q 3513 2228 3513 1497 
Q 3513 744 3044 326 
Q 2575 -91 1722 -91 
Q 1428 -91 1123 -41 
Q 819 9 494 109 
L 494 744 
Q 775 591 1075 516 
Q 1375 441 1709 441 
Q 2250 441 2565 725 
Q 2881 1009 2881 1497 
Q 2881 1984 2565 2268 
Q 2250 2553 1709 2553 
Q 1456 2553 1204 2497 
Q 953 2441 691 2322 
L 691 4666 
z
" id="DejaVuSans-35" transform="scale(0.015625)"/>
       </defs>
       <use xlink:href="#DejaVuSans-2212"/>
       <use x="83.789062" xlink:href="#DejaVuSans-35"/>
      </g>
     </g>
    </g>
    <g id="ytick_2">
     <g id="line2d_8">
      <g>
       <use style="stroke:#000000;stroke-width:0.8;" x="53.840313" xlink:href="#m14fdea3493" y="91.949647"/>
      </g>
     </g>
     <g id="text_8">
      <!-- 0 -->
      <g transform="translate(40.477813 95.748866)scale(0.1 -0.1)">
       <use xlink:href="#DejaVuSans-30"/>
      </g>
     </g>
    </g>
    <g id="ytick_3">
     <g id="line2d_9">
      <g>
       <use style="stroke:#000000;stroke-width:0.8;" x="53.840313" xlink:href="#m14fdea3493" y="69.414857"/>
      </g>
     </g>
     <g id="text_9">
      <!-- 5 -->
      <g transform="translate(40.477813 73.214075)scale(0.1 -0.1)">
       <use xlink:href="#DejaVuSans-35"/>
      </g>
     </g>
    </g>
    <g id="text_10">
     <!-- Directionality -->
     <g transform="translate(14.798438 122.575446)rotate(-90)scale(0.1 -0.1)">
      <defs>
       <path d="M 1259 4147 
L 1259 519 
L 2022 519 
Q 2988 519 3436 956 
Q 3884 1394 3884 2338 
Q 3884 3275 3436 3711 
Q 2988 4147 2022 4147 
L 1259 4147 
z
M 628 4666 
L 1925 4666 
Q 3281 4666 3915 4102 
Q 4550 3538 4550 2338 
Q 4550 1131 3912 565 
Q 3275 0 1925 0 
L 628 0 
L 628 4666 
z
" id="DejaVuSans-44" transform="scale(0.015625)"/>
       <path d="M 3597 1894 
L 3597 1613 
L 953 1613 
Q 991 1019 1311 708 
Q 1631 397 2203 397 
Q 2534 397 2845 478 
Q 3156 559 3463 722 
L 3463 178 
Q 3153 47 2828 -22 
Q 2503 -91 2169 -91 
Q 1331 -91 842 396 
Q 353 884 353 1716 
Q 353 2575 817 3079 
Q 1281 3584 2069 3584 
Q 2775 3584 3186 3129 
Q 3597 2675 3597 1894 
z
M 3022 2063 
Q 3016 2534 2758 2815 
Q 2500 3097 2075 3097 
Q 1594 3097 1305 2825 
Q 1016 2553 972 2059 
L 3022 2063 
z
" id="DejaVuSans-65" transform="scale(0.015625)"/>
       <path d="M 3122 3366 
L 3122 2828 
Q 2878 2963 2633 3030 
Q 2388 3097 2138 3097 
Q 1578 3097 1268 2742 
Q 959 2388 959 1747 
Q 959 1106 1268 751 
Q 1578 397 2138 397 
Q 2388 397 2633 464 
Q 2878 531 3122 666 
L 3122 134 
Q 2881 22 2623 -34 
Q 2366 -91 2075 -91 
Q 1284 -91 818 406 
Q 353 903 353 1747 
Q 353 2603 823 3093 
Q 1294 3584 2113 3584 
Q 2378 3584 2631 3529 
Q 2884 3475 3122 3366 
z
" id="DejaVuSans-63" transform="scale(0.015625)"/>
       <path d="M 1172 4494 
L 1172 3500 
L 2356 3500 
L 2356 3053 
L 1172 3053 
L 1172 1153 
Q 1172 725 1289 603 
Q 1406 481 1766 481 
L 2356 481 
L 2356 0 
L 1766 0 
Q 1100 0 847 248 
Q 594 497 594 1153 
L 594 3053 
L 172 3053 
L 172 3500 
L 594 3500 
L 594 4494 
L 1172 4494 
z
" id="DejaVuSans-74" transform="scale(0.015625)"/>
       <path d="M 1959 3097 
Q 1497 3097 1228 2736 
Q 959 2375 959 1747 
Q 959 1119 1226 758 
Q 1494 397 1959 397 
Q 2419 397 2687 759 
Q 2956 1122 2956 1747 
Q 2956 2369 2687 2733 
Q 2419 3097 1959 3097 
z
M 1959 3584 
Q 2709 3584 3137 3096 
Q 3566 2609 3566 1747 
Q 3566 888 3137 398 
Q 2709 -91 1959 -91 
Q 1206 -91 779 398 
Q 353 888 353 1747 
Q 353 2609 779 3096 
Q 1206 3584 1959 3584 
z
" id="DejaVuSans-6f" transform="scale(0.015625)"/>
       <path d="M 3513 2113 
L 3513 0 
L 2938 0 
L 2938 2094 
Q 2938 2591 2744 2837 
Q 2550 3084 2163 3084 
Q 1697 3084 1428 2787 
Q 1159 2491 1159 1978 
L 1159 0 
L 581 0 
L 581 3500 
L 1159 3500 
L 1159 2956 
Q 1366 3272 1645 3428 
Q 1925 3584 2291 3584 
Q 2894 3584 3203 3211 
Q 3513 2838 3513 2113 
z
" id="DejaVuSans-6e" transform="scale(0.015625)"/>
       <path d="M 2059 -325 
Q 1816 -950 1584 -1140 
Q 1353 -1331 966 -1331 
L 506 -1331 
L 506 -850 
L 844 -850 
Q 1081 -850 1212 -737 
Q 1344 -625 1503 -206 
L 1606 56 
L 191 3500 
L 800 3500 
L 1894 763 
L 2988 3500 
L 3597 3500 
L 2059 -325 
z
" id="DejaVuSans-79" transform="scale(0.015625)"/>
      </defs>
      <use xlink:href="#DejaVuSans-44"/>
      <use x="77.001953" xlink:href="#DejaVuSans-69"/>
      <use x="104.785156" xlink:href="#DejaVuSans-72"/>
      <use x="143.648438" xlink:href="#DejaVuSans-65"/>
      <use x="205.171875" xlink:href="#DejaVuSans-63"/>
      <use x="260.152344" xlink:href="#DejaVuSans-74"/>
      <use x="299.361328" xlink:href="#DejaVuSans-69"/>
      <use x="327.144531" xlink:href="#DejaVuSans-6f"/>
      <use x="388.326172" xlink:href="#DejaVuSans-6e"/>
      <use x="451.705078" xlink:href="#DejaVuSans-61"/>
      <use x="512.984375" xlink:href="#DejaVuSans-6c"/>
      <use x="540.767578" xlink:href="#DejaVuSans-69"/>
      <use x="568.550781" xlink:href="#DejaVuSans-74"/>
      <use x="607.759766" xlink:href="#DejaVuSans-79"/>
     </g>
     <!-- [$pairs_{fwd}-pairs_{bwd}$] -->
     <g transform="translate(25.998125 137.778571)rotate(-90)scale(0.1 -0.1)">
      <defs>
       <path d="M 550 4863 
L 1875 4863 
L 1875 4416 
L 1125 4416 
L 1125 -397 
L 1875 -397 
L 1875 -844 
L 550 -844 
L 550 4863 
z
" id="DejaVuSans-5b" transform="scale(0.015625)"/>
       <path d="M 3175 2156 
Q 3175 2616 2975 2859 
Q 2775 3103 2400 3103 
Q 2144 3103 1911 2972 
Q 1678 2841 1497 2591 
Q 1319 2344 1212 1994 
Q 1106 1644 1106 1300 
Q 1106 863 1306 627 
Q 1506 391 1875 391 
Q 2147 391 2380 519 
Q 2613 647 2778 891 
Q 2956 1147 3065 1494 
Q 3175 1841 3175 2156 
z
M 1394 2969 
Q 1625 3272 1939 3428 
Q 2253 3584 2638 3584 
Q 3175 3584 3472 3232 
Q 3769 2881 3769 2247 
Q 3769 1728 3584 1258 
Q 3400 788 3053 416 
Q 2822 169 2531 39 
Q 2241 -91 1919 -91 
Q 1547 -91 1294 64 
Q 1041 219 916 525 
L 556 -1331 
L -19 -1331 
L 922 3500 
L 1497 3500 
L 1394 2969 
z
" id="DejaVuSans-Oblique-70" transform="scale(0.015625)"/>
       <path d="M 3438 1997 
L 3047 0 
L 2472 0 
L 2578 531 
Q 2325 219 2001 64 
Q 1678 -91 1281 -91 
Q 834 -91 548 182 
Q 263 456 263 884 
Q 263 1497 752 1853 
Q 1241 2209 2100 2209 
L 2900 2209 
L 2931 2363 
Q 2938 2388 2941 2417 
Q 2944 2447 2944 2509 
Q 2944 2788 2717 2942 
Q 2491 3097 2081 3097 
Q 1800 3097 1504 3025 
Q 1209 2953 897 2809 
L 997 3341 
Q 1322 3463 1633 3523 
Q 1944 3584 2234 3584 
Q 2853 3584 3176 3315 
Q 3500 3047 3500 2534 
Q 3500 2431 3484 2292 
Q 3469 2153 3438 1997 
z
M 2816 1759 
L 2241 1759 
Q 1534 1759 1195 1570 
Q 856 1381 856 984 
Q 856 709 1029 553 
Q 1203 397 1509 397 
Q 1978 397 2328 733 
Q 2678 1069 2791 1631 
L 2816 1759 
z
" id="DejaVuSans-Oblique-61" transform="scale(0.015625)"/>
       <path d="M 1172 4863 
L 1747 4863 
L 1606 4134 
L 1031 4134 
L 1172 4863 
z
M 909 3500 
L 1484 3500 
L 800 0 
L 225 0 
L 909 3500 
z
" id="DejaVuSans-Oblique-69" transform="scale(0.015625)"/>
       <path d="M 2853 2969 
Q 2766 3016 2653 3041 
Q 2541 3066 2413 3066 
Q 1953 3066 1609 2717 
Q 1266 2369 1153 1784 
L 800 0 
L 225 0 
L 909 3500 
L 1484 3500 
L 1375 2956 
Q 1603 3259 1920 3421 
Q 2238 3584 2597 3584 
Q 2691 3584 2781 3573 
Q 2872 3563 2963 3538 
L 2853 2969 
z
" id="DejaVuSans-Oblique-72" transform="scale(0.015625)"/>
       <path d="M 3200 3397 
L 3091 2853 
Q 2863 2978 2609 3040 
Q 2356 3103 2088 3103 
Q 1634 3103 1373 2948 
Q 1113 2794 1113 2528 
Q 1113 2219 1719 2053 
Q 1766 2041 1788 2034 
L 1972 1978 
Q 2547 1819 2739 1644 
Q 2931 1469 2931 1166 
Q 2931 609 2489 259 
Q 2047 -91 1331 -91 
Q 1053 -91 747 -37 
Q 441 16 72 128 
L 184 722 
Q 500 559 806 475 
Q 1113 391 1394 391 
Q 1816 391 2080 572 
Q 2344 753 2344 1031 
Q 2344 1331 1650 1516 
L 1591 1531 
L 1394 1581 
Q 956 1697 753 1886 
Q 550 2075 550 2369 
Q 550 2928 970 3256 
Q 1391 3584 2113 3584 
Q 2397 3584 2667 3537 
Q 2938 3491 3200 3397 
z
" id="DejaVuSans-Oblique-73" transform="scale(0.015625)"/>
       <path d="M 3059 4863 
L 2969 4384 
L 2419 4384 
Q 2106 4384 1964 4261 
Q 1822 4138 1753 3809 
L 1691 3500 
L 2638 3500 
L 2553 3053 
L 1606 3053 
L 1013 0 
L 434 0 
L 1031 3053 
L 481 3053 
L 563 3500 
L 1113 3500 
L 1159 3744 
Q 1278 4363 1576 4613 
Q 1875 4863 2516 4863 
L 3059 4863 
z
" id="DejaVuSans-Oblique-66" transform="scale(0.015625)"/>
       <path d="M 544 3500 
L 1113 3500 
L 1259 684 
L 2566 3500 
L 3231 3500 
L 3425 684 
L 4666 3500 
L 5241 3500 
L 3641 0 
L 2969 0 
L 2797 2900 
L 1459 0 
L 781 0 
L 544 3500 
z
" id="DejaVuSans-Oblique-77" transform="scale(0.015625)"/>
       <path d="M 2675 525 
Q 2444 222 2128 65 
Q 1813 -91 1428 -91 
Q 903 -91 598 267 
Q 294 625 294 1247 
Q 294 1766 478 2236 
Q 663 2706 1013 3078 
Q 1244 3325 1534 3454 
Q 1825 3584 2144 3584 
Q 2481 3584 2739 3421 
Q 2997 3259 3138 2956 
L 3513 4863 
L 4091 4863 
L 3144 0 
L 2566 0 
L 2675 525 
z
M 891 1350 
Q 891 897 1095 644 
Q 1300 391 1663 391 
Q 1931 391 2161 520 
Q 2391 650 2566 903 
Q 2750 1166 2856 1509 
Q 2963 1853 2963 2188 
Q 2963 2622 2758 2865 
Q 2553 3109 2194 3109 
Q 1922 3109 1687 2981 
Q 1453 2853 1288 2613 
Q 1106 2353 998 2009 
Q 891 1666 891 1350 
z
" id="DejaVuSans-Oblique-64" transform="scale(0.015625)"/>
       <path d="M 3169 2138 
Q 3169 2591 2961 2847 
Q 2753 3103 2388 3103 
Q 2122 3103 1889 2973 
Q 1656 2844 1484 2597 
Q 1303 2338 1198 1995 
Q 1094 1653 1094 1313 
Q 1094 881 1298 636 
Q 1503 391 1863 391 
Q 2134 391 2365 517 
Q 2597 644 2772 891 
Q 2950 1147 3059 1487 
Q 3169 1828 3169 2138 
z
M 1381 2969 
Q 1594 3256 1914 3420 
Q 2234 3584 2584 3584 
Q 3122 3584 3439 3221 
Q 3756 2859 3756 2241 
Q 3756 1734 3570 1259 
Q 3384 784 3041 416 
Q 2816 172 2522 40 
Q 2228 -91 1906 -91 
Q 1566 -91 1316 65 
Q 1066 222 909 531 
L 806 0 
L 231 0 
L 1178 4863 
L 1753 4863 
L 1381 2969 
z
" id="DejaVuSans-Oblique-62" transform="scale(0.015625)"/>
       <path d="M 1947 4863 
L 1947 -844 
L 622 -844 
L 622 -397 
L 1369 -397 
L 1369 4416 
L 622 4416 
L 622 4863 
L 1947 4863 
z
" id="DejaVuSans-5d" transform="scale(0.015625)"/>
      </defs>
      <use transform="translate(0 0.015625)" xlink:href="#DejaVuSans-5b"/>
      <use transform="translate(39.013672 0.015625)" xlink:href="#DejaVuSans-Oblique-70"/>
      <use transform="translate(102.490234 0.015625)" xlink:href="#DejaVuSans-Oblique-61"/>
      <use transform="translate(163.769531 0.015625)" xlink:href="#DejaVuSans-Oblique-69"/>
      <use transform="translate(191.552734 0.015625)" xlink:href="#DejaVuSans-Oblique-72"/>
      <use transform="translate(232.666016 0.015625)" xlink:href="#DejaVuSans-Oblique-73"/>
      <use transform="translate(284.765625 -16.390625)scale(0.7)" xlink:href="#DejaVuSans-Oblique-66"/>
      <use transform="translate(309.40918 -16.390625)scale(0.7)" xlink:href="#DejaVuSans-Oblique-77"/>
      <use transform="translate(366.660156 -16.390625)scale(0.7)" xlink:href="#DejaVuSans-Oblique-64"/>
      <use transform="translate(433.310547 0.015625)" xlink:href="#DejaVuSans-2212"/>
      <use transform="translate(536.582031 0.015625)" xlink:href="#DejaVuSans-Oblique-70"/>
      <use transform="translate(600.058594 0.015625)" xlink:href="#DejaVuSans-Oblique-61"/>
      <use transform="translate(661.337891 0.015625)" xlink:href="#DejaVuSans-Oblique-69"/>
      <use transform="translate(689.121094 0.015625)" xlink:href="#DejaVuSans-Oblique-72"/>
      <use transform="translate(730.234375 0.015625)" xlink:href="#DejaVuSans-Oblique-73"/>
      <use transform="translate(782.333984 -16.390625)scale(0.7)" xlink:href="#DejaVuSans-Oblique-62"/>
      <use transform="translate(826.767578 -16.390625)scale(0.7)" xlink:href="#DejaVuSans-Oblique-77"/>
      <use transform="translate(884.018555 -16.390625)scale(0.7)" xlink:href="#DejaVuSans-Oblique-64"/>
      <use transform="translate(931.186523 0.015625)" xlink:href="#DejaVuSans-5d"/>
     </g>
    </g>
   </g>
   <g id="patch_3">
    <path d="M 53.840313 128.057143 
L 53.840313 50.4 
" style="fill:none;stroke:#000000;stroke-linecap:square;stroke-linejoin:miter;stroke-width:0.8;"/>
   </g>
   <g id="patch_4">
    <path d="M 53.840313 128.057143 
L 388.640312 128.057143 
" style="fill:none;stroke:#000000;stroke-linecap:square;stroke-linejoin:miter;stroke-width:0.8;"/>
   </g>
   <g id="text_11">
    <!-- Trial Start Replays -->
    <g transform="translate(167.092187 44.4)scale(0.12 -0.12)">
     <defs>
      <path id="DejaVuSans-20" transform="scale(0.015625)"/>
      <path d="M 3425 4513 
L 3425 3897 
Q 3066 4069 2747 4153 
Q 2428 4238 2131 4238 
Q 1616 4238 1336 4038 
Q 1056 3838 1056 3469 
Q 1056 3159 1242 3001 
Q 1428 2844 1947 2747 
L 2328 2669 
Q 3034 2534 3370 2195 
Q 3706 1856 3706 1288 
Q 3706 609 3251 259 
Q 2797 -91 1919 -91 
Q 1588 -91 1214 -16 
Q 841 59 441 206 
L 441 856 
Q 825 641 1194 531 
Q 1563 422 1919 422 
Q 2459 422 2753 634 
Q 3047 847 3047 1241 
Q 3047 1584 2836 1778 
Q 2625 1972 2144 2069 
L 1759 2144 
Q 1053 2284 737 2584 
Q 422 2884 422 3419 
Q 422 4038 858 4394 
Q 1294 4750 2059 4750 
Q 2388 4750 2728 4690 
Q 3069 4631 3425 4513 
z
" id="DejaVuSans-53" transform="scale(0.015625)"/>
      <path d="M 2841 2188 
Q 3044 2119 3236 1894 
Q 3428 1669 3622 1275 
L 4263 0 
L 3584 0 
L 2988 1197 
Q 2756 1666 2539 1819 
Q 2322 1972 1947 1972 
L 1259 1972 
L 1259 0 
L 628 0 
L 628 4666 
L 2053 4666 
Q 2853 4666 3247 4331 
Q 3641 3997 3641 3322 
Q 3641 2881 3436 2590 
Q 3231 2300 2841 2188 
z
M 1259 4147 
L 1259 2491 
L 2053 2491 
Q 2509 2491 2742 2702 
Q 2975 2913 2975 3322 
Q 2975 3731 2742 3939 
Q 2509 4147 2053 4147 
L 1259 4147 
z
" id="DejaVuSans-52" transform="scale(0.015625)"/>
      <path d="M 1159 525 
L 1159 -1331 
L 581 -1331 
L 581 3500 
L 1159 3500 
L 1159 2969 
Q 1341 3281 1617 3432 
Q 1894 3584 2278 3584 
Q 2916 3584 3314 3078 
Q 3713 2572 3713 1747 
Q 3713 922 3314 415 
Q 2916 -91 2278 -91 
Q 1894 -91 1617 61 
Q 1341 213 1159 525 
z
M 3116 1747 
Q 3116 2381 2855 2742 
Q 2594 3103 2138 3103 
Q 1681 3103 1420 2742 
Q 1159 2381 1159 1747 
Q 1159 1113 1420 752 
Q 1681 391 2138 391 
Q 2594 391 2855 752 
Q 3116 1113 3116 1747 
z
" id="DejaVuSans-70" transform="scale(0.015625)"/>
      <path d="M 2834 3397 
L 2834 2853 
Q 2591 2978 2328 3040 
Q 2066 3103 1784 3103 
Q 1356 3103 1142 2972 
Q 928 2841 928 2578 
Q 928 2378 1081 2264 
Q 1234 2150 1697 2047 
L 1894 2003 
Q 2506 1872 2764 1633 
Q 3022 1394 3022 966 
Q 3022 478 2636 193 
Q 2250 -91 1575 -91 
Q 1294 -91 989 -36 
Q 684 19 347 128 
L 347 722 
Q 666 556 975 473 
Q 1284 391 1588 391 
Q 1994 391 2212 530 
Q 2431 669 2431 922 
Q 2431 1156 2273 1281 
Q 2116 1406 1581 1522 
L 1381 1569 
Q 847 1681 609 1914 
Q 372 2147 372 2553 
Q 372 3047 722 3315 
Q 1072 3584 1716 3584 
Q 2034 3584 2315 3537 
Q 2597 3491 2834 3397 
z
" id="DejaVuSans-73" transform="scale(0.015625)"/>
     </defs>
     <use xlink:href="#DejaVuSans-54"/>
     <use x="46.333984" xlink:href="#DejaVuSans-72"/>
     <use x="87.447266" xlink:href="#DejaVuSans-69"/>
     <use x="115.230469" xlink:href="#DejaVuSans-61"/>
     <use x="176.509766" xlink:href="#DejaVuSans-6c"/>
     <use x="204.292969" xlink:href="#DejaVuSans-20"/>
     <use x="236.080078" xlink:href="#DejaVuSans-53"/>
     <use x="299.556641" xlink:href="#DejaVuSans-74"/>
     <use x="338.765625" xlink:href="#DejaVuSans-61"/>
     <use x="400.044922" xlink:href="#DejaVuSans-72"/>
     <use x="441.158203" xlink:href="#DejaVuSans-74"/>
     <use x="480.367188" xlink:href="#DejaVuSans-20"/>
     <use x="512.154297" xlink:href="#DejaVuSans-52"/>
     <use x="577.136719" xlink:href="#DejaVuSans-65"/>
     <use x="638.660156" xlink:href="#DejaVuSans-70"/>
     <use x="702.136719" xlink:href="#DejaVuSans-6c"/>
     <use x="729.919922" xlink:href="#DejaVuSans-61"/>
     <use x="791.199219" xlink:href="#DejaVuSans-79"/>
     <use x="850.378906" xlink:href="#DejaVuSans-73"/>
    </g>
   </g>
   <g id="line2d_10">
    <path clip-path="url(#pb2581e620c)" d="M 53.840313 91.949647 
L 57.222131 81.583644 
L 60.603949 83.386427 
L 63.985767 83.701914 
L 67.367585 82.485035 
L 70.749403 83.386427 
L 74.131222 83.431496 
L 77.51304 83.431496 
L 80.894858 84.197679 
L 84.276676 82.575174 
L 87.658494 81.899131 
L 91.040312 82.169548 
L 94.422131 84.287819 
L 97.803949 84.377958 
L 101.185767 81.628713 
L 104.567585 82.214618 
L 107.949403 81.493504 
L 111.331222 80.817461 
L 114.71304 82.620244 
L 118.094858 81.403365 
L 121.476676 81.763922 
L 124.858494 80.772391 
L 128.240313 80.772391 
L 131.622131 80.592113 
L 135.003949 79.690721 
L 138.385767 78.879469 
L 141.767585 78.248495 
L 145.149403 77.482312 
L 148.531222 74.733067 
L 151.91304 74.958415 
L 155.294858 75.454181 
L 158.676676 75.364041 
L 162.058494 74.46265 
L 165.440313 71.17257 
L 168.822131 73.33591 
L 172.203949 72.569727 
L 175.585767 72.209171 
L 178.967585 71.488057 
L 182.349403 69.459926 
L 185.731222 70.406387 
L 189.11304 67.206447 
L 192.494858 66.530403 
L 195.876676 67.341656 
L 199.258494 64.952968 
L 202.640313 65.448733 
L 206.022131 64.096646 
L 209.403949 63.465672 
L 212.785767 62.699489 
L 216.167585 63.510741 
L 219.549403 62.969906 
L 222.931222 62.60935 
L 226.31304 60.130523 
L 229.694858 60.896706 
L 233.076676 59.544618 
L 236.458494 60.581219 
L 239.840313 58.417879 
L 243.222131 59.815036 
L 246.603949 57.922113 
L 249.985767 61.031914 
L 253.367585 58.102392 
L 256.749403 57.741835 
L 260.131222 56.840443 
L 263.51304 57.110861 
L 266.894858 57.246069 
L 270.276676 58.28267 
L 273.658494 57.471417 
L 277.040313 57.291139 
L 280.422131 54.451755 
L 283.803949 57.15593 
L 287.185767 56.524956 
L 290.567585 55.533425 
L 293.949403 55.488356 
L 297.331222 54.541895 
L 300.71304 55.398217 
L 304.094858 54.99259 
L 307.476676 52.87432 
L 310.858494 55.263008 
L 314.240313 53.234877 
L 317.622131 54.541895 
L 321.003949 54.586964 
L 324.385767 53.234877 
L 327.767585 54.181338 
L 331.149403 54.136268 
L 334.531222 54.541895 
L 337.91304 53.234877 
L 341.294858 53.775712 
L 344.676676 54.046129 
L 348.058494 53.370085 
L 351.440313 54.677103 
L 354.822131 53.370085 
L 358.203949 52.378555 
L 361.585767 54.046129 
L 364.967585 52.603903 
L 368.349403 53.460225 
L 371.731222 52.739111 
L 375.11304 53.009529 
L 378.494858 52.648972 
L 381.876676 53.099668 
L 385.258494 53.099668 
L 388.640312 52.784181 
" style="fill:none;stroke:#008000;stroke-linecap:square;stroke-width:1.5;"/>
   </g>
   <g id="line2d_11">
    <path clip-path="url(#pb2581e620c)" d="M 53.840313 91.949647 
L 57.222131 121.154736 
L 60.603949 120.658971 
L 63.985767 124.985651 
L 67.367585 125.391277 
L 70.749403 125.751834 
L 74.131222 126.337738 
L 77.51304 125.932112 
L 80.894858 126.247599 
L 84.276676 125.210999 
L 87.658494 126.022251 
L 91.040312 125.932112 
L 94.422131 125.391277 
L 97.803949 125.661695 
L 101.185767 125.12086 
L 104.567585 125.706764 
L 107.949403 125.571555 
L 111.331222 125.12086 
L 114.71304 125.481416 
L 118.094858 124.850442 
L 121.476676 125.03072 
L 124.858494 125.391277 
L 128.240313 124.760303 
L 131.622131 125.03072 
L 135.003949 124.670164 
L 138.385767 124.850442 
L 141.767585 124.850442 
L 145.149403 125.301138 
L 148.531222 125.391277 
L 151.91304 125.391277 
L 155.294858 124.670164 
L 158.676676 124.534955 
L 162.058494 124.850442 
L 165.440313 124.670164 
L 168.822131 124.580025 
L 172.203949 124.625094 
L 175.585767 125.12086 
L 178.967585 124.129329 
L 182.349403 124.760303 
L 185.731222 124.489885 
L 189.11304 124.354677 
L 192.494858 124.129329 
L 195.876676 124.174398 
L 199.258494 124.489885 
L 202.640313 124.399746 
L 206.022131 124.309607 
L 209.403949 124.850442 
L 212.785767 124.670164 
L 216.167585 124.760303 
L 219.549403 124.580025 
L 222.931222 124.03919 
L 226.31304 124.03919 
L 229.694858 123.903981 
L 233.076676 124.309607 
L 236.458494 123.94905 
L 239.840313 123.94905 
L 243.222131 124.219468 
L 246.603949 124.715233 
L 249.985767 124.129329 
L 253.367585 124.219468 
L 256.749403 123.723703 
L 260.131222 124.399746 
L 263.51304 123.94905 
L 266.894858 124.309607 
L 270.276676 124.219468 
L 273.658494 123.94905 
L 277.040313 124.219468 
L 280.422131 123.588494 
L 283.803949 123.588494 
L 287.185767 124.03919 
L 290.567585 123.858911 
L 293.949403 124.129329 
L 297.331222 123.99412 
L 300.71304 124.219468 
L 304.094858 124.399746 
L 307.476676 123.858911 
L 310.858494 124.309607 
L 314.240313 123.94905 
L 317.622131 123.94905 
L 321.003949 124.129329 
L 324.385767 123.768772 
L 327.767585 123.858911 
L 331.149403 123.588494 
L 334.531222 123.363146 
L 337.91304 124.399746 
L 341.294858 123.273007 
L 344.676676 123.633563 
L 348.058494 123.453285 
L 351.440313 123.678633 
L 354.822131 123.498355 
L 358.203949 124.399746 
L 361.585767 124.219468 
L 364.967585 124.354677 
L 368.349403 123.543424 
L 371.731222 123.94905 
L 375.11304 123.137798 
L 378.494858 123.678633 
L 381.876676 123.813842 
L 385.258494 124.219468 
L 388.640312 123.678633 
" style="fill:none;stroke:#008000;stroke-dasharray:9.6,2.4,1.5,2.4;stroke-dashoffset:0;stroke-width:1.5;"/>
   </g>
  </g>
  <g id="axes_2">
   <g id="patch_5">
    <path d="M 53.840313 267.84 
L 388.640312 267.84 
L 388.640312 190.182857 
L 53.840313 190.182857 
z
" style="fill:none;"/>
   </g>
   <g id="line2d_12">
    <path clip-path="url(#p160a6814c1)" d="M 53.840313 196.376372 
L 388.640312 196.376372 
" style="fill:none;stroke:#808080;stroke-linecap:square;stroke-width:1.5;"/>
   </g>
   <g id="matplotlib.axis_3">
    <g id="xtick_6">
     <g id="line2d_13">
      <g>
       <use style="stroke:#000000;stroke-width:0.8;" x="118.094858" xlink:href="#m3cc7ddd741" y="267.84"/>
      </g>
     </g>
     <g id="text_12">
      <!-- 20 -->
      <g transform="translate(111.732358 282.438437)scale(0.1 -0.1)">
       <use xlink:href="#DejaVuSans-32"/>
       <use x="63.623047" xlink:href="#DejaVuSans-30"/>
      </g>
     </g>
    </g>
    <g id="xtick_7">
     <g id="line2d_14">
      <g>
       <use style="stroke:#000000;stroke-width:0.8;" x="185.731222" xlink:href="#m3cc7ddd741" y="267.84"/>
      </g>
     </g>
     <g id="text_13">
      <!-- 40 -->
      <g transform="translate(179.368722 282.438437)scale(0.1 -0.1)">
       <use xlink:href="#DejaVuSans-34"/>
       <use x="63.623047" xlink:href="#DejaVuSans-30"/>
      </g>
     </g>
    </g>
    <g id="xtick_8">
     <g id="line2d_15">
      <g>
       <use style="stroke:#000000;stroke-width:0.8;" x="253.367585" xlink:href="#m3cc7ddd741" y="267.84"/>
      </g>
     </g>
     <g id="text_14">
      <!-- 60 -->
      <g transform="translate(247.005085 282.438437)scale(0.1 -0.1)">
       <use xlink:href="#DejaVuSans-36"/>
       <use x="63.623047" xlink:href="#DejaVuSans-30"/>
      </g>
     </g>
    </g>
    <g id="xtick_9">
     <g id="line2d_16">
      <g>
       <use style="stroke:#000000;stroke-width:0.8;" x="321.003949" xlink:href="#m3cc7ddd741" y="267.84"/>
      </g>
     </g>
     <g id="text_15">
      <!-- 80 -->
      <g transform="translate(314.641449 282.438437)scale(0.1 -0.1)">
       <use xlink:href="#DejaVuSans-38"/>
       <use x="63.623047" xlink:href="#DejaVuSans-30"/>
      </g>
     </g>
    </g>
    <g id="xtick_10">
     <g id="line2d_17">
      <g>
       <use style="stroke:#000000;stroke-width:0.8;" x="388.640312" xlink:href="#m3cc7ddd741" y="267.84"/>
      </g>
     </g>
     <g id="text_16">
      <!-- 100 -->
      <g transform="translate(379.096563 282.438437)scale(0.1 -0.1)">
       <use xlink:href="#DejaVuSans-31"/>
       <use x="63.623047" xlink:href="#DejaVuSans-30"/>
       <use x="127.246094" xlink:href="#DejaVuSans-30"/>
      </g>
     </g>
    </g>
    <g id="text_17">
     <!-- Trial -->
     <g transform="translate(211.02625 296.116562)scale(0.1 -0.1)">
      <use xlink:href="#DejaVuSans-54"/>
      <use x="46.333984" xlink:href="#DejaVuSans-72"/>
      <use x="87.447266" xlink:href="#DejaVuSans-69"/>
      <use x="115.230469" xlink:href="#DejaVuSans-61"/>
      <use x="176.509766" xlink:href="#DejaVuSans-6c"/>
     </g>
    </g>
   </g>
   <g id="matplotlib.axis_4">
    <g id="ytick_4">
     <g id="line2d_18">
      <g>
       <use style="stroke:#000000;stroke-width:0.8;" x="53.840313" xlink:href="#m14fdea3493" y="234.187815"/>
      </g>
     </g>
     <g id="text_18">
      <!-- −5 -->
      <g transform="translate(32.098125 237.987034)scale(0.1 -0.1)">
       <use xlink:href="#DejaVuSans-2212"/>
       <use x="83.789062" xlink:href="#DejaVuSans-35"/>
      </g>
     </g>
    </g>
    <g id="ytick_5">
     <g id="line2d_19">
      <g>
       <use style="stroke:#000000;stroke-width:0.8;" x="53.840313" xlink:href="#m14fdea3493" y="196.376372"/>
      </g>
     </g>
     <g id="text_19">
      <!-- 0 -->
      <g transform="translate(40.477813 200.17559)scale(0.1 -0.1)">
       <use xlink:href="#DejaVuSans-30"/>
      </g>
     </g>
    </g>
    <g id="text_20">
     <!-- Directionality -->
     <g transform="translate(14.798438 262.358304)rotate(-90)scale(0.1 -0.1)">
      <use xlink:href="#DejaVuSans-44"/>
      <use x="77.001953" xlink:href="#DejaVuSans-69"/>
      <use x="104.785156" xlink:href="#DejaVuSans-72"/>
      <use x="143.648438" xlink:href="#DejaVuSans-65"/>
      <use x="205.171875" xlink:href="#DejaVuSans-63"/>
      <use x="260.152344" xlink:href="#DejaVuSans-74"/>
      <use x="299.361328" xlink:href="#DejaVuSans-69"/>
      <use x="327.144531" xlink:href="#DejaVuSans-6f"/>
      <use x="388.326172" xlink:href="#DejaVuSans-6e"/>
      <use x="451.705078" xlink:href="#DejaVuSans-61"/>
      <use x="512.984375" xlink:href="#DejaVuSans-6c"/>
      <use x="540.767578" xlink:href="#DejaVuSans-69"/>
      <use x="568.550781" xlink:href="#DejaVuSans-74"/>
      <use x="607.759766" xlink:href="#DejaVuSans-79"/>
     </g>
     <!-- [$pairs_{fwd}-pairs_{bwd}$] -->
     <g transform="translate(25.998125 277.561429)rotate(-90)scale(0.1 -0.1)">
      <use transform="translate(0 0.015625)" xlink:href="#DejaVuSans-5b"/>
      <use transform="translate(39.013672 0.015625)" xlink:href="#DejaVuSans-Oblique-70"/>
      <use transform="translate(102.490234 0.015625)" xlink:href="#DejaVuSans-Oblique-61"/>
      <use transform="translate(163.769531 0.015625)" xlink:href="#DejaVuSans-Oblique-69"/>
      <use transform="translate(191.552734 0.015625)" xlink:href="#DejaVuSans-Oblique-72"/>
      <use transform="translate(232.666016 0.015625)" xlink:href="#DejaVuSans-Oblique-73"/>
      <use transform="translate(284.765625 -16.390625)scale(0.7)" xlink:href="#DejaVuSans-Oblique-66"/>
      <use transform="translate(309.40918 -16.390625)scale(0.7)" xlink:href="#DejaVuSans-Oblique-77"/>
      <use transform="translate(366.660156 -16.390625)scale(0.7)" xlink:href="#DejaVuSans-Oblique-64"/>
      <use transform="translate(433.310547 0.015625)" xlink:href="#DejaVuSans-2212"/>
      <use transform="translate(536.582031 0.015625)" xlink:href="#DejaVuSans-Oblique-70"/>
      <use transform="translate(600.058594 0.015625)" xlink:href="#DejaVuSans-Oblique-61"/>
      <use transform="translate(661.337891 0.015625)" xlink:href="#DejaVuSans-Oblique-69"/>
      <use transform="translate(689.121094 0.015625)" xlink:href="#DejaVuSans-Oblique-72"/>
      <use transform="translate(730.234375 0.015625)" xlink:href="#DejaVuSans-Oblique-73"/>
      <use transform="translate(782.333984 -16.390625)scale(0.7)" xlink:href="#DejaVuSans-Oblique-62"/>
      <use transform="translate(826.767578 -16.390625)scale(0.7)" xlink:href="#DejaVuSans-Oblique-77"/>
      <use transform="translate(884.018555 -16.390625)scale(0.7)" xlink:href="#DejaVuSans-Oblique-64"/>
      <use transform="translate(931.186523 0.015625)" xlink:href="#DejaVuSans-5d"/>
     </g>
    </g>
   </g>
   <g id="patch_6">
    <path d="M 53.840313 267.84 
L 53.840313 190.182857 
" style="fill:none;stroke:#000000;stroke-linecap:square;stroke-linejoin:miter;stroke-width:0.8;"/>
   </g>
   <g id="patch_7">
    <path d="M 53.840313 267.84 
L 388.640312 267.84 
" style="fill:none;stroke:#000000;stroke-linecap:square;stroke-linejoin:miter;stroke-width:0.8;"/>
   </g>
   <g id="text_21">
    <!-- Trial End Replays -->
    <g transform="translate(170.34625 184.182857)scale(0.12 -0.12)">
     <defs>
      <path d="M 628 4666 
L 3578 4666 
L 3578 4134 
L 1259 4134 
L 1259 2753 
L 3481 2753 
L 3481 2222 
L 1259 2222 
L 1259 531 
L 3634 531 
L 3634 0 
L 628 0 
L 628 4666 
z
" id="DejaVuSans-45" transform="scale(0.015625)"/>
      <path d="M 2906 2969 
L 2906 4863 
L 3481 4863 
L 3481 0 
L 2906 0 
L 2906 525 
Q 2725 213 2448 61 
Q 2172 -91 1784 -91 
Q 1150 -91 751 415 
Q 353 922 353 1747 
Q 353 2572 751 3078 
Q 1150 3584 1784 3584 
Q 2172 3584 2448 3432 
Q 2725 3281 2906 2969 
z
M 947 1747 
Q 947 1113 1208 752 
Q 1469 391 1925 391 
Q 2381 391 2643 752 
Q 2906 1113 2906 1747 
Q 2906 2381 2643 2742 
Q 2381 3103 1925 3103 
Q 1469 3103 1208 2742 
Q 947 2381 947 1747 
z
" id="DejaVuSans-64" transform="scale(0.015625)"/>
     </defs>
     <use xlink:href="#DejaVuSans-54"/>
     <use x="46.333984" xlink:href="#DejaVuSans-72"/>
     <use x="87.447266" xlink:href="#DejaVuSans-69"/>
     <use x="115.230469" xlink:href="#DejaVuSans-61"/>
     <use x="176.509766" xlink:href="#DejaVuSans-6c"/>
     <use x="204.292969" xlink:href="#DejaVuSans-20"/>
     <use x="236.080078" xlink:href="#DejaVuSans-45"/>
     <use x="299.263672" xlink:href="#DejaVuSans-6e"/>
     <use x="362.642578" xlink:href="#DejaVuSans-64"/>
     <use x="426.119141" xlink:href="#DejaVuSans-20"/>
     <use x="457.90625" xlink:href="#DejaVuSans-52"/>
     <use x="522.888672" xlink:href="#DejaVuSans-65"/>
     <use x="584.412109" xlink:href="#DejaVuSans-70"/>
     <use x="647.888672" xlink:href="#DejaVuSans-6c"/>
     <use x="675.671875" xlink:href="#DejaVuSans-61"/>
     <use x="736.951172" xlink:href="#DejaVuSans-79"/>
     <use x="796.130859" xlink:href="#DejaVuSans-73"/>
    </g>
   </g>
   <g id="legend_1">
    <g id="patch_8">
     <path d="M 80.939687 333.882321 
L 361.540938 333.882321 
Q 363.940938 333.882321 363.940938 331.482321 
L 363.940938 315.068571 
Q 363.940938 312.668571 361.540938 312.668571 
L 80.939687 312.668571 
Q 78.539687 312.668571 78.539687 315.068571 
L 78.539687 331.482321 
Q 78.539687 333.882321 80.939687 333.882321 
z
" style="fill:none;opacity:0;"/>
    </g>
    <g id="line2d_20">
     <path d="M 83.339687 322.386696 
L 107.339687 322.386696 
" style="fill:none;stroke:#008000;stroke-linecap:square;stroke-width:1.5;"/>
    </g>
    <g id="line2d_21"/>
    <g id="text_22">
     <!-- SFMA (Default) -->
     <g transform="translate(116.939687 326.586696)scale(0.12 -0.12)">
      <defs>
       <path d="M 628 4666 
L 3309 4666 
L 3309 4134 
L 1259 4134 
L 1259 2759 
L 3109 2759 
L 3109 2228 
L 1259 2228 
L 1259 0 
L 628 0 
L 628 4666 
z
" id="DejaVuSans-46" transform="scale(0.015625)"/>
       <path d="M 628 4666 
L 1569 4666 
L 2759 1491 
L 3956 4666 
L 4897 4666 
L 4897 0 
L 4281 0 
L 4281 4097 
L 3078 897 
L 2444 897 
L 1241 4097 
L 1241 0 
L 628 0 
L 628 4666 
z
" id="DejaVuSans-4d" transform="scale(0.015625)"/>
       <path d="M 2188 4044 
L 1331 1722 
L 3047 1722 
L 2188 4044 
z
M 1831 4666 
L 2547 4666 
L 4325 0 
L 3669 0 
L 3244 1197 
L 1141 1197 
L 716 0 
L 50 0 
L 1831 4666 
z
" id="DejaVuSans-41" transform="scale(0.015625)"/>
       <path d="M 1984 4856 
Q 1566 4138 1362 3434 
Q 1159 2731 1159 2009 
Q 1159 1288 1364 580 
Q 1569 -128 1984 -844 
L 1484 -844 
Q 1016 -109 783 600 
Q 550 1309 550 2009 
Q 550 2706 781 3412 
Q 1013 4119 1484 4856 
L 1984 4856 
z
" id="DejaVuSans-28" transform="scale(0.015625)"/>
       <path d="M 2375 4863 
L 2375 4384 
L 1825 4384 
Q 1516 4384 1395 4259 
Q 1275 4134 1275 3809 
L 1275 3500 
L 2222 3500 
L 2222 3053 
L 1275 3053 
L 1275 0 
L 697 0 
L 697 3053 
L 147 3053 
L 147 3500 
L 697 3500 
L 697 3744 
Q 697 4328 969 4595 
Q 1241 4863 1831 4863 
L 2375 4863 
z
" id="DejaVuSans-66" transform="scale(0.015625)"/>
       <path d="M 544 1381 
L 544 3500 
L 1119 3500 
L 1119 1403 
Q 1119 906 1312 657 
Q 1506 409 1894 409 
Q 2359 409 2629 706 
Q 2900 1003 2900 1516 
L 2900 3500 
L 3475 3500 
L 3475 0 
L 2900 0 
L 2900 538 
Q 2691 219 2414 64 
Q 2138 -91 1772 -91 
Q 1169 -91 856 284 
Q 544 659 544 1381 
z
M 1991 3584 
L 1991 3584 
z
" id="DejaVuSans-75" transform="scale(0.015625)"/>
       <path d="M 513 4856 
L 1013 4856 
Q 1481 4119 1714 3412 
Q 1947 2706 1947 2009 
Q 1947 1309 1714 600 
Q 1481 -109 1013 -844 
L 513 -844 
Q 928 -128 1133 580 
Q 1338 1288 1338 2009 
Q 1338 2731 1133 3434 
Q 928 4138 513 4856 
z
" id="DejaVuSans-29" transform="scale(0.015625)"/>
      </defs>
      <use xlink:href="#DejaVuSans-53"/>
      <use x="63.476562" xlink:href="#DejaVuSans-46"/>
      <use x="120.996094" xlink:href="#DejaVuSans-4d"/>
      <use x="207.275391" xlink:href="#DejaVuSans-41"/>
      <use x="275.683594" xlink:href="#DejaVuSans-20"/>
      <use x="307.470703" xlink:href="#DejaVuSans-28"/>
      <use x="346.484375" xlink:href="#DejaVuSans-44"/>
      <use x="423.486328" xlink:href="#DejaVuSans-65"/>
      <use x="485.009766" xlink:href="#DejaVuSans-66"/>
      <use x="520.214844" xlink:href="#DejaVuSans-61"/>
      <use x="581.494141" xlink:href="#DejaVuSans-75"/>
      <use x="644.873047" xlink:href="#DejaVuSans-6c"/>
      <use x="672.65625" xlink:href="#DejaVuSans-74"/>
      <use x="711.865234" xlink:href="#DejaVuSans-29"/>
     </g>
    </g>
    <g id="line2d_22">
     <path d="M 231.044687 322.386696 
L 255.044687 322.386696 
" style="fill:none;stroke:#008000;stroke-dasharray:9.6,2.4,1.5,2.4;stroke-dashoffset:0;stroke-width:1.5;"/>
    </g>
    <g id="line2d_23"/>
    <g id="text_23">
     <!-- SFMA (Reverse) -->
     <g transform="translate(264.644687 326.586696)scale(0.12 -0.12)">
      <defs>
       <path d="M 191 3500 
L 800 3500 
L 1894 563 
L 2988 3500 
L 3597 3500 
L 2284 0 
L 1503 0 
L 191 3500 
z
" id="DejaVuSans-76" transform="scale(0.015625)"/>
      </defs>
      <use xlink:href="#DejaVuSans-53"/>
      <use x="63.476562" xlink:href="#DejaVuSans-46"/>
      <use x="120.996094" xlink:href="#DejaVuSans-4d"/>
      <use x="207.275391" xlink:href="#DejaVuSans-41"/>
      <use x="275.683594" xlink:href="#DejaVuSans-20"/>
      <use x="307.470703" xlink:href="#DejaVuSans-28"/>
      <use x="346.484375" xlink:href="#DejaVuSans-52"/>
      <use x="411.466797" xlink:href="#DejaVuSans-65"/>
      <use x="472.990234" xlink:href="#DejaVuSans-76"/>
      <use x="532.169922" xlink:href="#DejaVuSans-65"/>
      <use x="593.693359" xlink:href="#DejaVuSans-72"/>
      <use x="634.806641" xlink:href="#DejaVuSans-73"/>
      <use x="686.90625" xlink:href="#DejaVuSans-65"/>
      <use x="748.429688" xlink:href="#DejaVuSans-29"/>
     </g>
    </g>
   </g>
   <g id="line2d_24">
    <path clip-path="url(#p160a6814c1)" d="M 53.840313 196.149503 
L 57.222131 198.342567 
L 60.603949 190.477786 
L 63.985767 192.822096 
L 67.367585 194.258931 
L 70.749403 198.569435 
L 74.131222 197.359469 
L 77.51304 197.964452 
L 80.894858 203.560546 
L 84.276676 201.291859 
L 87.658494 201.669974 
L 91.040312 203.031186 
L 94.422131 207.417313 
L 97.803949 205.299872 
L 101.185767 207.946673 
L 104.567585 208.324788 
L 107.949403 206.207347 
L 111.331222 213.013407 
L 114.71304 217.323911 
L 118.094858 212.862161 
L 121.476676 217.626403 
L 124.858494 216.567682 
L 128.240313 219.063238 
L 131.622131 224.810577 
L 135.003949 224.659331 
L 138.385767 222.541891 
L 141.767585 228.137984 
L 145.149403 229.952934 
L 148.531222 230.709162 
L 151.91304 230.860408 
L 155.294858 236.380879 
L 158.676676 236.985862 
L 162.058494 235.322159 
L 165.440313 239.330172 
L 168.822131 241.825727 
L 172.203949 240.615761 
L 175.585767 244.850642 
L 178.967585 246.968083 
L 182.349403 246.3631 
L 185.731222 245.30438 
L 189.11304 250.144244 
L 192.494858 250.522359 
L 195.876676 248.783032 
L 199.258494 251.505456 
L 202.640313 249.917376 
L 206.022131 250.068622 
L 209.403949 251.278588 
L 212.785767 252.564177 
L 216.167585 254.152257 
L 219.549403 251.051719 
L 222.931222 253.622897 
L 226.31304 254.076635 
L 229.694858 254.984109 
L 233.076676 256.723436 
L 236.458494 254.832863 
L 239.840313 257.706533 
L 243.222131 257.328419 
L 246.603949 257.177173 
L 249.985767 258.462762 
L 253.367585 257.782156 
L 256.749403 257.328419 
L 260.131222 259.597105 
L 263.51304 258.614008 
L 266.894858 260.428957 
L 270.276676 258.235893 
L 273.658494 260.202088 
L 277.040313 261.109563 
L 280.422131 260.580203 
L 283.803949 260.580203 
L 287.185767 259.597105 
L 290.567585 260.428957 
L 293.949403 260.655826 
L 297.331222 260.353334 
L 300.71304 261.03394 
L 304.094858 259.748351 
L 307.476676 261.336432 
L 310.858494 262.243906 
L 314.240313 260.50458 
L 317.622131 262.470775 
L 321.003949 262.773267 
L 324.385767 261.109563 
L 327.767585 260.50458 
L 331.149403 261.336432 
L 334.531222 260.882694 
L 337.91304 262.017038 
L 341.294858 261.790169 
L 344.676676 262.017038 
L 348.058494 262.622021 
L 351.440313 261.412055 
L 354.822131 262.243906 
L 358.203949 262.546398 
L 361.585767 260.50458 
L 364.967585 261.412055 
L 368.349403 262.017038 
L 371.731222 262.697644 
L 375.11304 262.924512 
L 378.494858 261.865792 
L 381.876676 261.109563 
L 385.258494 261.487677 
L 388.640312 261.865792 
" style="fill:none;stroke:#008000;stroke-linecap:square;stroke-width:1.5;"/>
   </g>
   <g id="line2d_25">
    <path clip-path="url(#p160a6814c1)" d="M 53.840313 253.925389 
L 57.222131 255.891584 
L 60.603949 259.823974 
L 63.985767 259.97522 
L 67.367585 259.521482 
L 70.749403 261.109563 
L 74.131222 262.168283 
L 77.51304 262.470775 
L 80.894858 262.924512 
L 84.276676 262.319529 
L 87.658494 263.529495 
L 91.040312 263.302627 
L 94.422131 263.680741 
L 97.803949 263.680741 
L 101.185767 263.983233 
L 104.567585 263.983233 
L 107.949403 264.43697 
L 111.331222 263.983233 
L 114.71304 264.43697 
L 118.094858 264.285724 
L 121.476676 264.43697 
L 124.858494 263.680741 
L 128.240313 264.134479 
L 131.622131 264.134479 
L 135.003949 264.43697 
L 138.385767 264.134479 
L 141.767585 264.134479 
L 145.149403 263.756364 
L 148.531222 264.285724 
L 151.91304 264.361347 
L 155.294858 264.361347 
L 158.676676 264.43697 
L 162.058494 264.43697 
L 165.440313 264.361347 
L 168.822131 264.361347 
L 172.203949 264.43697 
L 175.585767 264.43697 
L 178.967585 264.43697 
L 182.349403 264.43697 
L 185.731222 264.43697 
L 189.11304 264.43697 
L 192.494858 264.43697 
L 195.876676 264.43697 
L 199.258494 264.43697 
L 202.640313 264.361347 
L 206.022131 264.43697 
L 209.403949 264.43697 
L 212.785767 264.43697 
L 216.167585 264.43697 
L 219.549403 264.43697 
L 222.931222 264.43697 
L 226.31304 264.43697 
L 229.694858 264.43697 
L 233.076676 264.43697 
L 236.458494 264.43697 
L 239.840313 264.43697 
L 243.222131 264.43697 
L 246.603949 264.43697 
L 249.985767 264.361347 
L 253.367585 264.43697 
L 256.749403 264.43697 
L 260.131222 264.43697 
L 263.51304 264.361347 
L 266.894858 264.361347 
L 270.276676 264.43697 
L 273.658494 264.43697 
L 277.040313 264.43697 
L 280.422131 264.43697 
L 283.803949 264.361347 
L 287.185767 264.43697 
L 290.567585 264.43697 
L 293.949403 264.43697 
L 297.331222 264.43697 
L 300.71304 264.43697 
L 304.094858 264.43697 
L 307.476676 264.43697 
L 310.858494 264.43697 
L 314.240313 264.43697 
L 317.622131 264.43697 
L 321.003949 264.210101 
L 324.385767 264.43697 
L 327.767585 264.43697 
L 331.149403 264.43697 
L 334.531222 264.43697 
L 337.91304 264.43697 
L 341.294858 264.43697 
L 344.676676 264.43697 
L 348.058494 264.43697 
L 351.440313 264.285724 
L 354.822131 264.43697 
L 358.203949 264.43697 
L 361.585767 264.361347 
L 364.967585 264.43697 
L 368.349403 264.43697 
L 371.731222 264.43697 
L 375.11304 264.43697 
L 378.494858 264.43697 
L 381.876676 264.43697 
L 385.258494 264.43697 
L 388.640312 264.43697 
" style="fill:none;stroke:#008000;stroke-dasharray:9.6,2.4,1.5,2.4;stroke-dashoffset:0;stroke-width:1.5;"/>
   </g>
  </g>
  <g id="text_24">
   <!-- Open Field -->
   <g transform="translate(176.110234 18.597656)scale(0.15 -0.15)">
    <defs>
     <path d="M 2522 4238 
Q 1834 4238 1429 3725 
Q 1025 3213 1025 2328 
Q 1025 1447 1429 934 
Q 1834 422 2522 422 
Q 3209 422 3611 934 
Q 4013 1447 4013 2328 
Q 4013 3213 3611 3725 
Q 3209 4238 2522 4238 
z
M 2522 4750 
Q 3503 4750 4090 4092 
Q 4678 3434 4678 2328 
Q 4678 1225 4090 567 
Q 3503 -91 2522 -91 
Q 1538 -91 948 565 
Q 359 1222 359 2328 
Q 359 3434 948 4092 
Q 1538 4750 2522 4750 
z
" id="DejaVuSans-4f" transform="scale(0.015625)"/>
    </defs>
    <use xlink:href="#DejaVuSans-4f"/>
    <use x="78.710938" xlink:href="#DejaVuSans-70"/>
    <use x="142.1875" xlink:href="#DejaVuSans-65"/>
    <use x="203.710938" xlink:href="#DejaVuSans-6e"/>
    <use x="267.089844" xlink:href="#DejaVuSans-20"/>
    <use x="298.876953" xlink:href="#DejaVuSans-46"/>
    <use x="349.146484" xlink:href="#DejaVuSans-69"/>
    <use x="376.929688" xlink:href="#DejaVuSans-65"/>
    <use x="438.453125" xlink:href="#DejaVuSans-6c"/>
    <use x="466.236328" xlink:href="#DejaVuSans-64"/>
   </g>
  </g>
 </g>
 <defs>
  <clipPath id="pb2581e620c">
   <rect height="77.657143" width="334.8" x="53.840313" y="50.4"/>
  </clipPath>
  <clipPath id="p160a6814c1">
   <rect height="77.657143" width="334.8" x="53.840313" y="190.182857"/>
  </clipPath>
 </defs>
</svg>
