<?xml version="1.0" encoding="utf-8" standalone="no"?>
<!DOCTYPE svg PUBLIC "-//W3C//DTD SVG 1.1//EN"
  "http://www.w3.org/Graphics/SVG/1.1/DTD/svg11.dtd">
<svg height="341.082321pt" version="1.1" viewBox="0 0 376.240625 341.082321" width="376.240625pt" xmlns="http://www.w3.org/2000/svg" xmlns:xlink="http://www.w3.org/1999/xlink">
 <metadata>
  <rdf:RDF xmlns:cc="http://creativecommons.org/ns#" xmlns:dc="http://purl.org/dc/elements/1.1/" xmlns:rdf="http://www.w3.org/1999/02/22-rdf-syntax-ns#">
   <cc:Work>
    <dc:type rdf:resource="http://purl.org/dc/dcmitype/StillImage"/>
    <dc:date>2023-01-28T03:51:37.614718</dc:date>
    <dc:format>image/svg+xml</dc:format>
    <dc:creator>
     <cc:Agent>
      <dc:title>Matplotlib v3.4.3, https://matplotlib.org/</dc:title>
     </cc:Agent>
    </dc:creator>
   </cc:Work>
  </rdf:RDF>
 </metadata>
 <defs>
  <style type="text/css">*{stroke-linecap:butt;stroke-linejoin:round;}</style>
 </defs>
 <g id="figure_1">
  <g id="patch_1">
   <path d="M 0 341.082321 
L 376.240625 341.082321 
L 376.240625 0 
L 0 0 
z
" style="fill:none;"/>
  </g>
  <g id="axes_1">
   <g id="patch_2">
    <path d="M 34.240625 128.057143 
L 369.040625 128.057143 
L 369.040625 50.4 
L 34.240625 50.4 
z
" style="fill:none;"/>
   </g>
   <g id="matplotlib.axis_1">
    <g id="xtick_1">
     <g id="line2d_1">
      <defs>
       <path d="M 0 0 
L 0 3.5 
" id="m337d048784" style="stroke:#000000;stroke-width:0.8;"/>
      </defs>
      <g>
       <use style="stroke:#000000;stroke-width:0.8;" x="49.458807" xlink:href="#m337d048784" y="128.057143"/>
      </g>
     </g>
     <g id="text_1">
      <!-- 0 -->
      <g transform="translate(46.277557 142.65558)scale(0.1 -0.1)">
       <defs>
        <path d="M 2034 4250 
Q 1547 4250 1301 3770 
Q 1056 3291 1056 2328 
Q 1056 1369 1301 889 
Q 1547 409 2034 409 
Q 2525 409 2770 889 
Q 3016 1369 3016 2328 
Q 3016 3291 2770 3770 
Q 2525 4250 2034 4250 
z
M 2034 4750 
Q 2819 4750 3233 4129 
Q 3647 3509 3647 2328 
Q 3647 1150 3233 529 
Q 2819 -91 2034 -91 
Q 1250 -91 836 529 
Q 422 1150 422 2328 
Q 422 3509 836 4129 
Q 1250 4750 2034 4750 
z
" id="DejaVuSans-30" transform="scale(0.015625)"/>
       </defs>
       <use xlink:href="#DejaVuSans-30"/>
      </g>
     </g>
    </g>
    <g id="xtick_2">
     <g id="line2d_2">
      <g>
       <use style="stroke:#000000;stroke-width:0.8;" x="87.695445" xlink:href="#m337d048784" y="128.057143"/>
      </g>
     </g>
     <g id="text_2">
      <!-- 25 -->
      <g transform="translate(81.332945 142.65558)scale(0.1 -0.1)">
       <defs>
        <path d="M 1228 531 
L 3431 531 
L 3431 0 
L 469 0 
L 469 531 
Q 828 903 1448 1529 
Q 2069 2156 2228 2338 
Q 2531 2678 2651 2914 
Q 2772 3150 2772 3378 
Q 2772 3750 2511 3984 
Q 2250 4219 1831 4219 
Q 1534 4219 1204 4116 
Q 875 4013 500 3803 
L 500 4441 
Q 881 4594 1212 4672 
Q 1544 4750 1819 4750 
Q 2544 4750 2975 4387 
Q 3406 4025 3406 3419 
Q 3406 3131 3298 2873 
Q 3191 2616 2906 2266 
Q 2828 2175 2409 1742 
Q 1991 1309 1228 531 
z
" id="DejaVuSans-32" transform="scale(0.015625)"/>
        <path d="M 691 4666 
L 3169 4666 
L 3169 4134 
L 1269 4134 
L 1269 2991 
Q 1406 3038 1543 3061 
Q 1681 3084 1819 3084 
Q 2600 3084 3056 2656 
Q 3513 2228 3513 1497 
Q 3513 744 3044 326 
Q 2575 -91 1722 -91 
Q 1428 -91 1123 -41 
Q 819 9 494 109 
L 494 744 
Q 775 591 1075 516 
Q 1375 441 1709 441 
Q 2250 441 2565 725 
Q 2881 1009 2881 1497 
Q 2881 1984 2565 2268 
Q 2250 2553 1709 2553 
Q 1456 2553 1204 2497 
Q 953 2441 691 2322 
L 691 4666 
z
" id="DejaVuSans-35" transform="scale(0.015625)"/>
       </defs>
       <use xlink:href="#DejaVuSans-32"/>
       <use x="63.623047" xlink:href="#DejaVuSans-35"/>
      </g>
     </g>
    </g>
    <g id="xtick_3">
     <g id="line2d_3">
      <g>
       <use style="stroke:#000000;stroke-width:0.8;" x="125.932082" xlink:href="#m337d048784" y="128.057143"/>
      </g>
     </g>
     <g id="text_3">
      <!-- 50 -->
      <g transform="translate(119.569582 142.65558)scale(0.1 -0.1)">
       <use xlink:href="#DejaVuSans-35"/>
       <use x="63.623047" xlink:href="#DejaVuSans-30"/>
      </g>
     </g>
    </g>
    <g id="xtick_4">
     <g id="line2d_4">
      <g>
       <use style="stroke:#000000;stroke-width:0.8;" x="164.16872" xlink:href="#m337d048784" y="128.057143"/>
      </g>
     </g>
     <g id="text_4">
      <!-- 75 -->
      <g transform="translate(157.80622 142.65558)scale(0.1 -0.1)">
       <defs>
        <path d="M 525 4666 
L 3525 4666 
L 3525 4397 
L 1831 0 
L 1172 0 
L 2766 4134 
L 525 4134 
L 525 4666 
z
" id="DejaVuSans-37" transform="scale(0.015625)"/>
       </defs>
       <use xlink:href="#DejaVuSans-37"/>
       <use x="63.623047" xlink:href="#DejaVuSans-35"/>
      </g>
     </g>
    </g>
    <g id="xtick_5">
     <g id="line2d_5">
      <g>
       <use style="stroke:#000000;stroke-width:0.8;" x="202.405358" xlink:href="#m337d048784" y="128.057143"/>
      </g>
     </g>
     <g id="text_5">
      <!-- 100 -->
      <g transform="translate(192.861608 142.65558)scale(0.1 -0.1)">
       <defs>
        <path d="M 794 531 
L 1825 531 
L 1825 4091 
L 703 3866 
L 703 4441 
L 1819 4666 
L 2450 4666 
L 2450 531 
L 3481 531 
L 3481 0 
L 794 0 
L 794 531 
z
" id="DejaVuSans-31" transform="scale(0.015625)"/>
       </defs>
       <use xlink:href="#DejaVuSans-31"/>
       <use x="63.623047" xlink:href="#DejaVuSans-30"/>
       <use x="127.246094" xlink:href="#DejaVuSans-30"/>
      </g>
     </g>
    </g>
    <g id="xtick_6">
     <g id="line2d_6">
      <g>
       <use style="stroke:#000000;stroke-width:0.8;" x="240.641995" xlink:href="#m337d048784" y="128.057143"/>
      </g>
     </g>
     <g id="text_6">
      <!-- 125 -->
      <g transform="translate(231.098245 142.65558)scale(0.1 -0.1)">
       <use xlink:href="#DejaVuSans-31"/>
       <use x="63.623047" xlink:href="#DejaVuSans-32"/>
       <use x="127.246094" xlink:href="#DejaVuSans-35"/>
      </g>
     </g>
    </g>
    <g id="xtick_7">
     <g id="line2d_7">
      <g>
       <use style="stroke:#000000;stroke-width:0.8;" x="278.878633" xlink:href="#m337d048784" y="128.057143"/>
      </g>
     </g>
     <g id="text_7">
      <!-- 150 -->
      <g transform="translate(269.334883 142.65558)scale(0.1 -0.1)">
       <use xlink:href="#DejaVuSans-31"/>
       <use x="63.623047" xlink:href="#DejaVuSans-35"/>
       <use x="127.246094" xlink:href="#DejaVuSans-30"/>
      </g>
     </g>
    </g>
    <g id="xtick_8">
     <g id="line2d_8">
      <g>
       <use style="stroke:#000000;stroke-width:0.8;" x="317.115271" xlink:href="#m337d048784" y="128.057143"/>
      </g>
     </g>
     <g id="text_8">
      <!-- 175 -->
      <g transform="translate(307.571521 142.65558)scale(0.1 -0.1)">
       <use xlink:href="#DejaVuSans-31"/>
       <use x="63.623047" xlink:href="#DejaVuSans-37"/>
       <use x="127.246094" xlink:href="#DejaVuSans-35"/>
      </g>
     </g>
    </g>
    <g id="xtick_9">
     <g id="line2d_9">
      <g>
       <use style="stroke:#000000;stroke-width:0.8;" x="355.351909" xlink:href="#m337d048784" y="128.057143"/>
      </g>
     </g>
     <g id="text_9">
      <!-- 200 -->
      <g transform="translate(345.808159 142.65558)scale(0.1 -0.1)">
       <use xlink:href="#DejaVuSans-32"/>
       <use x="63.623047" xlink:href="#DejaVuSans-30"/>
       <use x="127.246094" xlink:href="#DejaVuSans-30"/>
      </g>
     </g>
    </g>
    <g id="text_10">
     <!-- Trial -->
     <g transform="translate(191.426563 156.333705)scale(0.1 -0.1)">
      <defs>
       <path d="M -19 4666 
L 3928 4666 
L 3928 4134 
L 2272 4134 
L 2272 0 
L 1638 0 
L 1638 4134 
L -19 4134 
L -19 4666 
z
" id="DejaVuSans-54" transform="scale(0.015625)"/>
       <path d="M 2631 2963 
Q 2534 3019 2420 3045 
Q 2306 3072 2169 3072 
Q 1681 3072 1420 2755 
Q 1159 2438 1159 1844 
L 1159 0 
L 581 0 
L 581 3500 
L 1159 3500 
L 1159 2956 
Q 1341 3275 1631 3429 
Q 1922 3584 2338 3584 
Q 2397 3584 2469 3576 
Q 2541 3569 2628 3553 
L 2631 2963 
z
" id="DejaVuSans-72" transform="scale(0.015625)"/>
       <path d="M 603 3500 
L 1178 3500 
L 1178 0 
L 603 0 
L 603 3500 
z
M 603 4863 
L 1178 4863 
L 1178 4134 
L 603 4134 
L 603 4863 
z
" id="DejaVuSans-69" transform="scale(0.015625)"/>
       <path d="M 2194 1759 
Q 1497 1759 1228 1600 
Q 959 1441 959 1056 
Q 959 750 1161 570 
Q 1363 391 1709 391 
Q 2188 391 2477 730 
Q 2766 1069 2766 1631 
L 2766 1759 
L 2194 1759 
z
M 3341 1997 
L 3341 0 
L 2766 0 
L 2766 531 
Q 2569 213 2275 61 
Q 1981 -91 1556 -91 
Q 1019 -91 701 211 
Q 384 513 384 1019 
Q 384 1609 779 1909 
Q 1175 2209 1959 2209 
L 2766 2209 
L 2766 2266 
Q 2766 2663 2505 2880 
Q 2244 3097 1772 3097 
Q 1472 3097 1187 3025 
Q 903 2953 641 2809 
L 641 3341 
Q 956 3463 1253 3523 
Q 1550 3584 1831 3584 
Q 2591 3584 2966 3190 
Q 3341 2797 3341 1997 
z
" id="DejaVuSans-61" transform="scale(0.015625)"/>
       <path d="M 603 4863 
L 1178 4863 
L 1178 0 
L 603 0 
L 603 4863 
z
" id="DejaVuSans-6c" transform="scale(0.015625)"/>
      </defs>
      <use xlink:href="#DejaVuSans-54"/>
      <use x="46.333984" xlink:href="#DejaVuSans-72"/>
      <use x="87.447266" xlink:href="#DejaVuSans-69"/>
      <use x="115.230469" xlink:href="#DejaVuSans-61"/>
      <use x="176.509766" xlink:href="#DejaVuSans-6c"/>
     </g>
    </g>
   </g>
   <g id="matplotlib.axis_2">
    <g id="ytick_1">
     <g id="line2d_10">
      <defs>
       <path d="M 0 0 
L -3.5 0 
" id="mfad98e666c" style="stroke:#000000;stroke-width:0.8;"/>
      </defs>
      <g>
       <use style="stroke:#000000;stroke-width:0.8;" x="34.240625" xlink:href="#mfad98e666c" y="124.527273"/>
      </g>
     </g>
     <g id="text_11">
      <!-- 0 -->
      <g transform="translate(20.878125 128.326491)scale(0.1 -0.1)">
       <use xlink:href="#DejaVuSans-30"/>
      </g>
     </g>
    </g>
    <g id="ytick_2">
     <g id="line2d_11">
      <g>
       <use style="stroke:#000000;stroke-width:0.8;" x="34.240625" xlink:href="#mfad98e666c" y="85.306494"/>
      </g>
     </g>
     <g id="text_12">
      <!-- 5 -->
      <g transform="translate(20.878125 89.105712)scale(0.1 -0.1)">
       <use xlink:href="#DejaVuSans-35"/>
      </g>
     </g>
    </g>
    <g id="text_13">
     <!-- Pairs [#] -->
     <g transform="translate(14.798437 110.812165)rotate(-90)scale(0.1 -0.1)">
      <defs>
       <path d="M 1259 4147 
L 1259 2394 
L 2053 2394 
Q 2494 2394 2734 2622 
Q 2975 2850 2975 3272 
Q 2975 3691 2734 3919 
Q 2494 4147 2053 4147 
L 1259 4147 
z
M 628 4666 
L 2053 4666 
Q 2838 4666 3239 4311 
Q 3641 3956 3641 3272 
Q 3641 2581 3239 2228 
Q 2838 1875 2053 1875 
L 1259 1875 
L 1259 0 
L 628 0 
L 628 4666 
z
" id="DejaVuSans-50" transform="scale(0.015625)"/>
       <path d="M 2834 3397 
L 2834 2853 
Q 2591 2978 2328 3040 
Q 2066 3103 1784 3103 
Q 1356 3103 1142 2972 
Q 928 2841 928 2578 
Q 928 2378 1081 2264 
Q 1234 2150 1697 2047 
L 1894 2003 
Q 2506 1872 2764 1633 
Q 3022 1394 3022 966 
Q 3022 478 2636 193 
Q 2250 -91 1575 -91 
Q 1294 -91 989 -36 
Q 684 19 347 128 
L 347 722 
Q 666 556 975 473 
Q 1284 391 1588 391 
Q 1994 391 2212 530 
Q 2431 669 2431 922 
Q 2431 1156 2273 1281 
Q 2116 1406 1581 1522 
L 1381 1569 
Q 847 1681 609 1914 
Q 372 2147 372 2553 
Q 372 3047 722 3315 
Q 1072 3584 1716 3584 
Q 2034 3584 2315 3537 
Q 2597 3491 2834 3397 
z
" id="DejaVuSans-73" transform="scale(0.015625)"/>
       <path id="DejaVuSans-20" transform="scale(0.015625)"/>
       <path d="M 550 4863 
L 1875 4863 
L 1875 4416 
L 1125 4416 
L 1125 -397 
L 1875 -397 
L 1875 -844 
L 550 -844 
L 550 4863 
z
" id="DejaVuSans-5b" transform="scale(0.015625)"/>
       <path d="M 3272 2816 
L 2363 2816 
L 2100 1772 
L 3016 1772 
L 3272 2816 
z
M 2803 4594 
L 2478 3297 
L 3391 3297 
L 3719 4594 
L 4219 4594 
L 3897 3297 
L 4872 3297 
L 4872 2816 
L 3775 2816 
L 3519 1772 
L 4513 1772 
L 4513 1294 
L 3397 1294 
L 3072 0 
L 2572 0 
L 2894 1294 
L 1978 1294 
L 1656 0 
L 1153 0 
L 1478 1294 
L 494 1294 
L 494 1772 
L 1594 1772 
L 1856 2816 
L 850 2816 
L 850 3297 
L 1978 3297 
L 2297 4594 
L 2803 4594 
z
" id="DejaVuSans-23" transform="scale(0.015625)"/>
       <path d="M 1947 4863 
L 1947 -844 
L 622 -844 
L 622 -397 
L 1369 -397 
L 1369 4416 
L 622 4416 
L 622 4863 
L 1947 4863 
z
" id="DejaVuSans-5d" transform="scale(0.015625)"/>
      </defs>
      <use xlink:href="#DejaVuSans-50"/>
      <use x="55.802734" xlink:href="#DejaVuSans-61"/>
      <use x="117.082031" xlink:href="#DejaVuSans-69"/>
      <use x="144.865234" xlink:href="#DejaVuSans-72"/>
      <use x="185.978516" xlink:href="#DejaVuSans-73"/>
      <use x="238.078125" xlink:href="#DejaVuSans-20"/>
      <use x="269.865234" xlink:href="#DejaVuSans-5b"/>
      <use x="308.878906" xlink:href="#DejaVuSans-23"/>
      <use x="392.667969" xlink:href="#DejaVuSans-5d"/>
     </g>
    </g>
   </g>
   <g id="line2d_12">
    <path clip-path="url(#p88349f5aa1)" d="M 49.458807 124.527273 
L 50.988272 124.527273 
L 52.517738 81.384416 
L 54.047203 79.658701 
L 55.576669 80.364675 
L 57.106134 79.972468 
L 58.6356 79.423377 
L 60.165065 78.403636 
L 61.694531 76.913247 
L 63.223996 75.971948 
L 64.753462 74.795325 
L 66.282927 74.873766 
L 67.812393 72.755844 
L 69.341858 72.677403 
L 70.871324 70.324156 
L 72.400789 70.873247 
L 73.930255 68.441558 
L 75.45972 69.775065 
L 76.989186 67.578701 
L 78.518651 68.833766 
L 80.048117 64.99013 
L 81.577583 67.892468 
L 83.107048 64.362597 
L 84.636514 66.00987 
L 86.165979 63.421299 
L 87.695445 66.323636 
L 89.22491 61.617143 
L 90.754376 65.225455 
L 92.283841 61.381818 
L 93.813307 64.519481 
L 95.342772 60.126753 
L 96.872238 64.911688 
L 98.401703 59.263896 
L 99.931169 64.441039 
L 101.460634 59.342338 
L 102.9901 64.205714 
L 104.519565 58.165714 
L 106.049031 63.813506 
L 107.578496 57.538182 
L 109.107962 63.813506 
L 110.637427 58.322597 
L 112.166893 63.029091 
L 113.696358 56.832208 
L 115.225824 63.342857 
L 116.755289 56.44 
L 118.284755 63.107532 
L 119.81422 56.518442 
L 121.343686 62.872208 
L 122.873151 56.753766 
L 124.402617 62.636883 
L 125.932082 56.361558 
L 127.461548 62.793766 
L 128.991013 55.812468 
L 130.520479 62.715325 
L 132.049944 55.734026 
L 133.57941 62.48 
L 135.108875 55.341818 
L 136.638341 62.401558 
L 138.167806 55.577143 
L 139.697272 62.636883 
L 141.226737 55.498701 
L 142.756203 62.401558 
L 144.285668 55.106494 
L 145.815134 62.558442 
L 147.344599 55.577143 
L 148.874065 62.166234 
L 150.40353 55.028052 
L 151.932996 62.48 
L 153.462461 54.792727 
L 154.991927 62.636883 
L 156.521392 54.557403 
L 158.050858 61.852468 
L 159.580323 55.263377 
L 161.109789 62.401558 
L 162.639255 54.94961 
L 164.16872 62.244675 
L 165.698186 54.94961 
L 167.227651 62.087792 
L 168.757117 54.714286 
L 170.286582 61.930909 
L 171.816048 55.028052 
L 173.345513 62.323117 
L 174.874979 54.792727 
L 176.404444 61.930909 
L 177.93391 54.635844 
L 179.463375 61.930909 
L 180.992841 55.577143 
L 182.522306 62.087792 
L 184.051772 54.871169 
L 185.581237 61.852468 
L 187.110703 54.635844 
L 188.640168 62.087792 
L 190.169634 54.557403 
L 191.699099 62.087792 
L 193.228565 54.400519 
L 194.75803 61.930909 
L 196.287496 54.400519 
L 197.816961 61.930909 
L 199.346427 54.871169 
L 200.875892 62.009351 
L 202.405358 54.322078 
L 203.934823 61.852468 
L 205.464289 54.478961 
L 206.993754 62.009351 
L 208.52322 54.792727 
L 210.052685 62.166234 
L 211.582151 54.165195 
L 213.111616 61.930909 
L 214.641082 54.478961 
L 216.170547 61.930909 
L 217.700013 54.635844 
L 219.229478 62.087792 
L 220.758944 54.243636 
L 222.288409 61.852468 
L 223.817875 54.322078 
L 225.34734 62.009351 
L 226.876806 54.400519 
L 228.406271 61.774026 
L 229.935737 54.478961 
L 231.465202 61.774026 
L 232.994668 54.400519 
L 234.524133 61.852468 
L 236.053599 54.478961 
L 237.583064 61.930909 
L 239.11253 54.008312 
L 240.641995 61.852468 
L 242.171461 54.322078 
L 243.700927 61.774026 
L 245.230392 54.008312 
L 246.759858 61.774026 
L 248.289323 54.165195 
L 249.818789 62.009351 
L 251.348254 54.165195 
L 252.87772 61.930909 
L 254.407185 54.557403 
L 255.936651 62.009351 
L 257.466116 54.322078 
L 258.995582 61.852468 
L 260.525047 54.086753 
L 262.054513 62.009351 
L 263.583978 53.92987 
L 265.113444 61.930909 
L 266.642909 54.008312 
L 268.172375 62.009351 
L 269.70184 54.086753 
L 271.231306 61.852468 
L 272.760771 54.243636 
L 274.290237 61.930909 
L 275.819702 54.243636 
L 277.349168 61.930909 
L 278.878633 53.92987 
L 280.408099 61.930909 
L 281.937564 54.086753 
L 283.46703 61.774026 
L 284.996495 54.243636 
L 286.525961 61.852468 
L 288.055426 54.243636 
L 289.584892 61.930909 
L 291.114357 54.086753 
L 292.643823 61.852468 
L 294.173288 54.165195 
L 295.702754 61.852468 
L 297.232219 54.165195 
L 298.761685 61.852468 
L 300.29115 54.400519 
L 301.820616 61.852468 
L 303.350081 54.322078 
L 304.879547 61.774026 
L 306.409012 54.243636 
L 307.938478 61.852468 
L 309.467943 54.243636 
L 310.997409 61.852468 
L 312.526874 54.008312 
L 314.05634 61.930909 
L 315.585805 54.008312 
L 317.115271 61.852468 
L 318.644736 54.086753 
L 320.174202 61.930909 
L 321.703667 54.008312 
L 323.233133 61.852468 
L 324.762599 54.086753 
L 326.292064 61.852468 
L 327.82153 54.165195 
L 329.350995 61.930909 
L 330.880461 54.322078 
L 332.409926 61.774026 
L 333.939392 54.008312 
L 335.468857 61.774026 
L 336.998323 54.243636 
L 338.527788 61.774026 
L 340.057254 54.322078 
L 341.586719 61.774026 
L 343.116185 54.243636 
L 344.64565 61.852468 
L 346.175116 54.243636 
L 347.704581 61.774026 
L 349.234047 54.478961 
L 350.763512 61.930909 
L 352.292978 54.322078 
L 353.822443 61.852468 
L 353.822443 61.852468 
" style="fill:none;stroke:#0000ff;stroke-linecap:square;stroke-width:1.5;"/>
   </g>
   <g id="line2d_13">
    <path clip-path="url(#p88349f5aa1)" d="M 49.458807 124.527273 
L 50.988272 124.527273 
L 52.517738 111.898182 
L 55.576669 112.604156 
L 57.106134 112.682597 
L 58.6356 114.016104 
L 60.165065 112.682597 
L 61.694531 115.506494 
L 63.223996 113.231688 
L 64.753462 117.232208 
L 66.282927 113.780779 
L 67.812393 117.781299 
L 69.341858 115.114286 
L 70.871324 118.957922 
L 72.400789 115.428052 
L 73.930255 120.056104 
L 75.45972 115.584935 
L 76.989186 120.683636 
L 78.518651 116.134026 
L 80.048117 121.781818 
L 81.577583 115.977143 
L 83.107048 122.330909 
L 84.636514 116.369351 
L 86.165979 122.644675 
L 87.695445 116.134026 
L 89.22491 122.723117 
L 90.754376 116.369351 
L 92.283841 123.036883 
L 93.813307 116.447792 
L 95.342772 123.664416 
L 96.872238 116.604675 
L 98.401703 123.585974 
L 99.931169 116.683117 
L 101.460634 123.664416 
L 102.9901 116.526234 
L 104.519565 123.742857 
L 106.049031 116.447792 
L 107.578496 124.213506 
L 109.107962 116.604675 
L 110.637427 123.821299 
L 112.166893 116.761558 
L 113.696358 124.213506 
L 115.225824 116.683117 
L 116.755289 124.37039 
L 118.284755 116.526234 
L 119.81422 124.37039 
L 121.343686 116.683117 
L 122.873151 124.056623 
L 124.402617 116.683117 
L 125.932082 124.527273 
L 127.461548 116.683117 
L 128.991013 124.527273 
L 130.520479 116.761558 
L 132.049944 124.213506 
L 133.57941 116.761558 
L 135.108875 124.527273 
L 136.638341 116.683117 
L 138.167806 124.448831 
L 139.697272 116.604675 
L 141.226737 124.448831 
L 142.756203 116.604675 
L 144.285668 124.527273 
L 145.815134 116.683117 
L 147.344599 124.37039 
L 148.874065 116.683117 
L 150.40353 124.448831 
L 151.932996 116.604675 
L 153.462461 124.448831 
L 154.991927 116.683117 
L 156.521392 124.448831 
L 158.050858 116.683117 
L 159.580323 124.291948 
L 161.109789 116.84 
L 162.639255 124.448831 
L 164.16872 116.604675 
L 165.698186 124.448831 
L 167.227651 116.761558 
L 168.757117 124.527273 
L 170.286582 116.604675 
L 171.816048 124.448831 
L 173.345513 116.526234 
L 174.874979 124.527273 
L 176.404444 116.683117 
L 177.93391 124.448831 
L 179.463375 116.683117 
L 180.992841 124.213506 
L 182.522306 116.683117 
L 184.051772 124.527273 
L 185.581237 116.683117 
L 187.110703 124.527273 
L 188.640168 116.604675 
L 190.169634 124.527273 
L 191.699099 116.683117 
L 193.228565 124.527273 
L 194.75803 116.683117 
L 196.287496 124.527273 
L 197.816961 116.761558 
L 199.346427 124.213506 
L 200.875892 116.683117 
L 202.405358 124.448831 
L 203.934823 116.683117 
L 205.464289 124.527273 
L 206.993754 116.683117 
L 208.52322 124.291948 
L 210.052685 116.683117 
L 211.582151 124.527273 
L 213.111616 116.683117 
L 214.641082 124.527273 
L 216.170547 116.683117 
L 217.700013 124.37039 
L 219.229478 116.683117 
L 220.758944 124.527273 
L 222.288409 116.683117 
L 223.817875 124.527273 
L 225.34734 116.683117 
L 226.876806 124.37039 
L 228.406271 116.683117 
L 229.935737 124.527273 
L 231.465202 116.683117 
L 232.994668 124.213506 
L 234.524133 116.683117 
L 236.053599 124.527273 
L 237.583064 116.683117 
L 239.11253 124.527273 
L 240.641995 116.683117 
L 242.171461 124.527273 
L 243.700927 116.683117 
L 245.230392 124.527273 
L 246.759858 116.683117 
L 248.289323 124.527273 
L 249.818789 116.761558 
L 251.348254 124.527273 
L 252.87772 116.683117 
L 254.407185 124.527273 
L 255.936651 116.761558 
L 257.466116 124.527273 
L 258.995582 116.683117 
L 260.525047 124.527273 
L 262.054513 116.683117 
L 263.583978 124.527273 
L 265.113444 116.683117 
L 266.642909 124.527273 
L 268.172375 116.683117 
L 269.70184 124.527273 
L 271.231306 116.683117 
L 272.760771 124.527273 
L 274.290237 116.683117 
L 275.819702 124.527273 
L 277.349168 116.761558 
L 278.878633 124.527273 
L 280.408099 116.683117 
L 281.937564 124.527273 
L 283.46703 116.683117 
L 284.996495 124.527273 
L 286.525961 116.683117 
L 288.055426 124.527273 
L 289.584892 116.683117 
L 291.114357 124.527273 
L 292.643823 116.683117 
L 294.173288 124.291948 
L 295.702754 116.683117 
L 297.232219 124.527273 
L 298.761685 116.683117 
L 300.29115 124.213506 
L 301.820616 116.683117 
L 303.350081 124.527273 
L 304.879547 116.683117 
L 306.409012 124.291948 
L 307.938478 116.761558 
L 309.467943 124.291948 
L 310.997409 116.683117 
L 312.526874 124.527273 
L 314.05634 116.683117 
L 315.585805 124.527273 
L 317.115271 116.683117 
L 318.644736 124.527273 
L 320.174202 116.683117 
L 321.703667 124.527273 
L 323.233133 116.683117 
L 324.762599 124.448831 
L 326.292064 116.683117 
L 327.82153 124.527273 
L 329.350995 116.683117 
L 330.880461 124.291948 
L 332.409926 116.683117 
L 333.939392 124.527273 
L 335.468857 116.761558 
L 336.998323 124.527273 
L 338.527788 116.683117 
L 340.057254 124.37039 
L 341.586719 116.683117 
L 343.116185 124.527273 
L 344.64565 116.761558 
L 346.175116 124.527273 
L 347.704581 116.683117 
L 349.234047 124.37039 
L 350.763512 116.683117 
L 352.292978 124.527273 
L 353.822443 116.683117 
L 353.822443 116.683117 
" style="fill:none;stroke:#ff0000;stroke-linecap:square;stroke-width:1.5;"/>
   </g>
   <g id="line2d_14">
    <path clip-path="url(#p88349f5aa1)" d="M 49.458807 124.527273 
L 50.988272 124.527273 
L 52.517738 109.701818 
L 54.047203 111.035325 
L 55.576669 110.015584 
L 57.106134 110.329351 
L 58.6356 109.544935 
L 60.165065 111.898182 
L 61.694531 110.564675 
L 63.223996 113.780779 
L 64.753462 110.956883 
L 66.282927 114.32987 
L 67.812393 112.447273 
L 69.341858 115.192727 
L 70.871324 113.702338 
L 72.400789 116.683117 
L 73.930255 114.486753 
L 75.45972 117.624416 
L 76.989186 114.722078 
L 78.518651 118.016623 
L 80.048117 116.212468 
L 81.577583 119.114805 
L 83.107048 116.290909 
L 84.636514 120.605195 
L 86.165979 116.918442 
L 87.695445 120.526753 
L 89.22491 118.644156 
L 90.754376 121.38961 
L 92.283841 118.565714 
L 93.813307 122.017143 
L 95.342772 119.193247 
L 96.872238 121.468052 
L 98.401703 120.134545 
L 99.931169 121.86026 
L 101.460634 119.977662 
L 102.9901 122.252468 
L 104.519565 121.075844 
L 106.049031 122.723117 
L 107.578496 121.232727 
L 109.107962 122.566234 
L 110.637427 120.840519 
L 112.166893 123.193766 
L 113.696358 121.938701 
L 115.225824 122.958442 
L 116.755289 122.174026 
L 118.284755 123.350649 
L 119.81422 122.095584 
L 121.343686 123.429091 
L 122.873151 122.174026 
L 124.402617 123.664416 
L 125.932082 122.095584 
L 127.461548 123.507532 
L 128.991013 122.644675 
L 130.520479 123.507532 
L 132.049944 123.036883 
L 133.57941 123.742857 
L 135.108875 123.115325 
L 136.638341 123.89974 
L 138.167806 122.958442 
L 139.697272 123.742857 
L 141.226737 123.036883 
L 142.756203 123.978182 
L 144.285668 123.350649 
L 145.815134 123.742857 
L 147.344599 123.036883 
L 148.874065 124.135065 
L 150.40353 123.507532 
L 151.932996 123.89974 
L 154.991927 123.664416 
L 156.521392 123.978182 
L 158.050858 124.448831 
L 159.580323 123.429091 
L 161.109789 123.742857 
L 162.639255 123.585974 
L 164.16872 124.135065 
L 165.698186 123.585974 
L 167.227651 124.135065 
L 168.757117 123.742857 
L 170.286582 124.448831 
L 171.816048 123.507532 
L 173.345513 124.135065 
L 174.874979 123.664416 
L 176.404444 124.37039 
L 177.93391 123.89974 
L 179.463375 124.37039 
L 180.992841 123.193766 
L 182.522306 124.213506 
L 184.051772 123.585974 
L 185.581237 124.448831 
L 187.110703 123.821299 
L 188.640168 124.291948 
L 190.169634 123.89974 
L 191.699099 124.213506 
L 193.228565 124.056623 
L 194.75803 124.37039 
L 196.287496 124.056623 
L 197.816961 124.291948 
L 199.346427 123.89974 
L 200.875892 124.291948 
L 202.405358 124.213506 
L 203.934823 124.448831 
L 205.464289 123.978182 
L 206.993754 124.291948 
L 208.52322 123.89974 
L 211.582151 124.291948 
L 213.111616 124.37039 
L 214.641082 123.978182 
L 216.170547 124.37039 
L 217.700013 123.978182 
L 219.229478 124.213506 
L 220.758944 124.213506 
L 222.288409 124.448831 
L 223.817875 124.135065 
L 225.34734 124.291948 
L 226.876806 124.213506 
L 228.406271 124.527273 
L 229.935737 123.978182 
L 231.465202 124.527273 
L 232.994668 124.37039 
L 234.524133 124.448831 
L 236.053599 123.978182 
L 237.583064 124.37039 
L 240.641995 124.448831 
L 242.171461 124.135065 
L 243.700927 124.527273 
L 245.230392 124.448831 
L 246.759858 124.527273 
L 248.289323 124.291948 
L 249.818789 124.213506 
L 252.87772 124.37039 
L 254.407185 123.89974 
L 255.936651 124.213506 
L 257.466116 124.135065 
L 258.995582 124.448831 
L 262.054513 124.291948 
L 263.583978 124.527273 
L 265.113444 124.37039 
L 266.642909 124.448831 
L 268.172375 124.291948 
L 271.231306 124.448831 
L 272.760771 124.213506 
L 274.290237 124.37039 
L 275.819702 124.213506 
L 277.349168 124.291948 
L 278.878633 124.527273 
L 280.408099 124.37039 
L 281.937564 124.37039 
L 283.46703 124.527273 
L 284.996495 124.213506 
L 286.525961 124.448831 
L 288.055426 124.213506 
L 289.584892 124.37039 
L 292.643823 124.448831 
L 294.173288 124.527273 
L 297.232219 124.291948 
L 298.761685 124.448831 
L 300.29115 124.37039 
L 301.820616 124.448831 
L 303.350081 124.135065 
L 304.879547 124.527273 
L 307.938478 124.37039 
L 310.997409 124.448831 
L 326.292064 124.448831 
L 327.82153 124.291948 
L 332.409926 124.527273 
L 336.998323 124.213506 
L 338.527788 124.527273 
L 340.057254 124.291948 
L 341.586719 124.527273 
L 343.116185 124.213506 
L 344.64565 124.37039 
L 346.175116 124.213506 
L 347.704581 124.527273 
L 349.234047 124.135065 
L 350.763512 124.37039 
L 352.292978 124.135065 
L 353.822443 124.448831 
L 353.822443 124.448831 
" style="fill:none;stroke:#008000;stroke-linecap:square;stroke-width:1.5;"/>
   </g>
   <g id="patch_3">
    <path d="M 34.240625 128.057143 
L 34.240625 50.4 
" style="fill:none;stroke:#000000;stroke-linecap:square;stroke-linejoin:miter;stroke-width:0.8;"/>
   </g>
   <g id="patch_4">
    <path d="M 34.240625 128.057143 
L 369.040625 128.057143 
" style="fill:none;stroke:#000000;stroke-linecap:square;stroke-linejoin:miter;stroke-width:0.8;"/>
   </g>
   <g id="text_14">
    <!-- Trial Start Replays -->
    <g transform="translate(147.4925 44.4)scale(0.12 -0.12)">
     <defs>
      <path d="M 3425 4513 
L 3425 3897 
Q 3066 4069 2747 4153 
Q 2428 4238 2131 4238 
Q 1616 4238 1336 4038 
Q 1056 3838 1056 3469 
Q 1056 3159 1242 3001 
Q 1428 2844 1947 2747 
L 2328 2669 
Q 3034 2534 3370 2195 
Q 3706 1856 3706 1288 
Q 3706 609 3251 259 
Q 2797 -91 1919 -91 
Q 1588 -91 1214 -16 
Q 841 59 441 206 
L 441 856 
Q 825 641 1194 531 
Q 1563 422 1919 422 
Q 2459 422 2753 634 
Q 3047 847 3047 1241 
Q 3047 1584 2836 1778 
Q 2625 1972 2144 2069 
L 1759 2144 
Q 1053 2284 737 2584 
Q 422 2884 422 3419 
Q 422 4038 858 4394 
Q 1294 4750 2059 4750 
Q 2388 4750 2728 4690 
Q 3069 4631 3425 4513 
z
" id="DejaVuSans-53" transform="scale(0.015625)"/>
      <path d="M 1172 4494 
L 1172 3500 
L 2356 3500 
L 2356 3053 
L 1172 3053 
L 1172 1153 
Q 1172 725 1289 603 
Q 1406 481 1766 481 
L 2356 481 
L 2356 0 
L 1766 0 
Q 1100 0 847 248 
Q 594 497 594 1153 
L 594 3053 
L 172 3053 
L 172 3500 
L 594 3500 
L 594 4494 
L 1172 4494 
z
" id="DejaVuSans-74" transform="scale(0.015625)"/>
      <path d="M 2841 2188 
Q 3044 2119 3236 1894 
Q 3428 1669 3622 1275 
L 4263 0 
L 3584 0 
L 2988 1197 
Q 2756 1666 2539 1819 
Q 2322 1972 1947 1972 
L 1259 1972 
L 1259 0 
L 628 0 
L 628 4666 
L 2053 4666 
Q 2853 4666 3247 4331 
Q 3641 3997 3641 3322 
Q 3641 2881 3436 2590 
Q 3231 2300 2841 2188 
z
M 1259 4147 
L 1259 2491 
L 2053 2491 
Q 2509 2491 2742 2702 
Q 2975 2913 2975 3322 
Q 2975 3731 2742 3939 
Q 2509 4147 2053 4147 
L 1259 4147 
z
" id="DejaVuSans-52" transform="scale(0.015625)"/>
      <path d="M 3597 1894 
L 3597 1613 
L 953 1613 
Q 991 1019 1311 708 
Q 1631 397 2203 397 
Q 2534 397 2845 478 
Q 3156 559 3463 722 
L 3463 178 
Q 3153 47 2828 -22 
Q 2503 -91 2169 -91 
Q 1331 -91 842 396 
Q 353 884 353 1716 
Q 353 2575 817 3079 
Q 1281 3584 2069 3584 
Q 2775 3584 3186 3129 
Q 3597 2675 3597 1894 
z
M 3022 2063 
Q 3016 2534 2758 2815 
Q 2500 3097 2075 3097 
Q 1594 3097 1305 2825 
Q 1016 2553 972 2059 
L 3022 2063 
z
" id="DejaVuSans-65" transform="scale(0.015625)"/>
      <path d="M 1159 525 
L 1159 -1331 
L 581 -1331 
L 581 3500 
L 1159 3500 
L 1159 2969 
Q 1341 3281 1617 3432 
Q 1894 3584 2278 3584 
Q 2916 3584 3314 3078 
Q 3713 2572 3713 1747 
Q 3713 922 3314 415 
Q 2916 -91 2278 -91 
Q 1894 -91 1617 61 
Q 1341 213 1159 525 
z
M 3116 1747 
Q 3116 2381 2855 2742 
Q 2594 3103 2138 3103 
Q 1681 3103 1420 2742 
Q 1159 2381 1159 1747 
Q 1159 1113 1420 752 
Q 1681 391 2138 391 
Q 2594 391 2855 752 
Q 3116 1113 3116 1747 
z
" id="DejaVuSans-70" transform="scale(0.015625)"/>
      <path d="M 2059 -325 
Q 1816 -950 1584 -1140 
Q 1353 -1331 966 -1331 
L 506 -1331 
L 506 -850 
L 844 -850 
Q 1081 -850 1212 -737 
Q 1344 -625 1503 -206 
L 1606 56 
L 191 3500 
L 800 3500 
L 1894 763 
L 2988 3500 
L 3597 3500 
L 2059 -325 
z
" id="DejaVuSans-79" transform="scale(0.015625)"/>
     </defs>
     <use xlink:href="#DejaVuSans-54"/>
     <use x="46.333984" xlink:href="#DejaVuSans-72"/>
     <use x="87.447266" xlink:href="#DejaVuSans-69"/>
     <use x="115.230469" xlink:href="#DejaVuSans-61"/>
     <use x="176.509766" xlink:href="#DejaVuSans-6c"/>
     <use x="204.292969" xlink:href="#DejaVuSans-20"/>
     <use x="236.080078" xlink:href="#DejaVuSans-53"/>
     <use x="299.556641" xlink:href="#DejaVuSans-74"/>
     <use x="338.765625" xlink:href="#DejaVuSans-61"/>
     <use x="400.044922" xlink:href="#DejaVuSans-72"/>
     <use x="441.158203" xlink:href="#DejaVuSans-74"/>
     <use x="480.367188" xlink:href="#DejaVuSans-20"/>
     <use x="512.154297" xlink:href="#DejaVuSans-52"/>
     <use x="577.136719" xlink:href="#DejaVuSans-65"/>
     <use x="638.660156" xlink:href="#DejaVuSans-70"/>
     <use x="702.136719" xlink:href="#DejaVuSans-6c"/>
     <use x="729.919922" xlink:href="#DejaVuSans-61"/>
     <use x="791.199219" xlink:href="#DejaVuSans-79"/>
     <use x="850.378906" xlink:href="#DejaVuSans-73"/>
    </g>
   </g>
  </g>
  <g id="axes_2">
   <g id="patch_5">
    <path d="M 34.240625 267.84 
L 369.040625 267.84 
L 369.040625 190.182857 
L 34.240625 190.182857 
z
" style="fill:none;"/>
   </g>
   <g id="matplotlib.axis_3">
    <g id="xtick_10">
     <g id="line2d_15">
      <g>
       <use style="stroke:#000000;stroke-width:0.8;" x="49.458807" xlink:href="#m337d048784" y="267.84"/>
      </g>
     </g>
     <g id="text_15">
      <!-- 0 -->
      <g transform="translate(46.277557 282.438437)scale(0.1 -0.1)">
       <use xlink:href="#DejaVuSans-30"/>
      </g>
     </g>
    </g>
    <g id="xtick_11">
     <g id="line2d_16">
      <g>
       <use style="stroke:#000000;stroke-width:0.8;" x="87.695445" xlink:href="#m337d048784" y="267.84"/>
      </g>
     </g>
     <g id="text_16">
      <!-- 25 -->
      <g transform="translate(81.332945 282.438437)scale(0.1 -0.1)">
       <use xlink:href="#DejaVuSans-32"/>
       <use x="63.623047" xlink:href="#DejaVuSans-35"/>
      </g>
     </g>
    </g>
    <g id="xtick_12">
     <g id="line2d_17">
      <g>
       <use style="stroke:#000000;stroke-width:0.8;" x="125.932082" xlink:href="#m337d048784" y="267.84"/>
      </g>
     </g>
     <g id="text_17">
      <!-- 50 -->
      <g transform="translate(119.569582 282.438437)scale(0.1 -0.1)">
       <use xlink:href="#DejaVuSans-35"/>
       <use x="63.623047" xlink:href="#DejaVuSans-30"/>
      </g>
     </g>
    </g>
    <g id="xtick_13">
     <g id="line2d_18">
      <g>
       <use style="stroke:#000000;stroke-width:0.8;" x="164.16872" xlink:href="#m337d048784" y="267.84"/>
      </g>
     </g>
     <g id="text_18">
      <!-- 75 -->
      <g transform="translate(157.80622 282.438437)scale(0.1 -0.1)">
       <use xlink:href="#DejaVuSans-37"/>
       <use x="63.623047" xlink:href="#DejaVuSans-35"/>
      </g>
     </g>
    </g>
    <g id="xtick_14">
     <g id="line2d_19">
      <g>
       <use style="stroke:#000000;stroke-width:0.8;" x="202.405358" xlink:href="#m337d048784" y="267.84"/>
      </g>
     </g>
     <g id="text_19">
      <!-- 100 -->
      <g transform="translate(192.861608 282.438437)scale(0.1 -0.1)">
       <use xlink:href="#DejaVuSans-31"/>
       <use x="63.623047" xlink:href="#DejaVuSans-30"/>
       <use x="127.246094" xlink:href="#DejaVuSans-30"/>
      </g>
     </g>
    </g>
    <g id="xtick_15">
     <g id="line2d_20">
      <g>
       <use style="stroke:#000000;stroke-width:0.8;" x="240.641995" xlink:href="#m337d048784" y="267.84"/>
      </g>
     </g>
     <g id="text_20">
      <!-- 125 -->
      <g transform="translate(231.098245 282.438437)scale(0.1 -0.1)">
       <use xlink:href="#DejaVuSans-31"/>
       <use x="63.623047" xlink:href="#DejaVuSans-32"/>
       <use x="127.246094" xlink:href="#DejaVuSans-35"/>
      </g>
     </g>
    </g>
    <g id="xtick_16">
     <g id="line2d_21">
      <g>
       <use style="stroke:#000000;stroke-width:0.8;" x="278.878633" xlink:href="#m337d048784" y="267.84"/>
      </g>
     </g>
     <g id="text_21">
      <!-- 150 -->
      <g transform="translate(269.334883 282.438437)scale(0.1 -0.1)">
       <use xlink:href="#DejaVuSans-31"/>
       <use x="63.623047" xlink:href="#DejaVuSans-35"/>
       <use x="127.246094" xlink:href="#DejaVuSans-30"/>
      </g>
     </g>
    </g>
    <g id="xtick_17">
     <g id="line2d_22">
      <g>
       <use style="stroke:#000000;stroke-width:0.8;" x="317.115271" xlink:href="#m337d048784" y="267.84"/>
      </g>
     </g>
     <g id="text_22">
      <!-- 175 -->
      <g transform="translate(307.571521 282.438437)scale(0.1 -0.1)">
       <use xlink:href="#DejaVuSans-31"/>
       <use x="63.623047" xlink:href="#DejaVuSans-37"/>
       <use x="127.246094" xlink:href="#DejaVuSans-35"/>
      </g>
     </g>
    </g>
    <g id="xtick_18">
     <g id="line2d_23">
      <g>
       <use style="stroke:#000000;stroke-width:0.8;" x="355.351909" xlink:href="#m337d048784" y="267.84"/>
      </g>
     </g>
     <g id="text_23">
      <!-- 200 -->
      <g transform="translate(345.808159 282.438437)scale(0.1 -0.1)">
       <use xlink:href="#DejaVuSans-32"/>
       <use x="63.623047" xlink:href="#DejaVuSans-30"/>
       <use x="127.246094" xlink:href="#DejaVuSans-30"/>
      </g>
     </g>
    </g>
    <g id="text_24">
     <!-- Trial -->
     <g transform="translate(191.426563 296.116562)scale(0.1 -0.1)">
      <use xlink:href="#DejaVuSans-54"/>
      <use x="46.333984" xlink:href="#DejaVuSans-72"/>
      <use x="87.447266" xlink:href="#DejaVuSans-69"/>
      <use x="115.230469" xlink:href="#DejaVuSans-61"/>
      <use x="176.509766" xlink:href="#DejaVuSans-6c"/>
     </g>
    </g>
   </g>
   <g id="matplotlib.axis_4">
    <g id="ytick_3">
     <g id="line2d_24">
      <g>
       <use style="stroke:#000000;stroke-width:0.8;" x="34.240625" xlink:href="#mfad98e666c" y="264.31013"/>
      </g>
     </g>
     <g id="text_25">
      <!-- 0 -->
      <g transform="translate(20.878125 268.109349)scale(0.1 -0.1)">
       <use xlink:href="#DejaVuSans-30"/>
      </g>
     </g>
    </g>
    <g id="ytick_4">
     <g id="line2d_25">
      <g>
       <use style="stroke:#000000;stroke-width:0.8;" x="34.240625" xlink:href="#mfad98e666c" y="221.262933"/>
      </g>
     </g>
     <g id="text_26">
      <!-- 5 -->
      <g transform="translate(20.878125 225.062152)scale(0.1 -0.1)">
       <use xlink:href="#DejaVuSans-35"/>
      </g>
     </g>
    </g>
    <g id="text_27">
     <!-- Pairs [#] -->
     <g transform="translate(14.798437 250.595022)rotate(-90)scale(0.1 -0.1)">
      <use xlink:href="#DejaVuSans-50"/>
      <use x="55.802734" xlink:href="#DejaVuSans-61"/>
      <use x="117.082031" xlink:href="#DejaVuSans-69"/>
      <use x="144.865234" xlink:href="#DejaVuSans-72"/>
      <use x="185.978516" xlink:href="#DejaVuSans-73"/>
      <use x="238.078125" xlink:href="#DejaVuSans-20"/>
      <use x="269.865234" xlink:href="#DejaVuSans-5b"/>
      <use x="308.878906" xlink:href="#DejaVuSans-23"/>
      <use x="392.667969" xlink:href="#DejaVuSans-5d"/>
     </g>
    </g>
   </g>
   <g id="line2d_26">
    <path clip-path="url(#pdf42e52094)" d="M 49.458807 228.753145 
L 50.988272 230.9916 
L 52.517738 230.819411 
L 54.047203 220.746367 
L 55.576669 232.799582 
L 57.106134 216.613836 
L 58.6356 238.567906 
L 60.165065 211.275984 
L 61.694531 240.634172 
L 63.223996 209.898473 
L 64.753462 242.269965 
L 66.282927 209.726284 
L 67.812393 245.799835 
L 69.341858 207.057358 
L 70.871324 246.058118 
L 72.400789 204.130149 
L 73.930255 247.952195 
L 75.45972 204.904998 
L 76.989186 249.674083 
L 78.518651 203.699677 
L 80.048117 249.932366 
L 81.577583 203.95796 
L 83.107048 250.879404 
L 84.636514 199.825429 
L 86.165979 252.084726 
L 87.695445 201.977789 
L 89.22491 251.998632 
L 90.754376 202.149978 
L 92.283841 252.859576 
L 93.813307 202.494355 
L 95.342772 253.117859 
L 96.872238 200.255901 
L 98.401703 253.203953 
L 99.931169 201.461223 
L 101.460634 254.064897 
L 102.9901 198.792296 
L 104.519565 254.064897 
L 106.049031 199.997618 
L 107.578496 254.32318 
L 109.107962 201.891695 
L 110.637427 254.32318 
L 112.166893 199.825429 
L 113.696358 254.581463 
L 115.225824 199.567146 
L 116.755289 254.753652 
L 118.284755 201.633411 
L 119.81422 255.011935 
L 121.343686 199.222768 
L 122.873151 254.495369 
L 124.402617 199.65324 
L 125.932082 254.495369 
L 127.461548 193.712727 
L 128.991013 254.753652 
L 130.520479 199.65324 
L 132.049944 254.667558 
L 133.57941 200.169807 
L 135.108875 254.925841 
L 136.638341 201.289034 
L 138.167806 255.011935 
L 139.697272 201.8056 
L 141.226737 255.09803 
L 142.756203 196.639937 
L 144.285668 255.09803 
L 145.815134 198.620108 
L 147.344599 255.442407 
L 148.874065 195.692898 
L 150.40353 255.184124 
L 151.932996 199.825429 
L 153.462461 255.528502 
L 154.991927 197.414786 
L 156.521392 255.356313 
L 158.050858 199.567146 
L 159.580323 255.184124 
L 161.109789 201.547317 
L 162.639255 255.09803 
L 164.16872 202.063883 
L 165.698186 255.09803 
L 167.227651 201.719506 
L 168.757117 255.356313 
L 170.286582 199.481052 
L 171.816048 254.925841 
L 173.345513 203.699677 
L 174.874979 255.011935 
L 176.404444 201.891695 
L 177.93391 255.356313 
L 179.463375 201.633411 
L 180.992841 255.442407 
L 182.522306 198.706202 
L 184.051772 255.184124 
L 185.581237 203.355299 
L 187.110703 255.528502 
L 188.640168 204.904998 
L 190.169634 255.011935 
L 191.699099 202.494355 
L 193.228565 255.442407 
L 194.75803 196.639937 
L 196.287496 255.614596 
L 197.816961 201.977789 
L 199.346427 255.442407 
L 200.875892 204.560621 
L 202.405358 255.614596 
L 203.934823 199.308863 
L 205.464289 255.700691 
L 206.993754 203.355299 
L 208.52322 255.270219 
L 210.052685 200.772468 
L 211.582151 255.270219 
L 213.111616 203.269205 
L 214.641082 255.614596 
L 216.170547 201.030751 
L 217.700013 255.528502 
L 219.229478 200.169807 
L 220.758944 255.270219 
L 222.288409 198.534013 
L 223.817875 255.270219 
L 225.34734 201.891695 
L 226.876806 255.700691 
L 228.406271 201.633411 
L 229.935737 255.270219 
L 231.465202 207.918302 
L 232.994668 255.356313 
L 234.524133 203.95796 
L 236.053599 255.614596 
L 237.583064 200.255901 
L 239.11253 255.614596 
L 240.641995 201.8056 
L 242.171461 255.442407 
L 243.700927 200.772468 
L 245.230392 255.614596 
L 246.759858 200.341996 
L 248.289323 255.442407 
L 249.818789 205.33547 
L 251.348254 255.442407 
L 252.87772 204.044054 
L 254.407185 255.356313 
L 255.936651 204.73281 
L 257.466116 255.700691 
L 258.995582 206.11032 
L 260.525047 255.614596 
L 262.054513 203.871866 
L 263.583978 255.700691 
L 265.113444 209.295812 
L 266.642909 255.700691 
L 268.172375 201.547317 
L 269.70184 255.614596 
L 271.231306 203.097016 
L 272.760771 255.528502 
L 274.290237 201.461223 
L 275.819702 255.700691 
L 277.349168 204.560621 
L 278.878633 255.700691 
L 280.408099 203.785771 
L 281.937564 255.614596 
L 283.46703 209.209718 
L 284.996495 255.614596 
L 286.525961 203.097016 
L 288.055426 255.442407 
L 289.584892 202.58045 
L 291.114357 255.700691 
L 292.643823 207.832208 
L 294.173288 255.442407 
L 295.702754 205.507659 
L 297.232219 255.614596 
L 298.761685 201.977789 
L 300.29115 255.614596 
L 301.820616 209.295812 
L 303.350081 255.528502 
L 304.879547 203.183111 
L 306.409012 255.614596 
L 307.938478 205.33547 
L 309.467943 255.442407 
L 310.997409 204.646715 
L 312.526874 255.614596 
L 314.05634 208.434869 
L 315.585805 255.356313 
L 317.115271 201.461223 
L 318.644736 255.700691 
L 320.174202 205.507659 
L 321.703667 255.614596 
L 323.233133 208.348774 
L 324.762599 255.614596 
L 326.292064 207.057358 
L 327.82153 255.614596 
L 329.350995 208.004397 
L 330.880461 255.614596 
L 332.409926 204.818904 
L 333.939392 255.614596 
L 335.468857 206.196414 
L 336.998323 255.700691 
L 338.527788 200.858562 
L 340.057254 255.528502 
L 341.586719 210.156756 
L 343.116185 255.700691 
L 344.64565 200.772468 
L 346.175116 255.700691 
L 347.704581 207.918302 
L 349.234047 255.700691 
L 350.763512 200.083712 
L 352.292978 255.700691 
L 353.822443 202.236072 
L 353.822443 202.236072 
" style="fill:none;stroke:#0000ff;stroke-linecap:square;stroke-width:1.5;"/>
   </g>
   <g id="line2d_27">
    <path clip-path="url(#pdf42e52094)" d="M 49.458807 235.726791 
L 50.988272 236.587735 
L 52.517738 233.74662 
L 54.047203 246.660779 
L 55.576669 230.819411 
L 57.106134 250.276744 
L 58.6356 223.759671 
L 60.165065 253.720519 
L 61.694531 220.746367 
L 63.223996 254.32318 
L 64.753462 218.335724 
L 66.282927 253.290048 
L 67.812393 213.17006 
L 69.341858 254.839747 
L 70.871324 212.050833 
L 72.400789 256.992106 
L 73.930255 209.64019 
L 75.45972 255.09803 
L 76.989186 206.11032 
L 78.518651 254.925841 
L 80.048117 206.024226 
L 81.577583 253.720519 
L 83.107048 204.474526 
L 84.636514 256.303351 
L 86.165979 202.236072 
L 87.695445 254.495369 
L 89.22491 202.58045 
L 90.754376 252.256915 
L 92.283841 200.772468 
L 93.813307 252.515198 
L 95.342772 200.255901 
L 96.872238 253.634425 
L 98.401703 200.083712 
L 99.931169 252.515198 
L 101.460634 198.534013 
L 102.9901 254.667558 
L 104.519565 198.534013 
L 106.049031 253.376142 
L 107.578496 197.845258 
L 109.107962 251.56816 
L 110.637427 198.017447 
L 112.166893 253.462236 
L 113.696358 197.673069 
L 115.225824 252.94567 
L 116.755289 197.328692 
L 118.284755 251.051593 
L 119.81422 196.812125 
L 121.343686 253.806614 
L 122.873151 197.759164 
L 124.402617 253.203953 
L 125.932082 197.845258 
L 127.461548 258.541806 
L 128.991013 197.328692 
L 130.520479 252.859576 
L 132.049944 197.500881 
L 133.57941 252.17082 
L 135.108875 196.984314 
L 136.638341 250.535027 
L 138.167806 196.812125 
L 139.697272 250.448933 
L 141.226737 196.639937 
L 142.756203 255.09803 
L 144.285668 196.467748 
L 145.815134 253.462236 
L 147.344599 195.865087 
L 148.874065 256.303351 
L 150.40353 196.467748 
L 151.932996 252.17082 
L 153.462461 195.865087 
L 154.991927 254.581463 
L 156.521392 196.12337 
L 158.050858 252.256915 
L 159.580323 196.467748 
L 161.109789 250.104555 
L 162.639255 196.553842 
L 164.16872 249.932366 
L 165.698186 196.639937 
L 167.227651 249.760177 
L 168.757117 196.12337 
L 170.286582 251.998632 
L 171.816048 196.726031 
L 173.345513 247.952195 
L 174.874979 196.295559 
L 176.404444 249.587989 
L 177.93391 196.12337 
L 179.463375 249.760177 
L 180.992841 195.865087 
L 182.522306 252.773481 
L 184.051772 196.381653 
L 185.581237 248.210478 
L 187.110703 195.778993 
L 188.640168 246.660779 
L 190.169634 196.553842 
L 191.699099 249.243611 
L 193.228565 195.865087 
L 194.75803 254.925841 
L 196.287496 195.606804 
L 197.816961 249.587989 
L 199.346427 195.951182 
L 200.875892 247.091251 
L 202.405358 195.606804 
L 203.934823 252.084726 
L 205.464289 195.434615 
L 206.993754 248.210478 
L 208.52322 196.295559 
L 210.052685 250.535027 
L 211.582151 196.037276 
L 213.111616 248.03829 
L 214.641082 195.606804 
L 216.170547 250.621121 
L 217.700013 195.692898 
L 219.229478 251.223782 
L 220.758944 196.209465 
L 222.288409 252.859576 
L 223.817875 196.037276 
L 225.34734 249.587989 
L 226.876806 195.434615 
L 228.406271 249.587989 
L 229.935737 196.295559 
L 231.465202 243.561381 
L 232.994668 195.951182 
L 234.524133 247.26344 
L 236.053599 195.606804 
L 237.583064 251.309876 
L 239.11253 195.606804 
L 240.641995 249.587989 
L 242.171461 195.951182 
L 243.700927 250.535027 
L 245.230392 195.606804 
L 246.759858 251.137688 
L 248.289323 195.951182 
L 249.818789 246.058118 
L 251.348254 195.951182 
L 252.87772 247.435629 
L 254.407185 196.037276 
L 255.936651 246.48859 
L 257.466116 195.434615 
L 258.995582 245.627646 
L 260.525047 195.606804 
L 262.054513 247.435629 
L 263.583978 195.434615 
L 265.113444 241.839493 
L 266.642909 195.434615 
L 268.172375 249.587989 
L 269.70184 195.606804 
L 271.231306 248.03829 
L 272.760771 195.778993 
L 274.290237 249.932366 
L 275.819702 195.434615 
L 277.349168 246.660779 
L 278.878633 195.434615 
L 280.408099 247.521723 
L 281.937564 195.606804 
L 283.46703 242.011682 
L 284.996495 195.606804 
L 286.525961 248.03829 
L 288.055426 195.951182 
L 289.584892 248.554856 
L 291.114357 195.434615 
L 292.643823 243.389192 
L 294.173288 195.692898 
L 295.702754 245.713741 
L 297.232219 195.606804 
L 298.761685 249.243611 
L 300.29115 195.606804 
L 301.820616 242.183871 
L 303.350081 195.778993 
L 304.879547 248.03829 
L 306.409012 195.606804 
L 307.938478 245.88593 
L 309.467943 195.951182 
L 310.997409 246.660779 
L 312.526874 195.606804 
L 314.05634 242.786532 
L 315.585805 195.865087 
L 317.115271 249.760177 
L 318.644736 195.434615 
L 320.174202 245.713741 
L 321.703667 195.606804 
L 323.233133 242.872626 
L 324.762599 195.606804 
L 326.292064 244.164042 
L 327.82153 195.606804 
L 329.350995 243.303098 
L 330.880461 195.606804 
L 332.409926 246.48859 
L 333.939392 195.606804 
L 335.468857 245.11108 
L 336.998323 195.434615 
L 338.527788 250.362838 
L 340.057254 195.778993 
L 341.586719 241.064644 
L 343.116185 195.434615 
L 344.64565 250.535027 
L 346.175116 195.434615 
L 347.704581 243.389192 
L 349.234047 195.434615 
L 350.763512 251.137688 
L 352.292978 195.434615 
L 353.822443 248.899233 
L 353.822443 248.899233 
" style="fill:none;stroke:#ff0000;stroke-linecap:square;stroke-width:1.5;"/>
   </g>
   <g id="line2d_28">
    <path clip-path="url(#pdf42e52094)" d="M 49.458807 250.965499 
L 50.988272 247.866101 
L 52.517738 250.879404 
L 54.047203 248.03829 
L 55.576669 251.826443 
L 57.106134 248.554856 
L 58.6356 253.117859 
L 60.165065 250.448933 
L 61.694531 254.064897 
L 63.223996 251.223782 
L 64.753462 254.839747 
L 66.282927 252.429104 
L 67.812393 256.47554 
L 69.341858 253.548331 
L 70.871324 257.336484 
L 72.400789 254.32318 
L 73.930255 257.85305 
L 75.45972 255.442407 
L 76.989186 259.661033 
L 78.518651 256.819918 
L 80.048117 259.488844 
L 81.577583 257.766956 
L 83.107048 260.091505 
L 84.636514 259.316655 
L 86.165979 261.124637 
L 87.695445 258.972277 
L 89.22491 260.866354 
L 90.754376 261.038543 
L 92.283841 261.813392 
L 93.813307 260.435882 
L 95.342772 262.071676 
L 96.872238 261.555109 
L 98.401703 262.15777 
L 99.931169 261.469015 
L 101.460634 262.846525 
L 102.9901 261.985581 
L 104.519565 262.846525 
L 106.049031 262.071676 
L 107.578496 263.276997 
L 109.107962 261.985581 
L 110.637427 263.104808 
L 112.166893 262.15777 
L 113.696358 263.190903 
L 115.225824 262.93262 
L 116.755289 263.363092 
L 118.284755 262.760431 
L 119.81422 263.621375 
L 121.343686 262.416053 
L 122.873151 263.190903 
L 124.402617 262.588242 
L 125.932082 263.104808 
L 128.991013 263.363092 
L 130.520479 262.93262 
L 132.049944 263.276997 
L 133.57941 263.104808 
L 135.108875 263.53528 
L 138.167806 263.621375 
L 139.697272 263.190903 
L 141.226737 263.707469 
L 142.756203 263.707469 
L 144.285668 263.879658 
L 145.815134 263.363092 
L 147.344599 264.137941 
L 148.874065 263.449186 
L 150.40353 263.793564 
L 151.932996 263.449186 
L 153.462461 264.051847 
L 154.991927 263.449186 
L 156.521392 263.965752 
L 158.050858 263.621375 
L 159.580323 263.793564 
L 162.639255 263.793564 
L 164.16872 263.449186 
L 167.227651 263.965752 
L 170.286582 263.965752 
L 171.816048 263.793564 
L 173.345513 263.793564 
L 174.874979 264.137941 
L 176.404444 263.965752 
L 179.463375 264.051847 
L 180.992841 264.137941 
L 184.051772 263.879658 
L 185.581237 263.879658 
L 187.110703 264.137941 
L 188.640168 263.879658 
L 190.169634 263.879658 
L 191.699099 263.707469 
L 193.228565 264.137941 
L 194.75803 263.879658 
L 196.287496 264.224035 
L 197.816961 263.879658 
L 199.346427 264.051847 
L 200.875892 263.793564 
L 202.405358 264.224035 
L 203.934823 264.051847 
L 205.464289 264.31013 
L 206.993754 263.879658 
L 208.52322 263.879658 
L 210.052685 264.137941 
L 214.641082 264.224035 
L 216.170547 263.793564 
L 217.700013 264.224035 
L 220.758944 263.965752 
L 223.817875 264.137941 
L 225.34734 263.965752 
L 226.876806 264.31013 
L 228.406271 264.224035 
L 229.935737 263.879658 
L 236.053599 264.224035 
L 237.583064 263.879658 
L 239.11253 264.224035 
L 240.641995 264.051847 
L 243.700927 264.137941 
L 245.230392 264.224035 
L 246.759858 263.965752 
L 249.818789 264.051847 
L 254.407185 264.051847 
L 257.466116 264.31013 
L 258.995582 263.707469 
L 260.525047 264.224035 
L 262.054513 264.137941 
L 263.583978 264.31013 
L 271.231306 264.31013 
L 274.290237 264.051847 
L 275.819702 264.31013 
L 277.349168 264.224035 
L 278.878633 264.31013 
L 280.408099 264.137941 
L 283.46703 264.224035 
L 286.525961 264.31013 
L 288.055426 264.051847 
L 289.584892 264.31013 
L 300.29115 264.224035 
L 301.820616 263.965752 
L 304.879547 264.224035 
L 307.938478 264.224035 
L 309.467943 264.051847 
L 314.05634 264.224035 
L 353.822443 264.31013 
L 353.822443 264.31013 
" style="fill:none;stroke:#008000;stroke-linecap:square;stroke-width:1.5;"/>
   </g>
   <g id="patch_6">
    <path d="M 34.240625 267.84 
L 34.240625 190.182857 
" style="fill:none;stroke:#000000;stroke-linecap:square;stroke-linejoin:miter;stroke-width:0.8;"/>
   </g>
   <g id="patch_7">
    <path d="M 34.240625 267.84 
L 369.040625 267.84 
" style="fill:none;stroke:#000000;stroke-linecap:square;stroke-linejoin:miter;stroke-width:0.8;"/>
   </g>
   <g id="text_28">
    <!-- Trial End Replays -->
    <g transform="translate(150.746563 184.182857)scale(0.12 -0.12)">
     <defs>
      <path d="M 628 4666 
L 3578 4666 
L 3578 4134 
L 1259 4134 
L 1259 2753 
L 3481 2753 
L 3481 2222 
L 1259 2222 
L 1259 531 
L 3634 531 
L 3634 0 
L 628 0 
L 628 4666 
z
" id="DejaVuSans-45" transform="scale(0.015625)"/>
      <path d="M 3513 2113 
L 3513 0 
L 2938 0 
L 2938 2094 
Q 2938 2591 2744 2837 
Q 2550 3084 2163 3084 
Q 1697 3084 1428 2787 
Q 1159 2491 1159 1978 
L 1159 0 
L 581 0 
L 581 3500 
L 1159 3500 
L 1159 2956 
Q 1366 3272 1645 3428 
Q 1925 3584 2291 3584 
Q 2894 3584 3203 3211 
Q 3513 2838 3513 2113 
z
" id="DejaVuSans-6e" transform="scale(0.015625)"/>
      <path d="M 2906 2969 
L 2906 4863 
L 3481 4863 
L 3481 0 
L 2906 0 
L 2906 525 
Q 2725 213 2448 61 
Q 2172 -91 1784 -91 
Q 1150 -91 751 415 
Q 353 922 353 1747 
Q 353 2572 751 3078 
Q 1150 3584 1784 3584 
Q 2172 3584 2448 3432 
Q 2725 3281 2906 2969 
z
M 947 1747 
Q 947 1113 1208 752 
Q 1469 391 1925 391 
Q 2381 391 2643 752 
Q 2906 1113 2906 1747 
Q 2906 2381 2643 2742 
Q 2381 3103 1925 3103 
Q 1469 3103 1208 2742 
Q 947 2381 947 1747 
z
" id="DejaVuSans-64" transform="scale(0.015625)"/>
     </defs>
     <use xlink:href="#DejaVuSans-54"/>
     <use x="46.333984" xlink:href="#DejaVuSans-72"/>
     <use x="87.447266" xlink:href="#DejaVuSans-69"/>
     <use x="115.230469" xlink:href="#DejaVuSans-61"/>
     <use x="176.509766" xlink:href="#DejaVuSans-6c"/>
     <use x="204.292969" xlink:href="#DejaVuSans-20"/>
     <use x="236.080078" xlink:href="#DejaVuSans-45"/>
     <use x="299.263672" xlink:href="#DejaVuSans-6e"/>
     <use x="362.642578" xlink:href="#DejaVuSans-64"/>
     <use x="426.119141" xlink:href="#DejaVuSans-20"/>
     <use x="457.90625" xlink:href="#DejaVuSans-52"/>
     <use x="522.888672" xlink:href="#DejaVuSans-65"/>
     <use x="584.412109" xlink:href="#DejaVuSans-70"/>
     <use x="647.888672" xlink:href="#DejaVuSans-6c"/>
     <use x="675.671875" xlink:href="#DejaVuSans-61"/>
     <use x="736.951172" xlink:href="#DejaVuSans-79"/>
     <use x="796.130859" xlink:href="#DejaVuSans-73"/>
    </g>
   </g>
   <g id="legend_1">
    <g id="patch_8">
     <path d="M 48.314375 333.882321 
L 354.966875 333.882321 
Q 357.366875 333.882321 357.366875 331.482321 
L 357.366875 315.068571 
Q 357.366875 312.668571 354.966875 312.668571 
L 48.314375 312.668571 
Q 45.914375 312.668571 45.914375 315.068571 
L 45.914375 331.482321 
Q 45.914375 333.882321 48.314375 333.882321 
z
" style="fill:none;opacity:0;"/>
    </g>
    <g id="line2d_29">
     <path d="M 50.714375 322.386696 
L 74.714375 322.386696 
" style="fill:none;stroke:#0000ff;stroke-linecap:square;stroke-width:1.5;"/>
    </g>
    <g id="line2d_30"/>
    <g id="text_29">
     <!-- forward -->
     <g transform="translate(84.314375 326.586696)scale(0.12 -0.12)">
      <defs>
       <path d="M 2375 4863 
L 2375 4384 
L 1825 4384 
Q 1516 4384 1395 4259 
Q 1275 4134 1275 3809 
L 1275 3500 
L 2222 3500 
L 2222 3053 
L 1275 3053 
L 1275 0 
L 697 0 
L 697 3053 
L 147 3053 
L 147 3500 
L 697 3500 
L 697 3744 
Q 697 4328 969 4595 
Q 1241 4863 1831 4863 
L 2375 4863 
z
" id="DejaVuSans-66" transform="scale(0.015625)"/>
       <path d="M 1959 3097 
Q 1497 3097 1228 2736 
Q 959 2375 959 1747 
Q 959 1119 1226 758 
Q 1494 397 1959 397 
Q 2419 397 2687 759 
Q 2956 1122 2956 1747 
Q 2956 2369 2687 2733 
Q 2419 3097 1959 3097 
z
M 1959 3584 
Q 2709 3584 3137 3096 
Q 3566 2609 3566 1747 
Q 3566 888 3137 398 
Q 2709 -91 1959 -91 
Q 1206 -91 779 398 
Q 353 888 353 1747 
Q 353 2609 779 3096 
Q 1206 3584 1959 3584 
z
" id="DejaVuSans-6f" transform="scale(0.015625)"/>
       <path d="M 269 3500 
L 844 3500 
L 1563 769 
L 2278 3500 
L 2956 3500 
L 3675 769 
L 4391 3500 
L 4966 3500 
L 4050 0 
L 3372 0 
L 2619 2869 
L 1863 0 
L 1184 0 
L 269 3500 
z
" id="DejaVuSans-77" transform="scale(0.015625)"/>
      </defs>
      <use xlink:href="#DejaVuSans-66"/>
      <use x="35.205078" xlink:href="#DejaVuSans-6f"/>
      <use x="96.386719" xlink:href="#DejaVuSans-72"/>
      <use x="137.5" xlink:href="#DejaVuSans-77"/>
      <use x="219.287109" xlink:href="#DejaVuSans-61"/>
      <use x="280.566406" xlink:href="#DejaVuSans-72"/>
      <use x="319.929688" xlink:href="#DejaVuSans-64"/>
     </g>
    </g>
    <g id="line2d_31">
     <path d="M 154.323125 322.386696 
L 178.323125 322.386696 
" style="fill:none;stroke:#ff0000;stroke-linecap:square;stroke-width:1.5;"/>
    </g>
    <g id="line2d_32"/>
    <g id="text_30">
     <!-- reverse -->
     <g transform="translate(187.923125 326.586696)scale(0.12 -0.12)">
      <defs>
       <path d="M 191 3500 
L 800 3500 
L 1894 563 
L 2988 3500 
L 3597 3500 
L 2284 0 
L 1503 0 
L 191 3500 
z
" id="DejaVuSans-76" transform="scale(0.015625)"/>
      </defs>
      <use xlink:href="#DejaVuSans-72"/>
      <use x="38.863281" xlink:href="#DejaVuSans-65"/>
      <use x="100.386719" xlink:href="#DejaVuSans-76"/>
      <use x="159.566406" xlink:href="#DejaVuSans-65"/>
      <use x="221.089844" xlink:href="#DejaVuSans-72"/>
      <use x="262.203125" xlink:href="#DejaVuSans-73"/>
      <use x="314.302734" xlink:href="#DejaVuSans-65"/>
     </g>
    </g>
    <g id="line2d_33">
     <path d="M 257.024375 322.386696 
L 281.024375 322.386696 
" style="fill:none;stroke:#008000;stroke-linecap:square;stroke-width:1.5;"/>
    </g>
    <g id="line2d_34"/>
    <g id="text_31">
     <!-- unordered -->
     <g transform="translate(290.624375 326.586696)scale(0.12 -0.12)">
      <defs>
       <path d="M 544 1381 
L 544 3500 
L 1119 3500 
L 1119 1403 
Q 1119 906 1312 657 
Q 1506 409 1894 409 
Q 2359 409 2629 706 
Q 2900 1003 2900 1516 
L 2900 3500 
L 3475 3500 
L 3475 0 
L 2900 0 
L 2900 538 
Q 2691 219 2414 64 
Q 2138 -91 1772 -91 
Q 1169 -91 856 284 
Q 544 659 544 1381 
z
M 1991 3584 
L 1991 3584 
z
" id="DejaVuSans-75" transform="scale(0.015625)"/>
      </defs>
      <use xlink:href="#DejaVuSans-75"/>
      <use x="63.378906" xlink:href="#DejaVuSans-6e"/>
      <use x="126.757812" xlink:href="#DejaVuSans-6f"/>
      <use x="187.939453" xlink:href="#DejaVuSans-72"/>
      <use x="227.302734" xlink:href="#DejaVuSans-64"/>
      <use x="290.779297" xlink:href="#DejaVuSans-65"/>
      <use x="352.302734" xlink:href="#DejaVuSans-72"/>
      <use x="391.166016" xlink:href="#DejaVuSans-65"/>
      <use x="452.689453" xlink:href="#DejaVuSans-64"/>
     </g>
    </g>
   </g>
  </g>
  <g id="text_32">
   <!-- Double Track, Default Mode -->
   <g transform="translate(92.669141 18.597656)scale(0.15 -0.15)">
    <defs>
     <path d="M 1259 4147 
L 1259 519 
L 2022 519 
Q 2988 519 3436 956 
Q 3884 1394 3884 2338 
Q 3884 3275 3436 3711 
Q 2988 4147 2022 4147 
L 1259 4147 
z
M 628 4666 
L 1925 4666 
Q 3281 4666 3915 4102 
Q 4550 3538 4550 2338 
Q 4550 1131 3912 565 
Q 3275 0 1925 0 
L 628 0 
L 628 4666 
z
" id="DejaVuSans-44" transform="scale(0.015625)"/>
     <path d="M 3116 1747 
Q 3116 2381 2855 2742 
Q 2594 3103 2138 3103 
Q 1681 3103 1420 2742 
Q 1159 2381 1159 1747 
Q 1159 1113 1420 752 
Q 1681 391 2138 391 
Q 2594 391 2855 752 
Q 3116 1113 3116 1747 
z
M 1159 2969 
Q 1341 3281 1617 3432 
Q 1894 3584 2278 3584 
Q 2916 3584 3314 3078 
Q 3713 2572 3713 1747 
Q 3713 922 3314 415 
Q 2916 -91 2278 -91 
Q 1894 -91 1617 61 
Q 1341 213 1159 525 
L 1159 0 
L 581 0 
L 581 4863 
L 1159 4863 
L 1159 2969 
z
" id="DejaVuSans-62" transform="scale(0.015625)"/>
     <path d="M 3122 3366 
L 3122 2828 
Q 2878 2963 2633 3030 
Q 2388 3097 2138 3097 
Q 1578 3097 1268 2742 
Q 959 2388 959 1747 
Q 959 1106 1268 751 
Q 1578 397 2138 397 
Q 2388 397 2633 464 
Q 2878 531 3122 666 
L 3122 134 
Q 2881 22 2623 -34 
Q 2366 -91 2075 -91 
Q 1284 -91 818 406 
Q 353 903 353 1747 
Q 353 2603 823 3093 
Q 1294 3584 2113 3584 
Q 2378 3584 2631 3529 
Q 2884 3475 3122 3366 
z
" id="DejaVuSans-63" transform="scale(0.015625)"/>
     <path d="M 581 4863 
L 1159 4863 
L 1159 1991 
L 2875 3500 
L 3609 3500 
L 1753 1863 
L 3688 0 
L 2938 0 
L 1159 1709 
L 1159 0 
L 581 0 
L 581 4863 
z
" id="DejaVuSans-6b" transform="scale(0.015625)"/>
     <path d="M 750 794 
L 1409 794 
L 1409 256 
L 897 -744 
L 494 -744 
L 750 256 
L 750 794 
z
" id="DejaVuSans-2c" transform="scale(0.015625)"/>
     <path d="M 628 4666 
L 1569 4666 
L 2759 1491 
L 3956 4666 
L 4897 4666 
L 4897 0 
L 4281 0 
L 4281 4097 
L 3078 897 
L 2444 897 
L 1241 4097 
L 1241 0 
L 628 0 
L 628 4666 
z
" id="DejaVuSans-4d" transform="scale(0.015625)"/>
    </defs>
    <use xlink:href="#DejaVuSans-44"/>
    <use x="77.001953" xlink:href="#DejaVuSans-6f"/>
    <use x="138.183594" xlink:href="#DejaVuSans-75"/>
    <use x="201.5625" xlink:href="#DejaVuSans-62"/>
    <use x="265.039062" xlink:href="#DejaVuSans-6c"/>
    <use x="292.822266" xlink:href="#DejaVuSans-65"/>
    <use x="354.345703" xlink:href="#DejaVuSans-20"/>
    <use x="386.132812" xlink:href="#DejaVuSans-54"/>
    <use x="432.466797" xlink:href="#DejaVuSans-72"/>
    <use x="473.580078" xlink:href="#DejaVuSans-61"/>
    <use x="534.859375" xlink:href="#DejaVuSans-63"/>
    <use x="589.839844" xlink:href="#DejaVuSans-6b"/>
    <use x="647.75" xlink:href="#DejaVuSans-2c"/>
    <use x="679.537109" xlink:href="#DejaVuSans-20"/>
    <use x="711.324219" xlink:href="#DejaVuSans-44"/>
    <use x="788.326172" xlink:href="#DejaVuSans-65"/>
    <use x="849.849609" xlink:href="#DejaVuSans-66"/>
    <use x="885.054688" xlink:href="#DejaVuSans-61"/>
    <use x="946.333984" xlink:href="#DejaVuSans-75"/>
    <use x="1009.712891" xlink:href="#DejaVuSans-6c"/>
    <use x="1037.496094" xlink:href="#DejaVuSans-74"/>
    <use x="1076.705078" xlink:href="#DejaVuSans-20"/>
    <use x="1108.492188" xlink:href="#DejaVuSans-4d"/>
    <use x="1194.771484" xlink:href="#DejaVuSans-6f"/>
    <use x="1255.953125" xlink:href="#DejaVuSans-64"/>
    <use x="1319.429688" xlink:href="#DejaVuSans-65"/>
   </g>
  </g>
 </g>
 <defs>
  <clipPath id="p88349f5aa1">
   <rect height="77.657143" width="334.8" x="34.240625" y="50.4"/>
  </clipPath>
  <clipPath id="pdf42e52094">
   <rect height="77.657143" width="334.8" x="34.240625" y="190.182857"/>
  </clipPath>
 </defs>
</svg>
