<?xml version="1.0" encoding="utf-8" standalone="no"?>
<!DOCTYPE svg PUBLIC "-//W3C//DTD SVG 1.1//EN"
  "http://www.w3.org/Graphics/SVG/1.1/DTD/svg11.dtd">
<svg height="341.082321pt" version="1.1" viewBox="0 0 376.240625 341.082321" width="376.240625pt" xmlns="http://www.w3.org/2000/svg" xmlns:xlink="http://www.w3.org/1999/xlink">
 <metadata>
  <rdf:RDF xmlns:cc="http://creativecommons.org/ns#" xmlns:dc="http://purl.org/dc/elements/1.1/" xmlns:rdf="http://www.w3.org/1999/02/22-rdf-syntax-ns#">
   <cc:Work>
    <dc:type rdf:resource="http://purl.org/dc/dcmitype/StillImage"/>
    <dc:date>2023-01-28T03:51:38.910283</dc:date>
    <dc:format>image/svg+xml</dc:format>
    <dc:creator>
     <cc:Agent>
      <dc:title>Matplotlib v3.4.3, https://matplotlib.org/</dc:title>
     </cc:Agent>
    </dc:creator>
   </cc:Work>
  </rdf:RDF>
 </metadata>
 <defs>
  <style type="text/css">*{stroke-linecap:butt;stroke-linejoin:round;}</style>
 </defs>
 <g id="figure_1">
  <g id="patch_1">
   <path d="M 0 341.082321 
L 376.240625 341.082321 
L 376.240625 0 
L 0 0 
z
" style="fill:none;"/>
  </g>
  <g id="axes_1">
   <g id="patch_2">
    <path d="M 34.240625 128.057143 
L 369.040625 128.057143 
L 369.040625 50.4 
L 34.240625 50.4 
z
" style="fill:none;"/>
   </g>
   <g id="matplotlib.axis_1">
    <g id="xtick_1">
     <g id="line2d_1">
      <defs>
       <path d="M 0 0 
L 0 3.5 
" id="m0b1da7ae82" style="stroke:#000000;stroke-width:0.8;"/>
      </defs>
      <g>
       <use style="stroke:#000000;stroke-width:0.8;" x="49.458807" xlink:href="#m0b1da7ae82" y="128.057143"/>
      </g>
     </g>
     <g id="text_1">
      <!-- 0 -->
      <g transform="translate(46.277557 142.65558)scale(0.1 -0.1)">
       <defs>
        <path d="M 2034 4250 
Q 1547 4250 1301 3770 
Q 1056 3291 1056 2328 
Q 1056 1369 1301 889 
Q 1547 409 2034 409 
Q 2525 409 2770 889 
Q 3016 1369 3016 2328 
Q 3016 3291 2770 3770 
Q 2525 4250 2034 4250 
z
M 2034 4750 
Q 2819 4750 3233 4129 
Q 3647 3509 3647 2328 
Q 3647 1150 3233 529 
Q 2819 -91 2034 -91 
Q 1250 -91 836 529 
Q 422 1150 422 2328 
Q 422 3509 836 4129 
Q 1250 4750 2034 4750 
z
" id="DejaVuSans-30" transform="scale(0.015625)"/>
       </defs>
       <use xlink:href="#DejaVuSans-30"/>
      </g>
     </g>
    </g>
    <g id="xtick_2">
     <g id="line2d_2">
      <g>
       <use style="stroke:#000000;stroke-width:0.8;" x="87.695445" xlink:href="#m0b1da7ae82" y="128.057143"/>
      </g>
     </g>
     <g id="text_2">
      <!-- 25 -->
      <g transform="translate(81.332945 142.65558)scale(0.1 -0.1)">
       <defs>
        <path d="M 1228 531 
L 3431 531 
L 3431 0 
L 469 0 
L 469 531 
Q 828 903 1448 1529 
Q 2069 2156 2228 2338 
Q 2531 2678 2651 2914 
Q 2772 3150 2772 3378 
Q 2772 3750 2511 3984 
Q 2250 4219 1831 4219 
Q 1534 4219 1204 4116 
Q 875 4013 500 3803 
L 500 4441 
Q 881 4594 1212 4672 
Q 1544 4750 1819 4750 
Q 2544 4750 2975 4387 
Q 3406 4025 3406 3419 
Q 3406 3131 3298 2873 
Q 3191 2616 2906 2266 
Q 2828 2175 2409 1742 
Q 1991 1309 1228 531 
z
" id="DejaVuSans-32" transform="scale(0.015625)"/>
        <path d="M 691 4666 
L 3169 4666 
L 3169 4134 
L 1269 4134 
L 1269 2991 
Q 1406 3038 1543 3061 
Q 1681 3084 1819 3084 
Q 2600 3084 3056 2656 
Q 3513 2228 3513 1497 
Q 3513 744 3044 326 
Q 2575 -91 1722 -91 
Q 1428 -91 1123 -41 
Q 819 9 494 109 
L 494 744 
Q 775 591 1075 516 
Q 1375 441 1709 441 
Q 2250 441 2565 725 
Q 2881 1009 2881 1497 
Q 2881 1984 2565 2268 
Q 2250 2553 1709 2553 
Q 1456 2553 1204 2497 
Q 953 2441 691 2322 
L 691 4666 
z
" id="DejaVuSans-35" transform="scale(0.015625)"/>
       </defs>
       <use xlink:href="#DejaVuSans-32"/>
       <use x="63.623047" xlink:href="#DejaVuSans-35"/>
      </g>
     </g>
    </g>
    <g id="xtick_3">
     <g id="line2d_3">
      <g>
       <use style="stroke:#000000;stroke-width:0.8;" x="125.932082" xlink:href="#m0b1da7ae82" y="128.057143"/>
      </g>
     </g>
     <g id="text_3">
      <!-- 50 -->
      <g transform="translate(119.569582 142.65558)scale(0.1 -0.1)">
       <use xlink:href="#DejaVuSans-35"/>
       <use x="63.623047" xlink:href="#DejaVuSans-30"/>
      </g>
     </g>
    </g>
    <g id="xtick_4">
     <g id="line2d_4">
      <g>
       <use style="stroke:#000000;stroke-width:0.8;" x="164.16872" xlink:href="#m0b1da7ae82" y="128.057143"/>
      </g>
     </g>
     <g id="text_4">
      <!-- 75 -->
      <g transform="translate(157.80622 142.65558)scale(0.1 -0.1)">
       <defs>
        <path d="M 525 4666 
L 3525 4666 
L 3525 4397 
L 1831 0 
L 1172 0 
L 2766 4134 
L 525 4134 
L 525 4666 
z
" id="DejaVuSans-37" transform="scale(0.015625)"/>
       </defs>
       <use xlink:href="#DejaVuSans-37"/>
       <use x="63.623047" xlink:href="#DejaVuSans-35"/>
      </g>
     </g>
    </g>
    <g id="xtick_5">
     <g id="line2d_5">
      <g>
       <use style="stroke:#000000;stroke-width:0.8;" x="202.405358" xlink:href="#m0b1da7ae82" y="128.057143"/>
      </g>
     </g>
     <g id="text_5">
      <!-- 100 -->
      <g transform="translate(192.861608 142.65558)scale(0.1 -0.1)">
       <defs>
        <path d="M 794 531 
L 1825 531 
L 1825 4091 
L 703 3866 
L 703 4441 
L 1819 4666 
L 2450 4666 
L 2450 531 
L 3481 531 
L 3481 0 
L 794 0 
L 794 531 
z
" id="DejaVuSans-31" transform="scale(0.015625)"/>
       </defs>
       <use xlink:href="#DejaVuSans-31"/>
       <use x="63.623047" xlink:href="#DejaVuSans-30"/>
       <use x="127.246094" xlink:href="#DejaVuSans-30"/>
      </g>
     </g>
    </g>
    <g id="xtick_6">
     <g id="line2d_6">
      <g>
       <use style="stroke:#000000;stroke-width:0.8;" x="240.641995" xlink:href="#m0b1da7ae82" y="128.057143"/>
      </g>
     </g>
     <g id="text_6">
      <!-- 125 -->
      <g transform="translate(231.098245 142.65558)scale(0.1 -0.1)">
       <use xlink:href="#DejaVuSans-31"/>
       <use x="63.623047" xlink:href="#DejaVuSans-32"/>
       <use x="127.246094" xlink:href="#DejaVuSans-35"/>
      </g>
     </g>
    </g>
    <g id="xtick_7">
     <g id="line2d_7">
      <g>
       <use style="stroke:#000000;stroke-width:0.8;" x="278.878633" xlink:href="#m0b1da7ae82" y="128.057143"/>
      </g>
     </g>
     <g id="text_7">
      <!-- 150 -->
      <g transform="translate(269.334883 142.65558)scale(0.1 -0.1)">
       <use xlink:href="#DejaVuSans-31"/>
       <use x="63.623047" xlink:href="#DejaVuSans-35"/>
       <use x="127.246094" xlink:href="#DejaVuSans-30"/>
      </g>
     </g>
    </g>
    <g id="xtick_8">
     <g id="line2d_8">
      <g>
       <use style="stroke:#000000;stroke-width:0.8;" x="317.115271" xlink:href="#m0b1da7ae82" y="128.057143"/>
      </g>
     </g>
     <g id="text_8">
      <!-- 175 -->
      <g transform="translate(307.571521 142.65558)scale(0.1 -0.1)">
       <use xlink:href="#DejaVuSans-31"/>
       <use x="63.623047" xlink:href="#DejaVuSans-37"/>
       <use x="127.246094" xlink:href="#DejaVuSans-35"/>
      </g>
     </g>
    </g>
    <g id="xtick_9">
     <g id="line2d_9">
      <g>
       <use style="stroke:#000000;stroke-width:0.8;" x="355.351909" xlink:href="#m0b1da7ae82" y="128.057143"/>
      </g>
     </g>
     <g id="text_9">
      <!-- 200 -->
      <g transform="translate(345.808159 142.65558)scale(0.1 -0.1)">
       <use xlink:href="#DejaVuSans-32"/>
       <use x="63.623047" xlink:href="#DejaVuSans-30"/>
       <use x="127.246094" xlink:href="#DejaVuSans-30"/>
      </g>
     </g>
    </g>
    <g id="text_10">
     <!-- Trial -->
     <g transform="translate(191.426563 156.333705)scale(0.1 -0.1)">
      <defs>
       <path d="M -19 4666 
L 3928 4666 
L 3928 4134 
L 2272 4134 
L 2272 0 
L 1638 0 
L 1638 4134 
L -19 4134 
L -19 4666 
z
" id="DejaVuSans-54" transform="scale(0.015625)"/>
       <path d="M 2631 2963 
Q 2534 3019 2420 3045 
Q 2306 3072 2169 3072 
Q 1681 3072 1420 2755 
Q 1159 2438 1159 1844 
L 1159 0 
L 581 0 
L 581 3500 
L 1159 3500 
L 1159 2956 
Q 1341 3275 1631 3429 
Q 1922 3584 2338 3584 
Q 2397 3584 2469 3576 
Q 2541 3569 2628 3553 
L 2631 2963 
z
" id="DejaVuSans-72" transform="scale(0.015625)"/>
       <path d="M 603 3500 
L 1178 3500 
L 1178 0 
L 603 0 
L 603 3500 
z
M 603 4863 
L 1178 4863 
L 1178 4134 
L 603 4134 
L 603 4863 
z
" id="DejaVuSans-69" transform="scale(0.015625)"/>
       <path d="M 2194 1759 
Q 1497 1759 1228 1600 
Q 959 1441 959 1056 
Q 959 750 1161 570 
Q 1363 391 1709 391 
Q 2188 391 2477 730 
Q 2766 1069 2766 1631 
L 2766 1759 
L 2194 1759 
z
M 3341 1997 
L 3341 0 
L 2766 0 
L 2766 531 
Q 2569 213 2275 61 
Q 1981 -91 1556 -91 
Q 1019 -91 701 211 
Q 384 513 384 1019 
Q 384 1609 779 1909 
Q 1175 2209 1959 2209 
L 2766 2209 
L 2766 2266 
Q 2766 2663 2505 2880 
Q 2244 3097 1772 3097 
Q 1472 3097 1187 3025 
Q 903 2953 641 2809 
L 641 3341 
Q 956 3463 1253 3523 
Q 1550 3584 1831 3584 
Q 2591 3584 2966 3190 
Q 3341 2797 3341 1997 
z
" id="DejaVuSans-61" transform="scale(0.015625)"/>
       <path d="M 603 4863 
L 1178 4863 
L 1178 0 
L 603 0 
L 603 4863 
z
" id="DejaVuSans-6c" transform="scale(0.015625)"/>
      </defs>
      <use xlink:href="#DejaVuSans-54"/>
      <use x="46.333984" xlink:href="#DejaVuSans-72"/>
      <use x="87.447266" xlink:href="#DejaVuSans-69"/>
      <use x="115.230469" xlink:href="#DejaVuSans-61"/>
      <use x="176.509766" xlink:href="#DejaVuSans-6c"/>
     </g>
    </g>
   </g>
   <g id="matplotlib.axis_2">
    <g id="ytick_1">
     <g id="line2d_10">
      <defs>
       <path d="M 0 0 
L -3.5 0 
" id="mafd3321565" style="stroke:#000000;stroke-width:0.8;"/>
      </defs>
      <g>
       <use style="stroke:#000000;stroke-width:0.8;" x="34.240625" xlink:href="#mafd3321565" y="124.527273"/>
      </g>
     </g>
     <g id="text_11">
      <!-- 0 -->
      <g transform="translate(20.878125 128.326491)scale(0.1 -0.1)">
       <use xlink:href="#DejaVuSans-30"/>
      </g>
     </g>
    </g>
    <g id="ytick_2">
     <g id="line2d_11">
      <g>
       <use style="stroke:#000000;stroke-width:0.8;" x="34.240625" xlink:href="#mafd3321565" y="85.306494"/>
      </g>
     </g>
     <g id="text_12">
      <!-- 5 -->
      <g transform="translate(20.878125 89.105712)scale(0.1 -0.1)">
       <use xlink:href="#DejaVuSans-35"/>
      </g>
     </g>
    </g>
    <g id="text_13">
     <!-- Pairs [#] -->
     <g transform="translate(14.798437 110.812165)rotate(-90)scale(0.1 -0.1)">
      <defs>
       <path d="M 1259 4147 
L 1259 2394 
L 2053 2394 
Q 2494 2394 2734 2622 
Q 2975 2850 2975 3272 
Q 2975 3691 2734 3919 
Q 2494 4147 2053 4147 
L 1259 4147 
z
M 628 4666 
L 2053 4666 
Q 2838 4666 3239 4311 
Q 3641 3956 3641 3272 
Q 3641 2581 3239 2228 
Q 2838 1875 2053 1875 
L 1259 1875 
L 1259 0 
L 628 0 
L 628 4666 
z
" id="DejaVuSans-50" transform="scale(0.015625)"/>
       <path d="M 2834 3397 
L 2834 2853 
Q 2591 2978 2328 3040 
Q 2066 3103 1784 3103 
Q 1356 3103 1142 2972 
Q 928 2841 928 2578 
Q 928 2378 1081 2264 
Q 1234 2150 1697 2047 
L 1894 2003 
Q 2506 1872 2764 1633 
Q 3022 1394 3022 966 
Q 3022 478 2636 193 
Q 2250 -91 1575 -91 
Q 1294 -91 989 -36 
Q 684 19 347 128 
L 347 722 
Q 666 556 975 473 
Q 1284 391 1588 391 
Q 1994 391 2212 530 
Q 2431 669 2431 922 
Q 2431 1156 2273 1281 
Q 2116 1406 1581 1522 
L 1381 1569 
Q 847 1681 609 1914 
Q 372 2147 372 2553 
Q 372 3047 722 3315 
Q 1072 3584 1716 3584 
Q 2034 3584 2315 3537 
Q 2597 3491 2834 3397 
z
" id="DejaVuSans-73" transform="scale(0.015625)"/>
       <path id="DejaVuSans-20" transform="scale(0.015625)"/>
       <path d="M 550 4863 
L 1875 4863 
L 1875 4416 
L 1125 4416 
L 1125 -397 
L 1875 -397 
L 1875 -844 
L 550 -844 
L 550 4863 
z
" id="DejaVuSans-5b" transform="scale(0.015625)"/>
       <path d="M 3272 2816 
L 2363 2816 
L 2100 1772 
L 3016 1772 
L 3272 2816 
z
M 2803 4594 
L 2478 3297 
L 3391 3297 
L 3719 4594 
L 4219 4594 
L 3897 3297 
L 4872 3297 
L 4872 2816 
L 3775 2816 
L 3519 1772 
L 4513 1772 
L 4513 1294 
L 3397 1294 
L 3072 0 
L 2572 0 
L 2894 1294 
L 1978 1294 
L 1656 0 
L 1153 0 
L 1478 1294 
L 494 1294 
L 494 1772 
L 1594 1772 
L 1856 2816 
L 850 2816 
L 850 3297 
L 1978 3297 
L 2297 4594 
L 2803 4594 
z
" id="DejaVuSans-23" transform="scale(0.015625)"/>
       <path d="M 1947 4863 
L 1947 -844 
L 622 -844 
L 622 -397 
L 1369 -397 
L 1369 4416 
L 622 4416 
L 622 4863 
L 1947 4863 
z
" id="DejaVuSans-5d" transform="scale(0.015625)"/>
      </defs>
      <use xlink:href="#DejaVuSans-50"/>
      <use x="55.802734" xlink:href="#DejaVuSans-61"/>
      <use x="117.082031" xlink:href="#DejaVuSans-69"/>
      <use x="144.865234" xlink:href="#DejaVuSans-72"/>
      <use x="185.978516" xlink:href="#DejaVuSans-73"/>
      <use x="238.078125" xlink:href="#DejaVuSans-20"/>
      <use x="269.865234" xlink:href="#DejaVuSans-5b"/>
      <use x="308.878906" xlink:href="#DejaVuSans-23"/>
      <use x="392.667969" xlink:href="#DejaVuSans-5d"/>
     </g>
    </g>
   </g>
   <g id="line2d_12">
    <path clip-path="url(#p247e39147c)" d="M 49.458807 124.527273 
L 50.988272 124.527273 
L 52.517738 102.092987 
L 54.047203 118.251948 
L 55.576669 100.916364 
L 57.106134 119.114805 
L 58.6356 101.622338 
L 60.165065 119.428571 
L 61.694531 101.622338 
L 63.223996 120.291429 
L 64.753462 100.602597 
L 66.282927 120.526753 
L 67.812393 100.916364 
L 69.341858 120.212987 
L 70.871324 99.661299 
L 72.400789 121.154286 
L 73.930255 99.73974 
L 75.45972 120.918961 
L 76.989186 99.73974 
L 78.518651 121.546494 
L 80.048117 98.798442 
L 81.577583 121.86026 
L 83.107048 99.818182 
L 84.636514 122.017143 
L 86.165979 99.425974 
L 87.695445 122.644675 
L 89.22491 99.504416 
L 90.754376 122.723117 
L 92.283841 99.73974 
L 93.813307 122.801558 
L 95.342772 99.425974 
L 96.872238 123.115325 
L 98.401703 100.131948 
L 99.931169 122.958442 
L 101.460634 101.387013 
L 102.9901 123.115325 
L 104.519565 100.602597 
L 106.049031 123.350649 
L 107.578496 100.131948 
L 109.107962 123.664416 
L 110.637427 100.916364 
L 112.166893 123.664416 
L 113.696358 100.994805 
L 115.225824 123.664416 
L 116.755289 101.073247 
L 118.284755 123.742857 
L 119.81422 99.504416 
L 121.343686 123.978182 
L 122.873151 100.916364 
L 124.402617 123.89974 
L 125.932082 101.465455 
L 127.461548 123.978182 
L 128.991013 100.681039 
L 130.520479 124.135065 
L 132.049944 101.151688 
L 133.57941 124.213506 
L 135.108875 103.348052 
L 136.638341 123.89974 
L 138.167806 102.328312 
L 139.697272 124.135065 
L 141.226737 102.720519 
L 142.756203 124.291948 
L 144.285668 103.112727 
L 145.815134 124.213506 
L 147.344599 101.779221 
L 148.874065 124.291948 
L 150.40353 102.798961 
L 151.932996 124.291948 
L 153.462461 104.446234 
L 154.991927 124.213506 
L 156.521392 102.877403 
L 158.050858 124.291948 
L 159.580323 103.348052 
L 161.109789 124.37039 
L 162.639255 103.112727 
L 164.16872 124.135065 
L 165.698186 103.426494 
L 167.227651 124.37039 
L 168.757117 102.955844 
L 170.286582 124.213506 
L 171.816048 103.112727 
L 173.345513 124.291948 
L 174.874979 103.661818 
L 176.404444 124.448831 
L 177.93391 105.073766 
L 179.463375 124.448831 
L 180.992841 104.838442 
L 182.522306 124.448831 
L 184.051772 104.210909 
L 185.581237 124.448831 
L 187.110703 103.348052 
L 188.640168 124.37039 
L 190.169634 104.054026 
L 191.699099 124.448831 
L 193.228565 103.504935 
L 194.75803 124.448831 
L 196.287496 103.583377 
L 197.816961 124.291948 
L 199.346427 104.76 
L 200.875892 124.291948 
L 202.405358 104.446234 
L 203.934823 124.37039 
L 205.464289 105.073766 
L 206.993754 124.448831 
L 208.52322 104.210909 
L 210.052685 124.448831 
L 211.582151 105.77974 
L 213.111616 124.37039 
L 214.641082 104.524675 
L 216.170547 124.527273 
L 217.700013 105.309091 
L 219.229478 124.527273 
L 220.758944 106.093506 
L 222.288409 124.37039 
L 223.817875 105.465974 
L 225.34734 124.448831 
L 226.876806 104.054026 
L 228.406271 124.527273 
L 229.935737 104.367792 
L 231.465202 124.527273 
L 232.994668 104.289351 
L 234.524133 124.527273 
L 236.053599 106.407273 
L 237.583064 124.448831 
L 239.11253 102.955844 
L 240.641995 124.448831 
L 242.171461 104.446234 
L 243.700927 124.527273 
L 245.230392 104.995325 
L 246.759858 124.527273 
L 248.289323 103.975584 
L 249.818789 124.37039 
L 251.348254 105.387532 
L 252.87772 124.527273 
L 254.407185 104.132468 
L 255.936651 124.527273 
L 257.466116 104.132468 
L 258.995582 124.527273 
L 260.525047 104.916883 
L 262.054513 124.527273 
L 263.583978 104.603117 
L 265.113444 124.527273 
L 266.642909 104.838442 
L 268.172375 124.448831 
L 269.70184 104.603117 
L 271.231306 124.448831 
L 272.760771 105.701299 
L 274.290237 124.527273 
L 275.819702 105.77974 
L 277.349168 124.448831 
L 278.878633 105.387532 
L 280.408099 124.527273 
L 281.937564 105.230649 
L 283.46703 124.527273 
L 284.996495 105.544416 
L 286.525961 124.448831 
L 288.055426 104.446234 
L 289.584892 124.448831 
L 291.114357 105.622857 
L 292.643823 124.527273 
L 294.173288 104.916883 
L 295.702754 124.448831 
L 297.232219 105.544416 
L 298.761685 124.448831 
L 300.29115 104.054026 
L 301.820616 124.448831 
L 303.350081 103.661818 
L 304.879547 124.527273 
L 306.409012 103.897143 
L 307.938478 124.527273 
L 309.467943 105.387532 
L 310.997409 124.527273 
L 312.526874 105.309091 
L 314.05634 124.527273 
L 315.585805 106.328831 
L 317.115271 124.527273 
L 318.644736 104.995325 
L 320.174202 124.527273 
L 321.703667 106.015065 
L 323.233133 124.448831 
L 324.762599 106.407273 
L 326.292064 124.527273 
L 327.82153 105.152208 
L 329.350995 124.448831 
L 330.880461 105.622857 
L 332.409926 124.527273 
L 333.939392 105.152208 
L 335.468857 124.448831 
L 336.998323 104.916883 
L 338.527788 124.527273 
L 340.057254 105.387532 
L 341.586719 124.527273 
L 343.116185 106.093506 
L 344.64565 124.527273 
L 346.175116 105.936623 
L 347.704581 124.448831 
L 349.234047 106.015065 
L 350.763512 124.527273 
L 352.292978 104.76 
L 353.822443 124.527273 
L 353.822443 124.527273 
" style="fill:none;stroke:#0000ff;stroke-linecap:square;stroke-width:1.5;"/>
   </g>
   <g id="line2d_13">
    <path clip-path="url(#p247e39147c)" d="M 49.458807 124.527273 
L 50.988272 53.92987 
L 52.517738 77.227013 
L 54.047203 60.205195 
L 55.576669 78.560519 
L 57.106134 59.342338 
L 58.6356 77.462338 
L 60.165065 59.028571 
L 61.694531 77.383896 
L 63.223996 58.165714 
L 64.753462 78.482078 
L 66.282927 57.93039 
L 67.812393 78.246753 
L 69.341858 58.244156 
L 70.871324 79.10961 
L 72.400789 57.302857 
L 73.930255 79.031169 
L 75.45972 57.538182 
L 76.989186 79.031169 
L 78.518651 56.910649 
L 80.048117 79.894026 
L 81.577583 56.596883 
L 83.107048 78.795844 
L 84.636514 56.44 
L 86.165979 79.10961 
L 87.695445 55.812468 
L 89.22491 79.188052 
L 90.754376 55.734026 
L 92.283841 78.795844 
L 93.813307 55.655584 
L 95.342772 79.10961 
L 96.872238 55.341818 
L 98.401703 78.403636 
L 99.931169 55.498701 
L 101.460634 77.148571 
L 102.9901 55.341818 
L 104.519565 77.854545 
L 106.049031 55.106494 
L 107.578496 78.482078 
L 109.107962 54.792727 
L 110.637427 77.540779 
L 112.166893 54.792727 
L 113.696358 77.462338 
L 115.225824 54.792727 
L 116.755289 77.462338 
L 118.284755 54.714286 
L 119.81422 78.952727 
L 121.343686 54.478961 
L 122.873151 77.619221 
L 124.402617 54.557403 
L 125.932082 76.991688 
L 127.461548 54.478961 
L 128.991013 77.854545 
L 130.520479 54.322078 
L 132.049944 77.383896 
L 133.57941 54.243636 
L 135.108875 75.109091 
L 136.638341 54.557403 
L 138.167806 76.128831 
L 139.697272 54.322078 
L 141.226737 75.736623 
L 142.756203 54.165195 
L 144.285668 75.344416 
L 145.815134 54.243636 
L 147.344599 76.677922 
L 148.874065 54.165195 
L 150.40353 75.658182 
L 151.932996 54.165195 
L 153.462461 74.010909 
L 154.991927 54.243636 
L 156.521392 75.57974 
L 158.050858 54.165195 
L 159.580323 75.109091 
L 161.109789 54.086753 
L 162.639255 75.344416 
L 164.16872 54.322078 
L 165.698186 75.030649 
L 167.227651 54.086753 
L 168.757117 75.501299 
L 170.286582 54.243636 
L 171.816048 75.344416 
L 173.345513 54.165195 
L 174.874979 74.795325 
L 176.404444 54.008312 
L 177.93391 73.383377 
L 179.463375 54.008312 
L 180.992841 73.618701 
L 182.522306 54.008312 
L 184.051772 74.246234 
L 185.581237 54.008312 
L 187.110703 75.187532 
L 188.640168 54.086753 
L 190.169634 74.403117 
L 191.699099 54.008312 
L 193.228565 74.952208 
L 194.75803 54.008312 
L 196.287496 74.873766 
L 197.816961 54.165195 
L 199.346427 73.697143 
L 200.875892 54.165195 
L 202.405358 74.010909 
L 203.934823 54.086753 
L 205.464289 73.383377 
L 206.993754 54.008312 
L 208.52322 74.246234 
L 210.052685 54.008312 
L 211.582151 72.755844 
L 213.111616 54.086753 
L 214.641082 73.932468 
L 216.170547 53.92987 
L 217.700013 73.148052 
L 219.229478 53.92987 
L 220.758944 72.442078 
L 222.288409 54.086753 
L 223.817875 72.991169 
L 225.34734 54.008312 
L 226.876806 74.481558 
L 228.406271 53.92987 
L 229.935737 74.089351 
L 231.465202 53.92987 
L 232.994668 74.167792 
L 234.524133 53.92987 
L 236.053599 72.04987 
L 237.583064 54.008312 
L 239.11253 75.501299 
L 240.641995 54.008312 
L 242.171461 74.010909 
L 243.700927 53.92987 
L 245.230392 73.461818 
L 246.759858 53.92987 
L 248.289323 74.481558 
L 249.818789 54.086753 
L 251.348254 73.06961 
L 252.87772 53.92987 
L 254.407185 74.324675 
L 255.936651 53.92987 
L 257.466116 74.403117 
L 258.995582 53.92987 
L 260.525047 73.618701 
L 262.054513 53.92987 
L 263.583978 73.932468 
L 265.113444 53.92987 
L 266.642909 73.697143 
L 268.172375 54.008312 
L 269.70184 73.854026 
L 271.231306 54.008312 
L 272.760771 72.755844 
L 274.290237 53.92987 
L 275.819702 72.677403 
L 277.349168 54.008312 
L 278.878633 73.06961 
L 280.408099 53.92987 
L 281.937564 73.226494 
L 283.46703 53.92987 
L 284.996495 72.912727 
L 286.525961 54.008312 
L 288.055426 74.089351 
L 289.584892 54.086753 
L 291.114357 72.834286 
L 292.643823 53.92987 
L 294.173288 73.618701 
L 295.702754 54.008312 
L 297.232219 72.912727 
L 298.761685 54.008312 
L 300.29115 74.403117 
L 301.820616 54.008312 
L 303.350081 74.873766 
L 304.879547 53.92987 
L 306.409012 74.56 
L 307.938478 53.92987 
L 309.467943 73.06961 
L 310.997409 53.92987 
L 312.526874 73.148052 
L 314.05634 53.92987 
L 315.585805 72.285195 
L 317.115271 53.92987 
L 318.644736 73.461818 
L 320.174202 53.92987 
L 321.703667 72.442078 
L 323.233133 54.008312 
L 324.762599 72.04987 
L 326.292064 53.92987 
L 327.82153 73.304935 
L 329.350995 54.008312 
L 330.880461 72.834286 
L 332.409926 53.92987 
L 333.939392 73.383377 
L 335.468857 54.008312 
L 336.998323 73.54026 
L 338.527788 53.92987 
L 340.057254 73.148052 
L 341.586719 53.92987 
L 343.116185 72.442078 
L 344.64565 53.92987 
L 346.175116 72.520519 
L 347.704581 54.008312 
L 349.234047 72.442078 
L 350.763512 53.92987 
L 352.292978 73.775584 
L 353.822443 53.92987 
L 353.822443 53.92987 
" style="fill:none;stroke:#ff0000;stroke-linecap:square;stroke-width:1.5;"/>
   </g>
   <g id="line2d_14">
    <path clip-path="url(#p247e39147c)" d="M 49.458807 124.527273 
L 50.988272 124.527273 
L 52.517738 123.664416 
L 54.047203 124.527273 
L 55.576669 123.507532 
L 57.106134 124.527273 
L 58.6356 123.89974 
L 60.165065 124.527273 
L 61.694531 123.978182 
L 63.223996 124.527273 
L 64.753462 123.89974 
L 66.282927 124.527273 
L 67.812393 123.821299 
L 69.341858 124.527273 
L 70.871324 124.213506 
L 72.400789 124.527273 
L 73.930255 124.213506 
L 75.45972 124.527273 
L 76.989186 124.213506 
L 78.518651 124.527273 
L 80.048117 124.291948 
L 81.577583 124.527273 
L 83.107048 124.37039 
L 84.636514 124.527273 
L 86.165979 124.448831 
L 87.695445 124.527273 
L 89.22491 124.291948 
L 90.754376 124.527273 
L 92.283841 124.448831 
L 93.813307 124.527273 
L 95.342772 124.448831 
L 96.872238 124.527273 
L 98.401703 124.448831 
L 99.931169 124.527273 
L 101.460634 124.448831 
L 104.519565 124.527273 
L 106.049031 124.527273 
L 107.578496 124.37039 
L 109.107962 124.527273 
L 314.05634 124.527273 
L 315.585805 124.37039 
L 317.115271 124.527273 
L 353.822443 124.527273 
L 353.822443 124.527273 
" style="fill:none;stroke:#008000;stroke-linecap:square;stroke-width:1.5;"/>
   </g>
   <g id="patch_3">
    <path d="M 34.240625 128.057143 
L 34.240625 50.4 
" style="fill:none;stroke:#000000;stroke-linecap:square;stroke-linejoin:miter;stroke-width:0.8;"/>
   </g>
   <g id="patch_4">
    <path d="M 34.240625 128.057143 
L 369.040625 128.057143 
" style="fill:none;stroke:#000000;stroke-linecap:square;stroke-linejoin:miter;stroke-width:0.8;"/>
   </g>
   <g id="text_14">
    <!-- Trial Start Replays -->
    <g transform="translate(147.4925 44.4)scale(0.12 -0.12)">
     <defs>
      <path d="M 3425 4513 
L 3425 3897 
Q 3066 4069 2747 4153 
Q 2428 4238 2131 4238 
Q 1616 4238 1336 4038 
Q 1056 3838 1056 3469 
Q 1056 3159 1242 3001 
Q 1428 2844 1947 2747 
L 2328 2669 
Q 3034 2534 3370 2195 
Q 3706 1856 3706 1288 
Q 3706 609 3251 259 
Q 2797 -91 1919 -91 
Q 1588 -91 1214 -16 
Q 841 59 441 206 
L 441 856 
Q 825 641 1194 531 
Q 1563 422 1919 422 
Q 2459 422 2753 634 
Q 3047 847 3047 1241 
Q 3047 1584 2836 1778 
Q 2625 1972 2144 2069 
L 1759 2144 
Q 1053 2284 737 2584 
Q 422 2884 422 3419 
Q 422 4038 858 4394 
Q 1294 4750 2059 4750 
Q 2388 4750 2728 4690 
Q 3069 4631 3425 4513 
z
" id="DejaVuSans-53" transform="scale(0.015625)"/>
      <path d="M 1172 4494 
L 1172 3500 
L 2356 3500 
L 2356 3053 
L 1172 3053 
L 1172 1153 
Q 1172 725 1289 603 
Q 1406 481 1766 481 
L 2356 481 
L 2356 0 
L 1766 0 
Q 1100 0 847 248 
Q 594 497 594 1153 
L 594 3053 
L 172 3053 
L 172 3500 
L 594 3500 
L 594 4494 
L 1172 4494 
z
" id="DejaVuSans-74" transform="scale(0.015625)"/>
      <path d="M 2841 2188 
Q 3044 2119 3236 1894 
Q 3428 1669 3622 1275 
L 4263 0 
L 3584 0 
L 2988 1197 
Q 2756 1666 2539 1819 
Q 2322 1972 1947 1972 
L 1259 1972 
L 1259 0 
L 628 0 
L 628 4666 
L 2053 4666 
Q 2853 4666 3247 4331 
Q 3641 3997 3641 3322 
Q 3641 2881 3436 2590 
Q 3231 2300 2841 2188 
z
M 1259 4147 
L 1259 2491 
L 2053 2491 
Q 2509 2491 2742 2702 
Q 2975 2913 2975 3322 
Q 2975 3731 2742 3939 
Q 2509 4147 2053 4147 
L 1259 4147 
z
" id="DejaVuSans-52" transform="scale(0.015625)"/>
      <path d="M 3597 1894 
L 3597 1613 
L 953 1613 
Q 991 1019 1311 708 
Q 1631 397 2203 397 
Q 2534 397 2845 478 
Q 3156 559 3463 722 
L 3463 178 
Q 3153 47 2828 -22 
Q 2503 -91 2169 -91 
Q 1331 -91 842 396 
Q 353 884 353 1716 
Q 353 2575 817 3079 
Q 1281 3584 2069 3584 
Q 2775 3584 3186 3129 
Q 3597 2675 3597 1894 
z
M 3022 2063 
Q 3016 2534 2758 2815 
Q 2500 3097 2075 3097 
Q 1594 3097 1305 2825 
Q 1016 2553 972 2059 
L 3022 2063 
z
" id="DejaVuSans-65" transform="scale(0.015625)"/>
      <path d="M 1159 525 
L 1159 -1331 
L 581 -1331 
L 581 3500 
L 1159 3500 
L 1159 2969 
Q 1341 3281 1617 3432 
Q 1894 3584 2278 3584 
Q 2916 3584 3314 3078 
Q 3713 2572 3713 1747 
Q 3713 922 3314 415 
Q 2916 -91 2278 -91 
Q 1894 -91 1617 61 
Q 1341 213 1159 525 
z
M 3116 1747 
Q 3116 2381 2855 2742 
Q 2594 3103 2138 3103 
Q 1681 3103 1420 2742 
Q 1159 2381 1159 1747 
Q 1159 1113 1420 752 
Q 1681 391 2138 391 
Q 2594 391 2855 752 
Q 3116 1113 3116 1747 
z
" id="DejaVuSans-70" transform="scale(0.015625)"/>
      <path d="M 2059 -325 
Q 1816 -950 1584 -1140 
Q 1353 -1331 966 -1331 
L 506 -1331 
L 506 -850 
L 844 -850 
Q 1081 -850 1212 -737 
Q 1344 -625 1503 -206 
L 1606 56 
L 191 3500 
L 800 3500 
L 1894 763 
L 2988 3500 
L 3597 3500 
L 2059 -325 
z
" id="DejaVuSans-79" transform="scale(0.015625)"/>
     </defs>
     <use xlink:href="#DejaVuSans-54"/>
     <use x="46.333984" xlink:href="#DejaVuSans-72"/>
     <use x="87.447266" xlink:href="#DejaVuSans-69"/>
     <use x="115.230469" xlink:href="#DejaVuSans-61"/>
     <use x="176.509766" xlink:href="#DejaVuSans-6c"/>
     <use x="204.292969" xlink:href="#DejaVuSans-20"/>
     <use x="236.080078" xlink:href="#DejaVuSans-53"/>
     <use x="299.556641" xlink:href="#DejaVuSans-74"/>
     <use x="338.765625" xlink:href="#DejaVuSans-61"/>
     <use x="400.044922" xlink:href="#DejaVuSans-72"/>
     <use x="441.158203" xlink:href="#DejaVuSans-74"/>
     <use x="480.367188" xlink:href="#DejaVuSans-20"/>
     <use x="512.154297" xlink:href="#DejaVuSans-52"/>
     <use x="577.136719" xlink:href="#DejaVuSans-65"/>
     <use x="638.660156" xlink:href="#DejaVuSans-70"/>
     <use x="702.136719" xlink:href="#DejaVuSans-6c"/>
     <use x="729.919922" xlink:href="#DejaVuSans-61"/>
     <use x="791.199219" xlink:href="#DejaVuSans-79"/>
     <use x="850.378906" xlink:href="#DejaVuSans-73"/>
    </g>
   </g>
  </g>
  <g id="axes_2">
   <g id="patch_5">
    <path d="M 34.240625 267.84 
L 369.040625 267.84 
L 369.040625 190.182857 
L 34.240625 190.182857 
z
" style="fill:none;"/>
   </g>
   <g id="matplotlib.axis_3">
    <g id="xtick_10">
     <g id="line2d_15">
      <g>
       <use style="stroke:#000000;stroke-width:0.8;" x="49.458807" xlink:href="#m0b1da7ae82" y="267.84"/>
      </g>
     </g>
     <g id="text_15">
      <!-- 0 -->
      <g transform="translate(46.277557 282.438437)scale(0.1 -0.1)">
       <use xlink:href="#DejaVuSans-30"/>
      </g>
     </g>
    </g>
    <g id="xtick_11">
     <g id="line2d_16">
      <g>
       <use style="stroke:#000000;stroke-width:0.8;" x="87.695445" xlink:href="#m0b1da7ae82" y="267.84"/>
      </g>
     </g>
     <g id="text_16">
      <!-- 25 -->
      <g transform="translate(81.332945 282.438437)scale(0.1 -0.1)">
       <use xlink:href="#DejaVuSans-32"/>
       <use x="63.623047" xlink:href="#DejaVuSans-35"/>
      </g>
     </g>
    </g>
    <g id="xtick_12">
     <g id="line2d_17">
      <g>
       <use style="stroke:#000000;stroke-width:0.8;" x="125.932082" xlink:href="#m0b1da7ae82" y="267.84"/>
      </g>
     </g>
     <g id="text_17">
      <!-- 50 -->
      <g transform="translate(119.569582 282.438437)scale(0.1 -0.1)">
       <use xlink:href="#DejaVuSans-35"/>
       <use x="63.623047" xlink:href="#DejaVuSans-30"/>
      </g>
     </g>
    </g>
    <g id="xtick_13">
     <g id="line2d_18">
      <g>
       <use style="stroke:#000000;stroke-width:0.8;" x="164.16872" xlink:href="#m0b1da7ae82" y="267.84"/>
      </g>
     </g>
     <g id="text_18">
      <!-- 75 -->
      <g transform="translate(157.80622 282.438437)scale(0.1 -0.1)">
       <use xlink:href="#DejaVuSans-37"/>
       <use x="63.623047" xlink:href="#DejaVuSans-35"/>
      </g>
     </g>
    </g>
    <g id="xtick_14">
     <g id="line2d_19">
      <g>
       <use style="stroke:#000000;stroke-width:0.8;" x="202.405358" xlink:href="#m0b1da7ae82" y="267.84"/>
      </g>
     </g>
     <g id="text_19">
      <!-- 100 -->
      <g transform="translate(192.861608 282.438437)scale(0.1 -0.1)">
       <use xlink:href="#DejaVuSans-31"/>
       <use x="63.623047" xlink:href="#DejaVuSans-30"/>
       <use x="127.246094" xlink:href="#DejaVuSans-30"/>
      </g>
     </g>
    </g>
    <g id="xtick_15">
     <g id="line2d_20">
      <g>
       <use style="stroke:#000000;stroke-width:0.8;" x="240.641995" xlink:href="#m0b1da7ae82" y="267.84"/>
      </g>
     </g>
     <g id="text_20">
      <!-- 125 -->
      <g transform="translate(231.098245 282.438437)scale(0.1 -0.1)">
       <use xlink:href="#DejaVuSans-31"/>
       <use x="63.623047" xlink:href="#DejaVuSans-32"/>
       <use x="127.246094" xlink:href="#DejaVuSans-35"/>
      </g>
     </g>
    </g>
    <g id="xtick_16">
     <g id="line2d_21">
      <g>
       <use style="stroke:#000000;stroke-width:0.8;" x="278.878633" xlink:href="#m0b1da7ae82" y="267.84"/>
      </g>
     </g>
     <g id="text_21">
      <!-- 150 -->
      <g transform="translate(269.334883 282.438437)scale(0.1 -0.1)">
       <use xlink:href="#DejaVuSans-31"/>
       <use x="63.623047" xlink:href="#DejaVuSans-35"/>
       <use x="127.246094" xlink:href="#DejaVuSans-30"/>
      </g>
     </g>
    </g>
    <g id="xtick_17">
     <g id="line2d_22">
      <g>
       <use style="stroke:#000000;stroke-width:0.8;" x="317.115271" xlink:href="#m0b1da7ae82" y="267.84"/>
      </g>
     </g>
     <g id="text_22">
      <!-- 175 -->
      <g transform="translate(307.571521 282.438437)scale(0.1 -0.1)">
       <use xlink:href="#DejaVuSans-31"/>
       <use x="63.623047" xlink:href="#DejaVuSans-37"/>
       <use x="127.246094" xlink:href="#DejaVuSans-35"/>
      </g>
     </g>
    </g>
    <g id="xtick_18">
     <g id="line2d_23">
      <g>
       <use style="stroke:#000000;stroke-width:0.8;" x="355.351909" xlink:href="#m0b1da7ae82" y="267.84"/>
      </g>
     </g>
     <g id="text_23">
      <!-- 200 -->
      <g transform="translate(345.808159 282.438437)scale(0.1 -0.1)">
       <use xlink:href="#DejaVuSans-32"/>
       <use x="63.623047" xlink:href="#DejaVuSans-30"/>
       <use x="127.246094" xlink:href="#DejaVuSans-30"/>
      </g>
     </g>
    </g>
    <g id="text_24">
     <!-- Trial -->
     <g transform="translate(191.426563 296.116562)scale(0.1 -0.1)">
      <use xlink:href="#DejaVuSans-54"/>
      <use x="46.333984" xlink:href="#DejaVuSans-72"/>
      <use x="87.447266" xlink:href="#DejaVuSans-69"/>
      <use x="115.230469" xlink:href="#DejaVuSans-61"/>
      <use x="176.509766" xlink:href="#DejaVuSans-6c"/>
     </g>
    </g>
   </g>
   <g id="matplotlib.axis_4">
    <g id="ytick_3">
     <g id="line2d_24">
      <g>
       <use style="stroke:#000000;stroke-width:0.8;" x="34.240625" xlink:href="#mafd3321565" y="264.31013"/>
      </g>
     </g>
     <g id="text_25">
      <!-- 0 -->
      <g transform="translate(20.878125 268.109349)scale(0.1 -0.1)">
       <use xlink:href="#DejaVuSans-30"/>
      </g>
     </g>
    </g>
    <g id="ytick_4">
     <g id="line2d_25">
      <g>
       <use style="stroke:#000000;stroke-width:0.8;" x="34.240625" xlink:href="#mafd3321565" y="225.089351"/>
      </g>
     </g>
     <g id="text_26">
      <!-- 5 -->
      <g transform="translate(20.878125 228.888569)scale(0.1 -0.1)">
       <use xlink:href="#DejaVuSans-35"/>
      </g>
     </g>
    </g>
    <g id="text_27">
     <!-- Pairs [#] -->
     <g transform="translate(14.798437 250.595022)rotate(-90)scale(0.1 -0.1)">
      <use xlink:href="#DejaVuSans-50"/>
      <use x="55.802734" xlink:href="#DejaVuSans-61"/>
      <use x="117.082031" xlink:href="#DejaVuSans-69"/>
      <use x="144.865234" xlink:href="#DejaVuSans-72"/>
      <use x="185.978516" xlink:href="#DejaVuSans-73"/>
      <use x="238.078125" xlink:href="#DejaVuSans-20"/>
      <use x="269.865234" xlink:href="#DejaVuSans-5b"/>
      <use x="308.878906" xlink:href="#DejaVuSans-23"/>
      <use x="392.667969" xlink:href="#DejaVuSans-5d"/>
     </g>
    </g>
   </g>
   <g id="line2d_26">
    <path clip-path="url(#p1db9b42305)" d="M 49.458807 261.956883 
L 50.988272 255.916883 
L 52.517738 263.917922 
L 54.047203 256.387532 
L 55.576669 264.074805 
L 57.106134 256.544416 
L 58.6356 264.231688 
L 60.165065 256.544416 
L 61.694531 264.31013 
L 63.223996 256.622857 
L 64.753462 264.31013 
L 66.282927 256.622857 
L 67.812393 264.31013 
L 69.341858 256.544416 
L 70.871324 264.31013 
L 72.400789 256.544416 
L 73.930255 264.31013 
L 75.45972 256.544416 
L 76.989186 264.31013 
L 78.518651 256.465974 
L 80.048117 264.31013 
L 81.577583 256.465974 
L 83.107048 264.31013 
L 84.636514 256.465974 
L 86.165979 264.31013 
L 87.695445 256.465974 
L 89.22491 264.31013 
L 90.754376 256.465974 
L 92.283841 264.31013 
L 93.813307 256.465974 
L 95.342772 264.153247 
L 96.872238 256.465974 
L 98.401703 264.31013 
L 99.931169 256.465974 
L 101.460634 264.31013 
L 102.9901 256.465974 
L 104.519565 264.31013 
L 106.049031 256.465974 
L 107.578496 264.31013 
L 109.107962 256.465974 
L 110.637427 264.31013 
L 112.166893 256.465974 
L 113.696358 264.31013 
L 115.225824 256.309091 
L 116.755289 264.31013 
L 118.284755 256.465974 
L 119.81422 264.31013 
L 121.343686 256.465974 
L 122.873151 264.31013 
L 124.402617 256.465974 
L 125.932082 264.31013 
L 127.461548 256.465974 
L 128.991013 264.31013 
L 130.520479 256.465974 
L 132.049944 264.31013 
L 133.57941 256.465974 
L 135.108875 264.31013 
L 136.638341 256.465974 
L 138.167806 264.31013 
L 139.697272 256.465974 
L 141.226737 264.31013 
L 142.756203 256.465974 
L 144.285668 264.31013 
L 145.815134 256.465974 
L 147.344599 264.31013 
L 148.874065 256.465974 
L 150.40353 264.31013 
L 151.932996 256.465974 
L 153.462461 264.31013 
L 154.991927 256.465974 
L 156.521392 264.31013 
L 158.050858 256.465974 
L 159.580323 264.31013 
L 161.109789 256.465974 
L 162.639255 264.31013 
L 164.16872 256.465974 
L 165.698186 264.31013 
L 167.227651 256.465974 
L 168.757117 264.31013 
L 170.286582 256.465974 
L 171.816048 264.31013 
L 173.345513 256.465974 
L 174.874979 264.31013 
L 176.404444 256.465974 
L 177.93391 264.31013 
L 179.463375 256.465974 
L 180.992841 264.31013 
L 182.522306 256.465974 
L 184.051772 264.153247 
L 185.581237 256.465974 
L 187.110703 264.31013 
L 188.640168 256.465974 
L 190.169634 264.31013 
L 191.699099 256.387532 
L 193.228565 264.31013 
L 194.75803 256.465974 
L 196.287496 264.31013 
L 197.816961 256.465974 
L 199.346427 264.31013 
L 200.875892 256.465974 
L 202.405358 264.31013 
L 203.934823 256.465974 
L 205.464289 264.31013 
L 206.993754 256.465974 
L 208.52322 264.31013 
L 210.052685 256.465974 
L 211.582151 264.31013 
L 213.111616 256.465974 
L 214.641082 264.31013 
L 216.170547 256.465974 
L 217.700013 264.31013 
L 219.229478 256.465974 
L 220.758944 264.31013 
L 222.288409 256.465974 
L 223.817875 264.31013 
L 225.34734 256.465974 
L 226.876806 264.31013 
L 228.406271 256.465974 
L 229.935737 264.31013 
L 231.465202 256.465974 
L 232.994668 264.31013 
L 234.524133 256.465974 
L 236.053599 264.31013 
L 237.583064 256.465974 
L 239.11253 264.31013 
L 240.641995 256.465974 
L 242.171461 264.31013 
L 243.700927 256.465974 
L 245.230392 264.31013 
L 246.759858 256.465974 
L 248.289323 264.31013 
L 249.818789 256.465974 
L 251.348254 264.31013 
L 252.87772 256.465974 
L 254.407185 264.31013 
L 255.936651 256.465974 
L 257.466116 264.31013 
L 258.995582 256.465974 
L 260.525047 264.31013 
L 262.054513 256.465974 
L 263.583978 264.31013 
L 265.113444 256.387532 
L 266.642909 264.31013 
L 268.172375 256.465974 
L 269.70184 264.31013 
L 271.231306 256.465974 
L 272.760771 264.31013 
L 274.290237 256.465974 
L 275.819702 264.31013 
L 277.349168 256.465974 
L 278.878633 264.31013 
L 280.408099 256.465974 
L 281.937564 264.31013 
L 283.46703 256.465974 
L 284.996495 264.31013 
L 286.525961 256.387532 
L 288.055426 264.31013 
L 289.584892 256.465974 
L 291.114357 264.31013 
L 292.643823 256.465974 
L 294.173288 264.31013 
L 295.702754 256.465974 
L 297.232219 264.31013 
L 298.761685 256.465974 
L 300.29115 264.31013 
L 301.820616 256.465974 
L 303.350081 264.31013 
L 304.879547 256.465974 
L 306.409012 264.31013 
L 307.938478 256.465974 
L 309.467943 264.31013 
L 310.997409 256.465974 
L 312.526874 264.31013 
L 314.05634 256.465974 
L 315.585805 264.31013 
L 317.115271 256.465974 
L 318.644736 264.31013 
L 320.174202 256.465974 
L 321.703667 264.31013 
L 323.233133 256.465974 
L 324.762599 264.31013 
L 326.292064 256.465974 
L 327.82153 264.31013 
L 329.350995 256.465974 
L 330.880461 264.31013 
L 332.409926 256.465974 
L 333.939392 264.31013 
L 335.468857 256.465974 
L 336.998323 264.31013 
L 338.527788 256.465974 
L 340.057254 264.31013 
L 341.586719 256.465974 
L 343.116185 264.31013 
L 344.64565 256.465974 
L 346.175116 264.31013 
L 347.704581 256.465974 
L 349.234047 264.31013 
L 350.763512 256.465974 
L 352.292978 264.31013 
L 353.822443 256.465974 
L 353.822443 256.465974 
" style="fill:none;stroke:#0000ff;stroke-linecap:square;stroke-width:1.5;"/>
   </g>
   <g id="line2d_27">
    <path clip-path="url(#p1db9b42305)" d="M 49.458807 196.065974 
L 50.988272 202.41974 
L 52.517738 194.183377 
L 54.047203 202.027532 
L 55.576669 193.948052 
L 57.106134 201.713766 
L 58.6356 193.791169 
L 60.165065 201.635325 
L 61.694531 193.712727 
L 63.223996 201.635325 
L 64.753462 193.712727 
L 66.282927 201.556883 
L 67.812393 193.712727 
L 69.341858 201.556883 
L 70.871324 193.712727 
L 72.400789 201.556883 
L 73.930255 193.712727 
L 75.45972 201.556883 
L 76.989186 193.712727 
L 78.518651 201.556883 
L 80.048117 193.712727 
L 81.577583 201.556883 
L 83.107048 193.712727 
L 84.636514 201.556883 
L 86.165979 193.712727 
L 87.695445 201.556883 
L 89.22491 193.712727 
L 90.754376 201.556883 
L 92.283841 193.712727 
L 93.813307 201.556883 
L 95.342772 193.86961 
L 96.872238 201.556883 
L 98.401703 193.712727 
L 99.931169 201.556883 
L 101.460634 193.712727 
L 102.9901 201.556883 
L 104.519565 193.712727 
L 106.049031 201.556883 
L 107.578496 193.712727 
L 109.107962 201.556883 
L 110.637427 193.712727 
L 112.166893 201.556883 
L 113.696358 193.712727 
L 115.225824 201.713766 
L 116.755289 193.712727 
L 118.284755 201.556883 
L 119.81422 193.712727 
L 121.343686 201.556883 
L 122.873151 193.712727 
L 124.402617 201.556883 
L 125.932082 193.712727 
L 127.461548 201.556883 
L 128.991013 193.712727 
L 130.520479 201.556883 
L 132.049944 193.712727 
L 133.57941 201.556883 
L 135.108875 193.712727 
L 136.638341 201.556883 
L 138.167806 193.712727 
L 139.697272 201.556883 
L 141.226737 193.712727 
L 142.756203 201.556883 
L 144.285668 193.712727 
L 145.815134 201.556883 
L 147.344599 193.712727 
L 148.874065 201.556883 
L 150.40353 193.712727 
L 151.932996 201.556883 
L 153.462461 193.712727 
L 154.991927 201.556883 
L 156.521392 193.712727 
L 158.050858 201.556883 
L 159.580323 193.712727 
L 161.109789 201.556883 
L 162.639255 193.712727 
L 164.16872 201.556883 
L 165.698186 193.712727 
L 167.227651 201.556883 
L 168.757117 193.712727 
L 170.286582 201.556883 
L 171.816048 193.712727 
L 173.345513 201.556883 
L 174.874979 193.712727 
L 176.404444 201.556883 
L 177.93391 193.712727 
L 179.463375 201.556883 
L 180.992841 193.712727 
L 182.522306 201.556883 
L 184.051772 193.86961 
L 185.581237 201.556883 
L 187.110703 193.712727 
L 188.640168 201.556883 
L 190.169634 193.791169 
L 191.699099 201.635325 
L 193.228565 193.712727 
L 194.75803 201.556883 
L 196.287496 193.712727 
L 197.816961 201.556883 
L 199.346427 193.712727 
L 200.875892 201.556883 
L 202.405358 193.712727 
L 203.934823 201.556883 
L 205.464289 193.712727 
L 206.993754 201.556883 
L 208.52322 193.712727 
L 210.052685 201.556883 
L 211.582151 193.712727 
L 213.111616 201.556883 
L 214.641082 193.712727 
L 216.170547 201.556883 
L 217.700013 193.712727 
L 219.229478 201.556883 
L 220.758944 193.712727 
L 222.288409 201.556883 
L 223.817875 193.712727 
L 225.34734 201.556883 
L 226.876806 193.712727 
L 228.406271 201.556883 
L 229.935737 193.712727 
L 231.465202 201.556883 
L 232.994668 193.712727 
L 234.524133 201.556883 
L 236.053599 193.712727 
L 237.583064 201.556883 
L 239.11253 193.791169 
L 240.641995 201.556883 
L 242.171461 193.712727 
L 243.700927 201.556883 
L 245.230392 193.712727 
L 246.759858 201.556883 
L 248.289323 193.712727 
L 249.818789 201.556883 
L 251.348254 193.712727 
L 252.87772 201.556883 
L 254.407185 193.712727 
L 255.936651 201.556883 
L 257.466116 193.712727 
L 258.995582 201.556883 
L 260.525047 193.712727 
L 262.054513 201.556883 
L 263.583978 193.712727 
L 265.113444 201.635325 
L 266.642909 193.712727 
L 268.172375 201.556883 
L 269.70184 193.712727 
L 271.231306 201.556883 
L 272.760771 193.712727 
L 274.290237 201.556883 
L 275.819702 193.712727 
L 277.349168 201.556883 
L 278.878633 193.712727 
L 280.408099 201.556883 
L 281.937564 193.712727 
L 283.46703 201.556883 
L 284.996495 193.712727 
L 286.525961 201.713766 
L 288.055426 193.791169 
L 289.584892 201.556883 
L 291.114357 193.712727 
L 292.643823 201.556883 
L 294.173288 193.712727 
L 295.702754 201.556883 
L 297.232219 193.712727 
L 298.761685 201.556883 
L 300.29115 193.712727 
L 301.820616 201.556883 
L 303.350081 193.712727 
L 304.879547 201.556883 
L 306.409012 193.712727 
L 307.938478 201.556883 
L 309.467943 193.712727 
L 310.997409 201.556883 
L 312.526874 193.712727 
L 314.05634 201.556883 
L 315.585805 193.712727 
L 317.115271 201.556883 
L 318.644736 193.712727 
L 320.174202 201.556883 
L 321.703667 193.712727 
L 323.233133 201.556883 
L 324.762599 193.712727 
L 326.292064 201.556883 
L 327.82153 193.712727 
L 329.350995 201.556883 
L 330.880461 193.712727 
L 332.409926 201.556883 
L 333.939392 193.712727 
L 335.468857 201.556883 
L 336.998323 193.712727 
L 338.527788 201.556883 
L 340.057254 193.712727 
L 341.586719 201.556883 
L 343.116185 193.712727 
L 344.64565 201.556883 
L 346.175116 193.712727 
L 347.704581 201.556883 
L 349.234047 193.712727 
L 350.763512 201.556883 
L 352.292978 193.712727 
L 353.822443 201.556883 
L 353.822443 201.556883 
" style="fill:none;stroke:#ff0000;stroke-linecap:square;stroke-width:1.5;"/>
   </g>
   <g id="line2d_28">
    <path clip-path="url(#p1db9b42305)" d="M 49.458807 264.31013 
L 50.988272 263.996364 
L 52.517738 264.231688 
L 54.047203 263.917922 
L 55.576669 264.31013 
L 57.106134 264.074805 
L 58.6356 264.31013 
L 60.165065 264.153247 
L 61.694531 264.31013 
L 63.223996 264.074805 
L 64.753462 264.31013 
L 66.282927 264.153247 
L 67.812393 264.31013 
L 69.341858 264.231688 
L 70.871324 264.31013 
L 72.400789 264.231688 
L 73.930255 264.31013 
L 75.45972 264.231688 
L 78.518651 264.31013 
L 353.822443 264.31013 
L 353.822443 264.31013 
" style="fill:none;stroke:#008000;stroke-linecap:square;stroke-width:1.5;"/>
   </g>
   <g id="patch_6">
    <path d="M 34.240625 267.84 
L 34.240625 190.182857 
" style="fill:none;stroke:#000000;stroke-linecap:square;stroke-linejoin:miter;stroke-width:0.8;"/>
   </g>
   <g id="patch_7">
    <path d="M 34.240625 267.84 
L 369.040625 267.84 
" style="fill:none;stroke:#000000;stroke-linecap:square;stroke-linejoin:miter;stroke-width:0.8;"/>
   </g>
   <g id="text_28">
    <!-- Trial End Replays -->
    <g transform="translate(150.746563 184.182857)scale(0.12 -0.12)">
     <defs>
      <path d="M 628 4666 
L 3578 4666 
L 3578 4134 
L 1259 4134 
L 1259 2753 
L 3481 2753 
L 3481 2222 
L 1259 2222 
L 1259 531 
L 3634 531 
L 3634 0 
L 628 0 
L 628 4666 
z
" id="DejaVuSans-45" transform="scale(0.015625)"/>
      <path d="M 3513 2113 
L 3513 0 
L 2938 0 
L 2938 2094 
Q 2938 2591 2744 2837 
Q 2550 3084 2163 3084 
Q 1697 3084 1428 2787 
Q 1159 2491 1159 1978 
L 1159 0 
L 581 0 
L 581 3500 
L 1159 3500 
L 1159 2956 
Q 1366 3272 1645 3428 
Q 1925 3584 2291 3584 
Q 2894 3584 3203 3211 
Q 3513 2838 3513 2113 
z
" id="DejaVuSans-6e" transform="scale(0.015625)"/>
      <path d="M 2906 2969 
L 2906 4863 
L 3481 4863 
L 3481 0 
L 2906 0 
L 2906 525 
Q 2725 213 2448 61 
Q 2172 -91 1784 -91 
Q 1150 -91 751 415 
Q 353 922 353 1747 
Q 353 2572 751 3078 
Q 1150 3584 1784 3584 
Q 2172 3584 2448 3432 
Q 2725 3281 2906 2969 
z
M 947 1747 
Q 947 1113 1208 752 
Q 1469 391 1925 391 
Q 2381 391 2643 752 
Q 2906 1113 2906 1747 
Q 2906 2381 2643 2742 
Q 2381 3103 1925 3103 
Q 1469 3103 1208 2742 
Q 947 2381 947 1747 
z
" id="DejaVuSans-64" transform="scale(0.015625)"/>
     </defs>
     <use xlink:href="#DejaVuSans-54"/>
     <use x="46.333984" xlink:href="#DejaVuSans-72"/>
     <use x="87.447266" xlink:href="#DejaVuSans-69"/>
     <use x="115.230469" xlink:href="#DejaVuSans-61"/>
     <use x="176.509766" xlink:href="#DejaVuSans-6c"/>
     <use x="204.292969" xlink:href="#DejaVuSans-20"/>
     <use x="236.080078" xlink:href="#DejaVuSans-45"/>
     <use x="299.263672" xlink:href="#DejaVuSans-6e"/>
     <use x="362.642578" xlink:href="#DejaVuSans-64"/>
     <use x="426.119141" xlink:href="#DejaVuSans-20"/>
     <use x="457.90625" xlink:href="#DejaVuSans-52"/>
     <use x="522.888672" xlink:href="#DejaVuSans-65"/>
     <use x="584.412109" xlink:href="#DejaVuSans-70"/>
     <use x="647.888672" xlink:href="#DejaVuSans-6c"/>
     <use x="675.671875" xlink:href="#DejaVuSans-61"/>
     <use x="736.951172" xlink:href="#DejaVuSans-79"/>
     <use x="796.130859" xlink:href="#DejaVuSans-73"/>
    </g>
   </g>
   <g id="legend_1">
    <g id="patch_8">
     <path d="M 48.314375 333.882321 
L 354.966875 333.882321 
Q 357.366875 333.882321 357.366875 331.482321 
L 357.366875 315.068571 
Q 357.366875 312.668571 354.966875 312.668571 
L 48.314375 312.668571 
Q 45.914375 312.668571 45.914375 315.068571 
L 45.914375 331.482321 
Q 45.914375 333.882321 48.314375 333.882321 
z
" style="fill:none;opacity:0;"/>
    </g>
    <g id="line2d_29">
     <path d="M 50.714375 322.386696 
L 74.714375 322.386696 
" style="fill:none;stroke:#0000ff;stroke-linecap:square;stroke-width:1.5;"/>
    </g>
    <g id="line2d_30"/>
    <g id="text_29">
     <!-- forward -->
     <g transform="translate(84.314375 326.586696)scale(0.12 -0.12)">
      <defs>
       <path d="M 2375 4863 
L 2375 4384 
L 1825 4384 
Q 1516 4384 1395 4259 
Q 1275 4134 1275 3809 
L 1275 3500 
L 2222 3500 
L 2222 3053 
L 1275 3053 
L 1275 0 
L 697 0 
L 697 3053 
L 147 3053 
L 147 3500 
L 697 3500 
L 697 3744 
Q 697 4328 969 4595 
Q 1241 4863 1831 4863 
L 2375 4863 
z
" id="DejaVuSans-66" transform="scale(0.015625)"/>
       <path d="M 1959 3097 
Q 1497 3097 1228 2736 
Q 959 2375 959 1747 
Q 959 1119 1226 758 
Q 1494 397 1959 397 
Q 2419 397 2687 759 
Q 2956 1122 2956 1747 
Q 2956 2369 2687 2733 
Q 2419 3097 1959 3097 
z
M 1959 3584 
Q 2709 3584 3137 3096 
Q 3566 2609 3566 1747 
Q 3566 888 3137 398 
Q 2709 -91 1959 -91 
Q 1206 -91 779 398 
Q 353 888 353 1747 
Q 353 2609 779 3096 
Q 1206 3584 1959 3584 
z
" id="DejaVuSans-6f" transform="scale(0.015625)"/>
       <path d="M 269 3500 
L 844 3500 
L 1563 769 
L 2278 3500 
L 2956 3500 
L 3675 769 
L 4391 3500 
L 4966 3500 
L 4050 0 
L 3372 0 
L 2619 2869 
L 1863 0 
L 1184 0 
L 269 3500 
z
" id="DejaVuSans-77" transform="scale(0.015625)"/>
      </defs>
      <use xlink:href="#DejaVuSans-66"/>
      <use x="35.205078" xlink:href="#DejaVuSans-6f"/>
      <use x="96.386719" xlink:href="#DejaVuSans-72"/>
      <use x="137.5" xlink:href="#DejaVuSans-77"/>
      <use x="219.287109" xlink:href="#DejaVuSans-61"/>
      <use x="280.566406" xlink:href="#DejaVuSans-72"/>
      <use x="319.929688" xlink:href="#DejaVuSans-64"/>
     </g>
    </g>
    <g id="line2d_31">
     <path d="M 154.323125 322.386696 
L 178.323125 322.386696 
" style="fill:none;stroke:#ff0000;stroke-linecap:square;stroke-width:1.5;"/>
    </g>
    <g id="line2d_32"/>
    <g id="text_30">
     <!-- reverse -->
     <g transform="translate(187.923125 326.586696)scale(0.12 -0.12)">
      <defs>
       <path d="M 191 3500 
L 800 3500 
L 1894 563 
L 2988 3500 
L 3597 3500 
L 2284 0 
L 1503 0 
L 191 3500 
z
" id="DejaVuSans-76" transform="scale(0.015625)"/>
      </defs>
      <use xlink:href="#DejaVuSans-72"/>
      <use x="38.863281" xlink:href="#DejaVuSans-65"/>
      <use x="100.386719" xlink:href="#DejaVuSans-76"/>
      <use x="159.566406" xlink:href="#DejaVuSans-65"/>
      <use x="221.089844" xlink:href="#DejaVuSans-72"/>
      <use x="262.203125" xlink:href="#DejaVuSans-73"/>
      <use x="314.302734" xlink:href="#DejaVuSans-65"/>
     </g>
    </g>
    <g id="line2d_33">
     <path d="M 257.024375 322.386696 
L 281.024375 322.386696 
" style="fill:none;stroke:#008000;stroke-linecap:square;stroke-width:1.5;"/>
    </g>
    <g id="line2d_34"/>
    <g id="text_31">
     <!-- unordered -->
     <g transform="translate(290.624375 326.586696)scale(0.12 -0.12)">
      <defs>
       <path d="M 544 1381 
L 544 3500 
L 1119 3500 
L 1119 1403 
Q 1119 906 1312 657 
Q 1506 409 1894 409 
Q 2359 409 2629 706 
Q 2900 1003 2900 1516 
L 2900 3500 
L 3475 3500 
L 3475 0 
L 2900 0 
L 2900 538 
Q 2691 219 2414 64 
Q 2138 -91 1772 -91 
Q 1169 -91 856 284 
Q 544 659 544 1381 
z
M 1991 3584 
L 1991 3584 
z
" id="DejaVuSans-75" transform="scale(0.015625)"/>
      </defs>
      <use xlink:href="#DejaVuSans-75"/>
      <use x="63.378906" xlink:href="#DejaVuSans-6e"/>
      <use x="126.757812" xlink:href="#DejaVuSans-6f"/>
      <use x="187.939453" xlink:href="#DejaVuSans-72"/>
      <use x="227.302734" xlink:href="#DejaVuSans-64"/>
      <use x="290.779297" xlink:href="#DejaVuSans-65"/>
      <use x="352.302734" xlink:href="#DejaVuSans-72"/>
      <use x="391.166016" xlink:href="#DejaVuSans-65"/>
      <use x="452.689453" xlink:href="#DejaVuSans-64"/>
     </g>
    </g>
   </g>
  </g>
  <g id="text_32">
   <!-- Double Track, Reverse Mode -->
   <g transform="translate(89.924609 18.597656)scale(0.15 -0.15)">
    <defs>
     <path d="M 1259 4147 
L 1259 519 
L 2022 519 
Q 2988 519 3436 956 
Q 3884 1394 3884 2338 
Q 3884 3275 3436 3711 
Q 2988 4147 2022 4147 
L 1259 4147 
z
M 628 4666 
L 1925 4666 
Q 3281 4666 3915 4102 
Q 4550 3538 4550 2338 
Q 4550 1131 3912 565 
Q 3275 0 1925 0 
L 628 0 
L 628 4666 
z
" id="DejaVuSans-44" transform="scale(0.015625)"/>
     <path d="M 3116 1747 
Q 3116 2381 2855 2742 
Q 2594 3103 2138 3103 
Q 1681 3103 1420 2742 
Q 1159 2381 1159 1747 
Q 1159 1113 1420 752 
Q 1681 391 2138 391 
Q 2594 391 2855 752 
Q 3116 1113 3116 1747 
z
M 1159 2969 
Q 1341 3281 1617 3432 
Q 1894 3584 2278 3584 
Q 2916 3584 3314 3078 
Q 3713 2572 3713 1747 
Q 3713 922 3314 415 
Q 2916 -91 2278 -91 
Q 1894 -91 1617 61 
Q 1341 213 1159 525 
L 1159 0 
L 581 0 
L 581 4863 
L 1159 4863 
L 1159 2969 
z
" id="DejaVuSans-62" transform="scale(0.015625)"/>
     <path d="M 3122 3366 
L 3122 2828 
Q 2878 2963 2633 3030 
Q 2388 3097 2138 3097 
Q 1578 3097 1268 2742 
Q 959 2388 959 1747 
Q 959 1106 1268 751 
Q 1578 397 2138 397 
Q 2388 397 2633 464 
Q 2878 531 3122 666 
L 3122 134 
Q 2881 22 2623 -34 
Q 2366 -91 2075 -91 
Q 1284 -91 818 406 
Q 353 903 353 1747 
Q 353 2603 823 3093 
Q 1294 3584 2113 3584 
Q 2378 3584 2631 3529 
Q 2884 3475 3122 3366 
z
" id="DejaVuSans-63" transform="scale(0.015625)"/>
     <path d="M 581 4863 
L 1159 4863 
L 1159 1991 
L 2875 3500 
L 3609 3500 
L 1753 1863 
L 3688 0 
L 2938 0 
L 1159 1709 
L 1159 0 
L 581 0 
L 581 4863 
z
" id="DejaVuSans-6b" transform="scale(0.015625)"/>
     <path d="M 750 794 
L 1409 794 
L 1409 256 
L 897 -744 
L 494 -744 
L 750 256 
L 750 794 
z
" id="DejaVuSans-2c" transform="scale(0.015625)"/>
     <path d="M 628 4666 
L 1569 4666 
L 2759 1491 
L 3956 4666 
L 4897 4666 
L 4897 0 
L 4281 0 
L 4281 4097 
L 3078 897 
L 2444 897 
L 1241 4097 
L 1241 0 
L 628 0 
L 628 4666 
z
" id="DejaVuSans-4d" transform="scale(0.015625)"/>
    </defs>
    <use xlink:href="#DejaVuSans-44"/>
    <use x="77.001953" xlink:href="#DejaVuSans-6f"/>
    <use x="138.183594" xlink:href="#DejaVuSans-75"/>
    <use x="201.5625" xlink:href="#DejaVuSans-62"/>
    <use x="265.039062" xlink:href="#DejaVuSans-6c"/>
    <use x="292.822266" xlink:href="#DejaVuSans-65"/>
    <use x="354.345703" xlink:href="#DejaVuSans-20"/>
    <use x="386.132812" xlink:href="#DejaVuSans-54"/>
    <use x="432.466797" xlink:href="#DejaVuSans-72"/>
    <use x="473.580078" xlink:href="#DejaVuSans-61"/>
    <use x="534.859375" xlink:href="#DejaVuSans-63"/>
    <use x="589.839844" xlink:href="#DejaVuSans-6b"/>
    <use x="647.75" xlink:href="#DejaVuSans-2c"/>
    <use x="679.537109" xlink:href="#DejaVuSans-20"/>
    <use x="711.324219" xlink:href="#DejaVuSans-52"/>
    <use x="776.306641" xlink:href="#DejaVuSans-65"/>
    <use x="837.830078" xlink:href="#DejaVuSans-76"/>
    <use x="897.009766" xlink:href="#DejaVuSans-65"/>
    <use x="958.533203" xlink:href="#DejaVuSans-72"/>
    <use x="999.646484" xlink:href="#DejaVuSans-73"/>
    <use x="1051.746094" xlink:href="#DejaVuSans-65"/>
    <use x="1113.269531" xlink:href="#DejaVuSans-20"/>
    <use x="1145.056641" xlink:href="#DejaVuSans-4d"/>
    <use x="1231.335938" xlink:href="#DejaVuSans-6f"/>
    <use x="1292.517578" xlink:href="#DejaVuSans-64"/>
    <use x="1355.994141" xlink:href="#DejaVuSans-65"/>
   </g>
  </g>
 </g>
 <defs>
  <clipPath id="p247e39147c">
   <rect height="77.657143" width="334.8" x="34.240625" y="50.4"/>
  </clipPath>
  <clipPath id="p1db9b42305">
   <rect height="77.657143" width="334.8" x="34.240625" y="190.182857"/>
  </clipPath>
 </defs>
</svg>
