<?xml version="1.0" encoding="utf-8" standalone="no"?>
<!DOCTYPE svg PUBLIC "-//W3C//DTD SVG 1.1//EN"
  "http://www.w3.org/Graphics/SVG/1.1/DTD/svg11.dtd">
<svg height="341.082321pt" version="1.1" viewBox="0 0 382.603125 341.082321" width="382.603125pt" xmlns="http://www.w3.org/2000/svg" xmlns:xlink="http://www.w3.org/1999/xlink">
 <metadata>
  <rdf:RDF xmlns:cc="http://creativecommons.org/ns#" xmlns:dc="http://purl.org/dc/elements/1.1/" xmlns:rdf="http://www.w3.org/1999/02/22-rdf-syntax-ns#">
   <cc:Work>
    <dc:type rdf:resource="http://purl.org/dc/dcmitype/StillImage"/>
    <dc:date>2023-02-09T00:59:55.439147</dc:date>
    <dc:format>image/svg+xml</dc:format>
    <dc:creator>
     <cc:Agent>
      <dc:title>Matplotlib v3.4.3, https://matplotlib.org/</dc:title>
     </cc:Agent>
    </dc:creator>
   </cc:Work>
  </rdf:RDF>
 </metadata>
 <defs>
  <style type="text/css">*{stroke-linecap:butt;stroke-linejoin:round;}</style>
 </defs>
 <g id="figure_1">
  <g id="patch_1">
   <path d="M 0 341.082321 
L 382.603125 341.082321 
L 382.603125 0 
L 0 0 
z
" style="fill:none;"/>
  </g>
  <g id="axes_1">
   <g id="patch_2">
    <path d="M 40.603125 128.057143 
L 375.403125 128.057143 
L 375.403125 50.4 
L 40.603125 50.4 
z
" style="fill:none;"/>
   </g>
   <g id="matplotlib.axis_1">
    <g id="xtick_1">
     <g id="line2d_1">
      <defs>
       <path d="M 0 0 
L 0 3.5 
" id="m0baefe4174" style="stroke:#000000;stroke-width:0.8;"/>
      </defs>
      <g>
       <use style="stroke:#000000;stroke-width:0.8;" x="55.821307" xlink:href="#m0baefe4174" y="128.057143"/>
      </g>
     </g>
     <g id="text_1">
      <!-- 0 -->
      <g transform="translate(52.640057 142.65558)scale(0.1 -0.1)">
       <defs>
        <path d="M 2034 4250 
Q 1547 4250 1301 3770 
Q 1056 3291 1056 2328 
Q 1056 1369 1301 889 
Q 1547 409 2034 409 
Q 2525 409 2770 889 
Q 3016 1369 3016 2328 
Q 3016 3291 2770 3770 
Q 2525 4250 2034 4250 
z
M 2034 4750 
Q 2819 4750 3233 4129 
Q 3647 3509 3647 2328 
Q 3647 1150 3233 529 
Q 2819 -91 2034 -91 
Q 1250 -91 836 529 
Q 422 1150 422 2328 
Q 422 3509 836 4129 
Q 1250 4750 2034 4750 
z
" id="DejaVuSans-30" transform="scale(0.015625)"/>
       </defs>
       <use xlink:href="#DejaVuSans-30"/>
      </g>
     </g>
    </g>
    <g id="xtick_2">
     <g id="line2d_2">
      <g>
       <use style="stroke:#000000;stroke-width:0.8;" x="117.30891" xlink:href="#m0baefe4174" y="128.057143"/>
      </g>
     </g>
     <g id="text_2">
      <!-- 20 -->
      <g transform="translate(110.94641 142.65558)scale(0.1 -0.1)">
       <defs>
        <path d="M 1228 531 
L 3431 531 
L 3431 0 
L 469 0 
L 469 531 
Q 828 903 1448 1529 
Q 2069 2156 2228 2338 
Q 2531 2678 2651 2914 
Q 2772 3150 2772 3378 
Q 2772 3750 2511 3984 
Q 2250 4219 1831 4219 
Q 1534 4219 1204 4116 
Q 875 4013 500 3803 
L 500 4441 
Q 881 4594 1212 4672 
Q 1544 4750 1819 4750 
Q 2544 4750 2975 4387 
Q 3406 4025 3406 3419 
Q 3406 3131 3298 2873 
Q 3191 2616 2906 2266 
Q 2828 2175 2409 1742 
Q 1991 1309 1228 531 
z
" id="DejaVuSans-32" transform="scale(0.015625)"/>
       </defs>
       <use xlink:href="#DejaVuSans-32"/>
       <use x="63.623047" xlink:href="#DejaVuSans-30"/>
      </g>
     </g>
    </g>
    <g id="xtick_3">
     <g id="line2d_3">
      <g>
       <use style="stroke:#000000;stroke-width:0.8;" x="178.796513" xlink:href="#m0baefe4174" y="128.057143"/>
      </g>
     </g>
     <g id="text_3">
      <!-- 40 -->
      <g transform="translate(172.434013 142.65558)scale(0.1 -0.1)">
       <defs>
        <path d="M 2419 4116 
L 825 1625 
L 2419 1625 
L 2419 4116 
z
M 2253 4666 
L 3047 4666 
L 3047 1625 
L 3713 1625 
L 3713 1100 
L 3047 1100 
L 3047 0 
L 2419 0 
L 2419 1100 
L 313 1100 
L 313 1709 
L 2253 4666 
z
" id="DejaVuSans-34" transform="scale(0.015625)"/>
       </defs>
       <use xlink:href="#DejaVuSans-34"/>
       <use x="63.623047" xlink:href="#DejaVuSans-30"/>
      </g>
     </g>
    </g>
    <g id="xtick_4">
     <g id="line2d_4">
      <g>
       <use style="stroke:#000000;stroke-width:0.8;" x="240.284117" xlink:href="#m0baefe4174" y="128.057143"/>
      </g>
     </g>
     <g id="text_4">
      <!-- 60 -->
      <g transform="translate(233.921617 142.65558)scale(0.1 -0.1)">
       <defs>
        <path d="M 2113 2584 
Q 1688 2584 1439 2293 
Q 1191 2003 1191 1497 
Q 1191 994 1439 701 
Q 1688 409 2113 409 
Q 2538 409 2786 701 
Q 3034 994 3034 1497 
Q 3034 2003 2786 2293 
Q 2538 2584 2113 2584 
z
M 3366 4563 
L 3366 3988 
Q 3128 4100 2886 4159 
Q 2644 4219 2406 4219 
Q 1781 4219 1451 3797 
Q 1122 3375 1075 2522 
Q 1259 2794 1537 2939 
Q 1816 3084 2150 3084 
Q 2853 3084 3261 2657 
Q 3669 2231 3669 1497 
Q 3669 778 3244 343 
Q 2819 -91 2113 -91 
Q 1303 -91 875 529 
Q 447 1150 447 2328 
Q 447 3434 972 4092 
Q 1497 4750 2381 4750 
Q 2619 4750 2861 4703 
Q 3103 4656 3366 4563 
z
" id="DejaVuSans-36" transform="scale(0.015625)"/>
       </defs>
       <use xlink:href="#DejaVuSans-36"/>
       <use x="63.623047" xlink:href="#DejaVuSans-30"/>
      </g>
     </g>
    </g>
    <g id="xtick_5">
     <g id="line2d_5">
      <g>
       <use style="stroke:#000000;stroke-width:0.8;" x="301.77172" xlink:href="#m0baefe4174" y="128.057143"/>
      </g>
     </g>
     <g id="text_5">
      <!-- 80 -->
      <g transform="translate(295.40922 142.65558)scale(0.1 -0.1)">
       <defs>
        <path d="M 2034 2216 
Q 1584 2216 1326 1975 
Q 1069 1734 1069 1313 
Q 1069 891 1326 650 
Q 1584 409 2034 409 
Q 2484 409 2743 651 
Q 3003 894 3003 1313 
Q 3003 1734 2745 1975 
Q 2488 2216 2034 2216 
z
M 1403 2484 
Q 997 2584 770 2862 
Q 544 3141 544 3541 
Q 544 4100 942 4425 
Q 1341 4750 2034 4750 
Q 2731 4750 3128 4425 
Q 3525 4100 3525 3541 
Q 3525 3141 3298 2862 
Q 3072 2584 2669 2484 
Q 3125 2378 3379 2068 
Q 3634 1759 3634 1313 
Q 3634 634 3220 271 
Q 2806 -91 2034 -91 
Q 1263 -91 848 271 
Q 434 634 434 1313 
Q 434 1759 690 2068 
Q 947 2378 1403 2484 
z
M 1172 3481 
Q 1172 3119 1398 2916 
Q 1625 2713 2034 2713 
Q 2441 2713 2670 2916 
Q 2900 3119 2900 3481 
Q 2900 3844 2670 4047 
Q 2441 4250 2034 4250 
Q 1625 4250 1398 4047 
Q 1172 3844 1172 3481 
z
" id="DejaVuSans-38" transform="scale(0.015625)"/>
       </defs>
       <use xlink:href="#DejaVuSans-38"/>
       <use x="63.623047" xlink:href="#DejaVuSans-30"/>
      </g>
     </g>
    </g>
    <g id="xtick_6">
     <g id="line2d_6">
      <g>
       <use style="stroke:#000000;stroke-width:0.8;" x="363.259323" xlink:href="#m0baefe4174" y="128.057143"/>
      </g>
     </g>
     <g id="text_6">
      <!-- 100 -->
      <g transform="translate(353.715573 142.65558)scale(0.1 -0.1)">
       <defs>
        <path d="M 794 531 
L 1825 531 
L 1825 4091 
L 703 3866 
L 703 4441 
L 1819 4666 
L 2450 4666 
L 2450 531 
L 3481 531 
L 3481 0 
L 794 0 
L 794 531 
z
" id="DejaVuSans-31" transform="scale(0.015625)"/>
       </defs>
       <use xlink:href="#DejaVuSans-31"/>
       <use x="63.623047" xlink:href="#DejaVuSans-30"/>
       <use x="127.246094" xlink:href="#DejaVuSans-30"/>
      </g>
     </g>
    </g>
    <g id="text_7">
     <!-- Trial -->
     <g transform="translate(197.789062 156.333705)scale(0.1 -0.1)">
      <defs>
       <path d="M -19 4666 
L 3928 4666 
L 3928 4134 
L 2272 4134 
L 2272 0 
L 1638 0 
L 1638 4134 
L -19 4134 
L -19 4666 
z
" id="DejaVuSans-54" transform="scale(0.015625)"/>
       <path d="M 2631 2963 
Q 2534 3019 2420 3045 
Q 2306 3072 2169 3072 
Q 1681 3072 1420 2755 
Q 1159 2438 1159 1844 
L 1159 0 
L 581 0 
L 581 3500 
L 1159 3500 
L 1159 2956 
Q 1341 3275 1631 3429 
Q 1922 3584 2338 3584 
Q 2397 3584 2469 3576 
Q 2541 3569 2628 3553 
L 2631 2963 
z
" id="DejaVuSans-72" transform="scale(0.015625)"/>
       <path d="M 603 3500 
L 1178 3500 
L 1178 0 
L 603 0 
L 603 3500 
z
M 603 4863 
L 1178 4863 
L 1178 4134 
L 603 4134 
L 603 4863 
z
" id="DejaVuSans-69" transform="scale(0.015625)"/>
       <path d="M 2194 1759 
Q 1497 1759 1228 1600 
Q 959 1441 959 1056 
Q 959 750 1161 570 
Q 1363 391 1709 391 
Q 2188 391 2477 730 
Q 2766 1069 2766 1631 
L 2766 1759 
L 2194 1759 
z
M 3341 1997 
L 3341 0 
L 2766 0 
L 2766 531 
Q 2569 213 2275 61 
Q 1981 -91 1556 -91 
Q 1019 -91 701 211 
Q 384 513 384 1019 
Q 384 1609 779 1909 
Q 1175 2209 1959 2209 
L 2766 2209 
L 2766 2266 
Q 2766 2663 2505 2880 
Q 2244 3097 1772 3097 
Q 1472 3097 1187 3025 
Q 903 2953 641 2809 
L 641 3341 
Q 956 3463 1253 3523 
Q 1550 3584 1831 3584 
Q 2591 3584 2966 3190 
Q 3341 2797 3341 1997 
z
" id="DejaVuSans-61" transform="scale(0.015625)"/>
       <path d="M 603 4863 
L 1178 4863 
L 1178 0 
L 603 0 
L 603 4863 
z
" id="DejaVuSans-6c" transform="scale(0.015625)"/>
      </defs>
      <use xlink:href="#DejaVuSans-54"/>
      <use x="46.333984" xlink:href="#DejaVuSans-72"/>
      <use x="87.447266" xlink:href="#DejaVuSans-69"/>
      <use x="115.230469" xlink:href="#DejaVuSans-61"/>
      <use x="176.509766" xlink:href="#DejaVuSans-6c"/>
     </g>
    </g>
   </g>
   <g id="matplotlib.axis_2">
    <g id="ytick_1">
     <g id="line2d_7">
      <defs>
       <path d="M 0 0 
L -3.5 0 
" id="m5929dfafea" style="stroke:#000000;stroke-width:0.8;"/>
      </defs>
      <g>
       <use style="stroke:#000000;stroke-width:0.8;" x="40.603125" xlink:href="#m5929dfafea" y="124.527273"/>
      </g>
     </g>
     <g id="text_8">
      <!-- 0 -->
      <g transform="translate(27.240625 128.326491)scale(0.1 -0.1)">
       <use xlink:href="#DejaVuSans-30"/>
      </g>
     </g>
    </g>
    <g id="ytick_2">
     <g id="line2d_8">
      <g>
       <use style="stroke:#000000;stroke-width:0.8;" x="40.603125" xlink:href="#m5929dfafea" y="94.110469"/>
      </g>
     </g>
     <g id="text_9">
      <!-- 10 -->
      <g transform="translate(20.878125 97.909687)scale(0.1 -0.1)">
       <use xlink:href="#DejaVuSans-31"/>
       <use x="63.623047" xlink:href="#DejaVuSans-30"/>
      </g>
     </g>
    </g>
    <g id="ytick_3">
     <g id="line2d_9">
      <g>
       <use style="stroke:#000000;stroke-width:0.8;" x="40.603125" xlink:href="#m5929dfafea" y="63.693664"/>
      </g>
     </g>
     <g id="text_10">
      <!-- 20 -->
      <g transform="translate(20.878125 67.492883)scale(0.1 -0.1)">
       <use xlink:href="#DejaVuSans-32"/>
       <use x="63.623047" xlink:href="#DejaVuSans-30"/>
      </g>
     </g>
    </g>
    <g id="text_11">
     <!-- Pairs [#] -->
     <g transform="translate(14.798438 110.812165)rotate(-90)scale(0.1 -0.1)">
      <defs>
       <path d="M 1259 4147 
L 1259 2394 
L 2053 2394 
Q 2494 2394 2734 2622 
Q 2975 2850 2975 3272 
Q 2975 3691 2734 3919 
Q 2494 4147 2053 4147 
L 1259 4147 
z
M 628 4666 
L 2053 4666 
Q 2838 4666 3239 4311 
Q 3641 3956 3641 3272 
Q 3641 2581 3239 2228 
Q 2838 1875 2053 1875 
L 1259 1875 
L 1259 0 
L 628 0 
L 628 4666 
z
" id="DejaVuSans-50" transform="scale(0.015625)"/>
       <path d="M 2834 3397 
L 2834 2853 
Q 2591 2978 2328 3040 
Q 2066 3103 1784 3103 
Q 1356 3103 1142 2972 
Q 928 2841 928 2578 
Q 928 2378 1081 2264 
Q 1234 2150 1697 2047 
L 1894 2003 
Q 2506 1872 2764 1633 
Q 3022 1394 3022 966 
Q 3022 478 2636 193 
Q 2250 -91 1575 -91 
Q 1294 -91 989 -36 
Q 684 19 347 128 
L 347 722 
Q 666 556 975 473 
Q 1284 391 1588 391 
Q 1994 391 2212 530 
Q 2431 669 2431 922 
Q 2431 1156 2273 1281 
Q 2116 1406 1581 1522 
L 1381 1569 
Q 847 1681 609 1914 
Q 372 2147 372 2553 
Q 372 3047 722 3315 
Q 1072 3584 1716 3584 
Q 2034 3584 2315 3537 
Q 2597 3491 2834 3397 
z
" id="DejaVuSans-73" transform="scale(0.015625)"/>
       <path id="DejaVuSans-20" transform="scale(0.015625)"/>
       <path d="M 550 4863 
L 1875 4863 
L 1875 4416 
L 1125 4416 
L 1125 -397 
L 1875 -397 
L 1875 -844 
L 550 -844 
L 550 4863 
z
" id="DejaVuSans-5b" transform="scale(0.015625)"/>
       <path d="M 3272 2816 
L 2363 2816 
L 2100 1772 
L 3016 1772 
L 3272 2816 
z
M 2803 4594 
L 2478 3297 
L 3391 3297 
L 3719 4594 
L 4219 4594 
L 3897 3297 
L 4872 3297 
L 4872 2816 
L 3775 2816 
L 3519 1772 
L 4513 1772 
L 4513 1294 
L 3397 1294 
L 3072 0 
L 2572 0 
L 2894 1294 
L 1978 1294 
L 1656 0 
L 1153 0 
L 1478 1294 
L 494 1294 
L 494 1772 
L 1594 1772 
L 1856 2816 
L 850 2816 
L 850 3297 
L 1978 3297 
L 2297 4594 
L 2803 4594 
z
" id="DejaVuSans-23" transform="scale(0.015625)"/>
       <path d="M 1947 4863 
L 1947 -844 
L 622 -844 
L 622 -397 
L 1369 -397 
L 1369 4416 
L 622 4416 
L 622 4863 
L 1947 4863 
z
" id="DejaVuSans-5d" transform="scale(0.015625)"/>
      </defs>
      <use xlink:href="#DejaVuSans-50"/>
      <use x="55.802734" xlink:href="#DejaVuSans-61"/>
      <use x="117.082031" xlink:href="#DejaVuSans-69"/>
      <use x="144.865234" xlink:href="#DejaVuSans-72"/>
      <use x="185.978516" xlink:href="#DejaVuSans-73"/>
      <use x="238.078125" xlink:href="#DejaVuSans-20"/>
      <use x="269.865234" xlink:href="#DejaVuSans-5b"/>
      <use x="308.878906" xlink:href="#DejaVuSans-23"/>
      <use x="392.667969" xlink:href="#DejaVuSans-5d"/>
     </g>
    </g>
   </g>
   <g id="line2d_10">
    <path clip-path="url(#p6e90ebfe1c)" d="M 55.821307 124.527273 
L 58.895687 64.1195 
L 61.970067 66.887429 
L 65.044447 66.765762 
L 68.118827 68.377852 
L 71.193208 68.317019 
L 74.267588 67.465348 
L 77.341968 68.955771 
L 80.416348 71.328282 
L 83.490728 69.716192 
L 86.565108 68.651603 
L 89.639489 69.259939 
L 92.713869 68.134518 
L 95.788249 68.621187 
L 98.862629 70.02036 
L 101.937009 70.507028 
L 105.011389 68.925355 
L 108.08577 70.719946 
L 111.16015 69.199106 
L 114.23453 69.624941 
L 117.30891 70.142027 
L 120.38329 68.834104 
L 123.45767 68.225768 
L 126.532051 69.107855 
L 129.606431 71.145781 
L 132.680811 69.259939 
L 135.755191 68.834104 
L 138.829571 70.354944 
L 141.903951 69.047022 
L 144.978332 67.526182 
L 148.052712 67.739099 
L 151.127092 68.164935 
L 154.201472 66.826595 
L 157.275852 66.522427 
L 160.350232 66.218259 
L 163.424613 66.49201 
L 166.498993 66.096592 
L 169.573373 65.701173 
L 172.647753 67.617432 
L 175.722133 65.336172 
L 178.796513 65.184088 
L 181.870894 65.914091 
L 184.945274 63.906582 
L 188.019654 65.032004 
L 191.094034 65.701173 
L 194.168414 64.87992 
L 197.242794 66.218259 
L 200.317175 64.241167 
L 203.391555 63.936999 
L 206.465935 65.305755 
L 209.540315 60.712817 
L 212.614695 61.959906 
L 215.689075 63.511163 
L 218.763456 64.21075 
L 221.837836 63.54158 
L 224.912216 60.834485 
L 227.986596 59.921981 
L 231.060976 61.899073 
L 234.135356 61.92949 
L 237.209737 60.59115 
L 240.284117 62.994078 
L 243.358497 59.800313 
L 246.432877 60.439066 
L 249.507257 60.895318 
L 252.581637 60.226149 
L 255.656018 58.583641 
L 258.730398 60.256565 
L 261.804778 58.21864 
L 264.879158 59.891564 
L 267.953538 57.792804 
L 271.027918 60.347816 
L 274.102299 59.07031 
L 277.176679 56.576132 
L 280.251059 57.488636 
L 283.325439 56.302381 
L 286.399819 56.910717 
L 289.474199 55.967796 
L 292.54858 55.724462 
L 295.62296 58.036139 
L 298.69734 56.576132 
L 301.77172 57.123635 
L 304.8461 56.728216 
L 307.92048 56.180714 
L 310.994861 56.849883 
L 314.069241 56.819467 
L 317.143621 58.188223 
L 320.218001 54.811957 
L 323.292381 58.553224 
L 326.366761 56.849883 
L 329.441142 56.78905 
L 332.515522 54.964041 
L 335.589902 56.819467 
L 338.664282 55.785295 
L 341.738662 53.960287 
L 344.813042 55.815712 
L 347.887423 54.355705 
L 350.961803 55.663628 
L 354.036183 54.781541 
L 357.110563 55.055292 
L 360.184943 53.92987 
" style="fill:none;stroke:#0000ff;stroke-linecap:square;stroke-width:1.5;"/>
   </g>
   <g id="line2d_11">
    <path clip-path="url(#p6e90ebfe1c)" d="M 55.821307 124.527273 
L 58.895687 89.760866 
L 61.970067 89.456697 
L 65.044447 91.068788 
L 68.118827 88.57461 
L 71.193208 91.312123 
L 74.267588 90.916704 
L 77.341968 90.430035 
L 80.416348 89.456697 
L 83.490728 90.521286 
L 86.565108 91.281706 
L 89.639489 89.639198 
L 92.713869 91.068788 
L 95.788249 92.711296 
L 98.862629 90.76462 
L 101.937009 91.038371 
L 105.011389 91.342539 
L 108.08577 89.24378 
L 111.16015 91.342539 
L 114.23453 90.76462 
L 117.30891 90.156284 
L 120.38329 91.646707 
L 123.45767 90.186701 
L 126.532051 91.312123 
L 129.606431 87.935857 
L 132.680811 89.182946 
L 135.755191 89.152529 
L 138.829571 88.331276 
L 141.903951 86.932103 
L 144.978332 90.308368 
L 148.052712 89.608781 
L 151.127092 87.966274 
L 154.201472 87.935857 
L 157.275852 88.939612 
L 160.350232 90.034617 
L 163.424613 88.148775 
L 166.498993 88.027108 
L 169.573373 88.027108 
L 172.647753 86.323767 
L 175.722133 87.631689 
L 178.796513 84.924594 
L 181.870894 87.753356 
L 184.945274 85.837098 
L 188.019654 86.3846 
L 191.094034 83.099585 
L 194.168414 85.441679 
L 197.242794 83.282086 
L 200.317175 84.072923 
L 203.391555 82.947501 
L 206.465935 83.008335 
L 209.540315 83.221253 
L 212.614695 83.403753 
L 215.689075 82.947501 
L 218.763456 82.399999 
L 221.837836 83.738338 
L 224.912216 81.365828 
L 227.986596 83.282086 
L 231.060976 80.240406 
L 234.135356 80.027488 
L 237.209737 83.069169 
L 240.284117 80.48374 
L 243.358497 81.031243 
L 246.432877 81.031243 
L 249.507257 79.358318 
L 252.581637 78.993317 
L 255.656018 79.844987 
L 258.730398 79.875404 
L 261.804778 79.936238 
L 264.879158 77.53331 
L 267.953538 77.594144 
L 271.027918 76.955391 
L 274.102299 78.476231 
L 277.176679 78.019979 
L 280.251059 78.20248 
L 283.325439 78.141646 
L 286.399819 77.350809 
L 289.474199 76.955391 
L 292.54858 75.556218 
L 295.62296 75.099966 
L 298.69734 76.499139 
L 301.77172 76.559972 
L 304.8461 74.947882 
L 307.92048 72.788289 
L 310.994861 75.92122 
L 314.069241 73.214124 
L 317.143621 73.183707 
L 320.218001 75.3433 
L 323.292381 72.210369 
L 326.366761 74.430796 
L 329.441142 73.366208 
L 332.515522 73.579126 
L 335.589902 72.484121 
L 338.664282 70.689529 
L 341.738662 75.25205 
L 344.813042 72.757872 
L 347.887423 73.06204 
L 350.961803 73.244541 
L 354.036183 71.693284 
L 357.110563 70.628696 
L 360.184943 73.518292 
" style="fill:none;stroke:#ff0000;stroke-linecap:square;stroke-width:1.5;"/>
   </g>
   <g id="line2d_12">
    <path clip-path="url(#p6e90ebfe1c)" d="M 55.821307 124.527273 
L 58.895687 70.659112 
L 61.970067 68.195351 
L 65.044447 66.704928 
L 68.118827 67.587015 
L 71.193208 64.910336 
L 74.267588 66.157425 
L 77.341968 65.153671 
L 80.416348 63.754498 
L 83.490728 64.302 
L 86.565108 64.606168 
L 89.639489 65.64034 
L 92.713869 65.336172 
L 95.788249 63.206995 
L 98.862629 63.754498 
L 101.937009 62.994078 
L 105.011389 64.271584 
L 108.08577 64.575752 
L 111.16015 63.997832 
L 114.23453 64.149916 
L 117.30891 64.241167 
L 120.38329 64.058666 
L 123.45767 66.127009 
L 126.532051 64.1195 
L 129.606431 65.457839 
L 132.680811 66.096592 
L 135.755191 66.552844 
L 138.829571 65.853257 
L 141.903951 68.560353 
L 144.978332 66.704928 
L 148.052712 67.191597 
L 151.127092 68.408269 
L 154.201472 69.777025 
L 157.275852 69.077439 
L 160.350232 68.286602 
L 163.424613 69.898692 
L 166.498993 70.415778 
L 169.573373 70.811196 
L 172.647753 70.598279 
L 175.722133 71.571617 
L 178.796513 74.430796 
L 181.870894 70.87203 
L 184.945274 74.795798 
L 188.019654 73.122874 
L 191.094034 75.738719 
L 194.168414 74.217879 
L 197.242794 75.039132 
L 200.317175 76.225388 
L 203.391555 77.654977 
L 206.465935 76.225388 
L 209.540315 80.605407 
L 212.614695 79.175818 
L 215.689075 78.080813 
L 218.763456 77.928729 
L 221.837836 77.259559 
L 224.912216 82.339165 
L 227.986596 81.335411 
L 231.060976 82.399999 
L 234.135356 82.5825 
L 237.209737 80.879159 
L 240.284117 81.061659 
L 243.358497 83.707921 
L 246.432877 83.069169 
L 249.507257 84.285841 
L 252.581637 85.320012 
L 255.656018 86.110849 
L 258.730398 84.407508 
L 261.804778 86.3846 
L 264.879158 87.114604 
L 267.953538 89.152529 
L 271.027918 87.236271 
L 274.102299 86.992936 
L 277.176679 89.943366 
L 280.251059 88.848361 
L 283.325439 90.09545 
L 286.399819 90.277951 
L 289.474199 91.616291 
L 292.54858 93.258798 
L 295.62296 91.403373 
L 298.69734 91.464207 
L 301.77172 90.85587 
L 304.8461 92.86338 
L 307.92048 95.570475 
L 310.994861 91.768375 
L 314.069241 94.505887 
L 317.143621 93.167548 
L 320.218001 94.38422 
L 323.292381 93.775884 
L 326.366761 93.258798 
L 329.441142 94.38422 
L 332.515522 95.99631 
L 335.589902 95.23589 
L 338.664282 98.064653 
L 341.738662 95.327141 
L 344.813042 95.965894 
L 347.887423 97.121732 
L 350.961803 95.631309 
L 354.036183 98.064653 
L 357.110563 98.85549 
L 360.184943 97.091315 
" style="fill:none;stroke:#008000;stroke-linecap:square;stroke-width:1.5;"/>
   </g>
   <g id="patch_3">
    <path d="M 40.603125 128.057143 
L 40.603125 50.4 
" style="fill:none;stroke:#000000;stroke-linecap:square;stroke-linejoin:miter;stroke-width:0.8;"/>
   </g>
   <g id="patch_4">
    <path d="M 40.603125 128.057143 
L 375.403125 128.057143 
" style="fill:none;stroke:#000000;stroke-linecap:square;stroke-linejoin:miter;stroke-width:0.8;"/>
   </g>
   <g id="text_12">
    <!-- Trial Start Replays -->
    <g transform="translate(153.855 44.4)scale(0.12 -0.12)">
     <defs>
      <path d="M 3425 4513 
L 3425 3897 
Q 3066 4069 2747 4153 
Q 2428 4238 2131 4238 
Q 1616 4238 1336 4038 
Q 1056 3838 1056 3469 
Q 1056 3159 1242 3001 
Q 1428 2844 1947 2747 
L 2328 2669 
Q 3034 2534 3370 2195 
Q 3706 1856 3706 1288 
Q 3706 609 3251 259 
Q 2797 -91 1919 -91 
Q 1588 -91 1214 -16 
Q 841 59 441 206 
L 441 856 
Q 825 641 1194 531 
Q 1563 422 1919 422 
Q 2459 422 2753 634 
Q 3047 847 3047 1241 
Q 3047 1584 2836 1778 
Q 2625 1972 2144 2069 
L 1759 2144 
Q 1053 2284 737 2584 
Q 422 2884 422 3419 
Q 422 4038 858 4394 
Q 1294 4750 2059 4750 
Q 2388 4750 2728 4690 
Q 3069 4631 3425 4513 
z
" id="DejaVuSans-53" transform="scale(0.015625)"/>
      <path d="M 1172 4494 
L 1172 3500 
L 2356 3500 
L 2356 3053 
L 1172 3053 
L 1172 1153 
Q 1172 725 1289 603 
Q 1406 481 1766 481 
L 2356 481 
L 2356 0 
L 1766 0 
Q 1100 0 847 248 
Q 594 497 594 1153 
L 594 3053 
L 172 3053 
L 172 3500 
L 594 3500 
L 594 4494 
L 1172 4494 
z
" id="DejaVuSans-74" transform="scale(0.015625)"/>
      <path d="M 2841 2188 
Q 3044 2119 3236 1894 
Q 3428 1669 3622 1275 
L 4263 0 
L 3584 0 
L 2988 1197 
Q 2756 1666 2539 1819 
Q 2322 1972 1947 1972 
L 1259 1972 
L 1259 0 
L 628 0 
L 628 4666 
L 2053 4666 
Q 2853 4666 3247 4331 
Q 3641 3997 3641 3322 
Q 3641 2881 3436 2590 
Q 3231 2300 2841 2188 
z
M 1259 4147 
L 1259 2491 
L 2053 2491 
Q 2509 2491 2742 2702 
Q 2975 2913 2975 3322 
Q 2975 3731 2742 3939 
Q 2509 4147 2053 4147 
L 1259 4147 
z
" id="DejaVuSans-52" transform="scale(0.015625)"/>
      <path d="M 3597 1894 
L 3597 1613 
L 953 1613 
Q 991 1019 1311 708 
Q 1631 397 2203 397 
Q 2534 397 2845 478 
Q 3156 559 3463 722 
L 3463 178 
Q 3153 47 2828 -22 
Q 2503 -91 2169 -91 
Q 1331 -91 842 396 
Q 353 884 353 1716 
Q 353 2575 817 3079 
Q 1281 3584 2069 3584 
Q 2775 3584 3186 3129 
Q 3597 2675 3597 1894 
z
M 3022 2063 
Q 3016 2534 2758 2815 
Q 2500 3097 2075 3097 
Q 1594 3097 1305 2825 
Q 1016 2553 972 2059 
L 3022 2063 
z
" id="DejaVuSans-65" transform="scale(0.015625)"/>
      <path d="M 1159 525 
L 1159 -1331 
L 581 -1331 
L 581 3500 
L 1159 3500 
L 1159 2969 
Q 1341 3281 1617 3432 
Q 1894 3584 2278 3584 
Q 2916 3584 3314 3078 
Q 3713 2572 3713 1747 
Q 3713 922 3314 415 
Q 2916 -91 2278 -91 
Q 1894 -91 1617 61 
Q 1341 213 1159 525 
z
M 3116 1747 
Q 3116 2381 2855 2742 
Q 2594 3103 2138 3103 
Q 1681 3103 1420 2742 
Q 1159 2381 1159 1747 
Q 1159 1113 1420 752 
Q 1681 391 2138 391 
Q 2594 391 2855 752 
Q 3116 1113 3116 1747 
z
" id="DejaVuSans-70" transform="scale(0.015625)"/>
      <path d="M 2059 -325 
Q 1816 -950 1584 -1140 
Q 1353 -1331 966 -1331 
L 506 -1331 
L 506 -850 
L 844 -850 
Q 1081 -850 1212 -737 
Q 1344 -625 1503 -206 
L 1606 56 
L 191 3500 
L 800 3500 
L 1894 763 
L 2988 3500 
L 3597 3500 
L 2059 -325 
z
" id="DejaVuSans-79" transform="scale(0.015625)"/>
     </defs>
     <use xlink:href="#DejaVuSans-54"/>
     <use x="46.333984" xlink:href="#DejaVuSans-72"/>
     <use x="87.447266" xlink:href="#DejaVuSans-69"/>
     <use x="115.230469" xlink:href="#DejaVuSans-61"/>
     <use x="176.509766" xlink:href="#DejaVuSans-6c"/>
     <use x="204.292969" xlink:href="#DejaVuSans-20"/>
     <use x="236.080078" xlink:href="#DejaVuSans-53"/>
     <use x="299.556641" xlink:href="#DejaVuSans-74"/>
     <use x="338.765625" xlink:href="#DejaVuSans-61"/>
     <use x="400.044922" xlink:href="#DejaVuSans-72"/>
     <use x="441.158203" xlink:href="#DejaVuSans-74"/>
     <use x="480.367188" xlink:href="#DejaVuSans-20"/>
     <use x="512.154297" xlink:href="#DejaVuSans-52"/>
     <use x="577.136719" xlink:href="#DejaVuSans-65"/>
     <use x="638.660156" xlink:href="#DejaVuSans-70"/>
     <use x="702.136719" xlink:href="#DejaVuSans-6c"/>
     <use x="729.919922" xlink:href="#DejaVuSans-61"/>
     <use x="791.199219" xlink:href="#DejaVuSans-79"/>
     <use x="850.378906" xlink:href="#DejaVuSans-73"/>
    </g>
   </g>
  </g>
  <g id="axes_2">
   <g id="patch_5">
    <path d="M 40.603125 267.84 
L 375.403125 267.84 
L 375.403125 190.182857 
L 40.603125 190.182857 
z
" style="fill:none;"/>
   </g>
   <g id="matplotlib.axis_3">
    <g id="xtick_7">
     <g id="line2d_13">
      <g>
       <use style="stroke:#000000;stroke-width:0.8;" x="55.821307" xlink:href="#m0baefe4174" y="267.84"/>
      </g>
     </g>
     <g id="text_13">
      <!-- 0 -->
      <g transform="translate(52.640057 282.438437)scale(0.1 -0.1)">
       <use xlink:href="#DejaVuSans-30"/>
      </g>
     </g>
    </g>
    <g id="xtick_8">
     <g id="line2d_14">
      <g>
       <use style="stroke:#000000;stroke-width:0.8;" x="117.30891" xlink:href="#m0baefe4174" y="267.84"/>
      </g>
     </g>
     <g id="text_14">
      <!-- 20 -->
      <g transform="translate(110.94641 282.438437)scale(0.1 -0.1)">
       <use xlink:href="#DejaVuSans-32"/>
       <use x="63.623047" xlink:href="#DejaVuSans-30"/>
      </g>
     </g>
    </g>
    <g id="xtick_9">
     <g id="line2d_15">
      <g>
       <use style="stroke:#000000;stroke-width:0.8;" x="178.796513" xlink:href="#m0baefe4174" y="267.84"/>
      </g>
     </g>
     <g id="text_15">
      <!-- 40 -->
      <g transform="translate(172.434013 282.438437)scale(0.1 -0.1)">
       <use xlink:href="#DejaVuSans-34"/>
       <use x="63.623047" xlink:href="#DejaVuSans-30"/>
      </g>
     </g>
    </g>
    <g id="xtick_10">
     <g id="line2d_16">
      <g>
       <use style="stroke:#000000;stroke-width:0.8;" x="240.284117" xlink:href="#m0baefe4174" y="267.84"/>
      </g>
     </g>
     <g id="text_16">
      <!-- 60 -->
      <g transform="translate(233.921617 282.438437)scale(0.1 -0.1)">
       <use xlink:href="#DejaVuSans-36"/>
       <use x="63.623047" xlink:href="#DejaVuSans-30"/>
      </g>
     </g>
    </g>
    <g id="xtick_11">
     <g id="line2d_17">
      <g>
       <use style="stroke:#000000;stroke-width:0.8;" x="301.77172" xlink:href="#m0baefe4174" y="267.84"/>
      </g>
     </g>
     <g id="text_17">
      <!-- 80 -->
      <g transform="translate(295.40922 282.438437)scale(0.1 -0.1)">
       <use xlink:href="#DejaVuSans-38"/>
       <use x="63.623047" xlink:href="#DejaVuSans-30"/>
      </g>
     </g>
    </g>
    <g id="xtick_12">
     <g id="line2d_18">
      <g>
       <use style="stroke:#000000;stroke-width:0.8;" x="363.259323" xlink:href="#m0baefe4174" y="267.84"/>
      </g>
     </g>
     <g id="text_18">
      <!-- 100 -->
      <g transform="translate(353.715573 282.438437)scale(0.1 -0.1)">
       <use xlink:href="#DejaVuSans-31"/>
       <use x="63.623047" xlink:href="#DejaVuSans-30"/>
       <use x="127.246094" xlink:href="#DejaVuSans-30"/>
      </g>
     </g>
    </g>
    <g id="text_19">
     <!-- Trial -->
     <g transform="translate(197.789062 296.116562)scale(0.1 -0.1)">
      <use xlink:href="#DejaVuSans-54"/>
      <use x="46.333984" xlink:href="#DejaVuSans-72"/>
      <use x="87.447266" xlink:href="#DejaVuSans-69"/>
      <use x="115.230469" xlink:href="#DejaVuSans-61"/>
      <use x="176.509766" xlink:href="#DejaVuSans-6c"/>
     </g>
    </g>
   </g>
   <g id="matplotlib.axis_4">
    <g id="ytick_4">
     <g id="line2d_19">
      <g>
       <use style="stroke:#000000;stroke-width:0.8;" x="40.603125" xlink:href="#m5929dfafea" y="257.933063"/>
      </g>
     </g>
     <g id="text_20">
      <!-- 10 -->
      <g transform="translate(20.878125 261.732282)scale(0.1 -0.1)">
       <use xlink:href="#DejaVuSans-31"/>
       <use x="63.623047" xlink:href="#DejaVuSans-30"/>
      </g>
     </g>
    </g>
    <g id="ytick_5">
     <g id="line2d_20">
      <g>
       <use style="stroke:#000000;stroke-width:0.8;" x="40.603125" xlink:href="#m5929dfafea" y="217.054428"/>
      </g>
     </g>
     <g id="text_21">
      <!-- 20 -->
      <g transform="translate(20.878125 220.853647)scale(0.1 -0.1)">
       <use xlink:href="#DejaVuSans-32"/>
       <use x="63.623047" xlink:href="#DejaVuSans-30"/>
      </g>
     </g>
    </g>
    <g id="text_22">
     <!-- Pairs [#] -->
     <g transform="translate(14.798438 250.595022)rotate(-90)scale(0.1 -0.1)">
      <use xlink:href="#DejaVuSans-50"/>
      <use x="55.802734" xlink:href="#DejaVuSans-61"/>
      <use x="117.082031" xlink:href="#DejaVuSans-69"/>
      <use x="144.865234" xlink:href="#DejaVuSans-72"/>
      <use x="185.978516" xlink:href="#DejaVuSans-73"/>
      <use x="238.078125" xlink:href="#DejaVuSans-20"/>
      <use x="269.865234" xlink:href="#DejaVuSans-5b"/>
      <use x="308.878906" xlink:href="#DejaVuSans-23"/>
      <use x="392.667969" xlink:href="#DejaVuSans-5d"/>
     </g>
    </g>
   </g>
   <g id="line2d_21">
    <path clip-path="url(#p2597fdabd1)" d="M 55.821307 221.305806 
L 58.895687 226.906179 
L 61.970067 225.802456 
L 65.044447 225.720698 
L 68.118827 225.67982 
L 71.193208 226.8653 
L 74.267588 225.271033 
L 77.341968 227.969023 
L 80.416348 229.399776 
L 83.490728 228.541324 
L 86.565108 229.113625 
L 89.639489 230.135591 
L 92.713869 228.990989 
L 95.788249 232.87446 
L 98.862629 232.87446 
L 101.937009 228.66396 
L 105.011389 230.626135 
L 108.08577 234.795755 
L 111.16015 230.748771 
L 114.23453 232.302159 
L 117.30891 232.26128 
L 120.38329 232.424795 
L 123.45767 235.000149 
L 126.532051 234.386969 
L 129.606431 234.632241 
L 132.680811 232.506552 
L 135.755191 236.349144 
L 138.829571 235.531571 
L 141.903951 236.14475 
L 144.978332 237.698139 
L 148.052712 238.597468 
L 151.127092 236.267386 
L 154.201472 238.597468 
L 157.275852 239.823828 
L 160.350232 238.515711 
L 163.424613 238.106925 
L 166.498993 238.433954 
L 169.573373 244.647506 
L 172.647753 242.358303 
L 175.722133 241.704245 
L 178.796513 241.704245 
L 181.870894 240.028221 
L 184.945274 239.905585 
L 188.019654 239.496798 
L 191.094034 240.559643 
L 194.168414 243.748176 
L 197.242794 243.421147 
L 200.317175 241.499852 
L 203.391555 242.767089 
L 206.465935 241.213701 
L 209.540315 240.600522 
L 212.614695 241.377216 
L 215.689075 242.235667 
L 218.763456 243.33939 
L 221.837836 242.562696 
L 224.912216 241.295458 
L 227.986596 242.644453 
L 231.060976 243.666419 
L 234.135356 239.864706 
L 237.209737 241.745123 
L 240.284117 242.194788 
L 243.358497 240.682279 
L 246.432877 242.889725 
L 249.507257 242.767089 
L 252.581637 243.05324 
L 255.656018 244.279599 
L 258.730398 241.009308 
L 261.804778 244.402235 
L 264.879158 241.499852 
L 267.953538 244.688385 
L 271.027918 241.704245 
L 274.102299 242.44006 
L 277.176679 243.05324 
L 280.251059 242.767089 
L 283.325439 244.034327 
L 286.399819 239.701192 
L 289.474199 239.047133 
L 292.54858 241.826881 
L 295.62296 238.474833 
L 298.69734 238.188682 
L 301.77172 239.660313 
L 304.8461 241.745123 
L 307.92048 240.927551 
L 310.994861 240.232614 
L 314.069241 239.088012 
L 317.143621 238.311318 
L 320.218001 238.106925 
L 323.292381 245.219807 
L 326.366761 237.04408 
L 329.441142 239.864706 
L 332.515522 238.924498 
L 335.589902 238.924498 
L 338.664282 243.380269 
L 341.738662 238.965376 
L 344.813042 236.308265 
L 347.887423 237.698139 
L 350.961803 238.801862 
L 354.036183 238.515711 
L 357.110563 239.905585 
L 360.184943 238.311318 
" style="fill:none;stroke:#0000ff;stroke-linecap:square;stroke-width:1.5;"/>
   </g>
   <g id="line2d_22">
    <path clip-path="url(#p2597fdabd1)" d="M 55.821307 248.939763 
L 58.895687 246.773195 
L 61.970067 246.405288 
L 65.044447 247.999555 
L 68.118827 247.54989 
L 71.193208 247.22286 
L 74.267588 249.225914 
L 77.341968 246.32353 
L 80.416348 246.446166 
L 83.490728 244.933657 
L 86.565108 246.487045 
L 89.639489 245.342443 
L 92.713869 244.811021 
L 95.788249 243.421147 
L 98.862629 244.402235 
L 101.937009 245.015414 
L 105.011389 244.197841 
L 108.08577 241.009308 
L 111.16015 241.25458 
L 114.23453 239.45592 
L 117.30891 239.210648 
L 120.38329 240.927551 
L 123.45767 236.839687 
L 126.532051 236.390022 
L 129.606431 235.000149 
L 132.680811 234.386969 
L 135.755191 233.528518 
L 138.829571 230.544377 
L 141.903951 231.239314 
L 144.978332 228.500446 
L 148.052712 225.67982 
L 151.127092 228.704839 
L 154.201472 224.657854 
L 157.275852 223.431495 
L 160.350232 222.98183 
L 163.424613 222.164257 
L 166.498993 222.409529 
L 169.573373 216.155098 
L 172.647753 218.19903 
L 175.722133 218.689573 
L 178.796513 218.035515 
L 181.870894 217.626729 
L 184.945274 215.868947 
L 188.019654 216.114219 
L 191.094034 214.642588 
L 194.168414 213.416229 
L 197.242794 211.086147 
L 200.317175 210.718239 
L 203.391555 209.941545 
L 206.465935 211.372298 
L 209.540315 209.655395 
L 212.614695 209.001337 
L 215.689075 208.224643 
L 218.763456 208.756065 
L 221.837836 207.366191 
L 224.912216 205.935439 
L 227.986596 206.425983 
L 231.060976 205.731046 
L 234.135356 204.70908 
L 237.209737 205.690167 
L 240.284117 204.831716 
L 243.358497 206.017196 
L 246.432877 203.687114 
L 249.507257 202.746906 
L 252.581637 203.319206 
L 255.656018 202.378998 
L 258.730398 202.215483 
L 261.804778 201.888454 
L 264.879158 205.036109 
L 267.953538 200.008037 
L 271.027918 202.460755 
L 274.102299 201.030003 
L 277.176679 201.152639 
L 280.251059 198.904314 
L 283.325439 198.904314 
L 286.399819 201.397911 
L 289.474199 200.907367 
L 292.54858 199.803644 
L 295.62296 200.580338 
L 298.69734 198.659042 
L 301.77172 199.067828 
L 304.8461 199.231343 
L 307.92048 198.332013 
L 310.994861 196.819504 
L 314.069241 199.435736 
L 317.143621 198.618163 
L 320.218001 200.702974 
L 323.292381 196.288081 
L 326.366761 198.945193 
L 329.441142 198.740799 
L 332.515522 198.618163 
L 335.589902 197.432683 
L 338.664282 193.712727 
L 341.738662 198.168498 
L 344.813042 195.511387 
L 347.887423 197.350926 
L 350.961803 198.209377 
L 354.036183 196.451596 
L 357.110563 194.612057 
L 360.184943 196.860382 
" style="fill:none;stroke:#ff0000;stroke-linecap:square;stroke-width:1.5;"/>
   </g>
   <g id="line2d_23">
    <path clip-path="url(#p2597fdabd1)" d="M 55.821307 225.884213 
L 58.895687 222.450408 
L 61.970067 223.922039 
L 65.044447 222.409529 
L 68.118827 222.900073 
L 71.193208 222.041621 
L 74.267588 221.632835 
L 77.341968 221.837228 
L 80.416348 220.28384 
L 83.490728 222.654801 
L 86.565108 220.529112 
L 89.639489 220.651748 
L 92.713869 222.327772 
L 95.788249 219.834175 
L 98.862629 218.853088 
L 101.937009 222.450408 
L 105.011389 221.305806 
L 108.08577 220.324719 
L 111.16015 224.126432 
L 114.23453 224.371704 
L 117.30891 224.657854 
L 120.38329 222.777437 
L 123.45767 224.289946 
L 126.532051 225.352791 
L 129.606431 226.497393 
L 132.680811 229.236261 
L 135.755191 226.252121 
L 138.829571 230.053834 
L 141.903951 228.745717 
L 144.978332 229.931198 
L 148.052712 231.852494 
L 151.127092 231.157557 
L 154.201472 232.87446 
L 157.275852 232.87446 
L 160.350232 234.632241 
L 163.424613 235.8586 
L 166.498993 235.286299 
L 169.573373 235.327178 
L 172.647753 235.572449 
L 175.722133 235.735964 
L 178.796513 236.390022 
L 181.870894 238.474833 
L 184.945274 240.35525 
L 188.019654 240.518764 
L 191.094034 240.927551 
L 194.168414 238.965376 
L 197.242794 241.622487 
L 200.317175 243.911691 
L 203.391555 243.421147 
L 206.465935 243.543783 
L 209.540315 245.873865 
L 212.614695 245.75123 
L 215.689075 245.669472 
L 218.763456 244.034327 
L 221.837836 246.200895 
L 224.912216 248.898884 
L 227.986596 247.059346 
L 231.060976 246.732317 
L 234.135356 251.555996 
L 237.209737 248.694491 
L 240.284117 249.103278 
L 243.358497 249.430307 
L 246.432877 249.552943 
L 249.507257 250.615787 
L 252.581637 249.757336 
L 255.656018 249.471185 
L 258.730398 252.904991 
L 261.804778 249.839093 
L 264.879158 249.593821 
L 267.953538 251.43336 
L 271.027918 251.964782 
L 274.102299 252.659719 
L 277.176679 251.923903 
L 280.251059 254.458379 
L 283.325439 253.191141 
L 286.399819 255.03068 
L 289.474199 256.175282 
L 292.54858 254.499257 
L 295.62296 257.074611 
L 298.69734 259.282058 
L 301.77172 257.401641 
L 304.8461 255.153316 
L 307.92048 256.870218 
L 310.994861 259.077665 
L 314.069241 257.606034 
L 317.143621 259.2003 
L 320.218001 257.319883 
L 323.292381 254.621893 
L 326.366761 260.140509 
L 329.441142 257.524276 
L 332.515522 258.587121 
L 335.589902 259.772601 
L 338.664282 259.036786 
L 341.738662 258.995907 
L 344.813042 264.31013 
L 347.887423 261.080718 
L 350.961803 259.118543 
L 354.036183 261.162475 
L 357.110563 261.61214 
L 360.184943 260.958082 
" style="fill:none;stroke:#008000;stroke-linecap:square;stroke-width:1.5;"/>
   </g>
   <g id="patch_6">
    <path d="M 40.603125 267.84 
L 40.603125 190.182857 
" style="fill:none;stroke:#000000;stroke-linecap:square;stroke-linejoin:miter;stroke-width:0.8;"/>
   </g>
   <g id="patch_7">
    <path d="M 40.603125 267.84 
L 375.403125 267.84 
" style="fill:none;stroke:#000000;stroke-linecap:square;stroke-linejoin:miter;stroke-width:0.8;"/>
   </g>
   <g id="text_23">
    <!-- Trial End Replays -->
    <g transform="translate(157.109062 184.182857)scale(0.12 -0.12)">
     <defs>
      <path d="M 628 4666 
L 3578 4666 
L 3578 4134 
L 1259 4134 
L 1259 2753 
L 3481 2753 
L 3481 2222 
L 1259 2222 
L 1259 531 
L 3634 531 
L 3634 0 
L 628 0 
L 628 4666 
z
" id="DejaVuSans-45" transform="scale(0.015625)"/>
      <path d="M 3513 2113 
L 3513 0 
L 2938 0 
L 2938 2094 
Q 2938 2591 2744 2837 
Q 2550 3084 2163 3084 
Q 1697 3084 1428 2787 
Q 1159 2491 1159 1978 
L 1159 0 
L 581 0 
L 581 3500 
L 1159 3500 
L 1159 2956 
Q 1366 3272 1645 3428 
Q 1925 3584 2291 3584 
Q 2894 3584 3203 3211 
Q 3513 2838 3513 2113 
z
" id="DejaVuSans-6e" transform="scale(0.015625)"/>
      <path d="M 2906 2969 
L 2906 4863 
L 3481 4863 
L 3481 0 
L 2906 0 
L 2906 525 
Q 2725 213 2448 61 
Q 2172 -91 1784 -91 
Q 1150 -91 751 415 
Q 353 922 353 1747 
Q 353 2572 751 3078 
Q 1150 3584 1784 3584 
Q 2172 3584 2448 3432 
Q 2725 3281 2906 2969 
z
M 947 1747 
Q 947 1113 1208 752 
Q 1469 391 1925 391 
Q 2381 391 2643 752 
Q 2906 1113 2906 1747 
Q 2906 2381 2643 2742 
Q 2381 3103 1925 3103 
Q 1469 3103 1208 2742 
Q 947 2381 947 1747 
z
" id="DejaVuSans-64" transform="scale(0.015625)"/>
     </defs>
     <use xlink:href="#DejaVuSans-54"/>
     <use x="46.333984" xlink:href="#DejaVuSans-72"/>
     <use x="87.447266" xlink:href="#DejaVuSans-69"/>
     <use x="115.230469" xlink:href="#DejaVuSans-61"/>
     <use x="176.509766" xlink:href="#DejaVuSans-6c"/>
     <use x="204.292969" xlink:href="#DejaVuSans-20"/>
     <use x="236.080078" xlink:href="#DejaVuSans-45"/>
     <use x="299.263672" xlink:href="#DejaVuSans-6e"/>
     <use x="362.642578" xlink:href="#DejaVuSans-64"/>
     <use x="426.119141" xlink:href="#DejaVuSans-20"/>
     <use x="457.90625" xlink:href="#DejaVuSans-52"/>
     <use x="522.888672" xlink:href="#DejaVuSans-65"/>
     <use x="584.412109" xlink:href="#DejaVuSans-70"/>
     <use x="647.888672" xlink:href="#DejaVuSans-6c"/>
     <use x="675.671875" xlink:href="#DejaVuSans-61"/>
     <use x="736.951172" xlink:href="#DejaVuSans-79"/>
     <use x="796.130859" xlink:href="#DejaVuSans-73"/>
    </g>
   </g>
   <g id="legend_1">
    <g id="patch_8">
     <path d="M 54.676875 333.882321 
L 361.329375 333.882321 
Q 363.729375 333.882321 363.729375 331.482321 
L 363.729375 315.068571 
Q 363.729375 312.668571 361.329375 312.668571 
L 54.676875 312.668571 
Q 52.276875 312.668571 52.276875 315.068571 
L 52.276875 331.482321 
Q 52.276875 333.882321 54.676875 333.882321 
z
" style="fill:none;opacity:0;"/>
    </g>
    <g id="line2d_24">
     <path d="M 57.076875 322.386696 
L 81.076875 322.386696 
" style="fill:none;stroke:#0000ff;stroke-linecap:square;stroke-width:1.5;"/>
    </g>
    <g id="line2d_25"/>
    <g id="text_24">
     <!-- forward -->
     <g transform="translate(90.676875 326.586696)scale(0.12 -0.12)">
      <defs>
       <path d="M 2375 4863 
L 2375 4384 
L 1825 4384 
Q 1516 4384 1395 4259 
Q 1275 4134 1275 3809 
L 1275 3500 
L 2222 3500 
L 2222 3053 
L 1275 3053 
L 1275 0 
L 697 0 
L 697 3053 
L 147 3053 
L 147 3500 
L 697 3500 
L 697 3744 
Q 697 4328 969 4595 
Q 1241 4863 1831 4863 
L 2375 4863 
z
" id="DejaVuSans-66" transform="scale(0.015625)"/>
       <path d="M 1959 3097 
Q 1497 3097 1228 2736 
Q 959 2375 959 1747 
Q 959 1119 1226 758 
Q 1494 397 1959 397 
Q 2419 397 2687 759 
Q 2956 1122 2956 1747 
Q 2956 2369 2687 2733 
Q 2419 3097 1959 3097 
z
M 1959 3584 
Q 2709 3584 3137 3096 
Q 3566 2609 3566 1747 
Q 3566 888 3137 398 
Q 2709 -91 1959 -91 
Q 1206 -91 779 398 
Q 353 888 353 1747 
Q 353 2609 779 3096 
Q 1206 3584 1959 3584 
z
" id="DejaVuSans-6f" transform="scale(0.015625)"/>
       <path d="M 269 3500 
L 844 3500 
L 1563 769 
L 2278 3500 
L 2956 3500 
L 3675 769 
L 4391 3500 
L 4966 3500 
L 4050 0 
L 3372 0 
L 2619 2869 
L 1863 0 
L 1184 0 
L 269 3500 
z
" id="DejaVuSans-77" transform="scale(0.015625)"/>
      </defs>
      <use xlink:href="#DejaVuSans-66"/>
      <use x="35.205078" xlink:href="#DejaVuSans-6f"/>
      <use x="96.386719" xlink:href="#DejaVuSans-72"/>
      <use x="137.5" xlink:href="#DejaVuSans-77"/>
      <use x="219.287109" xlink:href="#DejaVuSans-61"/>
      <use x="280.566406" xlink:href="#DejaVuSans-72"/>
      <use x="319.929688" xlink:href="#DejaVuSans-64"/>
     </g>
    </g>
    <g id="line2d_26">
     <path d="M 160.685625 322.386696 
L 184.685625 322.386696 
" style="fill:none;stroke:#ff0000;stroke-linecap:square;stroke-width:1.5;"/>
    </g>
    <g id="line2d_27"/>
    <g id="text_25">
     <!-- reverse -->
     <g transform="translate(194.285625 326.586696)scale(0.12 -0.12)">
      <defs>
       <path d="M 191 3500 
L 800 3500 
L 1894 563 
L 2988 3500 
L 3597 3500 
L 2284 0 
L 1503 0 
L 191 3500 
z
" id="DejaVuSans-76" transform="scale(0.015625)"/>
      </defs>
      <use xlink:href="#DejaVuSans-72"/>
      <use x="38.863281" xlink:href="#DejaVuSans-65"/>
      <use x="100.386719" xlink:href="#DejaVuSans-76"/>
      <use x="159.566406" xlink:href="#DejaVuSans-65"/>
      <use x="221.089844" xlink:href="#DejaVuSans-72"/>
      <use x="262.203125" xlink:href="#DejaVuSans-73"/>
      <use x="314.302734" xlink:href="#DejaVuSans-65"/>
     </g>
    </g>
    <g id="line2d_28">
     <path d="M 263.386875 322.386696 
L 287.386875 322.386696 
" style="fill:none;stroke:#008000;stroke-linecap:square;stroke-width:1.5;"/>
    </g>
    <g id="line2d_29"/>
    <g id="text_26">
     <!-- unordered -->
     <g transform="translate(296.986875 326.586696)scale(0.12 -0.12)">
      <defs>
       <path d="M 544 1381 
L 544 3500 
L 1119 3500 
L 1119 1403 
Q 1119 906 1312 657 
Q 1506 409 1894 409 
Q 2359 409 2629 706 
Q 2900 1003 2900 1516 
L 2900 3500 
L 3475 3500 
L 3475 0 
L 2900 0 
L 2900 538 
Q 2691 219 2414 64 
Q 2138 -91 1772 -91 
Q 1169 -91 856 284 
Q 544 659 544 1381 
z
M 1991 3584 
L 1991 3584 
z
" id="DejaVuSans-75" transform="scale(0.015625)"/>
      </defs>
      <use xlink:href="#DejaVuSans-75"/>
      <use x="63.378906" xlink:href="#DejaVuSans-6e"/>
      <use x="126.757812" xlink:href="#DejaVuSans-6f"/>
      <use x="187.939453" xlink:href="#DejaVuSans-72"/>
      <use x="227.302734" xlink:href="#DejaVuSans-64"/>
      <use x="290.779297" xlink:href="#DejaVuSans-65"/>
      <use x="352.302734" xlink:href="#DejaVuSans-72"/>
      <use x="391.166016" xlink:href="#DejaVuSans-65"/>
      <use x="452.689453" xlink:href="#DejaVuSans-64"/>
     </g>
    </g>
   </g>
  </g>
  <g id="text_27">
   <!-- Labyrinth, Default Mode -->
   <g transform="translate(112.024219 18.597656)scale(0.15 -0.15)">
    <defs>
     <path d="M 628 4666 
L 1259 4666 
L 1259 531 
L 3531 531 
L 3531 0 
L 628 0 
L 628 4666 
z
" id="DejaVuSans-4c" transform="scale(0.015625)"/>
     <path d="M 3116 1747 
Q 3116 2381 2855 2742 
Q 2594 3103 2138 3103 
Q 1681 3103 1420 2742 
Q 1159 2381 1159 1747 
Q 1159 1113 1420 752 
Q 1681 391 2138 391 
Q 2594 391 2855 752 
Q 3116 1113 3116 1747 
z
M 1159 2969 
Q 1341 3281 1617 3432 
Q 1894 3584 2278 3584 
Q 2916 3584 3314 3078 
Q 3713 2572 3713 1747 
Q 3713 922 3314 415 
Q 2916 -91 2278 -91 
Q 1894 -91 1617 61 
Q 1341 213 1159 525 
L 1159 0 
L 581 0 
L 581 4863 
L 1159 4863 
L 1159 2969 
z
" id="DejaVuSans-62" transform="scale(0.015625)"/>
     <path d="M 3513 2113 
L 3513 0 
L 2938 0 
L 2938 2094 
Q 2938 2591 2744 2837 
Q 2550 3084 2163 3084 
Q 1697 3084 1428 2787 
Q 1159 2491 1159 1978 
L 1159 0 
L 581 0 
L 581 4863 
L 1159 4863 
L 1159 2956 
Q 1366 3272 1645 3428 
Q 1925 3584 2291 3584 
Q 2894 3584 3203 3211 
Q 3513 2838 3513 2113 
z
" id="DejaVuSans-68" transform="scale(0.015625)"/>
     <path d="M 750 794 
L 1409 794 
L 1409 256 
L 897 -744 
L 494 -744 
L 750 256 
L 750 794 
z
" id="DejaVuSans-2c" transform="scale(0.015625)"/>
     <path d="M 1259 4147 
L 1259 519 
L 2022 519 
Q 2988 519 3436 956 
Q 3884 1394 3884 2338 
Q 3884 3275 3436 3711 
Q 2988 4147 2022 4147 
L 1259 4147 
z
M 628 4666 
L 1925 4666 
Q 3281 4666 3915 4102 
Q 4550 3538 4550 2338 
Q 4550 1131 3912 565 
Q 3275 0 1925 0 
L 628 0 
L 628 4666 
z
" id="DejaVuSans-44" transform="scale(0.015625)"/>
     <path d="M 628 4666 
L 1569 4666 
L 2759 1491 
L 3956 4666 
L 4897 4666 
L 4897 0 
L 4281 0 
L 4281 4097 
L 3078 897 
L 2444 897 
L 1241 4097 
L 1241 0 
L 628 0 
L 628 4666 
z
" id="DejaVuSans-4d" transform="scale(0.015625)"/>
    </defs>
    <use xlink:href="#DejaVuSans-4c"/>
    <use x="55.712891" xlink:href="#DejaVuSans-61"/>
    <use x="116.992188" xlink:href="#DejaVuSans-62"/>
    <use x="180.46875" xlink:href="#DejaVuSans-79"/>
    <use x="239.648438" xlink:href="#DejaVuSans-72"/>
    <use x="280.761719" xlink:href="#DejaVuSans-69"/>
    <use x="308.544922" xlink:href="#DejaVuSans-6e"/>
    <use x="371.923828" xlink:href="#DejaVuSans-74"/>
    <use x="411.132812" xlink:href="#DejaVuSans-68"/>
    <use x="474.511719" xlink:href="#DejaVuSans-2c"/>
    <use x="506.298828" xlink:href="#DejaVuSans-20"/>
    <use x="538.085938" xlink:href="#DejaVuSans-44"/>
    <use x="615.087891" xlink:href="#DejaVuSans-65"/>
    <use x="676.611328" xlink:href="#DejaVuSans-66"/>
    <use x="711.816406" xlink:href="#DejaVuSans-61"/>
    <use x="773.095703" xlink:href="#DejaVuSans-75"/>
    <use x="836.474609" xlink:href="#DejaVuSans-6c"/>
    <use x="864.257812" xlink:href="#DejaVuSans-74"/>
    <use x="903.466797" xlink:href="#DejaVuSans-20"/>
    <use x="935.253906" xlink:href="#DejaVuSans-4d"/>
    <use x="1021.533203" xlink:href="#DejaVuSans-6f"/>
    <use x="1082.714844" xlink:href="#DejaVuSans-64"/>
    <use x="1146.191406" xlink:href="#DejaVuSans-65"/>
   </g>
  </g>
 </g>
 <defs>
  <clipPath id="p6e90ebfe1c">
   <rect height="77.657143" width="334.8" x="40.603125" y="50.4"/>
  </clipPath>
  <clipPath id="p2597fdabd1">
   <rect height="77.657143" width="334.8" x="40.603125" y="190.182857"/>
  </clipPath>
 </defs>
</svg>
