<?xml version="1.0" encoding="utf-8" standalone="no"?>
<!DOCTYPE svg PUBLIC "-//W3C//DTD SVG 1.1//EN"
  "http://www.w3.org/Graphics/SVG/1.1/DTD/svg11.dtd">
<svg height="341.082321pt" version="1.1" viewBox="0 0 382.603125 341.082321" width="382.603125pt" xmlns="http://www.w3.org/2000/svg" xmlns:xlink="http://www.w3.org/1999/xlink">
 <metadata>
  <rdf:RDF xmlns:cc="http://creativecommons.org/ns#" xmlns:dc="http://purl.org/dc/elements/1.1/" xmlns:rdf="http://www.w3.org/1999/02/22-rdf-syntax-ns#">
   <cc:Work>
    <dc:type rdf:resource="http://purl.org/dc/dcmitype/StillImage"/>
    <dc:date>2022-07-21T20:15:10.122337</dc:date>
    <dc:format>image/svg+xml</dc:format>
    <dc:creator>
     <cc:Agent>
      <dc:title>Matplotlib v3.4.3, https://matplotlib.org/</dc:title>
     </cc:Agent>
    </dc:creator>
   </cc:Work>
  </rdf:RDF>
 </metadata>
 <defs>
  <style type="text/css">*{stroke-linecap:butt;stroke-linejoin:round;}</style>
 </defs>
 <g id="figure_1">
  <g id="patch_1">
   <path d="M 0 341.082321 
L 382.603125 341.082321 
L 382.603125 0 
L 0 0 
z
" style="fill:none;"/>
  </g>
  <g id="axes_1">
   <g id="patch_2">
    <path d="M 40.603125 128.057143 
L 375.403125 128.057143 
L 375.403125 50.4 
L 40.603125 50.4 
z
" style="fill:none;"/>
   </g>
   <g id="matplotlib.axis_1">
    <g id="xtick_1">
     <g id="line2d_1">
      <defs>
       <path d="M 0 0 
L 0 3.5 
" id="m5bc405a003" style="stroke:#000000;stroke-width:0.8;"/>
      </defs>
      <g>
       <use style="stroke:#000000;stroke-width:0.8;" x="55.821307" xlink:href="#m5bc405a003" y="128.057143"/>
      </g>
     </g>
     <g id="text_1">
      <!-- 0 -->
      <g transform="translate(52.640057 142.65558)scale(0.1 -0.1)">
       <defs>
        <path d="M 2034 4250 
Q 1547 4250 1301 3770 
Q 1056 3291 1056 2328 
Q 1056 1369 1301 889 
Q 1547 409 2034 409 
Q 2525 409 2770 889 
Q 3016 1369 3016 2328 
Q 3016 3291 2770 3770 
Q 2525 4250 2034 4250 
z
M 2034 4750 
Q 2819 4750 3233 4129 
Q 3647 3509 3647 2328 
Q 3647 1150 3233 529 
Q 2819 -91 2034 -91 
Q 1250 -91 836 529 
Q 422 1150 422 2328 
Q 422 3509 836 4129 
Q 1250 4750 2034 4750 
z
" id="DejaVuSans-30" transform="scale(0.015625)"/>
       </defs>
       <use xlink:href="#DejaVuSans-30"/>
      </g>
     </g>
    </g>
    <g id="xtick_2">
     <g id="line2d_2">
      <g>
       <use style="stroke:#000000;stroke-width:0.8;" x="117.30891" xlink:href="#m5bc405a003" y="128.057143"/>
      </g>
     </g>
     <g id="text_2">
      <!-- 20 -->
      <g transform="translate(110.94641 142.65558)scale(0.1 -0.1)">
       <defs>
        <path d="M 1228 531 
L 3431 531 
L 3431 0 
L 469 0 
L 469 531 
Q 828 903 1448 1529 
Q 2069 2156 2228 2338 
Q 2531 2678 2651 2914 
Q 2772 3150 2772 3378 
Q 2772 3750 2511 3984 
Q 2250 4219 1831 4219 
Q 1534 4219 1204 4116 
Q 875 4013 500 3803 
L 500 4441 
Q 881 4594 1212 4672 
Q 1544 4750 1819 4750 
Q 2544 4750 2975 4387 
Q 3406 4025 3406 3419 
Q 3406 3131 3298 2873 
Q 3191 2616 2906 2266 
Q 2828 2175 2409 1742 
Q 1991 1309 1228 531 
z
" id="DejaVuSans-32" transform="scale(0.015625)"/>
       </defs>
       <use xlink:href="#DejaVuSans-32"/>
       <use x="63.623047" xlink:href="#DejaVuSans-30"/>
      </g>
     </g>
    </g>
    <g id="xtick_3">
     <g id="line2d_3">
      <g>
       <use style="stroke:#000000;stroke-width:0.8;" x="178.796513" xlink:href="#m5bc405a003" y="128.057143"/>
      </g>
     </g>
     <g id="text_3">
      <!-- 40 -->
      <g transform="translate(172.434013 142.65558)scale(0.1 -0.1)">
       <defs>
        <path d="M 2419 4116 
L 825 1625 
L 2419 1625 
L 2419 4116 
z
M 2253 4666 
L 3047 4666 
L 3047 1625 
L 3713 1625 
L 3713 1100 
L 3047 1100 
L 3047 0 
L 2419 0 
L 2419 1100 
L 313 1100 
L 313 1709 
L 2253 4666 
z
" id="DejaVuSans-34" transform="scale(0.015625)"/>
       </defs>
       <use xlink:href="#DejaVuSans-34"/>
       <use x="63.623047" xlink:href="#DejaVuSans-30"/>
      </g>
     </g>
    </g>
    <g id="xtick_4">
     <g id="line2d_4">
      <g>
       <use style="stroke:#000000;stroke-width:0.8;" x="240.284117" xlink:href="#m5bc405a003" y="128.057143"/>
      </g>
     </g>
     <g id="text_4">
      <!-- 60 -->
      <g transform="translate(233.921617 142.65558)scale(0.1 -0.1)">
       <defs>
        <path d="M 2113 2584 
Q 1688 2584 1439 2293 
Q 1191 2003 1191 1497 
Q 1191 994 1439 701 
Q 1688 409 2113 409 
Q 2538 409 2786 701 
Q 3034 994 3034 1497 
Q 3034 2003 2786 2293 
Q 2538 2584 2113 2584 
z
M 3366 4563 
L 3366 3988 
Q 3128 4100 2886 4159 
Q 2644 4219 2406 4219 
Q 1781 4219 1451 3797 
Q 1122 3375 1075 2522 
Q 1259 2794 1537 2939 
Q 1816 3084 2150 3084 
Q 2853 3084 3261 2657 
Q 3669 2231 3669 1497 
Q 3669 778 3244 343 
Q 2819 -91 2113 -91 
Q 1303 -91 875 529 
Q 447 1150 447 2328 
Q 447 3434 972 4092 
Q 1497 4750 2381 4750 
Q 2619 4750 2861 4703 
Q 3103 4656 3366 4563 
z
" id="DejaVuSans-36" transform="scale(0.015625)"/>
       </defs>
       <use xlink:href="#DejaVuSans-36"/>
       <use x="63.623047" xlink:href="#DejaVuSans-30"/>
      </g>
     </g>
    </g>
    <g id="xtick_5">
     <g id="line2d_5">
      <g>
       <use style="stroke:#000000;stroke-width:0.8;" x="301.77172" xlink:href="#m5bc405a003" y="128.057143"/>
      </g>
     </g>
     <g id="text_5">
      <!-- 80 -->
      <g transform="translate(295.40922 142.65558)scale(0.1 -0.1)">
       <defs>
        <path d="M 2034 2216 
Q 1584 2216 1326 1975 
Q 1069 1734 1069 1313 
Q 1069 891 1326 650 
Q 1584 409 2034 409 
Q 2484 409 2743 651 
Q 3003 894 3003 1313 
Q 3003 1734 2745 1975 
Q 2488 2216 2034 2216 
z
M 1403 2484 
Q 997 2584 770 2862 
Q 544 3141 544 3541 
Q 544 4100 942 4425 
Q 1341 4750 2034 4750 
Q 2731 4750 3128 4425 
Q 3525 4100 3525 3541 
Q 3525 3141 3298 2862 
Q 3072 2584 2669 2484 
Q 3125 2378 3379 2068 
Q 3634 1759 3634 1313 
Q 3634 634 3220 271 
Q 2806 -91 2034 -91 
Q 1263 -91 848 271 
Q 434 634 434 1313 
Q 434 1759 690 2068 
Q 947 2378 1403 2484 
z
M 1172 3481 
Q 1172 3119 1398 2916 
Q 1625 2713 2034 2713 
Q 2441 2713 2670 2916 
Q 2900 3119 2900 3481 
Q 2900 3844 2670 4047 
Q 2441 4250 2034 4250 
Q 1625 4250 1398 4047 
Q 1172 3844 1172 3481 
z
" id="DejaVuSans-38" transform="scale(0.015625)"/>
       </defs>
       <use xlink:href="#DejaVuSans-38"/>
       <use x="63.623047" xlink:href="#DejaVuSans-30"/>
      </g>
     </g>
    </g>
    <g id="xtick_6">
     <g id="line2d_6">
      <g>
       <use style="stroke:#000000;stroke-width:0.8;" x="363.259323" xlink:href="#m5bc405a003" y="128.057143"/>
      </g>
     </g>
     <g id="text_6">
      <!-- 100 -->
      <g transform="translate(353.715573 142.65558)scale(0.1 -0.1)">
       <defs>
        <path d="M 794 531 
L 1825 531 
L 1825 4091 
L 703 3866 
L 703 4441 
L 1819 4666 
L 2450 4666 
L 2450 531 
L 3481 531 
L 3481 0 
L 794 0 
L 794 531 
z
" id="DejaVuSans-31" transform="scale(0.015625)"/>
       </defs>
       <use xlink:href="#DejaVuSans-31"/>
       <use x="63.623047" xlink:href="#DejaVuSans-30"/>
       <use x="127.246094" xlink:href="#DejaVuSans-30"/>
      </g>
     </g>
    </g>
    <g id="text_7">
     <!-- Trial -->
     <g transform="translate(197.789062 156.333705)scale(0.1 -0.1)">
      <defs>
       <path d="M -19 4666 
L 3928 4666 
L 3928 4134 
L 2272 4134 
L 2272 0 
L 1638 0 
L 1638 4134 
L -19 4134 
L -19 4666 
z
" id="DejaVuSans-54" transform="scale(0.015625)"/>
       <path d="M 2631 2963 
Q 2534 3019 2420 3045 
Q 2306 3072 2169 3072 
Q 1681 3072 1420 2755 
Q 1159 2438 1159 1844 
L 1159 0 
L 581 0 
L 581 3500 
L 1159 3500 
L 1159 2956 
Q 1341 3275 1631 3429 
Q 1922 3584 2338 3584 
Q 2397 3584 2469 3576 
Q 2541 3569 2628 3553 
L 2631 2963 
z
" id="DejaVuSans-72" transform="scale(0.015625)"/>
       <path d="M 603 3500 
L 1178 3500 
L 1178 0 
L 603 0 
L 603 3500 
z
M 603 4863 
L 1178 4863 
L 1178 4134 
L 603 4134 
L 603 4863 
z
" id="DejaVuSans-69" transform="scale(0.015625)"/>
       <path d="M 2194 1759 
Q 1497 1759 1228 1600 
Q 959 1441 959 1056 
Q 959 750 1161 570 
Q 1363 391 1709 391 
Q 2188 391 2477 730 
Q 2766 1069 2766 1631 
L 2766 1759 
L 2194 1759 
z
M 3341 1997 
L 3341 0 
L 2766 0 
L 2766 531 
Q 2569 213 2275 61 
Q 1981 -91 1556 -91 
Q 1019 -91 701 211 
Q 384 513 384 1019 
Q 384 1609 779 1909 
Q 1175 2209 1959 2209 
L 2766 2209 
L 2766 2266 
Q 2766 2663 2505 2880 
Q 2244 3097 1772 3097 
Q 1472 3097 1187 3025 
Q 903 2953 641 2809 
L 641 3341 
Q 956 3463 1253 3523 
Q 1550 3584 1831 3584 
Q 2591 3584 2966 3190 
Q 3341 2797 3341 1997 
z
" id="DejaVuSans-61" transform="scale(0.015625)"/>
       <path d="M 603 4863 
L 1178 4863 
L 1178 0 
L 603 0 
L 603 4863 
z
" id="DejaVuSans-6c" transform="scale(0.015625)"/>
      </defs>
      <use xlink:href="#DejaVuSans-54"/>
      <use x="46.333984" xlink:href="#DejaVuSans-72"/>
      <use x="87.447266" xlink:href="#DejaVuSans-69"/>
      <use x="115.230469" xlink:href="#DejaVuSans-61"/>
      <use x="176.509766" xlink:href="#DejaVuSans-6c"/>
     </g>
    </g>
   </g>
   <g id="matplotlib.axis_2">
    <g id="ytick_1">
     <g id="line2d_7">
      <defs>
       <path d="M 0 0 
L -3.5 0 
" id="m20df9bcb8f" style="stroke:#000000;stroke-width:0.8;"/>
      </defs>
      <g>
       <use style="stroke:#000000;stroke-width:0.8;" x="40.603125" xlink:href="#m20df9bcb8f" y="124.527273"/>
      </g>
     </g>
     <g id="text_8">
      <!-- 0 -->
      <g transform="translate(27.240625 128.326491)scale(0.1 -0.1)">
       <use xlink:href="#DejaVuSans-30"/>
      </g>
     </g>
    </g>
    <g id="ytick_2">
     <g id="line2d_8">
      <g>
       <use style="stroke:#000000;stroke-width:0.8;" x="40.603125" xlink:href="#m20df9bcb8f" y="95.282284"/>
      </g>
     </g>
     <g id="text_9">
      <!-- 20 -->
      <g transform="translate(20.878125 99.081503)scale(0.1 -0.1)">
       <use xlink:href="#DejaVuSans-32"/>
       <use x="63.623047" xlink:href="#DejaVuSans-30"/>
      </g>
     </g>
    </g>
    <g id="ytick_3">
     <g id="line2d_9">
      <g>
       <use style="stroke:#000000;stroke-width:0.8;" x="40.603125" xlink:href="#m20df9bcb8f" y="66.037295"/>
      </g>
     </g>
     <g id="text_10">
      <!-- 40 -->
      <g transform="translate(20.878125 69.836514)scale(0.1 -0.1)">
       <use xlink:href="#DejaVuSans-34"/>
       <use x="63.623047" xlink:href="#DejaVuSans-30"/>
      </g>
     </g>
    </g>
    <g id="text_11">
     <!-- Pairs [#] -->
     <g transform="translate(14.798438 110.812165)rotate(-90)scale(0.1 -0.1)">
      <defs>
       <path d="M 1259 4147 
L 1259 2394 
L 2053 2394 
Q 2494 2394 2734 2622 
Q 2975 2850 2975 3272 
Q 2975 3691 2734 3919 
Q 2494 4147 2053 4147 
L 1259 4147 
z
M 628 4666 
L 2053 4666 
Q 2838 4666 3239 4311 
Q 3641 3956 3641 3272 
Q 3641 2581 3239 2228 
Q 2838 1875 2053 1875 
L 1259 1875 
L 1259 0 
L 628 0 
L 628 4666 
z
" id="DejaVuSans-50" transform="scale(0.015625)"/>
       <path d="M 2834 3397 
L 2834 2853 
Q 2591 2978 2328 3040 
Q 2066 3103 1784 3103 
Q 1356 3103 1142 2972 
Q 928 2841 928 2578 
Q 928 2378 1081 2264 
Q 1234 2150 1697 2047 
L 1894 2003 
Q 2506 1872 2764 1633 
Q 3022 1394 3022 966 
Q 3022 478 2636 193 
Q 2250 -91 1575 -91 
Q 1294 -91 989 -36 
Q 684 19 347 128 
L 347 722 
Q 666 556 975 473 
Q 1284 391 1588 391 
Q 1994 391 2212 530 
Q 2431 669 2431 922 
Q 2431 1156 2273 1281 
Q 2116 1406 1581 1522 
L 1381 1569 
Q 847 1681 609 1914 
Q 372 2147 372 2553 
Q 372 3047 722 3315 
Q 1072 3584 1716 3584 
Q 2034 3584 2315 3537 
Q 2597 3491 2834 3397 
z
" id="DejaVuSans-73" transform="scale(0.015625)"/>
       <path id="DejaVuSans-20" transform="scale(0.015625)"/>
       <path d="M 550 4863 
L 1875 4863 
L 1875 4416 
L 1125 4416 
L 1125 -397 
L 1875 -397 
L 1875 -844 
L 550 -844 
L 550 4863 
z
" id="DejaVuSans-5b" transform="scale(0.015625)"/>
       <path d="M 3272 2816 
L 2363 2816 
L 2100 1772 
L 3016 1772 
L 3272 2816 
z
M 2803 4594 
L 2478 3297 
L 3391 3297 
L 3719 4594 
L 4219 4594 
L 3897 3297 
L 4872 3297 
L 4872 2816 
L 3775 2816 
L 3519 1772 
L 4513 1772 
L 4513 1294 
L 3397 1294 
L 3072 0 
L 2572 0 
L 2894 1294 
L 1978 1294 
L 1656 0 
L 1153 0 
L 1478 1294 
L 494 1294 
L 494 1772 
L 1594 1772 
L 1856 2816 
L 850 2816 
L 850 3297 
L 1978 3297 
L 2297 4594 
L 2803 4594 
z
" id="DejaVuSans-23" transform="scale(0.015625)"/>
       <path d="M 1947 4863 
L 1947 -844 
L 622 -844 
L 622 -397 
L 1369 -397 
L 1369 4416 
L 622 4416 
L 622 4863 
L 1947 4863 
z
" id="DejaVuSans-5d" transform="scale(0.015625)"/>
      </defs>
      <use xlink:href="#DejaVuSans-50"/>
      <use x="55.802734" xlink:href="#DejaVuSans-61"/>
      <use x="117.082031" xlink:href="#DejaVuSans-69"/>
      <use x="144.865234" xlink:href="#DejaVuSans-72"/>
      <use x="185.978516" xlink:href="#DejaVuSans-73"/>
      <use x="238.078125" xlink:href="#DejaVuSans-20"/>
      <use x="269.865234" xlink:href="#DejaVuSans-5b"/>
      <use x="308.878906" xlink:href="#DejaVuSans-23"/>
      <use x="392.667969" xlink:href="#DejaVuSans-5d"/>
     </g>
    </g>
   </g>
   <g id="line2d_10">
    <path clip-path="url(#p03ddb78033)" d="M 55.821307 124.527273 
L 58.895687 120.652312 
L 61.970067 122.582481 
L 65.044447 123.152758 
L 68.118827 122.991911 
L 71.193208 123.357473 
L 74.267588 123.094268 
L 77.341968 123.196626 
L 80.416348 123.240493 
L 83.490728 123.167381 
L 86.565108 123.182003 
L 89.639489 123.313606 
L 92.713869 123.182003 
L 95.788249 123.284361 
L 98.862629 123.255116 
L 101.937009 123.372096 
L 105.011389 123.225871 
L 108.08577 123.284361 
L 111.16015 123.474453 
L 114.23453 123.357473 
L 117.30891 123.372096 
L 120.38329 123.430586 
L 123.45767 123.474453 
L 126.532051 123.328228 
L 129.606431 123.313606 
L 132.680811 123.298983 
L 135.755191 123.415963 
L 138.829571 123.357473 
L 141.903951 123.474453 
L 144.978332 123.298983 
L 148.052712 123.401341 
L 151.127092 123.430586 
L 154.201472 123.328228 
L 157.275852 123.386718 
L 160.350232 123.284361 
L 163.424613 123.372096 
L 166.498993 123.328228 
L 169.573373 123.298983 
L 172.647753 123.401341 
L 175.722133 123.182003 
L 178.796513 123.298983 
L 181.870894 123.182003 
L 184.945274 123.255116 
L 188.019654 123.225871 
L 191.094034 123.401341 
L 194.168414 123.401341 
L 197.242794 123.182003 
L 200.317175 123.342851 
L 203.391555 123.284361 
L 206.465935 123.196626 
L 209.540315 123.298983 
L 212.614695 123.255116 
L 215.689075 123.255116 
L 218.763456 123.225871 
L 221.837836 123.211248 
L 224.912216 123.152758 
L 227.986596 123.182003 
L 231.060976 123.225871 
L 234.135356 123.138136 
L 237.209737 123.021156 
L 240.284117 123.065023 
L 243.358497 123.152758 
L 246.432877 123.152758 
L 249.507257 123.094268 
L 252.581637 123.167381 
L 255.656018 123.094268 
L 258.730398 123.065023 
L 261.804778 123.152758 
L 264.879158 123.065023 
L 267.953538 123.108891 
L 271.027918 123.006533 
L 274.102299 122.948043 
L 277.176679 123.050401 
L 280.251059 123.050401 
L 283.325439 122.962666 
L 286.399819 123.138136 
L 289.474199 122.889553 
L 292.54858 123.050401 
L 295.62296 123.050401 
L 298.69734 123.108891 
L 301.77172 123.108891 
L 304.8461 123.094268 
L 307.92048 122.874931 
L 310.994861 123.035778 
L 314.069241 123.050401 
L 317.143621 122.933421 
L 320.218001 122.918798 
L 323.292381 122.918798 
L 326.366761 123.079646 
L 329.441142 123.035778 
L 332.515522 122.831063 
L 335.589902 122.845686 
L 338.664282 122.860308 
L 341.738662 123.079646 
L 344.813042 122.918798 
L 347.887423 122.831063 
L 350.961803 122.874931 
L 354.036183 122.962666 
L 357.110563 122.874931 
L 360.184943 122.831063 
" style="fill:none;stroke:#0000ff;stroke-linecap:square;stroke-width:1.5;"/>
   </g>
   <g id="line2d_11">
    <path clip-path="url(#p03ddb78033)" d="M 55.821307 124.527273 
L 58.895687 57.146819 
L 61.970067 54.836465 
L 65.044447 54.266187 
L 68.118827 54.441657 
L 71.193208 54.076095 
L 74.267588 54.3393 
L 77.341968 54.22232 
L 80.416348 54.193075 
L 83.490728 54.236943 
L 86.565108 54.266187 
L 89.639489 54.10534 
L 92.713869 54.251565 
L 95.788249 54.119963 
L 98.862629 54.178453 
L 101.937009 54.10534 
L 105.011389 54.22232 
L 108.08577 54.149208 
L 111.16015 53.92987 
L 114.23453 54.04685 
L 117.30891 54.032228 
L 120.38329 54.002983 
L 123.45767 53.959115 
L 126.532051 54.090718 
L 129.606431 54.090718 
L 132.680811 54.119963 
L 135.755191 54.017605 
L 138.829571 54.076095 
L 141.903951 53.959115 
L 144.978332 54.134585 
L 148.052712 54.002983 
L 151.127092 53.973738 
L 154.201472 54.090718 
L 157.275852 54.076095 
L 160.350232 54.16383 
L 163.424613 54.076095 
L 166.498993 54.076095 
L 169.573373 54.10534 
L 172.647753 54.032228 
L 175.722133 54.251565 
L 178.796513 54.10534 
L 181.870894 54.236943 
L 184.945274 54.16383 
L 188.019654 54.178453 
L 191.094034 54.017605 
L 194.168414 54.017605 
L 197.242794 54.236943 
L 200.317175 54.061473 
L 203.391555 54.16383 
L 206.465935 54.22232 
L 209.540315 54.134585 
L 212.614695 54.149208 
L 215.689075 54.207698 
L 218.763456 54.178453 
L 221.837836 54.22232 
L 224.912216 54.295432 
L 227.986596 54.236943 
L 231.060976 54.193075 
L 234.135356 54.295432 
L 237.209737 54.441657 
L 240.284117 54.3393 
L 243.358497 54.295432 
L 246.432877 54.295432 
L 249.507257 54.310055 
L 252.581637 54.266187 
L 255.656018 54.353922 
L 258.730398 54.3393 
L 261.804778 54.295432 
L 264.879158 54.353922 
L 267.953538 54.324677 
L 271.027918 54.412412 
L 274.102299 54.529392 
L 277.176679 54.383167 
L 280.251059 54.383167 
L 283.325439 54.45628 
L 286.399819 54.310055 
L 289.474199 54.544015 
L 292.54858 54.368545 
L 295.62296 54.368545 
L 298.69734 54.310055 
L 301.77172 54.310055 
L 304.8461 54.324677 
L 307.92048 54.529392 
L 310.994861 54.39779 
L 314.069241 54.368545 
L 317.143621 54.470902 
L 320.218001 54.500147 
L 323.292381 54.500147 
L 326.366761 54.324677 
L 329.441142 54.39779 
L 332.515522 54.617127 
L 335.589902 54.587882 
L 338.664282 54.57326 
L 341.738662 54.3393 
L 344.813042 54.558637 
L 347.887423 54.57326 
L 350.961803 54.558637 
L 354.036183 54.441657 
L 357.110563 54.57326 
L 360.184943 54.602505 
" style="fill:none;stroke:#ff0000;stroke-linecap:square;stroke-width:1.5;"/>
   </g>
   <g id="line2d_12">
    <path clip-path="url(#p03ddb78033)" d="M 55.821307 124.527273 
L 58.895687 124.132465 
L 61.970067 124.51265 
L 65.044447 124.51265 
L 68.118827 124.498028 
L 71.193208 124.498028 
L 74.267588 124.498028 
L 77.341968 124.51265 
L 80.416348 124.498028 
L 83.490728 124.527273 
L 86.565108 124.483405 
L 89.639489 124.51265 
L 92.713869 124.498028 
L 95.788249 124.527273 
L 98.862629 124.498028 
L 101.937009 124.45416 
L 105.011389 124.483405 
L 108.08577 124.498028 
L 111.16015 124.527273 
L 114.23453 124.527273 
L 117.30891 124.527273 
L 120.38329 124.498028 
L 123.45767 124.498028 
L 126.532051 124.51265 
L 129.606431 124.527273 
L 132.680811 124.51265 
L 135.755191 124.498028 
L 138.829571 124.498028 
L 141.903951 124.498028 
L 144.978332 124.498028 
L 148.052712 124.527273 
L 151.127092 124.527273 
L 154.201472 124.51265 
L 157.275852 124.468783 
L 160.350232 124.483405 
L 163.424613 124.483405 
L 166.498993 124.527273 
L 169.573373 124.527273 
L 172.647753 124.498028 
L 175.722133 124.498028 
L 178.796513 124.527273 
L 181.870894 124.51265 
L 184.945274 124.51265 
L 188.019654 124.527273 
L 191.094034 124.51265 
L 194.168414 124.51265 
L 197.242794 124.51265 
L 200.317175 124.527273 
L 203.391555 124.483405 
L 206.465935 124.51265 
L 209.540315 124.498028 
L 212.614695 124.527273 
L 215.689075 124.468783 
L 218.763456 124.527273 
L 221.837836 124.498028 
L 224.912216 124.483405 
L 227.986596 124.51265 
L 231.060976 124.51265 
L 234.135356 124.498028 
L 237.209737 124.468783 
L 240.284117 124.527273 
L 243.358497 124.483405 
L 246.432877 124.483405 
L 249.507257 124.527273 
L 252.581637 124.498028 
L 255.656018 124.483405 
L 258.730398 124.527273 
L 261.804778 124.483405 
L 264.879158 124.51265 
L 267.953538 124.498028 
L 271.027918 124.51265 
L 274.102299 124.45416 
L 277.176679 124.498028 
L 280.251059 124.498028 
L 283.325439 124.51265 
L 286.399819 124.483405 
L 289.474199 124.498028 
L 292.54858 124.51265 
L 295.62296 124.51265 
L 298.69734 124.51265 
L 301.77172 124.51265 
L 304.8461 124.51265 
L 307.92048 124.527273 
L 310.994861 124.498028 
L 314.069241 124.51265 
L 317.143621 124.527273 
L 320.218001 124.51265 
L 323.292381 124.51265 
L 326.366761 124.527273 
L 329.441142 124.498028 
L 332.515522 124.483405 
L 335.589902 124.498028 
L 338.664282 124.498028 
L 341.738662 124.51265 
L 344.813042 124.45416 
L 347.887423 124.527273 
L 350.961803 124.498028 
L 354.036183 124.527273 
L 357.110563 124.483405 
L 360.184943 124.498028 
" style="fill:none;stroke:#008000;stroke-linecap:square;stroke-width:1.5;"/>
   </g>
   <g id="patch_3">
    <path d="M 40.603125 128.057143 
L 40.603125 50.4 
" style="fill:none;stroke:#000000;stroke-linecap:square;stroke-linejoin:miter;stroke-width:0.8;"/>
   </g>
   <g id="patch_4">
    <path d="M 40.603125 128.057143 
L 375.403125 128.057143 
" style="fill:none;stroke:#000000;stroke-linecap:square;stroke-linejoin:miter;stroke-width:0.8;"/>
   </g>
   <g id="text_12">
    <!-- Trial Start Replays -->
    <g transform="translate(153.855 44.4)scale(0.12 -0.12)">
     <defs>
      <path d="M 3425 4513 
L 3425 3897 
Q 3066 4069 2747 4153 
Q 2428 4238 2131 4238 
Q 1616 4238 1336 4038 
Q 1056 3838 1056 3469 
Q 1056 3159 1242 3001 
Q 1428 2844 1947 2747 
L 2328 2669 
Q 3034 2534 3370 2195 
Q 3706 1856 3706 1288 
Q 3706 609 3251 259 
Q 2797 -91 1919 -91 
Q 1588 -91 1214 -16 
Q 841 59 441 206 
L 441 856 
Q 825 641 1194 531 
Q 1563 422 1919 422 
Q 2459 422 2753 634 
Q 3047 847 3047 1241 
Q 3047 1584 2836 1778 
Q 2625 1972 2144 2069 
L 1759 2144 
Q 1053 2284 737 2584 
Q 422 2884 422 3419 
Q 422 4038 858 4394 
Q 1294 4750 2059 4750 
Q 2388 4750 2728 4690 
Q 3069 4631 3425 4513 
z
" id="DejaVuSans-53" transform="scale(0.015625)"/>
      <path d="M 1172 4494 
L 1172 3500 
L 2356 3500 
L 2356 3053 
L 1172 3053 
L 1172 1153 
Q 1172 725 1289 603 
Q 1406 481 1766 481 
L 2356 481 
L 2356 0 
L 1766 0 
Q 1100 0 847 248 
Q 594 497 594 1153 
L 594 3053 
L 172 3053 
L 172 3500 
L 594 3500 
L 594 4494 
L 1172 4494 
z
" id="DejaVuSans-74" transform="scale(0.015625)"/>
      <path d="M 2841 2188 
Q 3044 2119 3236 1894 
Q 3428 1669 3622 1275 
L 4263 0 
L 3584 0 
L 2988 1197 
Q 2756 1666 2539 1819 
Q 2322 1972 1947 1972 
L 1259 1972 
L 1259 0 
L 628 0 
L 628 4666 
L 2053 4666 
Q 2853 4666 3247 4331 
Q 3641 3997 3641 3322 
Q 3641 2881 3436 2590 
Q 3231 2300 2841 2188 
z
M 1259 4147 
L 1259 2491 
L 2053 2491 
Q 2509 2491 2742 2702 
Q 2975 2913 2975 3322 
Q 2975 3731 2742 3939 
Q 2509 4147 2053 4147 
L 1259 4147 
z
" id="DejaVuSans-52" transform="scale(0.015625)"/>
      <path d="M 3597 1894 
L 3597 1613 
L 953 1613 
Q 991 1019 1311 708 
Q 1631 397 2203 397 
Q 2534 397 2845 478 
Q 3156 559 3463 722 
L 3463 178 
Q 3153 47 2828 -22 
Q 2503 -91 2169 -91 
Q 1331 -91 842 396 
Q 353 884 353 1716 
Q 353 2575 817 3079 
Q 1281 3584 2069 3584 
Q 2775 3584 3186 3129 
Q 3597 2675 3597 1894 
z
M 3022 2063 
Q 3016 2534 2758 2815 
Q 2500 3097 2075 3097 
Q 1594 3097 1305 2825 
Q 1016 2553 972 2059 
L 3022 2063 
z
" id="DejaVuSans-65" transform="scale(0.015625)"/>
      <path d="M 1159 525 
L 1159 -1331 
L 581 -1331 
L 581 3500 
L 1159 3500 
L 1159 2969 
Q 1341 3281 1617 3432 
Q 1894 3584 2278 3584 
Q 2916 3584 3314 3078 
Q 3713 2572 3713 1747 
Q 3713 922 3314 415 
Q 2916 -91 2278 -91 
Q 1894 -91 1617 61 
Q 1341 213 1159 525 
z
M 3116 1747 
Q 3116 2381 2855 2742 
Q 2594 3103 2138 3103 
Q 1681 3103 1420 2742 
Q 1159 2381 1159 1747 
Q 1159 1113 1420 752 
Q 1681 391 2138 391 
Q 2594 391 2855 752 
Q 3116 1113 3116 1747 
z
" id="DejaVuSans-70" transform="scale(0.015625)"/>
      <path d="M 2059 -325 
Q 1816 -950 1584 -1140 
Q 1353 -1331 966 -1331 
L 506 -1331 
L 506 -850 
L 844 -850 
Q 1081 -850 1212 -737 
Q 1344 -625 1503 -206 
L 1606 56 
L 191 3500 
L 800 3500 
L 1894 763 
L 2988 3500 
L 3597 3500 
L 2059 -325 
z
" id="DejaVuSans-79" transform="scale(0.015625)"/>
     </defs>
     <use xlink:href="#DejaVuSans-54"/>
     <use x="46.333984" xlink:href="#DejaVuSans-72"/>
     <use x="87.447266" xlink:href="#DejaVuSans-69"/>
     <use x="115.230469" xlink:href="#DejaVuSans-61"/>
     <use x="176.509766" xlink:href="#DejaVuSans-6c"/>
     <use x="204.292969" xlink:href="#DejaVuSans-20"/>
     <use x="236.080078" xlink:href="#DejaVuSans-53"/>
     <use x="299.556641" xlink:href="#DejaVuSans-74"/>
     <use x="338.765625" xlink:href="#DejaVuSans-61"/>
     <use x="400.044922" xlink:href="#DejaVuSans-72"/>
     <use x="441.158203" xlink:href="#DejaVuSans-74"/>
     <use x="480.367188" xlink:href="#DejaVuSans-20"/>
     <use x="512.154297" xlink:href="#DejaVuSans-52"/>
     <use x="577.136719" xlink:href="#DejaVuSans-65"/>
     <use x="638.660156" xlink:href="#DejaVuSans-70"/>
     <use x="702.136719" xlink:href="#DejaVuSans-6c"/>
     <use x="729.919922" xlink:href="#DejaVuSans-61"/>
     <use x="791.199219" xlink:href="#DejaVuSans-79"/>
     <use x="850.378906" xlink:href="#DejaVuSans-73"/>
    </g>
   </g>
  </g>
  <g id="axes_2">
   <g id="patch_5">
    <path d="M 40.603125 267.84 
L 375.403125 267.84 
L 375.403125 190.182857 
L 40.603125 190.182857 
z
" style="fill:none;"/>
   </g>
   <g id="matplotlib.axis_3">
    <g id="xtick_7">
     <g id="line2d_13">
      <g>
       <use style="stroke:#000000;stroke-width:0.8;" x="55.821307" xlink:href="#m5bc405a003" y="267.84"/>
      </g>
     </g>
     <g id="text_13">
      <!-- 0 -->
      <g transform="translate(52.640057 282.438437)scale(0.1 -0.1)">
       <use xlink:href="#DejaVuSans-30"/>
      </g>
     </g>
    </g>
    <g id="xtick_8">
     <g id="line2d_14">
      <g>
       <use style="stroke:#000000;stroke-width:0.8;" x="117.30891" xlink:href="#m5bc405a003" y="267.84"/>
      </g>
     </g>
     <g id="text_14">
      <!-- 20 -->
      <g transform="translate(110.94641 282.438437)scale(0.1 -0.1)">
       <use xlink:href="#DejaVuSans-32"/>
       <use x="63.623047" xlink:href="#DejaVuSans-30"/>
      </g>
     </g>
    </g>
    <g id="xtick_9">
     <g id="line2d_15">
      <g>
       <use style="stroke:#000000;stroke-width:0.8;" x="178.796513" xlink:href="#m5bc405a003" y="267.84"/>
      </g>
     </g>
     <g id="text_15">
      <!-- 40 -->
      <g transform="translate(172.434013 282.438437)scale(0.1 -0.1)">
       <use xlink:href="#DejaVuSans-34"/>
       <use x="63.623047" xlink:href="#DejaVuSans-30"/>
      </g>
     </g>
    </g>
    <g id="xtick_10">
     <g id="line2d_16">
      <g>
       <use style="stroke:#000000;stroke-width:0.8;" x="240.284117" xlink:href="#m5bc405a003" y="267.84"/>
      </g>
     </g>
     <g id="text_16">
      <!-- 60 -->
      <g transform="translate(233.921617 282.438437)scale(0.1 -0.1)">
       <use xlink:href="#DejaVuSans-36"/>
       <use x="63.623047" xlink:href="#DejaVuSans-30"/>
      </g>
     </g>
    </g>
    <g id="xtick_11">
     <g id="line2d_17">
      <g>
       <use style="stroke:#000000;stroke-width:0.8;" x="301.77172" xlink:href="#m5bc405a003" y="267.84"/>
      </g>
     </g>
     <g id="text_17">
      <!-- 80 -->
      <g transform="translate(295.40922 282.438437)scale(0.1 -0.1)">
       <use xlink:href="#DejaVuSans-38"/>
       <use x="63.623047" xlink:href="#DejaVuSans-30"/>
      </g>
     </g>
    </g>
    <g id="xtick_12">
     <g id="line2d_18">
      <g>
       <use style="stroke:#000000;stroke-width:0.8;" x="363.259323" xlink:href="#m5bc405a003" y="267.84"/>
      </g>
     </g>
     <g id="text_18">
      <!-- 100 -->
      <g transform="translate(353.715573 282.438437)scale(0.1 -0.1)">
       <use xlink:href="#DejaVuSans-31"/>
       <use x="63.623047" xlink:href="#DejaVuSans-30"/>
       <use x="127.246094" xlink:href="#DejaVuSans-30"/>
      </g>
     </g>
    </g>
    <g id="text_19">
     <!-- Trial -->
     <g transform="translate(197.789062 296.116562)scale(0.1 -0.1)">
      <use xlink:href="#DejaVuSans-54"/>
      <use x="46.333984" xlink:href="#DejaVuSans-72"/>
      <use x="87.447266" xlink:href="#DejaVuSans-69"/>
      <use x="115.230469" xlink:href="#DejaVuSans-61"/>
      <use x="176.509766" xlink:href="#DejaVuSans-6c"/>
     </g>
    </g>
   </g>
   <g id="matplotlib.axis_4">
    <g id="ytick_4">
     <g id="line2d_19">
      <g>
       <use style="stroke:#000000;stroke-width:0.8;" x="40.603125" xlink:href="#m20df9bcb8f" y="264.31013"/>
      </g>
     </g>
     <g id="text_20">
      <!-- 0 -->
      <g transform="translate(27.240625 268.109349)scale(0.1 -0.1)">
       <use xlink:href="#DejaVuSans-30"/>
      </g>
     </g>
    </g>
    <g id="ytick_5">
     <g id="line2d_20">
      <g>
       <use style="stroke:#000000;stroke-width:0.8;" x="40.603125" xlink:href="#m20df9bcb8f" y="235.459536"/>
      </g>
     </g>
     <g id="text_21">
      <!-- 20 -->
      <g transform="translate(20.878125 239.258755)scale(0.1 -0.1)">
       <use xlink:href="#DejaVuSans-32"/>
       <use x="63.623047" xlink:href="#DejaVuSans-30"/>
      </g>
     </g>
    </g>
    <g id="ytick_6">
     <g id="line2d_21">
      <g>
       <use style="stroke:#000000;stroke-width:0.8;" x="40.603125" xlink:href="#m20df9bcb8f" y="206.608943"/>
      </g>
     </g>
     <g id="text_22">
      <!-- 40 -->
      <g transform="translate(20.878125 210.408161)scale(0.1 -0.1)">
       <use xlink:href="#DejaVuSans-34"/>
       <use x="63.623047" xlink:href="#DejaVuSans-30"/>
      </g>
     </g>
    </g>
    <g id="text_23">
     <!-- Pairs [#] -->
     <g transform="translate(14.798438 250.595022)rotate(-90)scale(0.1 -0.1)">
      <use xlink:href="#DejaVuSans-50"/>
      <use x="55.802734" xlink:href="#DejaVuSans-61"/>
      <use x="117.082031" xlink:href="#DejaVuSans-69"/>
      <use x="144.865234" xlink:href="#DejaVuSans-72"/>
      <use x="185.978516" xlink:href="#DejaVuSans-73"/>
      <use x="238.078125" xlink:href="#DejaVuSans-20"/>
      <use x="269.865234" xlink:href="#DejaVuSans-5b"/>
      <use x="308.878906" xlink:href="#DejaVuSans-23"/>
      <use x="392.667969" xlink:href="#DejaVuSans-5d"/>
     </g>
    </g>
   </g>
   <g id="line2d_22">
    <path clip-path="url(#pa60e3b226e)" d="M 55.821307 261.843404 
L 58.895687 263.011853 
L 61.970067 263.228233 
L 65.044447 263.516739 
L 68.118827 263.632141 
L 71.193208 263.675417 
L 74.267588 263.560014 
L 77.341968 263.84852 
L 80.416348 263.877371 
L 83.490728 263.862946 
L 86.565108 263.992773 
L 89.639489 264.050475 
L 92.713869 264.021624 
L 95.788249 264.007199 
L 98.862629 264.021624 
L 101.937009 264.151452 
L 105.011389 263.992773 
L 108.08577 264.122601 
L 111.16015 264.122601 
L 114.23453 264.021624 
L 117.30891 264.09375 
L 120.38329 264.194727 
L 123.45767 264.180302 
L 126.532051 264.223578 
L 129.606431 264.180302 
L 132.680811 264.194727 
L 135.755191 264.180302 
L 138.829571 264.180302 
L 141.903951 264.223578 
L 144.978332 264.180302 
L 148.052712 264.09375 
L 151.127092 264.194727 
L 154.201472 264.137026 
L 157.275852 264.0649 
L 160.350232 264.108176 
L 163.424613 264.137026 
L 166.498993 264.209153 
L 169.573373 264.151452 
L 172.647753 264.180302 
L 175.722133 264.209153 
L 178.796513 264.223578 
L 181.870894 264.151452 
L 184.945274 264.137026 
L 188.019654 264.151452 
L 191.094034 264.180302 
L 194.168414 264.137026 
L 197.242794 264.194727 
L 200.317175 264.209153 
L 203.391555 264.122601 
L 206.465935 264.122601 
L 209.540315 264.238003 
L 212.614695 264.151452 
L 215.689075 264.194727 
L 218.763456 264.165877 
L 221.837836 264.151452 
L 224.912216 264.180302 
L 227.986596 264.180302 
L 231.060976 264.194727 
L 234.135356 264.165877 
L 237.209737 264.180302 
L 240.284117 264.180302 
L 243.358497 264.108176 
L 246.432877 264.151452 
L 249.507257 264.137026 
L 252.581637 264.122601 
L 255.656018 264.079325 
L 258.730398 264.137026 
L 261.804778 264.151452 
L 264.879158 264.108176 
L 267.953538 264.108176 
L 271.027918 264.122601 
L 274.102299 264.122601 
L 277.176679 264.079325 
L 280.251059 264.137026 
L 283.325439 264.151452 
L 286.399819 264.108176 
L 289.474199 264.137026 
L 292.54858 264.122601 
L 295.62296 264.122601 
L 298.69734 264.079325 
L 301.77172 264.122601 
L 304.8461 264.180302 
L 307.92048 264.137026 
L 310.994861 264.050475 
L 314.069241 264.0649 
L 317.143621 264.09375 
L 320.218001 264.122601 
L 323.292381 264.021624 
L 326.366761 264.036049 
L 329.441142 264.0649 
L 332.515522 264.137026 
L 335.589902 264.036049 
L 338.664282 264.050475 
L 341.738662 264.050475 
L 344.813042 264.079325 
L 347.887423 264.108176 
L 350.961803 264.079325 
L 354.036183 264.079325 
L 357.110563 264.079325 
L 360.184943 264.180302 
" style="fill:none;stroke:#0000ff;stroke-linecap:square;stroke-width:1.5;"/>
   </g>
   <g id="line2d_23">
    <path clip-path="url(#pa60e3b226e)" d="M 55.821307 196.237154 
L 58.895687 194.953303 
L 61.970067 194.722498 
L 65.044447 194.448417 
L 68.118827 194.333015 
L 71.193208 194.289739 
L 74.267588 194.390716 
L 77.341968 194.116636 
L 80.416348 194.058934 
L 83.490728 194.07336 
L 86.565108 193.972383 
L 89.639489 193.900256 
L 92.713869 193.914681 
L 95.788249 193.943532 
L 98.862629 193.957957 
L 101.937009 193.799279 
L 105.011389 193.957957 
L 108.08577 193.842555 
L 111.16015 193.813704 
L 114.23453 193.957957 
L 117.30891 193.85698 
L 120.38329 193.756003 
L 123.45767 193.756003 
L 126.532051 193.712727 
L 129.606431 193.756003 
L 132.680811 193.741578 
L 135.755191 193.784854 
L 138.829571 193.784854 
L 141.903951 193.727153 
L 144.978332 193.784854 
L 148.052712 193.85698 
L 151.127092 193.813704 
L 154.201472 193.813704 
L 157.275852 193.900256 
L 160.350232 193.842555 
L 163.424613 193.82813 
L 166.498993 193.741578 
L 169.573373 193.784854 
L 172.647753 193.770428 
L 175.722133 193.741578 
L 178.796513 193.712727 
L 181.870894 193.799279 
L 184.945274 193.813704 
L 188.019654 193.799279 
L 191.094034 193.770428 
L 194.168414 193.813704 
L 197.242794 193.770428 
L 200.317175 193.741578 
L 203.391555 193.82813 
L 206.465935 193.82813 
L 209.540315 193.741578 
L 212.614695 193.813704 
L 215.689075 193.756003 
L 218.763456 193.770428 
L 221.837836 193.784854 
L 224.912216 193.784854 
L 227.986596 193.756003 
L 231.060976 193.770428 
L 234.135356 193.770428 
L 237.209737 193.770428 
L 240.284117 193.770428 
L 243.358497 193.871406 
L 246.432877 193.813704 
L 249.507257 193.82813 
L 252.581637 193.85698 
L 255.656018 193.85698 
L 258.730398 193.871406 
L 261.804778 193.82813 
L 264.879158 193.885831 
L 267.953538 193.871406 
L 271.027918 193.842555 
L 274.102299 193.813704 
L 277.176679 193.85698 
L 280.251059 193.82813 
L 283.325439 193.784854 
L 286.399819 193.82813 
L 289.474199 193.813704 
L 292.54858 193.82813 
L 295.62296 193.842555 
L 298.69734 193.871406 
L 301.77172 193.82813 
L 304.8461 193.756003 
L 307.92048 193.82813 
L 310.994861 193.900256 
L 314.069241 193.900256 
L 317.143621 193.842555 
L 320.218001 193.82813 
L 323.292381 193.972383 
L 326.366761 193.914681 
L 329.441142 193.900256 
L 332.515522 193.813704 
L 335.589902 193.929107 
L 338.664282 193.900256 
L 341.738662 193.943532 
L 344.813042 193.871406 
L 347.887423 193.842555 
L 350.961803 193.871406 
L 354.036183 193.885831 
L 357.110563 193.871406 
L 360.184943 193.784854 
" style="fill:none;stroke:#ff0000;stroke-linecap:square;stroke-width:1.5;"/>
   </g>
   <g id="line2d_24">
    <path clip-path="url(#pa60e3b226e)" d="M 55.821307 264.165877 
L 58.895687 264.281279 
L 61.970067 264.295705 
L 65.044447 264.281279 
L 68.118827 264.281279 
L 71.193208 264.281279 
L 74.267588 264.295705 
L 77.341968 264.281279 
L 80.416348 264.31013 
L 83.490728 264.31013 
L 86.565108 264.281279 
L 89.639489 264.295705 
L 92.713869 264.31013 
L 95.788249 264.295705 
L 98.862629 264.266854 
L 101.937009 264.295705 
L 105.011389 264.295705 
L 108.08577 264.281279 
L 111.16015 264.31013 
L 114.23453 264.266854 
L 117.30891 264.295705 
L 120.38329 264.295705 
L 123.45767 264.31013 
L 126.532051 264.31013 
L 129.606431 264.31013 
L 132.680811 264.31013 
L 135.755191 264.281279 
L 138.829571 264.281279 
L 141.903951 264.295705 
L 144.978332 264.281279 
L 148.052712 264.295705 
L 151.127092 264.238003 
L 154.201472 264.295705 
L 157.275852 264.281279 
L 160.350232 264.295705 
L 163.424613 264.281279 
L 166.498993 264.295705 
L 169.573373 264.31013 
L 172.647753 264.295705 
L 175.722133 264.295705 
L 178.796513 264.31013 
L 181.870894 264.295705 
L 184.945274 264.295705 
L 188.019654 264.295705 
L 191.094034 264.295705 
L 194.168414 264.295705 
L 197.242794 264.281279 
L 200.317175 264.295705 
L 203.391555 264.295705 
L 206.465935 264.295705 
L 209.540315 264.266854 
L 212.614695 264.281279 
L 215.689075 264.295705 
L 218.763456 264.31013 
L 221.837836 264.31013 
L 224.912216 264.281279 
L 227.986596 264.31013 
L 231.060976 264.281279 
L 234.135356 264.31013 
L 237.209737 264.295705 
L 240.284117 264.295705 
L 243.358497 264.266854 
L 246.432877 264.281279 
L 249.507257 264.281279 
L 252.581637 264.266854 
L 255.656018 264.31013 
L 258.730398 264.238003 
L 261.804778 264.266854 
L 264.879158 264.252429 
L 267.953538 264.266854 
L 271.027918 264.281279 
L 274.102299 264.31013 
L 277.176679 264.31013 
L 280.251059 264.281279 
L 283.325439 264.31013 
L 286.399819 264.31013 
L 289.474199 264.295705 
L 292.54858 264.295705 
L 295.62296 264.281279 
L 298.69734 264.295705 
L 301.77172 264.295705 
L 304.8461 264.31013 
L 307.92048 264.281279 
L 310.994861 264.295705 
L 314.069241 264.281279 
L 317.143621 264.31013 
L 320.218001 264.295705 
L 323.292381 264.252429 
L 326.366761 264.295705 
L 329.441142 264.281279 
L 332.515522 264.295705 
L 335.589902 264.281279 
L 338.664282 264.295705 
L 341.738662 264.252429 
L 344.813042 264.295705 
L 347.887423 264.295705 
L 350.961803 264.295705 
L 354.036183 264.281279 
L 357.110563 264.295705 
L 360.184943 264.281279 
" style="fill:none;stroke:#008000;stroke-linecap:square;stroke-width:1.5;"/>
   </g>
   <g id="patch_6">
    <path d="M 40.603125 267.84 
L 40.603125 190.182857 
" style="fill:none;stroke:#000000;stroke-linecap:square;stroke-linejoin:miter;stroke-width:0.8;"/>
   </g>
   <g id="patch_7">
    <path d="M 40.603125 267.84 
L 375.403125 267.84 
" style="fill:none;stroke:#000000;stroke-linecap:square;stroke-linejoin:miter;stroke-width:0.8;"/>
   </g>
   <g id="text_24">
    <!-- Trial End Replays -->
    <g transform="translate(157.109062 184.182857)scale(0.12 -0.12)">
     <defs>
      <path d="M 628 4666 
L 3578 4666 
L 3578 4134 
L 1259 4134 
L 1259 2753 
L 3481 2753 
L 3481 2222 
L 1259 2222 
L 1259 531 
L 3634 531 
L 3634 0 
L 628 0 
L 628 4666 
z
" id="DejaVuSans-45" transform="scale(0.015625)"/>
      <path d="M 3513 2113 
L 3513 0 
L 2938 0 
L 2938 2094 
Q 2938 2591 2744 2837 
Q 2550 3084 2163 3084 
Q 1697 3084 1428 2787 
Q 1159 2491 1159 1978 
L 1159 0 
L 581 0 
L 581 3500 
L 1159 3500 
L 1159 2956 
Q 1366 3272 1645 3428 
Q 1925 3584 2291 3584 
Q 2894 3584 3203 3211 
Q 3513 2838 3513 2113 
z
" id="DejaVuSans-6e" transform="scale(0.015625)"/>
      <path d="M 2906 2969 
L 2906 4863 
L 3481 4863 
L 3481 0 
L 2906 0 
L 2906 525 
Q 2725 213 2448 61 
Q 2172 -91 1784 -91 
Q 1150 -91 751 415 
Q 353 922 353 1747 
Q 353 2572 751 3078 
Q 1150 3584 1784 3584 
Q 2172 3584 2448 3432 
Q 2725 3281 2906 2969 
z
M 947 1747 
Q 947 1113 1208 752 
Q 1469 391 1925 391 
Q 2381 391 2643 752 
Q 2906 1113 2906 1747 
Q 2906 2381 2643 2742 
Q 2381 3103 1925 3103 
Q 1469 3103 1208 2742 
Q 947 2381 947 1747 
z
" id="DejaVuSans-64" transform="scale(0.015625)"/>
     </defs>
     <use xlink:href="#DejaVuSans-54"/>
     <use x="46.333984" xlink:href="#DejaVuSans-72"/>
     <use x="87.447266" xlink:href="#DejaVuSans-69"/>
     <use x="115.230469" xlink:href="#DejaVuSans-61"/>
     <use x="176.509766" xlink:href="#DejaVuSans-6c"/>
     <use x="204.292969" xlink:href="#DejaVuSans-20"/>
     <use x="236.080078" xlink:href="#DejaVuSans-45"/>
     <use x="299.263672" xlink:href="#DejaVuSans-6e"/>
     <use x="362.642578" xlink:href="#DejaVuSans-64"/>
     <use x="426.119141" xlink:href="#DejaVuSans-20"/>
     <use x="457.90625" xlink:href="#DejaVuSans-52"/>
     <use x="522.888672" xlink:href="#DejaVuSans-65"/>
     <use x="584.412109" xlink:href="#DejaVuSans-70"/>
     <use x="647.888672" xlink:href="#DejaVuSans-6c"/>
     <use x="675.671875" xlink:href="#DejaVuSans-61"/>
     <use x="736.951172" xlink:href="#DejaVuSans-79"/>
     <use x="796.130859" xlink:href="#DejaVuSans-73"/>
    </g>
   </g>
   <g id="legend_1">
    <g id="patch_8">
     <path d="M 54.676875 333.882321 
L 361.329375 333.882321 
Q 363.729375 333.882321 363.729375 331.482321 
L 363.729375 315.068571 
Q 363.729375 312.668571 361.329375 312.668571 
L 54.676875 312.668571 
Q 52.276875 312.668571 52.276875 315.068571 
L 52.276875 331.482321 
Q 52.276875 333.882321 54.676875 333.882321 
z
" style="fill:none;opacity:0;"/>
    </g>
    <g id="line2d_25">
     <path d="M 57.076875 322.386696 
L 81.076875 322.386696 
" style="fill:none;stroke:#0000ff;stroke-linecap:square;stroke-width:1.5;"/>
    </g>
    <g id="line2d_26"/>
    <g id="text_25">
     <!-- forward -->
     <g transform="translate(90.676875 326.586696)scale(0.12 -0.12)">
      <defs>
       <path d="M 2375 4863 
L 2375 4384 
L 1825 4384 
Q 1516 4384 1395 4259 
Q 1275 4134 1275 3809 
L 1275 3500 
L 2222 3500 
L 2222 3053 
L 1275 3053 
L 1275 0 
L 697 0 
L 697 3053 
L 147 3053 
L 147 3500 
L 697 3500 
L 697 3744 
Q 697 4328 969 4595 
Q 1241 4863 1831 4863 
L 2375 4863 
z
" id="DejaVuSans-66" transform="scale(0.015625)"/>
       <path d="M 1959 3097 
Q 1497 3097 1228 2736 
Q 959 2375 959 1747 
Q 959 1119 1226 758 
Q 1494 397 1959 397 
Q 2419 397 2687 759 
Q 2956 1122 2956 1747 
Q 2956 2369 2687 2733 
Q 2419 3097 1959 3097 
z
M 1959 3584 
Q 2709 3584 3137 3096 
Q 3566 2609 3566 1747 
Q 3566 888 3137 398 
Q 2709 -91 1959 -91 
Q 1206 -91 779 398 
Q 353 888 353 1747 
Q 353 2609 779 3096 
Q 1206 3584 1959 3584 
z
" id="DejaVuSans-6f" transform="scale(0.015625)"/>
       <path d="M 269 3500 
L 844 3500 
L 1563 769 
L 2278 3500 
L 2956 3500 
L 3675 769 
L 4391 3500 
L 4966 3500 
L 4050 0 
L 3372 0 
L 2619 2869 
L 1863 0 
L 1184 0 
L 269 3500 
z
" id="DejaVuSans-77" transform="scale(0.015625)"/>
      </defs>
      <use xlink:href="#DejaVuSans-66"/>
      <use x="35.205078" xlink:href="#DejaVuSans-6f"/>
      <use x="96.386719" xlink:href="#DejaVuSans-72"/>
      <use x="137.5" xlink:href="#DejaVuSans-77"/>
      <use x="219.287109" xlink:href="#DejaVuSans-61"/>
      <use x="280.566406" xlink:href="#DejaVuSans-72"/>
      <use x="319.929688" xlink:href="#DejaVuSans-64"/>
     </g>
    </g>
    <g id="line2d_27">
     <path d="M 160.685625 322.386696 
L 184.685625 322.386696 
" style="fill:none;stroke:#ff0000;stroke-linecap:square;stroke-width:1.5;"/>
    </g>
    <g id="line2d_28"/>
    <g id="text_26">
     <!-- reverse -->
     <g transform="translate(194.285625 326.586696)scale(0.12 -0.12)">
      <defs>
       <path d="M 191 3500 
L 800 3500 
L 1894 563 
L 2988 3500 
L 3597 3500 
L 2284 0 
L 1503 0 
L 191 3500 
z
" id="DejaVuSans-76" transform="scale(0.015625)"/>
      </defs>
      <use xlink:href="#DejaVuSans-72"/>
      <use x="38.863281" xlink:href="#DejaVuSans-65"/>
      <use x="100.386719" xlink:href="#DejaVuSans-76"/>
      <use x="159.566406" xlink:href="#DejaVuSans-65"/>
      <use x="221.089844" xlink:href="#DejaVuSans-72"/>
      <use x="262.203125" xlink:href="#DejaVuSans-73"/>
      <use x="314.302734" xlink:href="#DejaVuSans-65"/>
     </g>
    </g>
    <g id="line2d_29">
     <path d="M 263.386875 322.386696 
L 287.386875 322.386696 
" style="fill:none;stroke:#008000;stroke-linecap:square;stroke-width:1.5;"/>
    </g>
    <g id="line2d_30"/>
    <g id="text_27">
     <!-- unordered -->
     <g transform="translate(296.986875 326.586696)scale(0.12 -0.12)">
      <defs>
       <path d="M 544 1381 
L 544 3500 
L 1119 3500 
L 1119 1403 
Q 1119 906 1312 657 
Q 1506 409 1894 409 
Q 2359 409 2629 706 
Q 2900 1003 2900 1516 
L 2900 3500 
L 3475 3500 
L 3475 0 
L 2900 0 
L 2900 538 
Q 2691 219 2414 64 
Q 2138 -91 1772 -91 
Q 1169 -91 856 284 
Q 544 659 544 1381 
z
M 1991 3584 
L 1991 3584 
z
" id="DejaVuSans-75" transform="scale(0.015625)"/>
      </defs>
      <use xlink:href="#DejaVuSans-75"/>
      <use x="63.378906" xlink:href="#DejaVuSans-6e"/>
      <use x="126.757812" xlink:href="#DejaVuSans-6f"/>
      <use x="187.939453" xlink:href="#DejaVuSans-72"/>
      <use x="227.302734" xlink:href="#DejaVuSans-64"/>
      <use x="290.779297" xlink:href="#DejaVuSans-65"/>
      <use x="352.302734" xlink:href="#DejaVuSans-72"/>
      <use x="391.166016" xlink:href="#DejaVuSans-65"/>
      <use x="452.689453" xlink:href="#DejaVuSans-64"/>
     </g>
    </g>
   </g>
  </g>
  <g id="text_28">
   <!-- Labyrinth, Reverse Mode -->
   <g transform="translate(109.279688 18.597656)scale(0.15 -0.15)">
    <defs>
     <path d="M 628 4666 
L 1259 4666 
L 1259 531 
L 3531 531 
L 3531 0 
L 628 0 
L 628 4666 
z
" id="DejaVuSans-4c" transform="scale(0.015625)"/>
     <path d="M 3116 1747 
Q 3116 2381 2855 2742 
Q 2594 3103 2138 3103 
Q 1681 3103 1420 2742 
Q 1159 2381 1159 1747 
Q 1159 1113 1420 752 
Q 1681 391 2138 391 
Q 2594 391 2855 752 
Q 3116 1113 3116 1747 
z
M 1159 2969 
Q 1341 3281 1617 3432 
Q 1894 3584 2278 3584 
Q 2916 3584 3314 3078 
Q 3713 2572 3713 1747 
Q 3713 922 3314 415 
Q 2916 -91 2278 -91 
Q 1894 -91 1617 61 
Q 1341 213 1159 525 
L 1159 0 
L 581 0 
L 581 4863 
L 1159 4863 
L 1159 2969 
z
" id="DejaVuSans-62" transform="scale(0.015625)"/>
     <path d="M 3513 2113 
L 3513 0 
L 2938 0 
L 2938 2094 
Q 2938 2591 2744 2837 
Q 2550 3084 2163 3084 
Q 1697 3084 1428 2787 
Q 1159 2491 1159 1978 
L 1159 0 
L 581 0 
L 581 4863 
L 1159 4863 
L 1159 2956 
Q 1366 3272 1645 3428 
Q 1925 3584 2291 3584 
Q 2894 3584 3203 3211 
Q 3513 2838 3513 2113 
z
" id="DejaVuSans-68" transform="scale(0.015625)"/>
     <path d="M 750 794 
L 1409 794 
L 1409 256 
L 897 -744 
L 494 -744 
L 750 256 
L 750 794 
z
" id="DejaVuSans-2c" transform="scale(0.015625)"/>
     <path d="M 628 4666 
L 1569 4666 
L 2759 1491 
L 3956 4666 
L 4897 4666 
L 4897 0 
L 4281 0 
L 4281 4097 
L 3078 897 
L 2444 897 
L 1241 4097 
L 1241 0 
L 628 0 
L 628 4666 
z
" id="DejaVuSans-4d" transform="scale(0.015625)"/>
    </defs>
    <use xlink:href="#DejaVuSans-4c"/>
    <use x="55.712891" xlink:href="#DejaVuSans-61"/>
    <use x="116.992188" xlink:href="#DejaVuSans-62"/>
    <use x="180.46875" xlink:href="#DejaVuSans-79"/>
    <use x="239.648438" xlink:href="#DejaVuSans-72"/>
    <use x="280.761719" xlink:href="#DejaVuSans-69"/>
    <use x="308.544922" xlink:href="#DejaVuSans-6e"/>
    <use x="371.923828" xlink:href="#DejaVuSans-74"/>
    <use x="411.132812" xlink:href="#DejaVuSans-68"/>
    <use x="474.511719" xlink:href="#DejaVuSans-2c"/>
    <use x="506.298828" xlink:href="#DejaVuSans-20"/>
    <use x="538.085938" xlink:href="#DejaVuSans-52"/>
    <use x="603.068359" xlink:href="#DejaVuSans-65"/>
    <use x="664.591797" xlink:href="#DejaVuSans-76"/>
    <use x="723.771484" xlink:href="#DejaVuSans-65"/>
    <use x="785.294922" xlink:href="#DejaVuSans-72"/>
    <use x="826.408203" xlink:href="#DejaVuSans-73"/>
    <use x="878.507812" xlink:href="#DejaVuSans-65"/>
    <use x="940.03125" xlink:href="#DejaVuSans-20"/>
    <use x="971.818359" xlink:href="#DejaVuSans-4d"/>
    <use x="1058.097656" xlink:href="#DejaVuSans-6f"/>
    <use x="1119.279297" xlink:href="#DejaVuSans-64"/>
    <use x="1182.755859" xlink:href="#DejaVuSans-65"/>
   </g>
  </g>
 </g>
 <defs>
  <clipPath id="p03ddb78033">
   <rect height="77.657143" width="334.8" x="40.603125" y="50.4"/>
  </clipPath>
  <clipPath id="pa60e3b226e">
   <rect height="77.657143" width="334.8" x="40.603125" y="190.182857"/>
  </clipPath>
 </defs>
</svg>
