<?xml version="1.0" encoding="utf-8" standalone="no"?>
<!DOCTYPE svg PUBLIC "-//W3C//DTD SVG 1.1//EN"
  "http://www.w3.org/Graphics/SVG/1.1/DTD/svg11.dtd">
<svg height="341.082321pt" version="1.1" viewBox="0 0 382.603125 341.082321" width="382.603125pt" xmlns="http://www.w3.org/2000/svg" xmlns:xlink="http://www.w3.org/1999/xlink">
 <metadata>
  <rdf:RDF xmlns:cc="http://creativecommons.org/ns#" xmlns:dc="http://purl.org/dc/elements/1.1/" xmlns:rdf="http://www.w3.org/1999/02/22-rdf-syntax-ns#">
   <cc:Work>
    <dc:type rdf:resource="http://purl.org/dc/dcmitype/StillImage"/>
    <dc:date>2022-07-21T20:15:14.179858</dc:date>
    <dc:format>image/svg+xml</dc:format>
    <dc:creator>
     <cc:Agent>
      <dc:title>Matplotlib v3.4.3, https://matplotlib.org/</dc:title>
     </cc:Agent>
    </dc:creator>
   </cc:Work>
  </rdf:RDF>
 </metadata>
 <defs>
  <style type="text/css">*{stroke-linecap:butt;stroke-linejoin:round;}</style>
 </defs>
 <g id="figure_1">
  <g id="patch_1">
   <path d="M 0 341.082321 
L 382.603125 341.082321 
L 382.603125 0 
L 0 0 
z
" style="fill:none;"/>
  </g>
  <g id="axes_1">
   <g id="patch_2">
    <path d="M 40.603125 128.057143 
L 375.403125 128.057143 
L 375.403125 50.4 
L 40.603125 50.4 
z
" style="fill:none;"/>
   </g>
   <g id="matplotlib.axis_1">
    <g id="xtick_1">
     <g id="line2d_1">
      <defs>
       <path d="M 0 0 
L 0 3.5 
" id="mebeb691c0c" style="stroke:#000000;stroke-width:0.8;"/>
      </defs>
      <g>
       <use style="stroke:#000000;stroke-width:0.8;" x="55.821307" xlink:href="#mebeb691c0c" y="128.057143"/>
      </g>
     </g>
     <g id="text_1">
      <!-- 0 -->
      <g transform="translate(52.640057 142.65558)scale(0.1 -0.1)">
       <defs>
        <path d="M 2034 4250 
Q 1547 4250 1301 3770 
Q 1056 3291 1056 2328 
Q 1056 1369 1301 889 
Q 1547 409 2034 409 
Q 2525 409 2770 889 
Q 3016 1369 3016 2328 
Q 3016 3291 2770 3770 
Q 2525 4250 2034 4250 
z
M 2034 4750 
Q 2819 4750 3233 4129 
Q 3647 3509 3647 2328 
Q 3647 1150 3233 529 
Q 2819 -91 2034 -91 
Q 1250 -91 836 529 
Q 422 1150 422 2328 
Q 422 3509 836 4129 
Q 1250 4750 2034 4750 
z
" id="DejaVuSans-30" transform="scale(0.015625)"/>
       </defs>
       <use xlink:href="#DejaVuSans-30"/>
      </g>
     </g>
    </g>
    <g id="xtick_2">
     <g id="line2d_2">
      <g>
       <use style="stroke:#000000;stroke-width:0.8;" x="117.30891" xlink:href="#mebeb691c0c" y="128.057143"/>
      </g>
     </g>
     <g id="text_2">
      <!-- 20 -->
      <g transform="translate(110.94641 142.65558)scale(0.1 -0.1)">
       <defs>
        <path d="M 1228 531 
L 3431 531 
L 3431 0 
L 469 0 
L 469 531 
Q 828 903 1448 1529 
Q 2069 2156 2228 2338 
Q 2531 2678 2651 2914 
Q 2772 3150 2772 3378 
Q 2772 3750 2511 3984 
Q 2250 4219 1831 4219 
Q 1534 4219 1204 4116 
Q 875 4013 500 3803 
L 500 4441 
Q 881 4594 1212 4672 
Q 1544 4750 1819 4750 
Q 2544 4750 2975 4387 
Q 3406 4025 3406 3419 
Q 3406 3131 3298 2873 
Q 3191 2616 2906 2266 
Q 2828 2175 2409 1742 
Q 1991 1309 1228 531 
z
" id="DejaVuSans-32" transform="scale(0.015625)"/>
       </defs>
       <use xlink:href="#DejaVuSans-32"/>
       <use x="63.623047" xlink:href="#DejaVuSans-30"/>
      </g>
     </g>
    </g>
    <g id="xtick_3">
     <g id="line2d_3">
      <g>
       <use style="stroke:#000000;stroke-width:0.8;" x="178.796513" xlink:href="#mebeb691c0c" y="128.057143"/>
      </g>
     </g>
     <g id="text_3">
      <!-- 40 -->
      <g transform="translate(172.434013 142.65558)scale(0.1 -0.1)">
       <defs>
        <path d="M 2419 4116 
L 825 1625 
L 2419 1625 
L 2419 4116 
z
M 2253 4666 
L 3047 4666 
L 3047 1625 
L 3713 1625 
L 3713 1100 
L 3047 1100 
L 3047 0 
L 2419 0 
L 2419 1100 
L 313 1100 
L 313 1709 
L 2253 4666 
z
" id="DejaVuSans-34" transform="scale(0.015625)"/>
       </defs>
       <use xlink:href="#DejaVuSans-34"/>
       <use x="63.623047" xlink:href="#DejaVuSans-30"/>
      </g>
     </g>
    </g>
    <g id="xtick_4">
     <g id="line2d_4">
      <g>
       <use style="stroke:#000000;stroke-width:0.8;" x="240.284117" xlink:href="#mebeb691c0c" y="128.057143"/>
      </g>
     </g>
     <g id="text_4">
      <!-- 60 -->
      <g transform="translate(233.921617 142.65558)scale(0.1 -0.1)">
       <defs>
        <path d="M 2113 2584 
Q 1688 2584 1439 2293 
Q 1191 2003 1191 1497 
Q 1191 994 1439 701 
Q 1688 409 2113 409 
Q 2538 409 2786 701 
Q 3034 994 3034 1497 
Q 3034 2003 2786 2293 
Q 2538 2584 2113 2584 
z
M 3366 4563 
L 3366 3988 
Q 3128 4100 2886 4159 
Q 2644 4219 2406 4219 
Q 1781 4219 1451 3797 
Q 1122 3375 1075 2522 
Q 1259 2794 1537 2939 
Q 1816 3084 2150 3084 
Q 2853 3084 3261 2657 
Q 3669 2231 3669 1497 
Q 3669 778 3244 343 
Q 2819 -91 2113 -91 
Q 1303 -91 875 529 
Q 447 1150 447 2328 
Q 447 3434 972 4092 
Q 1497 4750 2381 4750 
Q 2619 4750 2861 4703 
Q 3103 4656 3366 4563 
z
" id="DejaVuSans-36" transform="scale(0.015625)"/>
       </defs>
       <use xlink:href="#DejaVuSans-36"/>
       <use x="63.623047" xlink:href="#DejaVuSans-30"/>
      </g>
     </g>
    </g>
    <g id="xtick_5">
     <g id="line2d_5">
      <g>
       <use style="stroke:#000000;stroke-width:0.8;" x="301.77172" xlink:href="#mebeb691c0c" y="128.057143"/>
      </g>
     </g>
     <g id="text_5">
      <!-- 80 -->
      <g transform="translate(295.40922 142.65558)scale(0.1 -0.1)">
       <defs>
        <path d="M 2034 2216 
Q 1584 2216 1326 1975 
Q 1069 1734 1069 1313 
Q 1069 891 1326 650 
Q 1584 409 2034 409 
Q 2484 409 2743 651 
Q 3003 894 3003 1313 
Q 3003 1734 2745 1975 
Q 2488 2216 2034 2216 
z
M 1403 2484 
Q 997 2584 770 2862 
Q 544 3141 544 3541 
Q 544 4100 942 4425 
Q 1341 4750 2034 4750 
Q 2731 4750 3128 4425 
Q 3525 4100 3525 3541 
Q 3525 3141 3298 2862 
Q 3072 2584 2669 2484 
Q 3125 2378 3379 2068 
Q 3634 1759 3634 1313 
Q 3634 634 3220 271 
Q 2806 -91 2034 -91 
Q 1263 -91 848 271 
Q 434 634 434 1313 
Q 434 1759 690 2068 
Q 947 2378 1403 2484 
z
M 1172 3481 
Q 1172 3119 1398 2916 
Q 1625 2713 2034 2713 
Q 2441 2713 2670 2916 
Q 2900 3119 2900 3481 
Q 2900 3844 2670 4047 
Q 2441 4250 2034 4250 
Q 1625 4250 1398 4047 
Q 1172 3844 1172 3481 
z
" id="DejaVuSans-38" transform="scale(0.015625)"/>
       </defs>
       <use xlink:href="#DejaVuSans-38"/>
       <use x="63.623047" xlink:href="#DejaVuSans-30"/>
      </g>
     </g>
    </g>
    <g id="xtick_6">
     <g id="line2d_6">
      <g>
       <use style="stroke:#000000;stroke-width:0.8;" x="363.259323" xlink:href="#mebeb691c0c" y="128.057143"/>
      </g>
     </g>
     <g id="text_6">
      <!-- 100 -->
      <g transform="translate(353.715573 142.65558)scale(0.1 -0.1)">
       <defs>
        <path d="M 794 531 
L 1825 531 
L 1825 4091 
L 703 3866 
L 703 4441 
L 1819 4666 
L 2450 4666 
L 2450 531 
L 3481 531 
L 3481 0 
L 794 0 
L 794 531 
z
" id="DejaVuSans-31" transform="scale(0.015625)"/>
       </defs>
       <use xlink:href="#DejaVuSans-31"/>
       <use x="63.623047" xlink:href="#DejaVuSans-30"/>
       <use x="127.246094" xlink:href="#DejaVuSans-30"/>
      </g>
     </g>
    </g>
    <g id="text_7">
     <!-- Trial -->
     <g transform="translate(197.789062 156.333705)scale(0.1 -0.1)">
      <defs>
       <path d="M -19 4666 
L 3928 4666 
L 3928 4134 
L 2272 4134 
L 2272 0 
L 1638 0 
L 1638 4134 
L -19 4134 
L -19 4666 
z
" id="DejaVuSans-54" transform="scale(0.015625)"/>
       <path d="M 2631 2963 
Q 2534 3019 2420 3045 
Q 2306 3072 2169 3072 
Q 1681 3072 1420 2755 
Q 1159 2438 1159 1844 
L 1159 0 
L 581 0 
L 581 3500 
L 1159 3500 
L 1159 2956 
Q 1341 3275 1631 3429 
Q 1922 3584 2338 3584 
Q 2397 3584 2469 3576 
Q 2541 3569 2628 3553 
L 2631 2963 
z
" id="DejaVuSans-72" transform="scale(0.015625)"/>
       <path d="M 603 3500 
L 1178 3500 
L 1178 0 
L 603 0 
L 603 3500 
z
M 603 4863 
L 1178 4863 
L 1178 4134 
L 603 4134 
L 603 4863 
z
" id="DejaVuSans-69" transform="scale(0.015625)"/>
       <path d="M 2194 1759 
Q 1497 1759 1228 1600 
Q 959 1441 959 1056 
Q 959 750 1161 570 
Q 1363 391 1709 391 
Q 2188 391 2477 730 
Q 2766 1069 2766 1631 
L 2766 1759 
L 2194 1759 
z
M 3341 1997 
L 3341 0 
L 2766 0 
L 2766 531 
Q 2569 213 2275 61 
Q 1981 -91 1556 -91 
Q 1019 -91 701 211 
Q 384 513 384 1019 
Q 384 1609 779 1909 
Q 1175 2209 1959 2209 
L 2766 2209 
L 2766 2266 
Q 2766 2663 2505 2880 
Q 2244 3097 1772 3097 
Q 1472 3097 1187 3025 
Q 903 2953 641 2809 
L 641 3341 
Q 956 3463 1253 3523 
Q 1550 3584 1831 3584 
Q 2591 3584 2966 3190 
Q 3341 2797 3341 1997 
z
" id="DejaVuSans-61" transform="scale(0.015625)"/>
       <path d="M 603 4863 
L 1178 4863 
L 1178 0 
L 603 0 
L 603 4863 
z
" id="DejaVuSans-6c" transform="scale(0.015625)"/>
      </defs>
      <use xlink:href="#DejaVuSans-54"/>
      <use x="46.333984" xlink:href="#DejaVuSans-72"/>
      <use x="87.447266" xlink:href="#DejaVuSans-69"/>
      <use x="115.230469" xlink:href="#DejaVuSans-61"/>
      <use x="176.509766" xlink:href="#DejaVuSans-6c"/>
     </g>
    </g>
   </g>
   <g id="matplotlib.axis_2">
    <g id="ytick_1">
     <g id="line2d_7">
      <defs>
       <path d="M 0 0 
L -3.5 0 
" id="mfdfa208432" style="stroke:#000000;stroke-width:0.8;"/>
      </defs>
      <g>
       <use style="stroke:#000000;stroke-width:0.8;" x="40.603125" xlink:href="#mfdfa208432" y="124.527273"/>
      </g>
     </g>
     <g id="text_8">
      <!-- 0 -->
      <g transform="translate(27.240625 128.326491)scale(0.1 -0.1)">
       <use xlink:href="#DejaVuSans-30"/>
      </g>
     </g>
    </g>
    <g id="ytick_2">
     <g id="line2d_8">
      <g>
       <use style="stroke:#000000;stroke-width:0.8;" x="40.603125" xlink:href="#mfdfa208432" y="93.83275"/>
      </g>
     </g>
     <g id="text_9">
      <!-- 10 -->
      <g transform="translate(20.878125 97.631969)scale(0.1 -0.1)">
       <use xlink:href="#DejaVuSans-31"/>
       <use x="63.623047" xlink:href="#DejaVuSans-30"/>
      </g>
     </g>
    </g>
    <g id="ytick_3">
     <g id="line2d_9">
      <g>
       <use style="stroke:#000000;stroke-width:0.8;" x="40.603125" xlink:href="#mfdfa208432" y="63.138227"/>
      </g>
     </g>
     <g id="text_10">
      <!-- 20 -->
      <g transform="translate(20.878125 66.937446)scale(0.1 -0.1)">
       <use xlink:href="#DejaVuSans-32"/>
       <use x="63.623047" xlink:href="#DejaVuSans-30"/>
      </g>
     </g>
    </g>
    <g id="text_11">
     <!-- Pairs [#] -->
     <g transform="translate(14.798438 110.812165)rotate(-90)scale(0.1 -0.1)">
      <defs>
       <path d="M 1259 4147 
L 1259 2394 
L 2053 2394 
Q 2494 2394 2734 2622 
Q 2975 2850 2975 3272 
Q 2975 3691 2734 3919 
Q 2494 4147 2053 4147 
L 1259 4147 
z
M 628 4666 
L 2053 4666 
Q 2838 4666 3239 4311 
Q 3641 3956 3641 3272 
Q 3641 2581 3239 2228 
Q 2838 1875 2053 1875 
L 1259 1875 
L 1259 0 
L 628 0 
L 628 4666 
z
" id="DejaVuSans-50" transform="scale(0.015625)"/>
       <path d="M 2834 3397 
L 2834 2853 
Q 2591 2978 2328 3040 
Q 2066 3103 1784 3103 
Q 1356 3103 1142 2972 
Q 928 2841 928 2578 
Q 928 2378 1081 2264 
Q 1234 2150 1697 2047 
L 1894 2003 
Q 2506 1872 2764 1633 
Q 3022 1394 3022 966 
Q 3022 478 2636 193 
Q 2250 -91 1575 -91 
Q 1294 -91 989 -36 
Q 684 19 347 128 
L 347 722 
Q 666 556 975 473 
Q 1284 391 1588 391 
Q 1994 391 2212 530 
Q 2431 669 2431 922 
Q 2431 1156 2273 1281 
Q 2116 1406 1581 1522 
L 1381 1569 
Q 847 1681 609 1914 
Q 372 2147 372 2553 
Q 372 3047 722 3315 
Q 1072 3584 1716 3584 
Q 2034 3584 2315 3537 
Q 2597 3491 2834 3397 
z
" id="DejaVuSans-73" transform="scale(0.015625)"/>
       <path id="DejaVuSans-20" transform="scale(0.015625)"/>
       <path d="M 550 4863 
L 1875 4863 
L 1875 4416 
L 1125 4416 
L 1125 -397 
L 1875 -397 
L 1875 -844 
L 550 -844 
L 550 4863 
z
" id="DejaVuSans-5b" transform="scale(0.015625)"/>
       <path d="M 3272 2816 
L 2363 2816 
L 2100 1772 
L 3016 1772 
L 3272 2816 
z
M 2803 4594 
L 2478 3297 
L 3391 3297 
L 3719 4594 
L 4219 4594 
L 3897 3297 
L 4872 3297 
L 4872 2816 
L 3775 2816 
L 3519 1772 
L 4513 1772 
L 4513 1294 
L 3397 1294 
L 3072 0 
L 2572 0 
L 2894 1294 
L 1978 1294 
L 1656 0 
L 1153 0 
L 1478 1294 
L 494 1294 
L 494 1772 
L 1594 1772 
L 1856 2816 
L 850 2816 
L 850 3297 
L 1978 3297 
L 2297 4594 
L 2803 4594 
z
" id="DejaVuSans-23" transform="scale(0.015625)"/>
       <path d="M 1947 4863 
L 1947 -844 
L 622 -844 
L 622 -397 
L 1369 -397 
L 1369 4416 
L 622 4416 
L 622 4863 
L 1947 4863 
z
" id="DejaVuSans-5d" transform="scale(0.015625)"/>
      </defs>
      <use xlink:href="#DejaVuSans-50"/>
      <use x="55.802734" xlink:href="#DejaVuSans-61"/>
      <use x="117.082031" xlink:href="#DejaVuSans-69"/>
      <use x="144.865234" xlink:href="#DejaVuSans-72"/>
      <use x="185.978516" xlink:href="#DejaVuSans-73"/>
      <use x="238.078125" xlink:href="#DejaVuSans-20"/>
      <use x="269.865234" xlink:href="#DejaVuSans-5b"/>
      <use x="308.878906" xlink:href="#DejaVuSans-23"/>
      <use x="392.667969" xlink:href="#DejaVuSans-5d"/>
     </g>
    </g>
   </g>
   <g id="line2d_10">
    <path clip-path="url(#p6c714ef120)" d="M 55.821307 124.527273 
L 58.895687 64.949204 
L 61.970067 65.962123 
L 65.044447 68.540463 
L 68.118827 69.031575 
L 71.193208 66.760181 
L 74.267588 68.141434 
L 77.341968 69.737549 
L 80.416348 68.939492 
L 83.490728 68.417685 
L 86.565108 70.68908 
L 89.639489 70.0138 
L 92.713869 72.070333 
L 95.788249 71.916861 
L 98.862629 70.0138 
L 101.937009 69.307826 
L 105.011389 70.136578 
L 108.08577 70.596996 
L 111.16015 69.829633 
L 114.23453 69.553382 
L 117.30891 71.456443 
L 120.38329 66.852264 
L 123.45767 68.693936 
L 126.532051 67.496849 
L 129.606431 68.663241 
L 132.680811 69.246437 
L 135.755191 67.404766 
L 138.829571 69.246437 
L 141.903951 69.39991 
L 144.978332 65.164065 
L 148.052712 69.154353 
L 151.127092 67.865184 
L 154.201472 66.913653 
L 157.275852 69.430604 
L 160.350232 65.471011 
L 163.424613 66.545319 
L 166.498993 68.264212 
L 169.573373 67.558238 
L 172.647753 65.041287 
L 175.722133 67.895878 
L 178.796513 66.882959 
L 181.870894 66.422541 
L 184.945274 65.164065 
L 188.019654 66.299763 
L 191.094034 67.036431 
L 194.168414 63.721423 
L 197.242794 64.795731 
L 200.317175 64.488786 
L 203.391555 65.133371 
L 206.465935 63.90559 
L 209.540315 64.120452 
L 212.614695 62.340169 
L 215.689075 63.475867 
L 218.763456 62.800587 
L 221.837836 62.677809 
L 224.912216 61.542112 
L 227.986596 61.511417 
L 231.060976 62.432253 
L 234.135356 62.769893 
L 237.209737 60.345025 
L 240.284117 60.559887 
L 243.358497 60.406414 
L 246.432877 59.025161 
L 249.507257 59.945997 
L 252.581637 58.656827 
L 255.656018 60.682665 
L 258.730398 59.516273 
L 261.804778 60.160858 
L 264.879158 59.393495 
L 267.953538 60.03808 
L 271.027918 59.884608 
L 274.102299 59.209328 
L 277.176679 59.577662 
L 280.251059 59.823219 
L 283.325439 59.08655 
L 286.399819 57.766685 
L 289.474199 57.091406 
L 292.54858 57.79738 
L 295.62296 58.073631 
L 298.69734 59.332106 
L 301.77172 58.13502 
L 304.8461 56.753766 
L 307.92048 56.109181 
L 310.994861 58.319187 
L 314.069241 57.981547 
L 317.143621 55.925014 
L 320.218001 56.753766 
L 323.292381 56.293348 
L 326.366761 56.293348 
L 329.441142 58.441965 
L 332.515522 56.815155 
L 335.589902 53.92987 
L 338.664282 56.968628 
L 341.738662 57.244879 
L 344.813042 55.525985 
L 347.887423 54.820011 
L 350.961803 56.047792 
L 354.036183 55.955709 
L 357.110563 55.126957 
L 360.184943 56.262654 
" style="fill:none;stroke:#0000ff;stroke-linecap:square;stroke-width:1.5;"/>
   </g>
   <g id="line2d_11">
    <path clip-path="url(#p6c714ef120)" d="M 55.821307 124.527273 
L 58.895687 88.154263 
L 61.970067 88.67607 
L 65.044447 89.044404 
L 68.118827 88.522597 
L 71.193208 92.052468 
L 74.267588 90.487047 
L 77.341968 91.438577 
L 80.416348 91.25441 
L 83.490728 91.530661 
L 86.565108 88.983015 
L 89.639489 89.750378 
L 92.713869 88.33843 
L 95.788249 87.509678 
L 98.862629 91.8683 
L 101.937009 89.474128 
L 105.011389 90.333574 
L 108.08577 89.596906 
L 111.16015 88.860237 
L 114.23453 89.474128 
L 117.30891 87.356206 
L 120.38329 90.088018 
L 123.45767 89.995935 
L 126.532051 89.28996 
L 129.606431 89.044404 
L 132.680811 89.995935 
L 135.755191 90.057324 
L 138.829571 87.908707 
L 141.903951 87.325511 
L 144.978332 88.890932 
L 148.052712 87.233427 
L 151.127092 88.890932 
L 154.201472 88.461208 
L 157.275852 84.133281 
L 160.350232 87.785929 
L 163.424613 86.404675 
L 166.498993 85.084811 
L 169.573373 83.580779 
L 172.647753 86.527453 
L 175.722133 85.637312 
L 178.796513 84.593698 
L 181.870894 85.575923 
L 184.945274 84.256059 
L 188.019654 85.207589 
L 191.094034 83.212445 
L 194.168414 84.869949 
L 197.242794 85.575923 
L 200.317175 85.023422 
L 203.391555 84.010503 
L 206.465935 84.041197 
L 209.540315 82.537165 
L 212.614695 82.752027 
L 215.689075 81.739108 
L 218.763456 82.506471 
L 221.837836 81.984664 
L 224.912216 82.874805 
L 227.986596 80.6648 
L 231.060976 81.769802 
L 234.135356 80.572716 
L 237.209737 83.611474 
L 240.284117 82.199526 
L 243.358497 81.217301 
L 246.432877 81.861886 
L 249.507257 82.107442 
L 252.581637 84.317448 
L 255.656018 80.94105 
L 258.730398 80.910356 
L 261.804778 81.186606 
L 264.879158 80.818272 
L 267.953538 78.792434 
L 271.027918 79.344935 
L 274.102299 79.805353 
L 277.176679 78.731045 
L 280.251059 77.840903 
L 283.325439 78.239932 
L 286.399819 78.301321 
L 289.474199 78.424099 
L 292.54858 80.848967 
L 295.62296 79.252851 
L 298.69734 77.257708 
L 301.77172 76.060621 
L 304.8461 77.718125 
L 307.92048 78.669656 
L 310.994861 76.858679 
L 314.069241 75.845759 
L 317.143621 77.196318 
L 320.218001 76.582428 
L 323.292381 77.687431 
L 326.366761 76.490344 
L 329.441142 75.262564 
L 332.515522 76.79729 
L 335.589902 79.03799 
L 338.664282 76.79729 
L 341.738662 72.837696 
L 344.813042 74.21895 
L 347.887423 76.152705 
L 350.961803 76.551733 
L 354.036183 72.807002 
L 357.110563 75.907149 
L 360.184943 73.789226 
" style="fill:none;stroke:#ff0000;stroke-linecap:square;stroke-width:1.5;"/>
   </g>
   <g id="line2d_12">
    <path clip-path="url(#p6c714ef120)" d="M 55.821307 124.527273 
L 58.895687 70.075189 
L 61.970067 68.540463 
L 65.044447 65.593789 
L 68.118827 65.624483 
L 71.193208 64.366008 
L 74.267588 64.550175 
L 77.341968 62.00253 
L 80.416348 62.984754 
L 83.490728 63.230311 
L 86.565108 63.506561 
L 89.639489 63.414478 
L 92.713869 62.769893 
L 95.788249 63.752117 
L 98.862629 61.296556 
L 101.937009 64.396702 
L 105.011389 62.708504 
L 108.08577 62.984754 
L 111.16015 64.488786 
L 114.23453 64.151146 
L 117.30891 64.366008 
L 120.38329 66.238374 
L 123.45767 64.488786 
L 126.532051 66.391846 
L 129.606431 65.471011 
L 132.680811 63.936285 
L 135.755191 65.716567 
L 138.829571 66.023512 
L 141.903951 66.453235 
L 144.978332 69.123659 
L 148.052712 66.790875 
L 151.127092 66.422541 
L 154.201472 67.803794 
L 157.275852 69.614771 
L 160.350232 69.921717 
L 163.424613 70.228662 
L 166.498993 69.829633 
L 169.573373 72.039639 
L 172.647753 71.609915 
L 175.722133 69.645466 
L 178.796513 71.701999 
L 181.870894 71.180192 
L 184.945274 73.758532 
L 188.019654 71.671304 
L 191.094034 72.92978 
L 194.168414 74.587284 
L 197.242794 72.807002 
L 200.317175 73.666448 
L 203.391555 74.034783 
L 206.465935 75.231869 
L 209.540315 76.521039 
L 212.614695 78.08646 
L 215.689075 77.963682 
L 218.763456 77.871598 
L 221.837836 78.516183 
L 224.912216 78.761739 
L 227.986596 81.002439 
L 231.060976 78.976601 
L 234.135356 79.836047 
L 237.209737 79.222157 
L 240.284117 80.419243 
L 243.358497 81.554941 
L 246.432877 82.291609 
L 249.507257 81.125217 
L 252.581637 80.204382 
L 255.656018 81.554941 
L 258.730398 82.752027 
L 261.804778 81.831191 
L 264.879158 82.966889 
L 267.953538 84.348142 
L 271.027918 83.949113 
L 274.102299 84.163975 
L 277.176679 84.869949 
L 280.251059 85.514534 
L 283.325439 85.852174 
L 286.399819 87.110649 
L 289.474199 87.663151 
L 292.54858 84.532309 
L 295.62296 85.852174 
L 298.69734 86.588842 
L 301.77172 88.983015 
L 304.8461 88.706765 
L 307.92048 88.399819 
L 310.994861 88.000791 
L 314.069241 89.35135 
L 317.143621 90.057324 
L 320.218001 89.842462 
L 323.292381 89.197877 
L 326.366761 90.394963 
L 329.441142 89.474128 
L 332.515522 89.566211 
L 335.589902 90.210796 
L 338.664282 89.412739 
L 341.738662 93.096081 
L 344.813042 93.433721 
L 347.887423 92.20594 
L 350.961803 90.57913 
L 354.036183 94.415946 
L 357.110563 92.144551 
L 360.184943 93.126776 
" style="fill:none;stroke:#008000;stroke-linecap:square;stroke-width:1.5;"/>
   </g>
   <g id="patch_3">
    <path d="M 40.603125 128.057143 
L 40.603125 50.4 
" style="fill:none;stroke:#000000;stroke-linecap:square;stroke-linejoin:miter;stroke-width:0.8;"/>
   </g>
   <g id="patch_4">
    <path d="M 40.603125 128.057143 
L 375.403125 128.057143 
" style="fill:none;stroke:#000000;stroke-linecap:square;stroke-linejoin:miter;stroke-width:0.8;"/>
   </g>
   <g id="text_12">
    <!-- Trial Start Replays -->
    <g transform="translate(153.855 44.4)scale(0.12 -0.12)">
     <defs>
      <path d="M 3425 4513 
L 3425 3897 
Q 3066 4069 2747 4153 
Q 2428 4238 2131 4238 
Q 1616 4238 1336 4038 
Q 1056 3838 1056 3469 
Q 1056 3159 1242 3001 
Q 1428 2844 1947 2747 
L 2328 2669 
Q 3034 2534 3370 2195 
Q 3706 1856 3706 1288 
Q 3706 609 3251 259 
Q 2797 -91 1919 -91 
Q 1588 -91 1214 -16 
Q 841 59 441 206 
L 441 856 
Q 825 641 1194 531 
Q 1563 422 1919 422 
Q 2459 422 2753 634 
Q 3047 847 3047 1241 
Q 3047 1584 2836 1778 
Q 2625 1972 2144 2069 
L 1759 2144 
Q 1053 2284 737 2584 
Q 422 2884 422 3419 
Q 422 4038 858 4394 
Q 1294 4750 2059 4750 
Q 2388 4750 2728 4690 
Q 3069 4631 3425 4513 
z
" id="DejaVuSans-53" transform="scale(0.015625)"/>
      <path d="M 1172 4494 
L 1172 3500 
L 2356 3500 
L 2356 3053 
L 1172 3053 
L 1172 1153 
Q 1172 725 1289 603 
Q 1406 481 1766 481 
L 2356 481 
L 2356 0 
L 1766 0 
Q 1100 0 847 248 
Q 594 497 594 1153 
L 594 3053 
L 172 3053 
L 172 3500 
L 594 3500 
L 594 4494 
L 1172 4494 
z
" id="DejaVuSans-74" transform="scale(0.015625)"/>
      <path d="M 2841 2188 
Q 3044 2119 3236 1894 
Q 3428 1669 3622 1275 
L 4263 0 
L 3584 0 
L 2988 1197 
Q 2756 1666 2539 1819 
Q 2322 1972 1947 1972 
L 1259 1972 
L 1259 0 
L 628 0 
L 628 4666 
L 2053 4666 
Q 2853 4666 3247 4331 
Q 3641 3997 3641 3322 
Q 3641 2881 3436 2590 
Q 3231 2300 2841 2188 
z
M 1259 4147 
L 1259 2491 
L 2053 2491 
Q 2509 2491 2742 2702 
Q 2975 2913 2975 3322 
Q 2975 3731 2742 3939 
Q 2509 4147 2053 4147 
L 1259 4147 
z
" id="DejaVuSans-52" transform="scale(0.015625)"/>
      <path d="M 3597 1894 
L 3597 1613 
L 953 1613 
Q 991 1019 1311 708 
Q 1631 397 2203 397 
Q 2534 397 2845 478 
Q 3156 559 3463 722 
L 3463 178 
Q 3153 47 2828 -22 
Q 2503 -91 2169 -91 
Q 1331 -91 842 396 
Q 353 884 353 1716 
Q 353 2575 817 3079 
Q 1281 3584 2069 3584 
Q 2775 3584 3186 3129 
Q 3597 2675 3597 1894 
z
M 3022 2063 
Q 3016 2534 2758 2815 
Q 2500 3097 2075 3097 
Q 1594 3097 1305 2825 
Q 1016 2553 972 2059 
L 3022 2063 
z
" id="DejaVuSans-65" transform="scale(0.015625)"/>
      <path d="M 1159 525 
L 1159 -1331 
L 581 -1331 
L 581 3500 
L 1159 3500 
L 1159 2969 
Q 1341 3281 1617 3432 
Q 1894 3584 2278 3584 
Q 2916 3584 3314 3078 
Q 3713 2572 3713 1747 
Q 3713 922 3314 415 
Q 2916 -91 2278 -91 
Q 1894 -91 1617 61 
Q 1341 213 1159 525 
z
M 3116 1747 
Q 3116 2381 2855 2742 
Q 2594 3103 2138 3103 
Q 1681 3103 1420 2742 
Q 1159 2381 1159 1747 
Q 1159 1113 1420 752 
Q 1681 391 2138 391 
Q 2594 391 2855 752 
Q 3116 1113 3116 1747 
z
" id="DejaVuSans-70" transform="scale(0.015625)"/>
      <path d="M 2059 -325 
Q 1816 -950 1584 -1140 
Q 1353 -1331 966 -1331 
L 506 -1331 
L 506 -850 
L 844 -850 
Q 1081 -850 1212 -737 
Q 1344 -625 1503 -206 
L 1606 56 
L 191 3500 
L 800 3500 
L 1894 763 
L 2988 3500 
L 3597 3500 
L 2059 -325 
z
" id="DejaVuSans-79" transform="scale(0.015625)"/>
     </defs>
     <use xlink:href="#DejaVuSans-54"/>
     <use x="46.333984" xlink:href="#DejaVuSans-72"/>
     <use x="87.447266" xlink:href="#DejaVuSans-69"/>
     <use x="115.230469" xlink:href="#DejaVuSans-61"/>
     <use x="176.509766" xlink:href="#DejaVuSans-6c"/>
     <use x="204.292969" xlink:href="#DejaVuSans-20"/>
     <use x="236.080078" xlink:href="#DejaVuSans-53"/>
     <use x="299.556641" xlink:href="#DejaVuSans-74"/>
     <use x="338.765625" xlink:href="#DejaVuSans-61"/>
     <use x="400.044922" xlink:href="#DejaVuSans-72"/>
     <use x="441.158203" xlink:href="#DejaVuSans-74"/>
     <use x="480.367188" xlink:href="#DejaVuSans-20"/>
     <use x="512.154297" xlink:href="#DejaVuSans-52"/>
     <use x="577.136719" xlink:href="#DejaVuSans-65"/>
     <use x="638.660156" xlink:href="#DejaVuSans-70"/>
     <use x="702.136719" xlink:href="#DejaVuSans-6c"/>
     <use x="729.919922" xlink:href="#DejaVuSans-61"/>
     <use x="791.199219" xlink:href="#DejaVuSans-79"/>
     <use x="850.378906" xlink:href="#DejaVuSans-73"/>
    </g>
   </g>
  </g>
  <g id="axes_2">
   <g id="patch_5">
    <path d="M 40.603125 267.84 
L 375.403125 267.84 
L 375.403125 190.182857 
L 40.603125 190.182857 
z
" style="fill:none;"/>
   </g>
   <g id="matplotlib.axis_3">
    <g id="xtick_7">
     <g id="line2d_13">
      <g>
       <use style="stroke:#000000;stroke-width:0.8;" x="55.821307" xlink:href="#mebeb691c0c" y="267.84"/>
      </g>
     </g>
     <g id="text_13">
      <!-- 0 -->
      <g transform="translate(52.640057 282.438437)scale(0.1 -0.1)">
       <use xlink:href="#DejaVuSans-30"/>
      </g>
     </g>
    </g>
    <g id="xtick_8">
     <g id="line2d_14">
      <g>
       <use style="stroke:#000000;stroke-width:0.8;" x="117.30891" xlink:href="#mebeb691c0c" y="267.84"/>
      </g>
     </g>
     <g id="text_14">
      <!-- 20 -->
      <g transform="translate(110.94641 282.438437)scale(0.1 -0.1)">
       <use xlink:href="#DejaVuSans-32"/>
       <use x="63.623047" xlink:href="#DejaVuSans-30"/>
      </g>
     </g>
    </g>
    <g id="xtick_9">
     <g id="line2d_15">
      <g>
       <use style="stroke:#000000;stroke-width:0.8;" x="178.796513" xlink:href="#mebeb691c0c" y="267.84"/>
      </g>
     </g>
     <g id="text_15">
      <!-- 40 -->
      <g transform="translate(172.434013 282.438437)scale(0.1 -0.1)">
       <use xlink:href="#DejaVuSans-34"/>
       <use x="63.623047" xlink:href="#DejaVuSans-30"/>
      </g>
     </g>
    </g>
    <g id="xtick_10">
     <g id="line2d_16">
      <g>
       <use style="stroke:#000000;stroke-width:0.8;" x="240.284117" xlink:href="#mebeb691c0c" y="267.84"/>
      </g>
     </g>
     <g id="text_16">
      <!-- 60 -->
      <g transform="translate(233.921617 282.438437)scale(0.1 -0.1)">
       <use xlink:href="#DejaVuSans-36"/>
       <use x="63.623047" xlink:href="#DejaVuSans-30"/>
      </g>
     </g>
    </g>
    <g id="xtick_11">
     <g id="line2d_17">
      <g>
       <use style="stroke:#000000;stroke-width:0.8;" x="301.77172" xlink:href="#mebeb691c0c" y="267.84"/>
      </g>
     </g>
     <g id="text_17">
      <!-- 80 -->
      <g transform="translate(295.40922 282.438437)scale(0.1 -0.1)">
       <use xlink:href="#DejaVuSans-38"/>
       <use x="63.623047" xlink:href="#DejaVuSans-30"/>
      </g>
     </g>
    </g>
    <g id="xtick_12">
     <g id="line2d_18">
      <g>
       <use style="stroke:#000000;stroke-width:0.8;" x="363.259323" xlink:href="#mebeb691c0c" y="267.84"/>
      </g>
     </g>
     <g id="text_18">
      <!-- 100 -->
      <g transform="translate(353.715573 282.438437)scale(0.1 -0.1)">
       <use xlink:href="#DejaVuSans-31"/>
       <use x="63.623047" xlink:href="#DejaVuSans-30"/>
       <use x="127.246094" xlink:href="#DejaVuSans-30"/>
      </g>
     </g>
    </g>
    <g id="text_19">
     <!-- Trial -->
     <g transform="translate(197.789062 296.116562)scale(0.1 -0.1)">
      <use xlink:href="#DejaVuSans-54"/>
      <use x="46.333984" xlink:href="#DejaVuSans-72"/>
      <use x="87.447266" xlink:href="#DejaVuSans-69"/>
      <use x="115.230469" xlink:href="#DejaVuSans-61"/>
      <use x="176.509766" xlink:href="#DejaVuSans-6c"/>
     </g>
    </g>
   </g>
   <g id="matplotlib.axis_4">
    <g id="ytick_4">
     <g id="line2d_19">
      <g>
       <use style="stroke:#000000;stroke-width:0.8;" x="40.603125" xlink:href="#mfdfa208432" y="261.990899"/>
      </g>
     </g>
     <g id="text_20">
      <!-- 10 -->
      <g transform="translate(20.878125 265.790117)scale(0.1 -0.1)">
       <use xlink:href="#DejaVuSans-31"/>
       <use x="63.623047" xlink:href="#DejaVuSans-30"/>
      </g>
     </g>
    </g>
    <g id="ytick_5">
     <g id="line2d_20">
      <g>
       <use style="stroke:#000000;stroke-width:0.8;" x="40.603125" xlink:href="#mfdfa208432" y="215.606271"/>
      </g>
     </g>
     <g id="text_21">
      <!-- 20 -->
      <g transform="translate(20.878125 219.40549)scale(0.1 -0.1)">
       <use xlink:href="#DejaVuSans-32"/>
       <use x="63.623047" xlink:href="#DejaVuSans-30"/>
      </g>
     </g>
    </g>
    <g id="text_22">
     <!-- Pairs [#] -->
     <g transform="translate(14.798438 250.595022)rotate(-90)scale(0.1 -0.1)">
      <use xlink:href="#DejaVuSans-50"/>
      <use x="55.802734" xlink:href="#DejaVuSans-61"/>
      <use x="117.082031" xlink:href="#DejaVuSans-69"/>
      <use x="144.865234" xlink:href="#DejaVuSans-72"/>
      <use x="185.978516" xlink:href="#DejaVuSans-73"/>
      <use x="238.078125" xlink:href="#DejaVuSans-20"/>
      <use x="269.865234" xlink:href="#DejaVuSans-5b"/>
      <use x="308.878906" xlink:href="#DejaVuSans-23"/>
      <use x="392.667969" xlink:href="#DejaVuSans-5d"/>
     </g>
    </g>
   </g>
   <g id="line2d_21">
    <path clip-path="url(#pb60c467dd5)" d="M 55.821307 223.120581 
L 58.895687 225.11512 
L 61.970067 226.135582 
L 65.044447 228.779505 
L 68.118827 224.975966 
L 71.193208 226.692197 
L 74.267588 228.872275 
L 77.341968 227.61989 
L 80.416348 227.387967 
L 83.490728 230.402967 
L 86.565108 230.449352 
L 89.639489 227.666274 
L 92.713869 230.959583 
L 95.788249 229.753583 
L 98.862629 232.165583 
L 101.937009 230.634891 
L 105.011389 232.072814 
L 108.08577 231.145121 
L 111.16015 233.371584 
L 114.23453 232.907737 
L 117.30891 234.299276 
L 120.38329 236.293815 
L 123.45767 238.7522 
L 126.532051 236.9432 
L 129.606431 237.407046 
L 132.680811 236.572123 
L 135.755191 239.216047 
L 138.829571 236.293815 
L 141.903951 240.422047 
L 144.978332 239.633508 
L 148.052712 239.679893 
L 151.127092 240.236508 
L 154.201472 240.004585 
L 157.275852 237.685354 
L 160.350232 238.288354 
L 163.424613 238.102816 
L 166.498993 237.731738 
L 169.573373 239.726277 
L 172.647753 241.95274 
L 175.722133 240.700355 
L 178.796513 241.999124 
L 181.870894 240.375662 
L 184.945274 241.396124 
L 188.019654 242.834047 
L 191.094034 241.535278 
L 194.168414 243.993663 
L 197.242794 238.705816 
L 200.317175 241.813586 
L 203.391555 243.993663 
L 206.465935 240.793124 
L 209.540315 238.891354 
L 212.614695 244.411125 
L 215.689075 241.396124 
L 218.763456 239.262431 
L 221.837836 242.55574 
L 224.912216 239.587124 
L 227.986596 241.85997 
L 231.060976 245.106894 
L 234.135356 243.437048 
L 237.209737 241.396124 
L 240.284117 241.813586 
L 243.358497 244.040048 
L 246.432877 241.071432 
L 249.507257 240.097354 
L 252.581637 239.076893 
L 255.656018 243.622586 
L 258.730398 243.993663 
L 261.804778 242.231047 
L 264.879158 242.138278 
L 267.953538 243.065971 
L 271.027918 244.318356 
L 274.102299 241.442509 
L 277.176679 243.993663 
L 280.251059 242.926817 
L 283.325439 241.85997 
L 286.399819 244.874971 
L 289.474199 239.819047 
L 292.54858 243.019586 
L 295.62296 243.15874 
L 298.69734 241.999124 
L 301.77172 243.715355 
L 304.8461 243.019586 
L 307.92048 240.05097 
L 310.994861 238.288354 
L 314.069241 240.746739 
L 317.143621 243.576202 
L 320.218001 240.422047 
L 323.292381 242.323817 
L 326.366761 245.941817 
L 329.441142 240.375662 
L 332.515522 239.911816 
L 335.589902 240.004585 
L 338.664282 242.231047 
L 341.738662 238.520277 
L 344.813042 240.097354 
L 347.887423 239.030508 
L 350.961803 239.819047 
L 354.036183 237.082354 
L 357.110563 241.349739 
L 360.184943 241.396124 
" style="fill:none;stroke:#0000ff;stroke-linecap:square;stroke-width:1.5;"/>
   </g>
   <g id="line2d_22">
    <path clip-path="url(#pb60c467dd5)" d="M 55.821307 245.199663 
L 58.895687 248.585741 
L 61.970067 250.301972 
L 65.044447 246.823125 
L 68.118827 250.812203 
L 71.193208 254.569358 
L 74.267588 251.507973 
L 77.341968 250.58028 
L 80.416348 251.461588 
L 83.490728 246.637587 
L 86.565108 248.817664 
L 89.639489 251.368819 
L 92.713869 247.008664 
L 95.788249 248.539357 
L 98.862629 244.96774 
L 101.937009 247.565279 
L 105.011389 245.385202 
L 108.08577 245.941817 
L 111.16015 240.468431 
L 114.23453 240.329278 
L 117.30891 237.592585 
L 120.38329 239.216047 
L 123.45767 233.83543 
L 126.532051 236.386584 
L 129.606431 233.093276 
L 132.680811 232.954122 
L 135.755191 231.469814 
L 138.829571 230.03189 
L 141.903951 229.660813 
L 144.978332 227.759044 
L 148.052712 228.733121 
L 151.127092 225.439812 
L 154.201472 224.697658 
L 157.275852 226.135582 
L 160.350232 225.068735 
L 163.424613 223.074196 
L 166.498993 225.996428 
L 169.573373 221.126042 
L 172.647753 220.430273 
L 175.722133 219.966426 
L 178.796513 219.966426 
L 181.870894 219.224272 
L 184.945274 216.441195 
L 188.019654 215.235194 
L 191.094034 214.817733 
L 194.168414 213.472578 
L 197.242794 215.884579 
L 200.317175 212.962348 
L 203.391555 211.895501 
L 206.465935 212.266578 
L 209.540315 213.658117 
L 212.614695 210.086501 
L 215.689075 209.344347 
L 218.763456 210.364808 
L 221.837836 208.370269 
L 224.912216 210.086501 
L 227.986596 206.329346 
L 231.060976 206.37573 
L 234.135356 207.628115 
L 237.209737 206.700423 
L 240.284117 206.561269 
L 243.358497 204.984192 
L 246.432877 206.607654 
L 249.507257 206.329346 
L 252.581637 206.329346 
L 255.656018 202.06196 
L 258.730398 203.314345 
L 261.804778 202.108345 
L 264.879158 203.26796 
L 267.953538 199.64996 
L 271.027918 200.995114 
L 274.102299 200.438498 
L 277.176679 200.345729 
L 280.251059 198.397575 
L 283.325439 199.510806 
L 286.399819 200.345729 
L 289.474199 200.206575 
L 292.54858 197.609036 
L 295.62296 197.840959 
L 298.69734 199.325267 
L 301.77172 198.815036 
L 304.8461 196.356651 
L 307.92048 197.098805 
L 310.994861 200.16019 
L 314.069241 197.098805 
L 317.143621 197.655421 
L 320.218001 197.05242 
L 323.292381 195.892805 
L 326.366761 194.733189 
L 329.441142 197.516267 
L 332.515522 195.892805 
L 335.589902 197.098805 
L 338.664282 195.382574 
L 341.738662 197.469882 
L 344.813042 194.594035 
L 347.887423 195.753651 
L 350.961803 193.712727 
L 354.036183 198.722267 
L 357.110563 195.660882 
L 360.184943 195.985574 
" style="fill:none;stroke:#ff0000;stroke-linecap:square;stroke-width:1.5;"/>
   </g>
   <g id="line2d_23">
    <path clip-path="url(#pb60c467dd5)" d="M 55.821307 229.521659 
L 58.895687 224.141043 
L 61.970067 221.40435 
L 65.044447 222.239273 
L 68.118827 222.053734 
L 71.193208 216.580348 
L 74.267588 217.461656 
L 77.341968 219.641734 
L 80.416348 218.992349 
L 83.490728 220.80135 
L 86.565108 218.574887 
L 89.639489 218.806811 
L 92.713869 219.873657 
L 95.788249 219.548965 
L 98.862629 220.70858 
L 101.937009 219.641734 
L 105.011389 220.383888 
L 108.08577 220.754965 
L 111.16015 224.001889 
L 114.23453 224.604889 
L 117.30891 225.950043 
L 120.38329 222.332042 
L 123.45767 225.254274 
L 126.532051 224.51212 
L 129.606431 227.341582 
L 132.680811 228.315659 
L 135.755191 227.156043 
L 138.829571 231.516198 
L 141.903951 227.759044 
L 144.978332 230.449352 
L 148.052712 229.42889 
L 151.127092 232.165583 
L 154.201472 233.13966 
L 157.275852 234.020968 
L 160.350232 234.484815 
L 163.424613 236.664892 
L 166.498993 234.113738 
L 169.573373 236.989584 
L 172.647753 235.458892 
L 175.722133 237.175123 
L 178.796513 235.876353 
L 181.870894 238.241969 
L 184.945274 240.004585 
L 188.019654 239.772662 
L 191.094034 241.488893 
L 194.168414 240.375662 
L 197.242794 243.251509 
L 200.317175 243.065971 
L 203.391555 241.95274 
L 206.465935 244.782202 
L 209.540315 245.292433 
L 212.614695 243.344278 
L 215.689075 247.101433 
L 218.763456 248.214664 
L 221.837836 246.915895 
L 224.912216 248.16828 
L 227.986596 249.652588 
L 231.060976 246.359279 
L 234.135356 246.776741 
L 237.209737 249.745357 
L 240.284117 249.467049 
L 243.358497 248.817664 
L 246.432877 250.162819 
L 249.507257 251.415204 
L 252.581637 252.435665 
L 255.656018 252.157358 
L 258.730398 250.533896 
L 261.804778 253.502512 
L 264.879158 252.435665 
L 267.953538 255.125974 
L 271.027918 252.528435 
L 274.102299 255.960897 
L 277.176679 253.502512 
L 280.251059 256.517513 
L 283.325439 256.471128 
L 286.399819 252.621204 
L 289.474199 257.816282 
L 292.54858 257.213282 
L 295.62296 256.842205 
L 298.69734 256.517513 
L 301.77172 255.311512 
L 304.8461 258.465667 
L 307.92048 260.692129 
L 310.994861 259.393359 
L 314.069241 259.99636 
L 317.143621 256.610282 
L 320.218001 260.367437 
L 323.292381 259.625283 
L 326.366761 257.166897 
L 329.441142 259.949975 
L 332.515522 262.037283 
L 335.589902 260.738514 
L 338.664282 260.228283 
L 341.738662 261.851745 
L 344.813042 263.150514 
L 347.887423 263.057745 
L 350.961803 264.31013 
L 354.036183 262.037283 
L 357.110563 260.831283 
L 360.184943 260.460206 
" style="fill:none;stroke:#008000;stroke-linecap:square;stroke-width:1.5;"/>
   </g>
   <g id="patch_6">
    <path d="M 40.603125 267.84 
L 40.603125 190.182857 
" style="fill:none;stroke:#000000;stroke-linecap:square;stroke-linejoin:miter;stroke-width:0.8;"/>
   </g>
   <g id="patch_7">
    <path d="M 40.603125 267.84 
L 375.403125 267.84 
" style="fill:none;stroke:#000000;stroke-linecap:square;stroke-linejoin:miter;stroke-width:0.8;"/>
   </g>
   <g id="text_23">
    <!-- Trial End Replays -->
    <g transform="translate(157.109062 184.182857)scale(0.12 -0.12)">
     <defs>
      <path d="M 628 4666 
L 3578 4666 
L 3578 4134 
L 1259 4134 
L 1259 2753 
L 3481 2753 
L 3481 2222 
L 1259 2222 
L 1259 531 
L 3634 531 
L 3634 0 
L 628 0 
L 628 4666 
z
" id="DejaVuSans-45" transform="scale(0.015625)"/>
      <path d="M 3513 2113 
L 3513 0 
L 2938 0 
L 2938 2094 
Q 2938 2591 2744 2837 
Q 2550 3084 2163 3084 
Q 1697 3084 1428 2787 
Q 1159 2491 1159 1978 
L 1159 0 
L 581 0 
L 581 3500 
L 1159 3500 
L 1159 2956 
Q 1366 3272 1645 3428 
Q 1925 3584 2291 3584 
Q 2894 3584 3203 3211 
Q 3513 2838 3513 2113 
z
" id="DejaVuSans-6e" transform="scale(0.015625)"/>
      <path d="M 2906 2969 
L 2906 4863 
L 3481 4863 
L 3481 0 
L 2906 0 
L 2906 525 
Q 2725 213 2448 61 
Q 2172 -91 1784 -91 
Q 1150 -91 751 415 
Q 353 922 353 1747 
Q 353 2572 751 3078 
Q 1150 3584 1784 3584 
Q 2172 3584 2448 3432 
Q 2725 3281 2906 2969 
z
M 947 1747 
Q 947 1113 1208 752 
Q 1469 391 1925 391 
Q 2381 391 2643 752 
Q 2906 1113 2906 1747 
Q 2906 2381 2643 2742 
Q 2381 3103 1925 3103 
Q 1469 3103 1208 2742 
Q 947 2381 947 1747 
z
" id="DejaVuSans-64" transform="scale(0.015625)"/>
     </defs>
     <use xlink:href="#DejaVuSans-54"/>
     <use x="46.333984" xlink:href="#DejaVuSans-72"/>
     <use x="87.447266" xlink:href="#DejaVuSans-69"/>
     <use x="115.230469" xlink:href="#DejaVuSans-61"/>
     <use x="176.509766" xlink:href="#DejaVuSans-6c"/>
     <use x="204.292969" xlink:href="#DejaVuSans-20"/>
     <use x="236.080078" xlink:href="#DejaVuSans-45"/>
     <use x="299.263672" xlink:href="#DejaVuSans-6e"/>
     <use x="362.642578" xlink:href="#DejaVuSans-64"/>
     <use x="426.119141" xlink:href="#DejaVuSans-20"/>
     <use x="457.90625" xlink:href="#DejaVuSans-52"/>
     <use x="522.888672" xlink:href="#DejaVuSans-65"/>
     <use x="584.412109" xlink:href="#DejaVuSans-70"/>
     <use x="647.888672" xlink:href="#DejaVuSans-6c"/>
     <use x="675.671875" xlink:href="#DejaVuSans-61"/>
     <use x="736.951172" xlink:href="#DejaVuSans-79"/>
     <use x="796.130859" xlink:href="#DejaVuSans-73"/>
    </g>
   </g>
   <g id="legend_1">
    <g id="patch_8">
     <path d="M 54.676875 333.882321 
L 361.329375 333.882321 
Q 363.729375 333.882321 363.729375 331.482321 
L 363.729375 315.068571 
Q 363.729375 312.668571 361.329375 312.668571 
L 54.676875 312.668571 
Q 52.276875 312.668571 52.276875 315.068571 
L 52.276875 331.482321 
Q 52.276875 333.882321 54.676875 333.882321 
z
" style="fill:none;opacity:0;"/>
    </g>
    <g id="line2d_24">
     <path d="M 57.076875 322.386696 
L 81.076875 322.386696 
" style="fill:none;stroke:#0000ff;stroke-linecap:square;stroke-width:1.5;"/>
    </g>
    <g id="line2d_25"/>
    <g id="text_24">
     <!-- forward -->
     <g transform="translate(90.676875 326.586696)scale(0.12 -0.12)">
      <defs>
       <path d="M 2375 4863 
L 2375 4384 
L 1825 4384 
Q 1516 4384 1395 4259 
Q 1275 4134 1275 3809 
L 1275 3500 
L 2222 3500 
L 2222 3053 
L 1275 3053 
L 1275 0 
L 697 0 
L 697 3053 
L 147 3053 
L 147 3500 
L 697 3500 
L 697 3744 
Q 697 4328 969 4595 
Q 1241 4863 1831 4863 
L 2375 4863 
z
" id="DejaVuSans-66" transform="scale(0.015625)"/>
       <path d="M 1959 3097 
Q 1497 3097 1228 2736 
Q 959 2375 959 1747 
Q 959 1119 1226 758 
Q 1494 397 1959 397 
Q 2419 397 2687 759 
Q 2956 1122 2956 1747 
Q 2956 2369 2687 2733 
Q 2419 3097 1959 3097 
z
M 1959 3584 
Q 2709 3584 3137 3096 
Q 3566 2609 3566 1747 
Q 3566 888 3137 398 
Q 2709 -91 1959 -91 
Q 1206 -91 779 398 
Q 353 888 353 1747 
Q 353 2609 779 3096 
Q 1206 3584 1959 3584 
z
" id="DejaVuSans-6f" transform="scale(0.015625)"/>
       <path d="M 269 3500 
L 844 3500 
L 1563 769 
L 2278 3500 
L 2956 3500 
L 3675 769 
L 4391 3500 
L 4966 3500 
L 4050 0 
L 3372 0 
L 2619 2869 
L 1863 0 
L 1184 0 
L 269 3500 
z
" id="DejaVuSans-77" transform="scale(0.015625)"/>
      </defs>
      <use xlink:href="#DejaVuSans-66"/>
      <use x="35.205078" xlink:href="#DejaVuSans-6f"/>
      <use x="96.386719" xlink:href="#DejaVuSans-72"/>
      <use x="137.5" xlink:href="#DejaVuSans-77"/>
      <use x="219.287109" xlink:href="#DejaVuSans-61"/>
      <use x="280.566406" xlink:href="#DejaVuSans-72"/>
      <use x="319.929688" xlink:href="#DejaVuSans-64"/>
     </g>
    </g>
    <g id="line2d_26">
     <path d="M 160.685625 322.386696 
L 184.685625 322.386696 
" style="fill:none;stroke:#ff0000;stroke-linecap:square;stroke-width:1.5;"/>
    </g>
    <g id="line2d_27"/>
    <g id="text_25">
     <!-- reverse -->
     <g transform="translate(194.285625 326.586696)scale(0.12 -0.12)">
      <defs>
       <path d="M 191 3500 
L 800 3500 
L 1894 563 
L 2988 3500 
L 3597 3500 
L 2284 0 
L 1503 0 
L 191 3500 
z
" id="DejaVuSans-76" transform="scale(0.015625)"/>
      </defs>
      <use xlink:href="#DejaVuSans-72"/>
      <use x="38.863281" xlink:href="#DejaVuSans-65"/>
      <use x="100.386719" xlink:href="#DejaVuSans-76"/>
      <use x="159.566406" xlink:href="#DejaVuSans-65"/>
      <use x="221.089844" xlink:href="#DejaVuSans-72"/>
      <use x="262.203125" xlink:href="#DejaVuSans-73"/>
      <use x="314.302734" xlink:href="#DejaVuSans-65"/>
     </g>
    </g>
    <g id="line2d_28">
     <path d="M 263.386875 322.386696 
L 287.386875 322.386696 
" style="fill:none;stroke:#008000;stroke-linecap:square;stroke-width:1.5;"/>
    </g>
    <g id="line2d_29"/>
    <g id="text_26">
     <!-- unordered -->
     <g transform="translate(296.986875 326.586696)scale(0.12 -0.12)">
      <defs>
       <path d="M 544 1381 
L 544 3500 
L 1119 3500 
L 1119 1403 
Q 1119 906 1312 657 
Q 1506 409 1894 409 
Q 2359 409 2629 706 
Q 2900 1003 2900 1516 
L 2900 3500 
L 3475 3500 
L 3475 0 
L 2900 0 
L 2900 538 
Q 2691 219 2414 64 
Q 2138 -91 1772 -91 
Q 1169 -91 856 284 
Q 544 659 544 1381 
z
M 1991 3584 
L 1991 3584 
z
" id="DejaVuSans-75" transform="scale(0.015625)"/>
      </defs>
      <use xlink:href="#DejaVuSans-75"/>
      <use x="63.378906" xlink:href="#DejaVuSans-6e"/>
      <use x="126.757812" xlink:href="#DejaVuSans-6f"/>
      <use x="187.939453" xlink:href="#DejaVuSans-72"/>
      <use x="227.302734" xlink:href="#DejaVuSans-64"/>
      <use x="290.779297" xlink:href="#DejaVuSans-65"/>
      <use x="352.302734" xlink:href="#DejaVuSans-72"/>
      <use x="391.166016" xlink:href="#DejaVuSans-65"/>
      <use x="452.689453" xlink:href="#DejaVuSans-64"/>
     </g>
    </g>
   </g>
  </g>
  <g id="text_27">
   <!-- Labyrinth, Default Mode -->
   <g transform="translate(112.024219 18.597656)scale(0.15 -0.15)">
    <defs>
     <path d="M 628 4666 
L 1259 4666 
L 1259 531 
L 3531 531 
L 3531 0 
L 628 0 
L 628 4666 
z
" id="DejaVuSans-4c" transform="scale(0.015625)"/>
     <path d="M 3116 1747 
Q 3116 2381 2855 2742 
Q 2594 3103 2138 3103 
Q 1681 3103 1420 2742 
Q 1159 2381 1159 1747 
Q 1159 1113 1420 752 
Q 1681 391 2138 391 
Q 2594 391 2855 752 
Q 3116 1113 3116 1747 
z
M 1159 2969 
Q 1341 3281 1617 3432 
Q 1894 3584 2278 3584 
Q 2916 3584 3314 3078 
Q 3713 2572 3713 1747 
Q 3713 922 3314 415 
Q 2916 -91 2278 -91 
Q 1894 -91 1617 61 
Q 1341 213 1159 525 
L 1159 0 
L 581 0 
L 581 4863 
L 1159 4863 
L 1159 2969 
z
" id="DejaVuSans-62" transform="scale(0.015625)"/>
     <path d="M 3513 2113 
L 3513 0 
L 2938 0 
L 2938 2094 
Q 2938 2591 2744 2837 
Q 2550 3084 2163 3084 
Q 1697 3084 1428 2787 
Q 1159 2491 1159 1978 
L 1159 0 
L 581 0 
L 581 4863 
L 1159 4863 
L 1159 2956 
Q 1366 3272 1645 3428 
Q 1925 3584 2291 3584 
Q 2894 3584 3203 3211 
Q 3513 2838 3513 2113 
z
" id="DejaVuSans-68" transform="scale(0.015625)"/>
     <path d="M 750 794 
L 1409 794 
L 1409 256 
L 897 -744 
L 494 -744 
L 750 256 
L 750 794 
z
" id="DejaVuSans-2c" transform="scale(0.015625)"/>
     <path d="M 1259 4147 
L 1259 519 
L 2022 519 
Q 2988 519 3436 956 
Q 3884 1394 3884 2338 
Q 3884 3275 3436 3711 
Q 2988 4147 2022 4147 
L 1259 4147 
z
M 628 4666 
L 1925 4666 
Q 3281 4666 3915 4102 
Q 4550 3538 4550 2338 
Q 4550 1131 3912 565 
Q 3275 0 1925 0 
L 628 0 
L 628 4666 
z
" id="DejaVuSans-44" transform="scale(0.015625)"/>
     <path d="M 628 4666 
L 1569 4666 
L 2759 1491 
L 3956 4666 
L 4897 4666 
L 4897 0 
L 4281 0 
L 4281 4097 
L 3078 897 
L 2444 897 
L 1241 4097 
L 1241 0 
L 628 0 
L 628 4666 
z
" id="DejaVuSans-4d" transform="scale(0.015625)"/>
    </defs>
    <use xlink:href="#DejaVuSans-4c"/>
    <use x="55.712891" xlink:href="#DejaVuSans-61"/>
    <use x="116.992188" xlink:href="#DejaVuSans-62"/>
    <use x="180.46875" xlink:href="#DejaVuSans-79"/>
    <use x="239.648438" xlink:href="#DejaVuSans-72"/>
    <use x="280.761719" xlink:href="#DejaVuSans-69"/>
    <use x="308.544922" xlink:href="#DejaVuSans-6e"/>
    <use x="371.923828" xlink:href="#DejaVuSans-74"/>
    <use x="411.132812" xlink:href="#DejaVuSans-68"/>
    <use x="474.511719" xlink:href="#DejaVuSans-2c"/>
    <use x="506.298828" xlink:href="#DejaVuSans-20"/>
    <use x="538.085938" xlink:href="#DejaVuSans-44"/>
    <use x="615.087891" xlink:href="#DejaVuSans-65"/>
    <use x="676.611328" xlink:href="#DejaVuSans-66"/>
    <use x="711.816406" xlink:href="#DejaVuSans-61"/>
    <use x="773.095703" xlink:href="#DejaVuSans-75"/>
    <use x="836.474609" xlink:href="#DejaVuSans-6c"/>
    <use x="864.257812" xlink:href="#DejaVuSans-74"/>
    <use x="903.466797" xlink:href="#DejaVuSans-20"/>
    <use x="935.253906" xlink:href="#DejaVuSans-4d"/>
    <use x="1021.533203" xlink:href="#DejaVuSans-6f"/>
    <use x="1082.714844" xlink:href="#DejaVuSans-64"/>
    <use x="1146.191406" xlink:href="#DejaVuSans-65"/>
   </g>
  </g>
 </g>
 <defs>
  <clipPath id="p6c714ef120">
   <rect height="77.657143" width="334.8" x="40.603125" y="50.4"/>
  </clipPath>
  <clipPath id="pb60c467dd5">
   <rect height="77.657143" width="334.8" x="40.603125" y="190.182857"/>
  </clipPath>
 </defs>
</svg>
