<?xml version="1.0" encoding="utf-8" standalone="no"?>
<!DOCTYPE svg PUBLIC "-//W3C//DTD SVG 1.1//EN"
  "http://www.w3.org/Graphics/SVG/1.1/DTD/svg11.dtd">
<svg height="341.082321pt" version="1.1" viewBox="0 0 400.523437 341.082321" width="400.523437pt" xmlns="http://www.w3.org/2000/svg" xmlns:xlink="http://www.w3.org/1999/xlink">
 <metadata>
  <rdf:RDF xmlns:cc="http://creativecommons.org/ns#" xmlns:dc="http://purl.org/dc/elements/1.1/" xmlns:rdf="http://www.w3.org/1999/02/22-rdf-syntax-ns#">
   <cc:Work>
    <dc:type rdf:resource="http://purl.org/dc/dcmitype/StillImage"/>
    <dc:date>2022-07-21T20:15:03.298380</dc:date>
    <dc:format>image/svg+xml</dc:format>
    <dc:creator>
     <cc:Agent>
      <dc:title>Matplotlib v3.4.3, https://matplotlib.org/</dc:title>
     </cc:Agent>
    </dc:creator>
   </cc:Work>
  </rdf:RDF>
 </metadata>
 <defs>
  <style type="text/css">*{stroke-linecap:butt;stroke-linejoin:round;}</style>
 </defs>
 <g id="figure_1">
  <g id="patch_1">
   <path d="M 0 341.082321 
L 400.523437 341.082321 
L 400.523437 0 
L 0 0 
z
" style="fill:none;"/>
  </g>
  <g id="axes_1">
   <g id="patch_2">
    <path d="M 58.523438 128.057143 
L 393.323438 128.057143 
L 393.323438 50.4 
L 58.523438 50.4 
z
" style="fill:none;"/>
   </g>
   <g id="matplotlib.axis_1">
    <g id="xtick_1">
     <g id="line2d_1">
      <defs>
       <path d="M 0 0 
L 0 3.5 
" id="m13adb810c9" style="stroke:#000000;stroke-width:0.8;"/>
      </defs>
      <g>
       <use style="stroke:#000000;stroke-width:0.8;" x="73.741619" xlink:href="#m13adb810c9" y="128.057143"/>
      </g>
     </g>
     <g id="text_1">
      <!-- 0 -->
      <g transform="translate(70.560369 142.65558)scale(0.1 -0.1)">
       <defs>
        <path d="M 2034 4250 
Q 1547 4250 1301 3770 
Q 1056 3291 1056 2328 
Q 1056 1369 1301 889 
Q 1547 409 2034 409 
Q 2525 409 2770 889 
Q 3016 1369 3016 2328 
Q 3016 3291 2770 3770 
Q 2525 4250 2034 4250 
z
M 2034 4750 
Q 2819 4750 3233 4129 
Q 3647 3509 3647 2328 
Q 3647 1150 3233 529 
Q 2819 -91 2034 -91 
Q 1250 -91 836 529 
Q 422 1150 422 2328 
Q 422 3509 836 4129 
Q 1250 4750 2034 4750 
z
" id="DejaVuSans-30" transform="scale(0.015625)"/>
       </defs>
       <use xlink:href="#DejaVuSans-30"/>
      </g>
     </g>
    </g>
    <g id="xtick_2">
     <g id="line2d_2">
      <g>
       <use style="stroke:#000000;stroke-width:0.8;" x="135.229223" xlink:href="#m13adb810c9" y="128.057143"/>
      </g>
     </g>
     <g id="text_2">
      <!-- 20 -->
      <g transform="translate(128.866723 142.65558)scale(0.1 -0.1)">
       <defs>
        <path d="M 1228 531 
L 3431 531 
L 3431 0 
L 469 0 
L 469 531 
Q 828 903 1448 1529 
Q 2069 2156 2228 2338 
Q 2531 2678 2651 2914 
Q 2772 3150 2772 3378 
Q 2772 3750 2511 3984 
Q 2250 4219 1831 4219 
Q 1534 4219 1204 4116 
Q 875 4013 500 3803 
L 500 4441 
Q 881 4594 1212 4672 
Q 1544 4750 1819 4750 
Q 2544 4750 2975 4387 
Q 3406 4025 3406 3419 
Q 3406 3131 3298 2873 
Q 3191 2616 2906 2266 
Q 2828 2175 2409 1742 
Q 1991 1309 1228 531 
z
" id="DejaVuSans-32" transform="scale(0.015625)"/>
       </defs>
       <use xlink:href="#DejaVuSans-32"/>
       <use x="63.623047" xlink:href="#DejaVuSans-30"/>
      </g>
     </g>
    </g>
    <g id="xtick_3">
     <g id="line2d_3">
      <g>
       <use style="stroke:#000000;stroke-width:0.8;" x="196.716826" xlink:href="#m13adb810c9" y="128.057143"/>
      </g>
     </g>
     <g id="text_3">
      <!-- 40 -->
      <g transform="translate(190.354326 142.65558)scale(0.1 -0.1)">
       <defs>
        <path d="M 2419 4116 
L 825 1625 
L 2419 1625 
L 2419 4116 
z
M 2253 4666 
L 3047 4666 
L 3047 1625 
L 3713 1625 
L 3713 1100 
L 3047 1100 
L 3047 0 
L 2419 0 
L 2419 1100 
L 313 1100 
L 313 1709 
L 2253 4666 
z
" id="DejaVuSans-34" transform="scale(0.015625)"/>
       </defs>
       <use xlink:href="#DejaVuSans-34"/>
       <use x="63.623047" xlink:href="#DejaVuSans-30"/>
      </g>
     </g>
    </g>
    <g id="xtick_4">
     <g id="line2d_4">
      <g>
       <use style="stroke:#000000;stroke-width:0.8;" x="258.204429" xlink:href="#m13adb810c9" y="128.057143"/>
      </g>
     </g>
     <g id="text_4">
      <!-- 60 -->
      <g transform="translate(251.841929 142.65558)scale(0.1 -0.1)">
       <defs>
        <path d="M 2113 2584 
Q 1688 2584 1439 2293 
Q 1191 2003 1191 1497 
Q 1191 994 1439 701 
Q 1688 409 2113 409 
Q 2538 409 2786 701 
Q 3034 994 3034 1497 
Q 3034 2003 2786 2293 
Q 2538 2584 2113 2584 
z
M 3366 4563 
L 3366 3988 
Q 3128 4100 2886 4159 
Q 2644 4219 2406 4219 
Q 1781 4219 1451 3797 
Q 1122 3375 1075 2522 
Q 1259 2794 1537 2939 
Q 1816 3084 2150 3084 
Q 2853 3084 3261 2657 
Q 3669 2231 3669 1497 
Q 3669 778 3244 343 
Q 2819 -91 2113 -91 
Q 1303 -91 875 529 
Q 447 1150 447 2328 
Q 447 3434 972 4092 
Q 1497 4750 2381 4750 
Q 2619 4750 2861 4703 
Q 3103 4656 3366 4563 
z
" id="DejaVuSans-36" transform="scale(0.015625)"/>
       </defs>
       <use xlink:href="#DejaVuSans-36"/>
       <use x="63.623047" xlink:href="#DejaVuSans-30"/>
      </g>
     </g>
    </g>
    <g id="xtick_5">
     <g id="line2d_5">
      <g>
       <use style="stroke:#000000;stroke-width:0.8;" x="319.692033" xlink:href="#m13adb810c9" y="128.057143"/>
      </g>
     </g>
     <g id="text_5">
      <!-- 80 -->
      <g transform="translate(313.329533 142.65558)scale(0.1 -0.1)">
       <defs>
        <path d="M 2034 2216 
Q 1584 2216 1326 1975 
Q 1069 1734 1069 1313 
Q 1069 891 1326 650 
Q 1584 409 2034 409 
Q 2484 409 2743 651 
Q 3003 894 3003 1313 
Q 3003 1734 2745 1975 
Q 2488 2216 2034 2216 
z
M 1403 2484 
Q 997 2584 770 2862 
Q 544 3141 544 3541 
Q 544 4100 942 4425 
Q 1341 4750 2034 4750 
Q 2731 4750 3128 4425 
Q 3525 4100 3525 3541 
Q 3525 3141 3298 2862 
Q 3072 2584 2669 2484 
Q 3125 2378 3379 2068 
Q 3634 1759 3634 1313 
Q 3634 634 3220 271 
Q 2806 -91 2034 -91 
Q 1263 -91 848 271 
Q 434 634 434 1313 
Q 434 1759 690 2068 
Q 947 2378 1403 2484 
z
M 1172 3481 
Q 1172 3119 1398 2916 
Q 1625 2713 2034 2713 
Q 2441 2713 2670 2916 
Q 2900 3119 2900 3481 
Q 2900 3844 2670 4047 
Q 2441 4250 2034 4250 
Q 1625 4250 1398 4047 
Q 1172 3844 1172 3481 
z
" id="DejaVuSans-38" transform="scale(0.015625)"/>
       </defs>
       <use xlink:href="#DejaVuSans-38"/>
       <use x="63.623047" xlink:href="#DejaVuSans-30"/>
      </g>
     </g>
    </g>
    <g id="xtick_6">
     <g id="line2d_6">
      <g>
       <use style="stroke:#000000;stroke-width:0.8;" x="381.179636" xlink:href="#m13adb810c9" y="128.057143"/>
      </g>
     </g>
     <g id="text_6">
      <!-- 100 -->
      <g transform="translate(371.635886 142.65558)scale(0.1 -0.1)">
       <defs>
        <path d="M 794 531 
L 1825 531 
L 1825 4091 
L 703 3866 
L 703 4441 
L 1819 4666 
L 2450 4666 
L 2450 531 
L 3481 531 
L 3481 0 
L 794 0 
L 794 531 
z
" id="DejaVuSans-31" transform="scale(0.015625)"/>
       </defs>
       <use xlink:href="#DejaVuSans-31"/>
       <use x="63.623047" xlink:href="#DejaVuSans-30"/>
       <use x="127.246094" xlink:href="#DejaVuSans-30"/>
      </g>
     </g>
    </g>
    <g id="text_7">
     <!-- Trial -->
     <g transform="translate(215.709375 156.333705)scale(0.1 -0.1)">
      <defs>
       <path d="M -19 4666 
L 3928 4666 
L 3928 4134 
L 2272 4134 
L 2272 0 
L 1638 0 
L 1638 4134 
L -19 4134 
L -19 4666 
z
" id="DejaVuSans-54" transform="scale(0.015625)"/>
       <path d="M 2631 2963 
Q 2534 3019 2420 3045 
Q 2306 3072 2169 3072 
Q 1681 3072 1420 2755 
Q 1159 2438 1159 1844 
L 1159 0 
L 581 0 
L 581 3500 
L 1159 3500 
L 1159 2956 
Q 1341 3275 1631 3429 
Q 1922 3584 2338 3584 
Q 2397 3584 2469 3576 
Q 2541 3569 2628 3553 
L 2631 2963 
z
" id="DejaVuSans-72" transform="scale(0.015625)"/>
       <path d="M 603 3500 
L 1178 3500 
L 1178 0 
L 603 0 
L 603 3500 
z
M 603 4863 
L 1178 4863 
L 1178 4134 
L 603 4134 
L 603 4863 
z
" id="DejaVuSans-69" transform="scale(0.015625)"/>
       <path d="M 2194 1759 
Q 1497 1759 1228 1600 
Q 959 1441 959 1056 
Q 959 750 1161 570 
Q 1363 391 1709 391 
Q 2188 391 2477 730 
Q 2766 1069 2766 1631 
L 2766 1759 
L 2194 1759 
z
M 3341 1997 
L 3341 0 
L 2766 0 
L 2766 531 
Q 2569 213 2275 61 
Q 1981 -91 1556 -91 
Q 1019 -91 701 211 
Q 384 513 384 1019 
Q 384 1609 779 1909 
Q 1175 2209 1959 2209 
L 2766 2209 
L 2766 2266 
Q 2766 2663 2505 2880 
Q 2244 3097 1772 3097 
Q 1472 3097 1187 3025 
Q 903 2953 641 2809 
L 641 3341 
Q 956 3463 1253 3523 
Q 1550 3584 1831 3584 
Q 2591 3584 2966 3190 
Q 3341 2797 3341 1997 
z
" id="DejaVuSans-61" transform="scale(0.015625)"/>
       <path d="M 603 4863 
L 1178 4863 
L 1178 0 
L 603 0 
L 603 4863 
z
" id="DejaVuSans-6c" transform="scale(0.015625)"/>
      </defs>
      <use xlink:href="#DejaVuSans-54"/>
      <use x="46.333984" xlink:href="#DejaVuSans-72"/>
      <use x="87.447266" xlink:href="#DejaVuSans-69"/>
      <use x="115.230469" xlink:href="#DejaVuSans-61"/>
      <use x="176.509766" xlink:href="#DejaVuSans-6c"/>
     </g>
    </g>
   </g>
   <g id="matplotlib.axis_2">
    <g id="ytick_1">
     <g id="line2d_7">
      <defs>
       <path d="M 0 0 
L -3.5 0 
" id="m253950d593" style="stroke:#000000;stroke-width:0.8;"/>
      </defs>
      <g>
       <use style="stroke:#000000;stroke-width:0.8;" x="58.523438" xlink:href="#m253950d593" y="124.527273"/>
      </g>
     </g>
     <g id="text_8">
      <!-- −0.05 -->
      <g transform="translate(20.878125 128.326491)scale(0.1 -0.1)">
       <defs>
        <path d="M 678 2272 
L 4684 2272 
L 4684 1741 
L 678 1741 
L 678 2272 
z
" id="DejaVuSans-2212" transform="scale(0.015625)"/>
        <path d="M 684 794 
L 1344 794 
L 1344 0 
L 684 0 
L 684 794 
z
" id="DejaVuSans-2e" transform="scale(0.015625)"/>
        <path d="M 691 4666 
L 3169 4666 
L 3169 4134 
L 1269 4134 
L 1269 2991 
Q 1406 3038 1543 3061 
Q 1681 3084 1819 3084 
Q 2600 3084 3056 2656 
Q 3513 2228 3513 1497 
Q 3513 744 3044 326 
Q 2575 -91 1722 -91 
Q 1428 -91 1123 -41 
Q 819 9 494 109 
L 494 744 
Q 775 591 1075 516 
Q 1375 441 1709 441 
Q 2250 441 2565 725 
Q 2881 1009 2881 1497 
Q 2881 1984 2565 2268 
Q 2250 2553 1709 2553 
Q 1456 2553 1204 2497 
Q 953 2441 691 2322 
L 691 4666 
z
" id="DejaVuSans-35" transform="scale(0.015625)"/>
       </defs>
       <use xlink:href="#DejaVuSans-2212"/>
       <use x="83.789062" xlink:href="#DejaVuSans-30"/>
       <use x="147.412109" xlink:href="#DejaVuSans-2e"/>
       <use x="179.199219" xlink:href="#DejaVuSans-30"/>
       <use x="242.822266" xlink:href="#DejaVuSans-35"/>
      </g>
     </g>
    </g>
    <g id="ytick_2">
     <g id="line2d_8">
      <g>
       <use style="stroke:#000000;stroke-width:0.8;" x="58.523438" xlink:href="#m253950d593" y="89.228571"/>
      </g>
     </g>
     <g id="text_9">
      <!-- 0.00 -->
      <g transform="translate(29.257813 93.02779)scale(0.1 -0.1)">
       <use xlink:href="#DejaVuSans-30"/>
       <use x="63.623047" xlink:href="#DejaVuSans-2e"/>
       <use x="95.410156" xlink:href="#DejaVuSans-30"/>
       <use x="159.033203" xlink:href="#DejaVuSans-30"/>
      </g>
     </g>
    </g>
    <g id="ytick_3">
     <g id="line2d_9">
      <g>
       <use style="stroke:#000000;stroke-width:0.8;" x="58.523438" xlink:href="#m253950d593" y="53.92987"/>
      </g>
     </g>
     <g id="text_10">
      <!-- 0.05 -->
      <g transform="translate(29.257813 57.729089)scale(0.1 -0.1)">
       <use xlink:href="#DejaVuSans-30"/>
       <use x="63.623047" xlink:href="#DejaVuSans-2e"/>
       <use x="95.410156" xlink:href="#DejaVuSans-30"/>
       <use x="159.033203" xlink:href="#DejaVuSans-35"/>
      </g>
     </g>
    </g>
    <g id="text_11">
     <!-- Pairs [#] -->
     <g transform="translate(14.798438 110.812165)rotate(-90)scale(0.1 -0.1)">
      <defs>
       <path d="M 1259 4147 
L 1259 2394 
L 2053 2394 
Q 2494 2394 2734 2622 
Q 2975 2850 2975 3272 
Q 2975 3691 2734 3919 
Q 2494 4147 2053 4147 
L 1259 4147 
z
M 628 4666 
L 2053 4666 
Q 2838 4666 3239 4311 
Q 3641 3956 3641 3272 
Q 3641 2581 3239 2228 
Q 2838 1875 2053 1875 
L 1259 1875 
L 1259 0 
L 628 0 
L 628 4666 
z
" id="DejaVuSans-50" transform="scale(0.015625)"/>
       <path d="M 2834 3397 
L 2834 2853 
Q 2591 2978 2328 3040 
Q 2066 3103 1784 3103 
Q 1356 3103 1142 2972 
Q 928 2841 928 2578 
Q 928 2378 1081 2264 
Q 1234 2150 1697 2047 
L 1894 2003 
Q 2506 1872 2764 1633 
Q 3022 1394 3022 966 
Q 3022 478 2636 193 
Q 2250 -91 1575 -91 
Q 1294 -91 989 -36 
Q 684 19 347 128 
L 347 722 
Q 666 556 975 473 
Q 1284 391 1588 391 
Q 1994 391 2212 530 
Q 2431 669 2431 922 
Q 2431 1156 2273 1281 
Q 2116 1406 1581 1522 
L 1381 1569 
Q 847 1681 609 1914 
Q 372 2147 372 2553 
Q 372 3047 722 3315 
Q 1072 3584 1716 3584 
Q 2034 3584 2315 3537 
Q 2597 3491 2834 3397 
z
" id="DejaVuSans-73" transform="scale(0.015625)"/>
       <path id="DejaVuSans-20" transform="scale(0.015625)"/>
       <path d="M 550 4863 
L 1875 4863 
L 1875 4416 
L 1125 4416 
L 1125 -397 
L 1875 -397 
L 1875 -844 
L 550 -844 
L 550 4863 
z
" id="DejaVuSans-5b" transform="scale(0.015625)"/>
       <path d="M 3272 2816 
L 2363 2816 
L 2100 1772 
L 3016 1772 
L 3272 2816 
z
M 2803 4594 
L 2478 3297 
L 3391 3297 
L 3719 4594 
L 4219 4594 
L 3897 3297 
L 4872 3297 
L 4872 2816 
L 3775 2816 
L 3519 1772 
L 4513 1772 
L 4513 1294 
L 3397 1294 
L 3072 0 
L 2572 0 
L 2894 1294 
L 1978 1294 
L 1656 0 
L 1153 0 
L 1478 1294 
L 494 1294 
L 494 1772 
L 1594 1772 
L 1856 2816 
L 850 2816 
L 850 3297 
L 1978 3297 
L 2297 4594 
L 2803 4594 
z
" id="DejaVuSans-23" transform="scale(0.015625)"/>
       <path d="M 1947 4863 
L 1947 -844 
L 622 -844 
L 622 -397 
L 1369 -397 
L 1369 4416 
L 622 4416 
L 622 4863 
L 1947 4863 
z
" id="DejaVuSans-5d" transform="scale(0.015625)"/>
      </defs>
      <use xlink:href="#DejaVuSans-50"/>
      <use x="55.802734" xlink:href="#DejaVuSans-61"/>
      <use x="117.082031" xlink:href="#DejaVuSans-69"/>
      <use x="144.865234" xlink:href="#DejaVuSans-72"/>
      <use x="185.978516" xlink:href="#DejaVuSans-73"/>
      <use x="238.078125" xlink:href="#DejaVuSans-20"/>
      <use x="269.865234" xlink:href="#DejaVuSans-5b"/>
      <use x="308.878906" xlink:href="#DejaVuSans-23"/>
      <use x="392.667969" xlink:href="#DejaVuSans-5d"/>
     </g>
    </g>
   </g>
   <g id="line2d_10">
    <path clip-path="url(#pfead9b6b44)" d="M 73.741619 89.228571 
L 76.815999 89.228571 
L 79.89038 89.228571 
L 82.96476 89.228571 
L 86.03914 89.228571 
L 89.11352 89.228571 
L 92.1879 89.228571 
L 95.26228 89.228571 
L 98.336661 89.228571 
L 101.411041 89.228571 
L 104.485421 89.228571 
L 107.559801 89.228571 
L 110.634181 89.228571 
L 113.708561 89.228571 
L 116.782942 89.228571 
L 119.857322 89.228571 
L 122.931702 89.228571 
L 126.006082 89.228571 
L 129.080462 89.228571 
L 132.154842 89.228571 
L 135.229223 89.228571 
L 138.303603 89.228571 
L 141.377983 89.228571 
L 144.452363 89.228571 
L 147.526743 89.228571 
L 150.601123 89.228571 
L 153.675504 89.228571 
L 156.749884 89.228571 
L 159.824264 89.228571 
L 162.898644 89.228571 
L 165.973024 89.228571 
L 169.047404 89.228571 
L 172.121785 89.228571 
L 175.196165 89.228571 
L 178.270545 89.228571 
L 181.344925 89.228571 
L 184.419305 89.228571 
L 187.493685 89.228571 
L 190.568066 89.228571 
L 193.642446 89.228571 
L 196.716826 89.228571 
L 199.791206 89.228571 
L 202.865586 89.228571 
L 205.939966 89.228571 
L 209.014347 89.228571 
L 212.088727 89.228571 
L 215.163107 89.228571 
L 218.237487 89.228571 
L 221.311867 89.228571 
L 224.386247 89.228571 
L 227.460628 89.228571 
L 230.535008 89.228571 
L 233.609388 89.228571 
L 236.683768 89.228571 
L 239.758148 89.228571 
L 242.832528 89.228571 
L 245.906909 89.228571 
L 248.981289 89.228571 
L 252.055669 89.228571 
L 255.130049 89.228571 
L 258.204429 89.228571 
L 261.278809 89.228571 
L 264.35319 89.228571 
L 267.42757 89.228571 
L 270.50195 89.228571 
L 273.57633 89.228571 
L 276.65071 89.228571 
L 279.72509 89.228571 
L 282.799471 89.228571 
L 285.873851 89.228571 
L 288.948231 89.228571 
L 292.022611 89.228571 
L 295.096991 89.228571 
L 298.171371 89.228571 
L 301.245752 89.228571 
L 304.320132 89.228571 
L 307.394512 89.228571 
L 310.468892 89.228571 
L 313.543272 89.228571 
L 316.617652 89.228571 
L 319.692033 89.228571 
L 322.766413 89.228571 
L 325.840793 89.228571 
L 328.915173 89.228571 
L 331.989553 89.228571 
L 335.063933 89.228571 
L 338.138314 89.228571 
L 341.212694 89.228571 
L 344.287074 89.228571 
L 347.361454 89.228571 
L 350.435834 89.228571 
L 353.510214 89.228571 
L 356.584595 89.228571 
L 359.658975 89.228571 
L 362.733355 89.228571 
L 365.807735 89.228571 
L 368.882115 89.228571 
L 371.956495 89.228571 
L 375.030876 89.228571 
L 378.105256 89.228571 
" style="fill:none;stroke:#0000ff;stroke-linecap:square;stroke-width:1.5;"/>
   </g>
   <g id="line2d_11">
    <path clip-path="url(#pfead9b6b44)" d="M 73.741619 89.228571 
L 76.815999 89.228571 
L 79.89038 89.228571 
L 82.96476 89.228571 
L 86.03914 89.228571 
L 89.11352 89.228571 
L 92.1879 89.228571 
L 95.26228 89.228571 
L 98.336661 89.228571 
L 101.411041 89.228571 
L 104.485421 89.228571 
L 107.559801 89.228571 
L 110.634181 89.228571 
L 113.708561 89.228571 
L 116.782942 89.228571 
L 119.857322 89.228571 
L 122.931702 89.228571 
L 126.006082 89.228571 
L 129.080462 89.228571 
L 132.154842 89.228571 
L 135.229223 89.228571 
L 138.303603 89.228571 
L 141.377983 89.228571 
L 144.452363 89.228571 
L 147.526743 89.228571 
L 150.601123 89.228571 
L 153.675504 89.228571 
L 156.749884 89.228571 
L 159.824264 89.228571 
L 162.898644 89.228571 
L 165.973024 89.228571 
L 169.047404 89.228571 
L 172.121785 89.228571 
L 175.196165 89.228571 
L 178.270545 89.228571 
L 181.344925 89.228571 
L 184.419305 89.228571 
L 187.493685 89.228571 
L 190.568066 89.228571 
L 193.642446 89.228571 
L 196.716826 89.228571 
L 199.791206 89.228571 
L 202.865586 89.228571 
L 205.939966 89.228571 
L 209.014347 89.228571 
L 212.088727 89.228571 
L 215.163107 89.228571 
L 218.237487 89.228571 
L 221.311867 89.228571 
L 224.386247 89.228571 
L 227.460628 89.228571 
L 230.535008 89.228571 
L 233.609388 89.228571 
L 236.683768 89.228571 
L 239.758148 89.228571 
L 242.832528 89.228571 
L 245.906909 89.228571 
L 248.981289 89.228571 
L 252.055669 89.228571 
L 255.130049 89.228571 
L 258.204429 89.228571 
L 261.278809 89.228571 
L 264.35319 89.228571 
L 267.42757 89.228571 
L 270.50195 89.228571 
L 273.57633 89.228571 
L 276.65071 89.228571 
L 279.72509 89.228571 
L 282.799471 89.228571 
L 285.873851 89.228571 
L 288.948231 89.228571 
L 292.022611 89.228571 
L 295.096991 89.228571 
L 298.171371 89.228571 
L 301.245752 89.228571 
L 304.320132 89.228571 
L 307.394512 89.228571 
L 310.468892 89.228571 
L 313.543272 89.228571 
L 316.617652 89.228571 
L 319.692033 89.228571 
L 322.766413 89.228571 
L 325.840793 89.228571 
L 328.915173 89.228571 
L 331.989553 89.228571 
L 335.063933 89.228571 
L 338.138314 89.228571 
L 341.212694 89.228571 
L 344.287074 89.228571 
L 347.361454 89.228571 
L 350.435834 89.228571 
L 353.510214 89.228571 
L 356.584595 89.228571 
L 359.658975 89.228571 
L 362.733355 89.228571 
L 365.807735 89.228571 
L 368.882115 89.228571 
L 371.956495 89.228571 
L 375.030876 89.228571 
L 378.105256 89.228571 
" style="fill:none;stroke:#ff0000;stroke-linecap:square;stroke-width:1.5;"/>
   </g>
   <g id="line2d_12">
    <path clip-path="url(#pfead9b6b44)" d="M 73.741619 89.228571 
L 76.815999 89.228571 
L 79.89038 89.228571 
L 82.96476 89.228571 
L 86.03914 89.228571 
L 89.11352 89.228571 
L 92.1879 89.228571 
L 95.26228 89.228571 
L 98.336661 89.228571 
L 101.411041 89.228571 
L 104.485421 89.228571 
L 107.559801 89.228571 
L 110.634181 89.228571 
L 113.708561 89.228571 
L 116.782942 89.228571 
L 119.857322 89.228571 
L 122.931702 89.228571 
L 126.006082 89.228571 
L 129.080462 89.228571 
L 132.154842 89.228571 
L 135.229223 89.228571 
L 138.303603 89.228571 
L 141.377983 89.228571 
L 144.452363 89.228571 
L 147.526743 89.228571 
L 150.601123 89.228571 
L 153.675504 89.228571 
L 156.749884 89.228571 
L 159.824264 89.228571 
L 162.898644 89.228571 
L 165.973024 89.228571 
L 169.047404 89.228571 
L 172.121785 89.228571 
L 175.196165 89.228571 
L 178.270545 89.228571 
L 181.344925 89.228571 
L 184.419305 89.228571 
L 187.493685 89.228571 
L 190.568066 89.228571 
L 193.642446 89.228571 
L 196.716826 89.228571 
L 199.791206 89.228571 
L 202.865586 89.228571 
L 205.939966 89.228571 
L 209.014347 89.228571 
L 212.088727 89.228571 
L 215.163107 89.228571 
L 218.237487 89.228571 
L 221.311867 89.228571 
L 224.386247 89.228571 
L 227.460628 89.228571 
L 230.535008 89.228571 
L 233.609388 89.228571 
L 236.683768 89.228571 
L 239.758148 89.228571 
L 242.832528 89.228571 
L 245.906909 89.228571 
L 248.981289 89.228571 
L 252.055669 89.228571 
L 255.130049 89.228571 
L 258.204429 89.228571 
L 261.278809 89.228571 
L 264.35319 89.228571 
L 267.42757 89.228571 
L 270.50195 89.228571 
L 273.57633 89.228571 
L 276.65071 89.228571 
L 279.72509 89.228571 
L 282.799471 89.228571 
L 285.873851 89.228571 
L 288.948231 89.228571 
L 292.022611 89.228571 
L 295.096991 89.228571 
L 298.171371 89.228571 
L 301.245752 89.228571 
L 304.320132 89.228571 
L 307.394512 89.228571 
L 310.468892 89.228571 
L 313.543272 89.228571 
L 316.617652 89.228571 
L 319.692033 89.228571 
L 322.766413 89.228571 
L 325.840793 89.228571 
L 328.915173 89.228571 
L 331.989553 89.228571 
L 335.063933 89.228571 
L 338.138314 89.228571 
L 341.212694 89.228571 
L 344.287074 89.228571 
L 347.361454 89.228571 
L 350.435834 89.228571 
L 353.510214 89.228571 
L 356.584595 89.228571 
L 359.658975 89.228571 
L 362.733355 89.228571 
L 365.807735 89.228571 
L 368.882115 89.228571 
L 371.956495 89.228571 
L 375.030876 89.228571 
L 378.105256 89.228571 
" style="fill:none;stroke:#008000;stroke-linecap:square;stroke-width:1.5;"/>
   </g>
   <g id="patch_3">
    <path d="M 58.523438 128.057143 
L 58.523438 50.4 
" style="fill:none;stroke:#000000;stroke-linecap:square;stroke-linejoin:miter;stroke-width:0.8;"/>
   </g>
   <g id="patch_4">
    <path d="M 58.523438 128.057143 
L 393.323437 128.057143 
" style="fill:none;stroke:#000000;stroke-linecap:square;stroke-linejoin:miter;stroke-width:0.8;"/>
   </g>
   <g id="text_12">
    <!-- Trial Start Replays -->
    <g transform="translate(171.775313 44.4)scale(0.12 -0.12)">
     <defs>
      <path d="M 3425 4513 
L 3425 3897 
Q 3066 4069 2747 4153 
Q 2428 4238 2131 4238 
Q 1616 4238 1336 4038 
Q 1056 3838 1056 3469 
Q 1056 3159 1242 3001 
Q 1428 2844 1947 2747 
L 2328 2669 
Q 3034 2534 3370 2195 
Q 3706 1856 3706 1288 
Q 3706 609 3251 259 
Q 2797 -91 1919 -91 
Q 1588 -91 1214 -16 
Q 841 59 441 206 
L 441 856 
Q 825 641 1194 531 
Q 1563 422 1919 422 
Q 2459 422 2753 634 
Q 3047 847 3047 1241 
Q 3047 1584 2836 1778 
Q 2625 1972 2144 2069 
L 1759 2144 
Q 1053 2284 737 2584 
Q 422 2884 422 3419 
Q 422 4038 858 4394 
Q 1294 4750 2059 4750 
Q 2388 4750 2728 4690 
Q 3069 4631 3425 4513 
z
" id="DejaVuSans-53" transform="scale(0.015625)"/>
      <path d="M 1172 4494 
L 1172 3500 
L 2356 3500 
L 2356 3053 
L 1172 3053 
L 1172 1153 
Q 1172 725 1289 603 
Q 1406 481 1766 481 
L 2356 481 
L 2356 0 
L 1766 0 
Q 1100 0 847 248 
Q 594 497 594 1153 
L 594 3053 
L 172 3053 
L 172 3500 
L 594 3500 
L 594 4494 
L 1172 4494 
z
" id="DejaVuSans-74" transform="scale(0.015625)"/>
      <path d="M 2841 2188 
Q 3044 2119 3236 1894 
Q 3428 1669 3622 1275 
L 4263 0 
L 3584 0 
L 2988 1197 
Q 2756 1666 2539 1819 
Q 2322 1972 1947 1972 
L 1259 1972 
L 1259 0 
L 628 0 
L 628 4666 
L 2053 4666 
Q 2853 4666 3247 4331 
Q 3641 3997 3641 3322 
Q 3641 2881 3436 2590 
Q 3231 2300 2841 2188 
z
M 1259 4147 
L 1259 2491 
L 2053 2491 
Q 2509 2491 2742 2702 
Q 2975 2913 2975 3322 
Q 2975 3731 2742 3939 
Q 2509 4147 2053 4147 
L 1259 4147 
z
" id="DejaVuSans-52" transform="scale(0.015625)"/>
      <path d="M 3597 1894 
L 3597 1613 
L 953 1613 
Q 991 1019 1311 708 
Q 1631 397 2203 397 
Q 2534 397 2845 478 
Q 3156 559 3463 722 
L 3463 178 
Q 3153 47 2828 -22 
Q 2503 -91 2169 -91 
Q 1331 -91 842 396 
Q 353 884 353 1716 
Q 353 2575 817 3079 
Q 1281 3584 2069 3584 
Q 2775 3584 3186 3129 
Q 3597 2675 3597 1894 
z
M 3022 2063 
Q 3016 2534 2758 2815 
Q 2500 3097 2075 3097 
Q 1594 3097 1305 2825 
Q 1016 2553 972 2059 
L 3022 2063 
z
" id="DejaVuSans-65" transform="scale(0.015625)"/>
      <path d="M 1159 525 
L 1159 -1331 
L 581 -1331 
L 581 3500 
L 1159 3500 
L 1159 2969 
Q 1341 3281 1617 3432 
Q 1894 3584 2278 3584 
Q 2916 3584 3314 3078 
Q 3713 2572 3713 1747 
Q 3713 922 3314 415 
Q 2916 -91 2278 -91 
Q 1894 -91 1617 61 
Q 1341 213 1159 525 
z
M 3116 1747 
Q 3116 2381 2855 2742 
Q 2594 3103 2138 3103 
Q 1681 3103 1420 2742 
Q 1159 2381 1159 1747 
Q 1159 1113 1420 752 
Q 1681 391 2138 391 
Q 2594 391 2855 752 
Q 3116 1113 3116 1747 
z
" id="DejaVuSans-70" transform="scale(0.015625)"/>
      <path d="M 2059 -325 
Q 1816 -950 1584 -1140 
Q 1353 -1331 966 -1331 
L 506 -1331 
L 506 -850 
L 844 -850 
Q 1081 -850 1212 -737 
Q 1344 -625 1503 -206 
L 1606 56 
L 191 3500 
L 800 3500 
L 1894 763 
L 2988 3500 
L 3597 3500 
L 2059 -325 
z
" id="DejaVuSans-79" transform="scale(0.015625)"/>
     </defs>
     <use xlink:href="#DejaVuSans-54"/>
     <use x="46.333984" xlink:href="#DejaVuSans-72"/>
     <use x="87.447266" xlink:href="#DejaVuSans-69"/>
     <use x="115.230469" xlink:href="#DejaVuSans-61"/>
     <use x="176.509766" xlink:href="#DejaVuSans-6c"/>
     <use x="204.292969" xlink:href="#DejaVuSans-20"/>
     <use x="236.080078" xlink:href="#DejaVuSans-53"/>
     <use x="299.556641" xlink:href="#DejaVuSans-74"/>
     <use x="338.765625" xlink:href="#DejaVuSans-61"/>
     <use x="400.044922" xlink:href="#DejaVuSans-72"/>
     <use x="441.158203" xlink:href="#DejaVuSans-74"/>
     <use x="480.367188" xlink:href="#DejaVuSans-20"/>
     <use x="512.154297" xlink:href="#DejaVuSans-52"/>
     <use x="577.136719" xlink:href="#DejaVuSans-65"/>
     <use x="638.660156" xlink:href="#DejaVuSans-70"/>
     <use x="702.136719" xlink:href="#DejaVuSans-6c"/>
     <use x="729.919922" xlink:href="#DejaVuSans-61"/>
     <use x="791.199219" xlink:href="#DejaVuSans-79"/>
     <use x="850.378906" xlink:href="#DejaVuSans-73"/>
    </g>
   </g>
  </g>
  <g id="axes_2">
   <g id="patch_5">
    <path d="M 58.523438 267.84 
L 393.323438 267.84 
L 393.323438 190.182857 
L 58.523438 190.182857 
z
" style="fill:none;"/>
   </g>
   <g id="matplotlib.axis_3">
    <g id="xtick_7">
     <g id="line2d_13">
      <g>
       <use style="stroke:#000000;stroke-width:0.8;" x="73.741619" xlink:href="#m13adb810c9" y="267.84"/>
      </g>
     </g>
     <g id="text_13">
      <!-- 0 -->
      <g transform="translate(70.560369 282.438437)scale(0.1 -0.1)">
       <use xlink:href="#DejaVuSans-30"/>
      </g>
     </g>
    </g>
    <g id="xtick_8">
     <g id="line2d_14">
      <g>
       <use style="stroke:#000000;stroke-width:0.8;" x="135.229223" xlink:href="#m13adb810c9" y="267.84"/>
      </g>
     </g>
     <g id="text_14">
      <!-- 20 -->
      <g transform="translate(128.866723 282.438437)scale(0.1 -0.1)">
       <use xlink:href="#DejaVuSans-32"/>
       <use x="63.623047" xlink:href="#DejaVuSans-30"/>
      </g>
     </g>
    </g>
    <g id="xtick_9">
     <g id="line2d_15">
      <g>
       <use style="stroke:#000000;stroke-width:0.8;" x="196.716826" xlink:href="#m13adb810c9" y="267.84"/>
      </g>
     </g>
     <g id="text_15">
      <!-- 40 -->
      <g transform="translate(190.354326 282.438437)scale(0.1 -0.1)">
       <use xlink:href="#DejaVuSans-34"/>
       <use x="63.623047" xlink:href="#DejaVuSans-30"/>
      </g>
     </g>
    </g>
    <g id="xtick_10">
     <g id="line2d_16">
      <g>
       <use style="stroke:#000000;stroke-width:0.8;" x="258.204429" xlink:href="#m13adb810c9" y="267.84"/>
      </g>
     </g>
     <g id="text_16">
      <!-- 60 -->
      <g transform="translate(251.841929 282.438437)scale(0.1 -0.1)">
       <use xlink:href="#DejaVuSans-36"/>
       <use x="63.623047" xlink:href="#DejaVuSans-30"/>
      </g>
     </g>
    </g>
    <g id="xtick_11">
     <g id="line2d_17">
      <g>
       <use style="stroke:#000000;stroke-width:0.8;" x="319.692033" xlink:href="#m13adb810c9" y="267.84"/>
      </g>
     </g>
     <g id="text_17">
      <!-- 80 -->
      <g transform="translate(313.329533 282.438437)scale(0.1 -0.1)">
       <use xlink:href="#DejaVuSans-38"/>
       <use x="63.623047" xlink:href="#DejaVuSans-30"/>
      </g>
     </g>
    </g>
    <g id="xtick_12">
     <g id="line2d_18">
      <g>
       <use style="stroke:#000000;stroke-width:0.8;" x="381.179636" xlink:href="#m13adb810c9" y="267.84"/>
      </g>
     </g>
     <g id="text_18">
      <!-- 100 -->
      <g transform="translate(371.635886 282.438437)scale(0.1 -0.1)">
       <use xlink:href="#DejaVuSans-31"/>
       <use x="63.623047" xlink:href="#DejaVuSans-30"/>
       <use x="127.246094" xlink:href="#DejaVuSans-30"/>
      </g>
     </g>
    </g>
    <g id="text_19">
     <!-- Trial -->
     <g transform="translate(215.709375 296.116562)scale(0.1 -0.1)">
      <use xlink:href="#DejaVuSans-54"/>
      <use x="46.333984" xlink:href="#DejaVuSans-72"/>
      <use x="87.447266" xlink:href="#DejaVuSans-69"/>
      <use x="115.230469" xlink:href="#DejaVuSans-61"/>
      <use x="176.509766" xlink:href="#DejaVuSans-6c"/>
     </g>
    </g>
   </g>
   <g id="matplotlib.axis_4">
    <g id="ytick_4">
     <g id="line2d_19">
      <g>
       <use style="stroke:#000000;stroke-width:0.8;" x="58.523438" xlink:href="#m253950d593" y="264.575867"/>
      </g>
     </g>
     <g id="text_20">
      <!-- 0 -->
      <g transform="translate(45.160938 268.375085)scale(0.1 -0.1)">
       <use xlink:href="#DejaVuSans-30"/>
      </g>
     </g>
    </g>
    <g id="ytick_5">
     <g id="line2d_20">
      <g>
       <use style="stroke:#000000;stroke-width:0.8;" x="58.523438" xlink:href="#m253950d593" y="220.286405"/>
      </g>
     </g>
     <g id="text_21">
      <!-- 5 -->
      <g transform="translate(45.160938 224.085623)scale(0.1 -0.1)">
       <use xlink:href="#DejaVuSans-35"/>
      </g>
     </g>
    </g>
    <g id="text_22">
     <!-- Pairs [#] -->
     <g transform="translate(39.08125 250.595022)rotate(-90)scale(0.1 -0.1)">
      <use xlink:href="#DejaVuSans-50"/>
      <use x="55.802734" xlink:href="#DejaVuSans-61"/>
      <use x="117.082031" xlink:href="#DejaVuSans-69"/>
      <use x="144.865234" xlink:href="#DejaVuSans-72"/>
      <use x="185.978516" xlink:href="#DejaVuSans-73"/>
      <use x="238.078125" xlink:href="#DejaVuSans-20"/>
      <use x="269.865234" xlink:href="#DejaVuSans-5b"/>
      <use x="308.878906" xlink:href="#DejaVuSans-23"/>
      <use x="392.667969" xlink:href="#DejaVuSans-5d"/>
     </g>
    </g>
   </g>
   <g id="line2d_21">
    <path clip-path="url(#p7a81973eef)" d="M 73.741619 251.377607 
L 76.815999 255.540816 
L 79.89038 257.400974 
L 82.96476 257.400974 
L 86.03914 257.046658 
L 89.11352 256.780921 
L 92.1879 256.692342 
L 95.26228 257.312395 
L 98.336661 257.932447 
L 101.411041 257.312395 
L 104.485421 257.312395 
L 107.559801 257.223816 
L 110.634181 257.312395 
L 113.708561 257.312395 
L 116.782942 257.046658 
L 119.857322 257.578132 
L 122.931702 257.135237 
L 126.006082 257.755289 
L 129.080462 257.135237 
L 132.154842 257.489553 
L 135.229223 257.400974 
L 138.303603 257.223816 
L 141.377983 257.135237 
L 144.452363 257.666711 
L 147.526743 256.780921 
L 150.601123 257.666711 
L 153.675504 257.578132 
L 156.749884 257.578132 
L 159.824264 257.223816 
L 162.898644 257.046658 
L 165.973024 257.223816 
L 169.047404 257.046658 
L 172.121785 257.312395 
L 175.196165 257.312395 
L 178.270545 257.666711 
L 181.344925 257.843868 
L 184.419305 257.932447 
L 187.493685 257.312395 
L 190.568066 257.223816 
L 193.642446 257.046658 
L 196.716826 257.578132 
L 199.791206 257.046658 
L 202.865586 257.135237 
L 205.939966 257.755289 
L 209.014347 257.223816 
L 212.088727 257.755289 
L 215.163107 257.312395 
L 218.237487 256.692342 
L 221.311867 257.046658 
L 224.386247 257.489553 
L 227.460628 256.8695 
L 230.535008 256.8695 
L 233.609388 257.578132 
L 236.683768 257.312395 
L 239.758148 257.932447 
L 242.832528 256.8695 
L 245.906909 257.400974 
L 248.981289 257.400974 
L 252.055669 256.8695 
L 255.130049 257.312395 
L 258.204429 257.223816 
L 261.278809 257.135237 
L 264.35319 256.958079 
L 267.42757 256.958079 
L 270.50195 257.312395 
L 273.57633 257.578132 
L 276.65071 257.046658 
L 279.72509 256.958079 
L 282.799471 257.489553 
L 285.873851 256.692342 
L 288.948231 257.489553 
L 292.022611 256.958079 
L 295.096991 257.312395 
L 298.171371 257.489553 
L 301.245752 257.400974 
L 304.320132 257.400974 
L 307.394512 257.223816 
L 310.468892 256.603763 
L 313.543272 256.515185 
L 316.617652 257.400974 
L 319.692033 257.223816 
L 322.766413 256.958079 
L 325.840793 257.489553 
L 328.915173 257.400974 
L 331.989553 257.223816 
L 335.063933 256.958079 
L 338.138314 256.515185 
L 341.212694 257.135237 
L 344.287074 256.515185 
L 347.361454 257.312395 
L 350.435834 257.135237 
L 353.510214 256.8695 
L 356.584595 257.135237 
L 359.658975 257.223816 
L 362.733355 256.8695 
L 365.807735 257.578132 
L 368.882115 257.400974 
L 371.956495 256.603763 
L 375.030876 257.223816 
L 378.105256 257.135237 
" style="fill:none;stroke:#0000ff;stroke-linecap:square;stroke-width:1.5;"/>
   </g>
   <g id="line2d_22">
    <path clip-path="url(#p7a81973eef)" d="M 73.741619 198.318831 
L 76.815999 195.572885 
L 79.89038 193.889885 
L 82.96476 193.712727 
L 86.03914 193.712727 
L 89.11352 193.712727 
L 92.1879 193.712727 
L 95.26228 193.712727 
L 98.336661 193.712727 
L 101.411041 193.712727 
L 104.485421 193.712727 
L 107.559801 193.712727 
L 110.634181 193.801306 
L 113.708561 193.712727 
L 116.782942 193.712727 
L 119.857322 193.712727 
L 122.931702 193.712727 
L 126.006082 193.712727 
L 129.080462 193.712727 
L 132.154842 193.712727 
L 135.229223 193.712727 
L 138.303603 193.712727 
L 141.377983 193.712727 
L 144.452363 193.712727 
L 147.526743 193.712727 
L 150.601123 193.889885 
L 153.675504 193.712727 
L 156.749884 193.712727 
L 159.824264 193.712727 
L 162.898644 193.712727 
L 165.973024 193.712727 
L 169.047404 193.712727 
L 172.121785 193.712727 
L 175.196165 193.712727 
L 178.270545 193.712727 
L 181.344925 193.712727 
L 184.419305 193.712727 
L 187.493685 193.712727 
L 190.568066 193.712727 
L 193.642446 193.712727 
L 196.716826 193.712727 
L 199.791206 193.712727 
L 202.865586 193.712727 
L 205.939966 193.712727 
L 209.014347 193.712727 
L 212.088727 193.712727 
L 215.163107 193.712727 
L 218.237487 193.712727 
L 221.311867 193.712727 
L 224.386247 193.712727 
L 227.460628 193.801306 
L 230.535008 193.712727 
L 233.609388 193.712727 
L 236.683768 193.712727 
L 239.758148 193.889885 
L 242.832528 193.712727 
L 245.906909 193.712727 
L 248.981289 193.712727 
L 252.055669 193.712727 
L 255.130049 193.712727 
L 258.204429 193.712727 
L 261.278809 193.712727 
L 264.35319 193.712727 
L 267.42757 193.712727 
L 270.50195 193.712727 
L 273.57633 193.712727 
L 276.65071 193.712727 
L 279.72509 193.712727 
L 282.799471 193.712727 
L 285.873851 193.712727 
L 288.948231 193.712727 
L 292.022611 193.712727 
L 295.096991 193.712727 
L 298.171371 193.712727 
L 301.245752 193.712727 
L 304.320132 193.712727 
L 307.394512 193.712727 
L 310.468892 193.712727 
L 313.543272 193.712727 
L 316.617652 193.801306 
L 319.692033 193.712727 
L 322.766413 193.712727 
L 325.840793 193.712727 
L 328.915173 193.712727 
L 331.989553 193.712727 
L 335.063933 193.712727 
L 338.138314 193.712727 
L 341.212694 193.712727 
L 344.287074 193.712727 
L 347.361454 193.712727 
L 350.435834 193.712727 
L 353.510214 193.801306 
L 356.584595 193.712727 
L 359.658975 193.712727 
L 362.733355 193.712727 
L 365.807735 193.712727 
L 368.882115 193.712727 
L 371.956495 193.712727 
L 375.030876 193.712727 
L 378.105256 193.801306 
" style="fill:none;stroke:#ff0000;stroke-linecap:square;stroke-width:1.5;"/>
   </g>
   <g id="line2d_23">
    <path clip-path="url(#p7a81973eef)" d="M 73.741619 264.31013 
L 76.815999 262.892867 
L 79.89038 262.715709 
L 82.96476 262.892867 
L 86.03914 263.247183 
L 89.11352 263.51292 
L 92.1879 263.601498 
L 95.26228 262.981446 
L 98.336661 262.361394 
L 101.411041 262.981446 
L 104.485421 262.981446 
L 107.559801 263.070025 
L 110.634181 262.892867 
L 113.708561 262.981446 
L 116.782942 263.247183 
L 119.857322 262.715709 
L 122.931702 263.158604 
L 126.006082 262.538551 
L 129.080462 263.158604 
L 132.154842 262.804288 
L 135.229223 262.892867 
L 138.303603 263.070025 
L 141.377983 263.158604 
L 144.452363 262.62713 
L 147.526743 263.51292 
L 150.601123 262.449972 
L 153.675504 262.715709 
L 156.749884 262.715709 
L 159.824264 263.070025 
L 162.898644 263.247183 
L 165.973024 263.070025 
L 169.047404 263.247183 
L 172.121785 262.981446 
L 175.196165 262.981446 
L 178.270545 262.62713 
L 181.344925 262.449972 
L 184.419305 262.361394 
L 187.493685 262.981446 
L 190.568066 263.070025 
L 193.642446 263.247183 
L 196.716826 262.715709 
L 199.791206 263.247183 
L 202.865586 263.158604 
L 205.939966 262.538551 
L 209.014347 263.070025 
L 212.088727 262.538551 
L 215.163107 262.981446 
L 218.237487 263.601498 
L 221.311867 263.247183 
L 224.386247 262.804288 
L 227.460628 263.335762 
L 230.535008 263.424341 
L 233.609388 262.715709 
L 236.683768 262.981446 
L 239.758148 262.184236 
L 242.832528 263.424341 
L 245.906909 262.892867 
L 248.981289 262.892867 
L 252.055669 263.424341 
L 255.130049 262.981446 
L 258.204429 263.070025 
L 261.278809 263.158604 
L 264.35319 263.335762 
L 267.42757 263.335762 
L 270.50195 262.981446 
L 273.57633 262.715709 
L 276.65071 263.247183 
L 279.72509 263.335762 
L 282.799471 262.804288 
L 285.873851 263.601498 
L 288.948231 262.804288 
L 292.022611 263.335762 
L 295.096991 262.981446 
L 298.171371 262.804288 
L 301.245752 262.892867 
L 304.320132 262.892867 
L 307.394512 263.070025 
L 310.468892 263.690077 
L 313.543272 263.778656 
L 316.617652 262.804288 
L 319.692033 263.070025 
L 322.766413 263.335762 
L 325.840793 262.804288 
L 328.915173 262.892867 
L 331.989553 263.070025 
L 335.063933 263.335762 
L 338.138314 263.778656 
L 341.212694 263.158604 
L 344.287074 263.778656 
L 347.361454 262.981446 
L 350.435834 263.158604 
L 353.510214 263.335762 
L 356.584595 263.158604 
L 359.658975 263.070025 
L 362.733355 263.424341 
L 365.807735 262.715709 
L 368.882115 262.892867 
L 371.956495 263.690077 
L 375.030876 263.070025 
L 378.105256 263.070025 
" style="fill:none;stroke:#008000;stroke-linecap:square;stroke-width:1.5;"/>
   </g>
   <g id="patch_6">
    <path d="M 58.523438 267.84 
L 58.523438 190.182857 
" style="fill:none;stroke:#000000;stroke-linecap:square;stroke-linejoin:miter;stroke-width:0.8;"/>
   </g>
   <g id="patch_7">
    <path d="M 58.523438 267.84 
L 393.323437 267.84 
" style="fill:none;stroke:#000000;stroke-linecap:square;stroke-linejoin:miter;stroke-width:0.8;"/>
   </g>
   <g id="text_23">
    <!-- Trial End Replays -->
    <g transform="translate(175.029375 184.182857)scale(0.12 -0.12)">
     <defs>
      <path d="M 628 4666 
L 3578 4666 
L 3578 4134 
L 1259 4134 
L 1259 2753 
L 3481 2753 
L 3481 2222 
L 1259 2222 
L 1259 531 
L 3634 531 
L 3634 0 
L 628 0 
L 628 4666 
z
" id="DejaVuSans-45" transform="scale(0.015625)"/>
      <path d="M 3513 2113 
L 3513 0 
L 2938 0 
L 2938 2094 
Q 2938 2591 2744 2837 
Q 2550 3084 2163 3084 
Q 1697 3084 1428 2787 
Q 1159 2491 1159 1978 
L 1159 0 
L 581 0 
L 581 3500 
L 1159 3500 
L 1159 2956 
Q 1366 3272 1645 3428 
Q 1925 3584 2291 3584 
Q 2894 3584 3203 3211 
Q 3513 2838 3513 2113 
z
" id="DejaVuSans-6e" transform="scale(0.015625)"/>
      <path d="M 2906 2969 
L 2906 4863 
L 3481 4863 
L 3481 0 
L 2906 0 
L 2906 525 
Q 2725 213 2448 61 
Q 2172 -91 1784 -91 
Q 1150 -91 751 415 
Q 353 922 353 1747 
Q 353 2572 751 3078 
Q 1150 3584 1784 3584 
Q 2172 3584 2448 3432 
Q 2725 3281 2906 2969 
z
M 947 1747 
Q 947 1113 1208 752 
Q 1469 391 1925 391 
Q 2381 391 2643 752 
Q 2906 1113 2906 1747 
Q 2906 2381 2643 2742 
Q 2381 3103 1925 3103 
Q 1469 3103 1208 2742 
Q 947 2381 947 1747 
z
" id="DejaVuSans-64" transform="scale(0.015625)"/>
     </defs>
     <use xlink:href="#DejaVuSans-54"/>
     <use x="46.333984" xlink:href="#DejaVuSans-72"/>
     <use x="87.447266" xlink:href="#DejaVuSans-69"/>
     <use x="115.230469" xlink:href="#DejaVuSans-61"/>
     <use x="176.509766" xlink:href="#DejaVuSans-6c"/>
     <use x="204.292969" xlink:href="#DejaVuSans-20"/>
     <use x="236.080078" xlink:href="#DejaVuSans-45"/>
     <use x="299.263672" xlink:href="#DejaVuSans-6e"/>
     <use x="362.642578" xlink:href="#DejaVuSans-64"/>
     <use x="426.119141" xlink:href="#DejaVuSans-20"/>
     <use x="457.90625" xlink:href="#DejaVuSans-52"/>
     <use x="522.888672" xlink:href="#DejaVuSans-65"/>
     <use x="584.412109" xlink:href="#DejaVuSans-70"/>
     <use x="647.888672" xlink:href="#DejaVuSans-6c"/>
     <use x="675.671875" xlink:href="#DejaVuSans-61"/>
     <use x="736.951172" xlink:href="#DejaVuSans-79"/>
     <use x="796.130859" xlink:href="#DejaVuSans-73"/>
    </g>
   </g>
   <g id="legend_1">
    <g id="patch_8">
     <path d="M 72.597187 333.882321 
L 379.249688 333.882321 
Q 381.649688 333.882321 381.649688 331.482321 
L 381.649688 315.068571 
Q 381.649688 312.668571 379.249688 312.668571 
L 72.597187 312.668571 
Q 70.197187 312.668571 70.197187 315.068571 
L 70.197187 331.482321 
Q 70.197187 333.882321 72.597187 333.882321 
z
" style="fill:none;opacity:0;"/>
    </g>
    <g id="line2d_24">
     <path d="M 74.997187 322.386696 
L 98.997187 322.386696 
" style="fill:none;stroke:#0000ff;stroke-linecap:square;stroke-width:1.5;"/>
    </g>
    <g id="line2d_25"/>
    <g id="text_24">
     <!-- forward -->
     <g transform="translate(108.597187 326.586696)scale(0.12 -0.12)">
      <defs>
       <path d="M 2375 4863 
L 2375 4384 
L 1825 4384 
Q 1516 4384 1395 4259 
Q 1275 4134 1275 3809 
L 1275 3500 
L 2222 3500 
L 2222 3053 
L 1275 3053 
L 1275 0 
L 697 0 
L 697 3053 
L 147 3053 
L 147 3500 
L 697 3500 
L 697 3744 
Q 697 4328 969 4595 
Q 1241 4863 1831 4863 
L 2375 4863 
z
" id="DejaVuSans-66" transform="scale(0.015625)"/>
       <path d="M 1959 3097 
Q 1497 3097 1228 2736 
Q 959 2375 959 1747 
Q 959 1119 1226 758 
Q 1494 397 1959 397 
Q 2419 397 2687 759 
Q 2956 1122 2956 1747 
Q 2956 2369 2687 2733 
Q 2419 3097 1959 3097 
z
M 1959 3584 
Q 2709 3584 3137 3096 
Q 3566 2609 3566 1747 
Q 3566 888 3137 398 
Q 2709 -91 1959 -91 
Q 1206 -91 779 398 
Q 353 888 353 1747 
Q 353 2609 779 3096 
Q 1206 3584 1959 3584 
z
" id="DejaVuSans-6f" transform="scale(0.015625)"/>
       <path d="M 269 3500 
L 844 3500 
L 1563 769 
L 2278 3500 
L 2956 3500 
L 3675 769 
L 4391 3500 
L 4966 3500 
L 4050 0 
L 3372 0 
L 2619 2869 
L 1863 0 
L 1184 0 
L 269 3500 
z
" id="DejaVuSans-77" transform="scale(0.015625)"/>
      </defs>
      <use xlink:href="#DejaVuSans-66"/>
      <use x="35.205078" xlink:href="#DejaVuSans-6f"/>
      <use x="96.386719" xlink:href="#DejaVuSans-72"/>
      <use x="137.5" xlink:href="#DejaVuSans-77"/>
      <use x="219.287109" xlink:href="#DejaVuSans-61"/>
      <use x="280.566406" xlink:href="#DejaVuSans-72"/>
      <use x="319.929688" xlink:href="#DejaVuSans-64"/>
     </g>
    </g>
    <g id="line2d_26">
     <path d="M 178.605937 322.386696 
L 202.605937 322.386696 
" style="fill:none;stroke:#ff0000;stroke-linecap:square;stroke-width:1.5;"/>
    </g>
    <g id="line2d_27"/>
    <g id="text_25">
     <!-- reverse -->
     <g transform="translate(212.205937 326.586696)scale(0.12 -0.12)">
      <defs>
       <path d="M 191 3500 
L 800 3500 
L 1894 563 
L 2988 3500 
L 3597 3500 
L 2284 0 
L 1503 0 
L 191 3500 
z
" id="DejaVuSans-76" transform="scale(0.015625)"/>
      </defs>
      <use xlink:href="#DejaVuSans-72"/>
      <use x="38.863281" xlink:href="#DejaVuSans-65"/>
      <use x="100.386719" xlink:href="#DejaVuSans-76"/>
      <use x="159.566406" xlink:href="#DejaVuSans-65"/>
      <use x="221.089844" xlink:href="#DejaVuSans-72"/>
      <use x="262.203125" xlink:href="#DejaVuSans-73"/>
      <use x="314.302734" xlink:href="#DejaVuSans-65"/>
     </g>
    </g>
    <g id="line2d_28">
     <path d="M 281.307187 322.386696 
L 305.307187 322.386696 
" style="fill:none;stroke:#008000;stroke-linecap:square;stroke-width:1.5;"/>
    </g>
    <g id="line2d_29"/>
    <g id="text_26">
     <!-- unordered -->
     <g transform="translate(314.907188 326.586696)scale(0.12 -0.12)">
      <defs>
       <path d="M 544 1381 
L 544 3500 
L 1119 3500 
L 1119 1403 
Q 1119 906 1312 657 
Q 1506 409 1894 409 
Q 2359 409 2629 706 
Q 2900 1003 2900 1516 
L 2900 3500 
L 3475 3500 
L 3475 0 
L 2900 0 
L 2900 538 
Q 2691 219 2414 64 
Q 2138 -91 1772 -91 
Q 1169 -91 856 284 
Q 544 659 544 1381 
z
M 1991 3584 
L 1991 3584 
z
" id="DejaVuSans-75" transform="scale(0.015625)"/>
      </defs>
      <use xlink:href="#DejaVuSans-75"/>
      <use x="63.378906" xlink:href="#DejaVuSans-6e"/>
      <use x="126.757812" xlink:href="#DejaVuSans-6f"/>
      <use x="187.939453" xlink:href="#DejaVuSans-72"/>
      <use x="227.302734" xlink:href="#DejaVuSans-64"/>
      <use x="290.779297" xlink:href="#DejaVuSans-65"/>
      <use x="352.302734" xlink:href="#DejaVuSans-72"/>
      <use x="391.166016" xlink:href="#DejaVuSans-65"/>
      <use x="452.689453" xlink:href="#DejaVuSans-64"/>
     </g>
    </g>
   </g>
  </g>
  <g id="text_27">
   <!-- Linear Track, Reverse Mode, Recency -->
   <g transform="translate(81.164062 18.597656)scale(0.15 -0.15)">
    <defs>
     <path d="M 628 4666 
L 1259 4666 
L 1259 531 
L 3531 531 
L 3531 0 
L 628 0 
L 628 4666 
z
" id="DejaVuSans-4c" transform="scale(0.015625)"/>
     <path d="M 3122 3366 
L 3122 2828 
Q 2878 2963 2633 3030 
Q 2388 3097 2138 3097 
Q 1578 3097 1268 2742 
Q 959 2388 959 1747 
Q 959 1106 1268 751 
Q 1578 397 2138 397 
Q 2388 397 2633 464 
Q 2878 531 3122 666 
L 3122 134 
Q 2881 22 2623 -34 
Q 2366 -91 2075 -91 
Q 1284 -91 818 406 
Q 353 903 353 1747 
Q 353 2603 823 3093 
Q 1294 3584 2113 3584 
Q 2378 3584 2631 3529 
Q 2884 3475 3122 3366 
z
" id="DejaVuSans-63" transform="scale(0.015625)"/>
     <path d="M 581 4863 
L 1159 4863 
L 1159 1991 
L 2875 3500 
L 3609 3500 
L 1753 1863 
L 3688 0 
L 2938 0 
L 1159 1709 
L 1159 0 
L 581 0 
L 581 4863 
z
" id="DejaVuSans-6b" transform="scale(0.015625)"/>
     <path d="M 750 794 
L 1409 794 
L 1409 256 
L 897 -744 
L 494 -744 
L 750 256 
L 750 794 
z
" id="DejaVuSans-2c" transform="scale(0.015625)"/>
     <path d="M 628 4666 
L 1569 4666 
L 2759 1491 
L 3956 4666 
L 4897 4666 
L 4897 0 
L 4281 0 
L 4281 4097 
L 3078 897 
L 2444 897 
L 1241 4097 
L 1241 0 
L 628 0 
L 628 4666 
z
" id="DejaVuSans-4d" transform="scale(0.015625)"/>
    </defs>
    <use xlink:href="#DejaVuSans-4c"/>
    <use x="55.712891" xlink:href="#DejaVuSans-69"/>
    <use x="83.496094" xlink:href="#DejaVuSans-6e"/>
    <use x="146.875" xlink:href="#DejaVuSans-65"/>
    <use x="208.398438" xlink:href="#DejaVuSans-61"/>
    <use x="269.677734" xlink:href="#DejaVuSans-72"/>
    <use x="310.791016" xlink:href="#DejaVuSans-20"/>
    <use x="342.578125" xlink:href="#DejaVuSans-54"/>
    <use x="388.912109" xlink:href="#DejaVuSans-72"/>
    <use x="430.025391" xlink:href="#DejaVuSans-61"/>
    <use x="491.304688" xlink:href="#DejaVuSans-63"/>
    <use x="546.285156" xlink:href="#DejaVuSans-6b"/>
    <use x="604.195312" xlink:href="#DejaVuSans-2c"/>
    <use x="635.982422" xlink:href="#DejaVuSans-20"/>
    <use x="667.769531" xlink:href="#DejaVuSans-52"/>
    <use x="732.751953" xlink:href="#DejaVuSans-65"/>
    <use x="794.275391" xlink:href="#DejaVuSans-76"/>
    <use x="853.455078" xlink:href="#DejaVuSans-65"/>
    <use x="914.978516" xlink:href="#DejaVuSans-72"/>
    <use x="956.091797" xlink:href="#DejaVuSans-73"/>
    <use x="1008.191406" xlink:href="#DejaVuSans-65"/>
    <use x="1069.714844" xlink:href="#DejaVuSans-20"/>
    <use x="1101.501953" xlink:href="#DejaVuSans-4d"/>
    <use x="1187.78125" xlink:href="#DejaVuSans-6f"/>
    <use x="1248.962891" xlink:href="#DejaVuSans-64"/>
    <use x="1312.439453" xlink:href="#DejaVuSans-65"/>
    <use x="1373.962891" xlink:href="#DejaVuSans-2c"/>
    <use x="1405.75" xlink:href="#DejaVuSans-20"/>
    <use x="1437.537109" xlink:href="#DejaVuSans-52"/>
    <use x="1502.519531" xlink:href="#DejaVuSans-65"/>
    <use x="1564.042969" xlink:href="#DejaVuSans-63"/>
    <use x="1619.023438" xlink:href="#DejaVuSans-65"/>
    <use x="1680.546875" xlink:href="#DejaVuSans-6e"/>
    <use x="1743.925781" xlink:href="#DejaVuSans-63"/>
    <use x="1798.90625" xlink:href="#DejaVuSans-79"/>
   </g>
  </g>
 </g>
 <defs>
  <clipPath id="pfead9b6b44">
   <rect height="77.657143" width="334.8" x="58.523438" y="50.4"/>
  </clipPath>
  <clipPath id="p7a81973eef">
   <rect height="77.657143" width="334.8" x="58.523438" y="190.182857"/>
  </clipPath>
 </defs>
</svg>
