<?xml version="1.0" encoding="utf-8" standalone="no"?>
<!DOCTYPE svg PUBLIC "-//W3C//DTD SVG 1.1//EN"
  "http://www.w3.org/Graphics/SVG/1.1/DTD/svg11.dtd">
<svg height="341.082321pt" version="1.1" viewBox="0 0 385.78125 341.082321" width="385.78125pt" xmlns="http://www.w3.org/2000/svg" xmlns:xlink="http://www.w3.org/1999/xlink">
 <metadata>
  <rdf:RDF xmlns:cc="http://creativecommons.org/ns#" xmlns:dc="http://purl.org/dc/elements/1.1/" xmlns:rdf="http://www.w3.org/1999/02/22-rdf-syntax-ns#">
   <cc:Work>
    <dc:type rdf:resource="http://purl.org/dc/dcmitype/StillImage"/>
    <dc:date>2023-02-09T00:59:51.586467</dc:date>
    <dc:format>image/svg+xml</dc:format>
    <dc:creator>
     <cc:Agent>
      <dc:title>Matplotlib v3.4.3, https://matplotlib.org/</dc:title>
     </cc:Agent>
    </dc:creator>
   </cc:Work>
  </rdf:RDF>
 </metadata>
 <defs>
  <style type="text/css">*{stroke-linecap:butt;stroke-linejoin:round;}</style>
 </defs>
 <g id="figure_1">
  <g id="patch_1">
   <path d="M 0 341.082321 
L 385.78125 341.082321 
L 385.78125 0 
L 0 0 
z
" style="fill:none;"/>
  </g>
  <g id="axes_1">
   <g id="patch_2">
    <path d="M 43.78125 128.057143 
L 378.58125 128.057143 
L 378.58125 50.4 
L 43.78125 50.4 
z
" style="fill:none;"/>
   </g>
   <g id="matplotlib.axis_1">
    <g id="xtick_1">
     <g id="line2d_1">
      <defs>
       <path d="M 0 0 
L 0 3.5 
" id="mb91af095da" style="stroke:#000000;stroke-width:0.8;"/>
      </defs>
      <g>
       <use style="stroke:#000000;stroke-width:0.8;" x="58.999432" xlink:href="#mb91af095da" y="128.057143"/>
      </g>
     </g>
     <g id="text_1">
      <!-- 0 -->
      <g transform="translate(55.818182 142.65558)scale(0.1 -0.1)">
       <defs>
        <path d="M 2034 4250 
Q 1547 4250 1301 3770 
Q 1056 3291 1056 2328 
Q 1056 1369 1301 889 
Q 1547 409 2034 409 
Q 2525 409 2770 889 
Q 3016 1369 3016 2328 
Q 3016 3291 2770 3770 
Q 2525 4250 2034 4250 
z
M 2034 4750 
Q 2819 4750 3233 4129 
Q 3647 3509 3647 2328 
Q 3647 1150 3233 529 
Q 2819 -91 2034 -91 
Q 1250 -91 836 529 
Q 422 1150 422 2328 
Q 422 3509 836 4129 
Q 1250 4750 2034 4750 
z
" id="DejaVuSans-30" transform="scale(0.015625)"/>
       </defs>
       <use xlink:href="#DejaVuSans-30"/>
      </g>
     </g>
    </g>
    <g id="xtick_2">
     <g id="line2d_2">
      <g>
       <use style="stroke:#000000;stroke-width:0.8;" x="120.487035" xlink:href="#mb91af095da" y="128.057143"/>
      </g>
     </g>
     <g id="text_2">
      <!-- 20 -->
      <g transform="translate(114.124535 142.65558)scale(0.1 -0.1)">
       <defs>
        <path d="M 1228 531 
L 3431 531 
L 3431 0 
L 469 0 
L 469 531 
Q 828 903 1448 1529 
Q 2069 2156 2228 2338 
Q 2531 2678 2651 2914 
Q 2772 3150 2772 3378 
Q 2772 3750 2511 3984 
Q 2250 4219 1831 4219 
Q 1534 4219 1204 4116 
Q 875 4013 500 3803 
L 500 4441 
Q 881 4594 1212 4672 
Q 1544 4750 1819 4750 
Q 2544 4750 2975 4387 
Q 3406 4025 3406 3419 
Q 3406 3131 3298 2873 
Q 3191 2616 2906 2266 
Q 2828 2175 2409 1742 
Q 1991 1309 1228 531 
z
" id="DejaVuSans-32" transform="scale(0.015625)"/>
       </defs>
       <use xlink:href="#DejaVuSans-32"/>
       <use x="63.623047" xlink:href="#DejaVuSans-30"/>
      </g>
     </g>
    </g>
    <g id="xtick_3">
     <g id="line2d_3">
      <g>
       <use style="stroke:#000000;stroke-width:0.8;" x="181.974638" xlink:href="#mb91af095da" y="128.057143"/>
      </g>
     </g>
     <g id="text_3">
      <!-- 40 -->
      <g transform="translate(175.612138 142.65558)scale(0.1 -0.1)">
       <defs>
        <path d="M 2419 4116 
L 825 1625 
L 2419 1625 
L 2419 4116 
z
M 2253 4666 
L 3047 4666 
L 3047 1625 
L 3713 1625 
L 3713 1100 
L 3047 1100 
L 3047 0 
L 2419 0 
L 2419 1100 
L 313 1100 
L 313 1709 
L 2253 4666 
z
" id="DejaVuSans-34" transform="scale(0.015625)"/>
       </defs>
       <use xlink:href="#DejaVuSans-34"/>
       <use x="63.623047" xlink:href="#DejaVuSans-30"/>
      </g>
     </g>
    </g>
    <g id="xtick_4">
     <g id="line2d_4">
      <g>
       <use style="stroke:#000000;stroke-width:0.8;" x="243.462242" xlink:href="#mb91af095da" y="128.057143"/>
      </g>
     </g>
     <g id="text_4">
      <!-- 60 -->
      <g transform="translate(237.099742 142.65558)scale(0.1 -0.1)">
       <defs>
        <path d="M 2113 2584 
Q 1688 2584 1439 2293 
Q 1191 2003 1191 1497 
Q 1191 994 1439 701 
Q 1688 409 2113 409 
Q 2538 409 2786 701 
Q 3034 994 3034 1497 
Q 3034 2003 2786 2293 
Q 2538 2584 2113 2584 
z
M 3366 4563 
L 3366 3988 
Q 3128 4100 2886 4159 
Q 2644 4219 2406 4219 
Q 1781 4219 1451 3797 
Q 1122 3375 1075 2522 
Q 1259 2794 1537 2939 
Q 1816 3084 2150 3084 
Q 2853 3084 3261 2657 
Q 3669 2231 3669 1497 
Q 3669 778 3244 343 
Q 2819 -91 2113 -91 
Q 1303 -91 875 529 
Q 447 1150 447 2328 
Q 447 3434 972 4092 
Q 1497 4750 2381 4750 
Q 2619 4750 2861 4703 
Q 3103 4656 3366 4563 
z
" id="DejaVuSans-36" transform="scale(0.015625)"/>
       </defs>
       <use xlink:href="#DejaVuSans-36"/>
       <use x="63.623047" xlink:href="#DejaVuSans-30"/>
      </g>
     </g>
    </g>
    <g id="xtick_5">
     <g id="line2d_5">
      <g>
       <use style="stroke:#000000;stroke-width:0.8;" x="304.949845" xlink:href="#mb91af095da" y="128.057143"/>
      </g>
     </g>
     <g id="text_5">
      <!-- 80 -->
      <g transform="translate(298.587345 142.65558)scale(0.1 -0.1)">
       <defs>
        <path d="M 2034 2216 
Q 1584 2216 1326 1975 
Q 1069 1734 1069 1313 
Q 1069 891 1326 650 
Q 1584 409 2034 409 
Q 2484 409 2743 651 
Q 3003 894 3003 1313 
Q 3003 1734 2745 1975 
Q 2488 2216 2034 2216 
z
M 1403 2484 
Q 997 2584 770 2862 
Q 544 3141 544 3541 
Q 544 4100 942 4425 
Q 1341 4750 2034 4750 
Q 2731 4750 3128 4425 
Q 3525 4100 3525 3541 
Q 3525 3141 3298 2862 
Q 3072 2584 2669 2484 
Q 3125 2378 3379 2068 
Q 3634 1759 3634 1313 
Q 3634 634 3220 271 
Q 2806 -91 2034 -91 
Q 1263 -91 848 271 
Q 434 634 434 1313 
Q 434 1759 690 2068 
Q 947 2378 1403 2484 
z
M 1172 3481 
Q 1172 3119 1398 2916 
Q 1625 2713 2034 2713 
Q 2441 2713 2670 2916 
Q 2900 3119 2900 3481 
Q 2900 3844 2670 4047 
Q 2441 4250 2034 4250 
Q 1625 4250 1398 4047 
Q 1172 3844 1172 3481 
z
" id="DejaVuSans-38" transform="scale(0.015625)"/>
       </defs>
       <use xlink:href="#DejaVuSans-38"/>
       <use x="63.623047" xlink:href="#DejaVuSans-30"/>
      </g>
     </g>
    </g>
    <g id="xtick_6">
     <g id="line2d_6">
      <g>
       <use style="stroke:#000000;stroke-width:0.8;" x="366.437448" xlink:href="#mb91af095da" y="128.057143"/>
      </g>
     </g>
     <g id="text_6">
      <!-- 100 -->
      <g transform="translate(356.893698 142.65558)scale(0.1 -0.1)">
       <defs>
        <path d="M 794 531 
L 1825 531 
L 1825 4091 
L 703 3866 
L 703 4441 
L 1819 4666 
L 2450 4666 
L 2450 531 
L 3481 531 
L 3481 0 
L 794 0 
L 794 531 
z
" id="DejaVuSans-31" transform="scale(0.015625)"/>
       </defs>
       <use xlink:href="#DejaVuSans-31"/>
       <use x="63.623047" xlink:href="#DejaVuSans-30"/>
       <use x="127.246094" xlink:href="#DejaVuSans-30"/>
      </g>
     </g>
    </g>
    <g id="text_7">
     <!-- Trial -->
     <g transform="translate(200.967187 156.333705)scale(0.1 -0.1)">
      <defs>
       <path d="M -19 4666 
L 3928 4666 
L 3928 4134 
L 2272 4134 
L 2272 0 
L 1638 0 
L 1638 4134 
L -19 4134 
L -19 4666 
z
" id="DejaVuSans-54" transform="scale(0.015625)"/>
       <path d="M 2631 2963 
Q 2534 3019 2420 3045 
Q 2306 3072 2169 3072 
Q 1681 3072 1420 2755 
Q 1159 2438 1159 1844 
L 1159 0 
L 581 0 
L 581 3500 
L 1159 3500 
L 1159 2956 
Q 1341 3275 1631 3429 
Q 1922 3584 2338 3584 
Q 2397 3584 2469 3576 
Q 2541 3569 2628 3553 
L 2631 2963 
z
" id="DejaVuSans-72" transform="scale(0.015625)"/>
       <path d="M 603 3500 
L 1178 3500 
L 1178 0 
L 603 0 
L 603 3500 
z
M 603 4863 
L 1178 4863 
L 1178 4134 
L 603 4134 
L 603 4863 
z
" id="DejaVuSans-69" transform="scale(0.015625)"/>
       <path d="M 2194 1759 
Q 1497 1759 1228 1600 
Q 959 1441 959 1056 
Q 959 750 1161 570 
Q 1363 391 1709 391 
Q 2188 391 2477 730 
Q 2766 1069 2766 1631 
L 2766 1759 
L 2194 1759 
z
M 3341 1997 
L 3341 0 
L 2766 0 
L 2766 531 
Q 2569 213 2275 61 
Q 1981 -91 1556 -91 
Q 1019 -91 701 211 
Q 384 513 384 1019 
Q 384 1609 779 1909 
Q 1175 2209 1959 2209 
L 2766 2209 
L 2766 2266 
Q 2766 2663 2505 2880 
Q 2244 3097 1772 3097 
Q 1472 3097 1187 3025 
Q 903 2953 641 2809 
L 641 3341 
Q 956 3463 1253 3523 
Q 1550 3584 1831 3584 
Q 2591 3584 2966 3190 
Q 3341 2797 3341 1997 
z
" id="DejaVuSans-61" transform="scale(0.015625)"/>
       <path d="M 603 4863 
L 1178 4863 
L 1178 0 
L 603 0 
L 603 4863 
z
" id="DejaVuSans-6c" transform="scale(0.015625)"/>
      </defs>
      <use xlink:href="#DejaVuSans-54"/>
      <use x="46.333984" xlink:href="#DejaVuSans-72"/>
      <use x="87.447266" xlink:href="#DejaVuSans-69"/>
      <use x="115.230469" xlink:href="#DejaVuSans-61"/>
      <use x="176.509766" xlink:href="#DejaVuSans-6c"/>
     </g>
    </g>
   </g>
   <g id="matplotlib.axis_2">
    <g id="ytick_1">
     <g id="line2d_7">
      <defs>
       <path d="M 0 0 
L -3.5 0 
" id="md56796d3b1" style="stroke:#000000;stroke-width:0.8;"/>
      </defs>
      <g>
       <use style="stroke:#000000;stroke-width:0.8;" x="43.78125" xlink:href="#md56796d3b1" y="124.527273"/>
      </g>
     </g>
     <g id="text_8">
      <!-- 0.0 -->
      <g transform="translate(20.878125 128.326491)scale(0.1 -0.1)">
       <defs>
        <path d="M 684 794 
L 1344 794 
L 1344 0 
L 684 0 
L 684 794 
z
" id="DejaVuSans-2e" transform="scale(0.015625)"/>
       </defs>
       <use xlink:href="#DejaVuSans-30"/>
       <use x="63.623047" xlink:href="#DejaVuSans-2e"/>
       <use x="95.410156" xlink:href="#DejaVuSans-30"/>
      </g>
     </g>
    </g>
    <g id="ytick_2">
     <g id="line2d_8">
      <g>
       <use style="stroke:#000000;stroke-width:0.8;" x="43.78125" xlink:href="#md56796d3b1" y="97.745254"/>
      </g>
     </g>
     <g id="text_9">
      <!-- 2.5 -->
      <g transform="translate(20.878125 101.544472)scale(0.1 -0.1)">
       <defs>
        <path d="M 691 4666 
L 3169 4666 
L 3169 4134 
L 1269 4134 
L 1269 2991 
Q 1406 3038 1543 3061 
Q 1681 3084 1819 3084 
Q 2600 3084 3056 2656 
Q 3513 2228 3513 1497 
Q 3513 744 3044 326 
Q 2575 -91 1722 -91 
Q 1428 -91 1123 -41 
Q 819 9 494 109 
L 494 744 
Q 775 591 1075 516 
Q 1375 441 1709 441 
Q 2250 441 2565 725 
Q 2881 1009 2881 1497 
Q 2881 1984 2565 2268 
Q 2250 2553 1709 2553 
Q 1456 2553 1204 2497 
Q 953 2441 691 2322 
L 691 4666 
z
" id="DejaVuSans-35" transform="scale(0.015625)"/>
       </defs>
       <use xlink:href="#DejaVuSans-32"/>
       <use x="63.623047" xlink:href="#DejaVuSans-2e"/>
       <use x="95.410156" xlink:href="#DejaVuSans-35"/>
      </g>
     </g>
    </g>
    <g id="ytick_3">
     <g id="line2d_9">
      <g>
       <use style="stroke:#000000;stroke-width:0.8;" x="43.78125" xlink:href="#md56796d3b1" y="70.963234"/>
      </g>
     </g>
     <g id="text_10">
      <!-- 5.0 -->
      <g transform="translate(20.878125 74.762453)scale(0.1 -0.1)">
       <use xlink:href="#DejaVuSans-35"/>
       <use x="63.623047" xlink:href="#DejaVuSans-2e"/>
       <use x="95.410156" xlink:href="#DejaVuSans-30"/>
      </g>
     </g>
    </g>
    <g id="text_11">
     <!-- Pairs [#] -->
     <g transform="translate(14.798438 110.812165)rotate(-90)scale(0.1 -0.1)">
      <defs>
       <path d="M 1259 4147 
L 1259 2394 
L 2053 2394 
Q 2494 2394 2734 2622 
Q 2975 2850 2975 3272 
Q 2975 3691 2734 3919 
Q 2494 4147 2053 4147 
L 1259 4147 
z
M 628 4666 
L 2053 4666 
Q 2838 4666 3239 4311 
Q 3641 3956 3641 3272 
Q 3641 2581 3239 2228 
Q 2838 1875 2053 1875 
L 1259 1875 
L 1259 0 
L 628 0 
L 628 4666 
z
" id="DejaVuSans-50" transform="scale(0.015625)"/>
       <path d="M 2834 3397 
L 2834 2853 
Q 2591 2978 2328 3040 
Q 2066 3103 1784 3103 
Q 1356 3103 1142 2972 
Q 928 2841 928 2578 
Q 928 2378 1081 2264 
Q 1234 2150 1697 2047 
L 1894 2003 
Q 2506 1872 2764 1633 
Q 3022 1394 3022 966 
Q 3022 478 2636 193 
Q 2250 -91 1575 -91 
Q 1294 -91 989 -36 
Q 684 19 347 128 
L 347 722 
Q 666 556 975 473 
Q 1284 391 1588 391 
Q 1994 391 2212 530 
Q 2431 669 2431 922 
Q 2431 1156 2273 1281 
Q 2116 1406 1581 1522 
L 1381 1569 
Q 847 1681 609 1914 
Q 372 2147 372 2553 
Q 372 3047 722 3315 
Q 1072 3584 1716 3584 
Q 2034 3584 2315 3537 
Q 2597 3491 2834 3397 
z
" id="DejaVuSans-73" transform="scale(0.015625)"/>
       <path id="DejaVuSans-20" transform="scale(0.015625)"/>
       <path d="M 550 4863 
L 1875 4863 
L 1875 4416 
L 1125 4416 
L 1125 -397 
L 1875 -397 
L 1875 -844 
L 550 -844 
L 550 4863 
z
" id="DejaVuSans-5b" transform="scale(0.015625)"/>
       <path d="M 3272 2816 
L 2363 2816 
L 2100 1772 
L 3016 1772 
L 3272 2816 
z
M 2803 4594 
L 2478 3297 
L 3391 3297 
L 3719 4594 
L 4219 4594 
L 3897 3297 
L 4872 3297 
L 4872 2816 
L 3775 2816 
L 3519 1772 
L 4513 1772 
L 4513 1294 
L 3397 1294 
L 3072 0 
L 2572 0 
L 2894 1294 
L 1978 1294 
L 1656 0 
L 1153 0 
L 1478 1294 
L 494 1294 
L 494 1772 
L 1594 1772 
L 1856 2816 
L 850 2816 
L 850 3297 
L 1978 3297 
L 2297 4594 
L 2803 4594 
z
" id="DejaVuSans-23" transform="scale(0.015625)"/>
       <path d="M 1947 4863 
L 1947 -844 
L 622 -844 
L 622 -397 
L 1369 -397 
L 1369 4416 
L 622 4416 
L 622 4863 
L 1947 4863 
z
" id="DejaVuSans-5d" transform="scale(0.015625)"/>
      </defs>
      <use xlink:href="#DejaVuSans-50"/>
      <use x="55.802734" xlink:href="#DejaVuSans-61"/>
      <use x="117.082031" xlink:href="#DejaVuSans-69"/>
      <use x="144.865234" xlink:href="#DejaVuSans-72"/>
      <use x="185.978516" xlink:href="#DejaVuSans-73"/>
      <use x="238.078125" xlink:href="#DejaVuSans-20"/>
      <use x="269.865234" xlink:href="#DejaVuSans-5b"/>
      <use x="308.878906" xlink:href="#DejaVuSans-23"/>
      <use x="392.667969" xlink:href="#DejaVuSans-5d"/>
     </g>
    </g>
   </g>
   <g id="line2d_10">
    <path clip-path="url(#p13b13037be)" d="M 58.999432 124.527273 
L 62.073812 89.067879 
L 65.148192 90.353416 
L 68.222572 90.6748 
L 71.296952 91.960337 
L 74.371333 91.424697 
L 77.445713 91.317569 
L 80.520093 88.746495 
L 83.594473 88.317983 
L 86.668853 86.603934 
L 89.743233 84.889884 
L 92.817614 86.175421 
L 95.891994 87.246702 
L 98.966374 84.889884 
L 102.040754 84.5685 
L 105.115134 85.639781 
L 108.189514 86.496805 
L 111.263895 83.711475 
L 114.338275 85.532653 
L 117.412655 87.032446 
L 120.487035 89.175007 
L 123.561415 87.782342 
L 126.635795 90.6748 
L 129.710176 88.746495 
L 132.784556 87.88947 
L 135.858936 90.032032 
L 138.933316 89.282135 
L 142.007696 93.245874 
L 145.082076 91.210441 
L 148.156457 91.210441 
L 151.230837 91.317569 
L 154.305217 93.031618 
L 157.379597 93.353002 
L 160.453977 91.317569 
L 163.528357 93.245874 
L 166.602738 94.424283 
L 169.677118 93.46013 
L 172.751498 93.995771 
L 175.825878 92.603106 
L 178.900258 93.031618 
L 181.974638 94.852795 
L 185.049019 94.424283 
L 188.123399 95.70982 
L 191.197779 94.317155 
L 194.272159 94.102899 
L 197.346539 95.281308 
L 200.420919 95.816948 
L 203.4953 94.424283 
L 206.56968 95.602692 
L 209.64406 97.316741 
L 212.71844 97.95951 
L 215.79282 94.745667 
L 218.8672 95.924076 
L 221.941581 94.424283 
L 225.015961 96.888229 
L 228.090341 96.673973 
L 231.164721 94.959924 
L 234.239101 97.209613 
L 237.313481 96.138332 
L 240.387862 97.95951 
L 243.462242 96.673973 
L 246.536622 93.888643 
L 249.611002 97.852382 
L 252.685382 98.816534 
L 255.759762 96.566845 
L 258.834143 95.388436 
L 261.908523 95.70982 
L 264.982903 98.066638 
L 268.057283 94.852795 
L 271.131663 95.067052 
L 274.206043 97.423869 
L 277.280424 97.745254 
L 280.354804 96.888229 
L 283.429184 96.781101 
L 286.503564 95.924076 
L 289.577944 96.031204 
L 292.652324 97.316741 
L 295.726705 93.995771 
L 298.801085 97.852382 
L 301.875465 97.316741 
L 304.949845 95.924076 
L 308.024225 97.530997 
L 311.098605 96.566845 
L 314.172986 98.066638 
L 317.247366 96.352589 
L 320.321746 97.209613 
L 323.396126 94.959924 
L 326.470506 97.102485 
L 329.544886 98.709406 
L 332.619267 97.95951 
L 335.693647 95.70982 
L 338.768027 97.852382 
L 341.842407 96.995357 
L 344.916787 95.495564 
L 347.991167 97.209613 
L 351.065548 94.852795 
L 354.139928 97.638125 
L 357.214308 98.173766 
L 360.288688 96.995357 
L 363.363068 96.24546 
" style="fill:none;stroke:#0000ff;stroke-linecap:square;stroke-width:1.5;"/>
   </g>
   <g id="line2d_11">
    <path clip-path="url(#p13b13037be)" d="M 58.999432 124.527273 
L 62.073812 64.107037 
L 65.148192 63.035757 
L 68.222572 62.607244 
L 71.296952 61.535964 
L 74.371333 62.178732 
L 77.445713 62.071604 
L 80.520093 64.53555 
L 83.594473 64.856934 
L 86.668853 66.785239 
L 89.743233 68.39216 
L 92.817614 67.213752 
L 95.891994 66.035343 
L 98.966374 68.177904 
L 102.040754 68.606417 
L 105.115134 67.535136 
L 108.189514 66.463855 
L 111.263895 69.249185 
L 114.338275 67.213752 
L 117.412655 65.928215 
L 120.487035 63.678525 
L 123.561415 65.07119 
L 126.635795 62.178732 
L 129.710176 63.892781 
L 132.784556 64.749806 
L 135.858936 62.714372 
L 138.933316 63.464269 
L 142.007696 59.393402 
L 145.082076 61.428836 
L 148.156457 61.535964 
L 151.230837 61.321707 
L 154.305217 59.607658 
L 157.379597 59.286274 
L 160.453977 61.535964 
L 163.528357 59.393402 
L 166.602738 58.429249 
L 169.677118 59.179146 
L 172.751498 58.643506 
L 175.825878 60.143299 
L 178.900258 59.714786 
L 181.974638 57.786481 
L 185.049019 58.322121 
L 188.123399 57.036584 
L 191.197779 58.429249 
L 194.272159 58.643506 
L 197.346539 57.465097 
L 200.420919 57.036584 
L 203.4953 58.322121 
L 206.56968 57.036584 
L 209.64406 55.322535 
L 212.71844 54.786895 
L 215.79282 57.893609 
L 218.8672 56.7152 
L 221.941581 58.214993 
L 225.015961 55.858176 
L 228.090341 56.072432 
L 231.164721 57.679353 
L 234.239101 55.429663 
L 237.313481 56.500944 
L 240.387862 54.679767 
L 243.462242 55.965304 
L 246.536622 58.750634 
L 249.611002 55.001151 
L 252.685382 53.92987 
L 255.759762 56.072432 
L 258.834143 57.250841 
L 261.908523 56.929456 
L 264.982903 54.679767 
L 268.057283 57.893609 
L 271.131663 57.572225 
L 274.206043 55.215407 
L 277.280424 54.894023 
L 280.354804 55.751047 
L 283.429184 55.858176 
L 286.503564 56.7152 
L 289.577944 56.7152 
L 292.652324 55.322535 
L 295.726705 58.643506 
L 298.801085 54.786895 
L 301.875465 55.322535 
L 304.949845 56.7152 
L 308.024225 55.215407 
L 311.098605 56.072432 
L 314.172986 54.572639 
L 317.247366 56.286688 
L 320.321746 55.429663 
L 323.396126 57.679353 
L 326.470506 55.536791 
L 329.544886 54.036998 
L 332.619267 54.786895 
L 335.693647 56.929456 
L 338.768027 54.786895 
L 341.842407 55.643919 
L 344.916787 57.250841 
L 347.991167 55.429663 
L 351.065548 57.786481 
L 354.139928 55.001151 
L 357.214308 54.465511 
L 360.288688 55.643919 
L 363.363068 56.393816 
" style="fill:none;stroke:#ff0000;stroke-linecap:square;stroke-width:1.5;"/>
   </g>
   <g id="line2d_12">
    <path clip-path="url(#p13b13037be)" d="M 58.999432 124.527273 
L 62.073812 123.991632 
L 65.148192 123.777376 
L 68.222572 123.884504 
L 71.296952 123.670248 
L 74.371333 123.56312 
L 77.445713 123.777376 
L 80.520093 123.884504 
L 83.594473 123.991632 
L 86.668853 123.777376 
L 89.743233 123.884504 
L 92.817614 123.777376 
L 95.891994 123.884504 
L 98.966374 124.09876 
L 102.040754 123.991632 
L 105.115134 123.991632 
L 108.189514 124.205888 
L 111.263895 124.205888 
L 114.338275 124.420145 
L 117.412655 124.205888 
L 120.487035 124.313017 
L 123.561415 124.313017 
L 126.635795 124.313017 
L 129.710176 124.527273 
L 132.784556 124.527273 
L 135.858936 124.420145 
L 138.933316 124.420145 
L 142.007696 124.527273 
L 145.082076 124.527273 
L 148.156457 124.420145 
L 151.230837 124.527273 
L 154.305217 124.527273 
L 157.379597 124.527273 
L 160.453977 124.313017 
L 163.528357 124.527273 
L 166.602738 124.313017 
L 169.677118 124.527273 
L 172.751498 124.527273 
L 175.825878 124.420145 
L 178.900258 124.420145 
L 181.974638 124.527273 
L 185.049019 124.420145 
L 188.123399 124.420145 
L 191.197779 124.420145 
L 194.272159 124.420145 
L 197.346539 124.420145 
L 200.420919 124.313017 
L 203.4953 124.420145 
L 206.56968 124.527273 
L 209.64406 124.527273 
L 212.71844 124.420145 
L 215.79282 124.527273 
L 218.8672 124.527273 
L 221.941581 124.527273 
L 225.015961 124.420145 
L 228.090341 124.420145 
L 231.164721 124.527273 
L 234.239101 124.527273 
L 237.313481 124.527273 
L 240.387862 124.527273 
L 243.462242 124.527273 
L 246.536622 124.527273 
L 249.611002 124.313017 
L 252.685382 124.420145 
L 255.759762 124.527273 
L 258.834143 124.527273 
L 261.908523 124.527273 
L 264.982903 124.420145 
L 268.057283 124.420145 
L 271.131663 124.527273 
L 274.206043 124.527273 
L 277.280424 124.527273 
L 280.354804 124.527273 
L 283.429184 124.527273 
L 286.503564 124.527273 
L 289.577944 124.420145 
L 292.652324 124.527273 
L 295.726705 124.527273 
L 298.801085 124.527273 
L 301.875465 124.527273 
L 304.949845 124.527273 
L 308.024225 124.420145 
L 311.098605 124.527273 
L 314.172986 124.527273 
L 317.247366 124.527273 
L 320.321746 124.527273 
L 323.396126 124.527273 
L 326.470506 124.527273 
L 329.544886 124.420145 
L 332.619267 124.420145 
L 335.693647 124.527273 
L 338.768027 124.527273 
L 341.842407 124.527273 
L 344.916787 124.420145 
L 347.991167 124.527273 
L 351.065548 124.527273 
L 354.139928 124.527273 
L 357.214308 124.527273 
L 360.288688 124.527273 
L 363.363068 124.527273 
" style="fill:none;stroke:#008000;stroke-linecap:square;stroke-width:1.5;"/>
   </g>
   <g id="patch_3">
    <path d="M 43.78125 128.057143 
L 43.78125 50.4 
" style="fill:none;stroke:#000000;stroke-linecap:square;stroke-linejoin:miter;stroke-width:0.8;"/>
   </g>
   <g id="patch_4">
    <path d="M 43.78125 128.057143 
L 378.58125 128.057143 
" style="fill:none;stroke:#000000;stroke-linecap:square;stroke-linejoin:miter;stroke-width:0.8;"/>
   </g>
   <g id="text_12">
    <!-- Trial Start Replays -->
    <g transform="translate(157.033125 44.4)scale(0.12 -0.12)">
     <defs>
      <path d="M 3425 4513 
L 3425 3897 
Q 3066 4069 2747 4153 
Q 2428 4238 2131 4238 
Q 1616 4238 1336 4038 
Q 1056 3838 1056 3469 
Q 1056 3159 1242 3001 
Q 1428 2844 1947 2747 
L 2328 2669 
Q 3034 2534 3370 2195 
Q 3706 1856 3706 1288 
Q 3706 609 3251 259 
Q 2797 -91 1919 -91 
Q 1588 -91 1214 -16 
Q 841 59 441 206 
L 441 856 
Q 825 641 1194 531 
Q 1563 422 1919 422 
Q 2459 422 2753 634 
Q 3047 847 3047 1241 
Q 3047 1584 2836 1778 
Q 2625 1972 2144 2069 
L 1759 2144 
Q 1053 2284 737 2584 
Q 422 2884 422 3419 
Q 422 4038 858 4394 
Q 1294 4750 2059 4750 
Q 2388 4750 2728 4690 
Q 3069 4631 3425 4513 
z
" id="DejaVuSans-53" transform="scale(0.015625)"/>
      <path d="M 1172 4494 
L 1172 3500 
L 2356 3500 
L 2356 3053 
L 1172 3053 
L 1172 1153 
Q 1172 725 1289 603 
Q 1406 481 1766 481 
L 2356 481 
L 2356 0 
L 1766 0 
Q 1100 0 847 248 
Q 594 497 594 1153 
L 594 3053 
L 172 3053 
L 172 3500 
L 594 3500 
L 594 4494 
L 1172 4494 
z
" id="DejaVuSans-74" transform="scale(0.015625)"/>
      <path d="M 2841 2188 
Q 3044 2119 3236 1894 
Q 3428 1669 3622 1275 
L 4263 0 
L 3584 0 
L 2988 1197 
Q 2756 1666 2539 1819 
Q 2322 1972 1947 1972 
L 1259 1972 
L 1259 0 
L 628 0 
L 628 4666 
L 2053 4666 
Q 2853 4666 3247 4331 
Q 3641 3997 3641 3322 
Q 3641 2881 3436 2590 
Q 3231 2300 2841 2188 
z
M 1259 4147 
L 1259 2491 
L 2053 2491 
Q 2509 2491 2742 2702 
Q 2975 2913 2975 3322 
Q 2975 3731 2742 3939 
Q 2509 4147 2053 4147 
L 1259 4147 
z
" id="DejaVuSans-52" transform="scale(0.015625)"/>
      <path d="M 3597 1894 
L 3597 1613 
L 953 1613 
Q 991 1019 1311 708 
Q 1631 397 2203 397 
Q 2534 397 2845 478 
Q 3156 559 3463 722 
L 3463 178 
Q 3153 47 2828 -22 
Q 2503 -91 2169 -91 
Q 1331 -91 842 396 
Q 353 884 353 1716 
Q 353 2575 817 3079 
Q 1281 3584 2069 3584 
Q 2775 3584 3186 3129 
Q 3597 2675 3597 1894 
z
M 3022 2063 
Q 3016 2534 2758 2815 
Q 2500 3097 2075 3097 
Q 1594 3097 1305 2825 
Q 1016 2553 972 2059 
L 3022 2063 
z
" id="DejaVuSans-65" transform="scale(0.015625)"/>
      <path d="M 1159 525 
L 1159 -1331 
L 581 -1331 
L 581 3500 
L 1159 3500 
L 1159 2969 
Q 1341 3281 1617 3432 
Q 1894 3584 2278 3584 
Q 2916 3584 3314 3078 
Q 3713 2572 3713 1747 
Q 3713 922 3314 415 
Q 2916 -91 2278 -91 
Q 1894 -91 1617 61 
Q 1341 213 1159 525 
z
M 3116 1747 
Q 3116 2381 2855 2742 
Q 2594 3103 2138 3103 
Q 1681 3103 1420 2742 
Q 1159 2381 1159 1747 
Q 1159 1113 1420 752 
Q 1681 391 2138 391 
Q 2594 391 2855 752 
Q 3116 1113 3116 1747 
z
" id="DejaVuSans-70" transform="scale(0.015625)"/>
      <path d="M 2059 -325 
Q 1816 -950 1584 -1140 
Q 1353 -1331 966 -1331 
L 506 -1331 
L 506 -850 
L 844 -850 
Q 1081 -850 1212 -737 
Q 1344 -625 1503 -206 
L 1606 56 
L 191 3500 
L 800 3500 
L 1894 763 
L 2988 3500 
L 3597 3500 
L 2059 -325 
z
" id="DejaVuSans-79" transform="scale(0.015625)"/>
     </defs>
     <use xlink:href="#DejaVuSans-54"/>
     <use x="46.333984" xlink:href="#DejaVuSans-72"/>
     <use x="87.447266" xlink:href="#DejaVuSans-69"/>
     <use x="115.230469" xlink:href="#DejaVuSans-61"/>
     <use x="176.509766" xlink:href="#DejaVuSans-6c"/>
     <use x="204.292969" xlink:href="#DejaVuSans-20"/>
     <use x="236.080078" xlink:href="#DejaVuSans-53"/>
     <use x="299.556641" xlink:href="#DejaVuSans-74"/>
     <use x="338.765625" xlink:href="#DejaVuSans-61"/>
     <use x="400.044922" xlink:href="#DejaVuSans-72"/>
     <use x="441.158203" xlink:href="#DejaVuSans-74"/>
     <use x="480.367188" xlink:href="#DejaVuSans-20"/>
     <use x="512.154297" xlink:href="#DejaVuSans-52"/>
     <use x="577.136719" xlink:href="#DejaVuSans-65"/>
     <use x="638.660156" xlink:href="#DejaVuSans-70"/>
     <use x="702.136719" xlink:href="#DejaVuSans-6c"/>
     <use x="729.919922" xlink:href="#DejaVuSans-61"/>
     <use x="791.199219" xlink:href="#DejaVuSans-79"/>
     <use x="850.378906" xlink:href="#DejaVuSans-73"/>
    </g>
   </g>
  </g>
  <g id="axes_2">
   <g id="patch_5">
    <path d="M 43.78125 267.84 
L 378.58125 267.84 
L 378.58125 190.182857 
L 43.78125 190.182857 
z
" style="fill:none;"/>
   </g>
   <g id="matplotlib.axis_3">
    <g id="xtick_7">
     <g id="line2d_13">
      <g>
       <use style="stroke:#000000;stroke-width:0.8;" x="58.999432" xlink:href="#mb91af095da" y="267.84"/>
      </g>
     </g>
     <g id="text_13">
      <!-- 0 -->
      <g transform="translate(55.818182 282.438437)scale(0.1 -0.1)">
       <use xlink:href="#DejaVuSans-30"/>
      </g>
     </g>
    </g>
    <g id="xtick_8">
     <g id="line2d_14">
      <g>
       <use style="stroke:#000000;stroke-width:0.8;" x="120.487035" xlink:href="#mb91af095da" y="267.84"/>
      </g>
     </g>
     <g id="text_14">
      <!-- 20 -->
      <g transform="translate(114.124535 282.438437)scale(0.1 -0.1)">
       <use xlink:href="#DejaVuSans-32"/>
       <use x="63.623047" xlink:href="#DejaVuSans-30"/>
      </g>
     </g>
    </g>
    <g id="xtick_9">
     <g id="line2d_15">
      <g>
       <use style="stroke:#000000;stroke-width:0.8;" x="181.974638" xlink:href="#mb91af095da" y="267.84"/>
      </g>
     </g>
     <g id="text_15">
      <!-- 40 -->
      <g transform="translate(175.612138 282.438437)scale(0.1 -0.1)">
       <use xlink:href="#DejaVuSans-34"/>
       <use x="63.623047" xlink:href="#DejaVuSans-30"/>
      </g>
     </g>
    </g>
    <g id="xtick_10">
     <g id="line2d_16">
      <g>
       <use style="stroke:#000000;stroke-width:0.8;" x="243.462242" xlink:href="#mb91af095da" y="267.84"/>
      </g>
     </g>
     <g id="text_16">
      <!-- 60 -->
      <g transform="translate(237.099742 282.438437)scale(0.1 -0.1)">
       <use xlink:href="#DejaVuSans-36"/>
       <use x="63.623047" xlink:href="#DejaVuSans-30"/>
      </g>
     </g>
    </g>
    <g id="xtick_11">
     <g id="line2d_17">
      <g>
       <use style="stroke:#000000;stroke-width:0.8;" x="304.949845" xlink:href="#mb91af095da" y="267.84"/>
      </g>
     </g>
     <g id="text_17">
      <!-- 80 -->
      <g transform="translate(298.587345 282.438437)scale(0.1 -0.1)">
       <use xlink:href="#DejaVuSans-38"/>
       <use x="63.623047" xlink:href="#DejaVuSans-30"/>
      </g>
     </g>
    </g>
    <g id="xtick_12">
     <g id="line2d_18">
      <g>
       <use style="stroke:#000000;stroke-width:0.8;" x="366.437448" xlink:href="#mb91af095da" y="267.84"/>
      </g>
     </g>
     <g id="text_18">
      <!-- 100 -->
      <g transform="translate(356.893698 282.438437)scale(0.1 -0.1)">
       <use xlink:href="#DejaVuSans-31"/>
       <use x="63.623047" xlink:href="#DejaVuSans-30"/>
       <use x="127.246094" xlink:href="#DejaVuSans-30"/>
      </g>
     </g>
    </g>
    <g id="text_19">
     <!-- Trial -->
     <g transform="translate(200.967187 296.116562)scale(0.1 -0.1)">
      <use xlink:href="#DejaVuSans-54"/>
      <use x="46.333984" xlink:href="#DejaVuSans-72"/>
      <use x="87.447266" xlink:href="#DejaVuSans-69"/>
      <use x="115.230469" xlink:href="#DejaVuSans-61"/>
      <use x="176.509766" xlink:href="#DejaVuSans-6c"/>
     </g>
    </g>
   </g>
   <g id="matplotlib.axis_4">
    <g id="ytick_4">
     <g id="line2d_19">
      <g>
       <use style="stroke:#000000;stroke-width:0.8;" x="43.78125" xlink:href="#md56796d3b1" y="264.31013"/>
      </g>
     </g>
     <g id="text_20">
      <!-- 0 -->
      <g transform="translate(30.41875 268.109349)scale(0.1 -0.1)">
       <use xlink:href="#DejaVuSans-30"/>
      </g>
     </g>
    </g>
    <g id="ytick_5">
     <g id="line2d_20">
      <g>
       <use style="stroke:#000000;stroke-width:0.8;" x="43.78125" xlink:href="#md56796d3b1" y="220.186753"/>
      </g>
     </g>
     <g id="text_21">
      <!-- 5 -->
      <g transform="translate(30.41875 223.985972)scale(0.1 -0.1)">
       <use xlink:href="#DejaVuSans-35"/>
      </g>
     </g>
    </g>
    <g id="text_22">
     <!-- Pairs [#] -->
     <g transform="translate(24.339063 250.595022)rotate(-90)scale(0.1 -0.1)">
      <use xlink:href="#DejaVuSans-50"/>
      <use x="55.802734" xlink:href="#DejaVuSans-61"/>
      <use x="117.082031" xlink:href="#DejaVuSans-69"/>
      <use x="144.865234" xlink:href="#DejaVuSans-72"/>
      <use x="185.978516" xlink:href="#DejaVuSans-73"/>
      <use x="238.078125" xlink:href="#DejaVuSans-20"/>
      <use x="269.865234" xlink:href="#DejaVuSans-5b"/>
      <use x="308.878906" xlink:href="#DejaVuSans-23"/>
      <use x="392.667969" xlink:href="#DejaVuSans-5d"/>
     </g>
    </g>
   </g>
   <g id="line2d_21">
    <path clip-path="url(#p218299dd44)" d="M 58.999432 254.073506 
L 62.073812 255.750195 
L 65.148192 255.485455 
L 68.222572 255.750195 
L 71.296952 255.750195 
L 74.371333 255.661948 
L 77.445713 255.661948 
L 80.520093 255.661948 
L 83.594473 255.661948 
L 86.668853 255.661948 
L 89.743233 255.661948 
L 92.817614 255.573701 
L 95.891994 255.573701 
L 98.966374 255.573701 
L 102.040754 255.573701 
L 105.115134 255.485455 
L 108.189514 255.485455 
L 111.263895 255.485455 
L 114.338275 255.485455 
L 117.412655 255.485455 
L 120.487035 255.485455 
L 123.561415 255.397208 
L 126.635795 255.485455 
L 129.710176 255.485455 
L 132.784556 255.485455 
L 135.858936 255.485455 
L 138.933316 255.485455 
L 142.007696 255.485455 
L 145.082076 255.485455 
L 148.156457 255.485455 
L 151.230837 255.485455 
L 154.305217 255.485455 
L 157.379597 255.397208 
L 160.453977 255.485455 
L 163.528357 255.485455 
L 166.602738 255.485455 
L 169.677118 255.485455 
L 172.751498 255.485455 
L 175.825878 255.485455 
L 178.900258 255.485455 
L 181.974638 255.485455 
L 185.049019 255.485455 
L 188.123399 255.485455 
L 191.197779 255.485455 
L 194.272159 255.397208 
L 197.346539 255.485455 
L 200.420919 255.485455 
L 203.4953 255.485455 
L 206.56968 255.485455 
L 209.64406 255.485455 
L 212.71844 255.485455 
L 215.79282 255.485455 
L 218.8672 255.485455 
L 221.941581 255.485455 
L 225.015961 255.485455 
L 228.090341 255.485455 
L 231.164721 255.485455 
L 234.239101 255.485455 
L 237.313481 255.485455 
L 240.387862 255.485455 
L 243.462242 255.485455 
L 246.536622 255.485455 
L 249.611002 255.485455 
L 252.685382 255.485455 
L 255.759762 255.485455 
L 258.834143 255.397208 
L 261.908523 255.485455 
L 264.982903 255.485455 
L 268.057283 255.485455 
L 271.131663 255.485455 
L 274.206043 255.485455 
L 277.280424 255.485455 
L 280.354804 255.485455 
L 283.429184 255.485455 
L 286.503564 255.485455 
L 289.577944 255.485455 
L 292.652324 255.485455 
L 295.726705 255.485455 
L 298.801085 255.485455 
L 301.875465 255.485455 
L 304.949845 255.485455 
L 308.024225 255.485455 
L 311.098605 255.485455 
L 314.172986 255.485455 
L 317.247366 255.485455 
L 320.321746 255.485455 
L 323.396126 255.485455 
L 326.470506 255.485455 
L 329.544886 255.573701 
L 332.619267 255.485455 
L 335.693647 255.485455 
L 338.768027 255.485455 
L 341.842407 255.485455 
L 344.916787 255.485455 
L 347.991167 255.485455 
L 351.065548 255.485455 
L 354.139928 255.485455 
L 357.214308 255.485455 
L 360.288688 255.485455 
L 363.363068 255.485455 
" style="fill:none;stroke:#0000ff;stroke-linecap:square;stroke-width:1.5;"/>
   </g>
   <g id="line2d_22">
    <path clip-path="url(#p218299dd44)" d="M 58.999432 195.389416 
L 62.073812 193.800974 
L 65.148192 193.889221 
L 68.222572 193.712727 
L 71.296952 193.712727 
L 74.371333 193.712727 
L 77.445713 193.712727 
L 80.520093 193.712727 
L 83.594473 193.712727 
L 86.668853 193.712727 
L 89.743233 193.712727 
L 92.817614 193.712727 
L 95.891994 193.712727 
L 98.966374 193.712727 
L 102.040754 193.800974 
L 105.115134 193.712727 
L 108.189514 193.712727 
L 111.263895 193.712727 
L 114.338275 193.712727 
L 117.412655 193.712727 
L 120.487035 193.712727 
L 123.561415 193.889221 
L 126.635795 193.712727 
L 129.710176 193.712727 
L 132.784556 193.712727 
L 135.858936 193.712727 
L 138.933316 193.712727 
L 142.007696 193.712727 
L 145.082076 193.712727 
L 148.156457 193.712727 
L 151.230837 193.712727 
L 154.305217 193.712727 
L 157.379597 193.889221 
L 160.453977 193.712727 
L 163.528357 193.712727 
L 166.602738 193.712727 
L 169.677118 193.712727 
L 172.751498 193.712727 
L 175.825878 193.712727 
L 178.900258 193.712727 
L 181.974638 193.712727 
L 185.049019 193.712727 
L 188.123399 193.712727 
L 191.197779 193.712727 
L 194.272159 193.889221 
L 197.346539 193.712727 
L 200.420919 193.712727 
L 203.4953 193.712727 
L 206.56968 193.712727 
L 209.64406 193.712727 
L 212.71844 193.712727 
L 215.79282 193.712727 
L 218.8672 193.712727 
L 221.941581 193.712727 
L 225.015961 193.712727 
L 228.090341 193.712727 
L 231.164721 193.712727 
L 234.239101 193.712727 
L 237.313481 193.712727 
L 240.387862 193.712727 
L 243.462242 193.712727 
L 246.536622 193.712727 
L 249.611002 193.712727 
L 252.685382 193.712727 
L 255.759762 193.712727 
L 258.834143 193.889221 
L 261.908523 193.712727 
L 264.982903 193.712727 
L 268.057283 193.712727 
L 271.131663 193.712727 
L 274.206043 193.712727 
L 277.280424 193.712727 
L 280.354804 193.712727 
L 283.429184 193.712727 
L 286.503564 193.712727 
L 289.577944 193.712727 
L 292.652324 193.712727 
L 295.726705 193.712727 
L 298.801085 193.712727 
L 301.875465 193.712727 
L 304.949845 193.712727 
L 308.024225 193.712727 
L 311.098605 193.712727 
L 314.172986 193.712727 
L 317.247366 193.712727 
L 320.321746 193.712727 
L 323.396126 193.712727 
L 326.470506 193.712727 
L 329.544886 193.712727 
L 332.619267 193.712727 
L 335.693647 193.712727 
L 338.768027 193.712727 
L 341.842407 193.712727 
L 344.916787 193.712727 
L 347.991167 193.712727 
L 351.065548 193.712727 
L 354.139928 193.712727 
L 357.214308 193.712727 
L 360.288688 193.712727 
L 363.363068 193.712727 
" style="fill:none;stroke:#ff0000;stroke-linecap:square;stroke-width:1.5;"/>
   </g>
   <g id="line2d_23">
    <path clip-path="url(#p218299dd44)" d="M 58.999432 264.04539 
L 62.073812 263.957143 
L 65.148192 264.133636 
L 68.222572 264.04539 
L 71.296952 264.04539 
L 74.371333 264.133636 
L 77.445713 264.133636 
L 80.520093 264.133636 
L 83.594473 264.133636 
L 86.668853 264.133636 
L 89.743233 264.133636 
L 92.817614 264.221883 
L 95.891994 264.221883 
L 98.966374 264.221883 
L 102.040754 264.133636 
L 105.115134 264.31013 
L 108.189514 264.31013 
L 111.263895 264.31013 
L 114.338275 264.31013 
L 117.412655 264.31013 
L 120.487035 264.31013 
L 123.561415 264.221883 
L 126.635795 264.31013 
L 129.710176 264.31013 
L 132.784556 264.31013 
L 135.858936 264.31013 
L 138.933316 264.31013 
L 142.007696 264.31013 
L 145.082076 264.31013 
L 148.156457 264.31013 
L 151.230837 264.31013 
L 154.305217 264.31013 
L 157.379597 264.221883 
L 160.453977 264.31013 
L 163.528357 264.31013 
L 166.602738 264.31013 
L 169.677118 264.31013 
L 172.751498 264.31013 
L 175.825878 264.31013 
L 178.900258 264.31013 
L 181.974638 264.31013 
L 185.049019 264.31013 
L 188.123399 264.31013 
L 191.197779 264.31013 
L 194.272159 264.221883 
L 197.346539 264.31013 
L 200.420919 264.31013 
L 203.4953 264.31013 
L 206.56968 264.31013 
L 209.64406 264.31013 
L 212.71844 264.31013 
L 215.79282 264.31013 
L 218.8672 264.31013 
L 221.941581 264.31013 
L 225.015961 264.31013 
L 228.090341 264.31013 
L 231.164721 264.31013 
L 234.239101 264.31013 
L 237.313481 264.31013 
L 240.387862 264.31013 
L 243.462242 264.31013 
L 246.536622 264.31013 
L 249.611002 264.31013 
L 252.685382 264.31013 
L 255.759762 264.31013 
L 258.834143 264.221883 
L 261.908523 264.31013 
L 264.982903 264.31013 
L 268.057283 264.31013 
L 271.131663 264.31013 
L 274.206043 264.31013 
L 277.280424 264.31013 
L 280.354804 264.31013 
L 283.429184 264.31013 
L 286.503564 264.31013 
L 289.577944 264.31013 
L 292.652324 264.31013 
L 295.726705 264.31013 
L 298.801085 264.31013 
L 301.875465 264.31013 
L 304.949845 264.31013 
L 308.024225 264.31013 
L 311.098605 264.31013 
L 314.172986 264.31013 
L 317.247366 264.31013 
L 320.321746 264.31013 
L 323.396126 264.31013 
L 326.470506 264.31013 
L 329.544886 264.221883 
L 332.619267 264.31013 
L 335.693647 264.31013 
L 338.768027 264.31013 
L 341.842407 264.31013 
L 344.916787 264.31013 
L 347.991167 264.31013 
L 351.065548 264.31013 
L 354.139928 264.31013 
L 357.214308 264.31013 
L 360.288688 264.31013 
L 363.363068 264.31013 
" style="fill:none;stroke:#008000;stroke-linecap:square;stroke-width:1.5;"/>
   </g>
   <g id="patch_6">
    <path d="M 43.78125 267.84 
L 43.78125 190.182857 
" style="fill:none;stroke:#000000;stroke-linecap:square;stroke-linejoin:miter;stroke-width:0.8;"/>
   </g>
   <g id="patch_7">
    <path d="M 43.78125 267.84 
L 378.58125 267.84 
" style="fill:none;stroke:#000000;stroke-linecap:square;stroke-linejoin:miter;stroke-width:0.8;"/>
   </g>
   <g id="text_23">
    <!-- Trial End Replays -->
    <g transform="translate(160.287188 184.182857)scale(0.12 -0.12)">
     <defs>
      <path d="M 628 4666 
L 3578 4666 
L 3578 4134 
L 1259 4134 
L 1259 2753 
L 3481 2753 
L 3481 2222 
L 1259 2222 
L 1259 531 
L 3634 531 
L 3634 0 
L 628 0 
L 628 4666 
z
" id="DejaVuSans-45" transform="scale(0.015625)"/>
      <path d="M 3513 2113 
L 3513 0 
L 2938 0 
L 2938 2094 
Q 2938 2591 2744 2837 
Q 2550 3084 2163 3084 
Q 1697 3084 1428 2787 
Q 1159 2491 1159 1978 
L 1159 0 
L 581 0 
L 581 3500 
L 1159 3500 
L 1159 2956 
Q 1366 3272 1645 3428 
Q 1925 3584 2291 3584 
Q 2894 3584 3203 3211 
Q 3513 2838 3513 2113 
z
" id="DejaVuSans-6e" transform="scale(0.015625)"/>
      <path d="M 2906 2969 
L 2906 4863 
L 3481 4863 
L 3481 0 
L 2906 0 
L 2906 525 
Q 2725 213 2448 61 
Q 2172 -91 1784 -91 
Q 1150 -91 751 415 
Q 353 922 353 1747 
Q 353 2572 751 3078 
Q 1150 3584 1784 3584 
Q 2172 3584 2448 3432 
Q 2725 3281 2906 2969 
z
M 947 1747 
Q 947 1113 1208 752 
Q 1469 391 1925 391 
Q 2381 391 2643 752 
Q 2906 1113 2906 1747 
Q 2906 2381 2643 2742 
Q 2381 3103 1925 3103 
Q 1469 3103 1208 2742 
Q 947 2381 947 1747 
z
" id="DejaVuSans-64" transform="scale(0.015625)"/>
     </defs>
     <use xlink:href="#DejaVuSans-54"/>
     <use x="46.333984" xlink:href="#DejaVuSans-72"/>
     <use x="87.447266" xlink:href="#DejaVuSans-69"/>
     <use x="115.230469" xlink:href="#DejaVuSans-61"/>
     <use x="176.509766" xlink:href="#DejaVuSans-6c"/>
     <use x="204.292969" xlink:href="#DejaVuSans-20"/>
     <use x="236.080078" xlink:href="#DejaVuSans-45"/>
     <use x="299.263672" xlink:href="#DejaVuSans-6e"/>
     <use x="362.642578" xlink:href="#DejaVuSans-64"/>
     <use x="426.119141" xlink:href="#DejaVuSans-20"/>
     <use x="457.90625" xlink:href="#DejaVuSans-52"/>
     <use x="522.888672" xlink:href="#DejaVuSans-65"/>
     <use x="584.412109" xlink:href="#DejaVuSans-70"/>
     <use x="647.888672" xlink:href="#DejaVuSans-6c"/>
     <use x="675.671875" xlink:href="#DejaVuSans-61"/>
     <use x="736.951172" xlink:href="#DejaVuSans-79"/>
     <use x="796.130859" xlink:href="#DejaVuSans-73"/>
    </g>
   </g>
   <g id="legend_1">
    <g id="patch_8">
     <path d="M 57.855 333.882321 
L 364.5075 333.882321 
Q 366.9075 333.882321 366.9075 331.482321 
L 366.9075 315.068571 
Q 366.9075 312.668571 364.5075 312.668571 
L 57.855 312.668571 
Q 55.455 312.668571 55.455 315.068571 
L 55.455 331.482321 
Q 55.455 333.882321 57.855 333.882321 
z
" style="fill:none;opacity:0;"/>
    </g>
    <g id="line2d_24">
     <path d="M 60.255 322.386696 
L 84.255 322.386696 
" style="fill:none;stroke:#0000ff;stroke-linecap:square;stroke-width:1.5;"/>
    </g>
    <g id="line2d_25"/>
    <g id="text_24">
     <!-- forward -->
     <g transform="translate(93.855 326.586696)scale(0.12 -0.12)">
      <defs>
       <path d="M 2375 4863 
L 2375 4384 
L 1825 4384 
Q 1516 4384 1395 4259 
Q 1275 4134 1275 3809 
L 1275 3500 
L 2222 3500 
L 2222 3053 
L 1275 3053 
L 1275 0 
L 697 0 
L 697 3053 
L 147 3053 
L 147 3500 
L 697 3500 
L 697 3744 
Q 697 4328 969 4595 
Q 1241 4863 1831 4863 
L 2375 4863 
z
" id="DejaVuSans-66" transform="scale(0.015625)"/>
       <path d="M 1959 3097 
Q 1497 3097 1228 2736 
Q 959 2375 959 1747 
Q 959 1119 1226 758 
Q 1494 397 1959 397 
Q 2419 397 2687 759 
Q 2956 1122 2956 1747 
Q 2956 2369 2687 2733 
Q 2419 3097 1959 3097 
z
M 1959 3584 
Q 2709 3584 3137 3096 
Q 3566 2609 3566 1747 
Q 3566 888 3137 398 
Q 2709 -91 1959 -91 
Q 1206 -91 779 398 
Q 353 888 353 1747 
Q 353 2609 779 3096 
Q 1206 3584 1959 3584 
z
" id="DejaVuSans-6f" transform="scale(0.015625)"/>
       <path d="M 269 3500 
L 844 3500 
L 1563 769 
L 2278 3500 
L 2956 3500 
L 3675 769 
L 4391 3500 
L 4966 3500 
L 4050 0 
L 3372 0 
L 2619 2869 
L 1863 0 
L 1184 0 
L 269 3500 
z
" id="DejaVuSans-77" transform="scale(0.015625)"/>
      </defs>
      <use xlink:href="#DejaVuSans-66"/>
      <use x="35.205078" xlink:href="#DejaVuSans-6f"/>
      <use x="96.386719" xlink:href="#DejaVuSans-72"/>
      <use x="137.5" xlink:href="#DejaVuSans-77"/>
      <use x="219.287109" xlink:href="#DejaVuSans-61"/>
      <use x="280.566406" xlink:href="#DejaVuSans-72"/>
      <use x="319.929688" xlink:href="#DejaVuSans-64"/>
     </g>
    </g>
    <g id="line2d_26">
     <path d="M 163.86375 322.386696 
L 187.86375 322.386696 
" style="fill:none;stroke:#ff0000;stroke-linecap:square;stroke-width:1.5;"/>
    </g>
    <g id="line2d_27"/>
    <g id="text_25">
     <!-- reverse -->
     <g transform="translate(197.46375 326.586696)scale(0.12 -0.12)">
      <defs>
       <path d="M 191 3500 
L 800 3500 
L 1894 563 
L 2988 3500 
L 3597 3500 
L 2284 0 
L 1503 0 
L 191 3500 
z
" id="DejaVuSans-76" transform="scale(0.015625)"/>
      </defs>
      <use xlink:href="#DejaVuSans-72"/>
      <use x="38.863281" xlink:href="#DejaVuSans-65"/>
      <use x="100.386719" xlink:href="#DejaVuSans-76"/>
      <use x="159.566406" xlink:href="#DejaVuSans-65"/>
      <use x="221.089844" xlink:href="#DejaVuSans-72"/>
      <use x="262.203125" xlink:href="#DejaVuSans-73"/>
      <use x="314.302734" xlink:href="#DejaVuSans-65"/>
     </g>
    </g>
    <g id="line2d_28">
     <path d="M 266.565 322.386696 
L 290.565 322.386696 
" style="fill:none;stroke:#008000;stroke-linecap:square;stroke-width:1.5;"/>
    </g>
    <g id="line2d_29"/>
    <g id="text_26">
     <!-- unordered -->
     <g transform="translate(300.165 326.586696)scale(0.12 -0.12)">
      <defs>
       <path d="M 544 1381 
L 544 3500 
L 1119 3500 
L 1119 1403 
Q 1119 906 1312 657 
Q 1506 409 1894 409 
Q 2359 409 2629 706 
Q 2900 1003 2900 1516 
L 2900 3500 
L 3475 3500 
L 3475 0 
L 2900 0 
L 2900 538 
Q 2691 219 2414 64 
Q 2138 -91 1772 -91 
Q 1169 -91 856 284 
Q 544 659 544 1381 
z
M 1991 3584 
L 1991 3584 
z
" id="DejaVuSans-75" transform="scale(0.015625)"/>
      </defs>
      <use xlink:href="#DejaVuSans-75"/>
      <use x="63.378906" xlink:href="#DejaVuSans-6e"/>
      <use x="126.757812" xlink:href="#DejaVuSans-6f"/>
      <use x="187.939453" xlink:href="#DejaVuSans-72"/>
      <use x="227.302734" xlink:href="#DejaVuSans-64"/>
      <use x="290.779297" xlink:href="#DejaVuSans-65"/>
      <use x="352.302734" xlink:href="#DejaVuSans-72"/>
      <use x="391.166016" xlink:href="#DejaVuSans-65"/>
      <use x="452.689453" xlink:href="#DejaVuSans-64"/>
     </g>
    </g>
   </g>
  </g>
  <g id="text_27">
   <!-- Linear Track, Reverse Mode -->
   <g transform="translate(102.732422 18.597656)scale(0.15 -0.15)">
    <defs>
     <path d="M 628 4666 
L 1259 4666 
L 1259 531 
L 3531 531 
L 3531 0 
L 628 0 
L 628 4666 
z
" id="DejaVuSans-4c" transform="scale(0.015625)"/>
     <path d="M 3122 3366 
L 3122 2828 
Q 2878 2963 2633 3030 
Q 2388 3097 2138 3097 
Q 1578 3097 1268 2742 
Q 959 2388 959 1747 
Q 959 1106 1268 751 
Q 1578 397 2138 397 
Q 2388 397 2633 464 
Q 2878 531 3122 666 
L 3122 134 
Q 2881 22 2623 -34 
Q 2366 -91 2075 -91 
Q 1284 -91 818 406 
Q 353 903 353 1747 
Q 353 2603 823 3093 
Q 1294 3584 2113 3584 
Q 2378 3584 2631 3529 
Q 2884 3475 3122 3366 
z
" id="DejaVuSans-63" transform="scale(0.015625)"/>
     <path d="M 581 4863 
L 1159 4863 
L 1159 1991 
L 2875 3500 
L 3609 3500 
L 1753 1863 
L 3688 0 
L 2938 0 
L 1159 1709 
L 1159 0 
L 581 0 
L 581 4863 
z
" id="DejaVuSans-6b" transform="scale(0.015625)"/>
     <path d="M 750 794 
L 1409 794 
L 1409 256 
L 897 -744 
L 494 -744 
L 750 256 
L 750 794 
z
" id="DejaVuSans-2c" transform="scale(0.015625)"/>
     <path d="M 628 4666 
L 1569 4666 
L 2759 1491 
L 3956 4666 
L 4897 4666 
L 4897 0 
L 4281 0 
L 4281 4097 
L 3078 897 
L 2444 897 
L 1241 4097 
L 1241 0 
L 628 0 
L 628 4666 
z
" id="DejaVuSans-4d" transform="scale(0.015625)"/>
    </defs>
    <use xlink:href="#DejaVuSans-4c"/>
    <use x="55.712891" xlink:href="#DejaVuSans-69"/>
    <use x="83.496094" xlink:href="#DejaVuSans-6e"/>
    <use x="146.875" xlink:href="#DejaVuSans-65"/>
    <use x="208.398438" xlink:href="#DejaVuSans-61"/>
    <use x="269.677734" xlink:href="#DejaVuSans-72"/>
    <use x="310.791016" xlink:href="#DejaVuSans-20"/>
    <use x="342.578125" xlink:href="#DejaVuSans-54"/>
    <use x="388.912109" xlink:href="#DejaVuSans-72"/>
    <use x="430.025391" xlink:href="#DejaVuSans-61"/>
    <use x="491.304688" xlink:href="#DejaVuSans-63"/>
    <use x="546.285156" xlink:href="#DejaVuSans-6b"/>
    <use x="604.195312" xlink:href="#DejaVuSans-2c"/>
    <use x="635.982422" xlink:href="#DejaVuSans-20"/>
    <use x="667.769531" xlink:href="#DejaVuSans-52"/>
    <use x="732.751953" xlink:href="#DejaVuSans-65"/>
    <use x="794.275391" xlink:href="#DejaVuSans-76"/>
    <use x="853.455078" xlink:href="#DejaVuSans-65"/>
    <use x="914.978516" xlink:href="#DejaVuSans-72"/>
    <use x="956.091797" xlink:href="#DejaVuSans-73"/>
    <use x="1008.191406" xlink:href="#DejaVuSans-65"/>
    <use x="1069.714844" xlink:href="#DejaVuSans-20"/>
    <use x="1101.501953" xlink:href="#DejaVuSans-4d"/>
    <use x="1187.78125" xlink:href="#DejaVuSans-6f"/>
    <use x="1248.962891" xlink:href="#DejaVuSans-64"/>
    <use x="1312.439453" xlink:href="#DejaVuSans-65"/>
   </g>
  </g>
 </g>
 <defs>
  <clipPath id="p13b13037be">
   <rect height="77.657143" width="334.8" x="43.78125" y="50.4"/>
  </clipPath>
  <clipPath id="p218299dd44">
   <rect height="77.657143" width="334.8" x="43.78125" y="190.182857"/>
  </clipPath>
 </defs>
</svg>
