<?xml version="1.0" encoding="utf-8" standalone="no"?>
<!DOCTYPE svg PUBLIC "-//W3C//DTD SVG 1.1//EN"
  "http://www.w3.org/Graphics/SVG/1.1/DTD/svg11.dtd">
<svg height="341.082321pt" version="1.1" viewBox="0 0 376.240625 341.082321" width="376.240625pt" xmlns="http://www.w3.org/2000/svg" xmlns:xlink="http://www.w3.org/1999/xlink">
 <metadata>
  <rdf:RDF xmlns:cc="http://creativecommons.org/ns#" xmlns:dc="http://purl.org/dc/elements/1.1/" xmlns:rdf="http://www.w3.org/1999/02/22-rdf-syntax-ns#">
   <cc:Work>
    <dc:type rdf:resource="http://purl.org/dc/dcmitype/StillImage"/>
    <dc:date>2022-07-21T20:15:04.212963</dc:date>
    <dc:format>image/svg+xml</dc:format>
    <dc:creator>
     <cc:Agent>
      <dc:title>Matplotlib v3.4.3, https://matplotlib.org/</dc:title>
     </cc:Agent>
    </dc:creator>
   </cc:Work>
  </rdf:RDF>
 </metadata>
 <defs>
  <style type="text/css">*{stroke-linecap:butt;stroke-linejoin:round;}</style>
 </defs>
 <g id="figure_1">
  <g id="patch_1">
   <path d="M 0 341.082321 
L 376.240625 341.082321 
L 376.240625 0 
L 0 0 
z
" style="fill:none;"/>
  </g>
  <g id="axes_1">
   <g id="patch_2">
    <path d="M 34.240625 128.057143 
L 369.040625 128.057143 
L 369.040625 50.4 
L 34.240625 50.4 
z
" style="fill:none;"/>
   </g>
   <g id="matplotlib.axis_1">
    <g id="xtick_1">
     <g id="line2d_1">
      <defs>
       <path d="M 0 0 
L 0 3.5 
" id="ma9c25cd436" style="stroke:#000000;stroke-width:0.8;"/>
      </defs>
      <g>
       <use style="stroke:#000000;stroke-width:0.8;" x="49.458807" xlink:href="#ma9c25cd436" y="128.057143"/>
      </g>
     </g>
     <g id="text_1">
      <!-- 0 -->
      <g transform="translate(46.277557 142.65558)scale(0.1 -0.1)">
       <defs>
        <path d="M 2034 4250 
Q 1547 4250 1301 3770 
Q 1056 3291 1056 2328 
Q 1056 1369 1301 889 
Q 1547 409 2034 409 
Q 2525 409 2770 889 
Q 3016 1369 3016 2328 
Q 3016 3291 2770 3770 
Q 2525 4250 2034 4250 
z
M 2034 4750 
Q 2819 4750 3233 4129 
Q 3647 3509 3647 2328 
Q 3647 1150 3233 529 
Q 2819 -91 2034 -91 
Q 1250 -91 836 529 
Q 422 1150 422 2328 
Q 422 3509 836 4129 
Q 1250 4750 2034 4750 
z
" id="DejaVuSans-30" transform="scale(0.015625)"/>
       </defs>
       <use xlink:href="#DejaVuSans-30"/>
      </g>
     </g>
    </g>
    <g id="xtick_2">
     <g id="line2d_2">
      <g>
       <use style="stroke:#000000;stroke-width:0.8;" x="110.94641" xlink:href="#ma9c25cd436" y="128.057143"/>
      </g>
     </g>
     <g id="text_2">
      <!-- 20 -->
      <g transform="translate(104.58391 142.65558)scale(0.1 -0.1)">
       <defs>
        <path d="M 1228 531 
L 3431 531 
L 3431 0 
L 469 0 
L 469 531 
Q 828 903 1448 1529 
Q 2069 2156 2228 2338 
Q 2531 2678 2651 2914 
Q 2772 3150 2772 3378 
Q 2772 3750 2511 3984 
Q 2250 4219 1831 4219 
Q 1534 4219 1204 4116 
Q 875 4013 500 3803 
L 500 4441 
Q 881 4594 1212 4672 
Q 1544 4750 1819 4750 
Q 2544 4750 2975 4387 
Q 3406 4025 3406 3419 
Q 3406 3131 3298 2873 
Q 3191 2616 2906 2266 
Q 2828 2175 2409 1742 
Q 1991 1309 1228 531 
z
" id="DejaVuSans-32" transform="scale(0.015625)"/>
       </defs>
       <use xlink:href="#DejaVuSans-32"/>
       <use x="63.623047" xlink:href="#DejaVuSans-30"/>
      </g>
     </g>
    </g>
    <g id="xtick_3">
     <g id="line2d_3">
      <g>
       <use style="stroke:#000000;stroke-width:0.8;" x="172.434013" xlink:href="#ma9c25cd436" y="128.057143"/>
      </g>
     </g>
     <g id="text_3">
      <!-- 40 -->
      <g transform="translate(166.071513 142.65558)scale(0.1 -0.1)">
       <defs>
        <path d="M 2419 4116 
L 825 1625 
L 2419 1625 
L 2419 4116 
z
M 2253 4666 
L 3047 4666 
L 3047 1625 
L 3713 1625 
L 3713 1100 
L 3047 1100 
L 3047 0 
L 2419 0 
L 2419 1100 
L 313 1100 
L 313 1709 
L 2253 4666 
z
" id="DejaVuSans-34" transform="scale(0.015625)"/>
       </defs>
       <use xlink:href="#DejaVuSans-34"/>
       <use x="63.623047" xlink:href="#DejaVuSans-30"/>
      </g>
     </g>
    </g>
    <g id="xtick_4">
     <g id="line2d_4">
      <g>
       <use style="stroke:#000000;stroke-width:0.8;" x="233.921617" xlink:href="#ma9c25cd436" y="128.057143"/>
      </g>
     </g>
     <g id="text_4">
      <!-- 60 -->
      <g transform="translate(227.559117 142.65558)scale(0.1 -0.1)">
       <defs>
        <path d="M 2113 2584 
Q 1688 2584 1439 2293 
Q 1191 2003 1191 1497 
Q 1191 994 1439 701 
Q 1688 409 2113 409 
Q 2538 409 2786 701 
Q 3034 994 3034 1497 
Q 3034 2003 2786 2293 
Q 2538 2584 2113 2584 
z
M 3366 4563 
L 3366 3988 
Q 3128 4100 2886 4159 
Q 2644 4219 2406 4219 
Q 1781 4219 1451 3797 
Q 1122 3375 1075 2522 
Q 1259 2794 1537 2939 
Q 1816 3084 2150 3084 
Q 2853 3084 3261 2657 
Q 3669 2231 3669 1497 
Q 3669 778 3244 343 
Q 2819 -91 2113 -91 
Q 1303 -91 875 529 
Q 447 1150 447 2328 
Q 447 3434 972 4092 
Q 1497 4750 2381 4750 
Q 2619 4750 2861 4703 
Q 3103 4656 3366 4563 
z
" id="DejaVuSans-36" transform="scale(0.015625)"/>
       </defs>
       <use xlink:href="#DejaVuSans-36"/>
       <use x="63.623047" xlink:href="#DejaVuSans-30"/>
      </g>
     </g>
    </g>
    <g id="xtick_5">
     <g id="line2d_5">
      <g>
       <use style="stroke:#000000;stroke-width:0.8;" x="295.40922" xlink:href="#ma9c25cd436" y="128.057143"/>
      </g>
     </g>
     <g id="text_5">
      <!-- 80 -->
      <g transform="translate(289.04672 142.65558)scale(0.1 -0.1)">
       <defs>
        <path d="M 2034 2216 
Q 1584 2216 1326 1975 
Q 1069 1734 1069 1313 
Q 1069 891 1326 650 
Q 1584 409 2034 409 
Q 2484 409 2743 651 
Q 3003 894 3003 1313 
Q 3003 1734 2745 1975 
Q 2488 2216 2034 2216 
z
M 1403 2484 
Q 997 2584 770 2862 
Q 544 3141 544 3541 
Q 544 4100 942 4425 
Q 1341 4750 2034 4750 
Q 2731 4750 3128 4425 
Q 3525 4100 3525 3541 
Q 3525 3141 3298 2862 
Q 3072 2584 2669 2484 
Q 3125 2378 3379 2068 
Q 3634 1759 3634 1313 
Q 3634 634 3220 271 
Q 2806 -91 2034 -91 
Q 1263 -91 848 271 
Q 434 634 434 1313 
Q 434 1759 690 2068 
Q 947 2378 1403 2484 
z
M 1172 3481 
Q 1172 3119 1398 2916 
Q 1625 2713 2034 2713 
Q 2441 2713 2670 2916 
Q 2900 3119 2900 3481 
Q 2900 3844 2670 4047 
Q 2441 4250 2034 4250 
Q 1625 4250 1398 4047 
Q 1172 3844 1172 3481 
z
" id="DejaVuSans-38" transform="scale(0.015625)"/>
       </defs>
       <use xlink:href="#DejaVuSans-38"/>
       <use x="63.623047" xlink:href="#DejaVuSans-30"/>
      </g>
     </g>
    </g>
    <g id="xtick_6">
     <g id="line2d_6">
      <g>
       <use style="stroke:#000000;stroke-width:0.8;" x="356.896823" xlink:href="#ma9c25cd436" y="128.057143"/>
      </g>
     </g>
     <g id="text_6">
      <!-- 100 -->
      <g transform="translate(347.353073 142.65558)scale(0.1 -0.1)">
       <defs>
        <path d="M 794 531 
L 1825 531 
L 1825 4091 
L 703 3866 
L 703 4441 
L 1819 4666 
L 2450 4666 
L 2450 531 
L 3481 531 
L 3481 0 
L 794 0 
L 794 531 
z
" id="DejaVuSans-31" transform="scale(0.015625)"/>
       </defs>
       <use xlink:href="#DejaVuSans-31"/>
       <use x="63.623047" xlink:href="#DejaVuSans-30"/>
       <use x="127.246094" xlink:href="#DejaVuSans-30"/>
      </g>
     </g>
    </g>
    <g id="text_7">
     <!-- Trial -->
     <g transform="translate(191.426563 156.333705)scale(0.1 -0.1)">
      <defs>
       <path d="M -19 4666 
L 3928 4666 
L 3928 4134 
L 2272 4134 
L 2272 0 
L 1638 0 
L 1638 4134 
L -19 4134 
L -19 4666 
z
" id="DejaVuSans-54" transform="scale(0.015625)"/>
       <path d="M 2631 2963 
Q 2534 3019 2420 3045 
Q 2306 3072 2169 3072 
Q 1681 3072 1420 2755 
Q 1159 2438 1159 1844 
L 1159 0 
L 581 0 
L 581 3500 
L 1159 3500 
L 1159 2956 
Q 1341 3275 1631 3429 
Q 1922 3584 2338 3584 
Q 2397 3584 2469 3576 
Q 2541 3569 2628 3553 
L 2631 2963 
z
" id="DejaVuSans-72" transform="scale(0.015625)"/>
       <path d="M 603 3500 
L 1178 3500 
L 1178 0 
L 603 0 
L 603 3500 
z
M 603 4863 
L 1178 4863 
L 1178 4134 
L 603 4134 
L 603 4863 
z
" id="DejaVuSans-69" transform="scale(0.015625)"/>
       <path d="M 2194 1759 
Q 1497 1759 1228 1600 
Q 959 1441 959 1056 
Q 959 750 1161 570 
Q 1363 391 1709 391 
Q 2188 391 2477 730 
Q 2766 1069 2766 1631 
L 2766 1759 
L 2194 1759 
z
M 3341 1997 
L 3341 0 
L 2766 0 
L 2766 531 
Q 2569 213 2275 61 
Q 1981 -91 1556 -91 
Q 1019 -91 701 211 
Q 384 513 384 1019 
Q 384 1609 779 1909 
Q 1175 2209 1959 2209 
L 2766 2209 
L 2766 2266 
Q 2766 2663 2505 2880 
Q 2244 3097 1772 3097 
Q 1472 3097 1187 3025 
Q 903 2953 641 2809 
L 641 3341 
Q 956 3463 1253 3523 
Q 1550 3584 1831 3584 
Q 2591 3584 2966 3190 
Q 3341 2797 3341 1997 
z
" id="DejaVuSans-61" transform="scale(0.015625)"/>
       <path d="M 603 4863 
L 1178 4863 
L 1178 0 
L 603 0 
L 603 4863 
z
" id="DejaVuSans-6c" transform="scale(0.015625)"/>
      </defs>
      <use xlink:href="#DejaVuSans-54"/>
      <use x="46.333984" xlink:href="#DejaVuSans-72"/>
      <use x="87.447266" xlink:href="#DejaVuSans-69"/>
      <use x="115.230469" xlink:href="#DejaVuSans-61"/>
      <use x="176.509766" xlink:href="#DejaVuSans-6c"/>
     </g>
    </g>
   </g>
   <g id="matplotlib.axis_2">
    <g id="ytick_1">
     <g id="line2d_7">
      <defs>
       <path d="M 0 0 
L -3.5 0 
" id="mbc9b4d1750" style="stroke:#000000;stroke-width:0.8;"/>
      </defs>
      <g>
       <use style="stroke:#000000;stroke-width:0.8;" x="34.240625" xlink:href="#mbc9b4d1750" y="124.527273"/>
      </g>
     </g>
     <g id="text_8">
      <!-- 0 -->
      <g transform="translate(20.878125 128.326491)scale(0.1 -0.1)">
       <use xlink:href="#DejaVuSans-30"/>
      </g>
     </g>
    </g>
    <g id="ytick_2">
     <g id="line2d_8">
      <g>
       <use style="stroke:#000000;stroke-width:0.8;" x="34.240625" xlink:href="#mbc9b4d1750" y="80.403896"/>
      </g>
     </g>
     <g id="text_9">
      <!-- 5 -->
      <g transform="translate(20.878125 84.203115)scale(0.1 -0.1)">
       <defs>
        <path d="M 691 4666 
L 3169 4666 
L 3169 4134 
L 1269 4134 
L 1269 2991 
Q 1406 3038 1543 3061 
Q 1681 3084 1819 3084 
Q 2600 3084 3056 2656 
Q 3513 2228 3513 1497 
Q 3513 744 3044 326 
Q 2575 -91 1722 -91 
Q 1428 -91 1123 -41 
Q 819 9 494 109 
L 494 744 
Q 775 591 1075 516 
Q 1375 441 1709 441 
Q 2250 441 2565 725 
Q 2881 1009 2881 1497 
Q 2881 1984 2565 2268 
Q 2250 2553 1709 2553 
Q 1456 2553 1204 2497 
Q 953 2441 691 2322 
L 691 4666 
z
" id="DejaVuSans-35" transform="scale(0.015625)"/>
       </defs>
       <use xlink:href="#DejaVuSans-35"/>
      </g>
     </g>
    </g>
    <g id="text_10">
     <!-- Pairs [#] -->
     <g transform="translate(14.798437 110.812165)rotate(-90)scale(0.1 -0.1)">
      <defs>
       <path d="M 1259 4147 
L 1259 2394 
L 2053 2394 
Q 2494 2394 2734 2622 
Q 2975 2850 2975 3272 
Q 2975 3691 2734 3919 
Q 2494 4147 2053 4147 
L 1259 4147 
z
M 628 4666 
L 2053 4666 
Q 2838 4666 3239 4311 
Q 3641 3956 3641 3272 
Q 3641 2581 3239 2228 
Q 2838 1875 2053 1875 
L 1259 1875 
L 1259 0 
L 628 0 
L 628 4666 
z
" id="DejaVuSans-50" transform="scale(0.015625)"/>
       <path d="M 2834 3397 
L 2834 2853 
Q 2591 2978 2328 3040 
Q 2066 3103 1784 3103 
Q 1356 3103 1142 2972 
Q 928 2841 928 2578 
Q 928 2378 1081 2264 
Q 1234 2150 1697 2047 
L 1894 2003 
Q 2506 1872 2764 1633 
Q 3022 1394 3022 966 
Q 3022 478 2636 193 
Q 2250 -91 1575 -91 
Q 1294 -91 989 -36 
Q 684 19 347 128 
L 347 722 
Q 666 556 975 473 
Q 1284 391 1588 391 
Q 1994 391 2212 530 
Q 2431 669 2431 922 
Q 2431 1156 2273 1281 
Q 2116 1406 1581 1522 
L 1381 1569 
Q 847 1681 609 1914 
Q 372 2147 372 2553 
Q 372 3047 722 3315 
Q 1072 3584 1716 3584 
Q 2034 3584 2315 3537 
Q 2597 3491 2834 3397 
z
" id="DejaVuSans-73" transform="scale(0.015625)"/>
       <path id="DejaVuSans-20" transform="scale(0.015625)"/>
       <path d="M 550 4863 
L 1875 4863 
L 1875 4416 
L 1125 4416 
L 1125 -397 
L 1875 -397 
L 1875 -844 
L 550 -844 
L 550 4863 
z
" id="DejaVuSans-5b" transform="scale(0.015625)"/>
       <path d="M 3272 2816 
L 2363 2816 
L 2100 1772 
L 3016 1772 
L 3272 2816 
z
M 2803 4594 
L 2478 3297 
L 3391 3297 
L 3719 4594 
L 4219 4594 
L 3897 3297 
L 4872 3297 
L 4872 2816 
L 3775 2816 
L 3519 1772 
L 4513 1772 
L 4513 1294 
L 3397 1294 
L 3072 0 
L 2572 0 
L 2894 1294 
L 1978 1294 
L 1656 0 
L 1153 0 
L 1478 1294 
L 494 1294 
L 494 1772 
L 1594 1772 
L 1856 2816 
L 850 2816 
L 850 3297 
L 1978 3297 
L 2297 4594 
L 2803 4594 
z
" id="DejaVuSans-23" transform="scale(0.015625)"/>
       <path d="M 1947 4863 
L 1947 -844 
L 622 -844 
L 622 -397 
L 1369 -397 
L 1369 4416 
L 622 4416 
L 622 4863 
L 1947 4863 
z
" id="DejaVuSans-5d" transform="scale(0.015625)"/>
      </defs>
      <use xlink:href="#DejaVuSans-50"/>
      <use x="55.802734" xlink:href="#DejaVuSans-61"/>
      <use x="117.082031" xlink:href="#DejaVuSans-69"/>
      <use x="144.865234" xlink:href="#DejaVuSans-72"/>
      <use x="185.978516" xlink:href="#DejaVuSans-73"/>
      <use x="238.078125" xlink:href="#DejaVuSans-20"/>
      <use x="269.865234" xlink:href="#DejaVuSans-5b"/>
      <use x="308.878906" xlink:href="#DejaVuSans-23"/>
      <use x="392.667969" xlink:href="#DejaVuSans-5d"/>
     </g>
    </g>
   </g>
   <g id="line2d_9">
    <path clip-path="url(#pd7979734b7)" d="M 49.458807 124.527273 
L 52.533187 73.608896 
L 55.607567 77.31526 
L 58.681947 77.31526 
L 61.756327 73.255909 
L 64.830708 71.843961 
L 67.905088 69.020065 
L 70.979468 66.902143 
L 74.053848 66.549156 
L 77.128228 65.490195 
L 80.202608 63.72526 
L 83.276989 62.136818 
L 86.351369 61.342597 
L 89.425749 60.107143 
L 92.500129 60.283636 
L 95.574509 59.136429 
L 98.648889 57.547987 
L 101.72327 58.342208 
L 104.79765 56.93026 
L 107.87203 57.371494 
L 110.94641 57.547987 
L 114.02079 57.45974 
L 117.09517 56.136039 
L 120.169551 56.047792 
L 123.243931 55.518312 
L 126.318311 55.959545 
L 129.392691 55.341818 
L 132.467071 55.253571 
L 135.541451 55.783052 
L 138.615832 56.136039 
L 141.690212 54.371104 
L 144.764592 54.900584 
L 147.838972 55.077078 
L 150.913352 54.724091 
L 153.987732 54.900584 
L 157.062113 54.900584 
L 160.136493 54.812338 
L 163.210873 54.724091 
L 166.285253 54.988831 
L 169.359633 54.900584 
L 172.434013 54.988831 
L 175.508394 54.724091 
L 178.582774 54.371104 
L 181.657154 54.547597 
L 184.731534 54.282857 
L 187.805914 54.371104 
L 190.880294 54.635844 
L 193.954675 54.371104 
L 197.029055 54.900584 
L 200.103435 54.812338 
L 203.177815 54.900584 
L 206.252195 54.459351 
L 209.326575 54.547597 
L 212.400956 54.19461 
L 215.475336 54.900584 
L 218.549716 54.19461 
L 221.624096 54.19461 
L 224.698476 54.635844 
L 227.772856 54.812338 
L 230.847237 54.459351 
L 233.921617 54.19461 
L 236.995997 54.19461 
L 240.070377 54.724091 
L 243.144757 54.19461 
L 246.219137 54.282857 
L 249.293518 54.282857 
L 252.367898 54.282857 
L 255.442278 54.106364 
L 258.516658 54.106364 
L 261.591038 54.371104 
L 264.665418 54.282857 
L 267.739799 54.106364 
L 270.814179 54.106364 
L 273.888559 53.92987 
L 276.962939 54.106364 
L 280.037319 54.106364 
L 283.111699 54.018117 
L 286.18608 54.547597 
L 289.26046 54.635844 
L 292.33484 54.106364 
L 295.40922 54.19461 
L 298.4836 54.106364 
L 301.55798 54.282857 
L 304.632361 54.282857 
L 307.706741 54.19461 
L 310.781121 54.19461 
L 313.855501 54.19461 
L 316.929881 54.19461 
L 320.004261 54.459351 
L 323.078642 54.459351 
L 326.153022 54.106364 
L 329.227402 54.282857 
L 332.301782 54.282857 
L 335.376162 54.459351 
L 338.450542 54.106364 
L 341.524923 54.018117 
L 344.599303 54.371104 
L 347.673683 54.018117 
L 350.748063 54.282857 
L 353.822443 54.018117 
" style="fill:none;stroke:#0000ff;stroke-linecap:square;stroke-width:1.5;"/>
   </g>
   <g id="line2d_10">
    <path clip-path="url(#pd7979734b7)" d="M 49.458807 124.527273 
L 52.533187 110.584286 
L 55.607567 107.672143 
L 58.681947 108.02513 
L 61.756327 109.613571 
L 64.830708 109.701818 
L 67.905088 111.29026 
L 70.979468 111.731494 
L 74.053848 112.349221 
L 77.128228 112.349221 
L 80.202608 113.319935 
L 83.276989 114.025909 
L 86.351369 114.025909 
L 89.425749 114.290649 
L 92.500129 114.025909 
L 95.574509 114.731883 
L 98.648889 115.08487 
L 101.72327 114.996623 
L 104.79765 115.526104 
L 107.87203 114.908377 
L 110.94641 114.908377 
L 114.02079 114.908377 
L 117.09517 115.526104 
L 120.169551 115.614351 
L 123.243931 115.967338 
L 126.318311 115.702597 
L 129.392691 115.879091 
L 132.467071 115.437857 
L 135.541451 115.437857 
L 138.615832 115.702597 
L 141.690212 115.790844 
L 144.764592 115.614351 
L 147.838972 115.526104 
L 150.913352 115.702597 
L 153.987732 115.614351 
L 157.062113 115.614351 
L 160.136493 115.702597 
L 163.210873 115.526104 
L 166.285253 115.437857 
L 169.359633 115.526104 
L 172.434013 115.790844 
L 175.508394 115.614351 
L 178.582774 115.702597 
L 181.657154 115.614351 
L 184.731534 115.702597 
L 187.805914 115.702597 
L 190.880294 115.702597 
L 193.954675 115.702597 
L 197.029055 115.614351 
L 200.103435 115.702597 
L 203.177815 115.526104 
L 206.252195 115.702597 
L 209.326575 115.702597 
L 212.400956 115.702597 
L 215.475336 115.34961 
L 218.549716 115.702597 
L 221.624096 115.702597 
L 224.698476 115.173117 
L 227.772856 115.34961 
L 230.847237 115.614351 
L 233.921617 115.702597 
L 236.995997 115.879091 
L 240.070377 115.526104 
L 243.144757 115.879091 
L 246.219137 115.614351 
L 249.293518 115.702597 
L 252.367898 115.702597 
L 255.442278 115.702597 
L 258.516658 115.702597 
L 261.591038 115.526104 
L 264.665418 115.702597 
L 267.739799 115.702597 
L 270.814179 115.702597 
L 273.888559 115.702597 
L 276.962939 115.702597 
L 280.037319 115.790844 
L 283.111699 115.702597 
L 286.18608 115.702597 
L 289.26046 115.526104 
L 292.33484 115.790844 
L 295.40922 115.702597 
L 298.4836 115.614351 
L 301.55798 115.790844 
L 304.632361 115.614351 
L 307.706741 115.790844 
L 310.781121 115.702597 
L 313.855501 115.526104 
L 316.929881 115.702597 
L 320.004261 115.702597 
L 323.078642 115.614351 
L 326.153022 115.702597 
L 329.227402 115.790844 
L 332.301782 115.702597 
L 335.376162 115.526104 
L 338.450542 115.702597 
L 341.524923 115.702597 
L 344.599303 115.614351 
L 347.673683 115.790844 
L 350.748063 115.614351 
L 353.822443 115.702597 
" style="fill:none;stroke:#ff0000;stroke-linecap:square;stroke-width:1.5;"/>
   </g>
   <g id="line2d_11">
    <path clip-path="url(#pd7979734b7)" d="M 49.458807 124.527273 
L 52.533187 109.966558 
L 55.607567 109.172338 
L 58.681947 108.819351 
L 61.756327 111.29026 
L 64.830708 112.613961 
L 67.905088 113.849416 
L 70.979468 115.526104 
L 74.053848 115.261364 
L 77.128228 116.320325 
L 80.202608 117.114545 
L 83.276989 117.997013 
L 86.351369 118.791234 
L 89.425749 119.761948 
L 92.500129 119.850195 
L 95.574509 120.291429 
L 98.648889 121.526883 
L 101.72327 120.820909 
L 104.79765 121.703377 
L 107.87203 121.87987 
L 110.94641 121.703377 
L 114.02079 121.791623 
L 117.09517 122.497597 
L 120.169551 122.497597 
L 123.243931 122.674091 
L 126.318311 122.497597 
L 129.392691 122.938831 
L 132.467071 123.468312 
L 135.541451 122.938831 
L 138.615832 122.321104 
L 141.690212 123.997792 
L 144.764592 123.644805 
L 147.838972 123.556558 
L 150.913352 123.733052 
L 153.987732 123.644805 
L 157.062113 123.644805 
L 160.136493 123.644805 
L 163.210873 123.909545 
L 166.285253 123.733052 
L 169.359633 123.733052 
L 172.434013 123.380065 
L 175.508394 123.821299 
L 178.582774 124.086039 
L 181.657154 123.997792 
L 184.731534 124.174286 
L 187.805914 124.086039 
L 190.880294 123.821299 
L 193.954675 124.086039 
L 197.029055 123.644805 
L 200.103435 123.644805 
L 203.177815 123.733052 
L 206.252195 123.997792 
L 209.326575 123.909545 
L 212.400956 124.262532 
L 215.475336 123.909545 
L 218.549716 124.262532 
L 221.624096 124.262532 
L 224.698476 124.350779 
L 227.772856 123.997792 
L 230.847237 124.086039 
L 233.921617 124.262532 
L 236.995997 124.086039 
L 240.070377 123.909545 
L 243.144757 124.086039 
L 246.219137 124.262532 
L 249.293518 124.174286 
L 252.367898 124.174286 
L 255.442278 124.350779 
L 258.516658 124.350779 
L 261.591038 124.262532 
L 264.665418 124.174286 
L 267.739799 124.350779 
L 270.814179 124.350779 
L 273.888559 124.527273 
L 276.962939 124.350779 
L 280.037319 124.262532 
L 283.111699 124.439026 
L 286.18608 123.909545 
L 289.26046 123.997792 
L 292.33484 124.262532 
L 295.40922 124.262532 
L 298.4836 124.439026 
L 301.55798 124.086039 
L 304.632361 124.262532 
L 307.706741 124.174286 
L 310.781121 124.262532 
L 313.855501 124.439026 
L 316.929881 124.262532 
L 320.004261 123.997792 
L 323.078642 124.086039 
L 326.153022 124.350779 
L 329.227402 124.086039 
L 332.301782 124.174286 
L 335.376162 124.174286 
L 338.450542 124.350779 
L 341.524923 124.439026 
L 344.599303 124.174286 
L 347.673683 124.350779 
L 350.748063 124.262532 
L 353.822443 124.439026 
" style="fill:none;stroke:#008000;stroke-linecap:square;stroke-width:1.5;"/>
   </g>
   <g id="patch_3">
    <path d="M 34.240625 128.057143 
L 34.240625 50.4 
" style="fill:none;stroke:#000000;stroke-linecap:square;stroke-linejoin:miter;stroke-width:0.8;"/>
   </g>
   <g id="patch_4">
    <path d="M 34.240625 128.057143 
L 369.040625 128.057143 
" style="fill:none;stroke:#000000;stroke-linecap:square;stroke-linejoin:miter;stroke-width:0.8;"/>
   </g>
   <g id="text_11">
    <!-- Trial Start Replays -->
    <g transform="translate(147.4925 44.4)scale(0.12 -0.12)">
     <defs>
      <path d="M 3425 4513 
L 3425 3897 
Q 3066 4069 2747 4153 
Q 2428 4238 2131 4238 
Q 1616 4238 1336 4038 
Q 1056 3838 1056 3469 
Q 1056 3159 1242 3001 
Q 1428 2844 1947 2747 
L 2328 2669 
Q 3034 2534 3370 2195 
Q 3706 1856 3706 1288 
Q 3706 609 3251 259 
Q 2797 -91 1919 -91 
Q 1588 -91 1214 -16 
Q 841 59 441 206 
L 441 856 
Q 825 641 1194 531 
Q 1563 422 1919 422 
Q 2459 422 2753 634 
Q 3047 847 3047 1241 
Q 3047 1584 2836 1778 
Q 2625 1972 2144 2069 
L 1759 2144 
Q 1053 2284 737 2584 
Q 422 2884 422 3419 
Q 422 4038 858 4394 
Q 1294 4750 2059 4750 
Q 2388 4750 2728 4690 
Q 3069 4631 3425 4513 
z
" id="DejaVuSans-53" transform="scale(0.015625)"/>
      <path d="M 1172 4494 
L 1172 3500 
L 2356 3500 
L 2356 3053 
L 1172 3053 
L 1172 1153 
Q 1172 725 1289 603 
Q 1406 481 1766 481 
L 2356 481 
L 2356 0 
L 1766 0 
Q 1100 0 847 248 
Q 594 497 594 1153 
L 594 3053 
L 172 3053 
L 172 3500 
L 594 3500 
L 594 4494 
L 1172 4494 
z
" id="DejaVuSans-74" transform="scale(0.015625)"/>
      <path d="M 2841 2188 
Q 3044 2119 3236 1894 
Q 3428 1669 3622 1275 
L 4263 0 
L 3584 0 
L 2988 1197 
Q 2756 1666 2539 1819 
Q 2322 1972 1947 1972 
L 1259 1972 
L 1259 0 
L 628 0 
L 628 4666 
L 2053 4666 
Q 2853 4666 3247 4331 
Q 3641 3997 3641 3322 
Q 3641 2881 3436 2590 
Q 3231 2300 2841 2188 
z
M 1259 4147 
L 1259 2491 
L 2053 2491 
Q 2509 2491 2742 2702 
Q 2975 2913 2975 3322 
Q 2975 3731 2742 3939 
Q 2509 4147 2053 4147 
L 1259 4147 
z
" id="DejaVuSans-52" transform="scale(0.015625)"/>
      <path d="M 3597 1894 
L 3597 1613 
L 953 1613 
Q 991 1019 1311 708 
Q 1631 397 2203 397 
Q 2534 397 2845 478 
Q 3156 559 3463 722 
L 3463 178 
Q 3153 47 2828 -22 
Q 2503 -91 2169 -91 
Q 1331 -91 842 396 
Q 353 884 353 1716 
Q 353 2575 817 3079 
Q 1281 3584 2069 3584 
Q 2775 3584 3186 3129 
Q 3597 2675 3597 1894 
z
M 3022 2063 
Q 3016 2534 2758 2815 
Q 2500 3097 2075 3097 
Q 1594 3097 1305 2825 
Q 1016 2553 972 2059 
L 3022 2063 
z
" id="DejaVuSans-65" transform="scale(0.015625)"/>
      <path d="M 1159 525 
L 1159 -1331 
L 581 -1331 
L 581 3500 
L 1159 3500 
L 1159 2969 
Q 1341 3281 1617 3432 
Q 1894 3584 2278 3584 
Q 2916 3584 3314 3078 
Q 3713 2572 3713 1747 
Q 3713 922 3314 415 
Q 2916 -91 2278 -91 
Q 1894 -91 1617 61 
Q 1341 213 1159 525 
z
M 3116 1747 
Q 3116 2381 2855 2742 
Q 2594 3103 2138 3103 
Q 1681 3103 1420 2742 
Q 1159 2381 1159 1747 
Q 1159 1113 1420 752 
Q 1681 391 2138 391 
Q 2594 391 2855 752 
Q 3116 1113 3116 1747 
z
" id="DejaVuSans-70" transform="scale(0.015625)"/>
      <path d="M 2059 -325 
Q 1816 -950 1584 -1140 
Q 1353 -1331 966 -1331 
L 506 -1331 
L 506 -850 
L 844 -850 
Q 1081 -850 1212 -737 
Q 1344 -625 1503 -206 
L 1606 56 
L 191 3500 
L 800 3500 
L 1894 763 
L 2988 3500 
L 3597 3500 
L 2059 -325 
z
" id="DejaVuSans-79" transform="scale(0.015625)"/>
     </defs>
     <use xlink:href="#DejaVuSans-54"/>
     <use x="46.333984" xlink:href="#DejaVuSans-72"/>
     <use x="87.447266" xlink:href="#DejaVuSans-69"/>
     <use x="115.230469" xlink:href="#DejaVuSans-61"/>
     <use x="176.509766" xlink:href="#DejaVuSans-6c"/>
     <use x="204.292969" xlink:href="#DejaVuSans-20"/>
     <use x="236.080078" xlink:href="#DejaVuSans-53"/>
     <use x="299.556641" xlink:href="#DejaVuSans-74"/>
     <use x="338.765625" xlink:href="#DejaVuSans-61"/>
     <use x="400.044922" xlink:href="#DejaVuSans-72"/>
     <use x="441.158203" xlink:href="#DejaVuSans-74"/>
     <use x="480.367188" xlink:href="#DejaVuSans-20"/>
     <use x="512.154297" xlink:href="#DejaVuSans-52"/>
     <use x="577.136719" xlink:href="#DejaVuSans-65"/>
     <use x="638.660156" xlink:href="#DejaVuSans-70"/>
     <use x="702.136719" xlink:href="#DejaVuSans-6c"/>
     <use x="729.919922" xlink:href="#DejaVuSans-61"/>
     <use x="791.199219" xlink:href="#DejaVuSans-79"/>
     <use x="850.378906" xlink:href="#DejaVuSans-73"/>
    </g>
   </g>
  </g>
  <g id="axes_2">
   <g id="patch_5">
    <path d="M 34.240625 267.84 
L 369.040625 267.84 
L 369.040625 190.182857 
L 34.240625 190.182857 
z
" style="fill:none;"/>
   </g>
   <g id="matplotlib.axis_3">
    <g id="xtick_7">
     <g id="line2d_12">
      <g>
       <use style="stroke:#000000;stroke-width:0.8;" x="49.458807" xlink:href="#ma9c25cd436" y="267.84"/>
      </g>
     </g>
     <g id="text_12">
      <!-- 0 -->
      <g transform="translate(46.277557 282.438437)scale(0.1 -0.1)">
       <use xlink:href="#DejaVuSans-30"/>
      </g>
     </g>
    </g>
    <g id="xtick_8">
     <g id="line2d_13">
      <g>
       <use style="stroke:#000000;stroke-width:0.8;" x="110.94641" xlink:href="#ma9c25cd436" y="267.84"/>
      </g>
     </g>
     <g id="text_13">
      <!-- 20 -->
      <g transform="translate(104.58391 282.438437)scale(0.1 -0.1)">
       <use xlink:href="#DejaVuSans-32"/>
       <use x="63.623047" xlink:href="#DejaVuSans-30"/>
      </g>
     </g>
    </g>
    <g id="xtick_9">
     <g id="line2d_14">
      <g>
       <use style="stroke:#000000;stroke-width:0.8;" x="172.434013" xlink:href="#ma9c25cd436" y="267.84"/>
      </g>
     </g>
     <g id="text_14">
      <!-- 40 -->
      <g transform="translate(166.071513 282.438437)scale(0.1 -0.1)">
       <use xlink:href="#DejaVuSans-34"/>
       <use x="63.623047" xlink:href="#DejaVuSans-30"/>
      </g>
     </g>
    </g>
    <g id="xtick_10">
     <g id="line2d_15">
      <g>
       <use style="stroke:#000000;stroke-width:0.8;" x="233.921617" xlink:href="#ma9c25cd436" y="267.84"/>
      </g>
     </g>
     <g id="text_15">
      <!-- 60 -->
      <g transform="translate(227.559117 282.438437)scale(0.1 -0.1)">
       <use xlink:href="#DejaVuSans-36"/>
       <use x="63.623047" xlink:href="#DejaVuSans-30"/>
      </g>
     </g>
    </g>
    <g id="xtick_11">
     <g id="line2d_16">
      <g>
       <use style="stroke:#000000;stroke-width:0.8;" x="295.40922" xlink:href="#ma9c25cd436" y="267.84"/>
      </g>
     </g>
     <g id="text_16">
      <!-- 80 -->
      <g transform="translate(289.04672 282.438437)scale(0.1 -0.1)">
       <use xlink:href="#DejaVuSans-38"/>
       <use x="63.623047" xlink:href="#DejaVuSans-30"/>
      </g>
     </g>
    </g>
    <g id="xtick_12">
     <g id="line2d_17">
      <g>
       <use style="stroke:#000000;stroke-width:0.8;" x="356.896823" xlink:href="#ma9c25cd436" y="267.84"/>
      </g>
     </g>
     <g id="text_17">
      <!-- 100 -->
      <g transform="translate(347.353073 282.438437)scale(0.1 -0.1)">
       <use xlink:href="#DejaVuSans-31"/>
       <use x="63.623047" xlink:href="#DejaVuSans-30"/>
       <use x="127.246094" xlink:href="#DejaVuSans-30"/>
      </g>
     </g>
    </g>
    <g id="text_18">
     <!-- Trial -->
     <g transform="translate(191.426563 296.116562)scale(0.1 -0.1)">
      <use xlink:href="#DejaVuSans-54"/>
      <use x="46.333984" xlink:href="#DejaVuSans-72"/>
      <use x="87.447266" xlink:href="#DejaVuSans-69"/>
      <use x="115.230469" xlink:href="#DejaVuSans-61"/>
      <use x="176.509766" xlink:href="#DejaVuSans-6c"/>
     </g>
    </g>
   </g>
   <g id="matplotlib.axis_4">
    <g id="ytick_3">
     <g id="line2d_18">
      <g>
       <use style="stroke:#000000;stroke-width:0.8;" x="34.240625" xlink:href="#mbc9b4d1750" y="264.31013"/>
      </g>
     </g>
     <g id="text_19">
      <!-- 0 -->
      <g transform="translate(20.878125 268.109349)scale(0.1 -0.1)">
       <use xlink:href="#DejaVuSans-30"/>
      </g>
     </g>
    </g>
    <g id="ytick_4">
     <g id="line2d_19">
      <g>
       <use style="stroke:#000000;stroke-width:0.8;" x="34.240625" xlink:href="#mbc9b4d1750" y="220.13153"/>
      </g>
     </g>
     <g id="text_20">
      <!-- 5 -->
      <g transform="translate(20.878125 223.930749)scale(0.1 -0.1)">
       <use xlink:href="#DejaVuSans-35"/>
      </g>
     </g>
    </g>
    <g id="text_21">
     <!-- Pairs [#] -->
     <g transform="translate(14.798437 250.595022)rotate(-90)scale(0.1 -0.1)">
      <use xlink:href="#DejaVuSans-50"/>
      <use x="55.802734" xlink:href="#DejaVuSans-61"/>
      <use x="117.082031" xlink:href="#DejaVuSans-69"/>
      <use x="144.865234" xlink:href="#DejaVuSans-72"/>
      <use x="185.978516" xlink:href="#DejaVuSans-73"/>
      <use x="238.078125" xlink:href="#DejaVuSans-20"/>
      <use x="269.865234" xlink:href="#DejaVuSans-5b"/>
      <use x="308.878906" xlink:href="#DejaVuSans-23"/>
      <use x="392.667969" xlink:href="#DejaVuSans-5d"/>
     </g>
    </g>
   </g>
   <g id="line2d_20">
    <path clip-path="url(#p5e26b1f796)" d="M 49.458807 227.906964 
L 52.533187 227.995321 
L 55.607567 231.264537 
L 58.681947 235.152254 
L 61.756327 237.007755 
L 64.830708 240.100257 
L 67.905088 240.718758 
L 70.979468 243.104402 
L 74.053848 245.666761 
L 77.128228 246.196904 
L 80.202608 246.108547 
L 83.276989 248.317477 
L 86.351369 247.787334 
L 89.425749 249.996264 
L 92.500129 250.349692 
L 95.574509 250.791478 
L 98.648889 250.349692 
L 101.72327 252.558622 
L 104.79765 251.321622 
L 107.87203 251.940122 
L 110.94641 252.381908 
L 114.02079 253.000408 
L 117.09517 252.64698 
L 120.169551 252.912051 
L 123.243931 254.149052 
L 126.318311 253.530552 
L 129.392691 253.530552 
L 132.467071 253.88398 
L 135.541451 253.088766 
L 138.615832 253.707266 
L 141.690212 253.618909 
L 144.764592 254.237409 
L 147.838972 253.618909 
L 150.913352 254.060695 
L 153.987732 253.442194 
L 157.062113 254.502481 
L 160.136493 254.502481 
L 163.210873 254.767552 
L 166.285253 254.060695 
L 169.359633 254.767552 
L 172.434013 254.590838 
L 175.508394 254.855909 
L 178.582774 254.679195 
L 181.657154 254.944267 
L 184.731534 254.767552 
L 187.805914 255.209338 
L 190.880294 254.590838 
L 193.954675 254.679195 
L 197.029055 255.120981 
L 200.103435 255.120981 
L 203.177815 255.120981 
L 206.252195 255.209338 
L 209.326575 254.944267 
L 212.400956 254.944267 
L 215.475336 255.032624 
L 218.549716 255.386053 
L 221.624096 254.855909 
L 224.698476 255.297695 
L 227.772856 255.032624 
L 230.847237 255.032624 
L 233.921617 255.120981 
L 236.995997 255.032624 
L 240.070377 254.855909 
L 243.144757 255.209338 
L 246.219137 255.032624 
L 249.293518 255.209338 
L 252.367898 255.120981 
L 255.442278 255.209338 
L 258.516658 255.032624 
L 261.591038 255.297695 
L 264.665418 255.209338 
L 267.739799 255.209338 
L 270.814179 255.120981 
L 273.888559 255.120981 
L 276.962939 255.209338 
L 280.037319 255.120981 
L 283.111699 255.120981 
L 286.18608 255.297695 
L 289.26046 255.297695 
L 292.33484 254.855909 
L 295.40922 255.386053 
L 298.4836 254.944267 
L 301.55798 255.209338 
L 304.632361 255.386053 
L 307.706741 255.209338 
L 310.781121 255.209338 
L 313.855501 255.297695 
L 316.929881 255.297695 
L 320.004261 255.209338 
L 323.078642 255.120981 
L 326.153022 255.120981 
L 329.227402 255.209338 
L 332.301782 255.297695 
L 335.376162 255.297695 
L 338.450542 255.297695 
L 341.524923 254.944267 
L 344.599303 255.386053 
L 347.673683 255.209338 
L 350.748063 255.386053 
L 353.822443 255.032624 
" style="fill:none;stroke:#0000ff;stroke-linecap:square;stroke-width:1.5;"/>
   </g>
   <g id="line2d_21">
    <path clip-path="url(#p5e26b1f796)" d="M 49.458807 234.091968 
L 52.533187 234.798825 
L 55.607567 231.17618 
L 58.681947 226.493248 
L 61.756327 222.605532 
L 64.830708 218.187672 
L 67.905088 218.276029 
L 70.979468 213.681454 
L 74.053848 210.147166 
L 77.128228 209.351952 
L 80.202608 209.440309 
L 83.276989 206.347807 
L 86.351369 207.054664 
L 89.425749 203.873805 
L 92.500129 202.990233 
L 95.574509 201.664875 
L 98.648889 202.901876 
L 101.72327 199.190874 
L 104.79765 201.223089 
L 107.87203 199.809374 
L 110.94641 199.455945 
L 114.02079 198.395659 
L 117.09517 198.572373 
L 120.169551 198.218944 
L 123.243931 196.275086 
L 126.318311 197.247015 
L 129.392691 197.070301 
L 132.467071 196.4518 
L 135.541451 197.688801 
L 138.615832 196.893586 
L 141.690212 197.070301 
L 144.764592 196.010014 
L 147.838972 196.981944 
L 150.913352 196.363443 
L 153.987732 197.42373 
L 157.062113 195.568228 
L 160.136493 195.391514 
L 163.210873 194.949728 
L 166.285253 196.186729 
L 169.359633 194.949728 
L 172.434013 195.391514 
L 175.508394 194.861371 
L 178.582774 195.2148 
L 181.657154 194.684656 
L 184.731534 194.949728 
L 187.805914 194.154513 
L 190.880294 195.126442 
L 193.954675 194.949728 
L 197.029055 194.24287 
L 200.103435 194.24287 
L 203.177815 194.331228 
L 206.252195 194.154513 
L 209.326575 194.684656 
L 212.400956 194.861371 
L 215.475336 194.507942 
L 218.549716 193.801084 
L 221.624096 194.773014 
L 224.698476 193.977799 
L 227.772856 194.24287 
L 230.847237 194.507942 
L 233.921617 194.331228 
L 236.995997 194.507942 
L 240.070377 194.684656 
L 243.144757 194.154513 
L 246.219137 194.419585 
L 249.293518 194.154513 
L 252.367898 194.24287 
L 255.442278 194.066156 
L 258.516658 194.419585 
L 261.591038 193.889442 
L 264.665418 194.066156 
L 267.739799 193.977799 
L 270.814179 194.507942 
L 273.888559 194.331228 
L 276.962939 194.154513 
L 280.037319 194.066156 
L 283.111699 194.331228 
L 286.18608 193.977799 
L 289.26046 193.977799 
L 292.33484 194.596299 
L 295.40922 193.801084 
L 298.4836 194.596299 
L 301.55798 194.154513 
L 304.632361 193.712727 
L 307.706741 194.066156 
L 310.781121 194.154513 
L 313.855501 193.977799 
L 316.929881 193.977799 
L 320.004261 194.154513 
L 323.078642 194.154513 
L 326.153022 194.24287 
L 329.227402 194.066156 
L 332.301782 193.977799 
L 335.376162 193.977799 
L 338.450542 193.977799 
L 341.524923 194.419585 
L 344.599303 193.801084 
L 347.673683 194.154513 
L 350.748063 193.801084 
L 353.822443 194.154513 
" style="fill:none;stroke:#ff0000;stroke-linecap:square;stroke-width:1.5;"/>
   </g>
   <g id="line2d_22">
    <path clip-path="url(#p5e26b1f796)" d="M 49.458807 251.409979 
L 52.533187 250.614764 
L 55.607567 250.968193 
L 58.681947 251.763408 
L 61.756327 253.795623 
L 64.830708 255.120981 
L 67.905088 254.414123 
L 70.979468 256.623053 
L 74.053848 257.594983 
L 77.128228 257.860054 
L 80.202608 257.860054 
L 83.276989 258.743626 
L 86.351369 258.566912 
L 89.425749 259.538841 
L 92.500129 260.068984 
L 95.574509 260.952556 
L 98.648889 260.157341 
L 101.72327 261.659414 
L 104.79765 260.864199 
L 107.87203 261.659414 
L 110.94641 261.571057 
L 114.02079 262.012843 
L 117.09517 262.189557 
L 120.169551 262.277914 
L 123.243931 262.984772 
L 126.318311 262.631343 
L 129.392691 262.808057 
L 132.467071 263.073129 
L 135.541451 262.631343 
L 138.615832 262.808057 
L 141.690212 262.7197 
L 144.764592 263.161486 
L 147.838972 262.808057 
L 150.913352 262.984772 
L 153.987732 262.542986 
L 157.062113 263.338201 
L 160.136493 263.514915 
L 163.210873 263.691629 
L 166.285253 263.161486 
L 169.359633 263.691629 
L 172.434013 263.426558 
L 175.508394 263.691629 
L 178.582774 263.514915 
L 181.657154 263.779987 
L 184.731534 263.691629 
L 187.805914 264.045058 
L 190.880294 263.691629 
L 193.954675 263.779987 
L 197.029055 264.045058 
L 200.103435 264.045058 
L 203.177815 263.956701 
L 206.252195 264.045058 
L 209.326575 263.779987 
L 212.400956 263.603272 
L 215.475336 263.868344 
L 218.549716 264.221773 
L 221.624096 263.779987 
L 224.698476 264.133415 
L 227.772856 264.133415 
L 230.847237 263.868344 
L 233.921617 263.956701 
L 236.995997 263.868344 
L 240.070377 263.868344 
L 243.144757 264.045058 
L 246.219137 263.956701 
L 249.293518 264.045058 
L 252.367898 264.045058 
L 255.442278 264.133415 
L 258.516658 263.956701 
L 261.591038 264.221773 
L 264.665418 264.133415 
L 267.739799 264.221773 
L 270.814179 263.779987 
L 273.888559 263.956701 
L 276.962939 264.045058 
L 280.037319 264.221773 
L 283.111699 263.956701 
L 286.18608 264.133415 
L 289.26046 264.133415 
L 292.33484 263.956701 
L 295.40922 264.221773 
L 298.4836 263.868344 
L 301.55798 264.045058 
L 304.632361 264.31013 
L 307.706741 264.133415 
L 310.781121 264.045058 
L 313.855501 264.133415 
L 316.929881 264.133415 
L 320.004261 264.045058 
L 323.078642 264.133415 
L 326.153022 264.045058 
L 329.227402 264.133415 
L 332.301782 264.133415 
L 335.376162 264.133415 
L 338.450542 264.133415 
L 341.524923 264.045058 
L 344.599303 264.221773 
L 347.673683 264.045058 
L 350.748063 264.221773 
L 353.822443 264.221773 
" style="fill:none;stroke:#008000;stroke-linecap:square;stroke-width:1.5;"/>
   </g>
   <g id="patch_6">
    <path d="M 34.240625 267.84 
L 34.240625 190.182857 
" style="fill:none;stroke:#000000;stroke-linecap:square;stroke-linejoin:miter;stroke-width:0.8;"/>
   </g>
   <g id="patch_7">
    <path d="M 34.240625 267.84 
L 369.040625 267.84 
" style="fill:none;stroke:#000000;stroke-linecap:square;stroke-linejoin:miter;stroke-width:0.8;"/>
   </g>
   <g id="text_22">
    <!-- Trial End Replays -->
    <g transform="translate(150.746563 184.182857)scale(0.12 -0.12)">
     <defs>
      <path d="M 628 4666 
L 3578 4666 
L 3578 4134 
L 1259 4134 
L 1259 2753 
L 3481 2753 
L 3481 2222 
L 1259 2222 
L 1259 531 
L 3634 531 
L 3634 0 
L 628 0 
L 628 4666 
z
" id="DejaVuSans-45" transform="scale(0.015625)"/>
      <path d="M 3513 2113 
L 3513 0 
L 2938 0 
L 2938 2094 
Q 2938 2591 2744 2837 
Q 2550 3084 2163 3084 
Q 1697 3084 1428 2787 
Q 1159 2491 1159 1978 
L 1159 0 
L 581 0 
L 581 3500 
L 1159 3500 
L 1159 2956 
Q 1366 3272 1645 3428 
Q 1925 3584 2291 3584 
Q 2894 3584 3203 3211 
Q 3513 2838 3513 2113 
z
" id="DejaVuSans-6e" transform="scale(0.015625)"/>
      <path d="M 2906 2969 
L 2906 4863 
L 3481 4863 
L 3481 0 
L 2906 0 
L 2906 525 
Q 2725 213 2448 61 
Q 2172 -91 1784 -91 
Q 1150 -91 751 415 
Q 353 922 353 1747 
Q 353 2572 751 3078 
Q 1150 3584 1784 3584 
Q 2172 3584 2448 3432 
Q 2725 3281 2906 2969 
z
M 947 1747 
Q 947 1113 1208 752 
Q 1469 391 1925 391 
Q 2381 391 2643 752 
Q 2906 1113 2906 1747 
Q 2906 2381 2643 2742 
Q 2381 3103 1925 3103 
Q 1469 3103 1208 2742 
Q 947 2381 947 1747 
z
" id="DejaVuSans-64" transform="scale(0.015625)"/>
     </defs>
     <use xlink:href="#DejaVuSans-54"/>
     <use x="46.333984" xlink:href="#DejaVuSans-72"/>
     <use x="87.447266" xlink:href="#DejaVuSans-69"/>
     <use x="115.230469" xlink:href="#DejaVuSans-61"/>
     <use x="176.509766" xlink:href="#DejaVuSans-6c"/>
     <use x="204.292969" xlink:href="#DejaVuSans-20"/>
     <use x="236.080078" xlink:href="#DejaVuSans-45"/>
     <use x="299.263672" xlink:href="#DejaVuSans-6e"/>
     <use x="362.642578" xlink:href="#DejaVuSans-64"/>
     <use x="426.119141" xlink:href="#DejaVuSans-20"/>
     <use x="457.90625" xlink:href="#DejaVuSans-52"/>
     <use x="522.888672" xlink:href="#DejaVuSans-65"/>
     <use x="584.412109" xlink:href="#DejaVuSans-70"/>
     <use x="647.888672" xlink:href="#DejaVuSans-6c"/>
     <use x="675.671875" xlink:href="#DejaVuSans-61"/>
     <use x="736.951172" xlink:href="#DejaVuSans-79"/>
     <use x="796.130859" xlink:href="#DejaVuSans-73"/>
    </g>
   </g>
   <g id="legend_1">
    <g id="patch_8">
     <path d="M 48.314375 333.882321 
L 354.966875 333.882321 
Q 357.366875 333.882321 357.366875 331.482321 
L 357.366875 315.068571 
Q 357.366875 312.668571 354.966875 312.668571 
L 48.314375 312.668571 
Q 45.914375 312.668571 45.914375 315.068571 
L 45.914375 331.482321 
Q 45.914375 333.882321 48.314375 333.882321 
z
" style="fill:none;opacity:0;"/>
    </g>
    <g id="line2d_23">
     <path d="M 50.714375 322.386696 
L 74.714375 322.386696 
" style="fill:none;stroke:#0000ff;stroke-linecap:square;stroke-width:1.5;"/>
    </g>
    <g id="line2d_24"/>
    <g id="text_23">
     <!-- forward -->
     <g transform="translate(84.314375 326.586696)scale(0.12 -0.12)">
      <defs>
       <path d="M 2375 4863 
L 2375 4384 
L 1825 4384 
Q 1516 4384 1395 4259 
Q 1275 4134 1275 3809 
L 1275 3500 
L 2222 3500 
L 2222 3053 
L 1275 3053 
L 1275 0 
L 697 0 
L 697 3053 
L 147 3053 
L 147 3500 
L 697 3500 
L 697 3744 
Q 697 4328 969 4595 
Q 1241 4863 1831 4863 
L 2375 4863 
z
" id="DejaVuSans-66" transform="scale(0.015625)"/>
       <path d="M 1959 3097 
Q 1497 3097 1228 2736 
Q 959 2375 959 1747 
Q 959 1119 1226 758 
Q 1494 397 1959 397 
Q 2419 397 2687 759 
Q 2956 1122 2956 1747 
Q 2956 2369 2687 2733 
Q 2419 3097 1959 3097 
z
M 1959 3584 
Q 2709 3584 3137 3096 
Q 3566 2609 3566 1747 
Q 3566 888 3137 398 
Q 2709 -91 1959 -91 
Q 1206 -91 779 398 
Q 353 888 353 1747 
Q 353 2609 779 3096 
Q 1206 3584 1959 3584 
z
" id="DejaVuSans-6f" transform="scale(0.015625)"/>
       <path d="M 269 3500 
L 844 3500 
L 1563 769 
L 2278 3500 
L 2956 3500 
L 3675 769 
L 4391 3500 
L 4966 3500 
L 4050 0 
L 3372 0 
L 2619 2869 
L 1863 0 
L 1184 0 
L 269 3500 
z
" id="DejaVuSans-77" transform="scale(0.015625)"/>
      </defs>
      <use xlink:href="#DejaVuSans-66"/>
      <use x="35.205078" xlink:href="#DejaVuSans-6f"/>
      <use x="96.386719" xlink:href="#DejaVuSans-72"/>
      <use x="137.5" xlink:href="#DejaVuSans-77"/>
      <use x="219.287109" xlink:href="#DejaVuSans-61"/>
      <use x="280.566406" xlink:href="#DejaVuSans-72"/>
      <use x="319.929688" xlink:href="#DejaVuSans-64"/>
     </g>
    </g>
    <g id="line2d_25">
     <path d="M 154.323125 322.386696 
L 178.323125 322.386696 
" style="fill:none;stroke:#ff0000;stroke-linecap:square;stroke-width:1.5;"/>
    </g>
    <g id="line2d_26"/>
    <g id="text_24">
     <!-- reverse -->
     <g transform="translate(187.923125 326.586696)scale(0.12 -0.12)">
      <defs>
       <path d="M 191 3500 
L 800 3500 
L 1894 563 
L 2988 3500 
L 3597 3500 
L 2284 0 
L 1503 0 
L 191 3500 
z
" id="DejaVuSans-76" transform="scale(0.015625)"/>
      </defs>
      <use xlink:href="#DejaVuSans-72"/>
      <use x="38.863281" xlink:href="#DejaVuSans-65"/>
      <use x="100.386719" xlink:href="#DejaVuSans-76"/>
      <use x="159.566406" xlink:href="#DejaVuSans-65"/>
      <use x="221.089844" xlink:href="#DejaVuSans-72"/>
      <use x="262.203125" xlink:href="#DejaVuSans-73"/>
      <use x="314.302734" xlink:href="#DejaVuSans-65"/>
     </g>
    </g>
    <g id="line2d_27">
     <path d="M 257.024375 322.386696 
L 281.024375 322.386696 
" style="fill:none;stroke:#008000;stroke-linecap:square;stroke-width:1.5;"/>
    </g>
    <g id="line2d_28"/>
    <g id="text_25">
     <!-- unordered -->
     <g transform="translate(290.624375 326.586696)scale(0.12 -0.12)">
      <defs>
       <path d="M 544 1381 
L 544 3500 
L 1119 3500 
L 1119 1403 
Q 1119 906 1312 657 
Q 1506 409 1894 409 
Q 2359 409 2629 706 
Q 2900 1003 2900 1516 
L 2900 3500 
L 3475 3500 
L 3475 0 
L 2900 0 
L 2900 538 
Q 2691 219 2414 64 
Q 2138 -91 1772 -91 
Q 1169 -91 856 284 
Q 544 659 544 1381 
z
M 1991 3584 
L 1991 3584 
z
" id="DejaVuSans-75" transform="scale(0.015625)"/>
      </defs>
      <use xlink:href="#DejaVuSans-75"/>
      <use x="63.378906" xlink:href="#DejaVuSans-6e"/>
      <use x="126.757812" xlink:href="#DejaVuSans-6f"/>
      <use x="187.939453" xlink:href="#DejaVuSans-72"/>
      <use x="227.302734" xlink:href="#DejaVuSans-64"/>
      <use x="290.779297" xlink:href="#DejaVuSans-65"/>
      <use x="352.302734" xlink:href="#DejaVuSans-72"/>
      <use x="391.166016" xlink:href="#DejaVuSans-65"/>
      <use x="452.689453" xlink:href="#DejaVuSans-64"/>
     </g>
    </g>
   </g>
  </g>
  <g id="text_26">
   <!-- Linear Track, Default Mode -->
   <g transform="translate(95.936328 18.597656)scale(0.15 -0.15)">
    <defs>
     <path d="M 628 4666 
L 1259 4666 
L 1259 531 
L 3531 531 
L 3531 0 
L 628 0 
L 628 4666 
z
" id="DejaVuSans-4c" transform="scale(0.015625)"/>
     <path d="M 3122 3366 
L 3122 2828 
Q 2878 2963 2633 3030 
Q 2388 3097 2138 3097 
Q 1578 3097 1268 2742 
Q 959 2388 959 1747 
Q 959 1106 1268 751 
Q 1578 397 2138 397 
Q 2388 397 2633 464 
Q 2878 531 3122 666 
L 3122 134 
Q 2881 22 2623 -34 
Q 2366 -91 2075 -91 
Q 1284 -91 818 406 
Q 353 903 353 1747 
Q 353 2603 823 3093 
Q 1294 3584 2113 3584 
Q 2378 3584 2631 3529 
Q 2884 3475 3122 3366 
z
" id="DejaVuSans-63" transform="scale(0.015625)"/>
     <path d="M 581 4863 
L 1159 4863 
L 1159 1991 
L 2875 3500 
L 3609 3500 
L 1753 1863 
L 3688 0 
L 2938 0 
L 1159 1709 
L 1159 0 
L 581 0 
L 581 4863 
z
" id="DejaVuSans-6b" transform="scale(0.015625)"/>
     <path d="M 750 794 
L 1409 794 
L 1409 256 
L 897 -744 
L 494 -744 
L 750 256 
L 750 794 
z
" id="DejaVuSans-2c" transform="scale(0.015625)"/>
     <path d="M 1259 4147 
L 1259 519 
L 2022 519 
Q 2988 519 3436 956 
Q 3884 1394 3884 2338 
Q 3884 3275 3436 3711 
Q 2988 4147 2022 4147 
L 1259 4147 
z
M 628 4666 
L 1925 4666 
Q 3281 4666 3915 4102 
Q 4550 3538 4550 2338 
Q 4550 1131 3912 565 
Q 3275 0 1925 0 
L 628 0 
L 628 4666 
z
" id="DejaVuSans-44" transform="scale(0.015625)"/>
     <path d="M 628 4666 
L 1569 4666 
L 2759 1491 
L 3956 4666 
L 4897 4666 
L 4897 0 
L 4281 0 
L 4281 4097 
L 3078 897 
L 2444 897 
L 1241 4097 
L 1241 0 
L 628 0 
L 628 4666 
z
" id="DejaVuSans-4d" transform="scale(0.015625)"/>
    </defs>
    <use xlink:href="#DejaVuSans-4c"/>
    <use x="55.712891" xlink:href="#DejaVuSans-69"/>
    <use x="83.496094" xlink:href="#DejaVuSans-6e"/>
    <use x="146.875" xlink:href="#DejaVuSans-65"/>
    <use x="208.398438" xlink:href="#DejaVuSans-61"/>
    <use x="269.677734" xlink:href="#DejaVuSans-72"/>
    <use x="310.791016" xlink:href="#DejaVuSans-20"/>
    <use x="342.578125" xlink:href="#DejaVuSans-54"/>
    <use x="388.912109" xlink:href="#DejaVuSans-72"/>
    <use x="430.025391" xlink:href="#DejaVuSans-61"/>
    <use x="491.304688" xlink:href="#DejaVuSans-63"/>
    <use x="546.285156" xlink:href="#DejaVuSans-6b"/>
    <use x="604.195312" xlink:href="#DejaVuSans-2c"/>
    <use x="635.982422" xlink:href="#DejaVuSans-20"/>
    <use x="667.769531" xlink:href="#DejaVuSans-44"/>
    <use x="744.771484" xlink:href="#DejaVuSans-65"/>
    <use x="806.294922" xlink:href="#DejaVuSans-66"/>
    <use x="841.5" xlink:href="#DejaVuSans-61"/>
    <use x="902.779297" xlink:href="#DejaVuSans-75"/>
    <use x="966.158203" xlink:href="#DejaVuSans-6c"/>
    <use x="993.941406" xlink:href="#DejaVuSans-74"/>
    <use x="1033.150391" xlink:href="#DejaVuSans-20"/>
    <use x="1064.9375" xlink:href="#DejaVuSans-4d"/>
    <use x="1151.216797" xlink:href="#DejaVuSans-6f"/>
    <use x="1212.398438" xlink:href="#DejaVuSans-64"/>
    <use x="1275.875" xlink:href="#DejaVuSans-65"/>
   </g>
  </g>
 </g>
 <defs>
  <clipPath id="pd7979734b7">
   <rect height="77.657143" width="334.8" x="34.240625" y="50.4"/>
  </clipPath>
  <clipPath id="p5e26b1f796">
   <rect height="77.657143" width="334.8" x="34.240625" y="190.182857"/>
  </clipPath>
 </defs>
</svg>
