<?xml version="1.0" encoding="utf-8" standalone="no"?>
<!DOCTYPE svg PUBLIC "-//W3C//DTD SVG 1.1//EN"
  "http://www.w3.org/Graphics/SVG/1.1/DTD/svg11.dtd">
<svg height="341.082321pt" version="1.1" viewBox="0 0 376.240625 341.082321" width="376.240625pt" xmlns="http://www.w3.org/2000/svg" xmlns:xlink="http://www.w3.org/1999/xlink">
 <metadata>
  <rdf:RDF xmlns:cc="http://creativecommons.org/ns#" xmlns:dc="http://purl.org/dc/elements/1.1/" xmlns:rdf="http://www.w3.org/1999/02/22-rdf-syntax-ns#">
   <cc:Work>
    <dc:type rdf:resource="http://purl.org/dc/dcmitype/StillImage"/>
    <dc:date>2022-07-21T20:15:07.106412</dc:date>
    <dc:format>image/svg+xml</dc:format>
    <dc:creator>
     <cc:Agent>
      <dc:title>Matplotlib v3.4.3, https://matplotlib.org/</dc:title>
     </cc:Agent>
    </dc:creator>
   </cc:Work>
  </rdf:RDF>
 </metadata>
 <defs>
  <style type="text/css">*{stroke-linecap:butt;stroke-linejoin:round;}</style>
 </defs>
 <g id="figure_1">
  <g id="patch_1">
   <path d="M 0 341.082321 
L 376.240625 341.082321 
L 376.240625 0 
L 0 0 
z
" style="fill:none;"/>
  </g>
  <g id="axes_1">
   <g id="patch_2">
    <path d="M 34.240625 128.057143 
L 369.040625 128.057143 
L 369.040625 50.4 
L 34.240625 50.4 
z
" style="fill:none;"/>
   </g>
   <g id="matplotlib.axis_1">
    <g id="xtick_1">
     <g id="line2d_1">
      <defs>
       <path d="M 0 0 
L 0 3.5 
" id="m275263ae4f" style="stroke:#000000;stroke-width:0.8;"/>
      </defs>
      <g>
       <use style="stroke:#000000;stroke-width:0.8;" x="49.458807" xlink:href="#m275263ae4f" y="128.057143"/>
      </g>
     </g>
     <g id="text_1">
      <!-- 0 -->
      <g transform="translate(46.277557 142.65558)scale(0.1 -0.1)">
       <defs>
        <path d="M 2034 4250 
Q 1547 4250 1301 3770 
Q 1056 3291 1056 2328 
Q 1056 1369 1301 889 
Q 1547 409 2034 409 
Q 2525 409 2770 889 
Q 3016 1369 3016 2328 
Q 3016 3291 2770 3770 
Q 2525 4250 2034 4250 
z
M 2034 4750 
Q 2819 4750 3233 4129 
Q 3647 3509 3647 2328 
Q 3647 1150 3233 529 
Q 2819 -91 2034 -91 
Q 1250 -91 836 529 
Q 422 1150 422 2328 
Q 422 3509 836 4129 
Q 1250 4750 2034 4750 
z
" id="DejaVuSans-30" transform="scale(0.015625)"/>
       </defs>
       <use xlink:href="#DejaVuSans-30"/>
      </g>
     </g>
    </g>
    <g id="xtick_2">
     <g id="line2d_2">
      <g>
       <use style="stroke:#000000;stroke-width:0.8;" x="110.94641" xlink:href="#m275263ae4f" y="128.057143"/>
      </g>
     </g>
     <g id="text_2">
      <!-- 20 -->
      <g transform="translate(104.58391 142.65558)scale(0.1 -0.1)">
       <defs>
        <path d="M 1228 531 
L 3431 531 
L 3431 0 
L 469 0 
L 469 531 
Q 828 903 1448 1529 
Q 2069 2156 2228 2338 
Q 2531 2678 2651 2914 
Q 2772 3150 2772 3378 
Q 2772 3750 2511 3984 
Q 2250 4219 1831 4219 
Q 1534 4219 1204 4116 
Q 875 4013 500 3803 
L 500 4441 
Q 881 4594 1212 4672 
Q 1544 4750 1819 4750 
Q 2544 4750 2975 4387 
Q 3406 4025 3406 3419 
Q 3406 3131 3298 2873 
Q 3191 2616 2906 2266 
Q 2828 2175 2409 1742 
Q 1991 1309 1228 531 
z
" id="DejaVuSans-32" transform="scale(0.015625)"/>
       </defs>
       <use xlink:href="#DejaVuSans-32"/>
       <use x="63.623047" xlink:href="#DejaVuSans-30"/>
      </g>
     </g>
    </g>
    <g id="xtick_3">
     <g id="line2d_3">
      <g>
       <use style="stroke:#000000;stroke-width:0.8;" x="172.434013" xlink:href="#m275263ae4f" y="128.057143"/>
      </g>
     </g>
     <g id="text_3">
      <!-- 40 -->
      <g transform="translate(166.071513 142.65558)scale(0.1 -0.1)">
       <defs>
        <path d="M 2419 4116 
L 825 1625 
L 2419 1625 
L 2419 4116 
z
M 2253 4666 
L 3047 4666 
L 3047 1625 
L 3713 1625 
L 3713 1100 
L 3047 1100 
L 3047 0 
L 2419 0 
L 2419 1100 
L 313 1100 
L 313 1709 
L 2253 4666 
z
" id="DejaVuSans-34" transform="scale(0.015625)"/>
       </defs>
       <use xlink:href="#DejaVuSans-34"/>
       <use x="63.623047" xlink:href="#DejaVuSans-30"/>
      </g>
     </g>
    </g>
    <g id="xtick_4">
     <g id="line2d_4">
      <g>
       <use style="stroke:#000000;stroke-width:0.8;" x="233.921617" xlink:href="#m275263ae4f" y="128.057143"/>
      </g>
     </g>
     <g id="text_4">
      <!-- 60 -->
      <g transform="translate(227.559117 142.65558)scale(0.1 -0.1)">
       <defs>
        <path d="M 2113 2584 
Q 1688 2584 1439 2293 
Q 1191 2003 1191 1497 
Q 1191 994 1439 701 
Q 1688 409 2113 409 
Q 2538 409 2786 701 
Q 3034 994 3034 1497 
Q 3034 2003 2786 2293 
Q 2538 2584 2113 2584 
z
M 3366 4563 
L 3366 3988 
Q 3128 4100 2886 4159 
Q 2644 4219 2406 4219 
Q 1781 4219 1451 3797 
Q 1122 3375 1075 2522 
Q 1259 2794 1537 2939 
Q 1816 3084 2150 3084 
Q 2853 3084 3261 2657 
Q 3669 2231 3669 1497 
Q 3669 778 3244 343 
Q 2819 -91 2113 -91 
Q 1303 -91 875 529 
Q 447 1150 447 2328 
Q 447 3434 972 4092 
Q 1497 4750 2381 4750 
Q 2619 4750 2861 4703 
Q 3103 4656 3366 4563 
z
" id="DejaVuSans-36" transform="scale(0.015625)"/>
       </defs>
       <use xlink:href="#DejaVuSans-36"/>
       <use x="63.623047" xlink:href="#DejaVuSans-30"/>
      </g>
     </g>
    </g>
    <g id="xtick_5">
     <g id="line2d_5">
      <g>
       <use style="stroke:#000000;stroke-width:0.8;" x="295.40922" xlink:href="#m275263ae4f" y="128.057143"/>
      </g>
     </g>
     <g id="text_5">
      <!-- 80 -->
      <g transform="translate(289.04672 142.65558)scale(0.1 -0.1)">
       <defs>
        <path d="M 2034 2216 
Q 1584 2216 1326 1975 
Q 1069 1734 1069 1313 
Q 1069 891 1326 650 
Q 1584 409 2034 409 
Q 2484 409 2743 651 
Q 3003 894 3003 1313 
Q 3003 1734 2745 1975 
Q 2488 2216 2034 2216 
z
M 1403 2484 
Q 997 2584 770 2862 
Q 544 3141 544 3541 
Q 544 4100 942 4425 
Q 1341 4750 2034 4750 
Q 2731 4750 3128 4425 
Q 3525 4100 3525 3541 
Q 3525 3141 3298 2862 
Q 3072 2584 2669 2484 
Q 3125 2378 3379 2068 
Q 3634 1759 3634 1313 
Q 3634 634 3220 271 
Q 2806 -91 2034 -91 
Q 1263 -91 848 271 
Q 434 634 434 1313 
Q 434 1759 690 2068 
Q 947 2378 1403 2484 
z
M 1172 3481 
Q 1172 3119 1398 2916 
Q 1625 2713 2034 2713 
Q 2441 2713 2670 2916 
Q 2900 3119 2900 3481 
Q 2900 3844 2670 4047 
Q 2441 4250 2034 4250 
Q 1625 4250 1398 4047 
Q 1172 3844 1172 3481 
z
" id="DejaVuSans-38" transform="scale(0.015625)"/>
       </defs>
       <use xlink:href="#DejaVuSans-38"/>
       <use x="63.623047" xlink:href="#DejaVuSans-30"/>
      </g>
     </g>
    </g>
    <g id="xtick_6">
     <g id="line2d_6">
      <g>
       <use style="stroke:#000000;stroke-width:0.8;" x="356.896823" xlink:href="#m275263ae4f" y="128.057143"/>
      </g>
     </g>
     <g id="text_6">
      <!-- 100 -->
      <g transform="translate(347.353073 142.65558)scale(0.1 -0.1)">
       <defs>
        <path d="M 794 531 
L 1825 531 
L 1825 4091 
L 703 3866 
L 703 4441 
L 1819 4666 
L 2450 4666 
L 2450 531 
L 3481 531 
L 3481 0 
L 794 0 
L 794 531 
z
" id="DejaVuSans-31" transform="scale(0.015625)"/>
       </defs>
       <use xlink:href="#DejaVuSans-31"/>
       <use x="63.623047" xlink:href="#DejaVuSans-30"/>
       <use x="127.246094" xlink:href="#DejaVuSans-30"/>
      </g>
     </g>
    </g>
    <g id="text_7">
     <!-- Trial -->
     <g transform="translate(191.426563 156.333705)scale(0.1 -0.1)">
      <defs>
       <path d="M -19 4666 
L 3928 4666 
L 3928 4134 
L 2272 4134 
L 2272 0 
L 1638 0 
L 1638 4134 
L -19 4134 
L -19 4666 
z
" id="DejaVuSans-54" transform="scale(0.015625)"/>
       <path d="M 2631 2963 
Q 2534 3019 2420 3045 
Q 2306 3072 2169 3072 
Q 1681 3072 1420 2755 
Q 1159 2438 1159 1844 
L 1159 0 
L 581 0 
L 581 3500 
L 1159 3500 
L 1159 2956 
Q 1341 3275 1631 3429 
Q 1922 3584 2338 3584 
Q 2397 3584 2469 3576 
Q 2541 3569 2628 3553 
L 2631 2963 
z
" id="DejaVuSans-72" transform="scale(0.015625)"/>
       <path d="M 603 3500 
L 1178 3500 
L 1178 0 
L 603 0 
L 603 3500 
z
M 603 4863 
L 1178 4863 
L 1178 4134 
L 603 4134 
L 603 4863 
z
" id="DejaVuSans-69" transform="scale(0.015625)"/>
       <path d="M 2194 1759 
Q 1497 1759 1228 1600 
Q 959 1441 959 1056 
Q 959 750 1161 570 
Q 1363 391 1709 391 
Q 2188 391 2477 730 
Q 2766 1069 2766 1631 
L 2766 1759 
L 2194 1759 
z
M 3341 1997 
L 3341 0 
L 2766 0 
L 2766 531 
Q 2569 213 2275 61 
Q 1981 -91 1556 -91 
Q 1019 -91 701 211 
Q 384 513 384 1019 
Q 384 1609 779 1909 
Q 1175 2209 1959 2209 
L 2766 2209 
L 2766 2266 
Q 2766 2663 2505 2880 
Q 2244 3097 1772 3097 
Q 1472 3097 1187 3025 
Q 903 2953 641 2809 
L 641 3341 
Q 956 3463 1253 3523 
Q 1550 3584 1831 3584 
Q 2591 3584 2966 3190 
Q 3341 2797 3341 1997 
z
" id="DejaVuSans-61" transform="scale(0.015625)"/>
       <path d="M 603 4863 
L 1178 4863 
L 1178 0 
L 603 0 
L 603 4863 
z
" id="DejaVuSans-6c" transform="scale(0.015625)"/>
      </defs>
      <use xlink:href="#DejaVuSans-54"/>
      <use x="46.333984" xlink:href="#DejaVuSans-72"/>
      <use x="87.447266" xlink:href="#DejaVuSans-69"/>
      <use x="115.230469" xlink:href="#DejaVuSans-61"/>
      <use x="176.509766" xlink:href="#DejaVuSans-6c"/>
     </g>
    </g>
   </g>
   <g id="matplotlib.axis_2">
    <g id="ytick_1">
     <g id="line2d_7">
      <defs>
       <path d="M 0 0 
L -3.5 0 
" id="me6eadc36c2" style="stroke:#000000;stroke-width:0.8;"/>
      </defs>
      <g>
       <use style="stroke:#000000;stroke-width:0.8;" x="34.240625" xlink:href="#me6eadc36c2" y="124.527273"/>
      </g>
     </g>
     <g id="text_8">
      <!-- 0 -->
      <g transform="translate(20.878125 128.326491)scale(0.1 -0.1)">
       <use xlink:href="#DejaVuSans-30"/>
      </g>
     </g>
    </g>
    <g id="ytick_2">
     <g id="line2d_8">
      <g>
       <use style="stroke:#000000;stroke-width:0.8;" x="34.240625" xlink:href="#me6eadc36c2" y="84.000635"/>
      </g>
     </g>
     <g id="text_9">
      <!-- 5 -->
      <g transform="translate(20.878125 87.799854)scale(0.1 -0.1)">
       <defs>
        <path d="M 691 4666 
L 3169 4666 
L 3169 4134 
L 1269 4134 
L 1269 2991 
Q 1406 3038 1543 3061 
Q 1681 3084 1819 3084 
Q 2600 3084 3056 2656 
Q 3513 2228 3513 1497 
Q 3513 744 3044 326 
Q 2575 -91 1722 -91 
Q 1428 -91 1123 -41 
Q 819 9 494 109 
L 494 744 
Q 775 591 1075 516 
Q 1375 441 1709 441 
Q 2250 441 2565 725 
Q 2881 1009 2881 1497 
Q 2881 1984 2565 2268 
Q 2250 2553 1709 2553 
Q 1456 2553 1204 2497 
Q 953 2441 691 2322 
L 691 4666 
z
" id="DejaVuSans-35" transform="scale(0.015625)"/>
       </defs>
       <use xlink:href="#DejaVuSans-35"/>
      </g>
     </g>
    </g>
    <g id="text_10">
     <!-- Pairs [#] -->
     <g transform="translate(14.798437 110.812165)rotate(-90)scale(0.1 -0.1)">
      <defs>
       <path d="M 1259 4147 
L 1259 2394 
L 2053 2394 
Q 2494 2394 2734 2622 
Q 2975 2850 2975 3272 
Q 2975 3691 2734 3919 
Q 2494 4147 2053 4147 
L 1259 4147 
z
M 628 4666 
L 2053 4666 
Q 2838 4666 3239 4311 
Q 3641 3956 3641 3272 
Q 3641 2581 3239 2228 
Q 2838 1875 2053 1875 
L 1259 1875 
L 1259 0 
L 628 0 
L 628 4666 
z
" id="DejaVuSans-50" transform="scale(0.015625)"/>
       <path d="M 2834 3397 
L 2834 2853 
Q 2591 2978 2328 3040 
Q 2066 3103 1784 3103 
Q 1356 3103 1142 2972 
Q 928 2841 928 2578 
Q 928 2378 1081 2264 
Q 1234 2150 1697 2047 
L 1894 2003 
Q 2506 1872 2764 1633 
Q 3022 1394 3022 966 
Q 3022 478 2636 193 
Q 2250 -91 1575 -91 
Q 1294 -91 989 -36 
Q 684 19 347 128 
L 347 722 
Q 666 556 975 473 
Q 1284 391 1588 391 
Q 1994 391 2212 530 
Q 2431 669 2431 922 
Q 2431 1156 2273 1281 
Q 2116 1406 1581 1522 
L 1381 1569 
Q 847 1681 609 1914 
Q 372 2147 372 2553 
Q 372 3047 722 3315 
Q 1072 3584 1716 3584 
Q 2034 3584 2315 3537 
Q 2597 3491 2834 3397 
z
" id="DejaVuSans-73" transform="scale(0.015625)"/>
       <path id="DejaVuSans-20" transform="scale(0.015625)"/>
       <path d="M 550 4863 
L 1875 4863 
L 1875 4416 
L 1125 4416 
L 1125 -397 
L 1875 -397 
L 1875 -844 
L 550 -844 
L 550 4863 
z
" id="DejaVuSans-5b" transform="scale(0.015625)"/>
       <path d="M 3272 2816 
L 2363 2816 
L 2100 1772 
L 3016 1772 
L 3272 2816 
z
M 2803 4594 
L 2478 3297 
L 3391 3297 
L 3719 4594 
L 4219 4594 
L 3897 3297 
L 4872 3297 
L 4872 2816 
L 3775 2816 
L 3519 1772 
L 4513 1772 
L 4513 1294 
L 3397 1294 
L 3072 0 
L 2572 0 
L 2894 1294 
L 1978 1294 
L 1656 0 
L 1153 0 
L 1478 1294 
L 494 1294 
L 494 1772 
L 1594 1772 
L 1856 2816 
L 850 2816 
L 850 3297 
L 1978 3297 
L 2297 4594 
L 2803 4594 
z
" id="DejaVuSans-23" transform="scale(0.015625)"/>
       <path d="M 1947 4863 
L 1947 -844 
L 622 -844 
L 622 -397 
L 1369 -397 
L 1369 4416 
L 622 4416 
L 622 4863 
L 1947 4863 
z
" id="DejaVuSans-5d" transform="scale(0.015625)"/>
      </defs>
      <use xlink:href="#DejaVuSans-50"/>
      <use x="55.802734" xlink:href="#DejaVuSans-61"/>
      <use x="117.082031" xlink:href="#DejaVuSans-69"/>
      <use x="144.865234" xlink:href="#DejaVuSans-72"/>
      <use x="185.978516" xlink:href="#DejaVuSans-73"/>
      <use x="238.078125" xlink:href="#DejaVuSans-20"/>
      <use x="269.865234" xlink:href="#DejaVuSans-5b"/>
      <use x="308.878906" xlink:href="#DejaVuSans-23"/>
      <use x="392.667969" xlink:href="#DejaVuSans-5d"/>
     </g>
    </g>
   </g>
   <g id="line2d_9">
    <path clip-path="url(#pb0f07f1850)" d="M 49.458807 124.527273 
L 52.533187 92.592282 
L 55.607567 94.618614 
L 58.681947 96.807053 
L 61.756327 98.509171 
L 64.830708 96.23968 
L 67.905088 96.158626 
L 70.979468 95.5102 
L 74.053848 96.077573 
L 77.128228 96.969159 
L 80.202608 95.5102 
L 83.276989 95.104934 
L 86.351369 97.941799 
L 89.425749 96.401786 
L 92.500129 94.456508 
L 95.574509 94.375454 
L 98.648889 97.536532 
L 101.72327 94.780721 
L 104.79765 94.132295 
L 107.87203 94.537561 
L 110.94641 93.159655 
L 114.02079 94.780721 
L 117.09517 93.727028 
L 120.169551 92.024909 
L 123.243931 90.079631 
L 126.318311 92.187016 
L 129.392691 89.755418 
L 132.467071 90.80911 
L 135.541451 89.269098 
L 138.615832 87.404873 
L 141.690212 88.296459 
L 144.764592 88.377512 
L 147.838972 82.703783 
L 150.913352 85.459594 
L 153.987732 82.541676 
L 157.062113 80.839557 
L 160.136493 79.785865 
L 163.210873 78.326906 
L 166.285253 79.623758 
L 169.359633 77.840586 
L 172.434013 76.381627 
L 175.508394 76.70584 
L 178.582774 74.598455 
L 181.657154 74.517402 
L 184.731534 74.112136 
L 187.805914 74.922668 
L 190.880294 68.843673 
L 193.954675 71.518431 
L 197.029055 69.167886 
L 200.103435 69.329992 
L 203.177815 66.331021 
L 206.252195 69.329992 
L 209.326575 67.465767 
L 212.400956 66.006808 
L 215.475336 68.195247 
L 218.549716 65.358382 
L 221.624096 66.168915 
L 224.698476 64.953116 
L 227.772856 63.737316 
L 230.847237 61.629931 
L 233.921617 61.792038 
L 236.995997 65.763648 
L 240.070377 63.08889 
L 243.144757 60.738345 
L 246.219137 60.576239 
L 249.293518 62.602571 
L 252.367898 60.819399 
L 255.442278 57.739374 
L 258.516658 60.576239 
L 261.591038 61.548878 
L 264.665418 59.036226 
L 267.739799 58.712013 
L 270.814179 59.927812 
L 273.888559 56.604628 
L 276.962939 59.522546 
L 280.037319 57.415161 
L 283.111699 58.468854 
L 286.18608 56.118309 
L 289.26046 58.87412 
L 292.33484 58.468854 
L 295.40922 58.955173 
L 298.4836 57.496214 
L 301.55798 56.928841 
L 304.632361 56.847788 
L 307.706741 56.523575 
L 310.781121 56.199362 
L 313.855501 56.361468 
L 316.929881 54.091977 
L 320.004261 57.820427 
L 323.078642 54.821456 
L 326.153022 54.41619 
L 329.227402 56.523575 
L 332.301782 57.334108 
L 335.376162 55.145669 
L 338.450542 54.740403 
L 341.524923 54.821456 
L 344.599303 54.335137 
L 347.673683 53.92987 
L 350.748063 55.307776 
L 353.822443 54.254083 
" style="fill:none;stroke:#0000ff;stroke-linecap:square;stroke-width:1.5;"/>
   </g>
   <g id="line2d_10">
    <path clip-path="url(#pb0f07f1850)" d="M 49.458807 124.527273 
L 52.533187 107.019765 
L 55.607567 110.586109 
L 58.681947 108.640831 
L 61.756327 109.046097 
L 64.830708 109.451364 
L 67.905088 109.046097 
L 70.979468 110.505056 
L 74.053848 109.208204 
L 77.128228 109.208204 
L 80.202608 109.532417 
L 83.276989 111.072429 
L 86.351369 108.073458 
L 89.425749 110.018736 
L 92.500129 110.748216 
L 95.574509 110.505056 
L 98.648889 110.991376 
L 101.72327 111.234536 
L 104.79765 110.018736 
L 107.87203 109.775577 
L 110.94641 113.666134 
L 114.02079 110.667163 
L 117.09517 112.207175 
L 120.169551 110.991376 
L 123.243931 112.774548 
L 126.318311 111.964015 
L 129.392691 113.098761 
L 132.467071 111.396642 
L 135.541451 112.207175 
L 138.615832 114.962986 
L 141.690212 113.098761 
L 144.764592 113.422974 
L 147.838972 114.962986 
L 150.913352 114.881933 
L 153.987732 116.746158 
L 157.062113 116.827212 
L 160.136493 115.935626 
L 163.210873 116.827212 
L 166.285253 116.502998 
L 169.359633 117.232478 
L 172.434013 119.177757 
L 175.508394 117.880904 
L 178.582774 117.637744 
L 181.657154 117.556691 
L 184.731534 118.124064 
L 187.805914 116.989318 
L 190.880294 120.393556 
L 193.954675 118.610384 
L 197.029055 119.826183 
L 200.103435 119.664076 
L 203.177815 120.474609 
L 206.252195 119.01565 
L 209.326575 120.474609 
L 212.400956 120.474609 
L 215.475336 119.420916 
L 218.549716 120.069343 
L 221.624096 120.312502 
L 224.698476 120.150396 
L 227.772856 121.123035 
L 230.847237 121.933568 
L 233.921617 121.528302 
L 236.995997 119.664076 
L 240.070377 120.798822 
L 243.144757 122.095674 
L 246.219137 121.933568 
L 249.293518 121.933568 
L 252.367898 121.366195 
L 255.442278 122.419888 
L 258.516658 121.852515 
L 261.591038 121.609355 
L 264.665418 122.014621 
L 267.739799 122.581994 
L 270.814179 123.149367 
L 273.888559 122.906207 
L 276.962939 122.014621 
L 280.037319 122.744101 
L 283.111699 121.771461 
L 286.18608 123.71674 
L 289.26046 122.257781 
L 292.33484 122.176728 
L 295.40922 121.609355 
L 298.4836 122.581994 
L 301.55798 122.825154 
L 304.632361 123.149367 
L 307.706741 122.906207 
L 310.781121 122.338834 
L 313.855501 123.311474 
L 316.929881 123.797793 
L 320.004261 122.744101 
L 323.078642 123.71674 
L 326.153022 123.797793 
L 329.227402 123.23042 
L 332.301782 122.257781 
L 335.376162 123.635687 
L 338.450542 123.392527 
L 341.524923 123.392527 
L 344.599303 123.635687 
L 347.673683 123.71674 
L 350.748063 123.47358 
L 353.822443 123.878847 
" style="fill:none;stroke:#ff0000;stroke-linecap:square;stroke-width:1.5;"/>
   </g>
   <g id="line2d_11">
    <path clip-path="url(#pb0f07f1850)" d="M 49.458807 124.527273 
L 52.533187 101.021823 
L 55.607567 95.429147 
L 58.681947 95.185987 
L 61.756327 93.078602 
L 64.830708 94.942827 
L 67.905088 95.429147 
L 70.979468 94.618614 
L 74.053848 95.348094 
L 77.128228 94.456508 
L 80.202608 95.591254 
L 83.276989 94.456508 
L 86.351369 94.618614 
L 89.425749 94.213348 
L 92.500129 95.429147 
L 95.574509 95.75336 
L 98.648889 92.105963 
L 101.72327 94.618614 
L 104.79765 96.48284 
L 107.87203 96.320733 
L 110.94641 93.808081 
L 114.02079 95.185987 
L 117.09517 94.699667 
L 120.169551 97.617585 
L 123.243931 97.779692 
L 126.318311 96.48284 
L 129.392691 97.779692 
L 132.467071 98.428118 
L 135.541451 99.157598 
L 138.615832 98.266012 
L 141.690212 99.238651 
L 144.764592 98.833385 
L 147.838972 102.967102 
L 150.913352 100.292343 
L 153.987732 101.346036 
L 157.062113 102.967102 
L 160.136493 104.91238 
L 163.210873 105.479753 
L 166.285253 104.507114 
L 169.359633 105.560806 
L 172.434013 105.074487 
L 175.508394 106.047126 
L 178.582774 108.397671 
L 181.657154 108.559778 
L 184.731534 108.397671 
L 187.805914 108.721884 
L 190.880294 111.396642 
L 193.954675 110.505056 
L 197.029055 111.639802 
L 200.103435 111.639802 
L 203.177815 113.82824 
L 206.252195 112.288228 
L 209.326575 112.693495 
L 212.400956 114.152454 
L 215.475336 113.017708 
L 218.549716 115.206146 
L 221.624096 114.152454 
L 224.698476 115.530359 
L 227.772856 115.773519 
L 230.847237 117.070371 
L 233.921617 117.313531 
L 236.995997 115.206146 
L 240.070377 116.746158 
L 243.144757 117.799851 
L 246.219137 118.124064 
L 249.293518 116.097732 
L 252.367898 118.448277 
L 255.442278 120.474609 
L 258.516658 118.205117 
L 261.591038 117.475638 
L 264.665418 119.583023 
L 267.739799 119.339863 
L 270.814179 117.556691 
L 273.888559 121.123035 
L 276.962939 119.096703 
L 280.037319 120.474609 
L 283.111699 120.393556 
L 286.18608 120.798822 
L 289.26046 119.50197 
L 292.33484 119.988289 
L 295.40922 120.069343 
L 298.4836 120.555662 
L 301.55798 120.879875 
L 304.632361 120.636716 
L 307.706741 121.204088 
L 310.781121 122.095674 
L 313.855501 120.960929 
L 316.929881 122.744101 
L 320.004261 120.069343 
L 323.078642 122.095674 
L 326.153022 122.419888 
L 329.227402 120.879875 
L 332.301782 121.041982 
L 335.376162 121.852515 
L 338.450542 122.500941 
L 341.524923 122.419888 
L 344.599303 122.663047 
L 347.673683 122.987261 
L 350.748063 121.852515 
L 353.822443 122.500941 
" style="fill:none;stroke:#008000;stroke-linecap:square;stroke-width:1.5;"/>
   </g>
   <g id="patch_3">
    <path d="M 34.240625 128.057143 
L 34.240625 50.4 
" style="fill:none;stroke:#000000;stroke-linecap:square;stroke-linejoin:miter;stroke-width:0.8;"/>
   </g>
   <g id="patch_4">
    <path d="M 34.240625 128.057143 
L 369.040625 128.057143 
" style="fill:none;stroke:#000000;stroke-linecap:square;stroke-linejoin:miter;stroke-width:0.8;"/>
   </g>
   <g id="text_11">
    <!-- Trial Start Replays -->
    <g transform="translate(147.4925 44.4)scale(0.12 -0.12)">
     <defs>
      <path d="M 3425 4513 
L 3425 3897 
Q 3066 4069 2747 4153 
Q 2428 4238 2131 4238 
Q 1616 4238 1336 4038 
Q 1056 3838 1056 3469 
Q 1056 3159 1242 3001 
Q 1428 2844 1947 2747 
L 2328 2669 
Q 3034 2534 3370 2195 
Q 3706 1856 3706 1288 
Q 3706 609 3251 259 
Q 2797 -91 1919 -91 
Q 1588 -91 1214 -16 
Q 841 59 441 206 
L 441 856 
Q 825 641 1194 531 
Q 1563 422 1919 422 
Q 2459 422 2753 634 
Q 3047 847 3047 1241 
Q 3047 1584 2836 1778 
Q 2625 1972 2144 2069 
L 1759 2144 
Q 1053 2284 737 2584 
Q 422 2884 422 3419 
Q 422 4038 858 4394 
Q 1294 4750 2059 4750 
Q 2388 4750 2728 4690 
Q 3069 4631 3425 4513 
z
" id="DejaVuSans-53" transform="scale(0.015625)"/>
      <path d="M 1172 4494 
L 1172 3500 
L 2356 3500 
L 2356 3053 
L 1172 3053 
L 1172 1153 
Q 1172 725 1289 603 
Q 1406 481 1766 481 
L 2356 481 
L 2356 0 
L 1766 0 
Q 1100 0 847 248 
Q 594 497 594 1153 
L 594 3053 
L 172 3053 
L 172 3500 
L 594 3500 
L 594 4494 
L 1172 4494 
z
" id="DejaVuSans-74" transform="scale(0.015625)"/>
      <path d="M 2841 2188 
Q 3044 2119 3236 1894 
Q 3428 1669 3622 1275 
L 4263 0 
L 3584 0 
L 2988 1197 
Q 2756 1666 2539 1819 
Q 2322 1972 1947 1972 
L 1259 1972 
L 1259 0 
L 628 0 
L 628 4666 
L 2053 4666 
Q 2853 4666 3247 4331 
Q 3641 3997 3641 3322 
Q 3641 2881 3436 2590 
Q 3231 2300 2841 2188 
z
M 1259 4147 
L 1259 2491 
L 2053 2491 
Q 2509 2491 2742 2702 
Q 2975 2913 2975 3322 
Q 2975 3731 2742 3939 
Q 2509 4147 2053 4147 
L 1259 4147 
z
" id="DejaVuSans-52" transform="scale(0.015625)"/>
      <path d="M 3597 1894 
L 3597 1613 
L 953 1613 
Q 991 1019 1311 708 
Q 1631 397 2203 397 
Q 2534 397 2845 478 
Q 3156 559 3463 722 
L 3463 178 
Q 3153 47 2828 -22 
Q 2503 -91 2169 -91 
Q 1331 -91 842 396 
Q 353 884 353 1716 
Q 353 2575 817 3079 
Q 1281 3584 2069 3584 
Q 2775 3584 3186 3129 
Q 3597 2675 3597 1894 
z
M 3022 2063 
Q 3016 2534 2758 2815 
Q 2500 3097 2075 3097 
Q 1594 3097 1305 2825 
Q 1016 2553 972 2059 
L 3022 2063 
z
" id="DejaVuSans-65" transform="scale(0.015625)"/>
      <path d="M 1159 525 
L 1159 -1331 
L 581 -1331 
L 581 3500 
L 1159 3500 
L 1159 2969 
Q 1341 3281 1617 3432 
Q 1894 3584 2278 3584 
Q 2916 3584 3314 3078 
Q 3713 2572 3713 1747 
Q 3713 922 3314 415 
Q 2916 -91 2278 -91 
Q 1894 -91 1617 61 
Q 1341 213 1159 525 
z
M 3116 1747 
Q 3116 2381 2855 2742 
Q 2594 3103 2138 3103 
Q 1681 3103 1420 2742 
Q 1159 2381 1159 1747 
Q 1159 1113 1420 752 
Q 1681 391 2138 391 
Q 2594 391 2855 752 
Q 3116 1113 3116 1747 
z
" id="DejaVuSans-70" transform="scale(0.015625)"/>
      <path d="M 2059 -325 
Q 1816 -950 1584 -1140 
Q 1353 -1331 966 -1331 
L 506 -1331 
L 506 -850 
L 844 -850 
Q 1081 -850 1212 -737 
Q 1344 -625 1503 -206 
L 1606 56 
L 191 3500 
L 800 3500 
L 1894 763 
L 2988 3500 
L 3597 3500 
L 2059 -325 
z
" id="DejaVuSans-79" transform="scale(0.015625)"/>
     </defs>
     <use xlink:href="#DejaVuSans-54"/>
     <use x="46.333984" xlink:href="#DejaVuSans-72"/>
     <use x="87.447266" xlink:href="#DejaVuSans-69"/>
     <use x="115.230469" xlink:href="#DejaVuSans-61"/>
     <use x="176.509766" xlink:href="#DejaVuSans-6c"/>
     <use x="204.292969" xlink:href="#DejaVuSans-20"/>
     <use x="236.080078" xlink:href="#DejaVuSans-53"/>
     <use x="299.556641" xlink:href="#DejaVuSans-74"/>
     <use x="338.765625" xlink:href="#DejaVuSans-61"/>
     <use x="400.044922" xlink:href="#DejaVuSans-72"/>
     <use x="441.158203" xlink:href="#DejaVuSans-74"/>
     <use x="480.367188" xlink:href="#DejaVuSans-20"/>
     <use x="512.154297" xlink:href="#DejaVuSans-52"/>
     <use x="577.136719" xlink:href="#DejaVuSans-65"/>
     <use x="638.660156" xlink:href="#DejaVuSans-70"/>
     <use x="702.136719" xlink:href="#DejaVuSans-6c"/>
     <use x="729.919922" xlink:href="#DejaVuSans-61"/>
     <use x="791.199219" xlink:href="#DejaVuSans-79"/>
     <use x="850.378906" xlink:href="#DejaVuSans-73"/>
    </g>
   </g>
  </g>
  <g id="axes_2">
   <g id="patch_5">
    <path d="M 34.240625 267.84 
L 369.040625 267.84 
L 369.040625 190.182857 
L 34.240625 190.182857 
z
" style="fill:none;"/>
   </g>
   <g id="matplotlib.axis_3">
    <g id="xtick_7">
     <g id="line2d_12">
      <g>
       <use style="stroke:#000000;stroke-width:0.8;" x="49.458807" xlink:href="#m275263ae4f" y="267.84"/>
      </g>
     </g>
     <g id="text_12">
      <!-- 0 -->
      <g transform="translate(46.277557 282.438437)scale(0.1 -0.1)">
       <use xlink:href="#DejaVuSans-30"/>
      </g>
     </g>
    </g>
    <g id="xtick_8">
     <g id="line2d_13">
      <g>
       <use style="stroke:#000000;stroke-width:0.8;" x="110.94641" xlink:href="#m275263ae4f" y="267.84"/>
      </g>
     </g>
     <g id="text_13">
      <!-- 20 -->
      <g transform="translate(104.58391 282.438437)scale(0.1 -0.1)">
       <use xlink:href="#DejaVuSans-32"/>
       <use x="63.623047" xlink:href="#DejaVuSans-30"/>
      </g>
     </g>
    </g>
    <g id="xtick_9">
     <g id="line2d_14">
      <g>
       <use style="stroke:#000000;stroke-width:0.8;" x="172.434013" xlink:href="#m275263ae4f" y="267.84"/>
      </g>
     </g>
     <g id="text_14">
      <!-- 40 -->
      <g transform="translate(166.071513 282.438437)scale(0.1 -0.1)">
       <use xlink:href="#DejaVuSans-34"/>
       <use x="63.623047" xlink:href="#DejaVuSans-30"/>
      </g>
     </g>
    </g>
    <g id="xtick_10">
     <g id="line2d_15">
      <g>
       <use style="stroke:#000000;stroke-width:0.8;" x="233.921617" xlink:href="#m275263ae4f" y="267.84"/>
      </g>
     </g>
     <g id="text_15">
      <!-- 60 -->
      <g transform="translate(227.559117 282.438437)scale(0.1 -0.1)">
       <use xlink:href="#DejaVuSans-36"/>
       <use x="63.623047" xlink:href="#DejaVuSans-30"/>
      </g>
     </g>
    </g>
    <g id="xtick_11">
     <g id="line2d_16">
      <g>
       <use style="stroke:#000000;stroke-width:0.8;" x="295.40922" xlink:href="#m275263ae4f" y="267.84"/>
      </g>
     </g>
     <g id="text_16">
      <!-- 80 -->
      <g transform="translate(289.04672 282.438437)scale(0.1 -0.1)">
       <use xlink:href="#DejaVuSans-38"/>
       <use x="63.623047" xlink:href="#DejaVuSans-30"/>
      </g>
     </g>
    </g>
    <g id="xtick_12">
     <g id="line2d_17">
      <g>
       <use style="stroke:#000000;stroke-width:0.8;" x="356.896823" xlink:href="#m275263ae4f" y="267.84"/>
      </g>
     </g>
     <g id="text_17">
      <!-- 100 -->
      <g transform="translate(347.353073 282.438437)scale(0.1 -0.1)">
       <use xlink:href="#DejaVuSans-31"/>
       <use x="63.623047" xlink:href="#DejaVuSans-30"/>
       <use x="127.246094" xlink:href="#DejaVuSans-30"/>
      </g>
     </g>
    </g>
    <g id="text_18">
     <!-- Trial -->
     <g transform="translate(191.426563 296.116562)scale(0.1 -0.1)">
      <use xlink:href="#DejaVuSans-54"/>
      <use x="46.333984" xlink:href="#DejaVuSans-72"/>
      <use x="87.447266" xlink:href="#DejaVuSans-69"/>
      <use x="115.230469" xlink:href="#DejaVuSans-61"/>
      <use x="176.509766" xlink:href="#DejaVuSans-6c"/>
     </g>
    </g>
   </g>
   <g id="matplotlib.axis_4">
    <g id="ytick_3">
     <g id="line2d_18">
      <g>
       <use style="stroke:#000000;stroke-width:0.8;" x="34.240625" xlink:href="#me6eadc36c2" y="264.389901"/>
      </g>
     </g>
     <g id="text_19">
      <!-- 0 -->
      <g transform="translate(20.878125 268.18912)scale(0.1 -0.1)">
       <use xlink:href="#DejaVuSans-30"/>
      </g>
     </g>
    </g>
    <g id="ytick_4">
     <g id="line2d_19">
      <g>
       <use style="stroke:#000000;stroke-width:0.8;" x="34.240625" xlink:href="#me6eadc36c2" y="224.504363"/>
      </g>
     </g>
     <g id="text_20">
      <!-- 5 -->
      <g transform="translate(20.878125 228.303582)scale(0.1 -0.1)">
       <use xlink:href="#DejaVuSans-35"/>
      </g>
     </g>
    </g>
    <g id="text_21">
     <!-- Pairs [#] -->
     <g transform="translate(14.798437 250.595022)rotate(-90)scale(0.1 -0.1)">
      <use xlink:href="#DejaVuSans-50"/>
      <use x="55.802734" xlink:href="#DejaVuSans-61"/>
      <use x="117.082031" xlink:href="#DejaVuSans-69"/>
      <use x="144.865234" xlink:href="#DejaVuSans-72"/>
      <use x="185.978516" xlink:href="#DejaVuSans-73"/>
      <use x="238.078125" xlink:href="#DejaVuSans-20"/>
      <use x="269.865234" xlink:href="#DejaVuSans-5b"/>
      <use x="308.878906" xlink:href="#DejaVuSans-23"/>
      <use x="392.667969" xlink:href="#DejaVuSans-5d"/>
     </g>
    </g>
   </g>
   <g id="line2d_20">
    <path clip-path="url(#p748010cad9)" d="M 49.458807 238.783385 
L 52.533187 240.378807 
L 55.607567 240.059723 
L 58.681947 241.415831 
L 61.756327 240.937204 
L 64.830708 242.133771 
L 67.905088 241.096747 
L 70.979468 242.612397 
L 74.053848 241.894457 
L 77.128228 243.170795 
L 80.202608 243.250566 
L 83.276989 245.80324 
L 86.351369 245.324614 
L 89.425749 245.883011 
L 92.500129 243.888734 
L 95.574509 247.079577 
L 98.648889 246.840264 
L 101.72327 245.404385 
L 104.79765 246.840264 
L 107.87203 250.669276 
L 110.94641 249.632252 
L 114.02079 250.749047 
L 117.09517 251.387215 
L 120.169551 252.424239 
L 123.243931 251.945613 
L 126.318311 252.105155 
L 129.392691 252.663553 
L 132.467071 254.258974 
L 135.541451 255.216227 
L 138.615832 256.652107 
L 141.690212 255.45554 
L 144.764592 255.216227 
L 147.838972 256.093709 
L 150.913352 257.529588 
L 153.987732 257.449817 
L 157.062113 258.486841 
L 160.136493 258.167757 
L 163.210873 258.805926 
L 166.285253 258.40707 
L 169.359633 258.247528 
L 172.434013 258.566612 
L 175.508394 258.726155 
L 178.582774 259.683407 
L 181.657154 259.603636 
L 184.731534 261.757455 
L 187.805914 260.241805 
L 190.880294 261.119287 
L 193.954675 260.082263 
L 197.029055 261.438371 
L 200.103435 261.199058 
L 203.177815 260.720431 
L 206.252195 262.315853 
L 209.326575 261.3586 
L 212.400956 261.119287 
L 215.475336 261.757455 
L 218.549716 261.837227 
L 221.624096 261.438371 
L 224.698476 262.236082 
L 227.772856 261.916998 
L 230.847237 261.837227 
L 233.921617 262.315853 
L 236.995997 261.837227 
L 240.070377 261.677684 
L 243.144757 262.236082 
L 246.219137 262.794479 
L 249.293518 262.714708 
L 252.367898 262.714708 
L 255.442278 263.273106 
L 258.516658 262.87425 
L 261.591038 263.193335 
L 264.665418 262.87425 
L 267.739799 263.59219 
L 270.814179 262.634937 
L 273.888559 263.113564 
L 276.962939 262.555166 
L 280.037319 262.794479 
L 283.111699 262.794479 
L 286.18608 262.395624 
L 289.26046 263.671961 
L 292.33484 263.671961 
L 295.40922 263.671961 
L 298.4836 263.113564 
L 301.55798 262.714708 
L 304.632361 262.954022 
L 307.706741 263.113564 
L 310.781121 263.193335 
L 313.855501 262.555166 
L 316.929881 263.59219 
L 320.004261 263.273106 
L 323.078642 263.512419 
L 326.153022 263.991046 
L 329.227402 263.59219 
L 332.301782 263.113564 
L 335.376162 263.432648 
L 338.450542 264.31013 
L 341.524923 263.831503 
L 344.599303 262.954022 
L 347.673683 263.59219 
L 350.748063 263.59219 
L 353.822443 264.230359 
" style="fill:none;stroke:#0000ff;stroke-linecap:square;stroke-width:1.5;"/>
   </g>
   <g id="line2d_21">
    <path clip-path="url(#p748010cad9)" d="M 49.458807 242.133771 
L 52.533187 242.133771 
L 55.607567 244.845987 
L 58.681947 244.845987 
L 61.756327 245.643698 
L 64.830708 244.048276 
L 67.905088 244.367361 
L 70.979468 241.974228 
L 74.053848 242.771939 
L 77.128228 241.974228 
L 80.202608 241.33606 
L 83.276989 238.703614 
L 86.351369 239.421554 
L 89.425749 239.501325 
L 92.500129 237.427277 
L 95.574509 234.635289 
L 98.648889 236.549795 
L 101.72327 234.874603 
L 104.79765 233.757808 
L 107.87203 231.68376 
L 110.94641 230.487193 
L 114.02079 229.609712 
L 117.09517 227.057037 
L 120.169551 224.424592 
L 123.243931 226.179555 
L 126.318311 223.866194 
L 129.392691 222.82917 
L 132.467071 220.276496 
L 135.541451 216.766568 
L 138.615832 216.607026 
L 141.690212 215.968858 
L 144.764592 217.005882 
L 147.838972 215.570002 
L 150.913352 213.575725 
L 153.987732 212.618472 
L 157.062113 210.305111 
L 160.136493 211.980304 
L 163.210873 209.746714 
L 166.285253 208.390605 
L 169.359633 210.305111 
L 172.434013 209.268087 
L 175.508394 207.99175 
L 178.582774 206.316557 
L 181.657154 206.555871 
L 184.731534 203.52457 
L 187.805914 204.641365 
L 190.880294 201.849377 
L 193.954675 204.003196 
L 197.029055 201.450522 
L 200.103435 201.530293 
L 203.177815 201.849377 
L 206.252195 200.094413 
L 209.326575 201.530293 
L 212.400956 200.493269 
L 215.475336 199.695558 
L 218.549716 199.8551 
L 221.624096 200.174184 
L 224.698476 198.658534 
L 227.772856 199.057389 
L 230.847237 199.13716 
L 233.921617 198.020365 
L 236.995997 198.658534 
L 240.070377 198.33945 
L 243.144757 198.259679 
L 246.219137 196.664257 
L 249.293518 198.020365 
L 252.367898 197.940594 
L 255.442278 197.142884 
L 258.516658 196.90357 
L 261.591038 196.265402 
L 264.665418 196.504715 
L 267.739799 196.345173 
L 270.814179 196.983341 
L 273.888559 196.90357 
L 276.962939 197.063112 
L 280.037319 196.664257 
L 283.111699 196.823799 
L 286.18608 197.222655 
L 289.26046 195.308149 
L 292.33484 195.228378 
L 295.40922 195.148607 
L 298.4836 196.026088 
L 301.55798 196.345173 
L 304.632361 197.302426 
L 307.706741 195.707004 
L 310.781121 195.866546 
L 313.855501 196.584486 
L 316.929881 194.909293 
L 320.004261 196.185631 
L 323.078642 195.228378 
L 326.153022 194.590209 
L 329.227402 194.909293 
L 332.301782 195.627233 
L 335.376162 195.308149 
L 338.450542 193.712727 
L 341.524923 194.191354 
L 344.599303 195.866546 
L 347.673683 195.38792 
L 350.748063 195.308149 
L 353.822443 194.111583 
" style="fill:none;stroke:#ff0000;stroke-linecap:square;stroke-width:1.5;"/>
   </g>
   <g id="line2d_22">
    <path clip-path="url(#p748010cad9)" d="M 49.458807 240.458578 
L 52.533187 238.863157 
L 55.607567 236.470024 
L 58.681947 235.113916 
L 61.756327 234.794832 
L 64.830708 235.193687 
L 67.905088 235.911627 
L 70.979468 236.789109 
L 74.053848 236.709337 
L 77.128228 236.230711 
L 80.202608 236.789109 
L 83.276989 236.86888 
L 86.351369 236.629566 
L 89.425749 235.991398 
L 92.500129 240.059723 
L 95.574509 239.660867 
L 98.648889 237.985675 
L 101.72327 241.096747 
L 104.79765 240.777662 
L 107.87203 239.022699 
L 110.94641 241.256289 
L 114.02079 241.016976 
L 117.09517 242.931481 
L 120.169551 244.526903 
L 123.243931 243.250566 
L 126.318311 245.404385 
L 129.392691 245.883011 
L 132.467071 246.840264 
L 135.541451 249.392939 
L 138.615832 248.116601 
L 141.690212 249.951336 
L 144.764592 249.153625 
L 147.838972 249.712023 
L 150.913352 250.27042 
L 153.987732 251.307444 
L 157.062113 252.583782 
L 160.136493 251.227673 
L 163.210873 252.823095 
L 166.285253 254.578059 
L 169.359633 252.823095 
L 172.434013 253.541035 
L 175.508394 254.65783 
L 178.582774 255.375769 
L 181.657154 255.216227 
L 184.731534 256.093709 
L 187.805914 256.492564 
L 190.880294 258.40707 
L 193.954675 257.290275 
L 197.029055 258.486841 
L 200.103435 258.646383 
L 203.177815 258.805926 
L 206.252195 258.965468 
L 209.326575 258.486841 
L 212.400956 259.763179 
L 215.475336 259.922721 
L 218.549716 259.683407 
L 221.624096 259.763179 
L 224.698476 260.481118 
L 227.772856 260.401347 
L 230.847237 260.401347 
L 233.921617 261.039516 
L 236.995997 260.879974 
L 240.070377 261.3586 
L 243.144757 260.879974 
L 246.219137 261.916998 
L 249.293518 260.64066 
L 252.367898 260.720431 
L 255.442278 260.959745 
L 258.516658 261.597913 
L 261.591038 261.916998 
L 264.665418 261.996769 
L 267.739799 261.438371 
L 270.814179 261.757455 
L 273.888559 261.3586 
L 276.962939 261.757455 
L 280.037319 261.916998 
L 283.111699 261.757455 
L 286.18608 261.757455 
L 289.26046 262.395624 
L 292.33484 262.475395 
L 295.40922 262.555166 
L 298.4836 262.236082 
L 301.55798 262.315853 
L 304.632361 261.119287 
L 307.706741 262.555166 
L 310.781121 262.315853 
L 313.855501 262.236082 
L 316.929881 262.87425 
L 320.004261 261.916998 
L 323.078642 262.634937 
L 326.153022 262.794479 
L 329.227402 262.87425 
L 332.301782 262.634937 
L 335.376162 262.634937 
L 338.450542 263.352877 
L 341.524923 263.352877 
L 344.599303 262.555166 
L 347.673683 262.395624 
L 350.748063 262.475395 
L 353.822443 263.033793 
" style="fill:none;stroke:#008000;stroke-linecap:square;stroke-width:1.5;"/>
   </g>
   <g id="patch_6">
    <path d="M 34.240625 267.84 
L 34.240625 190.182857 
" style="fill:none;stroke:#000000;stroke-linecap:square;stroke-linejoin:miter;stroke-width:0.8;"/>
   </g>
   <g id="patch_7">
    <path d="M 34.240625 267.84 
L 369.040625 267.84 
" style="fill:none;stroke:#000000;stroke-linecap:square;stroke-linejoin:miter;stroke-width:0.8;"/>
   </g>
   <g id="text_22">
    <!-- Trial End Replays -->
    <g transform="translate(150.746563 184.182857)scale(0.12 -0.12)">
     <defs>
      <path d="M 628 4666 
L 3578 4666 
L 3578 4134 
L 1259 4134 
L 1259 2753 
L 3481 2753 
L 3481 2222 
L 1259 2222 
L 1259 531 
L 3634 531 
L 3634 0 
L 628 0 
L 628 4666 
z
" id="DejaVuSans-45" transform="scale(0.015625)"/>
      <path d="M 3513 2113 
L 3513 0 
L 2938 0 
L 2938 2094 
Q 2938 2591 2744 2837 
Q 2550 3084 2163 3084 
Q 1697 3084 1428 2787 
Q 1159 2491 1159 1978 
L 1159 0 
L 581 0 
L 581 3500 
L 1159 3500 
L 1159 2956 
Q 1366 3272 1645 3428 
Q 1925 3584 2291 3584 
Q 2894 3584 3203 3211 
Q 3513 2838 3513 2113 
z
" id="DejaVuSans-6e" transform="scale(0.015625)"/>
      <path d="M 2906 2969 
L 2906 4863 
L 3481 4863 
L 3481 0 
L 2906 0 
L 2906 525 
Q 2725 213 2448 61 
Q 2172 -91 1784 -91 
Q 1150 -91 751 415 
Q 353 922 353 1747 
Q 353 2572 751 3078 
Q 1150 3584 1784 3584 
Q 2172 3584 2448 3432 
Q 2725 3281 2906 2969 
z
M 947 1747 
Q 947 1113 1208 752 
Q 1469 391 1925 391 
Q 2381 391 2643 752 
Q 2906 1113 2906 1747 
Q 2906 2381 2643 2742 
Q 2381 3103 1925 3103 
Q 1469 3103 1208 2742 
Q 947 2381 947 1747 
z
" id="DejaVuSans-64" transform="scale(0.015625)"/>
     </defs>
     <use xlink:href="#DejaVuSans-54"/>
     <use x="46.333984" xlink:href="#DejaVuSans-72"/>
     <use x="87.447266" xlink:href="#DejaVuSans-69"/>
     <use x="115.230469" xlink:href="#DejaVuSans-61"/>
     <use x="176.509766" xlink:href="#DejaVuSans-6c"/>
     <use x="204.292969" xlink:href="#DejaVuSans-20"/>
     <use x="236.080078" xlink:href="#DejaVuSans-45"/>
     <use x="299.263672" xlink:href="#DejaVuSans-6e"/>
     <use x="362.642578" xlink:href="#DejaVuSans-64"/>
     <use x="426.119141" xlink:href="#DejaVuSans-20"/>
     <use x="457.90625" xlink:href="#DejaVuSans-52"/>
     <use x="522.888672" xlink:href="#DejaVuSans-65"/>
     <use x="584.412109" xlink:href="#DejaVuSans-70"/>
     <use x="647.888672" xlink:href="#DejaVuSans-6c"/>
     <use x="675.671875" xlink:href="#DejaVuSans-61"/>
     <use x="736.951172" xlink:href="#DejaVuSans-79"/>
     <use x="796.130859" xlink:href="#DejaVuSans-73"/>
    </g>
   </g>
   <g id="legend_1">
    <g id="patch_8">
     <path d="M 48.314375 333.882321 
L 354.966875 333.882321 
Q 357.366875 333.882321 357.366875 331.482321 
L 357.366875 315.068571 
Q 357.366875 312.668571 354.966875 312.668571 
L 48.314375 312.668571 
Q 45.914375 312.668571 45.914375 315.068571 
L 45.914375 331.482321 
Q 45.914375 333.882321 48.314375 333.882321 
z
" style="fill:none;opacity:0;"/>
    </g>
    <g id="line2d_23">
     <path d="M 50.714375 322.386696 
L 74.714375 322.386696 
" style="fill:none;stroke:#0000ff;stroke-linecap:square;stroke-width:1.5;"/>
    </g>
    <g id="line2d_24"/>
    <g id="text_23">
     <!-- forward -->
     <g transform="translate(84.314375 326.586696)scale(0.12 -0.12)">
      <defs>
       <path d="M 2375 4863 
L 2375 4384 
L 1825 4384 
Q 1516 4384 1395 4259 
Q 1275 4134 1275 3809 
L 1275 3500 
L 2222 3500 
L 2222 3053 
L 1275 3053 
L 1275 0 
L 697 0 
L 697 3053 
L 147 3053 
L 147 3500 
L 697 3500 
L 697 3744 
Q 697 4328 969 4595 
Q 1241 4863 1831 4863 
L 2375 4863 
z
" id="DejaVuSans-66" transform="scale(0.015625)"/>
       <path d="M 1959 3097 
Q 1497 3097 1228 2736 
Q 959 2375 959 1747 
Q 959 1119 1226 758 
Q 1494 397 1959 397 
Q 2419 397 2687 759 
Q 2956 1122 2956 1747 
Q 2956 2369 2687 2733 
Q 2419 3097 1959 3097 
z
M 1959 3584 
Q 2709 3584 3137 3096 
Q 3566 2609 3566 1747 
Q 3566 888 3137 398 
Q 2709 -91 1959 -91 
Q 1206 -91 779 398 
Q 353 888 353 1747 
Q 353 2609 779 3096 
Q 1206 3584 1959 3584 
z
" id="DejaVuSans-6f" transform="scale(0.015625)"/>
       <path d="M 269 3500 
L 844 3500 
L 1563 769 
L 2278 3500 
L 2956 3500 
L 3675 769 
L 4391 3500 
L 4966 3500 
L 4050 0 
L 3372 0 
L 2619 2869 
L 1863 0 
L 1184 0 
L 269 3500 
z
" id="DejaVuSans-77" transform="scale(0.015625)"/>
      </defs>
      <use xlink:href="#DejaVuSans-66"/>
      <use x="35.205078" xlink:href="#DejaVuSans-6f"/>
      <use x="96.386719" xlink:href="#DejaVuSans-72"/>
      <use x="137.5" xlink:href="#DejaVuSans-77"/>
      <use x="219.287109" xlink:href="#DejaVuSans-61"/>
      <use x="280.566406" xlink:href="#DejaVuSans-72"/>
      <use x="319.929688" xlink:href="#DejaVuSans-64"/>
     </g>
    </g>
    <g id="line2d_25">
     <path d="M 154.323125 322.386696 
L 178.323125 322.386696 
" style="fill:none;stroke:#ff0000;stroke-linecap:square;stroke-width:1.5;"/>
    </g>
    <g id="line2d_26"/>
    <g id="text_24">
     <!-- reverse -->
     <g transform="translate(187.923125 326.586696)scale(0.12 -0.12)">
      <defs>
       <path d="M 191 3500 
L 800 3500 
L 1894 563 
L 2988 3500 
L 3597 3500 
L 2284 0 
L 1503 0 
L 191 3500 
z
" id="DejaVuSans-76" transform="scale(0.015625)"/>
      </defs>
      <use xlink:href="#DejaVuSans-72"/>
      <use x="38.863281" xlink:href="#DejaVuSans-65"/>
      <use x="100.386719" xlink:href="#DejaVuSans-76"/>
      <use x="159.566406" xlink:href="#DejaVuSans-65"/>
      <use x="221.089844" xlink:href="#DejaVuSans-72"/>
      <use x="262.203125" xlink:href="#DejaVuSans-73"/>
      <use x="314.302734" xlink:href="#DejaVuSans-65"/>
     </g>
    </g>
    <g id="line2d_27">
     <path d="M 257.024375 322.386696 
L 281.024375 322.386696 
" style="fill:none;stroke:#008000;stroke-linecap:square;stroke-width:1.5;"/>
    </g>
    <g id="line2d_28"/>
    <g id="text_25">
     <!-- unordered -->
     <g transform="translate(290.624375 326.586696)scale(0.12 -0.12)">
      <defs>
       <path d="M 544 1381 
L 544 3500 
L 1119 3500 
L 1119 1403 
Q 1119 906 1312 657 
Q 1506 409 1894 409 
Q 2359 409 2629 706 
Q 2900 1003 2900 1516 
L 2900 3500 
L 3475 3500 
L 3475 0 
L 2900 0 
L 2900 538 
Q 2691 219 2414 64 
Q 2138 -91 1772 -91 
Q 1169 -91 856 284 
Q 544 659 544 1381 
z
M 1991 3584 
L 1991 3584 
z
" id="DejaVuSans-75" transform="scale(0.015625)"/>
      </defs>
      <use xlink:href="#DejaVuSans-75"/>
      <use x="63.378906" xlink:href="#DejaVuSans-6e"/>
      <use x="126.757812" xlink:href="#DejaVuSans-6f"/>
      <use x="187.939453" xlink:href="#DejaVuSans-72"/>
      <use x="227.302734" xlink:href="#DejaVuSans-64"/>
      <use x="290.779297" xlink:href="#DejaVuSans-65"/>
      <use x="352.302734" xlink:href="#DejaVuSans-72"/>
      <use x="391.166016" xlink:href="#DejaVuSans-65"/>
      <use x="452.689453" xlink:href="#DejaVuSans-64"/>
     </g>
    </g>
   </g>
  </g>
  <g id="text_26">
   <!-- Open Field, Default Mode -->
   <g transform="translate(101.520313 18.597656)scale(0.15 -0.15)">
    <defs>
     <path d="M 2522 4238 
Q 1834 4238 1429 3725 
Q 1025 3213 1025 2328 
Q 1025 1447 1429 934 
Q 1834 422 2522 422 
Q 3209 422 3611 934 
Q 4013 1447 4013 2328 
Q 4013 3213 3611 3725 
Q 3209 4238 2522 4238 
z
M 2522 4750 
Q 3503 4750 4090 4092 
Q 4678 3434 4678 2328 
Q 4678 1225 4090 567 
Q 3503 -91 2522 -91 
Q 1538 -91 948 565 
Q 359 1222 359 2328 
Q 359 3434 948 4092 
Q 1538 4750 2522 4750 
z
" id="DejaVuSans-4f" transform="scale(0.015625)"/>
     <path d="M 628 4666 
L 3309 4666 
L 3309 4134 
L 1259 4134 
L 1259 2759 
L 3109 2759 
L 3109 2228 
L 1259 2228 
L 1259 0 
L 628 0 
L 628 4666 
z
" id="DejaVuSans-46" transform="scale(0.015625)"/>
     <path d="M 750 794 
L 1409 794 
L 1409 256 
L 897 -744 
L 494 -744 
L 750 256 
L 750 794 
z
" id="DejaVuSans-2c" transform="scale(0.015625)"/>
     <path d="M 1259 4147 
L 1259 519 
L 2022 519 
Q 2988 519 3436 956 
Q 3884 1394 3884 2338 
Q 3884 3275 3436 3711 
Q 2988 4147 2022 4147 
L 1259 4147 
z
M 628 4666 
L 1925 4666 
Q 3281 4666 3915 4102 
Q 4550 3538 4550 2338 
Q 4550 1131 3912 565 
Q 3275 0 1925 0 
L 628 0 
L 628 4666 
z
" id="DejaVuSans-44" transform="scale(0.015625)"/>
     <path d="M 628 4666 
L 1569 4666 
L 2759 1491 
L 3956 4666 
L 4897 4666 
L 4897 0 
L 4281 0 
L 4281 4097 
L 3078 897 
L 2444 897 
L 1241 4097 
L 1241 0 
L 628 0 
L 628 4666 
z
" id="DejaVuSans-4d" transform="scale(0.015625)"/>
    </defs>
    <use xlink:href="#DejaVuSans-4f"/>
    <use x="78.710938" xlink:href="#DejaVuSans-70"/>
    <use x="142.1875" xlink:href="#DejaVuSans-65"/>
    <use x="203.710938" xlink:href="#DejaVuSans-6e"/>
    <use x="267.089844" xlink:href="#DejaVuSans-20"/>
    <use x="298.876953" xlink:href="#DejaVuSans-46"/>
    <use x="349.146484" xlink:href="#DejaVuSans-69"/>
    <use x="376.929688" xlink:href="#DejaVuSans-65"/>
    <use x="438.453125" xlink:href="#DejaVuSans-6c"/>
    <use x="466.236328" xlink:href="#DejaVuSans-64"/>
    <use x="529.712891" xlink:href="#DejaVuSans-2c"/>
    <use x="561.5" xlink:href="#DejaVuSans-20"/>
    <use x="593.287109" xlink:href="#DejaVuSans-44"/>
    <use x="670.289062" xlink:href="#DejaVuSans-65"/>
    <use x="731.8125" xlink:href="#DejaVuSans-66"/>
    <use x="767.017578" xlink:href="#DejaVuSans-61"/>
    <use x="828.296875" xlink:href="#DejaVuSans-75"/>
    <use x="891.675781" xlink:href="#DejaVuSans-6c"/>
    <use x="919.458984" xlink:href="#DejaVuSans-74"/>
    <use x="958.667969" xlink:href="#DejaVuSans-20"/>
    <use x="990.455078" xlink:href="#DejaVuSans-4d"/>
    <use x="1076.734375" xlink:href="#DejaVuSans-6f"/>
    <use x="1137.916016" xlink:href="#DejaVuSans-64"/>
    <use x="1201.392578" xlink:href="#DejaVuSans-65"/>
   </g>
  </g>
 </g>
 <defs>
  <clipPath id="pb0f07f1850">
   <rect height="77.657143" width="334.8" x="34.240625" y="50.4"/>
  </clipPath>
  <clipPath id="p748010cad9">
   <rect height="77.657143" width="334.8" x="34.240625" y="190.182857"/>
  </clipPath>
 </defs>
</svg>
