<?xml version="1.0" encoding="utf-8" standalone="no"?>
<!DOCTYPE svg PUBLIC "-//W3C//DTD SVG 1.1//EN"
  "http://www.w3.org/Graphics/SVG/1.1/DTD/svg11.dtd">
<svg height="341.082321pt" version="1.1" viewBox="0 0 376.240625 341.082321" width="376.240625pt" xmlns="http://www.w3.org/2000/svg" xmlns:xlink="http://www.w3.org/1999/xlink">
 <metadata>
  <rdf:RDF xmlns:cc="http://creativecommons.org/ns#" xmlns:dc="http://purl.org/dc/elements/1.1/" xmlns:rdf="http://www.w3.org/1999/02/22-rdf-syntax-ns#">
   <cc:Work>
    <dc:type rdf:resource="http://purl.org/dc/dcmitype/StillImage"/>
    <dc:date>2023-02-09T00:59:52.342462</dc:date>
    <dc:format>image/svg+xml</dc:format>
    <dc:creator>
     <cc:Agent>
      <dc:title>Matplotlib v3.4.3, https://matplotlib.org/</dc:title>
     </cc:Agent>
    </dc:creator>
   </cc:Work>
  </rdf:RDF>
 </metadata>
 <defs>
  <style type="text/css">*{stroke-linecap:butt;stroke-linejoin:round;}</style>
 </defs>
 <g id="figure_1">
  <g id="patch_1">
   <path d="M 0 341.082321 
L 376.240625 341.082321 
L 376.240625 0 
L 0 0 
z
" style="fill:none;"/>
  </g>
  <g id="axes_1">
   <g id="patch_2">
    <path d="M 34.240625 128.057143 
L 369.040625 128.057143 
L 369.040625 50.4 
L 34.240625 50.4 
z
" style="fill:none;"/>
   </g>
   <g id="matplotlib.axis_1">
    <g id="xtick_1">
     <g id="line2d_1">
      <defs>
       <path d="M 0 0 
L 0 3.5 
" id="m086c595d32" style="stroke:#000000;stroke-width:0.8;"/>
      </defs>
      <g>
       <use style="stroke:#000000;stroke-width:0.8;" x="49.458807" xlink:href="#m086c595d32" y="128.057143"/>
      </g>
     </g>
     <g id="text_1">
      <!-- 0 -->
      <g transform="translate(46.277557 142.65558)scale(0.1 -0.1)">
       <defs>
        <path d="M 2034 4250 
Q 1547 4250 1301 3770 
Q 1056 3291 1056 2328 
Q 1056 1369 1301 889 
Q 1547 409 2034 409 
Q 2525 409 2770 889 
Q 3016 1369 3016 2328 
Q 3016 3291 2770 3770 
Q 2525 4250 2034 4250 
z
M 2034 4750 
Q 2819 4750 3233 4129 
Q 3647 3509 3647 2328 
Q 3647 1150 3233 529 
Q 2819 -91 2034 -91 
Q 1250 -91 836 529 
Q 422 1150 422 2328 
Q 422 3509 836 4129 
Q 1250 4750 2034 4750 
z
" id="DejaVuSans-30" transform="scale(0.015625)"/>
       </defs>
       <use xlink:href="#DejaVuSans-30"/>
      </g>
     </g>
    </g>
    <g id="xtick_2">
     <g id="line2d_2">
      <g>
       <use style="stroke:#000000;stroke-width:0.8;" x="110.94641" xlink:href="#m086c595d32" y="128.057143"/>
      </g>
     </g>
     <g id="text_2">
      <!-- 20 -->
      <g transform="translate(104.58391 142.65558)scale(0.1 -0.1)">
       <defs>
        <path d="M 1228 531 
L 3431 531 
L 3431 0 
L 469 0 
L 469 531 
Q 828 903 1448 1529 
Q 2069 2156 2228 2338 
Q 2531 2678 2651 2914 
Q 2772 3150 2772 3378 
Q 2772 3750 2511 3984 
Q 2250 4219 1831 4219 
Q 1534 4219 1204 4116 
Q 875 4013 500 3803 
L 500 4441 
Q 881 4594 1212 4672 
Q 1544 4750 1819 4750 
Q 2544 4750 2975 4387 
Q 3406 4025 3406 3419 
Q 3406 3131 3298 2873 
Q 3191 2616 2906 2266 
Q 2828 2175 2409 1742 
Q 1991 1309 1228 531 
z
" id="DejaVuSans-32" transform="scale(0.015625)"/>
       </defs>
       <use xlink:href="#DejaVuSans-32"/>
       <use x="63.623047" xlink:href="#DejaVuSans-30"/>
      </g>
     </g>
    </g>
    <g id="xtick_3">
     <g id="line2d_3">
      <g>
       <use style="stroke:#000000;stroke-width:0.8;" x="172.434013" xlink:href="#m086c595d32" y="128.057143"/>
      </g>
     </g>
     <g id="text_3">
      <!-- 40 -->
      <g transform="translate(166.071513 142.65558)scale(0.1 -0.1)">
       <defs>
        <path d="M 2419 4116 
L 825 1625 
L 2419 1625 
L 2419 4116 
z
M 2253 4666 
L 3047 4666 
L 3047 1625 
L 3713 1625 
L 3713 1100 
L 3047 1100 
L 3047 0 
L 2419 0 
L 2419 1100 
L 313 1100 
L 313 1709 
L 2253 4666 
z
" id="DejaVuSans-34" transform="scale(0.015625)"/>
       </defs>
       <use xlink:href="#DejaVuSans-34"/>
       <use x="63.623047" xlink:href="#DejaVuSans-30"/>
      </g>
     </g>
    </g>
    <g id="xtick_4">
     <g id="line2d_4">
      <g>
       <use style="stroke:#000000;stroke-width:0.8;" x="233.921617" xlink:href="#m086c595d32" y="128.057143"/>
      </g>
     </g>
     <g id="text_4">
      <!-- 60 -->
      <g transform="translate(227.559117 142.65558)scale(0.1 -0.1)">
       <defs>
        <path d="M 2113 2584 
Q 1688 2584 1439 2293 
Q 1191 2003 1191 1497 
Q 1191 994 1439 701 
Q 1688 409 2113 409 
Q 2538 409 2786 701 
Q 3034 994 3034 1497 
Q 3034 2003 2786 2293 
Q 2538 2584 2113 2584 
z
M 3366 4563 
L 3366 3988 
Q 3128 4100 2886 4159 
Q 2644 4219 2406 4219 
Q 1781 4219 1451 3797 
Q 1122 3375 1075 2522 
Q 1259 2794 1537 2939 
Q 1816 3084 2150 3084 
Q 2853 3084 3261 2657 
Q 3669 2231 3669 1497 
Q 3669 778 3244 343 
Q 2819 -91 2113 -91 
Q 1303 -91 875 529 
Q 447 1150 447 2328 
Q 447 3434 972 4092 
Q 1497 4750 2381 4750 
Q 2619 4750 2861 4703 
Q 3103 4656 3366 4563 
z
" id="DejaVuSans-36" transform="scale(0.015625)"/>
       </defs>
       <use xlink:href="#DejaVuSans-36"/>
       <use x="63.623047" xlink:href="#DejaVuSans-30"/>
      </g>
     </g>
    </g>
    <g id="xtick_5">
     <g id="line2d_5">
      <g>
       <use style="stroke:#000000;stroke-width:0.8;" x="295.40922" xlink:href="#m086c595d32" y="128.057143"/>
      </g>
     </g>
     <g id="text_5">
      <!-- 80 -->
      <g transform="translate(289.04672 142.65558)scale(0.1 -0.1)">
       <defs>
        <path d="M 2034 2216 
Q 1584 2216 1326 1975 
Q 1069 1734 1069 1313 
Q 1069 891 1326 650 
Q 1584 409 2034 409 
Q 2484 409 2743 651 
Q 3003 894 3003 1313 
Q 3003 1734 2745 1975 
Q 2488 2216 2034 2216 
z
M 1403 2484 
Q 997 2584 770 2862 
Q 544 3141 544 3541 
Q 544 4100 942 4425 
Q 1341 4750 2034 4750 
Q 2731 4750 3128 4425 
Q 3525 4100 3525 3541 
Q 3525 3141 3298 2862 
Q 3072 2584 2669 2484 
Q 3125 2378 3379 2068 
Q 3634 1759 3634 1313 
Q 3634 634 3220 271 
Q 2806 -91 2034 -91 
Q 1263 -91 848 271 
Q 434 634 434 1313 
Q 434 1759 690 2068 
Q 947 2378 1403 2484 
z
M 1172 3481 
Q 1172 3119 1398 2916 
Q 1625 2713 2034 2713 
Q 2441 2713 2670 2916 
Q 2900 3119 2900 3481 
Q 2900 3844 2670 4047 
Q 2441 4250 2034 4250 
Q 1625 4250 1398 4047 
Q 1172 3844 1172 3481 
z
" id="DejaVuSans-38" transform="scale(0.015625)"/>
       </defs>
       <use xlink:href="#DejaVuSans-38"/>
       <use x="63.623047" xlink:href="#DejaVuSans-30"/>
      </g>
     </g>
    </g>
    <g id="xtick_6">
     <g id="line2d_6">
      <g>
       <use style="stroke:#000000;stroke-width:0.8;" x="356.896823" xlink:href="#m086c595d32" y="128.057143"/>
      </g>
     </g>
     <g id="text_6">
      <!-- 100 -->
      <g transform="translate(347.353073 142.65558)scale(0.1 -0.1)">
       <defs>
        <path d="M 794 531 
L 1825 531 
L 1825 4091 
L 703 3866 
L 703 4441 
L 1819 4666 
L 2450 4666 
L 2450 531 
L 3481 531 
L 3481 0 
L 794 0 
L 794 531 
z
" id="DejaVuSans-31" transform="scale(0.015625)"/>
       </defs>
       <use xlink:href="#DejaVuSans-31"/>
       <use x="63.623047" xlink:href="#DejaVuSans-30"/>
       <use x="127.246094" xlink:href="#DejaVuSans-30"/>
      </g>
     </g>
    </g>
    <g id="text_7">
     <!-- Trial -->
     <g transform="translate(191.426563 156.333705)scale(0.1 -0.1)">
      <defs>
       <path d="M -19 4666 
L 3928 4666 
L 3928 4134 
L 2272 4134 
L 2272 0 
L 1638 0 
L 1638 4134 
L -19 4134 
L -19 4666 
z
" id="DejaVuSans-54" transform="scale(0.015625)"/>
       <path d="M 2631 2963 
Q 2534 3019 2420 3045 
Q 2306 3072 2169 3072 
Q 1681 3072 1420 2755 
Q 1159 2438 1159 1844 
L 1159 0 
L 581 0 
L 581 3500 
L 1159 3500 
L 1159 2956 
Q 1341 3275 1631 3429 
Q 1922 3584 2338 3584 
Q 2397 3584 2469 3576 
Q 2541 3569 2628 3553 
L 2631 2963 
z
" id="DejaVuSans-72" transform="scale(0.015625)"/>
       <path d="M 603 3500 
L 1178 3500 
L 1178 0 
L 603 0 
L 603 3500 
z
M 603 4863 
L 1178 4863 
L 1178 4134 
L 603 4134 
L 603 4863 
z
" id="DejaVuSans-69" transform="scale(0.015625)"/>
       <path d="M 2194 1759 
Q 1497 1759 1228 1600 
Q 959 1441 959 1056 
Q 959 750 1161 570 
Q 1363 391 1709 391 
Q 2188 391 2477 730 
Q 2766 1069 2766 1631 
L 2766 1759 
L 2194 1759 
z
M 3341 1997 
L 3341 0 
L 2766 0 
L 2766 531 
Q 2569 213 2275 61 
Q 1981 -91 1556 -91 
Q 1019 -91 701 211 
Q 384 513 384 1019 
Q 384 1609 779 1909 
Q 1175 2209 1959 2209 
L 2766 2209 
L 2766 2266 
Q 2766 2663 2505 2880 
Q 2244 3097 1772 3097 
Q 1472 3097 1187 3025 
Q 903 2953 641 2809 
L 641 3341 
Q 956 3463 1253 3523 
Q 1550 3584 1831 3584 
Q 2591 3584 2966 3190 
Q 3341 2797 3341 1997 
z
" id="DejaVuSans-61" transform="scale(0.015625)"/>
       <path d="M 603 4863 
L 1178 4863 
L 1178 0 
L 603 0 
L 603 4863 
z
" id="DejaVuSans-6c" transform="scale(0.015625)"/>
      </defs>
      <use xlink:href="#DejaVuSans-54"/>
      <use x="46.333984" xlink:href="#DejaVuSans-72"/>
      <use x="87.447266" xlink:href="#DejaVuSans-69"/>
      <use x="115.230469" xlink:href="#DejaVuSans-61"/>
      <use x="176.509766" xlink:href="#DejaVuSans-6c"/>
     </g>
    </g>
   </g>
   <g id="matplotlib.axis_2">
    <g id="ytick_1">
     <g id="line2d_7">
      <defs>
       <path d="M 0 0 
L -3.5 0 
" id="m90ceb76826" style="stroke:#000000;stroke-width:0.8;"/>
      </defs>
      <g>
       <use style="stroke:#000000;stroke-width:0.8;" x="34.240625" xlink:href="#m90ceb76826" y="124.527273"/>
      </g>
     </g>
     <g id="text_8">
      <!-- 0 -->
      <g transform="translate(20.878125 128.326491)scale(0.1 -0.1)">
       <use xlink:href="#DejaVuSans-30"/>
      </g>
     </g>
    </g>
    <g id="ytick_2">
     <g id="line2d_8">
      <g>
       <use style="stroke:#000000;stroke-width:0.8;" x="34.240625" xlink:href="#m90ceb76826" y="84.506069"/>
      </g>
     </g>
     <g id="text_9">
      <!-- 5 -->
      <g transform="translate(20.878125 88.305288)scale(0.1 -0.1)">
       <defs>
        <path d="M 691 4666 
L 3169 4666 
L 3169 4134 
L 1269 4134 
L 1269 2991 
Q 1406 3038 1543 3061 
Q 1681 3084 1819 3084 
Q 2600 3084 3056 2656 
Q 3513 2228 3513 1497 
Q 3513 744 3044 326 
Q 2575 -91 1722 -91 
Q 1428 -91 1123 -41 
Q 819 9 494 109 
L 494 744 
Q 775 591 1075 516 
Q 1375 441 1709 441 
Q 2250 441 2565 725 
Q 2881 1009 2881 1497 
Q 2881 1984 2565 2268 
Q 2250 2553 1709 2553 
Q 1456 2553 1204 2497 
Q 953 2441 691 2322 
L 691 4666 
z
" id="DejaVuSans-35" transform="scale(0.015625)"/>
       </defs>
       <use xlink:href="#DejaVuSans-35"/>
      </g>
     </g>
    </g>
    <g id="text_10">
     <!-- Pairs [#] -->
     <g transform="translate(14.798437 110.812165)rotate(-90)scale(0.1 -0.1)">
      <defs>
       <path d="M 1259 4147 
L 1259 2394 
L 2053 2394 
Q 2494 2394 2734 2622 
Q 2975 2850 2975 3272 
Q 2975 3691 2734 3919 
Q 2494 4147 2053 4147 
L 1259 4147 
z
M 628 4666 
L 2053 4666 
Q 2838 4666 3239 4311 
Q 3641 3956 3641 3272 
Q 3641 2581 3239 2228 
Q 2838 1875 2053 1875 
L 1259 1875 
L 1259 0 
L 628 0 
L 628 4666 
z
" id="DejaVuSans-50" transform="scale(0.015625)"/>
       <path d="M 2834 3397 
L 2834 2853 
Q 2591 2978 2328 3040 
Q 2066 3103 1784 3103 
Q 1356 3103 1142 2972 
Q 928 2841 928 2578 
Q 928 2378 1081 2264 
Q 1234 2150 1697 2047 
L 1894 2003 
Q 2506 1872 2764 1633 
Q 3022 1394 3022 966 
Q 3022 478 2636 193 
Q 2250 -91 1575 -91 
Q 1294 -91 989 -36 
Q 684 19 347 128 
L 347 722 
Q 666 556 975 473 
Q 1284 391 1588 391 
Q 1994 391 2212 530 
Q 2431 669 2431 922 
Q 2431 1156 2273 1281 
Q 2116 1406 1581 1522 
L 1381 1569 
Q 847 1681 609 1914 
Q 372 2147 372 2553 
Q 372 3047 722 3315 
Q 1072 3584 1716 3584 
Q 2034 3584 2315 3537 
Q 2597 3491 2834 3397 
z
" id="DejaVuSans-73" transform="scale(0.015625)"/>
       <path id="DejaVuSans-20" transform="scale(0.015625)"/>
       <path d="M 550 4863 
L 1875 4863 
L 1875 4416 
L 1125 4416 
L 1125 -397 
L 1875 -397 
L 1875 -844 
L 550 -844 
L 550 4863 
z
" id="DejaVuSans-5b" transform="scale(0.015625)"/>
       <path d="M 3272 2816 
L 2363 2816 
L 2100 1772 
L 3016 1772 
L 3272 2816 
z
M 2803 4594 
L 2478 3297 
L 3391 3297 
L 3719 4594 
L 4219 4594 
L 3897 3297 
L 4872 3297 
L 4872 2816 
L 3775 2816 
L 3519 1772 
L 4513 1772 
L 4513 1294 
L 3397 1294 
L 3072 0 
L 2572 0 
L 2894 1294 
L 1978 1294 
L 1656 0 
L 1153 0 
L 1478 1294 
L 494 1294 
L 494 1772 
L 1594 1772 
L 1856 2816 
L 850 2816 
L 850 3297 
L 1978 3297 
L 2297 4594 
L 2803 4594 
z
" id="DejaVuSans-23" transform="scale(0.015625)"/>
       <path d="M 1947 4863 
L 1947 -844 
L 622 -844 
L 622 -397 
L 1369 -397 
L 1369 4416 
L 622 4416 
L 622 4863 
L 1947 4863 
z
" id="DejaVuSans-5d" transform="scale(0.015625)"/>
      </defs>
      <use xlink:href="#DejaVuSans-50"/>
      <use x="55.802734" xlink:href="#DejaVuSans-61"/>
      <use x="117.082031" xlink:href="#DejaVuSans-69"/>
      <use x="144.865234" xlink:href="#DejaVuSans-72"/>
      <use x="185.978516" xlink:href="#DejaVuSans-73"/>
      <use x="238.078125" xlink:href="#DejaVuSans-20"/>
      <use x="269.865234" xlink:href="#DejaVuSans-5b"/>
      <use x="308.878906" xlink:href="#DejaVuSans-23"/>
      <use x="392.667969" xlink:href="#DejaVuSans-5d"/>
     </g>
    </g>
   </g>
   <g id="line2d_9">
    <path clip-path="url(#peb9947baed)" d="M 49.458807 124.527273 
L 52.533187 91.149589 
L 55.607567 94.751497 
L 58.681947 94.991625 
L 61.756327 94.591413 
L 64.830708 95.391837 
L 67.905088 95.712006 
L 70.979468 95.391837 
L 74.053848 95.872091 
L 77.128228 94.671455 
L 80.202608 94.431328 
L 83.276989 93.790989 
L 86.351369 96.032176 
L 89.425749 96.672515 
L 92.500129 93.630904 
L 95.574509 94.111158 
L 98.648889 93.070607 
L 101.72327 92.19014 
L 104.79765 94.431328 
L 107.87203 93.310734 
L 110.94641 93.550861 
L 114.02079 92.83048 
L 117.09517 92.350225 
L 120.169551 92.030056 
L 123.243931 92.270183 
L 126.318311 89.228571 
L 129.392691 88.748317 
L 132.467071 88.428147 
L 135.541451 85.146409 
L 138.615832 84.1859 
L 141.690212 85.146409 
L 144.764592 84.746197 
L 147.838972 84.906281 
L 150.913352 79.463398 
L 153.987732 81.86467 
L 157.062113 81.144288 
L 160.136493 80.343864 
L 163.210873 80.503949 
L 166.285253 77.302253 
L 169.359633 77.062126 
L 172.434013 74.900981 
L 175.508394 74.020514 
L 178.582774 73.940472 
L 181.657154 71.459157 
L 184.731534 71.779327 
L 187.805914 70.89886 
L 190.880294 69.137927 
L 193.954675 68.257461 
L 197.029055 69.538139 
L 200.103435 68.097376 
L 203.177815 67.617122 
L 206.252195 65.215849 
L 209.326575 65.536019 
L 212.400956 64.335383 
L 215.475336 65.055765 
L 218.549716 62.494408 
L 221.624096 64.335383 
L 224.698476 62.014153 
L 227.772856 65.455977 
L 230.847237 62.174238 
L 233.921617 61.453856 
L 236.995997 60.333263 
L 240.070377 60.57339 
L 243.144757 60.733475 
L 246.219137 62.25428 
L 249.293518 60.413305 
L 252.367898 60.493347 
L 255.442278 56.891439 
L 258.516658 59.933051 
L 261.591038 60.013093 
L 264.665418 58.492287 
L 267.739799 57.93199 
L 270.814179 56.891439 
L 273.888559 57.851948 
L 276.962939 57.691863 
L 280.037319 54.890379 
L 283.111699 57.851948 
L 286.18608 55.130506 
L 289.26046 56.811397 
L 292.33484 56.891439 
L 295.40922 55.290591 
L 298.4836 56.171058 
L 301.55798 56.2511 
L 304.632361 56.971482 
L 307.706741 55.370633 
L 310.781121 55.530718 
L 313.855501 55.690803 
L 316.929881 55.210549 
L 320.004261 56.971482 
L 323.078642 54.970421 
L 326.153022 53.92987 
L 329.227402 55.93093 
L 332.301782 54.089955 
L 335.376162 55.290591 
L 338.450542 54.570209 
L 341.524923 54.730294 
L 344.599303 54.330082 
L 347.673683 54.730294 
L 350.748063 54.730294 
L 353.822443 54.490167 
" style="fill:none;stroke:#0000ff;stroke-linecap:square;stroke-width:1.5;"/>
   </g>
   <g id="line2d_10">
    <path clip-path="url(#peb9947baed)" d="M 49.458807 124.527273 
L 52.533187 109.559343 
L 55.607567 109.959555 
L 58.681947 109.639385 
L 61.756327 111.400318 
L 64.830708 110.599894 
L 67.905088 110.840021 
L 70.979468 110.519852 
L 74.053848 109.639385 
L 77.128228 111.320276 
L 80.202608 112.280785 
L 83.276989 111.160191 
L 86.351369 109.639385 
L 89.425749 110.11964 
L 92.500129 111.960615 
L 95.574509 111.400318 
L 98.648889 111.640445 
L 101.72327 111.960615 
L 104.79765 111.000106 
L 107.87203 112.040657 
L 110.94641 111.640445 
L 114.02079 112.680997 
L 117.09517 112.200742 
L 120.169551 112.200742 
L 123.243931 114.041717 
L 126.318311 112.440869 
L 129.392691 113.081209 
L 132.467071 114.12176 
L 135.541451 115.722608 
L 138.615832 114.361887 
L 141.690212 114.441929 
L 144.764592 114.201802 
L 147.838972 115.962735 
L 150.913352 116.362947 
L 153.987732 114.922184 
L 157.062113 115.562523 
L 160.136493 115.402438 
L 163.210873 116.843202 
L 166.285253 117.243414 
L 169.359633 115.322396 
L 172.434013 118.844262 
L 175.508394 119.164431 
L 178.582774 117.643626 
L 181.657154 119.404559 
L 184.731534 118.844262 
L 187.805914 120.365068 
L 190.880294 119.724728 
L 193.954675 120.204983 
L 197.029055 120.044898 
L 200.103435 119.564644 
L 203.177815 119.724728 
L 206.252195 121.725788 
L 209.326575 120.685237 
L 212.400956 121.885873 
L 215.475336 120.76528 
L 218.549716 122.045958 
L 221.624096 121.405619 
L 224.698476 122.44617 
L 227.772856 120.365068 
L 230.847237 122.286085 
L 233.921617 122.206043 
L 236.995997 122.686297 
L 240.070377 122.44617 
L 243.144757 122.366128 
L 246.219137 122.045958 
L 249.293518 121.645746 
L 252.367898 122.045958 
L 255.442278 123.486721 
L 258.516658 121.725788 
L 261.591038 122.926425 
L 264.665418 123.166552 
L 267.739799 122.686297 
L 270.814179 123.326637 
L 273.888559 122.76634 
L 276.962939 123.326637 
L 280.037319 124.287146 
L 283.111699 123.006467 
L 286.18608 123.886933 
L 289.26046 123.246594 
L 292.33484 123.246594 
L 295.40922 124.047018 
L 298.4836 123.246594 
L 301.55798 123.406679 
L 304.632361 123.406679 
L 307.706741 124.127061 
L 310.781121 123.326637 
L 313.855501 123.006467 
L 316.929881 123.726849 
L 320.004261 123.166552 
L 323.078642 123.486721 
L 326.153022 124.207103 
L 329.227402 123.246594 
L 332.301782 123.966976 
L 335.376162 123.646806 
L 338.450542 124.207103 
L 341.524923 123.886933 
L 344.599303 124.127061 
L 347.673683 123.726849 
L 350.748063 123.726849 
L 353.822443 124.047018 
" style="fill:none;stroke:#ff0000;stroke-linecap:square;stroke-width:1.5;"/>
   </g>
   <g id="line2d_11">
    <path clip-path="url(#peb9947baed)" d="M 49.458807 124.527273 
L 52.533187 100.83472 
L 55.607567 96.8326 
L 58.681947 96.912642 
L 61.756327 95.551922 
L 64.830708 95.551922 
L 67.905088 94.991625 
L 70.979468 95.631964 
L 74.053848 96.032176 
L 77.128228 95.551922 
L 80.202608 94.83154 
L 83.276989 96.592473 
L 86.351369 95.872091 
L 89.425749 94.751497 
L 92.500129 95.952134 
L 95.574509 96.032176 
L 98.648889 96.8326 
L 101.72327 97.392897 
L 104.79765 96.112218 
L 107.87203 96.192261 
L 110.94641 96.352346 
L 114.02079 96.032176 
L 117.09517 96.992685 
L 120.169551 97.312854 
L 123.243931 95.231752 
L 126.318311 99.874212 
L 129.392691 99.714127 
L 132.467071 98.993745 
L 135.541451 100.674636 
L 138.615832 102.995865 
L 141.690212 101.955314 
L 144.764592 102.595653 
L 147.838972 100.674636 
L 150.913352 105.717307 
L 153.987732 104.756798 
L 157.062113 104.836841 
L 160.136493 105.79735 
L 163.210873 104.196501 
L 166.285253 106.997986 
L 169.359633 109.159131 
L 172.434013 107.79841 
L 175.508394 108.358707 
L 178.582774 109.959555 
L 181.657154 110.679936 
L 184.731534 110.920064 
L 187.805914 110.279724 
L 190.880294 112.680997 
L 193.954675 113.081209 
L 197.029055 111.960615 
L 200.103435 113.881633 
L 203.177815 114.201802 
L 206.252195 114.602014 
L 209.326575 115.322396 
L 212.400956 115.322396 
L 215.475336 115.722608 
L 218.549716 117.003287 
L 221.624096 115.80265 
L 224.698476 117.083329 
L 227.772856 115.722608 
L 230.847237 117.083329 
L 233.921617 117.883753 
L 236.995997 118.524092 
L 240.070377 118.524092 
L 243.144757 118.44405 
L 246.219137 117.243414 
L 249.293518 119.484601 
L 252.367898 119.004347 
L 255.442278 121.165492 
L 258.516658 119.884813 
L 261.591038 118.604135 
L 264.665418 119.884813 
L 267.739799 120.925364 
L 270.814179 121.325576 
L 273.888559 120.925364 
L 276.962939 120.525152 
L 280.037319 122.366128 
L 283.111699 120.685237 
L 286.18608 122.526213 
L 289.26046 121.485661 
L 292.33484 121.405619 
L 295.40922 122.206043 
L 298.4836 122.126001 
L 301.55798 121.885873 
L 304.632361 121.165492 
L 307.706741 122.045958 
L 310.781121 122.686297 
L 313.855501 122.846382 
L 316.929881 122.606255 
L 320.004261 121.405619 
L 323.078642 123.086509 
L 326.153022 123.406679 
L 329.227402 122.366128 
L 332.301782 123.486721 
L 335.376162 122.606255 
L 338.450542 122.76634 
L 341.524923 122.926425 
L 344.599303 123.086509 
L 347.673683 123.086509 
L 350.748063 123.086509 
L 353.822443 123.006467 
" style="fill:none;stroke:#008000;stroke-linecap:square;stroke-width:1.5;"/>
   </g>
   <g id="patch_3">
    <path d="M 34.240625 128.057143 
L 34.240625 50.4 
" style="fill:none;stroke:#000000;stroke-linecap:square;stroke-linejoin:miter;stroke-width:0.8;"/>
   </g>
   <g id="patch_4">
    <path d="M 34.240625 128.057143 
L 369.040625 128.057143 
" style="fill:none;stroke:#000000;stroke-linecap:square;stroke-linejoin:miter;stroke-width:0.8;"/>
   </g>
   <g id="text_11">
    <!-- Trial Start Replays -->
    <g transform="translate(147.4925 44.4)scale(0.12 -0.12)">
     <defs>
      <path d="M 3425 4513 
L 3425 3897 
Q 3066 4069 2747 4153 
Q 2428 4238 2131 4238 
Q 1616 4238 1336 4038 
Q 1056 3838 1056 3469 
Q 1056 3159 1242 3001 
Q 1428 2844 1947 2747 
L 2328 2669 
Q 3034 2534 3370 2195 
Q 3706 1856 3706 1288 
Q 3706 609 3251 259 
Q 2797 -91 1919 -91 
Q 1588 -91 1214 -16 
Q 841 59 441 206 
L 441 856 
Q 825 641 1194 531 
Q 1563 422 1919 422 
Q 2459 422 2753 634 
Q 3047 847 3047 1241 
Q 3047 1584 2836 1778 
Q 2625 1972 2144 2069 
L 1759 2144 
Q 1053 2284 737 2584 
Q 422 2884 422 3419 
Q 422 4038 858 4394 
Q 1294 4750 2059 4750 
Q 2388 4750 2728 4690 
Q 3069 4631 3425 4513 
z
" id="DejaVuSans-53" transform="scale(0.015625)"/>
      <path d="M 1172 4494 
L 1172 3500 
L 2356 3500 
L 2356 3053 
L 1172 3053 
L 1172 1153 
Q 1172 725 1289 603 
Q 1406 481 1766 481 
L 2356 481 
L 2356 0 
L 1766 0 
Q 1100 0 847 248 
Q 594 497 594 1153 
L 594 3053 
L 172 3053 
L 172 3500 
L 594 3500 
L 594 4494 
L 1172 4494 
z
" id="DejaVuSans-74" transform="scale(0.015625)"/>
      <path d="M 2841 2188 
Q 3044 2119 3236 1894 
Q 3428 1669 3622 1275 
L 4263 0 
L 3584 0 
L 2988 1197 
Q 2756 1666 2539 1819 
Q 2322 1972 1947 1972 
L 1259 1972 
L 1259 0 
L 628 0 
L 628 4666 
L 2053 4666 
Q 2853 4666 3247 4331 
Q 3641 3997 3641 3322 
Q 3641 2881 3436 2590 
Q 3231 2300 2841 2188 
z
M 1259 4147 
L 1259 2491 
L 2053 2491 
Q 2509 2491 2742 2702 
Q 2975 2913 2975 3322 
Q 2975 3731 2742 3939 
Q 2509 4147 2053 4147 
L 1259 4147 
z
" id="DejaVuSans-52" transform="scale(0.015625)"/>
      <path d="M 3597 1894 
L 3597 1613 
L 953 1613 
Q 991 1019 1311 708 
Q 1631 397 2203 397 
Q 2534 397 2845 478 
Q 3156 559 3463 722 
L 3463 178 
Q 3153 47 2828 -22 
Q 2503 -91 2169 -91 
Q 1331 -91 842 396 
Q 353 884 353 1716 
Q 353 2575 817 3079 
Q 1281 3584 2069 3584 
Q 2775 3584 3186 3129 
Q 3597 2675 3597 1894 
z
M 3022 2063 
Q 3016 2534 2758 2815 
Q 2500 3097 2075 3097 
Q 1594 3097 1305 2825 
Q 1016 2553 972 2059 
L 3022 2063 
z
" id="DejaVuSans-65" transform="scale(0.015625)"/>
      <path d="M 1159 525 
L 1159 -1331 
L 581 -1331 
L 581 3500 
L 1159 3500 
L 1159 2969 
Q 1341 3281 1617 3432 
Q 1894 3584 2278 3584 
Q 2916 3584 3314 3078 
Q 3713 2572 3713 1747 
Q 3713 922 3314 415 
Q 2916 -91 2278 -91 
Q 1894 -91 1617 61 
Q 1341 213 1159 525 
z
M 3116 1747 
Q 3116 2381 2855 2742 
Q 2594 3103 2138 3103 
Q 1681 3103 1420 2742 
Q 1159 2381 1159 1747 
Q 1159 1113 1420 752 
Q 1681 391 2138 391 
Q 2594 391 2855 752 
Q 3116 1113 3116 1747 
z
" id="DejaVuSans-70" transform="scale(0.015625)"/>
      <path d="M 2059 -325 
Q 1816 -950 1584 -1140 
Q 1353 -1331 966 -1331 
L 506 -1331 
L 506 -850 
L 844 -850 
Q 1081 -850 1212 -737 
Q 1344 -625 1503 -206 
L 1606 56 
L 191 3500 
L 800 3500 
L 1894 763 
L 2988 3500 
L 3597 3500 
L 2059 -325 
z
" id="DejaVuSans-79" transform="scale(0.015625)"/>
     </defs>
     <use xlink:href="#DejaVuSans-54"/>
     <use x="46.333984" xlink:href="#DejaVuSans-72"/>
     <use x="87.447266" xlink:href="#DejaVuSans-69"/>
     <use x="115.230469" xlink:href="#DejaVuSans-61"/>
     <use x="176.509766" xlink:href="#DejaVuSans-6c"/>
     <use x="204.292969" xlink:href="#DejaVuSans-20"/>
     <use x="236.080078" xlink:href="#DejaVuSans-53"/>
     <use x="299.556641" xlink:href="#DejaVuSans-74"/>
     <use x="338.765625" xlink:href="#DejaVuSans-61"/>
     <use x="400.044922" xlink:href="#DejaVuSans-72"/>
     <use x="441.158203" xlink:href="#DejaVuSans-74"/>
     <use x="480.367188" xlink:href="#DejaVuSans-20"/>
     <use x="512.154297" xlink:href="#DejaVuSans-52"/>
     <use x="577.136719" xlink:href="#DejaVuSans-65"/>
     <use x="638.660156" xlink:href="#DejaVuSans-70"/>
     <use x="702.136719" xlink:href="#DejaVuSans-6c"/>
     <use x="729.919922" xlink:href="#DejaVuSans-61"/>
     <use x="791.199219" xlink:href="#DejaVuSans-79"/>
     <use x="850.378906" xlink:href="#DejaVuSans-73"/>
    </g>
   </g>
  </g>
  <g id="axes_2">
   <g id="patch_5">
    <path d="M 34.240625 267.84 
L 369.040625 267.84 
L 369.040625 190.182857 
L 34.240625 190.182857 
z
" style="fill:none;"/>
   </g>
   <g id="matplotlib.axis_3">
    <g id="xtick_7">
     <g id="line2d_12">
      <g>
       <use style="stroke:#000000;stroke-width:0.8;" x="49.458807" xlink:href="#m086c595d32" y="267.84"/>
      </g>
     </g>
     <g id="text_12">
      <!-- 0 -->
      <g transform="translate(46.277557 282.438437)scale(0.1 -0.1)">
       <use xlink:href="#DejaVuSans-30"/>
      </g>
     </g>
    </g>
    <g id="xtick_8">
     <g id="line2d_13">
      <g>
       <use style="stroke:#000000;stroke-width:0.8;" x="110.94641" xlink:href="#m086c595d32" y="267.84"/>
      </g>
     </g>
     <g id="text_13">
      <!-- 20 -->
      <g transform="translate(104.58391 282.438437)scale(0.1 -0.1)">
       <use xlink:href="#DejaVuSans-32"/>
       <use x="63.623047" xlink:href="#DejaVuSans-30"/>
      </g>
     </g>
    </g>
    <g id="xtick_9">
     <g id="line2d_14">
      <g>
       <use style="stroke:#000000;stroke-width:0.8;" x="172.434013" xlink:href="#m086c595d32" y="267.84"/>
      </g>
     </g>
     <g id="text_14">
      <!-- 40 -->
      <g transform="translate(166.071513 282.438437)scale(0.1 -0.1)">
       <use xlink:href="#DejaVuSans-34"/>
       <use x="63.623047" xlink:href="#DejaVuSans-30"/>
      </g>
     </g>
    </g>
    <g id="xtick_10">
     <g id="line2d_15">
      <g>
       <use style="stroke:#000000;stroke-width:0.8;" x="233.921617" xlink:href="#m086c595d32" y="267.84"/>
      </g>
     </g>
     <g id="text_15">
      <!-- 60 -->
      <g transform="translate(227.559117 282.438437)scale(0.1 -0.1)">
       <use xlink:href="#DejaVuSans-36"/>
       <use x="63.623047" xlink:href="#DejaVuSans-30"/>
      </g>
     </g>
    </g>
    <g id="xtick_11">
     <g id="line2d_16">
      <g>
       <use style="stroke:#000000;stroke-width:0.8;" x="295.40922" xlink:href="#m086c595d32" y="267.84"/>
      </g>
     </g>
     <g id="text_16">
      <!-- 80 -->
      <g transform="translate(289.04672 282.438437)scale(0.1 -0.1)">
       <use xlink:href="#DejaVuSans-38"/>
       <use x="63.623047" xlink:href="#DejaVuSans-30"/>
      </g>
     </g>
    </g>
    <g id="xtick_12">
     <g id="line2d_17">
      <g>
       <use style="stroke:#000000;stroke-width:0.8;" x="356.896823" xlink:href="#m086c595d32" y="267.84"/>
      </g>
     </g>
     <g id="text_17">
      <!-- 100 -->
      <g transform="translate(347.353073 282.438437)scale(0.1 -0.1)">
       <use xlink:href="#DejaVuSans-31"/>
       <use x="63.623047" xlink:href="#DejaVuSans-30"/>
       <use x="127.246094" xlink:href="#DejaVuSans-30"/>
      </g>
     </g>
    </g>
    <g id="text_18">
     <!-- Trial -->
     <g transform="translate(191.426563 296.116562)scale(0.1 -0.1)">
      <use xlink:href="#DejaVuSans-54"/>
      <use x="46.333984" xlink:href="#DejaVuSans-72"/>
      <use x="87.447266" xlink:href="#DejaVuSans-69"/>
      <use x="115.230469" xlink:href="#DejaVuSans-61"/>
      <use x="176.509766" xlink:href="#DejaVuSans-6c"/>
     </g>
    </g>
   </g>
   <g id="matplotlib.axis_4">
    <g id="ytick_3">
     <g id="line2d_18">
      <g>
       <use style="stroke:#000000;stroke-width:0.8;" x="34.240625" xlink:href="#m90ceb76826" y="264.470215"/>
      </g>
     </g>
     <g id="text_19">
      <!-- 0 -->
      <g transform="translate(20.878125 268.269433)scale(0.1 -0.1)">
       <use xlink:href="#DejaVuSans-30"/>
      </g>
     </g>
    </g>
    <g id="ytick_4">
     <g id="line2d_19">
      <g>
       <use style="stroke:#000000;stroke-width:0.8;" x="34.240625" xlink:href="#m90ceb76826" y="224.449011"/>
      </g>
     </g>
     <g id="text_20">
      <!-- 5 -->
      <g transform="translate(20.878125 228.24823)scale(0.1 -0.1)">
       <use xlink:href="#DejaVuSans-35"/>
      </g>
     </g>
    </g>
    <g id="text_21">
     <!-- Pairs [#] -->
     <g transform="translate(14.798437 250.595022)rotate(-90)scale(0.1 -0.1)">
      <use xlink:href="#DejaVuSans-50"/>
      <use x="55.802734" xlink:href="#DejaVuSans-61"/>
      <use x="117.082031" xlink:href="#DejaVuSans-69"/>
      <use x="144.865234" xlink:href="#DejaVuSans-72"/>
      <use x="185.978516" xlink:href="#DejaVuSans-73"/>
      <use x="238.078125" xlink:href="#DejaVuSans-20"/>
      <use x="269.865234" xlink:href="#DejaVuSans-5b"/>
      <use x="308.878906" xlink:href="#DejaVuSans-23"/>
      <use x="392.667969" xlink:href="#DejaVuSans-5d"/>
     </g>
    </g>
   </g>
   <g id="line2d_20">
    <path clip-path="url(#p54d612f742)" d="M 49.458807 240.137323 
L 52.533187 241.898256 
L 55.607567 238.616517 
L 58.681947 239.977238 
L 61.756327 240.857705 
L 64.830708 243.979359 
L 67.905088 241.738171 
L 70.979468 242.218426 
L 74.053848 244.219486 
L 77.128228 243.258977 
L 80.202608 244.939867 
L 83.276989 244.139443 
L 86.351369 247.34114 
L 89.425749 245.500164 
L 92.500129 246.620758 
L 95.574509 246.7008 
L 98.648889 246.220546 
L 101.72327 248.621818 
L 104.79765 250.222666 
L 107.87203 248.221606 
L 110.94641 250.702921 
L 114.02079 249.902497 
L 117.09517 250.542836 
L 120.169551 253.424363 
L 123.243931 253.824575 
L 126.318311 252.143684 
L 129.392691 254.144744 
L 132.467071 254.464914 
L 135.541451 254.945168 
L 138.615832 254.705041 
L 141.690212 256.786144 
L 144.764592 256.546016 
L 147.838972 255.425423 
L 150.913352 257.586568 
L 153.987732 258.707161 
L 157.062113 258.066822 
L 160.136493 259.827755 
L 163.210873 259.98784 
L 166.285253 259.98784 
L 169.359633 259.027331 
L 172.434013 261.428603 
L 175.508394 261.108434 
L 178.582774 260.388052 
L 181.657154 261.428603 
L 184.731534 260.628179 
L 187.805914 260.548137 
L 190.880294 260.948349 
L 193.954675 261.028391 
L 197.029055 261.9889 
L 200.103435 260.30801 
L 203.177815 261.588688 
L 206.252195 261.66873 
L 209.326575 262.068942 
L 212.400956 262.629239 
L 215.475336 261.588688 
L 218.549716 262.549197 
L 221.624096 262.629239 
L 224.698476 262.709282 
L 227.772856 263.269579 
L 230.847237 262.469155 
L 233.921617 262.629239 
L 236.995997 263.429663 
L 240.070377 262.869367 
L 243.144757 263.669791 
L 246.219137 262.709282 
L 249.293518 263.829875 
L 252.367898 263.909918 
L 255.442278 263.98996 
L 258.516658 263.749833 
L 261.591038 263.349621 
L 264.665418 263.429663 
L 267.739799 263.589748 
L 270.814179 263.189536 
L 273.888559 263.669791 
L 276.962939 263.269579 
L 280.037319 263.829875 
L 283.111699 264.070003 
L 286.18608 263.349621 
L 289.26046 264.230087 
L 292.33484 264.31013 
L 295.40922 263.749833 
L 298.4836 263.269579 
L 301.55798 263.909918 
L 304.632361 263.669791 
L 307.706741 263.749833 
L 310.781121 263.909918 
L 313.855501 263.98996 
L 316.929881 264.230087 
L 320.004261 263.509706 
L 323.078642 263.909918 
L 326.153022 264.150045 
L 329.227402 263.429663 
L 332.301782 263.509706 
L 335.376162 263.909918 
L 338.450542 264.150045 
L 341.524923 264.150045 
L 344.599303 263.98996 
L 347.673683 263.589748 
L 350.748063 263.749833 
L 353.822443 263.749833 
" style="fill:none;stroke:#0000ff;stroke-linecap:square;stroke-width:1.5;"/>
   </g>
   <g id="line2d_21">
    <path clip-path="url(#p54d612f742)" d="M 49.458807 240.37745 
L 52.533187 239.817153 
L 55.607567 244.859825 
L 58.681947 243.739231 
L 61.756327 243.098892 
L 64.830708 241.658129 
L 67.905088 240.69762 
L 70.979468 240.537535 
L 74.053848 236.615457 
L 77.128228 238.056221 
L 80.202608 239.336899 
L 83.276989 237.095712 
L 86.351369 235.654948 
L 89.425749 236.05516 
L 92.500129 234.37427 
L 95.574509 234.0541 
L 98.648889 235.815033 
L 101.72327 231.012489 
L 104.79765 228.05092 
L 107.87203 230.772362 
L 110.94641 228.211005 
L 114.02079 228.531174 
L 117.09517 226.530114 
L 120.169551 223.328418 
L 123.243931 223.888715 
L 126.318311 224.449011 
L 129.392691 220.526933 
L 132.467071 218.926085 
L 135.541451 218.605916 
L 138.615832 218.205704 
L 141.690212 214.443711 
L 144.764592 213.563244 
L 147.838972 214.203583 
L 150.913352 212.122481 
L 153.987732 210.601675 
L 157.062113 211.242014 
L 160.136493 208.520572 
L 163.210873 206.43947 
L 166.285253 207.079809 
L 169.359633 207.239894 
L 172.434013 204.518452 
L 175.508394 203.798071 
L 178.582774 204.918664 
L 181.657154 203.077689 
L 184.731534 203.958155 
L 187.805914 203.718028 
L 190.880294 202.837562 
L 193.954675 201.556883 
L 197.029055 200.836501 
L 200.103435 202.43735 
L 203.177815 200.996586 
L 206.252195 200.596374 
L 209.326575 200.036077 
L 212.400956 198.755399 
L 215.475336 199.715908 
L 218.549716 197.634805 
L 221.624096 198.11506 
L 224.698476 198.355187 
L 227.772856 197.554763 
L 230.847237 197.47472 
L 233.921617 198.11506 
L 236.995997 196.514212 
L 240.070377 196.994466 
L 243.144757 195.873872 
L 246.219137 197.234593 
L 249.293518 196.274084 
L 252.367898 195.393618 
L 255.442278 196.033957 
L 258.516658 195.79383 
L 261.591038 196.434169 
L 264.665418 195.633745 
L 267.739799 195.553703 
L 270.814179 195.47366 
L 273.888559 195.233533 
L 276.962939 196.194042 
L 280.037319 195.073448 
L 283.111699 194.353067 
L 286.18608 195.47366 
L 289.26046 194.273024 
L 292.33484 194.032897 
L 295.40922 195.233533 
L 298.4836 195.393618 
L 301.55798 195.153491 
L 304.632361 195.393618 
L 307.706741 194.273024 
L 310.781121 194.673236 
L 313.855501 194.513151 
L 316.929881 194.112939 
L 320.004261 194.673236 
L 323.078642 194.192982 
L 326.153022 194.112939 
L 329.227402 195.553703 
L 332.301782 194.673236 
L 335.376162 194.433109 
L 338.450542 193.952854 
L 341.524923 193.712727 
L 344.599303 194.673236 
L 347.673683 195.073448 
L 350.748063 194.833321 
L 353.822443 194.433109 
" style="fill:none;stroke:#ff0000;stroke-linecap:square;stroke-width:1.5;"/>
   </g>
   <g id="line2d_22">
    <path clip-path="url(#p54d612f742)" d="M 49.458807 240.857705 
L 52.533187 239.657069 
L 55.607567 237.896136 
L 58.681947 237.656008 
L 61.756327 237.415881 
L 64.830708 235.734991 
L 67.905088 238.936687 
L 70.979468 238.616517 
L 74.053848 240.537535 
L 77.128228 240.057281 
L 80.202608 237.095712 
L 83.276989 240.137323 
L 86.351369 238.37639 
L 89.425749 239.817153 
L 92.500129 240.37745 
L 95.574509 240.617578 
L 98.648889 239.336899 
L 101.72327 241.738171 
L 104.79765 243.098892 
L 107.87203 242.37851 
L 110.94641 242.458553 
L 114.02079 242.938807 
L 117.09517 244.299528 
L 120.169551 244.619698 
L 123.243931 243.659189 
L 126.318311 244.779783 
L 129.392691 246.7008 
L 132.467071 247.981479 
L 135.541451 247.821394 
L 138.615832 248.461733 
L 141.690212 250.142624 
L 144.764592 251.263218 
L 147.838972 251.743472 
L 150.913352 251.66343 
L 153.987732 252.063642 
L 157.062113 252.063642 
L 160.136493 253.024151 
L 163.210873 254.945168 
L 166.285253 254.304829 
L 169.359633 255.105253 
L 172.434013 255.425423 
L 175.508394 256.465974 
L 178.582774 256.065762 
L 181.657154 256.866186 
L 184.731534 256.786144 
L 187.805914 257.106313 
L 190.880294 257.586568 
L 193.954675 258.787204 
L 197.029055 258.547077 
L 200.103435 258.627119 
L 203.177815 258.787204 
L 206.252195 259.107373 
L 209.326575 259.267458 
L 212.400956 259.98784 
L 215.475336 260.067882 
L 218.549716 261.188476 
L 221.624096 260.628179 
L 224.698476 260.30801 
L 227.772856 260.548137 
L 230.847237 261.428603 
L 233.921617 260.628179 
L 236.995997 261.428603 
L 240.070377 261.508646 
L 243.144757 261.828815 
L 246.219137 261.428603 
L 249.293518 261.268518 
L 252.367898 262.068942 
L 255.442278 261.348561 
L 258.516658 261.828815 
L 261.591038 261.588688 
L 264.665418 262.30907 
L 267.739799 262.229027 
L 270.814179 262.709282 
L 273.888559 262.469155 
L 276.962939 261.908858 
L 280.037319 262.469155 
L 283.111699 262.949409 
L 286.18608 262.549197 
L 289.26046 262.869367 
L 292.33484 263.029451 
L 295.40922 262.389112 
L 298.4836 262.709282 
L 301.55798 262.30907 
L 304.632361 262.30907 
L 307.706741 263.349621 
L 310.781121 262.789324 
L 313.855501 262.869367 
L 316.929881 263.029451 
L 320.004261 263.189536 
L 323.078642 263.269579 
L 326.153022 263.109494 
L 329.227402 262.389112 
L 332.301782 263.189536 
L 335.376162 263.029451 
L 338.450542 263.269579 
L 341.524923 263.509706 
L 344.599303 262.709282 
L 347.673683 262.709282 
L 350.748063 262.789324 
L 353.822443 263.189536 
" style="fill:none;stroke:#008000;stroke-linecap:square;stroke-width:1.5;"/>
   </g>
   <g id="patch_6">
    <path d="M 34.240625 267.84 
L 34.240625 190.182857 
" style="fill:none;stroke:#000000;stroke-linecap:square;stroke-linejoin:miter;stroke-width:0.8;"/>
   </g>
   <g id="patch_7">
    <path d="M 34.240625 267.84 
L 369.040625 267.84 
" style="fill:none;stroke:#000000;stroke-linecap:square;stroke-linejoin:miter;stroke-width:0.8;"/>
   </g>
   <g id="text_22">
    <!-- Trial End Replays -->
    <g transform="translate(150.746563 184.182857)scale(0.12 -0.12)">
     <defs>
      <path d="M 628 4666 
L 3578 4666 
L 3578 4134 
L 1259 4134 
L 1259 2753 
L 3481 2753 
L 3481 2222 
L 1259 2222 
L 1259 531 
L 3634 531 
L 3634 0 
L 628 0 
L 628 4666 
z
" id="DejaVuSans-45" transform="scale(0.015625)"/>
      <path d="M 3513 2113 
L 3513 0 
L 2938 0 
L 2938 2094 
Q 2938 2591 2744 2837 
Q 2550 3084 2163 3084 
Q 1697 3084 1428 2787 
Q 1159 2491 1159 1978 
L 1159 0 
L 581 0 
L 581 3500 
L 1159 3500 
L 1159 2956 
Q 1366 3272 1645 3428 
Q 1925 3584 2291 3584 
Q 2894 3584 3203 3211 
Q 3513 2838 3513 2113 
z
" id="DejaVuSans-6e" transform="scale(0.015625)"/>
      <path d="M 2906 2969 
L 2906 4863 
L 3481 4863 
L 3481 0 
L 2906 0 
L 2906 525 
Q 2725 213 2448 61 
Q 2172 -91 1784 -91 
Q 1150 -91 751 415 
Q 353 922 353 1747 
Q 353 2572 751 3078 
Q 1150 3584 1784 3584 
Q 2172 3584 2448 3432 
Q 2725 3281 2906 2969 
z
M 947 1747 
Q 947 1113 1208 752 
Q 1469 391 1925 391 
Q 2381 391 2643 752 
Q 2906 1113 2906 1747 
Q 2906 2381 2643 2742 
Q 2381 3103 1925 3103 
Q 1469 3103 1208 2742 
Q 947 2381 947 1747 
z
" id="DejaVuSans-64" transform="scale(0.015625)"/>
     </defs>
     <use xlink:href="#DejaVuSans-54"/>
     <use x="46.333984" xlink:href="#DejaVuSans-72"/>
     <use x="87.447266" xlink:href="#DejaVuSans-69"/>
     <use x="115.230469" xlink:href="#DejaVuSans-61"/>
     <use x="176.509766" xlink:href="#DejaVuSans-6c"/>
     <use x="204.292969" xlink:href="#DejaVuSans-20"/>
     <use x="236.080078" xlink:href="#DejaVuSans-45"/>
     <use x="299.263672" xlink:href="#DejaVuSans-6e"/>
     <use x="362.642578" xlink:href="#DejaVuSans-64"/>
     <use x="426.119141" xlink:href="#DejaVuSans-20"/>
     <use x="457.90625" xlink:href="#DejaVuSans-52"/>
     <use x="522.888672" xlink:href="#DejaVuSans-65"/>
     <use x="584.412109" xlink:href="#DejaVuSans-70"/>
     <use x="647.888672" xlink:href="#DejaVuSans-6c"/>
     <use x="675.671875" xlink:href="#DejaVuSans-61"/>
     <use x="736.951172" xlink:href="#DejaVuSans-79"/>
     <use x="796.130859" xlink:href="#DejaVuSans-73"/>
    </g>
   </g>
   <g id="legend_1">
    <g id="patch_8">
     <path d="M 48.314375 333.882321 
L 354.966875 333.882321 
Q 357.366875 333.882321 357.366875 331.482321 
L 357.366875 315.068571 
Q 357.366875 312.668571 354.966875 312.668571 
L 48.314375 312.668571 
Q 45.914375 312.668571 45.914375 315.068571 
L 45.914375 331.482321 
Q 45.914375 333.882321 48.314375 333.882321 
z
" style="fill:none;opacity:0;"/>
    </g>
    <g id="line2d_23">
     <path d="M 50.714375 322.386696 
L 74.714375 322.386696 
" style="fill:none;stroke:#0000ff;stroke-linecap:square;stroke-width:1.5;"/>
    </g>
    <g id="line2d_24"/>
    <g id="text_23">
     <!-- forward -->
     <g transform="translate(84.314375 326.586696)scale(0.12 -0.12)">
      <defs>
       <path d="M 2375 4863 
L 2375 4384 
L 1825 4384 
Q 1516 4384 1395 4259 
Q 1275 4134 1275 3809 
L 1275 3500 
L 2222 3500 
L 2222 3053 
L 1275 3053 
L 1275 0 
L 697 0 
L 697 3053 
L 147 3053 
L 147 3500 
L 697 3500 
L 697 3744 
Q 697 4328 969 4595 
Q 1241 4863 1831 4863 
L 2375 4863 
z
" id="DejaVuSans-66" transform="scale(0.015625)"/>
       <path d="M 1959 3097 
Q 1497 3097 1228 2736 
Q 959 2375 959 1747 
Q 959 1119 1226 758 
Q 1494 397 1959 397 
Q 2419 397 2687 759 
Q 2956 1122 2956 1747 
Q 2956 2369 2687 2733 
Q 2419 3097 1959 3097 
z
M 1959 3584 
Q 2709 3584 3137 3096 
Q 3566 2609 3566 1747 
Q 3566 888 3137 398 
Q 2709 -91 1959 -91 
Q 1206 -91 779 398 
Q 353 888 353 1747 
Q 353 2609 779 3096 
Q 1206 3584 1959 3584 
z
" id="DejaVuSans-6f" transform="scale(0.015625)"/>
       <path d="M 269 3500 
L 844 3500 
L 1563 769 
L 2278 3500 
L 2956 3500 
L 3675 769 
L 4391 3500 
L 4966 3500 
L 4050 0 
L 3372 0 
L 2619 2869 
L 1863 0 
L 1184 0 
L 269 3500 
z
" id="DejaVuSans-77" transform="scale(0.015625)"/>
      </defs>
      <use xlink:href="#DejaVuSans-66"/>
      <use x="35.205078" xlink:href="#DejaVuSans-6f"/>
      <use x="96.386719" xlink:href="#DejaVuSans-72"/>
      <use x="137.5" xlink:href="#DejaVuSans-77"/>
      <use x="219.287109" xlink:href="#DejaVuSans-61"/>
      <use x="280.566406" xlink:href="#DejaVuSans-72"/>
      <use x="319.929688" xlink:href="#DejaVuSans-64"/>
     </g>
    </g>
    <g id="line2d_25">
     <path d="M 154.323125 322.386696 
L 178.323125 322.386696 
" style="fill:none;stroke:#ff0000;stroke-linecap:square;stroke-width:1.5;"/>
    </g>
    <g id="line2d_26"/>
    <g id="text_24">
     <!-- reverse -->
     <g transform="translate(187.923125 326.586696)scale(0.12 -0.12)">
      <defs>
       <path d="M 191 3500 
L 800 3500 
L 1894 563 
L 2988 3500 
L 3597 3500 
L 2284 0 
L 1503 0 
L 191 3500 
z
" id="DejaVuSans-76" transform="scale(0.015625)"/>
      </defs>
      <use xlink:href="#DejaVuSans-72"/>
      <use x="38.863281" xlink:href="#DejaVuSans-65"/>
      <use x="100.386719" xlink:href="#DejaVuSans-76"/>
      <use x="159.566406" xlink:href="#DejaVuSans-65"/>
      <use x="221.089844" xlink:href="#DejaVuSans-72"/>
      <use x="262.203125" xlink:href="#DejaVuSans-73"/>
      <use x="314.302734" xlink:href="#DejaVuSans-65"/>
     </g>
    </g>
    <g id="line2d_27">
     <path d="M 257.024375 322.386696 
L 281.024375 322.386696 
" style="fill:none;stroke:#008000;stroke-linecap:square;stroke-width:1.5;"/>
    </g>
    <g id="line2d_28"/>
    <g id="text_25">
     <!-- unordered -->
     <g transform="translate(290.624375 326.586696)scale(0.12 -0.12)">
      <defs>
       <path d="M 544 1381 
L 544 3500 
L 1119 3500 
L 1119 1403 
Q 1119 906 1312 657 
Q 1506 409 1894 409 
Q 2359 409 2629 706 
Q 2900 1003 2900 1516 
L 2900 3500 
L 3475 3500 
L 3475 0 
L 2900 0 
L 2900 538 
Q 2691 219 2414 64 
Q 2138 -91 1772 -91 
Q 1169 -91 856 284 
Q 544 659 544 1381 
z
M 1991 3584 
L 1991 3584 
z
" id="DejaVuSans-75" transform="scale(0.015625)"/>
      </defs>
      <use xlink:href="#DejaVuSans-75"/>
      <use x="63.378906" xlink:href="#DejaVuSans-6e"/>
      <use x="126.757812" xlink:href="#DejaVuSans-6f"/>
      <use x="187.939453" xlink:href="#DejaVuSans-72"/>
      <use x="227.302734" xlink:href="#DejaVuSans-64"/>
      <use x="290.779297" xlink:href="#DejaVuSans-65"/>
      <use x="352.302734" xlink:href="#DejaVuSans-72"/>
      <use x="391.166016" xlink:href="#DejaVuSans-65"/>
      <use x="452.689453" xlink:href="#DejaVuSans-64"/>
     </g>
    </g>
   </g>
  </g>
  <g id="text_26">
   <!-- Open Field, Default Mode -->
   <g transform="translate(101.520313 18.597656)scale(0.15 -0.15)">
    <defs>
     <path d="M 2522 4238 
Q 1834 4238 1429 3725 
Q 1025 3213 1025 2328 
Q 1025 1447 1429 934 
Q 1834 422 2522 422 
Q 3209 422 3611 934 
Q 4013 1447 4013 2328 
Q 4013 3213 3611 3725 
Q 3209 4238 2522 4238 
z
M 2522 4750 
Q 3503 4750 4090 4092 
Q 4678 3434 4678 2328 
Q 4678 1225 4090 567 
Q 3503 -91 2522 -91 
Q 1538 -91 948 565 
Q 359 1222 359 2328 
Q 359 3434 948 4092 
Q 1538 4750 2522 4750 
z
" id="DejaVuSans-4f" transform="scale(0.015625)"/>
     <path d="M 628 4666 
L 3309 4666 
L 3309 4134 
L 1259 4134 
L 1259 2759 
L 3109 2759 
L 3109 2228 
L 1259 2228 
L 1259 0 
L 628 0 
L 628 4666 
z
" id="DejaVuSans-46" transform="scale(0.015625)"/>
     <path d="M 750 794 
L 1409 794 
L 1409 256 
L 897 -744 
L 494 -744 
L 750 256 
L 750 794 
z
" id="DejaVuSans-2c" transform="scale(0.015625)"/>
     <path d="M 1259 4147 
L 1259 519 
L 2022 519 
Q 2988 519 3436 956 
Q 3884 1394 3884 2338 
Q 3884 3275 3436 3711 
Q 2988 4147 2022 4147 
L 1259 4147 
z
M 628 4666 
L 1925 4666 
Q 3281 4666 3915 4102 
Q 4550 3538 4550 2338 
Q 4550 1131 3912 565 
Q 3275 0 1925 0 
L 628 0 
L 628 4666 
z
" id="DejaVuSans-44" transform="scale(0.015625)"/>
     <path d="M 628 4666 
L 1569 4666 
L 2759 1491 
L 3956 4666 
L 4897 4666 
L 4897 0 
L 4281 0 
L 4281 4097 
L 3078 897 
L 2444 897 
L 1241 4097 
L 1241 0 
L 628 0 
L 628 4666 
z
" id="DejaVuSans-4d" transform="scale(0.015625)"/>
    </defs>
    <use xlink:href="#DejaVuSans-4f"/>
    <use x="78.710938" xlink:href="#DejaVuSans-70"/>
    <use x="142.1875" xlink:href="#DejaVuSans-65"/>
    <use x="203.710938" xlink:href="#DejaVuSans-6e"/>
    <use x="267.089844" xlink:href="#DejaVuSans-20"/>
    <use x="298.876953" xlink:href="#DejaVuSans-46"/>
    <use x="349.146484" xlink:href="#DejaVuSans-69"/>
    <use x="376.929688" xlink:href="#DejaVuSans-65"/>
    <use x="438.453125" xlink:href="#DejaVuSans-6c"/>
    <use x="466.236328" xlink:href="#DejaVuSans-64"/>
    <use x="529.712891" xlink:href="#DejaVuSans-2c"/>
    <use x="561.5" xlink:href="#DejaVuSans-20"/>
    <use x="593.287109" xlink:href="#DejaVuSans-44"/>
    <use x="670.289062" xlink:href="#DejaVuSans-65"/>
    <use x="731.8125" xlink:href="#DejaVuSans-66"/>
    <use x="767.017578" xlink:href="#DejaVuSans-61"/>
    <use x="828.296875" xlink:href="#DejaVuSans-75"/>
    <use x="891.675781" xlink:href="#DejaVuSans-6c"/>
    <use x="919.458984" xlink:href="#DejaVuSans-74"/>
    <use x="958.667969" xlink:href="#DejaVuSans-20"/>
    <use x="990.455078" xlink:href="#DejaVuSans-4d"/>
    <use x="1076.734375" xlink:href="#DejaVuSans-6f"/>
    <use x="1137.916016" xlink:href="#DejaVuSans-64"/>
    <use x="1201.392578" xlink:href="#DejaVuSans-65"/>
   </g>
  </g>
 </g>
 <defs>
  <clipPath id="peb9947baed">
   <rect height="77.657143" width="334.8" x="34.240625" y="50.4"/>
  </clipPath>
  <clipPath id="p54d612f742">
   <rect height="77.657143" width="334.8" x="34.240625" y="190.182857"/>
  </clipPath>
 </defs>
</svg>
