<?xml version="1.0" encoding="utf-8" standalone="no"?>
<!DOCTYPE svg PUBLIC "-//W3C//DTD SVG 1.1//EN"
  "http://www.w3.org/Graphics/SVG/1.1/DTD/svg11.dtd">
<svg height="252.427875pt" version="1.1" viewBox="0 0 736.4875 252.427875" width="736.4875pt" xmlns="http://www.w3.org/2000/svg" xmlns:xlink="http://www.w3.org/1999/xlink">
 <metadata>
  <rdf:RDF xmlns:cc="http://creativecommons.org/ns#" xmlns:dc="http://purl.org/dc/elements/1.1/" xmlns:rdf="http://www.w3.org/1999/02/22-rdf-syntax-ns#">
   <cc:Work>
    <dc:type rdf:resource="http://purl.org/dc/dcmitype/StillImage"/>
    <dc:date>2023-02-09T03:26:10.676396</dc:date>
    <dc:format>image/svg+xml</dc:format>
    <dc:creator>
     <cc:Agent>
      <dc:title>Matplotlib v3.4.3, https://matplotlib.org/</dc:title>
     </cc:Agent>
    </dc:creator>
   </cc:Work>
  </rdf:RDF>
 </metadata>
 <defs>
  <style type="text/css">*{stroke-linecap:butt;stroke-linejoin:round;}</style>
 </defs>
 <g id="figure_1">
  <g id="patch_1">
   <path d="M 0 252.427875 
L 736.4875 252.427875 
L 736.4875 -0 
L 0 -0 
z
" style="fill:none;"/>
  </g>
  <g id="axes_1">
   <g id="patch_2">
    <path d="M 50.14375 185.398125 
L 247.084926 185.398125 
L 247.084926 22.318125 
L 50.14375 22.318125 
z
" style="fill:none;"/>
   </g>
   <g id="matplotlib.axis_1">
    <g id="xtick_1">
     <g id="line2d_1">
      <defs>
       <path d="M 0 0 
L 0 3.5 
" id="mce631b26df" style="stroke:#000000;stroke-width:0.8;"/>
      </defs>
      <g>
       <use style="stroke:#000000;stroke-width:0.8;" x="87.940541" xlink:href="#mce631b26df" y="185.398125"/>
      </g>
     </g>
     <g id="text_1">
      <!-- 20 -->
      <g transform="translate(81.578041 199.996562)scale(0.1 -0.1)">
       <defs>
        <path d="M 1228 531 
L 3431 531 
L 3431 0 
L 469 0 
L 469 531 
Q 828 903 1448 1529 
Q 2069 2156 2228 2338 
Q 2531 2678 2651 2914 
Q 2772 3150 2772 3378 
Q 2772 3750 2511 3984 
Q 2250 4219 1831 4219 
Q 1534 4219 1204 4116 
Q 875 4013 500 3803 
L 500 4441 
Q 881 4594 1212 4672 
Q 1544 4750 1819 4750 
Q 2544 4750 2975 4387 
Q 3406 4025 3406 3419 
Q 3406 3131 3298 2873 
Q 3191 2616 2906 2266 
Q 2828 2175 2409 1742 
Q 1991 1309 1228 531 
z
" id="DejaVuSans-32" transform="scale(0.015625)"/>
        <path d="M 2034 4250 
Q 1547 4250 1301 3770 
Q 1056 3291 1056 2328 
Q 1056 1369 1301 889 
Q 1547 409 2034 409 
Q 2525 409 2770 889 
Q 3016 1369 3016 2328 
Q 3016 3291 2770 3770 
Q 2525 4250 2034 4250 
z
M 2034 4750 
Q 2819 4750 3233 4129 
Q 3647 3509 3647 2328 
Q 3647 1150 3233 529 
Q 2819 -91 2034 -91 
Q 1250 -91 836 529 
Q 422 1150 422 2328 
Q 422 3509 836 4129 
Q 1250 4750 2034 4750 
z
" id="DejaVuSans-30" transform="scale(0.015625)"/>
       </defs>
       <use xlink:href="#DejaVuSans-32"/>
       <use x="63.623047" xlink:href="#DejaVuSans-30"/>
      </g>
     </g>
    </g>
    <g id="xtick_2">
     <g id="line2d_2">
      <g>
       <use style="stroke:#000000;stroke-width:0.8;" x="127.726638" xlink:href="#mce631b26df" y="185.398125"/>
      </g>
     </g>
     <g id="text_2">
      <!-- 40 -->
      <g transform="translate(121.364138 199.996562)scale(0.1 -0.1)">
       <defs>
        <path d="M 2419 4116 
L 825 1625 
L 2419 1625 
L 2419 4116 
z
M 2253 4666 
L 3047 4666 
L 3047 1625 
L 3713 1625 
L 3713 1100 
L 3047 1100 
L 3047 0 
L 2419 0 
L 2419 1100 
L 313 1100 
L 313 1709 
L 2253 4666 
z
" id="DejaVuSans-34" transform="scale(0.015625)"/>
       </defs>
       <use xlink:href="#DejaVuSans-34"/>
       <use x="63.623047" xlink:href="#DejaVuSans-30"/>
      </g>
     </g>
    </g>
    <g id="xtick_3">
     <g id="line2d_3">
      <g>
       <use style="stroke:#000000;stroke-width:0.8;" x="167.512734" xlink:href="#mce631b26df" y="185.398125"/>
      </g>
     </g>
     <g id="text_3">
      <!-- 60 -->
      <g transform="translate(161.150234 199.996562)scale(0.1 -0.1)">
       <defs>
        <path d="M 2113 2584 
Q 1688 2584 1439 2293 
Q 1191 2003 1191 1497 
Q 1191 994 1439 701 
Q 1688 409 2113 409 
Q 2538 409 2786 701 
Q 3034 994 3034 1497 
Q 3034 2003 2786 2293 
Q 2538 2584 2113 2584 
z
M 3366 4563 
L 3366 3988 
Q 3128 4100 2886 4159 
Q 2644 4219 2406 4219 
Q 1781 4219 1451 3797 
Q 1122 3375 1075 2522 
Q 1259 2794 1537 2939 
Q 1816 3084 2150 3084 
Q 2853 3084 3261 2657 
Q 3669 2231 3669 1497 
Q 3669 778 3244 343 
Q 2819 -91 2113 -91 
Q 1303 -91 875 529 
Q 447 1150 447 2328 
Q 447 3434 972 4092 
Q 1497 4750 2381 4750 
Q 2619 4750 2861 4703 
Q 3103 4656 3366 4563 
z
" id="DejaVuSans-36" transform="scale(0.015625)"/>
       </defs>
       <use xlink:href="#DejaVuSans-36"/>
       <use x="63.623047" xlink:href="#DejaVuSans-30"/>
      </g>
     </g>
    </g>
    <g id="xtick_4">
     <g id="line2d_4">
      <g>
       <use style="stroke:#000000;stroke-width:0.8;" x="207.29883" xlink:href="#mce631b26df" y="185.398125"/>
      </g>
     </g>
     <g id="text_4">
      <!-- 80 -->
      <g transform="translate(200.93633 199.996562)scale(0.1 -0.1)">
       <defs>
        <path d="M 2034 2216 
Q 1584 2216 1326 1975 
Q 1069 1734 1069 1313 
Q 1069 891 1326 650 
Q 1584 409 2034 409 
Q 2484 409 2743 651 
Q 3003 894 3003 1313 
Q 3003 1734 2745 1975 
Q 2488 2216 2034 2216 
z
M 1403 2484 
Q 997 2584 770 2862 
Q 544 3141 544 3541 
Q 544 4100 942 4425 
Q 1341 4750 2034 4750 
Q 2731 4750 3128 4425 
Q 3525 4100 3525 3541 
Q 3525 3141 3298 2862 
Q 3072 2584 2669 2484 
Q 3125 2378 3379 2068 
Q 3634 1759 3634 1313 
Q 3634 634 3220 271 
Q 2806 -91 2034 -91 
Q 1263 -91 848 271 
Q 434 634 434 1313 
Q 434 1759 690 2068 
Q 947 2378 1403 2484 
z
M 1172 3481 
Q 1172 3119 1398 2916 
Q 1625 2713 2034 2713 
Q 2441 2713 2670 2916 
Q 2900 3119 2900 3481 
Q 2900 3844 2670 4047 
Q 2441 4250 2034 4250 
Q 1625 4250 1398 4047 
Q 1172 3844 1172 3481 
z
" id="DejaVuSans-38" transform="scale(0.015625)"/>
       </defs>
       <use xlink:href="#DejaVuSans-38"/>
       <use x="63.623047" xlink:href="#DejaVuSans-30"/>
      </g>
     </g>
    </g>
    <g id="xtick_5">
     <g id="line2d_5">
      <g>
       <use style="stroke:#000000;stroke-width:0.8;" x="247.084926" xlink:href="#mce631b26df" y="185.398125"/>
      </g>
     </g>
     <g id="text_5">
      <!-- 100 -->
      <g transform="translate(237.541176 199.996562)scale(0.1 -0.1)">
       <defs>
        <path d="M 794 531 
L 1825 531 
L 1825 4091 
L 703 3866 
L 703 4441 
L 1819 4666 
L 2450 4666 
L 2450 531 
L 3481 531 
L 3481 0 
L 794 0 
L 794 531 
z
" id="DejaVuSans-31" transform="scale(0.015625)"/>
       </defs>
       <use xlink:href="#DejaVuSans-31"/>
       <use x="63.623047" xlink:href="#DejaVuSans-30"/>
       <use x="127.246094" xlink:href="#DejaVuSans-30"/>
      </g>
     </g>
    </g>
    <g id="text_6">
     <!-- Trial -->
     <g transform="translate(138.400276 213.674688)scale(0.1 -0.1)">
      <defs>
       <path d="M -19 4666 
L 3928 4666 
L 3928 4134 
L 2272 4134 
L 2272 0 
L 1638 0 
L 1638 4134 
L -19 4134 
L -19 4666 
z
" id="DejaVuSans-54" transform="scale(0.015625)"/>
       <path d="M 2631 2963 
Q 2534 3019 2420 3045 
Q 2306 3072 2169 3072 
Q 1681 3072 1420 2755 
Q 1159 2438 1159 1844 
L 1159 0 
L 581 0 
L 581 3500 
L 1159 3500 
L 1159 2956 
Q 1341 3275 1631 3429 
Q 1922 3584 2338 3584 
Q 2397 3584 2469 3576 
Q 2541 3569 2628 3553 
L 2631 2963 
z
" id="DejaVuSans-72" transform="scale(0.015625)"/>
       <path d="M 603 3500 
L 1178 3500 
L 1178 0 
L 603 0 
L 603 3500 
z
M 603 4863 
L 1178 4863 
L 1178 4134 
L 603 4134 
L 603 4863 
z
" id="DejaVuSans-69" transform="scale(0.015625)"/>
       <path d="M 2194 1759 
Q 1497 1759 1228 1600 
Q 959 1441 959 1056 
Q 959 750 1161 570 
Q 1363 391 1709 391 
Q 2188 391 2477 730 
Q 2766 1069 2766 1631 
L 2766 1759 
L 2194 1759 
z
M 3341 1997 
L 3341 0 
L 2766 0 
L 2766 531 
Q 2569 213 2275 61 
Q 1981 -91 1556 -91 
Q 1019 -91 701 211 
Q 384 513 384 1019 
Q 384 1609 779 1909 
Q 1175 2209 1959 2209 
L 2766 2209 
L 2766 2266 
Q 2766 2663 2505 2880 
Q 2244 3097 1772 3097 
Q 1472 3097 1187 3025 
Q 903 2953 641 2809 
L 641 3341 
Q 956 3463 1253 3523 
Q 1550 3584 1831 3584 
Q 2591 3584 2966 3190 
Q 3341 2797 3341 1997 
z
" id="DejaVuSans-61" transform="scale(0.015625)"/>
       <path d="M 603 4863 
L 1178 4863 
L 1178 0 
L 603 0 
L 603 4863 
z
" id="DejaVuSans-6c" transform="scale(0.015625)"/>
      </defs>
      <use xlink:href="#DejaVuSans-54"/>
      <use x="46.333984" xlink:href="#DejaVuSans-72"/>
      <use x="87.447266" xlink:href="#DejaVuSans-69"/>
      <use x="115.230469" xlink:href="#DejaVuSans-61"/>
      <use x="176.509766" xlink:href="#DejaVuSans-6c"/>
     </g>
    </g>
   </g>
   <g id="matplotlib.axis_2">
    <g id="ytick_1">
     <g id="line2d_6">
      <defs>
       <path d="M 0 0 
L -3.5 0 
" id="md136c0706c" style="stroke:#000000;stroke-width:0.8;"/>
      </defs>
      <g>
       <use style="stroke:#000000;stroke-width:0.8;" x="50.14375" xlink:href="#md136c0706c" y="181.078125"/>
      </g>
     </g>
     <g id="text_7">
      <!-- 1.00 -->
      <g transform="translate(20.878125 184.877344)scale(0.1 -0.1)">
       <defs>
        <path d="M 684 794 
L 1344 794 
L 1344 0 
L 684 0 
L 684 794 
z
" id="DejaVuSans-2e" transform="scale(0.015625)"/>
       </defs>
       <use xlink:href="#DejaVuSans-31"/>
       <use x="63.623047" xlink:href="#DejaVuSans-2e"/>
       <use x="95.410156" xlink:href="#DejaVuSans-30"/>
       <use x="159.033203" xlink:href="#DejaVuSans-30"/>
      </g>
     </g>
    </g>
    <g id="ytick_2">
     <g id="line2d_7">
      <g>
       <use style="stroke:#000000;stroke-width:0.8;" x="50.14375" xlink:href="#md136c0706c" y="159.478125"/>
      </g>
     </g>
     <g id="text_8">
      <!-- 1.25 -->
      <g transform="translate(20.878125 163.277344)scale(0.1 -0.1)">
       <defs>
        <path d="M 691 4666 
L 3169 4666 
L 3169 4134 
L 1269 4134 
L 1269 2991 
Q 1406 3038 1543 3061 
Q 1681 3084 1819 3084 
Q 2600 3084 3056 2656 
Q 3513 2228 3513 1497 
Q 3513 744 3044 326 
Q 2575 -91 1722 -91 
Q 1428 -91 1123 -41 
Q 819 9 494 109 
L 494 744 
Q 775 591 1075 516 
Q 1375 441 1709 441 
Q 2250 441 2565 725 
Q 2881 1009 2881 1497 
Q 2881 1984 2565 2268 
Q 2250 2553 1709 2553 
Q 1456 2553 1204 2497 
Q 953 2441 691 2322 
L 691 4666 
z
" id="DejaVuSans-35" transform="scale(0.015625)"/>
       </defs>
       <use xlink:href="#DejaVuSans-31"/>
       <use x="63.623047" xlink:href="#DejaVuSans-2e"/>
       <use x="95.410156" xlink:href="#DejaVuSans-32"/>
       <use x="159.033203" xlink:href="#DejaVuSans-35"/>
      </g>
     </g>
    </g>
    <g id="ytick_3">
     <g id="line2d_8">
      <g>
       <use style="stroke:#000000;stroke-width:0.8;" x="50.14375" xlink:href="#md136c0706c" y="137.878125"/>
      </g>
     </g>
     <g id="text_9">
      <!-- 1.50 -->
      <g transform="translate(20.878125 141.677344)scale(0.1 -0.1)">
       <use xlink:href="#DejaVuSans-31"/>
       <use x="63.623047" xlink:href="#DejaVuSans-2e"/>
       <use x="95.410156" xlink:href="#DejaVuSans-35"/>
       <use x="159.033203" xlink:href="#DejaVuSans-30"/>
      </g>
     </g>
    </g>
    <g id="ytick_4">
     <g id="line2d_9">
      <g>
       <use style="stroke:#000000;stroke-width:0.8;" x="50.14375" xlink:href="#md136c0706c" y="116.278125"/>
      </g>
     </g>
     <g id="text_10">
      <!-- 1.75 -->
      <g transform="translate(20.878125 120.077344)scale(0.1 -0.1)">
       <defs>
        <path d="M 525 4666 
L 3525 4666 
L 3525 4397 
L 1831 0 
L 1172 0 
L 2766 4134 
L 525 4134 
L 525 4666 
z
" id="DejaVuSans-37" transform="scale(0.015625)"/>
       </defs>
       <use xlink:href="#DejaVuSans-31"/>
       <use x="63.623047" xlink:href="#DejaVuSans-2e"/>
       <use x="95.410156" xlink:href="#DejaVuSans-37"/>
       <use x="159.033203" xlink:href="#DejaVuSans-35"/>
      </g>
     </g>
    </g>
    <g id="ytick_5">
     <g id="line2d_10">
      <g>
       <use style="stroke:#000000;stroke-width:0.8;" x="50.14375" xlink:href="#md136c0706c" y="94.678125"/>
      </g>
     </g>
     <g id="text_11">
      <!-- 2.00 -->
      <g transform="translate(20.878125 98.477344)scale(0.1 -0.1)">
       <use xlink:href="#DejaVuSans-32"/>
       <use x="63.623047" xlink:href="#DejaVuSans-2e"/>
       <use x="95.410156" xlink:href="#DejaVuSans-30"/>
       <use x="159.033203" xlink:href="#DejaVuSans-30"/>
      </g>
     </g>
    </g>
    <g id="ytick_6">
     <g id="line2d_11">
      <g>
       <use style="stroke:#000000;stroke-width:0.8;" x="50.14375" xlink:href="#md136c0706c" y="73.078125"/>
      </g>
     </g>
     <g id="text_12">
      <!-- 2.25 -->
      <g transform="translate(20.878125 76.877344)scale(0.1 -0.1)">
       <use xlink:href="#DejaVuSans-32"/>
       <use x="63.623047" xlink:href="#DejaVuSans-2e"/>
       <use x="95.410156" xlink:href="#DejaVuSans-32"/>
       <use x="159.033203" xlink:href="#DejaVuSans-35"/>
      </g>
     </g>
    </g>
    <g id="ytick_7">
     <g id="line2d_12">
      <g>
       <use style="stroke:#000000;stroke-width:0.8;" x="50.14375" xlink:href="#md136c0706c" y="51.478125"/>
      </g>
     </g>
     <g id="text_13">
      <!-- 2.50 -->
      <g transform="translate(20.878125 55.277344)scale(0.1 -0.1)">
       <use xlink:href="#DejaVuSans-32"/>
       <use x="63.623047" xlink:href="#DejaVuSans-2e"/>
       <use x="95.410156" xlink:href="#DejaVuSans-35"/>
       <use x="159.033203" xlink:href="#DejaVuSans-30"/>
      </g>
     </g>
    </g>
    <g id="ytick_8">
     <g id="line2d_13">
      <g>
       <use style="stroke:#000000;stroke-width:0.8;" x="50.14375" xlink:href="#md136c0706c" y="29.878125"/>
      </g>
     </g>
     <g id="text_14">
      <!-- 2.75 -->
      <g transform="translate(20.878125 33.677344)scale(0.1 -0.1)">
       <use xlink:href="#DejaVuSans-32"/>
       <use x="63.623047" xlink:href="#DejaVuSans-2e"/>
       <use x="95.410156" xlink:href="#DejaVuSans-37"/>
       <use x="159.033203" xlink:href="#DejaVuSans-35"/>
      </g>
     </g>
    </g>
    <g id="text_15">
     <!-- Sequences [#] -->
     <g transform="translate(14.798438 140.808125)rotate(-90)scale(0.1 -0.1)">
      <defs>
       <path d="M 3425 4513 
L 3425 3897 
Q 3066 4069 2747 4153 
Q 2428 4238 2131 4238 
Q 1616 4238 1336 4038 
Q 1056 3838 1056 3469 
Q 1056 3159 1242 3001 
Q 1428 2844 1947 2747 
L 2328 2669 
Q 3034 2534 3370 2195 
Q 3706 1856 3706 1288 
Q 3706 609 3251 259 
Q 2797 -91 1919 -91 
Q 1588 -91 1214 -16 
Q 841 59 441 206 
L 441 856 
Q 825 641 1194 531 
Q 1563 422 1919 422 
Q 2459 422 2753 634 
Q 3047 847 3047 1241 
Q 3047 1584 2836 1778 
Q 2625 1972 2144 2069 
L 1759 2144 
Q 1053 2284 737 2584 
Q 422 2884 422 3419 
Q 422 4038 858 4394 
Q 1294 4750 2059 4750 
Q 2388 4750 2728 4690 
Q 3069 4631 3425 4513 
z
" id="DejaVuSans-53" transform="scale(0.015625)"/>
       <path d="M 3597 1894 
L 3597 1613 
L 953 1613 
Q 991 1019 1311 708 
Q 1631 397 2203 397 
Q 2534 397 2845 478 
Q 3156 559 3463 722 
L 3463 178 
Q 3153 47 2828 -22 
Q 2503 -91 2169 -91 
Q 1331 -91 842 396 
Q 353 884 353 1716 
Q 353 2575 817 3079 
Q 1281 3584 2069 3584 
Q 2775 3584 3186 3129 
Q 3597 2675 3597 1894 
z
M 3022 2063 
Q 3016 2534 2758 2815 
Q 2500 3097 2075 3097 
Q 1594 3097 1305 2825 
Q 1016 2553 972 2059 
L 3022 2063 
z
" id="DejaVuSans-65" transform="scale(0.015625)"/>
       <path d="M 947 1747 
Q 947 1113 1208 752 
Q 1469 391 1925 391 
Q 2381 391 2643 752 
Q 2906 1113 2906 1747 
Q 2906 2381 2643 2742 
Q 2381 3103 1925 3103 
Q 1469 3103 1208 2742 
Q 947 2381 947 1747 
z
M 2906 525 
Q 2725 213 2448 61 
Q 2172 -91 1784 -91 
Q 1150 -91 751 415 
Q 353 922 353 1747 
Q 353 2572 751 3078 
Q 1150 3584 1784 3584 
Q 2172 3584 2448 3432 
Q 2725 3281 2906 2969 
L 2906 3500 
L 3481 3500 
L 3481 -1331 
L 2906 -1331 
L 2906 525 
z
" id="DejaVuSans-71" transform="scale(0.015625)"/>
       <path d="M 544 1381 
L 544 3500 
L 1119 3500 
L 1119 1403 
Q 1119 906 1312 657 
Q 1506 409 1894 409 
Q 2359 409 2629 706 
Q 2900 1003 2900 1516 
L 2900 3500 
L 3475 3500 
L 3475 0 
L 2900 0 
L 2900 538 
Q 2691 219 2414 64 
Q 2138 -91 1772 -91 
Q 1169 -91 856 284 
Q 544 659 544 1381 
z
M 1991 3584 
L 1991 3584 
z
" id="DejaVuSans-75" transform="scale(0.015625)"/>
       <path d="M 3513 2113 
L 3513 0 
L 2938 0 
L 2938 2094 
Q 2938 2591 2744 2837 
Q 2550 3084 2163 3084 
Q 1697 3084 1428 2787 
Q 1159 2491 1159 1978 
L 1159 0 
L 581 0 
L 581 3500 
L 1159 3500 
L 1159 2956 
Q 1366 3272 1645 3428 
Q 1925 3584 2291 3584 
Q 2894 3584 3203 3211 
Q 3513 2838 3513 2113 
z
" id="DejaVuSans-6e" transform="scale(0.015625)"/>
       <path d="M 3122 3366 
L 3122 2828 
Q 2878 2963 2633 3030 
Q 2388 3097 2138 3097 
Q 1578 3097 1268 2742 
Q 959 2388 959 1747 
Q 959 1106 1268 751 
Q 1578 397 2138 397 
Q 2388 397 2633 464 
Q 2878 531 3122 666 
L 3122 134 
Q 2881 22 2623 -34 
Q 2366 -91 2075 -91 
Q 1284 -91 818 406 
Q 353 903 353 1747 
Q 353 2603 823 3093 
Q 1294 3584 2113 3584 
Q 2378 3584 2631 3529 
Q 2884 3475 3122 3366 
z
" id="DejaVuSans-63" transform="scale(0.015625)"/>
       <path d="M 2834 3397 
L 2834 2853 
Q 2591 2978 2328 3040 
Q 2066 3103 1784 3103 
Q 1356 3103 1142 2972 
Q 928 2841 928 2578 
Q 928 2378 1081 2264 
Q 1234 2150 1697 2047 
L 1894 2003 
Q 2506 1872 2764 1633 
Q 3022 1394 3022 966 
Q 3022 478 2636 193 
Q 2250 -91 1575 -91 
Q 1294 -91 989 -36 
Q 684 19 347 128 
L 347 722 
Q 666 556 975 473 
Q 1284 391 1588 391 
Q 1994 391 2212 530 
Q 2431 669 2431 922 
Q 2431 1156 2273 1281 
Q 2116 1406 1581 1522 
L 1381 1569 
Q 847 1681 609 1914 
Q 372 2147 372 2553 
Q 372 3047 722 3315 
Q 1072 3584 1716 3584 
Q 2034 3584 2315 3537 
Q 2597 3491 2834 3397 
z
" id="DejaVuSans-73" transform="scale(0.015625)"/>
       <path id="DejaVuSans-20" transform="scale(0.015625)"/>
       <path d="M 550 4863 
L 1875 4863 
L 1875 4416 
L 1125 4416 
L 1125 -397 
L 1875 -397 
L 1875 -844 
L 550 -844 
L 550 4863 
z
" id="DejaVuSans-5b" transform="scale(0.015625)"/>
       <path d="M 3272 2816 
L 2363 2816 
L 2100 1772 
L 3016 1772 
L 3272 2816 
z
M 2803 4594 
L 2478 3297 
L 3391 3297 
L 3719 4594 
L 4219 4594 
L 3897 3297 
L 4872 3297 
L 4872 2816 
L 3775 2816 
L 3519 1772 
L 4513 1772 
L 4513 1294 
L 3397 1294 
L 3072 0 
L 2572 0 
L 2894 1294 
L 1978 1294 
L 1656 0 
L 1153 0 
L 1478 1294 
L 494 1294 
L 494 1772 
L 1594 1772 
L 1856 2816 
L 850 2816 
L 850 3297 
L 1978 3297 
L 2297 4594 
L 2803 4594 
z
" id="DejaVuSans-23" transform="scale(0.015625)"/>
       <path d="M 1947 4863 
L 1947 -844 
L 622 -844 
L 622 -397 
L 1369 -397 
L 1369 4416 
L 622 4416 
L 622 4863 
L 1947 4863 
z
" id="DejaVuSans-5d" transform="scale(0.015625)"/>
      </defs>
      <use xlink:href="#DejaVuSans-53"/>
      <use x="63.476562" xlink:href="#DejaVuSans-65"/>
      <use x="125" xlink:href="#DejaVuSans-71"/>
      <use x="188.476562" xlink:href="#DejaVuSans-75"/>
      <use x="251.855469" xlink:href="#DejaVuSans-65"/>
      <use x="313.378906" xlink:href="#DejaVuSans-6e"/>
      <use x="376.757812" xlink:href="#DejaVuSans-63"/>
      <use x="431.738281" xlink:href="#DejaVuSans-65"/>
      <use x="493.261719" xlink:href="#DejaVuSans-73"/>
      <use x="545.361328" xlink:href="#DejaVuSans-20"/>
      <use x="577.148438" xlink:href="#DejaVuSans-5b"/>
      <use x="616.162109" xlink:href="#DejaVuSans-23"/>
      <use x="699.951172" xlink:href="#DejaVuSans-5d"/>
     </g>
    </g>
   </g>
   <g id="line2d_14">
    <path clip-path="url(#p35ee923551)" d="M 52.133055 47.158125 
L 54.12236 54.070125 
L 56.111664 68.758125 
L 58.100969 88.630125 
L 60.090274 100.726125 
L 62.079579 114.550125 
L 64.068884 115.414125 
L 66.058189 126.646125 
L 68.047493 129.238125 
L 70.036798 145.654125 
L 72.026103 149.110125 
L 74.015408 148.246125 
L 76.004713 158.614125 
L 77.994017 157.750125 
L 79.983322 160.342125 
L 81.972627 169.846125 
L 83.961932 164.662125 
L 85.951237 168.118125 
L 87.940541 168.118125 
L 89.929846 174.166125 
L 91.919151 174.166125 
L 93.908456 171.574125 
L 95.897761 173.302125 
L 97.887066 176.758125 
L 99.87637 175.894125 
L 101.865675 171.574125 
L 103.85498 177.622125 
L 105.844285 177.622125 
L 107.83359 177.622125 
L 109.822894 178.486125 
L 111.812199 170.710125 
L 113.801504 179.350125 
L 115.790809 179.350125 
L 117.780114 180.214125 
L 119.769418 177.622125 
L 121.758723 177.622125 
L 123.748028 179.350125 
L 125.737333 180.214125 
L 127.726638 179.350125 
L 129.715943 177.622125 
L 131.705247 180.214125 
L 133.694552 179.350125 
L 135.683857 180.214125 
L 137.673162 178.486125 
L 139.662467 180.214125 
L 141.651771 180.214125 
L 143.641076 180.214125 
L 145.630381 180.214125 
L 147.619686 179.350125 
L 149.608991 178.486125 
L 151.598295 180.214125 
L 153.5876 181.078125 
L 155.576905 179.350125 
L 157.56621 178.486125 
L 159.555515 178.486125 
L 161.54482 181.078125 
L 163.534124 178.486125 
L 165.523429 179.350125 
L 167.512734 181.078125 
L 169.502039 179.350125 
L 171.491344 181.078125 
L 173.480648 179.350125 
L 175.469953 180.214125 
L 177.459258 181.078125 
L 179.448563 181.078125 
L 181.437868 179.350125 
L 183.427172 180.214125 
L 185.416477 179.350125 
L 187.405782 181.078125 
L 189.395087 180.214125 
L 191.384392 180.214125 
L 193.373697 179.350125 
L 195.363001 179.350125 
L 197.352306 181.078125 
L 199.341611 180.214125 
L 201.330916 179.350125 
L 203.320221 179.350125 
L 205.309525 181.078125 
L 207.29883 180.214125 
L 209.288135 179.350125 
L 211.27744 180.214125 
L 213.266745 179.350125 
L 215.256049 179.350125 
L 217.245354 180.214125 
L 219.234659 181.078125 
L 221.223964 181.078125 
L 223.213269 181.078125 
L 225.202574 181.078125 
L 227.191878 181.078125 
L 229.181183 180.214125 
L 231.170488 181.078125 
L 233.159793 181.078125 
L 235.149098 181.078125 
L 237.138402 181.078125 
L 239.127707 179.350125 
L 241.117012 181.078125 
L 243.106317 181.078125 
L 245.095622 180.214125 
L 247.084926 180.214125 
" style="fill:none;stroke:#1f77b4;stroke-linecap:square;stroke-width:1.5;"/>
   </g>
   <g id="line2d_15">
    <path clip-path="url(#p35ee923551)" d="M 50.14375 29.878125 
L 52.133055 42.838125 
L 54.12236 48.022125 
L 56.111664 60.118125 
L 58.100969 68.758125 
L 60.090274 80.854125 
L 62.079579 91.222125 
L 64.068884 92.086125 
L 66.058189 118.870125 
L 68.047493 118.870125 
L 70.036798 122.326125 
L 72.026103 127.510125 
L 74.015408 143.926125 
L 76.004713 140.470125 
L 77.994017 147.382125 
L 79.983322 138.742125 
L 81.972627 151.702125 
L 83.961932 153.430125 
L 85.951237 155.158125 
L 87.940541 165.526125 
L 89.929846 160.342125 
L 91.919151 161.206125 
L 93.908456 166.390125 
L 95.897761 167.254125 
L 97.887066 168.982125 
L 99.87637 165.526125 
L 101.865675 163.798125 
L 103.85498 173.302125 
L 105.844285 170.710125 
L 107.83359 175.030125 
L 109.822894 168.982125 
L 111.812199 168.982125 
L 113.801504 173.302125 
L 115.790809 176.758125 
L 117.780114 177.622125 
L 119.769418 170.710125 
L 121.758723 179.350125 
L 123.748028 174.166125 
L 125.737333 175.030125 
L 127.726638 177.622125 
L 129.715943 179.350125 
L 131.705247 175.894125 
L 133.694552 175.894125 
L 135.683857 179.350125 
L 137.673162 179.350125 
L 139.662467 178.486125 
L 141.651771 176.758125 
L 143.641076 178.486125 
L 145.630381 177.622125 
L 147.619686 177.622125 
L 149.608991 179.350125 
L 151.598295 179.350125 
L 153.5876 180.214125 
L 155.576905 179.350125 
L 157.56621 178.486125 
L 159.555515 178.486125 
L 161.54482 181.078125 
L 163.534124 176.758125 
L 165.523429 180.214125 
L 167.512734 179.350125 
L 169.502039 181.078125 
L 171.491344 180.214125 
L 173.480648 179.350125 
L 175.469953 180.214125 
L 177.459258 181.078125 
L 179.448563 179.350125 
L 181.437868 179.350125 
L 183.427172 179.350125 
L 185.416477 180.214125 
L 187.405782 178.486125 
L 189.395087 178.486125 
L 191.384392 176.758125 
L 193.373697 178.486125 
L 195.363001 181.078125 
L 197.352306 181.078125 
L 199.341611 180.214125 
L 201.330916 180.214125 
L 203.320221 179.350125 
L 205.309525 177.622125 
L 207.29883 181.078125 
L 209.288135 178.486125 
L 211.27744 181.078125 
L 213.266745 179.350125 
L 215.256049 179.350125 
L 217.245354 181.078125 
L 219.234659 180.214125 
L 221.223964 181.078125 
L 223.213269 181.078125 
L 225.202574 180.214125 
L 227.191878 180.214125 
L 229.181183 180.214125 
L 231.170488 181.078125 
L 233.159793 179.350125 
L 235.149098 179.350125 
L 237.138402 180.214125 
L 239.127707 178.486125 
L 241.117012 181.078125 
L 243.106317 181.078125 
L 245.095622 179.350125 
L 247.084926 181.078125 
" style="fill:none;stroke:#ff7f0e;stroke-linecap:square;stroke-width:1.5;"/>
   </g>
   <g id="patch_3">
    <path d="M 50.14375 185.398125 
L 50.14375 22.318125 
" style="fill:none;stroke:#000000;stroke-linecap:square;stroke-linejoin:miter;stroke-width:0.8;"/>
   </g>
   <g id="patch_4">
    <path d="M 50.14375 185.398125 
L 247.084926 185.398125 
" style="fill:none;stroke:#000000;stroke-linecap:square;stroke-linejoin:miter;stroke-width:0.8;"/>
   </g>
   <g id="text_16">
    <!-- Linear Track -->
    <g transform="translate(112.363088 16.318125)scale(0.12 -0.12)">
     <defs>
      <path d="M 628 4666 
L 1259 4666 
L 1259 531 
L 3531 531 
L 3531 0 
L 628 0 
L 628 4666 
z
" id="DejaVuSans-4c" transform="scale(0.015625)"/>
      <path d="M 581 4863 
L 1159 4863 
L 1159 1991 
L 2875 3500 
L 3609 3500 
L 1753 1863 
L 3688 0 
L 2938 0 
L 1159 1709 
L 1159 0 
L 581 0 
L 581 4863 
z
" id="DejaVuSans-6b" transform="scale(0.015625)"/>
     </defs>
     <use xlink:href="#DejaVuSans-4c"/>
     <use x="55.712891" xlink:href="#DejaVuSans-69"/>
     <use x="83.496094" xlink:href="#DejaVuSans-6e"/>
     <use x="146.875" xlink:href="#DejaVuSans-65"/>
     <use x="208.398438" xlink:href="#DejaVuSans-61"/>
     <use x="269.677734" xlink:href="#DejaVuSans-72"/>
     <use x="310.791016" xlink:href="#DejaVuSans-20"/>
     <use x="342.578125" xlink:href="#DejaVuSans-54"/>
     <use x="388.912109" xlink:href="#DejaVuSans-72"/>
     <use x="430.025391" xlink:href="#DejaVuSans-61"/>
     <use x="491.304688" xlink:href="#DejaVuSans-63"/>
     <use x="546.285156" xlink:href="#DejaVuSans-6b"/>
    </g>
   </g>
  </g>
  <g id="axes_2">
   <g id="patch_5">
    <path d="M 286.473162 185.398125 
L 483.414338 185.398125 
L 483.414338 22.318125 
L 286.473162 22.318125 
z
" style="fill:none;"/>
   </g>
   <g id="matplotlib.axis_3">
    <g id="xtick_6">
     <g id="line2d_16">
      <g>
       <use style="stroke:#000000;stroke-width:0.8;" x="324.269953" xlink:href="#mce631b26df" y="185.398125"/>
      </g>
     </g>
     <g id="text_17">
      <!-- 20 -->
      <g transform="translate(317.907453 199.996562)scale(0.1 -0.1)">
       <use xlink:href="#DejaVuSans-32"/>
       <use x="63.623047" xlink:href="#DejaVuSans-30"/>
      </g>
     </g>
    </g>
    <g id="xtick_7">
     <g id="line2d_17">
      <g>
       <use style="stroke:#000000;stroke-width:0.8;" x="364.056049" xlink:href="#mce631b26df" y="185.398125"/>
      </g>
     </g>
     <g id="text_18">
      <!-- 40 -->
      <g transform="translate(357.693549 199.996562)scale(0.1 -0.1)">
       <use xlink:href="#DejaVuSans-34"/>
       <use x="63.623047" xlink:href="#DejaVuSans-30"/>
      </g>
     </g>
    </g>
    <g id="xtick_8">
     <g id="line2d_18">
      <g>
       <use style="stroke:#000000;stroke-width:0.8;" x="403.842146" xlink:href="#mce631b26df" y="185.398125"/>
      </g>
     </g>
     <g id="text_19">
      <!-- 60 -->
      <g transform="translate(397.479646 199.996562)scale(0.1 -0.1)">
       <use xlink:href="#DejaVuSans-36"/>
       <use x="63.623047" xlink:href="#DejaVuSans-30"/>
      </g>
     </g>
    </g>
    <g id="xtick_9">
     <g id="line2d_19">
      <g>
       <use style="stroke:#000000;stroke-width:0.8;" x="443.628242" xlink:href="#mce631b26df" y="185.398125"/>
      </g>
     </g>
     <g id="text_20">
      <!-- 80 -->
      <g transform="translate(437.265742 199.996562)scale(0.1 -0.1)">
       <use xlink:href="#DejaVuSans-38"/>
       <use x="63.623047" xlink:href="#DejaVuSans-30"/>
      </g>
     </g>
    </g>
    <g id="xtick_10">
     <g id="line2d_20">
      <g>
       <use style="stroke:#000000;stroke-width:0.8;" x="483.414338" xlink:href="#mce631b26df" y="185.398125"/>
      </g>
     </g>
     <g id="text_21">
      <!-- 100 -->
      <g transform="translate(473.870588 199.996562)scale(0.1 -0.1)">
       <use xlink:href="#DejaVuSans-31"/>
       <use x="63.623047" xlink:href="#DejaVuSans-30"/>
       <use x="127.246094" xlink:href="#DejaVuSans-30"/>
      </g>
     </g>
    </g>
    <g id="text_22">
     <!-- Trial -->
     <g transform="translate(374.729688 213.674688)scale(0.1 -0.1)">
      <use xlink:href="#DejaVuSans-54"/>
      <use x="46.333984" xlink:href="#DejaVuSans-72"/>
      <use x="87.447266" xlink:href="#DejaVuSans-69"/>
      <use x="115.230469" xlink:href="#DejaVuSans-61"/>
      <use x="176.509766" xlink:href="#DejaVuSans-6c"/>
     </g>
    </g>
   </g>
   <g id="matplotlib.axis_4">
    <g id="ytick_9">
     <g id="line2d_21">
      <g>
       <use style="stroke:#000000;stroke-width:0.8;" x="286.473162" xlink:href="#md136c0706c" y="181.636187"/>
      </g>
     </g>
     <g id="text_23">
      <!-- 1.0 -->
      <g transform="translate(263.570037 185.435406)scale(0.1 -0.1)">
       <use xlink:href="#DejaVuSans-31"/>
       <use x="63.623047" xlink:href="#DejaVuSans-2e"/>
       <use x="95.410156" xlink:href="#DejaVuSans-30"/>
      </g>
     </g>
    </g>
    <g id="ytick_10">
     <g id="line2d_22">
      <g>
       <use style="stroke:#000000;stroke-width:0.8;" x="286.473162" xlink:href="#md136c0706c" y="144.01681"/>
      </g>
     </g>
     <g id="text_24">
      <!-- 1.5 -->
      <g transform="translate(263.570037 147.816029)scale(0.1 -0.1)">
       <use xlink:href="#DejaVuSans-31"/>
       <use x="63.623047" xlink:href="#DejaVuSans-2e"/>
       <use x="95.410156" xlink:href="#DejaVuSans-35"/>
      </g>
     </g>
    </g>
    <g id="ytick_11">
     <g id="line2d_23">
      <g>
       <use style="stroke:#000000;stroke-width:0.8;" x="286.473162" xlink:href="#md136c0706c" y="106.397433"/>
      </g>
     </g>
     <g id="text_25">
      <!-- 2.0 -->
      <g transform="translate(263.570037 110.196652)scale(0.1 -0.1)">
       <use xlink:href="#DejaVuSans-32"/>
       <use x="63.623047" xlink:href="#DejaVuSans-2e"/>
       <use x="95.410156" xlink:href="#DejaVuSans-30"/>
      </g>
     </g>
    </g>
    <g id="ytick_12">
     <g id="line2d_24">
      <g>
       <use style="stroke:#000000;stroke-width:0.8;" x="286.473162" xlink:href="#md136c0706c" y="68.778056"/>
      </g>
     </g>
     <g id="text_26">
      <!-- 2.5 -->
      <g transform="translate(263.570037 72.577275)scale(0.1 -0.1)">
       <use xlink:href="#DejaVuSans-32"/>
       <use x="63.623047" xlink:href="#DejaVuSans-2e"/>
       <use x="95.410156" xlink:href="#DejaVuSans-35"/>
      </g>
     </g>
    </g>
    <g id="ytick_13">
     <g id="line2d_25">
      <g>
       <use style="stroke:#000000;stroke-width:0.8;" x="286.473162" xlink:href="#md136c0706c" y="31.158679"/>
      </g>
     </g>
     <g id="text_27">
      <!-- 3.0 -->
      <g transform="translate(263.570037 34.957897)scale(0.1 -0.1)">
       <defs>
        <path d="M 2597 2516 
Q 3050 2419 3304 2112 
Q 3559 1806 3559 1356 
Q 3559 666 3084 287 
Q 2609 -91 1734 -91 
Q 1441 -91 1130 -33 
Q 819 25 488 141 
L 488 750 
Q 750 597 1062 519 
Q 1375 441 1716 441 
Q 2309 441 2620 675 
Q 2931 909 2931 1356 
Q 2931 1769 2642 2001 
Q 2353 2234 1838 2234 
L 1294 2234 
L 1294 2753 
L 1863 2753 
Q 2328 2753 2575 2939 
Q 2822 3125 2822 3475 
Q 2822 3834 2567 4026 
Q 2313 4219 1838 4219 
Q 1578 4219 1281 4162 
Q 984 4106 628 3988 
L 628 4550 
Q 988 4650 1302 4700 
Q 1616 4750 1894 4750 
Q 2613 4750 3031 4423 
Q 3450 4097 3450 3541 
Q 3450 3153 3228 2886 
Q 3006 2619 2597 2516 
z
" id="DejaVuSans-33" transform="scale(0.015625)"/>
       </defs>
       <use xlink:href="#DejaVuSans-33"/>
       <use x="63.623047" xlink:href="#DejaVuSans-2e"/>
       <use x="95.410156" xlink:href="#DejaVuSans-30"/>
      </g>
     </g>
    </g>
    <g id="text_28">
     <!-- Sequences [#] -->
     <g transform="translate(257.490349 140.808125)rotate(-90)scale(0.1 -0.1)">
      <use xlink:href="#DejaVuSans-53"/>
      <use x="63.476562" xlink:href="#DejaVuSans-65"/>
      <use x="125" xlink:href="#DejaVuSans-71"/>
      <use x="188.476562" xlink:href="#DejaVuSans-75"/>
      <use x="251.855469" xlink:href="#DejaVuSans-65"/>
      <use x="313.378906" xlink:href="#DejaVuSans-6e"/>
      <use x="376.757812" xlink:href="#DejaVuSans-63"/>
      <use x="431.738281" xlink:href="#DejaVuSans-65"/>
      <use x="493.261719" xlink:href="#DejaVuSans-73"/>
      <use x="545.361328" xlink:href="#DejaVuSans-20"/>
      <use x="577.148438" xlink:href="#DejaVuSans-5b"/>
      <use x="616.162109" xlink:href="#DejaVuSans-23"/>
      <use x="699.951172" xlink:href="#DejaVuSans-5d"/>
     </g>
    </g>
   </g>
   <g id="line2d_26">
    <path clip-path="url(#pc5e1ba79fd)" d="M 288.462467 54.482692 
L 290.451771 41.692104 
L 292.441076 36.425391 
L 294.430381 48.463592 
L 296.419686 37.930167 
L 298.408991 41.692104 
L 300.398295 37.930167 
L 302.3876 43.949267 
L 304.376905 43.949267 
L 306.36621 48.463592 
L 308.355515 52.22553 
L 310.34482 51.473142 
L 312.334124 52.977917 
L 314.323429 55.987468 
L 316.312734 49.968367 
L 318.302039 59.749405 
L 320.291344 58.997018 
L 322.280648 50.720755 
L 324.269953 59.749405 
L 326.259258 68.778056 
L 328.248563 68.025668 
L 330.237868 70.282831 
L 332.227172 63.511343 
L 334.216477 68.025668 
L 336.205782 76.301931 
L 338.195087 81.568644 
L 340.184392 78.559094 
L 342.173697 81.568644 
L 344.163001 89.844907 
L 346.152306 91.349682 
L 348.141611 92.854457 
L 350.130916 88.340132 
L 352.120221 100.378333 
L 354.109525 102.635495 
L 356.09883 104.892658 
L 358.088135 111.664146 
L 360.07744 99.625945 
L 362.066745 113.921308 
L 364.056049 116.178471 
L 366.045354 119.940409 
L 368.034659 119.188021 
L 370.023964 109.406983 
L 372.013269 131.226222 
L 374.002574 120.692796 
L 375.991878 131.978609 
L 377.981183 129.721447 
L 379.970488 126.711897 
L 381.959793 127.464284 
L 383.949098 130.473834 
L 385.938402 139.502485 
L 387.927707 137.99771 
L 389.917012 137.245322 
L 391.906317 144.01681 
L 393.895622 141.759647 
L 395.884926 148.531135 
L 397.874231 148.531135 
L 399.863536 154.550236 
L 401.852841 140.254872 
L 403.842146 151.540686 
L 405.831451 156.055011 
L 407.820755 151.540686 
L 409.81006 158.312173 
L 411.799365 152.293073 
L 413.78867 150.03591 
L 415.777975 156.055011 
L 417.767279 155.302623 
L 419.756584 168.093212 
L 421.745889 159.816949 
L 423.735194 157.559786 
L 425.724499 162.074111 
L 427.713803 164.331274 
L 429.703108 163.578886 
L 431.692413 163.578886 
L 433.681718 162.074111 
L 435.671023 168.845599 
L 437.660328 165.083661 
L 439.649632 171.855149 
L 441.638937 162.826499 
L 443.628242 166.588436 
L 445.617547 173.359924 
L 447.606852 168.093212 
L 449.596156 168.845599 
L 451.585461 166.588436 
L 453.574766 171.855149 
L 455.564071 170.350374 
L 457.553376 172.607537 
L 459.54268 170.350374 
L 461.531985 168.093212 
L 463.52129 172.607537 
L 465.510595 174.112312 
L 467.4999 170.350374 
L 469.489205 175.617087 
L 471.478509 172.607537 
L 473.467814 174.864699 
L 475.457119 174.864699 
L 477.446424 174.864699 
L 479.435729 174.864699 
L 481.425033 173.359924 
L 483.414338 174.112312 
" style="fill:none;stroke:#1f77b4;stroke-linecap:square;stroke-width:1.5;"/>
   </g>
   <g id="line2d_27">
    <path clip-path="url(#pc5e1ba79fd)" d="M 286.473162 39.434942 
L 288.462467 38.682554 
L 290.451771 29.653904 
L 292.441076 41.692104 
L 294.430381 39.434942 
L 296.419686 42.444492 
L 298.408991 41.692104 
L 300.398295 56.739855 
L 302.3876 55.23508 
L 304.376905 46.958817 
L 306.36621 57.492243 
L 308.355515 61.25418 
L 310.34482 62.006568 
L 312.334124 65.768506 
L 314.323429 55.23508 
L 316.312734 60.501793 
L 318.302039 64.263731 
L 320.291344 62.006568 
L 322.280648 69.530443 
L 324.269953 77.054319 
L 326.259258 76.301931 
L 328.248563 72.539994 
L 330.237868 76.301931 
L 332.227172 80.063869 
L 334.216477 82.321032 
L 336.205782 78.559094 
L 338.195087 101.13072 
L 340.184392 101.13072 
L 342.173697 89.844907 
L 344.163001 97.368782 
L 346.152306 107.902208 
L 348.141611 105.645045 
L 350.130916 110.911758 
L 352.120221 112.416533 
L 354.109525 119.188021 
L 356.09883 125.959509 
L 358.088135 114.673696 
L 360.07744 129.721447 
L 362.066745 127.464284 
L 364.056049 134.98816 
L 366.045354 133.483385 
L 368.034659 140.254872 
L 370.023964 134.235772 
L 372.013269 137.245322 
L 374.002574 140.254872 
L 375.991878 136.492935 
L 377.981183 142.512035 
L 379.970488 154.550236 
L 381.959793 152.293073 
L 383.949098 143.264423 
L 385.938402 150.03591 
L 387.927707 147.778748 
L 389.917012 152.293073 
L 391.906317 156.807398 
L 393.895622 154.550236 
L 395.884926 164.331274 
L 397.874231 154.550236 
L 399.863536 154.550236 
L 401.852841 157.559786 
L 403.842146 159.816949 
L 405.831451 156.807398 
L 407.820755 168.093212 
L 409.81006 162.826499 
L 411.799365 164.331274 
L 413.78867 165.836049 
L 415.777975 161.321724 
L 417.767279 167.340824 
L 419.756584 165.083661 
L 421.745889 168.845599 
L 423.735194 166.588436 
L 425.724499 167.340824 
L 427.713803 165.083661 
L 429.703108 169.597987 
L 431.692413 166.588436 
L 433.681718 161.321724 
L 435.671023 167.340824 
L 437.660328 174.112312 
L 439.649632 169.597987 
L 441.638937 171.102762 
L 443.628242 171.855149 
L 445.617547 169.597987 
L 447.606852 171.102762 
L 449.596156 170.350374 
L 451.585461 172.607537 
L 453.574766 174.864699 
L 455.564071 171.102762 
L 457.553376 171.855149 
L 459.54268 172.607537 
L 461.531985 173.359924 
L 463.52129 174.864699 
L 465.510595 171.102762 
L 467.4999 168.093212 
L 469.489205 171.855149 
L 471.478509 171.102762 
L 473.467814 173.359924 
L 475.457119 176.369474 
L 477.446424 170.350374 
L 479.435729 168.845599 
L 481.425033 172.607537 
L 483.414338 174.864699 
" style="fill:none;stroke:#ff7f0e;stroke-linecap:square;stroke-width:1.5;"/>
   </g>
   <g id="patch_6">
    <path d="M 286.473162 185.398125 
L 286.473162 22.318125 
" style="fill:none;stroke:#000000;stroke-linecap:square;stroke-linejoin:miter;stroke-width:0.8;"/>
   </g>
   <g id="patch_7">
    <path d="M 286.473162 185.398125 
L 483.414338 185.398125 
" style="fill:none;stroke:#000000;stroke-linecap:square;stroke-linejoin:miter;stroke-width:0.8;"/>
   </g>
   <g id="text_29">
    <!-- Open Field -->
    <g transform="translate(353.159688 16.318125)scale(0.12 -0.12)">
     <defs>
      <path d="M 2522 4238 
Q 1834 4238 1429 3725 
Q 1025 3213 1025 2328 
Q 1025 1447 1429 934 
Q 1834 422 2522 422 
Q 3209 422 3611 934 
Q 4013 1447 4013 2328 
Q 4013 3213 3611 3725 
Q 3209 4238 2522 4238 
z
M 2522 4750 
Q 3503 4750 4090 4092 
Q 4678 3434 4678 2328 
Q 4678 1225 4090 567 
Q 3503 -91 2522 -91 
Q 1538 -91 948 565 
Q 359 1222 359 2328 
Q 359 3434 948 4092 
Q 1538 4750 2522 4750 
z
" id="DejaVuSans-4f" transform="scale(0.015625)"/>
      <path d="M 1159 525 
L 1159 -1331 
L 581 -1331 
L 581 3500 
L 1159 3500 
L 1159 2969 
Q 1341 3281 1617 3432 
Q 1894 3584 2278 3584 
Q 2916 3584 3314 3078 
Q 3713 2572 3713 1747 
Q 3713 922 3314 415 
Q 2916 -91 2278 -91 
Q 1894 -91 1617 61 
Q 1341 213 1159 525 
z
M 3116 1747 
Q 3116 2381 2855 2742 
Q 2594 3103 2138 3103 
Q 1681 3103 1420 2742 
Q 1159 2381 1159 1747 
Q 1159 1113 1420 752 
Q 1681 391 2138 391 
Q 2594 391 2855 752 
Q 3116 1113 3116 1747 
z
" id="DejaVuSans-70" transform="scale(0.015625)"/>
      <path d="M 628 4666 
L 3309 4666 
L 3309 4134 
L 1259 4134 
L 1259 2759 
L 3109 2759 
L 3109 2228 
L 1259 2228 
L 1259 0 
L 628 0 
L 628 4666 
z
" id="DejaVuSans-46" transform="scale(0.015625)"/>
      <path d="M 2906 2969 
L 2906 4863 
L 3481 4863 
L 3481 0 
L 2906 0 
L 2906 525 
Q 2725 213 2448 61 
Q 2172 -91 1784 -91 
Q 1150 -91 751 415 
Q 353 922 353 1747 
Q 353 2572 751 3078 
Q 1150 3584 1784 3584 
Q 2172 3584 2448 3432 
Q 2725 3281 2906 2969 
z
M 947 1747 
Q 947 1113 1208 752 
Q 1469 391 1925 391 
Q 2381 391 2643 752 
Q 2906 1113 2906 1747 
Q 2906 2381 2643 2742 
Q 2381 3103 1925 3103 
Q 1469 3103 1208 2742 
Q 947 2381 947 1747 
z
" id="DejaVuSans-64" transform="scale(0.015625)"/>
     </defs>
     <use xlink:href="#DejaVuSans-4f"/>
     <use x="78.710938" xlink:href="#DejaVuSans-70"/>
     <use x="142.1875" xlink:href="#DejaVuSans-65"/>
     <use x="203.710938" xlink:href="#DejaVuSans-6e"/>
     <use x="267.089844" xlink:href="#DejaVuSans-20"/>
     <use x="298.876953" xlink:href="#DejaVuSans-46"/>
     <use x="349.146484" xlink:href="#DejaVuSans-69"/>
     <use x="376.929688" xlink:href="#DejaVuSans-65"/>
     <use x="438.453125" xlink:href="#DejaVuSans-6c"/>
     <use x="466.236328" xlink:href="#DejaVuSans-64"/>
    </g>
   </g>
   <g id="legend_1">
    <g id="patch_8">
     <path d="M 280.126562 245.227875 
L 489.760938 245.227875 
Q 492.160937 245.227875 492.160937 242.827875 
L 492.160937 226.414125 
Q 492.160937 224.014125 489.760938 224.014125 
L 280.126562 224.014125 
Q 277.726562 224.014125 277.726562 226.414125 
L 277.726562 242.827875 
Q 277.726562 245.227875 280.126562 245.227875 
z
" style="fill:none;opacity:0;"/>
    </g>
    <g id="line2d_28">
     <path d="M 282.526563 233.73225 
L 306.526563 233.73225 
" style="fill:none;stroke:#1f77b4;stroke-linecap:square;stroke-width:1.5;"/>
    </g>
    <g id="line2d_29"/>
    <g id="text_30">
     <!-- Trial Begin -->
     <g transform="translate(316.126563 237.93225)scale(0.12 -0.12)">
      <defs>
       <path d="M 1259 2228 
L 1259 519 
L 2272 519 
Q 2781 519 3026 730 
Q 3272 941 3272 1375 
Q 3272 1813 3026 2020 
Q 2781 2228 2272 2228 
L 1259 2228 
z
M 1259 4147 
L 1259 2741 
L 2194 2741 
Q 2656 2741 2882 2914 
Q 3109 3088 3109 3444 
Q 3109 3797 2882 3972 
Q 2656 4147 2194 4147 
L 1259 4147 
z
M 628 4666 
L 2241 4666 
Q 2963 4666 3353 4366 
Q 3744 4066 3744 3513 
Q 3744 3084 3544 2831 
Q 3344 2578 2956 2516 
Q 3422 2416 3680 2098 
Q 3938 1781 3938 1306 
Q 3938 681 3513 340 
Q 3088 0 2303 0 
L 628 0 
L 628 4666 
z
" id="DejaVuSans-42" transform="scale(0.015625)"/>
       <path d="M 2906 1791 
Q 2906 2416 2648 2759 
Q 2391 3103 1925 3103 
Q 1463 3103 1205 2759 
Q 947 2416 947 1791 
Q 947 1169 1205 825 
Q 1463 481 1925 481 
Q 2391 481 2648 825 
Q 2906 1169 2906 1791 
z
M 3481 434 
Q 3481 -459 3084 -895 
Q 2688 -1331 1869 -1331 
Q 1566 -1331 1297 -1286 
Q 1028 -1241 775 -1147 
L 775 -588 
Q 1028 -725 1275 -790 
Q 1522 -856 1778 -856 
Q 2344 -856 2625 -561 
Q 2906 -266 2906 331 
L 2906 616 
Q 2728 306 2450 153 
Q 2172 0 1784 0 
Q 1141 0 747 490 
Q 353 981 353 1791 
Q 353 2603 747 3093 
Q 1141 3584 1784 3584 
Q 2172 3584 2450 3431 
Q 2728 3278 2906 2969 
L 2906 3500 
L 3481 3500 
L 3481 434 
z
" id="DejaVuSans-67" transform="scale(0.015625)"/>
      </defs>
      <use xlink:href="#DejaVuSans-54"/>
      <use x="46.333984" xlink:href="#DejaVuSans-72"/>
      <use x="87.447266" xlink:href="#DejaVuSans-69"/>
      <use x="115.230469" xlink:href="#DejaVuSans-61"/>
      <use x="176.509766" xlink:href="#DejaVuSans-6c"/>
      <use x="204.292969" xlink:href="#DejaVuSans-20"/>
      <use x="236.080078" xlink:href="#DejaVuSans-42"/>
      <use x="304.683594" xlink:href="#DejaVuSans-65"/>
      <use x="366.207031" xlink:href="#DejaVuSans-67"/>
      <use x="429.683594" xlink:href="#DejaVuSans-69"/>
      <use x="457.466797" xlink:href="#DejaVuSans-6e"/>
     </g>
    </g>
    <g id="line2d_30">
     <path d="M 402.627813 233.73225 
L 426.627813 233.73225 
" style="fill:none;stroke:#ff7f0e;stroke-linecap:square;stroke-width:1.5;"/>
    </g>
    <g id="line2d_31"/>
    <g id="text_31">
     <!-- Trial End -->
     <g transform="translate(436.227813 237.93225)scale(0.12 -0.12)">
      <defs>
       <path d="M 628 4666 
L 3578 4666 
L 3578 4134 
L 1259 4134 
L 1259 2753 
L 3481 2753 
L 3481 2222 
L 1259 2222 
L 1259 531 
L 3634 531 
L 3634 0 
L 628 0 
L 628 4666 
z
" id="DejaVuSans-45" transform="scale(0.015625)"/>
      </defs>
      <use xlink:href="#DejaVuSans-54"/>
      <use x="46.333984" xlink:href="#DejaVuSans-72"/>
      <use x="87.447266" xlink:href="#DejaVuSans-69"/>
      <use x="115.230469" xlink:href="#DejaVuSans-61"/>
      <use x="176.509766" xlink:href="#DejaVuSans-6c"/>
      <use x="204.292969" xlink:href="#DejaVuSans-20"/>
      <use x="236.080078" xlink:href="#DejaVuSans-45"/>
      <use x="299.263672" xlink:href="#DejaVuSans-6e"/>
      <use x="362.642578" xlink:href="#DejaVuSans-64"/>
     </g>
    </g>
   </g>
  </g>
  <g id="axes_3">
   <g id="patch_9">
    <path d="M 522.802574 185.398125 
L 719.74375 185.398125 
L 719.74375 22.318125 
L 522.802574 22.318125 
z
" style="fill:none;"/>
   </g>
   <g id="matplotlib.axis_5">
    <g id="xtick_11">
     <g id="line2d_32">
      <g>
       <use style="stroke:#000000;stroke-width:0.8;" x="560.599365" xlink:href="#mce631b26df" y="185.398125"/>
      </g>
     </g>
     <g id="text_32">
      <!-- 20 -->
      <g transform="translate(554.236865 199.996562)scale(0.1 -0.1)">
       <use xlink:href="#DejaVuSans-32"/>
       <use x="63.623047" xlink:href="#DejaVuSans-30"/>
      </g>
     </g>
    </g>
    <g id="xtick_12">
     <g id="line2d_33">
      <g>
       <use style="stroke:#000000;stroke-width:0.8;" x="600.385461" xlink:href="#mce631b26df" y="185.398125"/>
      </g>
     </g>
     <g id="text_33">
      <!-- 40 -->
      <g transform="translate(594.022961 199.996562)scale(0.1 -0.1)">
       <use xlink:href="#DejaVuSans-34"/>
       <use x="63.623047" xlink:href="#DejaVuSans-30"/>
      </g>
     </g>
    </g>
    <g id="xtick_13">
     <g id="line2d_34">
      <g>
       <use style="stroke:#000000;stroke-width:0.8;" x="640.171557" xlink:href="#mce631b26df" y="185.398125"/>
      </g>
     </g>
     <g id="text_34">
      <!-- 60 -->
      <g transform="translate(633.809057 199.996562)scale(0.1 -0.1)">
       <use xlink:href="#DejaVuSans-36"/>
       <use x="63.623047" xlink:href="#DejaVuSans-30"/>
      </g>
     </g>
    </g>
    <g id="xtick_14">
     <g id="line2d_35">
      <g>
       <use style="stroke:#000000;stroke-width:0.8;" x="679.957654" xlink:href="#mce631b26df" y="185.398125"/>
      </g>
     </g>
     <g id="text_35">
      <!-- 80 -->
      <g transform="translate(673.595154 199.996562)scale(0.1 -0.1)">
       <use xlink:href="#DejaVuSans-38"/>
       <use x="63.623047" xlink:href="#DejaVuSans-30"/>
      </g>
     </g>
    </g>
    <g id="xtick_15">
     <g id="line2d_36">
      <g>
       <use style="stroke:#000000;stroke-width:0.8;" x="719.74375" xlink:href="#mce631b26df" y="185.398125"/>
      </g>
     </g>
     <g id="text_36">
      <!-- 100 -->
      <g transform="translate(710.2 199.996562)scale(0.1 -0.1)">
       <use xlink:href="#DejaVuSans-31"/>
       <use x="63.623047" xlink:href="#DejaVuSans-30"/>
       <use x="127.246094" xlink:href="#DejaVuSans-30"/>
      </g>
     </g>
    </g>
    <g id="text_37">
     <!-- Trial -->
     <g transform="translate(611.059099 213.674688)scale(0.1 -0.1)">
      <use xlink:href="#DejaVuSans-54"/>
      <use x="46.333984" xlink:href="#DejaVuSans-72"/>
      <use x="87.447266" xlink:href="#DejaVuSans-69"/>
      <use x="115.230469" xlink:href="#DejaVuSans-61"/>
      <use x="176.509766" xlink:href="#DejaVuSans-6c"/>
     </g>
    </g>
   </g>
   <g id="matplotlib.axis_6">
    <g id="ytick_14">
     <g id="line2d_37">
      <g>
       <use style="stroke:#000000;stroke-width:0.8;" x="522.802574" xlink:href="#md136c0706c" y="174.404674"/>
      </g>
     </g>
     <g id="text_38">
      <!-- 2 -->
      <g transform="translate(509.440074 178.203892)scale(0.1 -0.1)">
       <use xlink:href="#DejaVuSans-32"/>
      </g>
     </g>
    </g>
    <g id="ytick_15">
     <g id="line2d_38">
      <g>
       <use style="stroke:#000000;stroke-width:0.8;" x="522.802574" xlink:href="#md136c0706c" y="153.464766"/>
      </g>
     </g>
     <g id="text_39">
      <!-- 4 -->
      <g transform="translate(509.440074 157.263985)scale(0.1 -0.1)">
       <use xlink:href="#DejaVuSans-34"/>
      </g>
     </g>
    </g>
    <g id="ytick_16">
     <g id="line2d_39">
      <g>
       <use style="stroke:#000000;stroke-width:0.8;" x="522.802574" xlink:href="#md136c0706c" y="132.524858"/>
      </g>
     </g>
     <g id="text_40">
      <!-- 6 -->
      <g transform="translate(509.440074 136.324077)scale(0.1 -0.1)">
       <use xlink:href="#DejaVuSans-36"/>
      </g>
     </g>
    </g>
    <g id="ytick_17">
     <g id="line2d_40">
      <g>
       <use style="stroke:#000000;stroke-width:0.8;" x="522.802574" xlink:href="#md136c0706c" y="111.584951"/>
      </g>
     </g>
     <g id="text_41">
      <!-- 8 -->
      <g transform="translate(509.440074 115.38417)scale(0.1 -0.1)">
       <use xlink:href="#DejaVuSans-38"/>
      </g>
     </g>
    </g>
    <g id="ytick_18">
     <g id="line2d_41">
      <g>
       <use style="stroke:#000000;stroke-width:0.8;" x="522.802574" xlink:href="#md136c0706c" y="90.645043"/>
      </g>
     </g>
     <g id="text_42">
      <!-- 10 -->
      <g transform="translate(503.077574 94.444262)scale(0.1 -0.1)">
       <use xlink:href="#DejaVuSans-31"/>
       <use x="63.623047" xlink:href="#DejaVuSans-30"/>
      </g>
     </g>
    </g>
    <g id="ytick_19">
     <g id="line2d_42">
      <g>
       <use style="stroke:#000000;stroke-width:0.8;" x="522.802574" xlink:href="#md136c0706c" y="69.705136"/>
      </g>
     </g>
     <g id="text_43">
      <!-- 12 -->
      <g transform="translate(503.077574 73.504355)scale(0.1 -0.1)">
       <use xlink:href="#DejaVuSans-31"/>
       <use x="63.623047" xlink:href="#DejaVuSans-32"/>
      </g>
     </g>
    </g>
    <g id="ytick_20">
     <g id="line2d_43">
      <g>
       <use style="stroke:#000000;stroke-width:0.8;" x="522.802574" xlink:href="#md136c0706c" y="48.765228"/>
      </g>
     </g>
     <g id="text_44">
      <!-- 14 -->
      <g transform="translate(503.077574 52.564447)scale(0.1 -0.1)">
       <use xlink:href="#DejaVuSans-31"/>
       <use x="63.623047" xlink:href="#DejaVuSans-34"/>
      </g>
     </g>
    </g>
    <g id="ytick_21">
     <g id="line2d_44">
      <g>
       <use style="stroke:#000000;stroke-width:0.8;" x="522.802574" xlink:href="#md136c0706c" y="27.825321"/>
      </g>
     </g>
     <g id="text_45">
      <!-- 16 -->
      <g transform="translate(503.077574 31.624539)scale(0.1 -0.1)">
       <use xlink:href="#DejaVuSans-31"/>
       <use x="63.623047" xlink:href="#DejaVuSans-36"/>
      </g>
     </g>
    </g>
    <g id="text_46">
     <!-- Sequences [#] -->
     <g transform="translate(496.997886 140.808125)rotate(-90)scale(0.1 -0.1)">
      <use xlink:href="#DejaVuSans-53"/>
      <use x="63.476562" xlink:href="#DejaVuSans-65"/>
      <use x="125" xlink:href="#DejaVuSans-71"/>
      <use x="188.476562" xlink:href="#DejaVuSans-75"/>
      <use x="251.855469" xlink:href="#DejaVuSans-65"/>
      <use x="313.378906" xlink:href="#DejaVuSans-6e"/>
      <use x="376.757812" xlink:href="#DejaVuSans-63"/>
      <use x="431.738281" xlink:href="#DejaVuSans-65"/>
      <use x="493.261719" xlink:href="#DejaVuSans-73"/>
      <use x="545.361328" xlink:href="#DejaVuSans-20"/>
      <use x="577.148438" xlink:href="#DejaVuSans-5b"/>
      <use x="616.162109" xlink:href="#DejaVuSans-23"/>
      <use x="699.951172" xlink:href="#DejaVuSans-5d"/>
     </g>
    </g>
   </g>
   <g id="line2d_45">
    <path clip-path="url(#p0452adcd62)" d="M 524.791878 28.348818 
L 526.781183 27.092424 
L 528.770488 28.139419 
L 530.759793 28.453518 
L 532.749098 30.33811 
L 534.738402 26.568926 
L 536.727707 27.197123 
L 538.717012 27.092424 
L 540.706317 30.024011 
L 542.695622 30.756908 
L 544.684926 29.605213 
L 546.674231 30.547509 
L 548.663536 32.746199 
L 550.652841 30.442809 
L 552.642146 30.966307 
L 554.631451 31.175706 
L 556.620755 31.699204 
L 558.61006 30.756908 
L 560.599365 33.479096 
L 562.58867 31.594504 
L 564.577975 37.457678 
L 566.567279 37.14358 
L 568.556584 37.562378 
L 570.545889 38.295274 
L 572.535194 35.258988 
L 574.524499 38.504674 
L 576.513803 39.23757 
L 578.503108 42.483256 
L 580.492413 39.761068 
L 582.481718 45.728942 
L 584.471023 43.111453 
L 586.460328 43.216153 
L 588.449632 46.461838 
L 590.438937 47.194735 
L 592.428242 44.786646 
L 594.417547 47.927632 
L 596.406852 51.487416 
L 598.396156 50.859219 
L 600.385461 51.382717 
L 602.374766 57.978788 
L 604.364071 52.534412 
L 606.353376 55.2566 
L 608.34268 55.780097 
L 610.331985 55.465999 
L 612.32129 56.408294 
L 614.310595 55.465999 
L 616.2999 59.339882 
L 618.289205 61.643271 
L 620.278509 60.491576 
L 622.267814 69.705136 
L 624.257119 70.123934 
L 626.246424 65.203056 
L 628.235729 66.982948 
L 630.225033 64.993657 
L 632.214338 74.730714 
L 634.203643 72.008526 
L 636.192948 72.950821 
L 638.182253 72.950821 
L 640.171557 72.427324 
L 642.160862 73.055521 
L 644.150167 75.56831 
L 646.139472 78.290498 
L 648.128777 82.26908 
L 650.118082 80.803287 
L 652.107386 84.363071 
L 654.096691 77.348202 
L 656.085996 80.803287 
L 658.075301 84.258372 
L 660.064606 85.619466 
L 662.05391 84.467771 
L 664.043215 87.818156 
L 666.03252 94.309527 
L 668.021825 87.608757 
L 670.01113 88.236954 
L 672.000434 94.728325 
L 673.989739 93.053133 
L 675.979044 96.403518 
L 677.968349 94.623626 
L 679.957654 94.100128 
L 681.946959 91.48264 
L 683.936263 95.98472 
L 685.925568 103.418387 
L 687.914873 97.345814 
L 689.904178 99.125706 
L 691.893483 99.335105 
L 693.882787 100.068002 
L 695.872092 96.927016 
L 697.861397 97.136415 
L 699.850702 102.371392 
L 701.840007 105.721777 
L 703.829311 103.523086 
L 705.818616 108.025167 
L 707.807921 98.078711 
L 709.797226 105.721777 
L 711.786531 104.88418 
L 713.775836 103.104288 
L 715.76514 105.09358 
L 717.754445 111.584951 
L 719.74375 107.29227 
" style="fill:none;stroke:#1f77b4;stroke-linecap:square;stroke-width:1.5;"/>
   </g>
   <g id="line2d_46">
    <path clip-path="url(#p0452adcd62)" d="M 522.802574 29.081715 
L 524.791878 27.93002 
L 526.781183 27.406523 
L 528.770488 26.883025 
L 530.759793 30.23341 
L 532.749098 28.872316 
L 534.738402 28.662917 
L 536.727707 29.605213 
L 538.717012 29.919311 
L 540.706317 32.4321 
L 542.695622 29.395814 
L 544.684926 27.406523 
L 546.674231 34.107293 
L 548.663536 31.071006 
L 550.652841 34.944889 
L 552.642146 35.049589 
L 554.631451 33.164997 
L 556.620755 34.526091 
L 558.61006 40.389265 
L 560.599365 39.34227 
L 562.58867 38.085875 
L 564.577975 42.483256 
L 566.567279 42.064458 
L 568.556584 42.797355 
L 570.545889 44.577247 
L 572.535194 46.461838 
L 574.524499 41.017462 
L 576.513803 44.996045 
L 578.503108 48.032331 
L 580.492413 47.508834 
L 582.481718 51.592116 
L 584.471023 52.639111 
L 586.460328 52.325013 
L 588.449632 54.209604 
L 590.438937 57.978788 
L 592.428242 57.769388 
L 594.417547 57.978788 
L 596.406852 55.2566 
L 598.396156 59.75868 
L 600.385461 58.711684 
L 602.374766 61.747971 
L 604.364071 64.679558 
L 606.353376 63.109065 
L 608.34268 68.239342 
L 610.331985 69.809835 
L 612.32129 63.841962 
L 614.310595 67.401746 
L 616.2999 71.589727 
L 618.289205 69.914535 
L 620.278509 71.485028 
L 622.267814 76.196507 
L 624.257119 76.510606 
L 626.246424 77.557601 
L 628.235729 76.720005 
L 630.225033 78.604596 
L 632.214338 79.337493 
L 634.203643 79.023395 
L 636.192948 79.442193 
L 638.182253 85.724165 
L 640.171557 82.26908 
L 642.160862 83.001977 
L 644.150167 85.095968 
L 646.139472 84.467771 
L 648.128777 84.467771 
L 650.118082 83.630174 
L 652.107386 83.839573 
L 654.096691 89.283949 
L 656.085996 86.142963 
L 658.075301 85.933564 
L 660.064606 84.57247 
L 662.05391 89.388649 
L 664.043215 87.399358 
L 666.03252 91.796738 
L 668.021825 91.692039 
L 670.01113 88.236954 
L 672.000434 92.739034 
L 673.989739 94.414227 
L 675.979044 93.890729 
L 677.968349 96.194119 
L 679.957654 100.4868 
L 681.946959 100.800898 
L 683.936263 95.042424 
L 685.925568 96.822316 
L 687.914873 100.3821 
L 689.904178 99.439805 
L 691.893483 99.963302 
L 693.882787 102.161992 
L 695.872092 91.48264 
L 697.861397 102.057293 
L 699.850702 97.031715 
L 701.840007 99.649204 
L 703.829311 100.905598 
L 705.818616 102.266692 
L 707.807921 101.847894 
L 709.797226 108.129866 
L 711.786531 105.407678 
L 713.775836 100.3821 
L 715.76514 104.465382 
L 717.754445 106.978171 
L 719.74375 106.245274 
" style="fill:none;stroke:#ff7f0e;stroke-linecap:square;stroke-width:1.5;"/>
   </g>
   <g id="patch_10">
    <path d="M 522.802574 185.398125 
L 522.802574 22.318125 
" style="fill:none;stroke:#000000;stroke-linecap:square;stroke-linejoin:miter;stroke-width:0.8;"/>
   </g>
   <g id="patch_11">
    <path d="M 522.802574 185.398125 
L 719.74375 185.398125 
" style="fill:none;stroke:#000000;stroke-linecap:square;stroke-linejoin:miter;stroke-width:0.8;"/>
   </g>
   <g id="text_47">
    <!-- Labyrinth -->
    <g transform="translate(592.802224 16.318125)scale(0.12 -0.12)">
     <defs>
      <path d="M 3116 1747 
Q 3116 2381 2855 2742 
Q 2594 3103 2138 3103 
Q 1681 3103 1420 2742 
Q 1159 2381 1159 1747 
Q 1159 1113 1420 752 
Q 1681 391 2138 391 
Q 2594 391 2855 752 
Q 3116 1113 3116 1747 
z
M 1159 2969 
Q 1341 3281 1617 3432 
Q 1894 3584 2278 3584 
Q 2916 3584 3314 3078 
Q 3713 2572 3713 1747 
Q 3713 922 3314 415 
Q 2916 -91 2278 -91 
Q 1894 -91 1617 61 
Q 1341 213 1159 525 
L 1159 0 
L 581 0 
L 581 4863 
L 1159 4863 
L 1159 2969 
z
" id="DejaVuSans-62" transform="scale(0.015625)"/>
      <path d="M 2059 -325 
Q 1816 -950 1584 -1140 
Q 1353 -1331 966 -1331 
L 506 -1331 
L 506 -850 
L 844 -850 
Q 1081 -850 1212 -737 
Q 1344 -625 1503 -206 
L 1606 56 
L 191 3500 
L 800 3500 
L 1894 763 
L 2988 3500 
L 3597 3500 
L 2059 -325 
z
" id="DejaVuSans-79" transform="scale(0.015625)"/>
      <path d="M 1172 4494 
L 1172 3500 
L 2356 3500 
L 2356 3053 
L 1172 3053 
L 1172 1153 
Q 1172 725 1289 603 
Q 1406 481 1766 481 
L 2356 481 
L 2356 0 
L 1766 0 
Q 1100 0 847 248 
Q 594 497 594 1153 
L 594 3053 
L 172 3053 
L 172 3500 
L 594 3500 
L 594 4494 
L 1172 4494 
z
" id="DejaVuSans-74" transform="scale(0.015625)"/>
      <path d="M 3513 2113 
L 3513 0 
L 2938 0 
L 2938 2094 
Q 2938 2591 2744 2837 
Q 2550 3084 2163 3084 
Q 1697 3084 1428 2787 
Q 1159 2491 1159 1978 
L 1159 0 
L 581 0 
L 581 4863 
L 1159 4863 
L 1159 2956 
Q 1366 3272 1645 3428 
Q 1925 3584 2291 3584 
Q 2894 3584 3203 3211 
Q 3513 2838 3513 2113 
z
" id="DejaVuSans-68" transform="scale(0.015625)"/>
     </defs>
     <use xlink:href="#DejaVuSans-4c"/>
     <use x="55.712891" xlink:href="#DejaVuSans-61"/>
     <use x="116.992188" xlink:href="#DejaVuSans-62"/>
     <use x="180.46875" xlink:href="#DejaVuSans-79"/>
     <use x="239.648438" xlink:href="#DejaVuSans-72"/>
     <use x="280.761719" xlink:href="#DejaVuSans-69"/>
     <use x="308.544922" xlink:href="#DejaVuSans-6e"/>
     <use x="371.923828" xlink:href="#DejaVuSans-74"/>
     <use x="411.132812" xlink:href="#DejaVuSans-68"/>
    </g>
   </g>
  </g>
 </g>
 <defs>
  <clipPath id="p35ee923551">
   <rect height="163.08" width="196.941176" x="50.14375" y="22.318125"/>
  </clipPath>
  <clipPath id="pc5e1ba79fd">
   <rect height="163.08" width="196.941176" x="286.473162" y="22.318125"/>
  </clipPath>
  <clipPath id="p0452adcd62">
   <rect height="163.08" width="196.941176" x="522.802574" y="22.318125"/>
  </clipPath>
 </defs>
</svg>
