<?xml version="1.0" encoding="utf-8" standalone="no"?>
<!DOCTYPE svg PUBLIC "-//W3C//DTD SVG 1.1//EN"
  "http://www.w3.org/Graphics/SVG/1.1/DTD/svg11.dtd">
<svg height="329.117188pt" version="1.1" viewBox="0 0 309.94375 329.117188" width="309.94375pt" xmlns="http://www.w3.org/2000/svg" xmlns:xlink="http://www.w3.org/1999/xlink">
 <metadata>
  <rdf:RDF xmlns:cc="http://creativecommons.org/ns#" xmlns:dc="http://purl.org/dc/elements/1.1/" xmlns:rdf="http://www.w3.org/1999/02/22-rdf-syntax-ns#">
   <cc:Work>
    <dc:type rdf:resource="http://purl.org/dc/dcmitype/StillImage"/>
    <dc:date>2023-02-10T07:34:20.322238</dc:date>
    <dc:format>image/svg+xml</dc:format>
    <dc:creator>
     <cc:Agent>
      <dc:title>Matplotlib v3.4.3, https://matplotlib.org/</dc:title>
     </cc:Agent>
    </dc:creator>
   </cc:Work>
  </rdf:RDF>
 </metadata>
 <defs>
  <style type="text/css">*{stroke-linecap:butt;stroke-linejoin:round;}</style>
 </defs>
 <g id="figure_1">
  <g id="patch_1">
   <path d="M 0 329.117188 
L 309.94375 329.117188 
L 309.94375 0 
L 0 0 
z
" style="fill:none;"/>
  </g>
  <g id="axes_1">
   <g id="patch_2">
    <path d="M 23.74375 300.4 
L 302.74375 300.4 
L 302.74375 28.6 
L 23.74375 28.6 
z
" style="fill:none;"/>
   </g>
   <g id="PolyCollection_1">
    <path clip-path="url(#p4e3096bbe8)" d="M 23.74375 300.4 
L 23.74375 246.04 
L 79.54375 246.04 
L 79.54375 300.4 
L 23.74375 300.4 
z
" style="fill:#0b0000;"/>
    <path clip-path="url(#p4e3096bbe8)" d="M 79.54375 300.4 
L 79.54375 246.04 
L 135.34375 246.04 
L 135.34375 300.4 
L 79.54375 300.4 
z
" style="fill:#0b0000;"/>
    <path clip-path="url(#p4e3096bbe8)" d="M 135.34375 300.4 
L 135.34375 246.04 
L 191.14375 246.04 
L 191.14375 300.4 
L 135.34375 300.4 
z
" style="fill:#0b0000;"/>
    <path clip-path="url(#p4e3096bbe8)" d="M 191.14375 300.4 
L 191.14375 246.04 
L 246.94375 246.04 
L 246.94375 300.4 
L 191.14375 300.4 
z
" style="fill:#0b0000;"/>
    <path clip-path="url(#p4e3096bbe8)" d="M 246.94375 300.4 
L 246.94375 246.04 
L 302.74375 246.04 
L 302.74375 300.4 
L 246.94375 300.4 
z
" style="fill:#0b0000;"/>
    <path clip-path="url(#p4e3096bbe8)" d="M 23.74375 246.04 
L 23.74375 191.68 
L 79.54375 191.68 
L 79.54375 246.04 
L 23.74375 246.04 
z
" style="fill:#0b0000;"/>
    <path clip-path="url(#p4e3096bbe8)" d="M 79.54375 246.04 
L 79.54375 191.68 
L 135.34375 191.68 
L 135.34375 246.04 
L 79.54375 246.04 
z
" style="fill:#0b0000;"/>
    <path clip-path="url(#p4e3096bbe8)" d="M 135.34375 246.04 
L 135.34375 191.68 
L 191.14375 191.68 
L 191.14375 246.04 
L 135.34375 246.04 
z
" style="fill:#0b0000;"/>
    <path clip-path="url(#p4e3096bbe8)" d="M 191.14375 246.04 
L 191.14375 191.68 
L 246.94375 191.68 
L 246.94375 246.04 
L 191.14375 246.04 
z
" style="fill:#0b0000;"/>
    <path clip-path="url(#p4e3096bbe8)" d="M 246.94375 246.04 
L 246.94375 191.68 
L 302.74375 191.68 
L 302.74375 246.04 
L 246.94375 246.04 
z
" style="fill:#0b0000;"/>
    <path clip-path="url(#p4e3096bbe8)" d="M 23.74375 191.68 
L 23.74375 137.32 
L 79.54375 137.32 
L 79.54375 191.68 
L 23.74375 191.68 
z
" style="fill:#0b0000;"/>
    <path clip-path="url(#p4e3096bbe8)" d="M 79.54375 191.68 
L 79.54375 137.32 
L 135.34375 137.32 
L 135.34375 191.68 
L 79.54375 191.68 
z
" style="fill:#0b0000;"/>
    <path clip-path="url(#p4e3096bbe8)" d="M 135.34375 191.68 
L 135.34375 137.32 
L 191.14375 137.32 
L 191.14375 191.68 
L 135.34375 191.68 
z
" style="fill:#0b0000;"/>
    <path clip-path="url(#p4e3096bbe8)" d="M 191.14375 191.68 
L 191.14375 137.32 
L 246.94375 137.32 
L 246.94375 191.68 
L 191.14375 191.68 
z
" style="fill:#0b0000;"/>
    <path clip-path="url(#p4e3096bbe8)" d="M 246.94375 191.68 
L 246.94375 137.32 
L 302.74375 137.32 
L 302.74375 191.68 
L 246.94375 191.68 
z
" style="fill:#0b0000;"/>
    <path clip-path="url(#p4e3096bbe8)" d="M 23.74375 137.32 
L 23.74375 82.96 
L 79.54375 82.96 
L 79.54375 137.32 
L 23.74375 137.32 
z
" style="fill:#0b0000;"/>
    <path clip-path="url(#p4e3096bbe8)" d="M 79.54375 137.32 
L 79.54375 82.96 
L 135.34375 82.96 
L 135.34375 137.32 
L 79.54375 137.32 
z
" style="fill:#0b0000;"/>
    <path clip-path="url(#p4e3096bbe8)" d="M 135.34375 137.32 
L 135.34375 82.96 
L 191.14375 82.96 
L 191.14375 137.32 
L 135.34375 137.32 
z
" style="fill:#0b0000;"/>
    <path clip-path="url(#p4e3096bbe8)" d="M 191.14375 137.32 
L 191.14375 82.96 
L 246.94375 82.96 
L 246.94375 137.32 
L 191.14375 137.32 
z
" style="fill:#0b0000;"/>
    <path clip-path="url(#p4e3096bbe8)" d="M 246.94375 137.32 
L 246.94375 82.96 
L 302.74375 82.96 
L 302.74375 137.32 
L 246.94375 137.32 
z
" style="fill:#0b0000;"/>
    <path clip-path="url(#p4e3096bbe8)" d="M 23.74375 82.96 
L 23.74375 28.6 
L 79.54375 28.6 
L 79.54375 82.96 
L 23.74375 82.96 
z
" style="fill:#0b0000;"/>
    <path clip-path="url(#p4e3096bbe8)" d="M 79.54375 82.96 
L 79.54375 28.6 
L 135.34375 28.6 
L 135.34375 82.96 
L 79.54375 82.96 
z
" style="fill:#0b0000;"/>
    <path clip-path="url(#p4e3096bbe8)" d="M 135.34375 82.96 
L 135.34375 28.6 
L 191.14375 28.6 
L 191.14375 82.96 
L 135.34375 82.96 
z
" style="fill:#0b0000;"/>
    <path clip-path="url(#p4e3096bbe8)" d="M 191.14375 82.96 
L 191.14375 28.6 
L 246.94375 28.6 
L 246.94375 82.96 
L 191.14375 82.96 
z
" style="fill:#0b0000;"/>
    <path clip-path="url(#p4e3096bbe8)" d="M 246.94375 82.96 
L 246.94375 28.6 
L 302.74375 28.6 
L 302.74375 82.96 
L 246.94375 82.96 
z
" style="fill:#0b0000;"/>
   </g>
   <g id="PatchCollection_1">
    <path clip-path="url(#p4e3096bbe8)" d="M 42.34375 264.16 
L 23.74375 273.22 
L 42.34375 282.28 
z
" style="fill:#6c0000;"/>
    <path clip-path="url(#p4e3096bbe8)" d="M 98.14375 264.16 
L 79.54375 273.22 
L 98.14375 282.28 
z
" style="fill:#830000;"/>
    <path clip-path="url(#p4e3096bbe8)" d="M 153.94375 264.16 
L 135.34375 273.22 
L 153.94375 282.28 
z
" style="fill:#9b0000;"/>
    <path clip-path="url(#p4e3096bbe8)" d="M 209.74375 264.16 
L 191.14375 273.22 
L 209.74375 282.28 
z
" style="fill:#830000;"/>
    <path clip-path="url(#p4e3096bbe8)" d="M 265.54375 264.16 
L 246.94375 273.22 
L 265.54375 282.28 
z
" style="fill:#6c0000;"/>
    <path clip-path="url(#p4e3096bbe8)" d="M 42.34375 209.8 
L 23.74375 218.86 
L 42.34375 227.92 
z
" style="fill:#830000;"/>
    <path clip-path="url(#p4e3096bbe8)" d="M 98.14375 209.8 
L 79.54375 218.86 
L 98.14375 227.92 
z
" style="fill:#b50000;"/>
    <path clip-path="url(#p4e3096bbe8)" d="M 153.94375 209.8 
L 135.34375 218.86 
L 153.94375 227.92 
z
" style="fill:#ff1000;"/>
    <path clip-path="url(#p4e3096bbe8)" d="M 209.74375 209.8 
L 191.14375 218.86 
L 209.74375 227.92 
z
" style="fill:#b50000;"/>
    <path clip-path="url(#p4e3096bbe8)" d="M 265.54375 209.8 
L 246.94375 218.86 
L 265.54375 227.92 
z
" style="fill:#830000;"/>
    <path clip-path="url(#p4e3096bbe8)" d="M 42.34375 155.44 
L 23.74375 164.5 
L 42.34375 173.56 
z
" style="fill:#9b0000;"/>
    <path clip-path="url(#p4e3096bbe8)" d="M 98.14375 155.44 
L 79.54375 164.5 
L 98.14375 173.56 
z
" style="fill:#ff1000;"/>
    <path clip-path="url(#p4e3096bbe8)" d="M 153.94375 155.44 
L 135.34375 164.5 
L 153.94375 173.56 
z
" style="fill:#ffffff;"/>
    <path clip-path="url(#p4e3096bbe8)" d="M 209.74375 155.44 
L 191.14375 164.5 
L 209.74375 173.56 
z
" style="fill:#ff1000;"/>
    <path clip-path="url(#p4e3096bbe8)" d="M 265.54375 155.44 
L 246.94375 164.5 
L 265.54375 173.56 
z
" style="fill:#9b0000;"/>
    <path clip-path="url(#p4e3096bbe8)" d="M 42.34375 101.08 
L 23.74375 110.14 
L 42.34375 119.2 
z
" style="fill:#830000;"/>
    <path clip-path="url(#p4e3096bbe8)" d="M 98.14375 101.08 
L 79.54375 110.14 
L 98.14375 119.2 
z
" style="fill:#b50000;"/>
    <path clip-path="url(#p4e3096bbe8)" d="M 153.94375 101.08 
L 135.34375 110.14 
L 153.94375 119.2 
z
" style="fill:#ff1000;"/>
    <path clip-path="url(#p4e3096bbe8)" d="M 209.74375 101.08 
L 191.14375 110.14 
L 209.74375 119.2 
z
" style="fill:#b50000;"/>
    <path clip-path="url(#p4e3096bbe8)" d="M 265.54375 101.08 
L 246.94375 110.14 
L 265.54375 119.2 
z
" style="fill:#830000;"/>
    <path clip-path="url(#p4e3096bbe8)" d="M 42.34375 46.72 
L 23.74375 55.78 
L 42.34375 64.84 
z
" style="fill:#6c0000;"/>
    <path clip-path="url(#p4e3096bbe8)" d="M 98.14375 46.72 
L 79.54375 55.78 
L 98.14375 64.84 
z
" style="fill:#830000;"/>
    <path clip-path="url(#p4e3096bbe8)" d="M 153.94375 46.72 
L 135.34375 55.78 
L 153.94375 64.84 
z
" style="fill:#9b0000;"/>
    <path clip-path="url(#p4e3096bbe8)" d="M 209.74375 46.72 
L 191.14375 55.78 
L 209.74375 64.84 
z
" style="fill:#830000;"/>
    <path clip-path="url(#p4e3096bbe8)" d="M 265.54375 46.72 
L 246.94375 55.78 
L 265.54375 64.84 
z
" style="fill:#6c0000;"/>
    <path clip-path="url(#p4e3096bbe8)" d="M 60.94375 282.28 
L 42.34375 282.28 
L 51.64375 300.4 
z
" style="fill:#6c0000;"/>
    <path clip-path="url(#p4e3096bbe8)" d="M 116.74375 282.28 
L 98.14375 282.28 
L 107.44375 300.4 
z
" style="fill:#830000;"/>
    <path clip-path="url(#p4e3096bbe8)" d="M 172.54375 282.28 
L 153.94375 282.28 
L 163.24375 300.4 
z
" style="fill:#9b0000;"/>
    <path clip-path="url(#p4e3096bbe8)" d="M 228.34375 282.28 
L 209.74375 282.28 
L 219.04375 300.4 
z
" style="fill:#830000;"/>
    <path clip-path="url(#p4e3096bbe8)" d="M 284.14375 282.28 
L 265.54375 282.28 
L 274.84375 300.4 
z
" style="fill:#6c0000;"/>
    <path clip-path="url(#p4e3096bbe8)" d="M 60.94375 227.92 
L 42.34375 227.92 
L 51.64375 246.04 
z
" style="fill:#830000;"/>
    <path clip-path="url(#p4e3096bbe8)" d="M 116.74375 227.92 
L 98.14375 227.92 
L 107.44375 246.04 
z
" style="fill:#b50000;"/>
    <path clip-path="url(#p4e3096bbe8)" d="M 172.54375 227.92 
L 153.94375 227.92 
L 163.24375 246.04 
z
" style="fill:#ff1000;"/>
    <path clip-path="url(#p4e3096bbe8)" d="M 228.34375 227.92 
L 209.74375 227.92 
L 219.04375 246.04 
z
" style="fill:#b50000;"/>
    <path clip-path="url(#p4e3096bbe8)" d="M 284.14375 227.92 
L 265.54375 227.92 
L 274.84375 246.04 
z
" style="fill:#830000;"/>
    <path clip-path="url(#p4e3096bbe8)" d="M 60.94375 173.56 
L 42.34375 173.56 
L 51.64375 191.68 
z
" style="fill:#9b0000;"/>
    <path clip-path="url(#p4e3096bbe8)" d="M 116.74375 173.56 
L 98.14375 173.56 
L 107.44375 191.68 
z
" style="fill:#ff1000;"/>
    <path clip-path="url(#p4e3096bbe8)" d="M 172.54375 173.56 
L 153.94375 173.56 
L 163.24375 191.68 
z
" style="fill:#ffffff;"/>
    <path clip-path="url(#p4e3096bbe8)" d="M 228.34375 173.56 
L 209.74375 173.56 
L 219.04375 191.68 
z
" style="fill:#ff1000;"/>
    <path clip-path="url(#p4e3096bbe8)" d="M 284.14375 173.56 
L 265.54375 173.56 
L 274.84375 191.68 
z
" style="fill:#9b0000;"/>
    <path clip-path="url(#p4e3096bbe8)" d="M 60.94375 119.2 
L 42.34375 119.2 
L 51.64375 137.32 
z
" style="fill:#830000;"/>
    <path clip-path="url(#p4e3096bbe8)" d="M 116.74375 119.2 
L 98.14375 119.2 
L 107.44375 137.32 
z
" style="fill:#b50000;"/>
    <path clip-path="url(#p4e3096bbe8)" d="M 172.54375 119.2 
L 153.94375 119.2 
L 163.24375 137.32 
z
" style="fill:#ff1000;"/>
    <path clip-path="url(#p4e3096bbe8)" d="M 228.34375 119.2 
L 209.74375 119.2 
L 219.04375 137.32 
z
" style="fill:#b50000;"/>
    <path clip-path="url(#p4e3096bbe8)" d="M 284.14375 119.2 
L 265.54375 119.2 
L 274.84375 137.32 
z
" style="fill:#830000;"/>
    <path clip-path="url(#p4e3096bbe8)" d="M 60.94375 64.84 
L 42.34375 64.84 
L 51.64375 82.96 
z
" style="fill:#6c0000;"/>
    <path clip-path="url(#p4e3096bbe8)" d="M 116.74375 64.84 
L 98.14375 64.84 
L 107.44375 82.96 
z
" style="fill:#830000;"/>
    <path clip-path="url(#p4e3096bbe8)" d="M 172.54375 64.84 
L 153.94375 64.84 
L 163.24375 82.96 
z
" style="fill:#9b0000;"/>
    <path clip-path="url(#p4e3096bbe8)" d="M 228.34375 64.84 
L 209.74375 64.84 
L 219.04375 82.96 
z
" style="fill:#830000;"/>
    <path clip-path="url(#p4e3096bbe8)" d="M 284.14375 64.84 
L 265.54375 64.84 
L 274.84375 82.96 
z
" style="fill:#6c0000;"/>
    <path clip-path="url(#p4e3096bbe8)" d="M 79.54375 273.22 
L 60.94375 264.16 
L 60.94375 282.28 
z
" style="fill:#6c0000;"/>
    <path clip-path="url(#p4e3096bbe8)" d="M 135.34375 273.22 
L 116.74375 264.16 
L 116.74375 282.28 
z
" style="fill:#830000;"/>
    <path clip-path="url(#p4e3096bbe8)" d="M 191.14375 273.22 
L 172.54375 264.16 
L 172.54375 282.28 
z
" style="fill:#9b0000;"/>
    <path clip-path="url(#p4e3096bbe8)" d="M 246.94375 273.22 
L 228.34375 264.16 
L 228.34375 282.28 
z
" style="fill:#830000;"/>
    <path clip-path="url(#p4e3096bbe8)" d="M 302.74375 273.22 
L 284.14375 264.16 
L 284.14375 282.28 
z
" style="fill:#6c0000;"/>
    <path clip-path="url(#p4e3096bbe8)" d="M 79.54375 218.86 
L 60.94375 209.8 
L 60.94375 227.92 
z
" style="fill:#830000;"/>
    <path clip-path="url(#p4e3096bbe8)" d="M 135.34375 218.86 
L 116.74375 209.8 
L 116.74375 227.92 
z
" style="fill:#b50000;"/>
    <path clip-path="url(#p4e3096bbe8)" d="M 191.14375 218.86 
L 172.54375 209.8 
L 172.54375 227.92 
z
" style="fill:#ff1000;"/>
    <path clip-path="url(#p4e3096bbe8)" d="M 246.94375 218.86 
L 228.34375 209.8 
L 228.34375 227.92 
z
" style="fill:#b50000;"/>
    <path clip-path="url(#p4e3096bbe8)" d="M 302.74375 218.86 
L 284.14375 209.8 
L 284.14375 227.92 
z
" style="fill:#830000;"/>
    <path clip-path="url(#p4e3096bbe8)" d="M 79.54375 164.5 
L 60.94375 155.44 
L 60.94375 173.56 
z
" style="fill:#9b0000;"/>
    <path clip-path="url(#p4e3096bbe8)" d="M 135.34375 164.5 
L 116.74375 155.44 
L 116.74375 173.56 
z
" style="fill:#ff1000;"/>
    <path clip-path="url(#p4e3096bbe8)" d="M 191.14375 164.5 
L 172.54375 155.44 
L 172.54375 173.56 
z
" style="fill:#ffffff;"/>
    <path clip-path="url(#p4e3096bbe8)" d="M 246.94375 164.5 
L 228.34375 155.44 
L 228.34375 173.56 
z
" style="fill:#ff1000;"/>
    <path clip-path="url(#p4e3096bbe8)" d="M 302.74375 164.5 
L 284.14375 155.44 
L 284.14375 173.56 
z
" style="fill:#9b0000;"/>
    <path clip-path="url(#p4e3096bbe8)" d="M 79.54375 110.14 
L 60.94375 101.08 
L 60.94375 119.2 
z
" style="fill:#830000;"/>
    <path clip-path="url(#p4e3096bbe8)" d="M 135.34375 110.14 
L 116.74375 101.08 
L 116.74375 119.2 
z
" style="fill:#b50000;"/>
    <path clip-path="url(#p4e3096bbe8)" d="M 191.14375 110.14 
L 172.54375 101.08 
L 172.54375 119.2 
z
" style="fill:#ff1000;"/>
    <path clip-path="url(#p4e3096bbe8)" d="M 246.94375 110.14 
L 228.34375 101.08 
L 228.34375 119.2 
z
" style="fill:#b50000;"/>
    <path clip-path="url(#p4e3096bbe8)" d="M 302.74375 110.14 
L 284.14375 101.08 
L 284.14375 119.2 
z
" style="fill:#830000;"/>
    <path clip-path="url(#p4e3096bbe8)" d="M 79.54375 55.78 
L 60.94375 46.72 
L 60.94375 64.84 
z
" style="fill:#6c0000;"/>
    <path clip-path="url(#p4e3096bbe8)" d="M 135.34375 55.78 
L 116.74375 46.72 
L 116.74375 64.84 
z
" style="fill:#830000;"/>
    <path clip-path="url(#p4e3096bbe8)" d="M 191.14375 55.78 
L 172.54375 46.72 
L 172.54375 64.84 
z
" style="fill:#9b0000;"/>
    <path clip-path="url(#p4e3096bbe8)" d="M 246.94375 55.78 
L 228.34375 46.72 
L 228.34375 64.84 
z
" style="fill:#830000;"/>
    <path clip-path="url(#p4e3096bbe8)" d="M 302.74375 55.78 
L 284.14375 46.72 
L 284.14375 64.84 
z
" style="fill:#6c0000;"/>
    <path clip-path="url(#p4e3096bbe8)" d="M 60.94375 264.16 
L 51.64375 246.04 
L 42.34375 264.16 
z
" style="fill:#6c0000;"/>
    <path clip-path="url(#p4e3096bbe8)" d="M 116.74375 264.16 
L 107.44375 246.04 
L 98.14375 264.16 
z
" style="fill:#830000;"/>
    <path clip-path="url(#p4e3096bbe8)" d="M 172.54375 264.16 
L 163.24375 246.04 
L 153.94375 264.16 
z
" style="fill:#9b0000;"/>
    <path clip-path="url(#p4e3096bbe8)" d="M 228.34375 264.16 
L 219.04375 246.04 
L 209.74375 264.16 
z
" style="fill:#830000;"/>
    <path clip-path="url(#p4e3096bbe8)" d="M 284.14375 264.16 
L 274.84375 246.04 
L 265.54375 264.16 
z
" style="fill:#6c0000;"/>
    <path clip-path="url(#p4e3096bbe8)" d="M 60.94375 209.8 
L 51.64375 191.68 
L 42.34375 209.8 
z
" style="fill:#830000;"/>
    <path clip-path="url(#p4e3096bbe8)" d="M 116.74375 209.8 
L 107.44375 191.68 
L 98.14375 209.8 
z
" style="fill:#b50000;"/>
    <path clip-path="url(#p4e3096bbe8)" d="M 172.54375 209.8 
L 163.24375 191.68 
L 153.94375 209.8 
z
" style="fill:#ff1000;"/>
    <path clip-path="url(#p4e3096bbe8)" d="M 228.34375 209.8 
L 219.04375 191.68 
L 209.74375 209.8 
z
" style="fill:#b50000;"/>
    <path clip-path="url(#p4e3096bbe8)" d="M 284.14375 209.8 
L 274.84375 191.68 
L 265.54375 209.8 
z
" style="fill:#830000;"/>
    <path clip-path="url(#p4e3096bbe8)" d="M 60.94375 155.44 
L 51.64375 137.32 
L 42.34375 155.44 
z
" style="fill:#9b0000;"/>
    <path clip-path="url(#p4e3096bbe8)" d="M 116.74375 155.44 
L 107.44375 137.32 
L 98.14375 155.44 
z
" style="fill:#ff1000;"/>
    <path clip-path="url(#p4e3096bbe8)" d="M 172.54375 155.44 
L 163.24375 137.32 
L 153.94375 155.44 
z
" style="fill:#ffffff;"/>
    <path clip-path="url(#p4e3096bbe8)" d="M 228.34375 155.44 
L 219.04375 137.32 
L 209.74375 155.44 
z
" style="fill:#ff1000;"/>
    <path clip-path="url(#p4e3096bbe8)" d="M 284.14375 155.44 
L 274.84375 137.32 
L 265.54375 155.44 
z
" style="fill:#9b0000;"/>
    <path clip-path="url(#p4e3096bbe8)" d="M 60.94375 101.08 
L 51.64375 82.96 
L 42.34375 101.08 
z
" style="fill:#830000;"/>
    <path clip-path="url(#p4e3096bbe8)" d="M 116.74375 101.08 
L 107.44375 82.96 
L 98.14375 101.08 
z
" style="fill:#b50000;"/>
    <path clip-path="url(#p4e3096bbe8)" d="M 172.54375 101.08 
L 163.24375 82.96 
L 153.94375 101.08 
z
" style="fill:#ff1000;"/>
    <path clip-path="url(#p4e3096bbe8)" d="M 228.34375 101.08 
L 219.04375 82.96 
L 209.74375 101.08 
z
" style="fill:#b50000;"/>
    <path clip-path="url(#p4e3096bbe8)" d="M 284.14375 101.08 
L 274.84375 82.96 
L 265.54375 101.08 
z
" style="fill:#830000;"/>
    <path clip-path="url(#p4e3096bbe8)" d="M 60.94375 46.72 
L 51.64375 28.6 
L 42.34375 46.72 
z
" style="fill:#6c0000;"/>
    <path clip-path="url(#p4e3096bbe8)" d="M 116.74375 46.72 
L 107.44375 28.6 
L 98.14375 46.72 
z
" style="fill:#830000;"/>
    <path clip-path="url(#p4e3096bbe8)" d="M 172.54375 46.72 
L 163.24375 28.6 
L 153.94375 46.72 
z
" style="fill:#9b0000;"/>
    <path clip-path="url(#p4e3096bbe8)" d="M 228.34375 46.72 
L 219.04375 28.6 
L 209.74375 46.72 
z
" style="fill:#830000;"/>
    <path clip-path="url(#p4e3096bbe8)" d="M 284.14375 46.72 
L 274.84375 28.6 
L 265.54375 46.72 
z
" style="fill:#6c0000;"/>
   </g>
   <g id="matplotlib.axis_1">
    <g id="xtick_1">
     <g id="line2d_1">
      <defs>
       <path d="M 0 0 
L 0 3.5 
" id="m1991b66602" style="stroke:#000000;stroke-width:0.8;"/>
      </defs>
      <g>
       <use style="stroke:#000000;stroke-width:0.8;" x="51.64375" xlink:href="#m1991b66602" y="300.4"/>
      </g>
     </g>
     <g id="text_1">
      <!-- 1 -->
      <g transform="translate(46.871875 318.797656)scale(0.15 -0.15)">
       <defs>
        <path d="M 794 531 
L 1825 531 
L 1825 4091 
L 703 3866 
L 703 4441 
L 1819 4666 
L 2450 4666 
L 2450 531 
L 3481 531 
L 3481 0 
L 794 0 
L 794 531 
z
" id="DejaVuSans-31" transform="scale(0.015625)"/>
       </defs>
       <use xlink:href="#DejaVuSans-31"/>
      </g>
     </g>
    </g>
    <g id="xtick_2">
     <g id="line2d_2">
      <g>
       <use style="stroke:#000000;stroke-width:0.8;" x="163.24375" xlink:href="#m1991b66602" y="300.4"/>
      </g>
     </g>
     <g id="text_2">
      <!-- 3 -->
      <g transform="translate(158.471875 318.797656)scale(0.15 -0.15)">
       <defs>
        <path d="M 2597 2516 
Q 3050 2419 3304 2112 
Q 3559 1806 3559 1356 
Q 3559 666 3084 287 
Q 2609 -91 1734 -91 
Q 1441 -91 1130 -33 
Q 819 25 488 141 
L 488 750 
Q 750 597 1062 519 
Q 1375 441 1716 441 
Q 2309 441 2620 675 
Q 2931 909 2931 1356 
Q 2931 1769 2642 2001 
Q 2353 2234 1838 2234 
L 1294 2234 
L 1294 2753 
L 1863 2753 
Q 2328 2753 2575 2939 
Q 2822 3125 2822 3475 
Q 2822 3834 2567 4026 
Q 2313 4219 1838 4219 
Q 1578 4219 1281 4162 
Q 984 4106 628 3988 
L 628 4550 
Q 988 4650 1302 4700 
Q 1616 4750 1894 4750 
Q 2613 4750 3031 4423 
Q 3450 4097 3450 3541 
Q 3450 3153 3228 2886 
Q 3006 2619 2597 2516 
z
" id="DejaVuSans-33" transform="scale(0.015625)"/>
       </defs>
       <use xlink:href="#DejaVuSans-33"/>
      </g>
     </g>
    </g>
    <g id="xtick_3">
     <g id="line2d_3">
      <g>
       <use style="stroke:#000000;stroke-width:0.8;" x="274.84375" xlink:href="#m1991b66602" y="300.4"/>
      </g>
     </g>
     <g id="text_3">
      <!-- 5 -->
      <g transform="translate(270.071875 318.797656)scale(0.15 -0.15)">
       <defs>
        <path d="M 691 4666 
L 3169 4666 
L 3169 4134 
L 1269 4134 
L 1269 2991 
Q 1406 3038 1543 3061 
Q 1681 3084 1819 3084 
Q 2600 3084 3056 2656 
Q 3513 2228 3513 1497 
Q 3513 744 3044 326 
Q 2575 -91 1722 -91 
Q 1428 -91 1123 -41 
Q 819 9 494 109 
L 494 744 
Q 775 591 1075 516 
Q 1375 441 1709 441 
Q 2250 441 2565 725 
Q 2881 1009 2881 1497 
Q 2881 1984 2565 2268 
Q 2250 2553 1709 2553 
Q 1456 2553 1204 2497 
Q 953 2441 691 2322 
L 691 4666 
z
" id="DejaVuSans-35" transform="scale(0.015625)"/>
       </defs>
       <use xlink:href="#DejaVuSans-35"/>
      </g>
     </g>
    </g>
   </g>
   <g id="matplotlib.axis_2">
    <g id="ytick_1">
     <g id="line2d_4">
      <defs>
       <path d="M 0 0 
L -3.5 0 
" id="ma56cd3d6d1" style="stroke:#000000;stroke-width:0.8;"/>
      </defs>
      <g>
       <use style="stroke:#000000;stroke-width:0.8;" x="23.74375" xlink:href="#ma56cd3d6d1" y="273.22"/>
      </g>
     </g>
     <g id="text_4">
      <!-- 1 -->
      <g transform="translate(7.2 278.918828)scale(0.15 -0.15)">
       <use xlink:href="#DejaVuSans-31"/>
      </g>
     </g>
    </g>
    <g id="ytick_2">
     <g id="line2d_5">
      <g>
       <use style="stroke:#000000;stroke-width:0.8;" x="23.74375" xlink:href="#ma56cd3d6d1" y="164.5"/>
      </g>
     </g>
     <g id="text_5">
      <!-- 3 -->
      <g transform="translate(7.2 170.198828)scale(0.15 -0.15)">
       <use xlink:href="#DejaVuSans-33"/>
      </g>
     </g>
    </g>
    <g id="ytick_3">
     <g id="line2d_6">
      <g>
       <use style="stroke:#000000;stroke-width:0.8;" x="23.74375" xlink:href="#ma56cd3d6d1" y="55.78"/>
      </g>
     </g>
     <g id="text_6">
      <!-- 5 -->
      <g transform="translate(7.2 61.478828)scale(0.15 -0.15)">
       <use xlink:href="#DejaVuSans-35"/>
      </g>
     </g>
    </g>
   </g>
   <g id="line2d_7">
    <path clip-path="url(#p4e3096bbe8)" d="M 79.54375 300.4 
L 79.54375 28.6 
" style="fill:none;stroke:#ffffff;stroke-linecap:square;stroke-width:0.5;"/>
   </g>
   <g id="line2d_8">
    <path clip-path="url(#p4e3096bbe8)" d="M 23.74375 246.04 
L 302.74375 246.04 
" style="fill:none;stroke:#ffffff;stroke-linecap:square;stroke-width:0.5;"/>
   </g>
   <g id="line2d_9">
    <path clip-path="url(#p4e3096bbe8)" d="M 135.34375 300.4 
L 135.34375 28.6 
" style="fill:none;stroke:#ffffff;stroke-linecap:square;stroke-width:0.5;"/>
   </g>
   <g id="line2d_10">
    <path clip-path="url(#p4e3096bbe8)" d="M 23.74375 191.68 
L 302.74375 191.68 
" style="fill:none;stroke:#ffffff;stroke-linecap:square;stroke-width:0.5;"/>
   </g>
   <g id="line2d_11">
    <path clip-path="url(#p4e3096bbe8)" d="M 191.14375 300.4 
L 191.14375 28.6 
" style="fill:none;stroke:#ffffff;stroke-linecap:square;stroke-width:0.5;"/>
   </g>
   <g id="line2d_12">
    <path clip-path="url(#p4e3096bbe8)" d="M 23.74375 137.32 
L 302.74375 137.32 
" style="fill:none;stroke:#ffffff;stroke-linecap:square;stroke-width:0.5;"/>
   </g>
   <g id="line2d_13">
    <path clip-path="url(#p4e3096bbe8)" d="M 246.94375 300.4 
L 246.94375 28.6 
" style="fill:none;stroke:#ffffff;stroke-linecap:square;stroke-width:0.5;"/>
   </g>
   <g id="line2d_14">
    <path clip-path="url(#p4e3096bbe8)" d="M 23.74375 82.96 
L 302.74375 82.96 
" style="fill:none;stroke:#ffffff;stroke-linecap:square;stroke-width:0.5;"/>
   </g>
   <g id="patch_3">
    <path d="M 23.74375 300.4 
L 23.74375 28.6 
" style="fill:none;stroke:#000000;stroke-linecap:square;stroke-linejoin:miter;stroke-width:0.8;"/>
   </g>
   <g id="patch_4">
    <path d="M 302.74375 300.4 
L 302.74375 28.6 
" style="fill:none;stroke:#000000;stroke-linecap:square;stroke-linejoin:miter;stroke-width:0.8;"/>
   </g>
   <g id="patch_5">
    <path d="M 23.74375 300.4 
L 302.74375 300.4 
" style="fill:none;stroke:#000000;stroke-linecap:square;stroke-linejoin:miter;stroke-width:0.8;"/>
   </g>
   <g id="patch_6">
    <path d="M 23.74375 28.6 
L 302.74375 28.6 
" style="fill:none;stroke:#000000;stroke-linecap:square;stroke-linejoin:miter;stroke-width:0.8;"/>
   </g>
   <g id="text_7">
    <!-- $R(e|e_-1)$ -->
    <g transform="translate(117.54375 22.6)scale(0.2 -0.2)">
     <defs>
      <path d="M 1613 4147 
L 1294 2491 
L 2106 2491 
Q 2584 2491 2879 2755 
Q 3175 3019 3175 3444 
Q 3175 3784 2976 3965 
Q 2778 4147 2406 4147 
L 1613 4147 
z
M 2772 2241 
Q 2972 2194 3105 2009 
Q 3238 1825 3413 1275 
L 3809 0 
L 3144 0 
L 2778 1197 
Q 2638 1659 2453 1815 
Q 2269 1972 1888 1972 
L 1191 1972 
L 806 0 
L 172 0 
L 1081 4666 
L 2503 4666 
Q 3150 4666 3495 4373 
Q 3841 4081 3841 3531 
Q 3841 3044 3547 2687 
Q 3253 2331 2772 2241 
z
" id="DejaVuSans-Oblique-52" transform="scale(0.015625)"/>
      <path d="M 1984 4856 
Q 1566 4138 1362 3434 
Q 1159 2731 1159 2009 
Q 1159 1288 1364 580 
Q 1569 -128 1984 -844 
L 1484 -844 
Q 1016 -109 783 600 
Q 550 1309 550 2009 
Q 550 2706 781 3412 
Q 1013 4119 1484 4856 
L 1984 4856 
z
" id="DejaVuSans-28" transform="scale(0.015625)"/>
      <path d="M 3078 2063 
Q 3088 2113 3092 2166 
Q 3097 2219 3097 2272 
Q 3097 2653 2873 2875 
Q 2650 3097 2266 3097 
Q 1838 3097 1509 2826 
Q 1181 2556 1013 2059 
L 3078 2063 
z
M 3578 1613 
L 903 1613 
Q 884 1494 878 1425 
Q 872 1356 872 1306 
Q 872 872 1139 634 
Q 1406 397 1894 397 
Q 2269 397 2603 481 
Q 2938 566 3225 728 
L 3116 159 
Q 2806 34 2476 -28 
Q 2147 -91 1806 -91 
Q 1078 -91 686 257 
Q 294 606 294 1247 
Q 294 1794 489 2264 
Q 684 2734 1063 3103 
Q 1306 3334 1642 3459 
Q 1978 3584 2356 3584 
Q 2950 3584 3301 3228 
Q 3653 2872 3653 2272 
Q 3653 2128 3634 1964 
Q 3616 1800 3578 1613 
z
" id="DejaVuSans-Oblique-65" transform="scale(0.015625)"/>
      <path d="M 1344 4891 
L 1344 -1509 
L 813 -1509 
L 813 4891 
L 1344 4891 
z
" id="DejaVuSans-7c" transform="scale(0.015625)"/>
      <path d="M 678 2272 
L 4684 2272 
L 4684 1741 
L 678 1741 
L 678 2272 
z
" id="DejaVuSans-2212" transform="scale(0.015625)"/>
      <path d="M 513 4856 
L 1013 4856 
Q 1481 4119 1714 3412 
Q 1947 2706 1947 2009 
Q 1947 1309 1714 600 
Q 1481 -109 1013 -844 
L 513 -844 
Q 928 -128 1133 580 
Q 1338 1288 1338 2009 
Q 1338 2731 1133 3434 
Q 928 4138 513 4856 
z
" id="DejaVuSans-29" transform="scale(0.015625)"/>
     </defs>
     <use transform="translate(0 0.578125)" xlink:href="#DejaVuSans-Oblique-52"/>
     <use transform="translate(69.482422 0.578125)" xlink:href="#DejaVuSans-28"/>
     <use transform="translate(108.496094 0.578125)" xlink:href="#DejaVuSans-Oblique-65"/>
     <use transform="translate(170.019531 0.578125)" xlink:href="#DejaVuSans-7c"/>
     <use transform="translate(203.710938 0.578125)" xlink:href="#DejaVuSans-Oblique-65"/>
     <use transform="translate(278.87207 -15.828125)scale(0.7)" xlink:href="#DejaVuSans-2212"/>
     <use transform="translate(353.896484 0.578125)" xlink:href="#DejaVuSans-31"/>
     <use transform="translate(417.519531 0.578125)" xlink:href="#DejaVuSans-29"/>
    </g>
   </g>
  </g>
 </g>
 <defs>
  <clipPath id="p4e3096bbe8">
   <rect height="271.8" width="279" x="23.74375" y="28.6"/>
  </clipPath>
 </defs>
</svg>
