<?xml version="1.0" encoding="utf-8" standalone="no"?>
<!DOCTYPE svg PUBLIC "-//W3C//DTD SVG 1.1//EN"
  "http://www.w3.org/Graphics/SVG/1.1/DTD/svg11.dtd">
<svg height="306.677344pt" version="1.1" viewBox="0 0 319.4875 306.677344" width="319.4875pt" xmlns="http://www.w3.org/2000/svg" xmlns:xlink="http://www.w3.org/1999/xlink">
 <metadata>
  <rdf:RDF xmlns:cc="http://creativecommons.org/ns#" xmlns:dc="http://purl.org/dc/elements/1.1/" xmlns:rdf="http://www.w3.org/1999/02/22-rdf-syntax-ns#">
   <cc:Work>
    <dc:type rdf:resource="http://purl.org/dc/dcmitype/StillImage"/>
    <dc:date>2023-01-28T01:49:41.971735</dc:date>
    <dc:format>image/svg+xml</dc:format>
    <dc:creator>
     <cc:Agent>
      <dc:title>Matplotlib v3.4.3, https://matplotlib.org/</dc:title>
     </cc:Agent>
    </dc:creator>
   </cc:Work>
  </rdf:RDF>
 </metadata>
 <defs>
  <style type="text/css">*{stroke-linecap:butt;stroke-linejoin:round;}</style>
 </defs>
 <g id="figure_1">
  <g id="patch_1">
   <path d="M 0 306.677344 
L 319.4875 306.677344 
L 319.4875 0 
L 0 0 
z
" style="fill:none;"/>
  </g>
  <g id="axes_1">
   <g id="patch_2">
    <path d="M 26.925 282.799219 
L 305.925 282.799219 
L 305.925 10.999219 
L 26.925 10.999219 
z
" style="fill:none;"/>
   </g>
   <g id="PolyCollection_1">
    <path clip-path="url(#p211378ccbf)" d="M 26.925 282.799219 
L 26.925 255.619219 
L 54.825 255.619219 
L 54.825 282.799219 
L 26.925 282.799219 
z
" style="fill:#0b0000;"/>
    <path clip-path="url(#p211378ccbf)" d="M 54.825 282.799219 
L 54.825 255.619219 
L 82.725 255.619219 
L 82.725 282.799219 
L 54.825 282.799219 
z
" style="fill:#0b0000;"/>
    <path clip-path="url(#p211378ccbf)" d="M 82.725 282.799219 
L 82.725 255.619219 
L 110.625 255.619219 
L 110.625 282.799219 
L 82.725 282.799219 
z
" style="fill:#0b0000;"/>
    <path clip-path="url(#p211378ccbf)" d="M 110.625 282.799219 
L 110.625 255.619219 
L 138.525 255.619219 
L 138.525 282.799219 
L 110.625 282.799219 
z
" style="fill:#0b0000;"/>
    <path clip-path="url(#p211378ccbf)" d="M 138.525 282.799219 
L 138.525 255.619219 
L 166.425 255.619219 
L 166.425 282.799219 
L 138.525 282.799219 
z
" style="fill:#0b0000;"/>
    <path clip-path="url(#p211378ccbf)" d="M 166.425 282.799219 
L 166.425 255.619219 
L 194.325 255.619219 
L 194.325 282.799219 
L 166.425 282.799219 
z
" style="fill:#0b0000;"/>
    <path clip-path="url(#p211378ccbf)" d="M 194.325 282.799219 
L 194.325 255.619219 
L 222.225 255.619219 
L 222.225 282.799219 
L 194.325 282.799219 
z
" style="fill:#0b0000;"/>
    <path clip-path="url(#p211378ccbf)" d="M 222.225 282.799219 
L 222.225 255.619219 
L 250.125 255.619219 
L 250.125 282.799219 
L 222.225 282.799219 
z
" style="fill:#0b0000;"/>
    <path clip-path="url(#p211378ccbf)" d="M 250.125 282.799219 
L 250.125 255.619219 
L 278.025 255.619219 
L 278.025 282.799219 
L 250.125 282.799219 
z
" style="fill:#0b0000;"/>
    <path clip-path="url(#p211378ccbf)" d="M 278.025 282.799219 
L 278.025 255.619219 
L 305.925 255.619219 
L 305.925 282.799219 
L 278.025 282.799219 
z
" style="fill:#0b0000;"/>
    <path clip-path="url(#p211378ccbf)" d="M 26.925 255.619219 
L 26.925 228.439219 
L 54.825 228.439219 
L 54.825 255.619219 
L 26.925 255.619219 
z
" style="fill:#0b0000;"/>
    <path clip-path="url(#p211378ccbf)" d="M 54.825 255.619219 
L 54.825 228.439219 
L 82.725 228.439219 
L 82.725 255.619219 
L 54.825 255.619219 
z
" style="fill:#0b0000;"/>
    <path clip-path="url(#p211378ccbf)" d="M 82.725 255.619219 
L 82.725 228.439219 
L 110.625 228.439219 
L 110.625 255.619219 
L 82.725 255.619219 
z
" style="fill:#0b0000;"/>
    <path clip-path="url(#p211378ccbf)" d="M 110.625 255.619219 
L 110.625 228.439219 
L 138.525 228.439219 
L 138.525 255.619219 
L 110.625 255.619219 
z
" style="fill:#0b0000;"/>
    <path clip-path="url(#p211378ccbf)" d="M 138.525 255.619219 
L 138.525 228.439219 
L 166.425 228.439219 
L 166.425 255.619219 
L 138.525 255.619219 
z
" style="fill:#0b0000;"/>
    <path clip-path="url(#p211378ccbf)" d="M 166.425 255.619219 
L 166.425 228.439219 
L 194.325 228.439219 
L 194.325 255.619219 
L 166.425 255.619219 
z
" style="fill:#0b0000;"/>
    <path clip-path="url(#p211378ccbf)" d="M 194.325 255.619219 
L 194.325 228.439219 
L 222.225 228.439219 
L 222.225 255.619219 
L 194.325 255.619219 
z
" style="fill:#0b0000;"/>
    <path clip-path="url(#p211378ccbf)" d="M 222.225 255.619219 
L 222.225 228.439219 
L 250.125 228.439219 
L 250.125 255.619219 
L 222.225 255.619219 
z
" style="fill:#0b0000;"/>
    <path clip-path="url(#p211378ccbf)" d="M 250.125 255.619219 
L 250.125 228.439219 
L 278.025 228.439219 
L 278.025 255.619219 
L 250.125 255.619219 
z
" style="fill:#0b0000;"/>
    <path clip-path="url(#p211378ccbf)" d="M 278.025 255.619219 
L 278.025 228.439219 
L 305.925 228.439219 
L 305.925 255.619219 
L 278.025 255.619219 
z
" style="fill:#0b0000;"/>
    <path clip-path="url(#p211378ccbf)" d="M 26.925 228.439219 
L 26.925 201.259219 
L 54.825 201.259219 
L 54.825 228.439219 
L 26.925 228.439219 
z
" style="fill:#0b0000;"/>
    <path clip-path="url(#p211378ccbf)" d="M 54.825 228.439219 
L 54.825 201.259219 
L 82.725 201.259219 
L 82.725 228.439219 
L 54.825 228.439219 
z
" style="fill:#0b0000;"/>
    <path clip-path="url(#p211378ccbf)" d="M 82.725 228.439219 
L 82.725 201.259219 
L 110.625 201.259219 
L 110.625 228.439219 
L 82.725 228.439219 
z
" style="fill:#0b0000;"/>
    <path clip-path="url(#p211378ccbf)" d="M 110.625 228.439219 
L 110.625 201.259219 
L 138.525 201.259219 
L 138.525 228.439219 
L 110.625 228.439219 
z
" style="fill:#0b0000;"/>
    <path clip-path="url(#p211378ccbf)" d="M 138.525 228.439219 
L 138.525 201.259219 
L 166.425 201.259219 
L 166.425 228.439219 
L 138.525 228.439219 
z
" style="fill:#0b0000;"/>
    <path clip-path="url(#p211378ccbf)" d="M 166.425 228.439219 
L 166.425 201.259219 
L 194.325 201.259219 
L 194.325 228.439219 
L 166.425 228.439219 
z
" style="fill:#0b0000;"/>
    <path clip-path="url(#p211378ccbf)" d="M 194.325 228.439219 
L 194.325 201.259219 
L 222.225 201.259219 
L 222.225 228.439219 
L 194.325 228.439219 
z
" style="fill:#0b0000;"/>
    <path clip-path="url(#p211378ccbf)" d="M 222.225 228.439219 
L 222.225 201.259219 
L 250.125 201.259219 
L 250.125 228.439219 
L 222.225 228.439219 
z
" style="fill:#0b0000;"/>
    <path clip-path="url(#p211378ccbf)" d="M 250.125 228.439219 
L 250.125 201.259219 
L 278.025 201.259219 
L 278.025 228.439219 
L 250.125 228.439219 
z
" style="fill:#0b0000;"/>
    <path clip-path="url(#p211378ccbf)" d="M 278.025 228.439219 
L 278.025 201.259219 
L 305.925 201.259219 
L 305.925 228.439219 
L 278.025 228.439219 
z
" style="fill:#0b0000;"/>
    <path clip-path="url(#p211378ccbf)" d="M 26.925 201.259219 
L 26.925 174.079219 
L 54.825 174.079219 
L 54.825 201.259219 
L 26.925 201.259219 
z
" style="fill:#0b0000;"/>
    <path clip-path="url(#p211378ccbf)" d="M 54.825 201.259219 
L 54.825 174.079219 
L 82.725 174.079219 
L 82.725 201.259219 
L 54.825 201.259219 
z
" style="fill:#0b0000;"/>
    <path clip-path="url(#p211378ccbf)" d="M 82.725 201.259219 
L 82.725 174.079219 
L 110.625 174.079219 
L 110.625 201.259219 
L 82.725 201.259219 
z
" style="fill:#0b0000;"/>
    <path clip-path="url(#p211378ccbf)" d="M 110.625 201.259219 
L 110.625 174.079219 
L 138.525 174.079219 
L 138.525 201.259219 
L 110.625 201.259219 
z
" style="fill:#0b0000;"/>
    <path clip-path="url(#p211378ccbf)" d="M 138.525 201.259219 
L 138.525 174.079219 
L 166.425 174.079219 
L 166.425 201.259219 
L 138.525 201.259219 
z
" style="fill:#0b0000;"/>
    <path clip-path="url(#p211378ccbf)" d="M 166.425 201.259219 
L 166.425 174.079219 
L 194.325 174.079219 
L 194.325 201.259219 
L 166.425 201.259219 
z
" style="fill:#0b0000;"/>
    <path clip-path="url(#p211378ccbf)" d="M 194.325 201.259219 
L 194.325 174.079219 
L 222.225 174.079219 
L 222.225 201.259219 
L 194.325 201.259219 
z
" style="fill:#0b0000;"/>
    <path clip-path="url(#p211378ccbf)" d="M 222.225 201.259219 
L 222.225 174.079219 
L 250.125 174.079219 
L 250.125 201.259219 
L 222.225 201.259219 
z
" style="fill:#0b0000;"/>
    <path clip-path="url(#p211378ccbf)" d="M 250.125 201.259219 
L 250.125 174.079219 
L 278.025 174.079219 
L 278.025 201.259219 
L 250.125 201.259219 
z
" style="fill:#0b0000;"/>
    <path clip-path="url(#p211378ccbf)" d="M 278.025 201.259219 
L 278.025 174.079219 
L 305.925 174.079219 
L 305.925 201.259219 
L 278.025 201.259219 
z
" style="fill:#0b0000;"/>
    <path clip-path="url(#p211378ccbf)" d="M 26.925 174.079219 
L 26.925 146.899219 
L 54.825 146.899219 
L 54.825 174.079219 
L 26.925 174.079219 
z
" style="fill:#0b0000;"/>
    <path clip-path="url(#p211378ccbf)" d="M 54.825 174.079219 
L 54.825 146.899219 
L 82.725 146.899219 
L 82.725 174.079219 
L 54.825 174.079219 
z
" style="fill:#0b0000;"/>
    <path clip-path="url(#p211378ccbf)" d="M 82.725 174.079219 
L 82.725 146.899219 
L 110.625 146.899219 
L 110.625 174.079219 
L 82.725 174.079219 
z
" style="fill:#0b0000;"/>
    <path clip-path="url(#p211378ccbf)" d="M 110.625 174.079219 
L 110.625 146.899219 
L 138.525 146.899219 
L 138.525 174.079219 
L 110.625 174.079219 
z
" style="fill:#0b0000;"/>
    <path clip-path="url(#p211378ccbf)" d="M 138.525 174.079219 
L 138.525 146.899219 
L 166.425 146.899219 
L 166.425 174.079219 
L 138.525 174.079219 
z
" style="fill:#0b0000;"/>
    <path clip-path="url(#p211378ccbf)" d="M 166.425 174.079219 
L 166.425 146.899219 
L 194.325 146.899219 
L 194.325 174.079219 
L 166.425 174.079219 
z
" style="fill:#0b0000;"/>
    <path clip-path="url(#p211378ccbf)" d="M 194.325 174.079219 
L 194.325 146.899219 
L 222.225 146.899219 
L 222.225 174.079219 
L 194.325 174.079219 
z
" style="fill:#0b0000;"/>
    <path clip-path="url(#p211378ccbf)" d="M 222.225 174.079219 
L 222.225 146.899219 
L 250.125 146.899219 
L 250.125 174.079219 
L 222.225 174.079219 
z
" style="fill:#0b0000;"/>
    <path clip-path="url(#p211378ccbf)" d="M 250.125 174.079219 
L 250.125 146.899219 
L 278.025 146.899219 
L 278.025 174.079219 
L 250.125 174.079219 
z
" style="fill:#0b0000;"/>
    <path clip-path="url(#p211378ccbf)" d="M 278.025 174.079219 
L 278.025 146.899219 
L 305.925 146.899219 
L 305.925 174.079219 
L 278.025 174.079219 
z
" style="fill:#0b0000;"/>
    <path clip-path="url(#p211378ccbf)" d="M 26.925 146.899219 
L 26.925 119.719219 
L 54.825 119.719219 
L 54.825 146.899219 
L 26.925 146.899219 
z
" style="fill:#0b0000;"/>
    <path clip-path="url(#p211378ccbf)" d="M 54.825 146.899219 
L 54.825 119.719219 
L 82.725 119.719219 
L 82.725 146.899219 
L 54.825 146.899219 
z
" style="fill:#0b0000;"/>
    <path clip-path="url(#p211378ccbf)" d="M 82.725 146.899219 
L 82.725 119.719219 
L 110.625 119.719219 
L 110.625 146.899219 
L 82.725 146.899219 
z
" style="fill:#0b0000;"/>
    <path clip-path="url(#p211378ccbf)" d="M 110.625 146.899219 
L 110.625 119.719219 
L 138.525 119.719219 
L 138.525 146.899219 
L 110.625 146.899219 
z
" style="fill:#0b0000;"/>
    <path clip-path="url(#p211378ccbf)" d="M 138.525 146.899219 
L 138.525 119.719219 
L 166.425 119.719219 
L 166.425 146.899219 
L 138.525 146.899219 
z
" style="fill:#0b0000;"/>
    <path clip-path="url(#p211378ccbf)" d="M 166.425 146.899219 
L 166.425 119.719219 
L 194.325 119.719219 
L 194.325 146.899219 
L 166.425 146.899219 
z
" style="fill:#0b0000;"/>
    <path clip-path="url(#p211378ccbf)" d="M 194.325 146.899219 
L 194.325 119.719219 
L 222.225 119.719219 
L 222.225 146.899219 
L 194.325 146.899219 
z
" style="fill:#0b0000;"/>
    <path clip-path="url(#p211378ccbf)" d="M 222.225 146.899219 
L 222.225 119.719219 
L 250.125 119.719219 
L 250.125 146.899219 
L 222.225 146.899219 
z
" style="fill:#0b0000;"/>
    <path clip-path="url(#p211378ccbf)" d="M 250.125 146.899219 
L 250.125 119.719219 
L 278.025 119.719219 
L 278.025 146.899219 
L 250.125 146.899219 
z
" style="fill:#0b0000;"/>
    <path clip-path="url(#p211378ccbf)" d="M 278.025 146.899219 
L 278.025 119.719219 
L 305.925 119.719219 
L 305.925 146.899219 
L 278.025 146.899219 
z
" style="fill:#0b0000;"/>
    <path clip-path="url(#p211378ccbf)" d="M 26.925 119.719219 
L 26.925 92.539219 
L 54.825 92.539219 
L 54.825 119.719219 
L 26.925 119.719219 
z
" style="fill:#0b0000;"/>
    <path clip-path="url(#p211378ccbf)" d="M 54.825 119.719219 
L 54.825 92.539219 
L 82.725 92.539219 
L 82.725 119.719219 
L 54.825 119.719219 
z
" style="fill:#0b0000;"/>
    <path clip-path="url(#p211378ccbf)" d="M 82.725 119.719219 
L 82.725 92.539219 
L 110.625 92.539219 
L 110.625 119.719219 
L 82.725 119.719219 
z
" style="fill:#0b0000;"/>
    <path clip-path="url(#p211378ccbf)" d="M 110.625 119.719219 
L 110.625 92.539219 
L 138.525 92.539219 
L 138.525 119.719219 
L 110.625 119.719219 
z
" style="fill:#0b0000;"/>
    <path clip-path="url(#p211378ccbf)" d="M 138.525 119.719219 
L 138.525 92.539219 
L 166.425 92.539219 
L 166.425 119.719219 
L 138.525 119.719219 
z
" style="fill:#0b0000;"/>
    <path clip-path="url(#p211378ccbf)" d="M 166.425 119.719219 
L 166.425 92.539219 
L 194.325 92.539219 
L 194.325 119.719219 
L 166.425 119.719219 
z
" style="fill:#0b0000;"/>
    <path clip-path="url(#p211378ccbf)" d="M 194.325 119.719219 
L 194.325 92.539219 
L 222.225 92.539219 
L 222.225 119.719219 
L 194.325 119.719219 
z
" style="fill:#0b0000;"/>
    <path clip-path="url(#p211378ccbf)" d="M 222.225 119.719219 
L 222.225 92.539219 
L 250.125 92.539219 
L 250.125 119.719219 
L 222.225 119.719219 
z
" style="fill:#0b0000;"/>
    <path clip-path="url(#p211378ccbf)" d="M 250.125 119.719219 
L 250.125 92.539219 
L 278.025 92.539219 
L 278.025 119.719219 
L 250.125 119.719219 
z
" style="fill:#0b0000;"/>
    <path clip-path="url(#p211378ccbf)" d="M 278.025 119.719219 
L 278.025 92.539219 
L 305.925 92.539219 
L 305.925 119.719219 
L 278.025 119.719219 
z
" style="fill:#0b0000;"/>
    <path clip-path="url(#p211378ccbf)" d="M 26.925 92.539219 
L 26.925 65.359219 
L 54.825 65.359219 
L 54.825 92.539219 
L 26.925 92.539219 
z
" style="fill:#0b0000;"/>
    <path clip-path="url(#p211378ccbf)" d="M 54.825 92.539219 
L 54.825 65.359219 
L 82.725 65.359219 
L 82.725 92.539219 
L 54.825 92.539219 
z
" style="fill:#0b0000;"/>
    <path clip-path="url(#p211378ccbf)" d="M 82.725 92.539219 
L 82.725 65.359219 
L 110.625 65.359219 
L 110.625 92.539219 
L 82.725 92.539219 
z
" style="fill:#0b0000;"/>
    <path clip-path="url(#p211378ccbf)" d="M 110.625 92.539219 
L 110.625 65.359219 
L 138.525 65.359219 
L 138.525 92.539219 
L 110.625 92.539219 
z
" style="fill:#0b0000;"/>
    <path clip-path="url(#p211378ccbf)" d="M 138.525 92.539219 
L 138.525 65.359219 
L 166.425 65.359219 
L 166.425 92.539219 
L 138.525 92.539219 
z
" style="fill:#0b0000;"/>
    <path clip-path="url(#p211378ccbf)" d="M 166.425 92.539219 
L 166.425 65.359219 
L 194.325 65.359219 
L 194.325 92.539219 
L 166.425 92.539219 
z
" style="fill:#0b0000;"/>
    <path clip-path="url(#p211378ccbf)" d="M 194.325 92.539219 
L 194.325 65.359219 
L 222.225 65.359219 
L 222.225 92.539219 
L 194.325 92.539219 
z
" style="fill:#0b0000;"/>
    <path clip-path="url(#p211378ccbf)" d="M 222.225 92.539219 
L 222.225 65.359219 
L 250.125 65.359219 
L 250.125 92.539219 
L 222.225 92.539219 
z
" style="fill:#0b0000;"/>
    <path clip-path="url(#p211378ccbf)" d="M 250.125 92.539219 
L 250.125 65.359219 
L 278.025 65.359219 
L 278.025 92.539219 
L 250.125 92.539219 
z
" style="fill:#0b0000;"/>
    <path clip-path="url(#p211378ccbf)" d="M 278.025 92.539219 
L 278.025 65.359219 
L 305.925 65.359219 
L 305.925 92.539219 
L 278.025 92.539219 
z
" style="fill:#0b0000;"/>
    <path clip-path="url(#p211378ccbf)" d="M 26.925 65.359219 
L 26.925 38.179219 
L 54.825 38.179219 
L 54.825 65.359219 
L 26.925 65.359219 
z
" style="fill:#0b0000;"/>
    <path clip-path="url(#p211378ccbf)" d="M 54.825 65.359219 
L 54.825 38.179219 
L 82.725 38.179219 
L 82.725 65.359219 
L 54.825 65.359219 
z
" style="fill:#0b0000;"/>
    <path clip-path="url(#p211378ccbf)" d="M 82.725 65.359219 
L 82.725 38.179219 
L 110.625 38.179219 
L 110.625 65.359219 
L 82.725 65.359219 
z
" style="fill:#0b0000;"/>
    <path clip-path="url(#p211378ccbf)" d="M 110.625 65.359219 
L 110.625 38.179219 
L 138.525 38.179219 
L 138.525 65.359219 
L 110.625 65.359219 
z
" style="fill:#0b0000;"/>
    <path clip-path="url(#p211378ccbf)" d="M 138.525 65.359219 
L 138.525 38.179219 
L 166.425 38.179219 
L 166.425 65.359219 
L 138.525 65.359219 
z
" style="fill:#0b0000;"/>
    <path clip-path="url(#p211378ccbf)" d="M 166.425 65.359219 
L 166.425 38.179219 
L 194.325 38.179219 
L 194.325 65.359219 
L 166.425 65.359219 
z
" style="fill:#0b0000;"/>
    <path clip-path="url(#p211378ccbf)" d="M 194.325 65.359219 
L 194.325 38.179219 
L 222.225 38.179219 
L 222.225 65.359219 
L 194.325 65.359219 
z
" style="fill:#0b0000;"/>
    <path clip-path="url(#p211378ccbf)" d="M 222.225 65.359219 
L 222.225 38.179219 
L 250.125 38.179219 
L 250.125 65.359219 
L 222.225 65.359219 
z
" style="fill:#0b0000;"/>
    <path clip-path="url(#p211378ccbf)" d="M 250.125 65.359219 
L 250.125 38.179219 
L 278.025 38.179219 
L 278.025 65.359219 
L 250.125 65.359219 
z
" style="fill:#0b0000;"/>
    <path clip-path="url(#p211378ccbf)" d="M 278.025 65.359219 
L 278.025 38.179219 
L 305.925 38.179219 
L 305.925 65.359219 
L 278.025 65.359219 
z
" style="fill:#0b0000;"/>
    <path clip-path="url(#p211378ccbf)" d="M 26.925 38.179219 
L 26.925 10.999219 
L 54.825 10.999219 
L 54.825 38.179219 
L 26.925 38.179219 
z
" style="fill:#0b0000;"/>
    <path clip-path="url(#p211378ccbf)" d="M 54.825 38.179219 
L 54.825 10.999219 
L 82.725 10.999219 
L 82.725 38.179219 
L 54.825 38.179219 
z
" style="fill:#0b0000;"/>
    <path clip-path="url(#p211378ccbf)" d="M 82.725 38.179219 
L 82.725 10.999219 
L 110.625 10.999219 
L 110.625 38.179219 
L 82.725 38.179219 
z
" style="fill:#0b0000;"/>
    <path clip-path="url(#p211378ccbf)" d="M 110.625 38.179219 
L 110.625 10.999219 
L 138.525 10.999219 
L 138.525 38.179219 
L 110.625 38.179219 
z
" style="fill:#0b0000;"/>
    <path clip-path="url(#p211378ccbf)" d="M 138.525 38.179219 
L 138.525 10.999219 
L 166.425 10.999219 
L 166.425 38.179219 
L 138.525 38.179219 
z
" style="fill:#0b0000;"/>
    <path clip-path="url(#p211378ccbf)" d="M 166.425 38.179219 
L 166.425 10.999219 
L 194.325 10.999219 
L 194.325 38.179219 
L 166.425 38.179219 
z
" style="fill:#0b0000;"/>
    <path clip-path="url(#p211378ccbf)" d="M 194.325 38.179219 
L 194.325 10.999219 
L 222.225 10.999219 
L 222.225 38.179219 
L 194.325 38.179219 
z
" style="fill:#0b0000;"/>
    <path clip-path="url(#p211378ccbf)" d="M 222.225 38.179219 
L 222.225 10.999219 
L 250.125 10.999219 
L 250.125 38.179219 
L 222.225 38.179219 
z
" style="fill:#0b0000;"/>
    <path clip-path="url(#p211378ccbf)" d="M 250.125 38.179219 
L 250.125 10.999219 
L 278.025 10.999219 
L 278.025 38.179219 
L 250.125 38.179219 
z
" style="fill:#0b0000;"/>
    <path clip-path="url(#p211378ccbf)" d="M 278.025 38.179219 
L 278.025 10.999219 
L 305.925 10.999219 
L 305.925 38.179219 
L 278.025 38.179219 
z
" style="fill:#0b0000;"/>
   </g>
   <g id="PatchCollection_1">
    <path clip-path="url(#p211378ccbf)" d="M 138.525 269.209219 
L 129.225 264.679219 
L 129.225 273.739219 
z
" style="fill:#180000;"/>
    <path clip-path="url(#p211378ccbf)" d="M 129.225 246.559219 
L 119.925 246.559219 
L 124.575 255.619219 
z
" style="fill:#250000;"/>
    <path clip-path="url(#p211378ccbf)" d="M 147.825 237.499219 
L 138.525 242.029219 
L 147.825 246.559219 
z
" style="fill:#320000;"/>
    <path clip-path="url(#p211378ccbf)" d="M 157.125 264.679219 
L 152.475 255.619219 
L 147.825 264.679219 
z
" style="fill:#3f0000;"/>
    <path clip-path="url(#p211378ccbf)" d="M 138.525 269.209219 
L 129.225 264.679219 
L 129.225 273.739219 
z
" style="fill:#4c0000;"/>
    <path clip-path="url(#p211378ccbf)" d="M 129.225 246.559219 
L 119.925 246.559219 
L 124.575 255.619219 
z
" style="fill:#590000;"/>
    <path clip-path="url(#p211378ccbf)" d="M 147.825 237.499219 
L 138.525 242.029219 
L 147.825 246.559219 
z
" style="fill:#660000;"/>
    <path clip-path="url(#p211378ccbf)" d="M 157.125 264.679219 
L 152.475 255.619219 
L 147.825 264.679219 
z
" style="fill:#740000;"/>
    <path clip-path="url(#p211378ccbf)" d="M 138.525 269.209219 
L 129.225 264.679219 
L 129.225 273.739219 
z
" style="fill:#830000;"/>
    <path clip-path="url(#p211378ccbf)" d="M 110.625 269.209219 
L 101.325 264.679219 
L 101.325 273.739219 
z
" style="fill:#900000;"/>
    <path clip-path="url(#p211378ccbf)" d="M 101.325 246.559219 
L 92.025 246.559219 
L 96.675 255.619219 
z
" style="fill:#9e0000;"/>
    <path clip-path="url(#p211378ccbf)" d="M 101.325 219.379219 
L 92.025 219.379219 
L 96.675 228.439219 
z
" style="fill:#ab0000;"/>
    <path clip-path="url(#p211378ccbf)" d="M 119.925 210.319219 
L 110.625 214.849219 
L 119.925 219.379219 
z
" style="fill:#b80000;"/>
    <path clip-path="url(#p211378ccbf)" d="M 129.225 237.499219 
L 124.575 228.439219 
L 119.925 237.499219 
z
" style="fill:#c50000;"/>
    <path clip-path="url(#p211378ccbf)" d="M 147.825 237.499219 
L 138.525 242.029219 
L 147.825 246.559219 
z
" style="fill:#d20000;"/>
    <path clip-path="url(#p211378ccbf)" d="M 157.125 264.679219 
L 152.475 255.619219 
L 147.825 264.679219 
z
" style="fill:#df0000;"/>
    <path clip-path="url(#p211378ccbf)" d="M 138.525 269.209219 
L 129.225 264.679219 
L 129.225 273.739219 
z
" style="fill:#ef0000;"/>
    <path clip-path="url(#p211378ccbf)" d="M 129.225 246.559219 
L 119.925 246.559219 
L 124.575 255.619219 
z
" style="fill:#fc0000;"/>
    <path clip-path="url(#p211378ccbf)" d="M 147.825 237.499219 
L 138.525 242.029219 
L 147.825 246.559219 
z
" style="fill:#ff0a00;"/>
    <path clip-path="url(#p211378ccbf)" d="M 175.725 237.499219 
L 166.425 242.029219 
L 175.725 246.559219 
z
" style="fill:#ff1700;"/>
    <path clip-path="url(#p211378ccbf)" d="M 185.025 264.679219 
L 180.375 255.619219 
L 175.725 264.679219 
z
" style="fill:#ff2500;"/>
    <path clip-path="url(#p211378ccbf)" d="M 166.425 269.209219 
L 157.125 264.679219 
L 157.125 273.739219 
z
" style="fill:#ff3200;"/>
    <path clip-path="url(#p211378ccbf)" d="M 138.525 269.209219 
L 129.225 264.679219 
L 129.225 273.739219 
z
" style="fill:#ff3f00;"/>
    <path clip-path="url(#p211378ccbf)" d="M 129.225 246.559219 
L 119.925 246.559219 
L 124.575 255.619219 
z
" style="fill:#ff4c00;"/>
    <path clip-path="url(#p211378ccbf)" d="M 147.825 237.499219 
L 138.525 242.029219 
L 147.825 246.559219 
z
" style="fill:#ff5c00;"/>
    <path clip-path="url(#p211378ccbf)" d="M 157.125 264.679219 
L 152.475 255.619219 
L 147.825 264.679219 
z
" style="fill:#ff6900;"/>
    <path clip-path="url(#p211378ccbf)" d="M 138.525 269.209219 
L 129.225 264.679219 
L 129.225 273.739219 
z
" style="fill:#ff7600;"/>
    <path clip-path="url(#p211378ccbf)" d="M 129.225 246.559219 
L 119.925 246.559219 
L 124.575 255.619219 
z
" style="fill:#ff8300;"/>
    <path clip-path="url(#p211378ccbf)" d="M 147.825 237.499219 
L 138.525 242.029219 
L 147.825 246.559219 
z
" style="fill:#ff9000;"/>
    <path clip-path="url(#p211378ccbf)" d="M 157.125 264.679219 
L 152.475 255.619219 
L 147.825 264.679219 
z
" style="fill:#ff9d00;"/>
    <path clip-path="url(#p211378ccbf)" d="M 138.525 269.209219 
L 129.225 264.679219 
L 129.225 273.739219 
z
" style="fill:#ffaa00;"/>
    <path clip-path="url(#p211378ccbf)" d="M 129.225 246.559219 
L 119.925 246.559219 
L 124.575 255.619219 
z
" style="fill:#ffb700;"/>
    <path clip-path="url(#p211378ccbf)" d="M 147.825 237.499219 
L 138.525 242.029219 
L 147.825 246.559219 
z
" style="fill:#ffc500;"/>
    <path clip-path="url(#p211378ccbf)" d="M 157.125 264.679219 
L 152.475 255.619219 
L 147.825 264.679219 
z
" style="fill:#ffd400;"/>
    <path clip-path="url(#p211378ccbf)" d="M 138.525 269.209219 
L 129.225 264.679219 
L 129.225 273.739219 
z
" style="fill:#ffe100;"/>
    <path clip-path="url(#p211378ccbf)" d="M 129.225 246.559219 
L 119.925 246.559219 
L 124.575 255.619219 
z
" style="fill:#ffef00;"/>
    <path clip-path="url(#p211378ccbf)" d="M 147.825 237.499219 
L 138.525 242.029219 
L 147.825 246.559219 
z
" style="fill:#fffc00;"/>
    <path clip-path="url(#p211378ccbf)" d="M 157.125 264.679219 
L 152.475 255.619219 
L 147.825 264.679219 
z
" style="fill:#ffff0f;"/>
    <path clip-path="url(#p211378ccbf)" d="M 138.525 269.209219 
L 129.225 264.679219 
L 129.225 273.739219 
z
" style="fill:#ffff22;"/>
    <path clip-path="url(#p211378ccbf)" d="M 129.225 246.559219 
L 119.925 246.559219 
L 124.575 255.619219 
z
" style="fill:#ffff36;"/>
    <path clip-path="url(#p211378ccbf)" d="M 147.825 237.499219 
L 138.525 242.029219 
L 147.825 246.559219 
z
" style="fill:#ffff4a;"/>
    <path clip-path="url(#p211378ccbf)" d="M 157.125 264.679219 
L 152.475 255.619219 
L 147.825 264.679219 
z
" style="fill:#ffff61;"/>
    <path clip-path="url(#p211378ccbf)" d="M 138.525 269.209219 
L 129.225 264.679219 
L 129.225 273.739219 
z
" style="fill:#ffff75;"/>
    <path clip-path="url(#p211378ccbf)" d="M 129.225 246.559219 
L 119.925 246.559219 
L 124.575 255.619219 
z
" style="fill:#ffff89;"/>
    <path clip-path="url(#p211378ccbf)" d="M 147.825 237.499219 
L 138.525 242.029219 
L 147.825 246.559219 
z
" style="fill:#ffff9d;"/>
    <path clip-path="url(#p211378ccbf)" d="M 157.125 264.679219 
L 152.475 255.619219 
L 147.825 264.679219 
z
" style="fill:#ffffb0;"/>
    <path clip-path="url(#p211378ccbf)" d="M 138.525 269.209219 
L 129.225 264.679219 
L 129.225 273.739219 
z
" style="fill:#ffffc4;"/>
    <path clip-path="url(#p211378ccbf)" d="M 129.225 246.559219 
L 119.925 246.559219 
L 124.575 255.619219 
z
" style="fill:#ffffd8;"/>
    <path clip-path="url(#p211378ccbf)" d="M 147.825 237.499219 
L 138.525 242.029219 
L 147.825 246.559219 
z
" style="fill:#ffffeb;"/>
    <path clip-path="url(#p211378ccbf)" d="M 175.725 237.499219 
L 166.425 242.029219 
L 175.725 246.559219 
z
" style="fill:#ffffff;"/>
   </g>
   <g id="matplotlib.axis_1">
    <g id="xtick_1">
     <g id="line2d_1">
      <defs>
       <path d="M 0 0 
L 0 3.5 
" id="mbca38daa3e" style="stroke:#000000;stroke-width:0.8;"/>
      </defs>
      <g>
       <use style="stroke:#000000;stroke-width:0.8;" x="26.925" xlink:href="#mbca38daa3e" y="282.799219"/>
      </g>
     </g>
     <g id="text_1">
      <!-- 0 -->
      <g transform="translate(23.74375 297.397656)scale(0.1 -0.1)">
       <defs>
        <path d="M 2034 4250 
Q 1547 4250 1301 3770 
Q 1056 3291 1056 2328 
Q 1056 1369 1301 889 
Q 1547 409 2034 409 
Q 2525 409 2770 889 
Q 3016 1369 3016 2328 
Q 3016 3291 2770 3770 
Q 2525 4250 2034 4250 
z
M 2034 4750 
Q 2819 4750 3233 4129 
Q 3647 3509 3647 2328 
Q 3647 1150 3233 529 
Q 2819 -91 2034 -91 
Q 1250 -91 836 529 
Q 422 1150 422 2328 
Q 422 3509 836 4129 
Q 1250 4750 2034 4750 
z
" id="DejaVuSans-30" transform="scale(0.015625)"/>
       </defs>
       <use xlink:href="#DejaVuSans-30"/>
      </g>
     </g>
    </g>
    <g id="xtick_2">
     <g id="line2d_2">
      <g>
       <use style="stroke:#000000;stroke-width:0.8;" x="82.725" xlink:href="#mbca38daa3e" y="282.799219"/>
      </g>
     </g>
     <g id="text_2">
      <!-- 2 -->
      <g transform="translate(79.54375 297.397656)scale(0.1 -0.1)">
       <defs>
        <path d="M 1228 531 
L 3431 531 
L 3431 0 
L 469 0 
L 469 531 
Q 828 903 1448 1529 
Q 2069 2156 2228 2338 
Q 2531 2678 2651 2914 
Q 2772 3150 2772 3378 
Q 2772 3750 2511 3984 
Q 2250 4219 1831 4219 
Q 1534 4219 1204 4116 
Q 875 4013 500 3803 
L 500 4441 
Q 881 4594 1212 4672 
Q 1544 4750 1819 4750 
Q 2544 4750 2975 4387 
Q 3406 4025 3406 3419 
Q 3406 3131 3298 2873 
Q 3191 2616 2906 2266 
Q 2828 2175 2409 1742 
Q 1991 1309 1228 531 
z
" id="DejaVuSans-32" transform="scale(0.015625)"/>
       </defs>
       <use xlink:href="#DejaVuSans-32"/>
      </g>
     </g>
    </g>
    <g id="xtick_3">
     <g id="line2d_3">
      <g>
       <use style="stroke:#000000;stroke-width:0.8;" x="138.525" xlink:href="#mbca38daa3e" y="282.799219"/>
      </g>
     </g>
     <g id="text_3">
      <!-- 4 -->
      <g transform="translate(135.34375 297.397656)scale(0.1 -0.1)">
       <defs>
        <path d="M 2419 4116 
L 825 1625 
L 2419 1625 
L 2419 4116 
z
M 2253 4666 
L 3047 4666 
L 3047 1625 
L 3713 1625 
L 3713 1100 
L 3047 1100 
L 3047 0 
L 2419 0 
L 2419 1100 
L 313 1100 
L 313 1709 
L 2253 4666 
z
" id="DejaVuSans-34" transform="scale(0.015625)"/>
       </defs>
       <use xlink:href="#DejaVuSans-34"/>
      </g>
     </g>
    </g>
    <g id="xtick_4">
     <g id="line2d_4">
      <g>
       <use style="stroke:#000000;stroke-width:0.8;" x="194.325" xlink:href="#mbca38daa3e" y="282.799219"/>
      </g>
     </g>
     <g id="text_4">
      <!-- 6 -->
      <g transform="translate(191.14375 297.397656)scale(0.1 -0.1)">
       <defs>
        <path d="M 2113 2584 
Q 1688 2584 1439 2293 
Q 1191 2003 1191 1497 
Q 1191 994 1439 701 
Q 1688 409 2113 409 
Q 2538 409 2786 701 
Q 3034 994 3034 1497 
Q 3034 2003 2786 2293 
Q 2538 2584 2113 2584 
z
M 3366 4563 
L 3366 3988 
Q 3128 4100 2886 4159 
Q 2644 4219 2406 4219 
Q 1781 4219 1451 3797 
Q 1122 3375 1075 2522 
Q 1259 2794 1537 2939 
Q 1816 3084 2150 3084 
Q 2853 3084 3261 2657 
Q 3669 2231 3669 1497 
Q 3669 778 3244 343 
Q 2819 -91 2113 -91 
Q 1303 -91 875 529 
Q 447 1150 447 2328 
Q 447 3434 972 4092 
Q 1497 4750 2381 4750 
Q 2619 4750 2861 4703 
Q 3103 4656 3366 4563 
z
" id="DejaVuSans-36" transform="scale(0.015625)"/>
       </defs>
       <use xlink:href="#DejaVuSans-36"/>
      </g>
     </g>
    </g>
    <g id="xtick_5">
     <g id="line2d_5">
      <g>
       <use style="stroke:#000000;stroke-width:0.8;" x="250.125" xlink:href="#mbca38daa3e" y="282.799219"/>
      </g>
     </g>
     <g id="text_5">
      <!-- 8 -->
      <g transform="translate(246.94375 297.397656)scale(0.1 -0.1)">
       <defs>
        <path d="M 2034 2216 
Q 1584 2216 1326 1975 
Q 1069 1734 1069 1313 
Q 1069 891 1326 650 
Q 1584 409 2034 409 
Q 2484 409 2743 651 
Q 3003 894 3003 1313 
Q 3003 1734 2745 1975 
Q 2488 2216 2034 2216 
z
M 1403 2484 
Q 997 2584 770 2862 
Q 544 3141 544 3541 
Q 544 4100 942 4425 
Q 1341 4750 2034 4750 
Q 2731 4750 3128 4425 
Q 3525 4100 3525 3541 
Q 3525 3141 3298 2862 
Q 3072 2584 2669 2484 
Q 3125 2378 3379 2068 
Q 3634 1759 3634 1313 
Q 3634 634 3220 271 
Q 2806 -91 2034 -91 
Q 1263 -91 848 271 
Q 434 634 434 1313 
Q 434 1759 690 2068 
Q 947 2378 1403 2484 
z
M 1172 3481 
Q 1172 3119 1398 2916 
Q 1625 2713 2034 2713 
Q 2441 2713 2670 2916 
Q 2900 3119 2900 3481 
Q 2900 3844 2670 4047 
Q 2441 4250 2034 4250 
Q 1625 4250 1398 4047 
Q 1172 3844 1172 3481 
z
" id="DejaVuSans-38" transform="scale(0.015625)"/>
       </defs>
       <use xlink:href="#DejaVuSans-38"/>
      </g>
     </g>
    </g>
    <g id="xtick_6">
     <g id="line2d_6">
      <g>
       <use style="stroke:#000000;stroke-width:0.8;" x="305.925" xlink:href="#mbca38daa3e" y="282.799219"/>
      </g>
     </g>
     <g id="text_6">
      <!-- 10 -->
      <g transform="translate(299.5625 297.397656)scale(0.1 -0.1)">
       <defs>
        <path d="M 794 531 
L 1825 531 
L 1825 4091 
L 703 3866 
L 703 4441 
L 1819 4666 
L 2450 4666 
L 2450 531 
L 3481 531 
L 3481 0 
L 794 0 
L 794 531 
z
" id="DejaVuSans-31" transform="scale(0.015625)"/>
       </defs>
       <use xlink:href="#DejaVuSans-31"/>
       <use x="63.623047" xlink:href="#DejaVuSans-30"/>
      </g>
     </g>
    </g>
   </g>
   <g id="matplotlib.axis_2">
    <g id="ytick_1">
     <g id="line2d_7">
      <defs>
       <path d="M 0 0 
L -3.5 0 
" id="m5cdd43d089" style="stroke:#000000;stroke-width:0.8;"/>
      </defs>
      <g>
       <use style="stroke:#000000;stroke-width:0.8;" x="26.925" xlink:href="#m5cdd43d089" y="282.799219"/>
      </g>
     </g>
     <g id="text_7">
      <!-- 0 -->
      <g transform="translate(13.5625 286.598437)scale(0.1 -0.1)">
       <use xlink:href="#DejaVuSans-30"/>
      </g>
     </g>
    </g>
    <g id="ytick_2">
     <g id="line2d_8">
      <g>
       <use style="stroke:#000000;stroke-width:0.8;" x="26.925" xlink:href="#m5cdd43d089" y="228.439219"/>
      </g>
     </g>
     <g id="text_8">
      <!-- 2 -->
      <g transform="translate(13.5625 232.238437)scale(0.1 -0.1)">
       <use xlink:href="#DejaVuSans-32"/>
      </g>
     </g>
    </g>
    <g id="ytick_3">
     <g id="line2d_9">
      <g>
       <use style="stroke:#000000;stroke-width:0.8;" x="26.925" xlink:href="#m5cdd43d089" y="174.079219"/>
      </g>
     </g>
     <g id="text_9">
      <!-- 4 -->
      <g transform="translate(13.5625 177.878437)scale(0.1 -0.1)">
       <use xlink:href="#DejaVuSans-34"/>
      </g>
     </g>
    </g>
    <g id="ytick_4">
     <g id="line2d_10">
      <g>
       <use style="stroke:#000000;stroke-width:0.8;" x="26.925" xlink:href="#m5cdd43d089" y="119.719219"/>
      </g>
     </g>
     <g id="text_10">
      <!-- 6 -->
      <g transform="translate(13.5625 123.518437)scale(0.1 -0.1)">
       <use xlink:href="#DejaVuSans-36"/>
      </g>
     </g>
    </g>
    <g id="ytick_5">
     <g id="line2d_11">
      <g>
       <use style="stroke:#000000;stroke-width:0.8;" x="26.925" xlink:href="#m5cdd43d089" y="65.359219"/>
      </g>
     </g>
     <g id="text_11">
      <!-- 8 -->
      <g transform="translate(13.5625 69.158437)scale(0.1 -0.1)">
       <use xlink:href="#DejaVuSans-38"/>
      </g>
     </g>
    </g>
    <g id="ytick_6">
     <g id="line2d_12">
      <g>
       <use style="stroke:#000000;stroke-width:0.8;" x="26.925" xlink:href="#m5cdd43d089" y="10.999219"/>
      </g>
     </g>
     <g id="text_12">
      <!-- 10 -->
      <g transform="translate(7.2 14.798437)scale(0.1 -0.1)">
       <use xlink:href="#DejaVuSans-31"/>
       <use x="63.623047" xlink:href="#DejaVuSans-30"/>
      </g>
     </g>
    </g>
   </g>
   <g id="line2d_13">
    <path clip-path="url(#p211378ccbf)" d="M 54.825 282.799219 
L 54.825 10.999219 
" style="fill:none;stroke:#ffffff;stroke-linecap:square;stroke-width:0.5;"/>
   </g>
   <g id="line2d_14">
    <path clip-path="url(#p211378ccbf)" d="M 82.725 282.799219 
L 82.725 10.999219 
" style="fill:none;stroke:#ffffff;stroke-linecap:square;stroke-width:0.5;"/>
   </g>
   <g id="line2d_15">
    <path clip-path="url(#p211378ccbf)" d="M 110.625 282.799219 
L 110.625 10.999219 
" style="fill:none;stroke:#ffffff;stroke-linecap:square;stroke-width:0.5;"/>
   </g>
   <g id="line2d_16">
    <path clip-path="url(#p211378ccbf)" d="M 138.525 282.799219 
L 138.525 10.999219 
" style="fill:none;stroke:#ffffff;stroke-linecap:square;stroke-width:0.5;"/>
   </g>
   <g id="line2d_17">
    <path clip-path="url(#p211378ccbf)" d="M 166.425 282.799219 
L 166.425 10.999219 
" style="fill:none;stroke:#ffffff;stroke-linecap:square;stroke-width:0.5;"/>
   </g>
   <g id="line2d_18">
    <path clip-path="url(#p211378ccbf)" d="M 194.325 282.799219 
L 194.325 10.999219 
" style="fill:none;stroke:#ffffff;stroke-linecap:square;stroke-width:0.5;"/>
   </g>
   <g id="line2d_19">
    <path clip-path="url(#p211378ccbf)" d="M 222.225 282.799219 
L 222.225 10.999219 
" style="fill:none;stroke:#ffffff;stroke-linecap:square;stroke-width:0.5;"/>
   </g>
   <g id="line2d_20">
    <path clip-path="url(#p211378ccbf)" d="M 250.125 282.799219 
L 250.125 10.999219 
" style="fill:none;stroke:#ffffff;stroke-linecap:square;stroke-width:0.5;"/>
   </g>
   <g id="line2d_21">
    <path clip-path="url(#p211378ccbf)" d="M 278.025 282.799219 
L 278.025 10.999219 
" style="fill:none;stroke:#ffffff;stroke-linecap:square;stroke-width:0.5;"/>
   </g>
   <g id="line2d_22">
    <path clip-path="url(#p211378ccbf)" d="M 26.925 255.619219 
L 305.925 255.619219 
" style="fill:none;stroke:#ffffff;stroke-linecap:square;stroke-width:0.5;"/>
   </g>
   <g id="line2d_23">
    <path clip-path="url(#p211378ccbf)" d="M 26.925 228.439219 
L 305.925 228.439219 
" style="fill:none;stroke:#ffffff;stroke-linecap:square;stroke-width:0.5;"/>
   </g>
   <g id="line2d_24">
    <path clip-path="url(#p211378ccbf)" d="M 26.925 201.259219 
L 305.925 201.259219 
" style="fill:none;stroke:#ffffff;stroke-linecap:square;stroke-width:0.5;"/>
   </g>
   <g id="line2d_25">
    <path clip-path="url(#p211378ccbf)" d="M 26.925 174.079219 
L 305.925 174.079219 
" style="fill:none;stroke:#ffffff;stroke-linecap:square;stroke-width:0.5;"/>
   </g>
   <g id="line2d_26">
    <path clip-path="url(#p211378ccbf)" d="M 26.925 146.899219 
L 305.925 146.899219 
" style="fill:none;stroke:#ffffff;stroke-linecap:square;stroke-width:0.5;"/>
   </g>
   <g id="line2d_27">
    <path clip-path="url(#p211378ccbf)" d="M 26.925 119.719219 
L 305.925 119.719219 
" style="fill:none;stroke:#ffffff;stroke-linecap:square;stroke-width:0.5;"/>
   </g>
   <g id="line2d_28">
    <path clip-path="url(#p211378ccbf)" d="M 26.925 92.539219 
L 305.925 92.539219 
" style="fill:none;stroke:#ffffff;stroke-linecap:square;stroke-width:0.5;"/>
   </g>
   <g id="line2d_29">
    <path clip-path="url(#p211378ccbf)" d="M 26.925 65.359219 
L 305.925 65.359219 
" style="fill:none;stroke:#ffffff;stroke-linecap:square;stroke-width:0.5;"/>
   </g>
   <g id="line2d_30">
    <path clip-path="url(#p211378ccbf)" d="M 26.925 38.179219 
L 305.925 38.179219 
" style="fill:none;stroke:#ffffff;stroke-linecap:square;stroke-width:0.5;"/>
   </g>
   <g id="patch_3">
    <path d="M 26.925 282.799219 
L 26.925 10.999219 
" style="fill:none;stroke:#000000;stroke-linecap:square;stroke-linejoin:miter;stroke-width:0.8;"/>
   </g>
   <g id="patch_4">
    <path d="M 305.925 282.799219 
L 305.925 10.999219 
" style="fill:none;stroke:#000000;stroke-linecap:square;stroke-linejoin:miter;stroke-width:0.8;"/>
   </g>
   <g id="patch_5">
    <path d="M 26.925 282.799219 
L 305.925 282.799219 
" style="fill:none;stroke:#000000;stroke-linecap:square;stroke-linejoin:miter;stroke-width:0.8;"/>
   </g>
   <g id="patch_6">
    <path d="M 26.925 10.999219 
L 305.925 10.999219 
" style="fill:none;stroke:#000000;stroke-linecap:square;stroke-linejoin:miter;stroke-width:0.8;"/>
   </g>
  </g>
 </g>
 <defs>
  <clipPath id="p211378ccbf">
   <rect height="271.8" width="279" x="26.925" y="10.999219"/>
  </clipPath>
 </defs>
</svg>
