<?xml version="1.0" encoding="utf-8" standalone="no"?>
<!DOCTYPE svg PUBLIC "-//W3C//DTD SVG 1.1//EN"
  "http://www.w3.org/Graphics/SVG/1.1/DTD/svg11.dtd">
<svg height="328.914062pt" version="1.1" viewBox="0 0 309.94375 328.914062" width="309.94375pt" xmlns="http://www.w3.org/2000/svg" xmlns:xlink="http://www.w3.org/1999/xlink">
 <metadata>
  <rdf:RDF xmlns:cc="http://creativecommons.org/ns#" xmlns:dc="http://purl.org/dc/elements/1.1/" xmlns:rdf="http://www.w3.org/1999/02/22-rdf-syntax-ns#">
   <cc:Work>
    <dc:type rdf:resource="http://purl.org/dc/dcmitype/StillImage"/>
    <dc:date>2023-02-10T07:34:15.365273</dc:date>
    <dc:format>image/svg+xml</dc:format>
    <dc:creator>
     <cc:Agent>
      <dc:title>Matplotlib v3.4.3, https://matplotlib.org/</dc:title>
     </cc:Agent>
    </dc:creator>
   </cc:Work>
  </rdf:RDF>
 </metadata>
 <defs>
  <style type="text/css">*{stroke-linecap:butt;stroke-linejoin:round;}</style>
 </defs>
 <g id="figure_1">
  <g id="patch_1">
   <path d="M 0 328.914062 
L 309.94375 328.914062 
L 309.94375 0 
L 0 0 
z
" style="fill:none;"/>
  </g>
  <g id="axes_1">
   <g id="patch_2">
    <path d="M 23.74375 300.196875 
L 302.74375 300.196875 
L 302.74375 28.396875 
L 23.74375 28.396875 
z
" style="fill:none;"/>
   </g>
   <g id="PolyCollection_1">
    <path clip-path="url(#p1709a5ae29)" d="M 23.74375 300.196875 
L 23.74375 245.836875 
L 79.54375 245.836875 
L 79.54375 300.196875 
L 23.74375 300.196875 
z
" style="fill:#0b0000;"/>
    <path clip-path="url(#p1709a5ae29)" d="M 79.54375 300.196875 
L 79.54375 245.836875 
L 135.34375 245.836875 
L 135.34375 300.196875 
L 79.54375 300.196875 
z
" style="fill:#0b0000;"/>
    <path clip-path="url(#p1709a5ae29)" d="M 135.34375 300.196875 
L 135.34375 245.836875 
L 191.14375 245.836875 
L 191.14375 300.196875 
L 135.34375 300.196875 
z
" style="fill:#0b0000;"/>
    <path clip-path="url(#p1709a5ae29)" d="M 191.14375 300.196875 
L 191.14375 245.836875 
L 246.94375 245.836875 
L 246.94375 300.196875 
L 191.14375 300.196875 
z
" style="fill:#0b0000;"/>
    <path clip-path="url(#p1709a5ae29)" d="M 246.94375 300.196875 
L 246.94375 245.836875 
L 302.74375 245.836875 
L 302.74375 300.196875 
L 246.94375 300.196875 
z
" style="fill:#0b0000;"/>
    <path clip-path="url(#p1709a5ae29)" d="M 23.74375 245.836875 
L 23.74375 191.476875 
L 79.54375 191.476875 
L 79.54375 245.836875 
L 23.74375 245.836875 
z
" style="fill:#0b0000;"/>
    <path clip-path="url(#p1709a5ae29)" d="M 79.54375 245.836875 
L 79.54375 191.476875 
L 135.34375 191.476875 
L 135.34375 245.836875 
L 79.54375 245.836875 
z
" style="fill:#0b0000;"/>
    <path clip-path="url(#p1709a5ae29)" d="M 135.34375 245.836875 
L 135.34375 191.476875 
L 191.14375 191.476875 
L 191.14375 245.836875 
L 135.34375 245.836875 
z
" style="fill:#0b0000;"/>
    <path clip-path="url(#p1709a5ae29)" d="M 191.14375 245.836875 
L 191.14375 191.476875 
L 246.94375 191.476875 
L 246.94375 245.836875 
L 191.14375 245.836875 
z
" style="fill:#0b0000;"/>
    <path clip-path="url(#p1709a5ae29)" d="M 246.94375 245.836875 
L 246.94375 191.476875 
L 302.74375 191.476875 
L 302.74375 245.836875 
L 246.94375 245.836875 
z
" style="fill:#0b0000;"/>
    <path clip-path="url(#p1709a5ae29)" d="M 23.74375 191.476875 
L 23.74375 137.116875 
L 79.54375 137.116875 
L 79.54375 191.476875 
L 23.74375 191.476875 
z
" style="fill:#0b0000;"/>
    <path clip-path="url(#p1709a5ae29)" d="M 79.54375 191.476875 
L 79.54375 137.116875 
L 135.34375 137.116875 
L 135.34375 191.476875 
L 79.54375 191.476875 
z
" style="fill:#0b0000;"/>
    <path clip-path="url(#p1709a5ae29)" d="M 135.34375 191.476875 
L 135.34375 137.116875 
L 191.14375 137.116875 
L 191.14375 191.476875 
L 135.34375 191.476875 
z
" style="fill:#0b0000;"/>
    <path clip-path="url(#p1709a5ae29)" d="M 191.14375 191.476875 
L 191.14375 137.116875 
L 246.94375 137.116875 
L 246.94375 191.476875 
L 191.14375 191.476875 
z
" style="fill:#0b0000;"/>
    <path clip-path="url(#p1709a5ae29)" d="M 246.94375 191.476875 
L 246.94375 137.116875 
L 302.74375 137.116875 
L 302.74375 191.476875 
L 246.94375 191.476875 
z
" style="fill:#0b0000;"/>
    <path clip-path="url(#p1709a5ae29)" d="M 23.74375 137.116875 
L 23.74375 82.756875 
L 79.54375 82.756875 
L 79.54375 137.116875 
L 23.74375 137.116875 
z
" style="fill:#0b0000;"/>
    <path clip-path="url(#p1709a5ae29)" d="M 79.54375 137.116875 
L 79.54375 82.756875 
L 135.34375 82.756875 
L 135.34375 137.116875 
L 79.54375 137.116875 
z
" style="fill:#0b0000;"/>
    <path clip-path="url(#p1709a5ae29)" d="M 135.34375 137.116875 
L 135.34375 82.756875 
L 191.14375 82.756875 
L 191.14375 137.116875 
L 135.34375 137.116875 
z
" style="fill:#0b0000;"/>
    <path clip-path="url(#p1709a5ae29)" d="M 191.14375 137.116875 
L 191.14375 82.756875 
L 246.94375 82.756875 
L 246.94375 137.116875 
L 191.14375 137.116875 
z
" style="fill:#0b0000;"/>
    <path clip-path="url(#p1709a5ae29)" d="M 246.94375 137.116875 
L 246.94375 82.756875 
L 302.74375 82.756875 
L 302.74375 137.116875 
L 246.94375 137.116875 
z
" style="fill:#0b0000;"/>
    <path clip-path="url(#p1709a5ae29)" d="M 23.74375 82.756875 
L 23.74375 28.396875 
L 79.54375 28.396875 
L 79.54375 82.756875 
L 23.74375 82.756875 
z
" style="fill:#0b0000;"/>
    <path clip-path="url(#p1709a5ae29)" d="M 79.54375 82.756875 
L 79.54375 28.396875 
L 135.34375 28.396875 
L 135.34375 82.756875 
L 79.54375 82.756875 
z
" style="fill:#0b0000;"/>
    <path clip-path="url(#p1709a5ae29)" d="M 135.34375 82.756875 
L 135.34375 28.396875 
L 191.14375 28.396875 
L 191.14375 82.756875 
L 135.34375 82.756875 
z
" style="fill:#0b0000;"/>
    <path clip-path="url(#p1709a5ae29)" d="M 191.14375 82.756875 
L 191.14375 28.396875 
L 246.94375 28.396875 
L 246.94375 82.756875 
L 191.14375 82.756875 
z
" style="fill:#0b0000;"/>
    <path clip-path="url(#p1709a5ae29)" d="M 246.94375 82.756875 
L 246.94375 28.396875 
L 302.74375 28.396875 
L 302.74375 82.756875 
L 246.94375 82.756875 
z
" style="fill:#0b0000;"/>
   </g>
   <g id="PatchCollection_1">
    <path clip-path="url(#p1709a5ae29)" d="M 42.34375 263.956875 
L 23.74375 273.016875 
L 42.34375 282.076875 
z
" style="fill:#590000;"/>
    <path clip-path="url(#p1709a5ae29)" d="M 98.14375 263.956875 
L 79.54375 273.016875 
L 98.14375 282.076875 
z
" style="fill:#810000;"/>
    <path clip-path="url(#p1709a5ae29)" d="M 153.94375 263.956875 
L 135.34375 273.016875 
L 153.94375 282.076875 
z
" style="fill:#da0000;"/>
    <path clip-path="url(#p1709a5ae29)" d="M 209.74375 263.956875 
L 191.14375 273.016875 
L 209.74375 282.076875 
z
" style="fill:#ff5900;"/>
    <path clip-path="url(#p1709a5ae29)" d="M 265.54375 263.956875 
L 246.94375 273.016875 
L 265.54375 282.076875 
z
" style="fill:#ff1d00;"/>
    <path clip-path="url(#p1709a5ae29)" d="M 42.34375 209.596875 
L 23.74375 218.656875 
L 42.34375 227.716875 
z
" style="fill:#570000;"/>
    <path clip-path="url(#p1709a5ae29)" d="M 98.14375 209.596875 
L 79.54375 218.656875 
L 98.14375 227.716875 
z
" style="fill:#860000;"/>
    <path clip-path="url(#p1709a5ae29)" d="M 153.94375 209.596875 
L 135.34375 218.656875 
L 153.94375 227.716875 
z
" style="fill:#ff1000;"/>
    <path clip-path="url(#p1709a5ae29)" d="M 209.74375 209.596875 
L 191.14375 218.656875 
L 209.74375 227.716875 
z
" style="fill:#ffffff;"/>
    <path clip-path="url(#p1709a5ae29)" d="M 265.54375 209.596875 
L 246.94375 218.656875 
L 265.54375 227.716875 
z
" style="fill:#ff5900;"/>
    <path clip-path="url(#p1709a5ae29)" d="M 42.34375 155.236875 
L 23.74375 164.296875 
L 42.34375 173.356875 
z
" style="fill:#4a0000;"/>
    <path clip-path="url(#p1709a5ae29)" d="M 98.14375 155.236875 
L 79.54375 164.296875 
L 98.14375 173.356875 
z
" style="fill:#660000;"/>
    <path clip-path="url(#p1709a5ae29)" d="M 153.94375 155.236875 
L 135.34375 164.296875 
L 153.94375 173.356875 
z
" style="fill:#a80000;"/>
    <path clip-path="url(#p1709a5ae29)" d="M 209.74375 155.236875 
L 191.14375 164.296875 
L 209.74375 173.356875 
z
" style="fill:#ff1000;"/>
    <path clip-path="url(#p1709a5ae29)" d="M 265.54375 155.236875 
L 246.94375 164.296875 
L 265.54375 173.356875 
z
" style="fill:#da0000;"/>
    <path clip-path="url(#p1709a5ae29)" d="M 42.34375 100.876875 
L 23.74375 109.936875 
L 42.34375 118.996875 
z
" style="fill:#3a0000;"/>
    <path clip-path="url(#p1709a5ae29)" d="M 98.14375 100.876875 
L 79.54375 109.936875 
L 98.14375 118.996875 
z
" style="fill:#4a0000;"/>
    <path clip-path="url(#p1709a5ae29)" d="M 153.94375 100.876875 
L 135.34375 109.936875 
L 153.94375 118.996875 
z
" style="fill:#660000;"/>
    <path clip-path="url(#p1709a5ae29)" d="M 209.74375 100.876875 
L 191.14375 109.936875 
L 209.74375 118.996875 
z
" style="fill:#860000;"/>
    <path clip-path="url(#p1709a5ae29)" d="M 265.54375 100.876875 
L 246.94375 109.936875 
L 265.54375 118.996875 
z
" style="fill:#810000;"/>
    <path clip-path="url(#p1709a5ae29)" d="M 42.34375 46.516875 
L 23.74375 55.576875 
L 42.34375 64.636875 
z
" style="fill:#320000;"/>
    <path clip-path="url(#p1709a5ae29)" d="M 98.14375 46.516875 
L 79.54375 55.576875 
L 98.14375 64.636875 
z
" style="fill:#3a0000;"/>
    <path clip-path="url(#p1709a5ae29)" d="M 153.94375 46.516875 
L 135.34375 55.576875 
L 153.94375 64.636875 
z
" style="fill:#4a0000;"/>
    <path clip-path="url(#p1709a5ae29)" d="M 209.74375 46.516875 
L 191.14375 55.576875 
L 209.74375 64.636875 
z
" style="fill:#570000;"/>
    <path clip-path="url(#p1709a5ae29)" d="M 265.54375 46.516875 
L 246.94375 55.576875 
L 265.54375 64.636875 
z
" style="fill:#590000;"/>
    <path clip-path="url(#p1709a5ae29)" d="M 60.94375 282.076875 
L 42.34375 282.076875 
L 51.64375 300.196875 
z
" style="fill:#590000;"/>
    <path clip-path="url(#p1709a5ae29)" d="M 116.74375 282.076875 
L 98.14375 282.076875 
L 107.44375 300.196875 
z
" style="fill:#810000;"/>
    <path clip-path="url(#p1709a5ae29)" d="M 172.54375 282.076875 
L 153.94375 282.076875 
L 163.24375 300.196875 
z
" style="fill:#da0000;"/>
    <path clip-path="url(#p1709a5ae29)" d="M 228.34375 282.076875 
L 209.74375 282.076875 
L 219.04375 300.196875 
z
" style="fill:#ff5900;"/>
    <path clip-path="url(#p1709a5ae29)" d="M 284.14375 282.076875 
L 265.54375 282.076875 
L 274.84375 300.196875 
z
" style="fill:#ff1d00;"/>
    <path clip-path="url(#p1709a5ae29)" d="M 60.94375 227.716875 
L 42.34375 227.716875 
L 51.64375 245.836875 
z
" style="fill:#570000;"/>
    <path clip-path="url(#p1709a5ae29)" d="M 116.74375 227.716875 
L 98.14375 227.716875 
L 107.44375 245.836875 
z
" style="fill:#860000;"/>
    <path clip-path="url(#p1709a5ae29)" d="M 172.54375 227.716875 
L 153.94375 227.716875 
L 163.24375 245.836875 
z
" style="fill:#ff1000;"/>
    <path clip-path="url(#p1709a5ae29)" d="M 228.34375 227.716875 
L 209.74375 227.716875 
L 219.04375 245.836875 
z
" style="fill:#ffffff;"/>
    <path clip-path="url(#p1709a5ae29)" d="M 284.14375 227.716875 
L 265.54375 227.716875 
L 274.84375 245.836875 
z
" style="fill:#ff5900;"/>
    <path clip-path="url(#p1709a5ae29)" d="M 60.94375 173.356875 
L 42.34375 173.356875 
L 51.64375 191.476875 
z
" style="fill:#4a0000;"/>
    <path clip-path="url(#p1709a5ae29)" d="M 116.74375 173.356875 
L 98.14375 173.356875 
L 107.44375 191.476875 
z
" style="fill:#660000;"/>
    <path clip-path="url(#p1709a5ae29)" d="M 172.54375 173.356875 
L 153.94375 173.356875 
L 163.24375 191.476875 
z
" style="fill:#a80000;"/>
    <path clip-path="url(#p1709a5ae29)" d="M 228.34375 173.356875 
L 209.74375 173.356875 
L 219.04375 191.476875 
z
" style="fill:#ff1000;"/>
    <path clip-path="url(#p1709a5ae29)" d="M 284.14375 173.356875 
L 265.54375 173.356875 
L 274.84375 191.476875 
z
" style="fill:#da0000;"/>
    <path clip-path="url(#p1709a5ae29)" d="M 60.94375 118.996875 
L 42.34375 118.996875 
L 51.64375 137.116875 
z
" style="fill:#3a0000;"/>
    <path clip-path="url(#p1709a5ae29)" d="M 116.74375 118.996875 
L 98.14375 118.996875 
L 107.44375 137.116875 
z
" style="fill:#4a0000;"/>
    <path clip-path="url(#p1709a5ae29)" d="M 172.54375 118.996875 
L 153.94375 118.996875 
L 163.24375 137.116875 
z
" style="fill:#660000;"/>
    <path clip-path="url(#p1709a5ae29)" d="M 228.34375 118.996875 
L 209.74375 118.996875 
L 219.04375 137.116875 
z
" style="fill:#860000;"/>
    <path clip-path="url(#p1709a5ae29)" d="M 284.14375 118.996875 
L 265.54375 118.996875 
L 274.84375 137.116875 
z
" style="fill:#810000;"/>
    <path clip-path="url(#p1709a5ae29)" d="M 60.94375 64.636875 
L 42.34375 64.636875 
L 51.64375 82.756875 
z
" style="fill:#320000;"/>
    <path clip-path="url(#p1709a5ae29)" d="M 116.74375 64.636875 
L 98.14375 64.636875 
L 107.44375 82.756875 
z
" style="fill:#3a0000;"/>
    <path clip-path="url(#p1709a5ae29)" d="M 172.54375 64.636875 
L 153.94375 64.636875 
L 163.24375 82.756875 
z
" style="fill:#4a0000;"/>
    <path clip-path="url(#p1709a5ae29)" d="M 228.34375 64.636875 
L 209.74375 64.636875 
L 219.04375 82.756875 
z
" style="fill:#570000;"/>
    <path clip-path="url(#p1709a5ae29)" d="M 284.14375 64.636875 
L 265.54375 64.636875 
L 274.84375 82.756875 
z
" style="fill:#590000;"/>
    <path clip-path="url(#p1709a5ae29)" d="M 79.54375 273.016875 
L 60.94375 263.956875 
L 60.94375 282.076875 
z
" style="fill:#590000;"/>
    <path clip-path="url(#p1709a5ae29)" d="M 135.34375 273.016875 
L 116.74375 263.956875 
L 116.74375 282.076875 
z
" style="fill:#810000;"/>
    <path clip-path="url(#p1709a5ae29)" d="M 191.14375 273.016875 
L 172.54375 263.956875 
L 172.54375 282.076875 
z
" style="fill:#da0000;"/>
    <path clip-path="url(#p1709a5ae29)" d="M 246.94375 273.016875 
L 228.34375 263.956875 
L 228.34375 282.076875 
z
" style="fill:#ff5900;"/>
    <path clip-path="url(#p1709a5ae29)" d="M 302.74375 273.016875 
L 284.14375 263.956875 
L 284.14375 282.076875 
z
" style="fill:#ff1d00;"/>
    <path clip-path="url(#p1709a5ae29)" d="M 79.54375 218.656875 
L 60.94375 209.596875 
L 60.94375 227.716875 
z
" style="fill:#570000;"/>
    <path clip-path="url(#p1709a5ae29)" d="M 135.34375 218.656875 
L 116.74375 209.596875 
L 116.74375 227.716875 
z
" style="fill:#860000;"/>
    <path clip-path="url(#p1709a5ae29)" d="M 191.14375 218.656875 
L 172.54375 209.596875 
L 172.54375 227.716875 
z
" style="fill:#ff1000;"/>
    <path clip-path="url(#p1709a5ae29)" d="M 246.94375 218.656875 
L 228.34375 209.596875 
L 228.34375 227.716875 
z
" style="fill:#ffffff;"/>
    <path clip-path="url(#p1709a5ae29)" d="M 302.74375 218.656875 
L 284.14375 209.596875 
L 284.14375 227.716875 
z
" style="fill:#ff5900;"/>
    <path clip-path="url(#p1709a5ae29)" d="M 79.54375 164.296875 
L 60.94375 155.236875 
L 60.94375 173.356875 
z
" style="fill:#4a0000;"/>
    <path clip-path="url(#p1709a5ae29)" d="M 135.34375 164.296875 
L 116.74375 155.236875 
L 116.74375 173.356875 
z
" style="fill:#660000;"/>
    <path clip-path="url(#p1709a5ae29)" d="M 191.14375 164.296875 
L 172.54375 155.236875 
L 172.54375 173.356875 
z
" style="fill:#a80000;"/>
    <path clip-path="url(#p1709a5ae29)" d="M 246.94375 164.296875 
L 228.34375 155.236875 
L 228.34375 173.356875 
z
" style="fill:#ff1000;"/>
    <path clip-path="url(#p1709a5ae29)" d="M 302.74375 164.296875 
L 284.14375 155.236875 
L 284.14375 173.356875 
z
" style="fill:#da0000;"/>
    <path clip-path="url(#p1709a5ae29)" d="M 79.54375 109.936875 
L 60.94375 100.876875 
L 60.94375 118.996875 
z
" style="fill:#3a0000;"/>
    <path clip-path="url(#p1709a5ae29)" d="M 135.34375 109.936875 
L 116.74375 100.876875 
L 116.74375 118.996875 
z
" style="fill:#4a0000;"/>
    <path clip-path="url(#p1709a5ae29)" d="M 191.14375 109.936875 
L 172.54375 100.876875 
L 172.54375 118.996875 
z
" style="fill:#660000;"/>
    <path clip-path="url(#p1709a5ae29)" d="M 246.94375 109.936875 
L 228.34375 100.876875 
L 228.34375 118.996875 
z
" style="fill:#860000;"/>
    <path clip-path="url(#p1709a5ae29)" d="M 302.74375 109.936875 
L 284.14375 100.876875 
L 284.14375 118.996875 
z
" style="fill:#810000;"/>
    <path clip-path="url(#p1709a5ae29)" d="M 79.54375 55.576875 
L 60.94375 46.516875 
L 60.94375 64.636875 
z
" style="fill:#320000;"/>
    <path clip-path="url(#p1709a5ae29)" d="M 135.34375 55.576875 
L 116.74375 46.516875 
L 116.74375 64.636875 
z
" style="fill:#3a0000;"/>
    <path clip-path="url(#p1709a5ae29)" d="M 191.14375 55.576875 
L 172.54375 46.516875 
L 172.54375 64.636875 
z
" style="fill:#4a0000;"/>
    <path clip-path="url(#p1709a5ae29)" d="M 246.94375 55.576875 
L 228.34375 46.516875 
L 228.34375 64.636875 
z
" style="fill:#570000;"/>
    <path clip-path="url(#p1709a5ae29)" d="M 302.74375 55.576875 
L 284.14375 46.516875 
L 284.14375 64.636875 
z
" style="fill:#590000;"/>
    <path clip-path="url(#p1709a5ae29)" d="M 60.94375 263.956875 
L 51.64375 245.836875 
L 42.34375 263.956875 
z
" style="fill:#590000;"/>
    <path clip-path="url(#p1709a5ae29)" d="M 116.74375 263.956875 
L 107.44375 245.836875 
L 98.14375 263.956875 
z
" style="fill:#810000;"/>
    <path clip-path="url(#p1709a5ae29)" d="M 172.54375 263.956875 
L 163.24375 245.836875 
L 153.94375 263.956875 
z
" style="fill:#da0000;"/>
    <path clip-path="url(#p1709a5ae29)" d="M 228.34375 263.956875 
L 219.04375 245.836875 
L 209.74375 263.956875 
z
" style="fill:#ff5900;"/>
    <path clip-path="url(#p1709a5ae29)" d="M 284.14375 263.956875 
L 274.84375 245.836875 
L 265.54375 263.956875 
z
" style="fill:#ff1d00;"/>
    <path clip-path="url(#p1709a5ae29)" d="M 60.94375 209.596875 
L 51.64375 191.476875 
L 42.34375 209.596875 
z
" style="fill:#570000;"/>
    <path clip-path="url(#p1709a5ae29)" d="M 116.74375 209.596875 
L 107.44375 191.476875 
L 98.14375 209.596875 
z
" style="fill:#860000;"/>
    <path clip-path="url(#p1709a5ae29)" d="M 172.54375 209.596875 
L 163.24375 191.476875 
L 153.94375 209.596875 
z
" style="fill:#ff1000;"/>
    <path clip-path="url(#p1709a5ae29)" d="M 228.34375 209.596875 
L 219.04375 191.476875 
L 209.74375 209.596875 
z
" style="fill:#ffffff;"/>
    <path clip-path="url(#p1709a5ae29)" d="M 284.14375 209.596875 
L 274.84375 191.476875 
L 265.54375 209.596875 
z
" style="fill:#ff5900;"/>
    <path clip-path="url(#p1709a5ae29)" d="M 60.94375 155.236875 
L 51.64375 137.116875 
L 42.34375 155.236875 
z
" style="fill:#4a0000;"/>
    <path clip-path="url(#p1709a5ae29)" d="M 116.74375 155.236875 
L 107.44375 137.116875 
L 98.14375 155.236875 
z
" style="fill:#660000;"/>
    <path clip-path="url(#p1709a5ae29)" d="M 172.54375 155.236875 
L 163.24375 137.116875 
L 153.94375 155.236875 
z
" style="fill:#a80000;"/>
    <path clip-path="url(#p1709a5ae29)" d="M 228.34375 155.236875 
L 219.04375 137.116875 
L 209.74375 155.236875 
z
" style="fill:#ff1000;"/>
    <path clip-path="url(#p1709a5ae29)" d="M 284.14375 155.236875 
L 274.84375 137.116875 
L 265.54375 155.236875 
z
" style="fill:#da0000;"/>
    <path clip-path="url(#p1709a5ae29)" d="M 60.94375 100.876875 
L 51.64375 82.756875 
L 42.34375 100.876875 
z
" style="fill:#3a0000;"/>
    <path clip-path="url(#p1709a5ae29)" d="M 116.74375 100.876875 
L 107.44375 82.756875 
L 98.14375 100.876875 
z
" style="fill:#4a0000;"/>
    <path clip-path="url(#p1709a5ae29)" d="M 172.54375 100.876875 
L 163.24375 82.756875 
L 153.94375 100.876875 
z
" style="fill:#660000;"/>
    <path clip-path="url(#p1709a5ae29)" d="M 228.34375 100.876875 
L 219.04375 82.756875 
L 209.74375 100.876875 
z
" style="fill:#860000;"/>
    <path clip-path="url(#p1709a5ae29)" d="M 284.14375 100.876875 
L 274.84375 82.756875 
L 265.54375 100.876875 
z
" style="fill:#810000;"/>
    <path clip-path="url(#p1709a5ae29)" d="M 60.94375 46.516875 
L 51.64375 28.396875 
L 42.34375 46.516875 
z
" style="fill:#320000;"/>
    <path clip-path="url(#p1709a5ae29)" d="M 116.74375 46.516875 
L 107.44375 28.396875 
L 98.14375 46.516875 
z
" style="fill:#3a0000;"/>
    <path clip-path="url(#p1709a5ae29)" d="M 172.54375 46.516875 
L 163.24375 28.396875 
L 153.94375 46.516875 
z
" style="fill:#4a0000;"/>
    <path clip-path="url(#p1709a5ae29)" d="M 228.34375 46.516875 
L 219.04375 28.396875 
L 209.74375 46.516875 
z
" style="fill:#570000;"/>
    <path clip-path="url(#p1709a5ae29)" d="M 284.14375 46.516875 
L 274.84375 28.396875 
L 265.54375 46.516875 
z
" style="fill:#590000;"/>
   </g>
   <g id="matplotlib.axis_1">
    <g id="xtick_1">
     <g id="line2d_1">
      <defs>
       <path d="M 0 0 
L 0 3.5 
" id="m12850da763" style="stroke:#000000;stroke-width:0.8;"/>
      </defs>
      <g>
       <use style="stroke:#000000;stroke-width:0.8;" x="51.64375" xlink:href="#m12850da763" y="300.196875"/>
      </g>
     </g>
     <g id="text_1">
      <!-- 1 -->
      <g transform="translate(46.871875 318.594531)scale(0.15 -0.15)">
       <defs>
        <path d="M 794 531 
L 1825 531 
L 1825 4091 
L 703 3866 
L 703 4441 
L 1819 4666 
L 2450 4666 
L 2450 531 
L 3481 531 
L 3481 0 
L 794 0 
L 794 531 
z
" id="DejaVuSans-31" transform="scale(0.015625)"/>
       </defs>
       <use xlink:href="#DejaVuSans-31"/>
      </g>
     </g>
    </g>
    <g id="xtick_2">
     <g id="line2d_2">
      <g>
       <use style="stroke:#000000;stroke-width:0.8;" x="163.24375" xlink:href="#m12850da763" y="300.196875"/>
      </g>
     </g>
     <g id="text_2">
      <!-- 3 -->
      <g transform="translate(158.471875 318.594531)scale(0.15 -0.15)">
       <defs>
        <path d="M 2597 2516 
Q 3050 2419 3304 2112 
Q 3559 1806 3559 1356 
Q 3559 666 3084 287 
Q 2609 -91 1734 -91 
Q 1441 -91 1130 -33 
Q 819 25 488 141 
L 488 750 
Q 750 597 1062 519 
Q 1375 441 1716 441 
Q 2309 441 2620 675 
Q 2931 909 2931 1356 
Q 2931 1769 2642 2001 
Q 2353 2234 1838 2234 
L 1294 2234 
L 1294 2753 
L 1863 2753 
Q 2328 2753 2575 2939 
Q 2822 3125 2822 3475 
Q 2822 3834 2567 4026 
Q 2313 4219 1838 4219 
Q 1578 4219 1281 4162 
Q 984 4106 628 3988 
L 628 4550 
Q 988 4650 1302 4700 
Q 1616 4750 1894 4750 
Q 2613 4750 3031 4423 
Q 3450 4097 3450 3541 
Q 3450 3153 3228 2886 
Q 3006 2619 2597 2516 
z
" id="DejaVuSans-33" transform="scale(0.015625)"/>
       </defs>
       <use xlink:href="#DejaVuSans-33"/>
      </g>
     </g>
    </g>
    <g id="xtick_3">
     <g id="line2d_3">
      <g>
       <use style="stroke:#000000;stroke-width:0.8;" x="274.84375" xlink:href="#m12850da763" y="300.196875"/>
      </g>
     </g>
     <g id="text_3">
      <!-- 5 -->
      <g transform="translate(270.071875 318.594531)scale(0.15 -0.15)">
       <defs>
        <path d="M 691 4666 
L 3169 4666 
L 3169 4134 
L 1269 4134 
L 1269 2991 
Q 1406 3038 1543 3061 
Q 1681 3084 1819 3084 
Q 2600 3084 3056 2656 
Q 3513 2228 3513 1497 
Q 3513 744 3044 326 
Q 2575 -91 1722 -91 
Q 1428 -91 1123 -41 
Q 819 9 494 109 
L 494 744 
Q 775 591 1075 516 
Q 1375 441 1709 441 
Q 2250 441 2565 725 
Q 2881 1009 2881 1497 
Q 2881 1984 2565 2268 
Q 2250 2553 1709 2553 
Q 1456 2553 1204 2497 
Q 953 2441 691 2322 
L 691 4666 
z
" id="DejaVuSans-35" transform="scale(0.015625)"/>
       </defs>
       <use xlink:href="#DejaVuSans-35"/>
      </g>
     </g>
    </g>
   </g>
   <g id="matplotlib.axis_2">
    <g id="ytick_1">
     <g id="line2d_4">
      <defs>
       <path d="M 0 0 
L -3.5 0 
" id="m1bc91d2284" style="stroke:#000000;stroke-width:0.8;"/>
      </defs>
      <g>
       <use style="stroke:#000000;stroke-width:0.8;" x="23.74375" xlink:href="#m1bc91d2284" y="273.016875"/>
      </g>
     </g>
     <g id="text_4">
      <!-- 1 -->
      <g transform="translate(7.2 278.715703)scale(0.15 -0.15)">
       <use xlink:href="#DejaVuSans-31"/>
      </g>
     </g>
    </g>
    <g id="ytick_2">
     <g id="line2d_5">
      <g>
       <use style="stroke:#000000;stroke-width:0.8;" x="23.74375" xlink:href="#m1bc91d2284" y="164.296875"/>
      </g>
     </g>
     <g id="text_5">
      <!-- 3 -->
      <g transform="translate(7.2 169.995703)scale(0.15 -0.15)">
       <use xlink:href="#DejaVuSans-33"/>
      </g>
     </g>
    </g>
    <g id="ytick_3">
     <g id="line2d_6">
      <g>
       <use style="stroke:#000000;stroke-width:0.8;" x="23.74375" xlink:href="#m1bc91d2284" y="55.576875"/>
      </g>
     </g>
     <g id="text_6">
      <!-- 5 -->
      <g transform="translate(7.2 61.275703)scale(0.15 -0.15)">
       <use xlink:href="#DejaVuSans-35"/>
      </g>
     </g>
    </g>
   </g>
   <g id="line2d_7">
    <path clip-path="url(#p1709a5ae29)" d="M 79.54375 300.196875 
L 79.54375 28.396875 
" style="fill:none;stroke:#ffffff;stroke-linecap:square;stroke-width:0.5;"/>
   </g>
   <g id="line2d_8">
    <path clip-path="url(#p1709a5ae29)" d="M 23.74375 245.836875 
L 302.74375 245.836875 
" style="fill:none;stroke:#ffffff;stroke-linecap:square;stroke-width:0.5;"/>
   </g>
   <g id="line2d_9">
    <path clip-path="url(#p1709a5ae29)" d="M 135.34375 300.196875 
L 135.34375 28.396875 
" style="fill:none;stroke:#ffffff;stroke-linecap:square;stroke-width:0.5;"/>
   </g>
   <g id="line2d_10">
    <path clip-path="url(#p1709a5ae29)" d="M 23.74375 191.476875 
L 302.74375 191.476875 
" style="fill:none;stroke:#ffffff;stroke-linecap:square;stroke-width:0.5;"/>
   </g>
   <g id="line2d_11">
    <path clip-path="url(#p1709a5ae29)" d="M 191.14375 300.196875 
L 191.14375 28.396875 
" style="fill:none;stroke:#ffffff;stroke-linecap:square;stroke-width:0.5;"/>
   </g>
   <g id="line2d_12">
    <path clip-path="url(#p1709a5ae29)" d="M 23.74375 137.116875 
L 302.74375 137.116875 
" style="fill:none;stroke:#ffffff;stroke-linecap:square;stroke-width:0.5;"/>
   </g>
   <g id="line2d_13">
    <path clip-path="url(#p1709a5ae29)" d="M 246.94375 300.196875 
L 246.94375 28.396875 
" style="fill:none;stroke:#ffffff;stroke-linecap:square;stroke-width:0.5;"/>
   </g>
   <g id="line2d_14">
    <path clip-path="url(#p1709a5ae29)" d="M 23.74375 82.756875 
L 302.74375 82.756875 
" style="fill:none;stroke:#ffffff;stroke-linecap:square;stroke-width:0.5;"/>
   </g>
   <g id="patch_3">
    <path d="M 23.74375 300.196875 
L 23.74375 28.396875 
" style="fill:none;stroke:#000000;stroke-linecap:square;stroke-linejoin:miter;stroke-width:0.8;"/>
   </g>
   <g id="patch_4">
    <path d="M 302.74375 300.196875 
L 302.74375 28.396875 
" style="fill:none;stroke:#000000;stroke-linecap:square;stroke-linejoin:miter;stroke-width:0.8;"/>
   </g>
   <g id="patch_5">
    <path d="M 23.74375 300.196875 
L 302.74375 300.196875 
" style="fill:none;stroke:#000000;stroke-linecap:square;stroke-linejoin:miter;stroke-width:0.8;"/>
   </g>
   <g id="patch_6">
    <path d="M 23.74375 28.396875 
L 302.74375 28.396875 
" style="fill:none;stroke:#000000;stroke-linecap:square;stroke-linejoin:miter;stroke-width:0.8;"/>
   </g>
   <g id="text_7">
    <!-- $D(e, e_2)$ -->
    <g transform="translate(125.54375 22.396875)scale(0.2 -0.2)">
     <defs>
      <path d="M 1081 4666 
L 2438 4666 
Q 3519 4666 4070 4208 
Q 4622 3750 4622 2847 
Q 4622 2250 4412 1698 
Q 4203 1147 3834 769 
Q 3463 381 2891 190 
Q 2319 0 1538 0 
L 172 0 
L 1081 4666 
z
M 1613 4147 
L 909 519 
L 1734 519 
Q 2794 519 3375 1128 
Q 3956 1738 3956 2847 
Q 3956 3519 3581 3833 
Q 3206 4147 2406 4147 
L 1613 4147 
z
" id="DejaVuSans-Oblique-44" transform="scale(0.015625)"/>
      <path d="M 1984 4856 
Q 1566 4138 1362 3434 
Q 1159 2731 1159 2009 
Q 1159 1288 1364 580 
Q 1569 -128 1984 -844 
L 1484 -844 
Q 1016 -109 783 600 
Q 550 1309 550 2009 
Q 550 2706 781 3412 
Q 1013 4119 1484 4856 
L 1984 4856 
z
" id="DejaVuSans-28" transform="scale(0.015625)"/>
      <path d="M 3078 2063 
Q 3088 2113 3092 2166 
Q 3097 2219 3097 2272 
Q 3097 2653 2873 2875 
Q 2650 3097 2266 3097 
Q 1838 3097 1509 2826 
Q 1181 2556 1013 2059 
L 3078 2063 
z
M 3578 1613 
L 903 1613 
Q 884 1494 878 1425 
Q 872 1356 872 1306 
Q 872 872 1139 634 
Q 1406 397 1894 397 
Q 2269 397 2603 481 
Q 2938 566 3225 728 
L 3116 159 
Q 2806 34 2476 -28 
Q 2147 -91 1806 -91 
Q 1078 -91 686 257 
Q 294 606 294 1247 
Q 294 1794 489 2264 
Q 684 2734 1063 3103 
Q 1306 3334 1642 3459 
Q 1978 3584 2356 3584 
Q 2950 3584 3301 3228 
Q 3653 2872 3653 2272 
Q 3653 2128 3634 1964 
Q 3616 1800 3578 1613 
z
" id="DejaVuSans-Oblique-65" transform="scale(0.015625)"/>
      <path d="M 750 794 
L 1409 794 
L 1409 256 
L 897 -744 
L 494 -744 
L 750 256 
L 750 794 
z
" id="DejaVuSans-2c" transform="scale(0.015625)"/>
      <path d="M 1228 531 
L 3431 531 
L 3431 0 
L 469 0 
L 469 531 
Q 828 903 1448 1529 
Q 2069 2156 2228 2338 
Q 2531 2678 2651 2914 
Q 2772 3150 2772 3378 
Q 2772 3750 2511 3984 
Q 2250 4219 1831 4219 
Q 1534 4219 1204 4116 
Q 875 4013 500 3803 
L 500 4441 
Q 881 4594 1212 4672 
Q 1544 4750 1819 4750 
Q 2544 4750 2975 4387 
Q 3406 4025 3406 3419 
Q 3406 3131 3298 2873 
Q 3191 2616 2906 2266 
Q 2828 2175 2409 1742 
Q 1991 1309 1228 531 
z
" id="DejaVuSans-32" transform="scale(0.015625)"/>
      <path d="M 513 4856 
L 1013 4856 
Q 1481 4119 1714 3412 
Q 1947 2706 1947 2009 
Q 1947 1309 1714 600 
Q 1481 -109 1013 -844 
L 513 -844 
Q 928 -128 1133 580 
Q 1338 1288 1338 2009 
Q 1338 2731 1133 3434 
Q 928 4138 513 4856 
z
" id="DejaVuSans-29" transform="scale(0.015625)"/>
     </defs>
     <use transform="translate(0 0.125)" xlink:href="#DejaVuSans-Oblique-44"/>
     <use transform="translate(77.001953 0.125)" xlink:href="#DejaVuSans-28"/>
     <use transform="translate(116.015625 0.125)" xlink:href="#DejaVuSans-Oblique-65"/>
     <use transform="translate(177.539062 0.125)" xlink:href="#DejaVuSans-2c"/>
     <use transform="translate(228.808594 0.125)" xlink:href="#DejaVuSans-Oblique-65"/>
     <use transform="translate(290.332031 -16.28125)scale(0.7)" xlink:href="#DejaVuSans-32"/>
     <use transform="translate(337.602539 0.125)" xlink:href="#DejaVuSans-29"/>
    </g>
   </g>
  </g>
 </g>
 <defs>
  <clipPath id="p1709a5ae29">
   <rect height="271.8" width="279" x="23.74375" y="28.396875"/>
  </clipPath>
 </defs>
</svg>
