<?xml version="1.0" encoding="utf-8" standalone="no"?>
<!DOCTYPE svg PUBLIC "-//W3C//DTD SVG 1.1//EN"
  "http://www.w3.org/Graphics/SVG/1.1/DTD/svg11.dtd">
<svg height="307.717188pt" version="1.1" viewBox="0 0 319.4875 307.717188" width="319.4875pt" xmlns="http://www.w3.org/2000/svg" xmlns:xlink="http://www.w3.org/1999/xlink">
 <metadata>
  <rdf:RDF xmlns:cc="http://creativecommons.org/ns#" xmlns:dc="http://purl.org/dc/elements/1.1/" xmlns:rdf="http://www.w3.org/1999/02/22-rdf-syntax-ns#">
   <cc:Work>
    <dc:type rdf:resource="http://purl.org/dc/dcmitype/StillImage"/>
    <dc:date>2023-02-10T07:16:48.732742</dc:date>
    <dc:format>image/svg+xml</dc:format>
    <dc:creator>
     <cc:Agent>
      <dc:title>Matplotlib v3.4.3, https://matplotlib.org/</dc:title>
     </cc:Agent>
    </dc:creator>
   </cc:Work>
  </rdf:RDF>
 </metadata>
 <defs>
  <style type="text/css">*{stroke-linecap:butt;stroke-linejoin:round;}</style>
 </defs>
 <g id="figure_1">
  <g id="patch_1">
   <path d="M -0 307.717188 
L 319.4875 307.717188 
L 319.4875 0 
L -0 0 
z
" style="fill:none;"/>
  </g>
  <g id="axes_1">
   <g id="patch_2">
    <path d="M 33.2875 279 
L 312.2875 279 
L 312.2875 7.2 
L 33.2875 7.2 
z
" style="fill:none;"/>
   </g>
   <g id="PolyCollection_1">
    <path clip-path="url(#p8ac0088de1)" d="M 33.2875 279 
L 33.2875 254.290909 
L 58.651136 254.290909 
L 58.651136 279 
L 33.2875 279 
z
" style="fill:#0b0000;"/>
    <path clip-path="url(#p8ac0088de1)" d="M 58.651136 279 
L 58.651136 254.290909 
L 84.014773 254.290909 
L 84.014773 279 
L 58.651136 279 
z
" style="fill:#0b0000;"/>
    <path clip-path="url(#p8ac0088de1)" d="M 84.014773 279 
L 84.014773 254.290909 
L 109.378409 254.290909 
L 109.378409 279 
L 84.014773 279 
z
" style="fill:#0b0000;"/>
    <path clip-path="url(#p8ac0088de1)" d="M 109.378409 279 
L 109.378409 254.290909 
L 134.742045 254.290909 
L 134.742045 279 
L 109.378409 279 
z
" style="fill:#0b0000;"/>
    <path clip-path="url(#p8ac0088de1)" d="M 134.742045 279 
L 134.742045 254.290909 
L 160.105682 254.290909 
L 160.105682 279 
L 134.742045 279 
z
" style="fill:#0b0000;"/>
    <path clip-path="url(#p8ac0088de1)" d="M 160.105682 279 
L 160.105682 254.290909 
L 185.469318 254.290909 
L 185.469318 279 
L 160.105682 279 
z
" style="fill:#0b0000;"/>
    <path clip-path="url(#p8ac0088de1)" d="M 185.469318 279 
L 185.469318 254.290909 
L 210.832955 254.290909 
L 210.832955 279 
L 185.469318 279 
z
" style="fill:#0b0000;"/>
    <path clip-path="url(#p8ac0088de1)" d="M 210.832955 279 
L 210.832955 254.290909 
L 236.196591 254.290909 
L 236.196591 279 
L 210.832955 279 
z
" style="fill:#0b0000;"/>
    <path clip-path="url(#p8ac0088de1)" d="M 236.196591 279 
L 236.196591 254.290909 
L 261.560227 254.290909 
L 261.560227 279 
L 236.196591 279 
z
" style="fill:#0b0000;"/>
    <path clip-path="url(#p8ac0088de1)" d="M 261.560227 279 
L 261.560227 254.290909 
L 286.923864 254.290909 
L 286.923864 279 
L 261.560227 279 
z
" style="fill:#0b0000;"/>
    <path clip-path="url(#p8ac0088de1)" d="M 286.923864 279 
L 286.923864 254.290909 
L 312.2875 254.290909 
L 312.2875 279 
L 286.923864 279 
z
" style="fill:#0b0000;"/>
    <path clip-path="url(#p8ac0088de1)" d="M 33.2875 254.290909 
L 33.2875 229.581818 
L 58.651136 229.581818 
L 58.651136 254.290909 
L 33.2875 254.290909 
z
" style="fill:#0b0000;"/>
    <path clip-path="url(#p8ac0088de1)" d="M 58.651136 254.290909 
L 58.651136 229.581818 
L 84.014773 229.581818 
L 84.014773 254.290909 
L 58.651136 254.290909 
z
" style="fill:#0b0000;"/>
    <path clip-path="url(#p8ac0088de1)" d="M 84.014773 254.290909 
L 84.014773 229.581818 
L 109.378409 229.581818 
L 109.378409 254.290909 
L 84.014773 254.290909 
z
" style="fill:#0b0000;"/>
    <path clip-path="url(#p8ac0088de1)" d="M 109.378409 254.290909 
L 109.378409 229.581818 
L 134.742045 229.581818 
L 134.742045 254.290909 
L 109.378409 254.290909 
z
" style="fill:#0b0000;"/>
    <path clip-path="url(#p8ac0088de1)" d="M 134.742045 254.290909 
L 134.742045 229.581818 
L 160.105682 229.581818 
L 160.105682 254.290909 
L 134.742045 254.290909 
z
" style="fill:#0b0000;"/>
    <path clip-path="url(#p8ac0088de1)" d="M 160.105682 254.290909 
L 160.105682 229.581818 
L 185.469318 229.581818 
L 185.469318 254.290909 
L 160.105682 254.290909 
z
" style="fill:#0b0000;"/>
    <path clip-path="url(#p8ac0088de1)" d="M 185.469318 254.290909 
L 185.469318 229.581818 
L 210.832955 229.581818 
L 210.832955 254.290909 
L 185.469318 254.290909 
z
" style="fill:#0b0000;"/>
    <path clip-path="url(#p8ac0088de1)" d="M 210.832955 254.290909 
L 210.832955 229.581818 
L 236.196591 229.581818 
L 236.196591 254.290909 
L 210.832955 254.290909 
z
" style="fill:#0b0000;"/>
    <path clip-path="url(#p8ac0088de1)" d="M 236.196591 254.290909 
L 236.196591 229.581818 
L 261.560227 229.581818 
L 261.560227 254.290909 
L 236.196591 254.290909 
z
" style="fill:#0b0000;"/>
    <path clip-path="url(#p8ac0088de1)" d="M 261.560227 254.290909 
L 261.560227 229.581818 
L 286.923864 229.581818 
L 286.923864 254.290909 
L 261.560227 254.290909 
z
" style="fill:#0b0000;"/>
    <path clip-path="url(#p8ac0088de1)" d="M 286.923864 254.290909 
L 286.923864 229.581818 
L 312.2875 229.581818 
L 312.2875 254.290909 
L 286.923864 254.290909 
z
" style="fill:#0b0000;"/>
    <path clip-path="url(#p8ac0088de1)" d="M 33.2875 229.581818 
L 33.2875 204.872727 
L 58.651136 204.872727 
L 58.651136 229.581818 
L 33.2875 229.581818 
z
" style="fill:#0b0000;"/>
    <path clip-path="url(#p8ac0088de1)" d="M 58.651136 229.581818 
L 58.651136 204.872727 
L 84.014773 204.872727 
L 84.014773 229.581818 
L 58.651136 229.581818 
z
" style="fill:#0b0000;"/>
    <path clip-path="url(#p8ac0088de1)" d="M 84.014773 229.581818 
L 84.014773 204.872727 
L 109.378409 204.872727 
L 109.378409 229.581818 
L 84.014773 229.581818 
z
" style="fill:#0b0000;"/>
    <path clip-path="url(#p8ac0088de1)" d="M 109.378409 229.581818 
L 109.378409 204.872727 
L 134.742045 204.872727 
L 134.742045 229.581818 
L 109.378409 229.581818 
z
" style="fill:#0b0000;"/>
    <path clip-path="url(#p8ac0088de1)" d="M 134.742045 229.581818 
L 134.742045 204.872727 
L 160.105682 204.872727 
L 160.105682 229.581818 
L 134.742045 229.581818 
z
" style="fill:#0b0000;"/>
    <path clip-path="url(#p8ac0088de1)" d="M 160.105682 229.581818 
L 160.105682 204.872727 
L 185.469318 204.872727 
L 185.469318 229.581818 
L 160.105682 229.581818 
z
" style="fill:#0b0000;"/>
    <path clip-path="url(#p8ac0088de1)" d="M 185.469318 229.581818 
L 185.469318 204.872727 
L 210.832955 204.872727 
L 210.832955 229.581818 
L 185.469318 229.581818 
z
" style="fill:#0b0000;"/>
    <path clip-path="url(#p8ac0088de1)" d="M 210.832955 229.581818 
L 210.832955 204.872727 
L 236.196591 204.872727 
L 236.196591 229.581818 
L 210.832955 229.581818 
z
" style="fill:#0b0000;"/>
    <path clip-path="url(#p8ac0088de1)" d="M 236.196591 229.581818 
L 236.196591 204.872727 
L 261.560227 204.872727 
L 261.560227 229.581818 
L 236.196591 229.581818 
z
" style="fill:#0b0000;"/>
    <path clip-path="url(#p8ac0088de1)" d="M 261.560227 229.581818 
L 261.560227 204.872727 
L 286.923864 204.872727 
L 286.923864 229.581818 
L 261.560227 229.581818 
z
" style="fill:#0b0000;"/>
    <path clip-path="url(#p8ac0088de1)" d="M 286.923864 229.581818 
L 286.923864 204.872727 
L 312.2875 204.872727 
L 312.2875 229.581818 
L 286.923864 229.581818 
z
" style="fill:#0b0000;"/>
    <path clip-path="url(#p8ac0088de1)" d="M 33.2875 204.872727 
L 33.2875 180.163636 
L 58.651136 180.163636 
L 58.651136 204.872727 
L 33.2875 204.872727 
z
" style="fill:#0b0000;"/>
    <path clip-path="url(#p8ac0088de1)" d="M 58.651136 204.872727 
L 58.651136 180.163636 
L 84.014773 180.163636 
L 84.014773 204.872727 
L 58.651136 204.872727 
z
" style="fill:#0b0000;"/>
    <path clip-path="url(#p8ac0088de1)" d="M 84.014773 204.872727 
L 84.014773 180.163636 
L 109.378409 180.163636 
L 109.378409 204.872727 
L 84.014773 204.872727 
z
" style="fill:#0b0000;"/>
    <path clip-path="url(#p8ac0088de1)" d="M 109.378409 204.872727 
L 109.378409 180.163636 
L 134.742045 180.163636 
L 134.742045 204.872727 
L 109.378409 204.872727 
z
" style="fill:#0b0000;"/>
    <path clip-path="url(#p8ac0088de1)" d="M 134.742045 204.872727 
L 134.742045 180.163636 
L 160.105682 180.163636 
L 160.105682 204.872727 
L 134.742045 204.872727 
z
" style="fill:#0b0000;"/>
    <path clip-path="url(#p8ac0088de1)" d="M 160.105682 204.872727 
L 160.105682 180.163636 
L 185.469318 180.163636 
L 185.469318 204.872727 
L 160.105682 204.872727 
z
" style="fill:#0b0000;"/>
    <path clip-path="url(#p8ac0088de1)" d="M 185.469318 204.872727 
L 185.469318 180.163636 
L 210.832955 180.163636 
L 210.832955 204.872727 
L 185.469318 204.872727 
z
" style="fill:#0b0000;"/>
    <path clip-path="url(#p8ac0088de1)" d="M 210.832955 204.872727 
L 210.832955 180.163636 
L 236.196591 180.163636 
L 236.196591 204.872727 
L 210.832955 204.872727 
z
" style="fill:#0b0000;"/>
    <path clip-path="url(#p8ac0088de1)" d="M 236.196591 204.872727 
L 236.196591 180.163636 
L 261.560227 180.163636 
L 261.560227 204.872727 
L 236.196591 204.872727 
z
" style="fill:#0b0000;"/>
    <path clip-path="url(#p8ac0088de1)" d="M 261.560227 204.872727 
L 261.560227 180.163636 
L 286.923864 180.163636 
L 286.923864 204.872727 
L 261.560227 204.872727 
z
" style="fill:#0b0000;"/>
    <path clip-path="url(#p8ac0088de1)" d="M 286.923864 204.872727 
L 286.923864 180.163636 
L 312.2875 180.163636 
L 312.2875 204.872727 
L 286.923864 204.872727 
z
" style="fill:#0b0000;"/>
    <path clip-path="url(#p8ac0088de1)" d="M 33.2875 180.163636 
L 33.2875 155.454545 
L 58.651136 155.454545 
L 58.651136 180.163636 
L 33.2875 180.163636 
z
" style="fill:#0b0000;"/>
    <path clip-path="url(#p8ac0088de1)" d="M 58.651136 180.163636 
L 58.651136 155.454545 
L 84.014773 155.454545 
L 84.014773 180.163636 
L 58.651136 180.163636 
z
" style="fill:#0b0000;"/>
    <path clip-path="url(#p8ac0088de1)" d="M 84.014773 180.163636 
L 84.014773 155.454545 
L 109.378409 155.454545 
L 109.378409 180.163636 
L 84.014773 180.163636 
z
" style="fill:#0b0000;"/>
    <path clip-path="url(#p8ac0088de1)" d="M 109.378409 180.163636 
L 109.378409 155.454545 
L 134.742045 155.454545 
L 134.742045 180.163636 
L 109.378409 180.163636 
z
" style="fill:#0b0000;"/>
    <path clip-path="url(#p8ac0088de1)" d="M 134.742045 180.163636 
L 134.742045 155.454545 
L 160.105682 155.454545 
L 160.105682 180.163636 
L 134.742045 180.163636 
z
" style="fill:#0b0000;"/>
    <path clip-path="url(#p8ac0088de1)" d="M 160.105682 180.163636 
L 160.105682 155.454545 
L 185.469318 155.454545 
L 185.469318 180.163636 
L 160.105682 180.163636 
z
" style="fill:#0b0000;"/>
    <path clip-path="url(#p8ac0088de1)" d="M 185.469318 180.163636 
L 185.469318 155.454545 
L 210.832955 155.454545 
L 210.832955 180.163636 
L 185.469318 180.163636 
z
" style="fill:#0b0000;"/>
    <path clip-path="url(#p8ac0088de1)" d="M 210.832955 180.163636 
L 210.832955 155.454545 
L 236.196591 155.454545 
L 236.196591 180.163636 
L 210.832955 180.163636 
z
" style="fill:#0b0000;"/>
    <path clip-path="url(#p8ac0088de1)" d="M 236.196591 180.163636 
L 236.196591 155.454545 
L 261.560227 155.454545 
L 261.560227 180.163636 
L 236.196591 180.163636 
z
" style="fill:#0b0000;"/>
    <path clip-path="url(#p8ac0088de1)" d="M 261.560227 180.163636 
L 261.560227 155.454545 
L 286.923864 155.454545 
L 286.923864 180.163636 
L 261.560227 180.163636 
z
" style="fill:#0b0000;"/>
    <path clip-path="url(#p8ac0088de1)" d="M 286.923864 180.163636 
L 286.923864 155.454545 
L 312.2875 155.454545 
L 312.2875 180.163636 
L 286.923864 180.163636 
z
" style="fill:#0b0000;"/>
    <path clip-path="url(#p8ac0088de1)" d="M 33.2875 155.454545 
L 33.2875 130.745455 
L 58.651136 130.745455 
L 58.651136 155.454545 
L 33.2875 155.454545 
z
" style="fill:#0b0000;"/>
    <path clip-path="url(#p8ac0088de1)" d="M 58.651136 155.454545 
L 58.651136 130.745455 
L 84.014773 130.745455 
L 84.014773 155.454545 
L 58.651136 155.454545 
z
" style="fill:#0b0000;"/>
    <path clip-path="url(#p8ac0088de1)" d="M 84.014773 155.454545 
L 84.014773 130.745455 
L 109.378409 130.745455 
L 109.378409 155.454545 
L 84.014773 155.454545 
z
" style="fill:#0b0000;"/>
    <path clip-path="url(#p8ac0088de1)" d="M 109.378409 155.454545 
L 109.378409 130.745455 
L 134.742045 130.745455 
L 134.742045 155.454545 
L 109.378409 155.454545 
z
" style="fill:#0b0000;"/>
    <path clip-path="url(#p8ac0088de1)" d="M 134.742045 155.454545 
L 134.742045 130.745455 
L 160.105682 130.745455 
L 160.105682 155.454545 
L 134.742045 155.454545 
z
" style="fill:#0b0000;"/>
    <path clip-path="url(#p8ac0088de1)" d="M 160.105682 155.454545 
L 160.105682 130.745455 
L 185.469318 130.745455 
L 185.469318 155.454545 
L 160.105682 155.454545 
z
" style="fill:#0b0000;"/>
    <path clip-path="url(#p8ac0088de1)" d="M 185.469318 155.454545 
L 185.469318 130.745455 
L 210.832955 130.745455 
L 210.832955 155.454545 
L 185.469318 155.454545 
z
" style="fill:#0b0000;"/>
    <path clip-path="url(#p8ac0088de1)" d="M 210.832955 155.454545 
L 210.832955 130.745455 
L 236.196591 130.745455 
L 236.196591 155.454545 
L 210.832955 155.454545 
z
" style="fill:#0b0000;"/>
    <path clip-path="url(#p8ac0088de1)" d="M 236.196591 155.454545 
L 236.196591 130.745455 
L 261.560227 130.745455 
L 261.560227 155.454545 
L 236.196591 155.454545 
z
" style="fill:#0b0000;"/>
    <path clip-path="url(#p8ac0088de1)" d="M 261.560227 155.454545 
L 261.560227 130.745455 
L 286.923864 130.745455 
L 286.923864 155.454545 
L 261.560227 155.454545 
z
" style="fill:#0b0000;"/>
    <path clip-path="url(#p8ac0088de1)" d="M 286.923864 155.454545 
L 286.923864 130.745455 
L 312.2875 130.745455 
L 312.2875 155.454545 
L 286.923864 155.454545 
z
" style="fill:#0b0000;"/>
    <path clip-path="url(#p8ac0088de1)" d="M 33.2875 130.745455 
L 33.2875 106.036364 
L 58.651136 106.036364 
L 58.651136 130.745455 
L 33.2875 130.745455 
z
" style="fill:#0b0000;"/>
    <path clip-path="url(#p8ac0088de1)" d="M 58.651136 130.745455 
L 58.651136 106.036364 
L 84.014773 106.036364 
L 84.014773 130.745455 
L 58.651136 130.745455 
z
" style="fill:#0b0000;"/>
    <path clip-path="url(#p8ac0088de1)" d="M 84.014773 130.745455 
L 84.014773 106.036364 
L 109.378409 106.036364 
L 109.378409 130.745455 
L 84.014773 130.745455 
z
" style="fill:#0b0000;"/>
    <path clip-path="url(#p8ac0088de1)" d="M 109.378409 130.745455 
L 109.378409 106.036364 
L 134.742045 106.036364 
L 134.742045 130.745455 
L 109.378409 130.745455 
z
" style="fill:#0b0000;"/>
    <path clip-path="url(#p8ac0088de1)" d="M 134.742045 130.745455 
L 134.742045 106.036364 
L 160.105682 106.036364 
L 160.105682 130.745455 
L 134.742045 130.745455 
z
" style="fill:#0b0000;"/>
    <path clip-path="url(#p8ac0088de1)" d="M 160.105682 130.745455 
L 160.105682 106.036364 
L 185.469318 106.036364 
L 185.469318 130.745455 
L 160.105682 130.745455 
z
" style="fill:#0b0000;"/>
    <path clip-path="url(#p8ac0088de1)" d="M 185.469318 130.745455 
L 185.469318 106.036364 
L 210.832955 106.036364 
L 210.832955 130.745455 
L 185.469318 130.745455 
z
" style="fill:#0b0000;"/>
    <path clip-path="url(#p8ac0088de1)" d="M 210.832955 130.745455 
L 210.832955 106.036364 
L 236.196591 106.036364 
L 236.196591 130.745455 
L 210.832955 130.745455 
z
" style="fill:#0b0000;"/>
    <path clip-path="url(#p8ac0088de1)" d="M 236.196591 130.745455 
L 236.196591 106.036364 
L 261.560227 106.036364 
L 261.560227 130.745455 
L 236.196591 130.745455 
z
" style="fill:#0b0000;"/>
    <path clip-path="url(#p8ac0088de1)" d="M 261.560227 130.745455 
L 261.560227 106.036364 
L 286.923864 106.036364 
L 286.923864 130.745455 
L 261.560227 130.745455 
z
" style="fill:#0b0000;"/>
    <path clip-path="url(#p8ac0088de1)" d="M 286.923864 130.745455 
L 286.923864 106.036364 
L 312.2875 106.036364 
L 312.2875 130.745455 
L 286.923864 130.745455 
z
" style="fill:#0b0000;"/>
    <path clip-path="url(#p8ac0088de1)" d="M 33.2875 106.036364 
L 33.2875 81.327273 
L 58.651136 81.327273 
L 58.651136 106.036364 
L 33.2875 106.036364 
z
" style="fill:#0b0000;"/>
    <path clip-path="url(#p8ac0088de1)" d="M 58.651136 106.036364 
L 58.651136 81.327273 
L 84.014773 81.327273 
L 84.014773 106.036364 
L 58.651136 106.036364 
z
" style="fill:#0b0000;"/>
    <path clip-path="url(#p8ac0088de1)" d="M 84.014773 106.036364 
L 84.014773 81.327273 
L 109.378409 81.327273 
L 109.378409 106.036364 
L 84.014773 106.036364 
z
" style="fill:#0b0000;"/>
    <path clip-path="url(#p8ac0088de1)" d="M 109.378409 106.036364 
L 109.378409 81.327273 
L 134.742045 81.327273 
L 134.742045 106.036364 
L 109.378409 106.036364 
z
" style="fill:#0b0000;"/>
    <path clip-path="url(#p8ac0088de1)" d="M 134.742045 106.036364 
L 134.742045 81.327273 
L 160.105682 81.327273 
L 160.105682 106.036364 
L 134.742045 106.036364 
z
" style="fill:#0b0000;"/>
    <path clip-path="url(#p8ac0088de1)" d="M 160.105682 106.036364 
L 160.105682 81.327273 
L 185.469318 81.327273 
L 185.469318 106.036364 
L 160.105682 106.036364 
z
" style="fill:#0b0000;"/>
    <path clip-path="url(#p8ac0088de1)" d="M 185.469318 106.036364 
L 185.469318 81.327273 
L 210.832955 81.327273 
L 210.832955 106.036364 
L 185.469318 106.036364 
z
" style="fill:#0b0000;"/>
    <path clip-path="url(#p8ac0088de1)" d="M 210.832955 106.036364 
L 210.832955 81.327273 
L 236.196591 81.327273 
L 236.196591 106.036364 
L 210.832955 106.036364 
z
" style="fill:#0b0000;"/>
    <path clip-path="url(#p8ac0088de1)" d="M 236.196591 106.036364 
L 236.196591 81.327273 
L 261.560227 81.327273 
L 261.560227 106.036364 
L 236.196591 106.036364 
z
" style="fill:#0b0000;"/>
    <path clip-path="url(#p8ac0088de1)" d="M 261.560227 106.036364 
L 261.560227 81.327273 
L 286.923864 81.327273 
L 286.923864 106.036364 
L 261.560227 106.036364 
z
" style="fill:#0b0000;"/>
    <path clip-path="url(#p8ac0088de1)" d="M 286.923864 106.036364 
L 286.923864 81.327273 
L 312.2875 81.327273 
L 312.2875 106.036364 
L 286.923864 106.036364 
z
" style="fill:#0b0000;"/>
    <path clip-path="url(#p8ac0088de1)" d="M 33.2875 81.327273 
L 33.2875 56.618182 
L 58.651136 56.618182 
L 58.651136 81.327273 
L 33.2875 81.327273 
z
" style="fill:#0b0000;"/>
    <path clip-path="url(#p8ac0088de1)" d="M 58.651136 81.327273 
L 58.651136 56.618182 
L 84.014773 56.618182 
L 84.014773 81.327273 
L 58.651136 81.327273 
z
" style="fill:#0b0000;"/>
    <path clip-path="url(#p8ac0088de1)" d="M 84.014773 81.327273 
L 84.014773 56.618182 
L 109.378409 56.618182 
L 109.378409 81.327273 
L 84.014773 81.327273 
z
" style="fill:#0b0000;"/>
    <path clip-path="url(#p8ac0088de1)" d="M 109.378409 81.327273 
L 109.378409 56.618182 
L 134.742045 56.618182 
L 134.742045 81.327273 
L 109.378409 81.327273 
z
" style="fill:#0b0000;"/>
    <path clip-path="url(#p8ac0088de1)" d="M 134.742045 81.327273 
L 134.742045 56.618182 
L 160.105682 56.618182 
L 160.105682 81.327273 
L 134.742045 81.327273 
z
" style="fill:#0b0000;"/>
    <path clip-path="url(#p8ac0088de1)" d="M 160.105682 81.327273 
L 160.105682 56.618182 
L 185.469318 56.618182 
L 185.469318 81.327273 
L 160.105682 81.327273 
z
" style="fill:#0b0000;"/>
    <path clip-path="url(#p8ac0088de1)" d="M 185.469318 81.327273 
L 185.469318 56.618182 
L 210.832955 56.618182 
L 210.832955 81.327273 
L 185.469318 81.327273 
z
" style="fill:#0b0000;"/>
    <path clip-path="url(#p8ac0088de1)" d="M 210.832955 81.327273 
L 210.832955 56.618182 
L 236.196591 56.618182 
L 236.196591 81.327273 
L 210.832955 81.327273 
z
" style="fill:#0b0000;"/>
    <path clip-path="url(#p8ac0088de1)" d="M 236.196591 81.327273 
L 236.196591 56.618182 
L 261.560227 56.618182 
L 261.560227 81.327273 
L 236.196591 81.327273 
z
" style="fill:#0b0000;"/>
    <path clip-path="url(#p8ac0088de1)" d="M 261.560227 81.327273 
L 261.560227 56.618182 
L 286.923864 56.618182 
L 286.923864 81.327273 
L 261.560227 81.327273 
z
" style="fill:#0b0000;"/>
    <path clip-path="url(#p8ac0088de1)" d="M 286.923864 81.327273 
L 286.923864 56.618182 
L 312.2875 56.618182 
L 312.2875 81.327273 
L 286.923864 81.327273 
z
" style="fill:#0b0000;"/>
    <path clip-path="url(#p8ac0088de1)" d="M 33.2875 56.618182 
L 33.2875 31.909091 
L 58.651136 31.909091 
L 58.651136 56.618182 
L 33.2875 56.618182 
z
" style="fill:#0b0000;"/>
    <path clip-path="url(#p8ac0088de1)" d="M 58.651136 56.618182 
L 58.651136 31.909091 
L 84.014773 31.909091 
L 84.014773 56.618182 
L 58.651136 56.618182 
z
" style="fill:#0b0000;"/>
    <path clip-path="url(#p8ac0088de1)" d="M 84.014773 56.618182 
L 84.014773 31.909091 
L 109.378409 31.909091 
L 109.378409 56.618182 
L 84.014773 56.618182 
z
" style="fill:#0b0000;"/>
    <path clip-path="url(#p8ac0088de1)" d="M 109.378409 56.618182 
L 109.378409 31.909091 
L 134.742045 31.909091 
L 134.742045 56.618182 
L 109.378409 56.618182 
z
" style="fill:#0b0000;"/>
    <path clip-path="url(#p8ac0088de1)" d="M 134.742045 56.618182 
L 134.742045 31.909091 
L 160.105682 31.909091 
L 160.105682 56.618182 
L 134.742045 56.618182 
z
" style="fill:#0b0000;"/>
    <path clip-path="url(#p8ac0088de1)" d="M 160.105682 56.618182 
L 160.105682 31.909091 
L 185.469318 31.909091 
L 185.469318 56.618182 
L 160.105682 56.618182 
z
" style="fill:#0b0000;"/>
    <path clip-path="url(#p8ac0088de1)" d="M 185.469318 56.618182 
L 185.469318 31.909091 
L 210.832955 31.909091 
L 210.832955 56.618182 
L 185.469318 56.618182 
z
" style="fill:#0b0000;"/>
    <path clip-path="url(#p8ac0088de1)" d="M 210.832955 56.618182 
L 210.832955 31.909091 
L 236.196591 31.909091 
L 236.196591 56.618182 
L 210.832955 56.618182 
z
" style="fill:#0b0000;"/>
    <path clip-path="url(#p8ac0088de1)" d="M 236.196591 56.618182 
L 236.196591 31.909091 
L 261.560227 31.909091 
L 261.560227 56.618182 
L 236.196591 56.618182 
z
" style="fill:#0b0000;"/>
    <path clip-path="url(#p8ac0088de1)" d="M 261.560227 56.618182 
L 261.560227 31.909091 
L 286.923864 31.909091 
L 286.923864 56.618182 
L 261.560227 56.618182 
z
" style="fill:#0b0000;"/>
    <path clip-path="url(#p8ac0088de1)" d="M 286.923864 56.618182 
L 286.923864 31.909091 
L 312.2875 31.909091 
L 312.2875 56.618182 
L 286.923864 56.618182 
z
" style="fill:#0b0000;"/>
    <path clip-path="url(#p8ac0088de1)" d="M 33.2875 31.909091 
L 33.2875 7.2 
L 58.651136 7.2 
L 58.651136 31.909091 
L 33.2875 31.909091 
z
" style="fill:#0b0000;"/>
    <path clip-path="url(#p8ac0088de1)" d="M 58.651136 31.909091 
L 58.651136 7.2 
L 84.014773 7.2 
L 84.014773 31.909091 
L 58.651136 31.909091 
z
" style="fill:#0b0000;"/>
    <path clip-path="url(#p8ac0088de1)" d="M 84.014773 31.909091 
L 84.014773 7.2 
L 109.378409 7.2 
L 109.378409 31.909091 
L 84.014773 31.909091 
z
" style="fill:#0b0000;"/>
    <path clip-path="url(#p8ac0088de1)" d="M 109.378409 31.909091 
L 109.378409 7.2 
L 134.742045 7.2 
L 134.742045 31.909091 
L 109.378409 31.909091 
z
" style="fill:#0b0000;"/>
    <path clip-path="url(#p8ac0088de1)" d="M 134.742045 31.909091 
L 134.742045 7.2 
L 160.105682 7.2 
L 160.105682 31.909091 
L 134.742045 31.909091 
z
" style="fill:#0b0000;"/>
    <path clip-path="url(#p8ac0088de1)" d="M 160.105682 31.909091 
L 160.105682 7.2 
L 185.469318 7.2 
L 185.469318 31.909091 
L 160.105682 31.909091 
z
" style="fill:#0b0000;"/>
    <path clip-path="url(#p8ac0088de1)" d="M 185.469318 31.909091 
L 185.469318 7.2 
L 210.832955 7.2 
L 210.832955 31.909091 
L 185.469318 31.909091 
z
" style="fill:#0b0000;"/>
    <path clip-path="url(#p8ac0088de1)" d="M 210.832955 31.909091 
L 210.832955 7.2 
L 236.196591 7.2 
L 236.196591 31.909091 
L 210.832955 31.909091 
z
" style="fill:#0b0000;"/>
    <path clip-path="url(#p8ac0088de1)" d="M 236.196591 31.909091 
L 236.196591 7.2 
L 261.560227 7.2 
L 261.560227 31.909091 
L 236.196591 31.909091 
z
" style="fill:#0b0000;"/>
    <path clip-path="url(#p8ac0088de1)" d="M 261.560227 31.909091 
L 261.560227 7.2 
L 286.923864 7.2 
L 286.923864 31.909091 
L 261.560227 31.909091 
z
" style="fill:#0b0000;"/>
    <path clip-path="url(#p8ac0088de1)" d="M 286.923864 31.909091 
L 286.923864 7.2 
L 312.2875 7.2 
L 312.2875 31.909091 
L 286.923864 31.909091 
z
" style="fill:#0b0000;"/>
   </g>
   <g id="PatchCollection_1">
    <path clip-path="url(#p8ac0088de1)" d="M 193.923864 138.981818 
L 185.469318 143.1 
L 193.923864 147.218182 
z
" style="fill:#4c0000;"/>
    <path clip-path="url(#p8ac0088de1)" d="M 168.560227 138.981818 
L 160.105682 143.1 
L 168.560227 147.218182 
z
" style="fill:#900000;"/>
    <path clip-path="url(#p8ac0088de1)" d="M 160.105682 143.1 
L 151.651136 138.981818 
L 151.651136 147.218182 
z
" style="fill:#d20000;"/>
    <path clip-path="url(#p8ac0088de1)" d="M 177.014773 138.981818 
L 172.7875 130.745455 
L 168.560227 138.981818 
z
" style="fill:#ff1700;"/>
    <path clip-path="url(#p8ac0088de1)" d="M 168.560227 114.272727 
L 160.105682 118.390909 
L 168.560227 122.509091 
z
" style="fill:#ff5c00;"/>
    <path clip-path="url(#p8ac0088de1)" d="M 151.651136 122.509091 
L 143.196591 122.509091 
L 147.423864 130.745455 
z
" style="fill:#ff9d00;"/>
    <path clip-path="url(#p8ac0088de1)" d="M 151.651136 147.218182 
L 143.196591 147.218182 
L 147.423864 155.454545 
z
" style="fill:#ffe100;"/>
    <path clip-path="url(#p8ac0088de1)" d="M 160.105682 167.809091 
L 151.651136 163.690909 
L 151.651136 171.927273 
z
" style="fill:#ffff36;"/>
    <path clip-path="url(#p8ac0088de1)" d="M 177.014773 163.690909 
L 172.7875 155.454545 
L 168.560227 163.690909 
z
" style="fill:#ffff9d;"/>
    <path clip-path="url(#p8ac0088de1)" d="M 185.469318 143.1 
L 177.014773 138.981818 
L 177.014773 147.218182 
z
" style="fill:#ffffff;"/>
   </g>
   <g id="matplotlib.axis_1">
    <g id="xtick_1">
     <g id="line2d_1">
      <defs>
       <path d="M 0 0 
L 0 3.5 
" id="m69fd8bbf33" style="stroke:#000000;stroke-width:0.8;"/>
      </defs>
      <g>
       <use style="stroke:#000000;stroke-width:0.8;" x="45.969318" xlink:href="#m69fd8bbf33" y="279"/>
      </g>
     </g>
     <g id="text_1">
      <!-- 1 -->
      <g transform="translate(41.197443 297.397656)scale(0.15 -0.15)">
       <defs>
        <path d="M 794 531 
L 1825 531 
L 1825 4091 
L 703 3866 
L 703 4441 
L 1819 4666 
L 2450 4666 
L 2450 531 
L 3481 531 
L 3481 0 
L 794 0 
L 794 531 
z
" id="DejaVuSans-31" transform="scale(0.015625)"/>
       </defs>
       <use xlink:href="#DejaVuSans-31"/>
      </g>
     </g>
    </g>
    <g id="xtick_2">
     <g id="line2d_2">
      <g>
       <use style="stroke:#000000;stroke-width:0.8;" x="172.7875" xlink:href="#m69fd8bbf33" y="279"/>
      </g>
     </g>
     <g id="text_2">
      <!-- 6 -->
      <g transform="translate(168.015625 297.397656)scale(0.15 -0.15)">
       <defs>
        <path d="M 2113 2584 
Q 1688 2584 1439 2293 
Q 1191 2003 1191 1497 
Q 1191 994 1439 701 
Q 1688 409 2113 409 
Q 2538 409 2786 701 
Q 3034 994 3034 1497 
Q 3034 2003 2786 2293 
Q 2538 2584 2113 2584 
z
M 3366 4563 
L 3366 3988 
Q 3128 4100 2886 4159 
Q 2644 4219 2406 4219 
Q 1781 4219 1451 3797 
Q 1122 3375 1075 2522 
Q 1259 2794 1537 2939 
Q 1816 3084 2150 3084 
Q 2853 3084 3261 2657 
Q 3669 2231 3669 1497 
Q 3669 778 3244 343 
Q 2819 -91 2113 -91 
Q 1303 -91 875 529 
Q 447 1150 447 2328 
Q 447 3434 972 4092 
Q 1497 4750 2381 4750 
Q 2619 4750 2861 4703 
Q 3103 4656 3366 4563 
z
" id="DejaVuSans-36" transform="scale(0.015625)"/>
       </defs>
       <use xlink:href="#DejaVuSans-36"/>
      </g>
     </g>
    </g>
    <g id="xtick_3">
     <g id="line2d_3">
      <g>
       <use style="stroke:#000000;stroke-width:0.8;" x="299.605682" xlink:href="#m69fd8bbf33" y="279"/>
      </g>
     </g>
     <g id="text_3">
      <!-- 11 -->
      <g transform="translate(290.061932 297.397656)scale(0.15 -0.15)">
       <use xlink:href="#DejaVuSans-31"/>
       <use x="63.623047" xlink:href="#DejaVuSans-31"/>
      </g>
     </g>
    </g>
   </g>
   <g id="matplotlib.axis_2">
    <g id="ytick_1">
     <g id="line2d_4">
      <defs>
       <path d="M 0 0 
L -3.5 0 
" id="m266dc1827a" style="stroke:#000000;stroke-width:0.8;"/>
      </defs>
      <g>
       <use style="stroke:#000000;stroke-width:0.8;" x="33.2875" xlink:href="#m266dc1827a" y="266.645455"/>
      </g>
     </g>
     <g id="text_4">
      <!-- 1 -->
      <g transform="translate(16.74375 272.344283)scale(0.15 -0.15)">
       <use xlink:href="#DejaVuSans-31"/>
      </g>
     </g>
    </g>
    <g id="ytick_2">
     <g id="line2d_5">
      <g>
       <use style="stroke:#000000;stroke-width:0.8;" x="33.2875" xlink:href="#m266dc1827a" y="143.1"/>
      </g>
     </g>
     <g id="text_5">
      <!-- 6 -->
      <g transform="translate(16.74375 148.798828)scale(0.15 -0.15)">
       <use xlink:href="#DejaVuSans-36"/>
      </g>
     </g>
    </g>
    <g id="ytick_3">
     <g id="line2d_6">
      <g>
       <use style="stroke:#000000;stroke-width:0.8;" x="33.2875" xlink:href="#m266dc1827a" y="19.554545"/>
      </g>
     </g>
     <g id="text_6">
      <!-- 11 -->
      <g transform="translate(7.2 25.253374)scale(0.15 -0.15)">
       <use xlink:href="#DejaVuSans-31"/>
       <use x="63.623047" xlink:href="#DejaVuSans-31"/>
      </g>
     </g>
    </g>
   </g>
   <g id="line2d_7">
    <path clip-path="url(#p8ac0088de1)" d="M 58.651136 279 
L 58.651136 7.2 
" style="fill:none;stroke:#ffffff;stroke-linecap:square;stroke-width:0.5;"/>
   </g>
   <g id="line2d_8">
    <path clip-path="url(#p8ac0088de1)" d="M 33.2875 254.290909 
L 312.2875 254.290909 
" style="fill:none;stroke:#ffffff;stroke-linecap:square;stroke-width:0.5;"/>
   </g>
   <g id="line2d_9">
    <path clip-path="url(#p8ac0088de1)" d="M 84.014773 279 
L 84.014773 7.2 
" style="fill:none;stroke:#ffffff;stroke-linecap:square;stroke-width:0.5;"/>
   </g>
   <g id="line2d_10">
    <path clip-path="url(#p8ac0088de1)" d="M 33.2875 229.581818 
L 312.2875 229.581818 
" style="fill:none;stroke:#ffffff;stroke-linecap:square;stroke-width:0.5;"/>
   </g>
   <g id="line2d_11">
    <path clip-path="url(#p8ac0088de1)" d="M 109.378409 279 
L 109.378409 7.2 
" style="fill:none;stroke:#ffffff;stroke-linecap:square;stroke-width:0.5;"/>
   </g>
   <g id="line2d_12">
    <path clip-path="url(#p8ac0088de1)" d="M 33.2875 204.872727 
L 312.2875 204.872727 
" style="fill:none;stroke:#ffffff;stroke-linecap:square;stroke-width:0.5;"/>
   </g>
   <g id="line2d_13">
    <path clip-path="url(#p8ac0088de1)" d="M 134.742045 279 
L 134.742045 7.2 
" style="fill:none;stroke:#ffffff;stroke-linecap:square;stroke-width:0.5;"/>
   </g>
   <g id="line2d_14">
    <path clip-path="url(#p8ac0088de1)" d="M 33.2875 180.163636 
L 312.2875 180.163636 
" style="fill:none;stroke:#ffffff;stroke-linecap:square;stroke-width:0.5;"/>
   </g>
   <g id="line2d_15">
    <path clip-path="url(#p8ac0088de1)" d="M 160.105682 279 
L 160.105682 7.2 
" style="fill:none;stroke:#ffffff;stroke-linecap:square;stroke-width:0.5;"/>
   </g>
   <g id="line2d_16">
    <path clip-path="url(#p8ac0088de1)" d="M 33.2875 155.454545 
L 312.2875 155.454545 
" style="fill:none;stroke:#ffffff;stroke-linecap:square;stroke-width:0.5;"/>
   </g>
   <g id="line2d_17">
    <path clip-path="url(#p8ac0088de1)" d="M 185.469318 279 
L 185.469318 7.2 
" style="fill:none;stroke:#ffffff;stroke-linecap:square;stroke-width:0.5;"/>
   </g>
   <g id="line2d_18">
    <path clip-path="url(#p8ac0088de1)" d="M 33.2875 130.745455 
L 312.2875 130.745455 
" style="fill:none;stroke:#ffffff;stroke-linecap:square;stroke-width:0.5;"/>
   </g>
   <g id="line2d_19">
    <path clip-path="url(#p8ac0088de1)" d="M 210.832955 279 
L 210.832955 7.2 
" style="fill:none;stroke:#ffffff;stroke-linecap:square;stroke-width:0.5;"/>
   </g>
   <g id="line2d_20">
    <path clip-path="url(#p8ac0088de1)" d="M 33.2875 106.036364 
L 312.2875 106.036364 
" style="fill:none;stroke:#ffffff;stroke-linecap:square;stroke-width:0.5;"/>
   </g>
   <g id="line2d_21">
    <path clip-path="url(#p8ac0088de1)" d="M 236.196591 279 
L 236.196591 7.2 
" style="fill:none;stroke:#ffffff;stroke-linecap:square;stroke-width:0.5;"/>
   </g>
   <g id="line2d_22">
    <path clip-path="url(#p8ac0088de1)" d="M 33.2875 81.327273 
L 312.2875 81.327273 
" style="fill:none;stroke:#ffffff;stroke-linecap:square;stroke-width:0.5;"/>
   </g>
   <g id="line2d_23">
    <path clip-path="url(#p8ac0088de1)" d="M 261.560227 279 
L 261.560227 7.2 
" style="fill:none;stroke:#ffffff;stroke-linecap:square;stroke-width:0.5;"/>
   </g>
   <g id="line2d_24">
    <path clip-path="url(#p8ac0088de1)" d="M 33.2875 56.618182 
L 312.2875 56.618182 
" style="fill:none;stroke:#ffffff;stroke-linecap:square;stroke-width:0.5;"/>
   </g>
   <g id="line2d_25">
    <path clip-path="url(#p8ac0088de1)" d="M 286.923864 279 
L 286.923864 7.2 
" style="fill:none;stroke:#ffffff;stroke-linecap:square;stroke-width:0.5;"/>
   </g>
   <g id="line2d_26">
    <path clip-path="url(#p8ac0088de1)" d="M 33.2875 31.909091 
L 312.2875 31.909091 
" style="fill:none;stroke:#ffffff;stroke-linecap:square;stroke-width:0.5;"/>
   </g>
   <g id="patch_3">
    <path d="M 33.2875 279 
L 33.2875 7.2 
" style="fill:none;stroke:#000000;stroke-linecap:square;stroke-linejoin:miter;stroke-width:0.8;"/>
   </g>
   <g id="patch_4">
    <path d="M 312.2875 279 
L 312.2875 7.2 
" style="fill:none;stroke:#000000;stroke-linecap:square;stroke-linejoin:miter;stroke-width:0.8;"/>
   </g>
   <g id="patch_5">
    <path d="M 33.2875 279 
L 312.2875 279 
" style="fill:none;stroke:#000000;stroke-linecap:square;stroke-linejoin:miter;stroke-width:0.8;"/>
   </g>
   <g id="patch_6">
    <path d="M 33.2875 7.2 
L 312.2875 7.2 
" style="fill:none;stroke:#000000;stroke-linecap:square;stroke-linejoin:miter;stroke-width:0.8;"/>
   </g>
  </g>
 </g>
 <defs>
  <clipPath id="p8ac0088de1">
   <rect height="271.8" width="279" x="33.2875" y="7.2"/>
  </clipPath>
 </defs>
</svg>
