<?xml version="1.0" encoding="utf-8" standalone="no"?>
<!DOCTYPE svg PUBLIC "-//W3C//DTD SVG 1.1//EN"
  "http://www.w3.org/Graphics/SVG/1.1/DTD/svg11.dtd">
<svg height="180.98pt" version="1.1" viewBox="0 0 1022.3 180.98" width="1022.3pt" xmlns="http://www.w3.org/2000/svg" xmlns:xlink="http://www.w3.org/1999/xlink">
 <metadata>
  <rdf:RDF xmlns:cc="http://creativecommons.org/ns#" xmlns:dc="http://purl.org/dc/elements/1.1/" xmlns:rdf="http://www.w3.org/1999/02/22-rdf-syntax-ns#">
   <cc:Work>
    <dc:type rdf:resource="http://purl.org/dc/dcmitype/StillImage"/>
    <dc:date>2022-06-19T18:27:21.944200</dc:date>
    <dc:format>image/svg+xml</dc:format>
    <dc:creator>
     <cc:Agent>
      <dc:title>Matplotlib v3.4.3, https://matplotlib.org/</dc:title>
     </cc:Agent>
    </dc:creator>
   </cc:Work>
  </rdf:RDF>
 </metadata>
 <defs>
  <style type="text/css">*{stroke-linecap:butt;stroke-linejoin:round;}</style>
 </defs>
 <g id="figure_1">
  <g id="patch_1">
   <path d="M 0 180.98 
L 1022.3 180.98 
L 1022.3 0 
L 0 0 
z
" style="fill:none;"/>
  </g>
  <g id="axes_1">
   <g id="patch_2">
    <path d="M 10.7 170.28 
L 229.047826 170.28 
L 229.047826 7.2 
L 10.7 7.2 
z
" style="fill:none;"/>
   </g>
   <g id="PolyCollection_1">
    <path clip-path="url(#p917640cf50)" d="M 10.7 170.28 
L 10.7 146.982857 
L 30.549802 146.982857 
L 30.549802 170.28 
L 10.7 170.28 
z
" style="fill:#ffff22;"/>
    <path clip-path="url(#p917640cf50)" d="M 30.549802 170.28 
L 30.549802 146.982857 
L 50.399605 146.982857 
L 50.399605 170.28 
L 30.549802 170.28 
z
" style="fill:#ffef00;"/>
    <path clip-path="url(#p917640cf50)" d="M 50.399605 170.28 
L 50.399605 146.982857 
L 70.249407 146.982857 
L 70.249407 170.28 
L 50.399605 170.28 
z
" style="fill:#ffca00;"/>
    <path clip-path="url(#p917640cf50)" d="M 70.249407 170.28 
L 70.249407 146.982857 
L 90.099209 146.982857 
L 90.099209 170.28 
L 70.249407 170.28 
z
" style="fill:#ffa500;"/>
    <path clip-path="url(#p917640cf50)" d="M 90.099209 170.28 
L 90.099209 146.982857 
L 109.949012 146.982857 
L 109.949012 170.28 
L 90.099209 170.28 
z
" style="fill:#ff8000;"/>
    <path clip-path="url(#p917640cf50)" d="M 109.949012 170.28 
L 109.949012 146.982857 
L 129.798814 146.982857 
L 129.798814 170.28 
L 109.949012 170.28 
z
" style="fill:#ff5c00;"/>
    <path clip-path="url(#p917640cf50)" d="M 129.798814 170.28 
L 129.798814 146.982857 
L 149.648617 146.982857 
L 149.648617 170.28 
L 129.798814 170.28 
z
" style="fill:#ff3400;"/>
    <path clip-path="url(#p917640cf50)" d="M 149.648617 170.28 
L 149.648617 146.982857 
L 169.498419 146.982857 
L 169.498419 170.28 
L 149.648617 170.28 
z
" style="fill:#ff1000;"/>
    <path clip-path="url(#p917640cf50)" d="M 169.498419 170.28 
L 169.498419 146.982857 
L 189.348221 146.982857 
L 189.348221 170.28 
L 169.498419 170.28 
z
" style="fill:#ea0000;"/>
    <path clip-path="url(#p917640cf50)" d="M 189.348221 170.28 
L 189.348221 146.982857 
L 209.198024 146.982857 
L 209.198024 170.28 
L 189.348221 170.28 
z
" style="fill:#c50000;"/>
    <path clip-path="url(#p917640cf50)" d="M 209.198024 170.28 
L 209.198024 146.982857 
L 229.047826 146.982857 
L 229.047826 170.28 
L 209.198024 170.28 
z
" style="fill:#9e0000;"/>
    <path clip-path="url(#p917640cf50)" d="M 10.7 146.982857 
L 10.7 123.685714 
L 30.549802 123.685714 
L 30.549802 146.982857 
L 10.7 146.982857 
z
" style="fill:#ffff5a;"/>
    <path clip-path="url(#p917640cf50)" d="M 30.549802 146.982857 
L 30.549802 123.685714 
L 50.399605 123.685714 
L 50.399605 146.982857 
L 30.549802 146.982857 
z
" style="fill:#0b0000;"/>
    <path clip-path="url(#p917640cf50)" d="M 50.399605 146.982857 
L 50.399605 123.685714 
L 70.249407 123.685714 
L 70.249407 146.982857 
L 50.399605 146.982857 
z
" style="fill:#0b0000;"/>
    <path clip-path="url(#p917640cf50)" d="M 70.249407 146.982857 
L 70.249407 123.685714 
L 90.099209 123.685714 
L 90.099209 146.982857 
L 70.249407 146.982857 
z
" style="fill:#0b0000;"/>
    <path clip-path="url(#p917640cf50)" d="M 90.099209 146.982857 
L 90.099209 123.685714 
L 109.949012 123.685714 
L 109.949012 146.982857 
L 90.099209 146.982857 
z
" style="fill:#0b0000;"/>
    <path clip-path="url(#p917640cf50)" d="M 109.949012 146.982857 
L 109.949012 123.685714 
L 129.798814 123.685714 
L 129.798814 146.982857 
L 109.949012 146.982857 
z
" style="fill:#0b0000;"/>
    <path clip-path="url(#p917640cf50)" d="M 129.798814 146.982857 
L 129.798814 123.685714 
L 149.648617 123.685714 
L 149.648617 146.982857 
L 129.798814 146.982857 
z
" style="fill:#0b0000;"/>
    <path clip-path="url(#p917640cf50)" d="M 149.648617 146.982857 
L 149.648617 123.685714 
L 169.498419 123.685714 
L 169.498419 146.982857 
L 149.648617 146.982857 
z
" style="fill:#0b0000;"/>
    <path clip-path="url(#p917640cf50)" d="M 169.498419 146.982857 
L 169.498419 123.685714 
L 189.348221 123.685714 
L 189.348221 146.982857 
L 169.498419 146.982857 
z
" style="fill:#0b0000;"/>
    <path clip-path="url(#p917640cf50)" d="M 189.348221 146.982857 
L 189.348221 123.685714 
L 209.198024 123.685714 
L 209.198024 146.982857 
L 189.348221 146.982857 
z
" style="fill:#0b0000;"/>
    <path clip-path="url(#p917640cf50)" d="M 209.198024 146.982857 
L 209.198024 123.685714 
L 229.047826 123.685714 
L 229.047826 146.982857 
L 209.198024 146.982857 
z
" style="fill:#790000;"/>
    <path clip-path="url(#p917640cf50)" d="M 10.7 123.685714 
L 10.7 100.388571 
L 30.549802 100.388571 
L 30.549802 123.685714 
L 10.7 123.685714 
z
" style="fill:#ffff91;"/>
    <path clip-path="url(#p917640cf50)" d="M 30.549802 123.685714 
L 30.549802 100.388571 
L 50.399605 100.388571 
L 50.399605 123.685714 
L 30.549802 123.685714 
z
" style="fill:#0b0000;"/>
    <path clip-path="url(#p917640cf50)" d="M 50.399605 123.685714 
L 50.399605 100.388571 
L 70.249407 100.388571 
L 70.249407 123.685714 
L 50.399605 123.685714 
z
" style="fill:#0b0000;"/>
    <path clip-path="url(#p917640cf50)" d="M 70.249407 123.685714 
L 70.249407 100.388571 
L 90.099209 100.388571 
L 90.099209 123.685714 
L 70.249407 123.685714 
z
" style="fill:#0b0000;"/>
    <path clip-path="url(#p917640cf50)" d="M 90.099209 123.685714 
L 90.099209 100.388571 
L 109.949012 100.388571 
L 109.949012 123.685714 
L 90.099209 123.685714 
z
" style="fill:#0b0000;"/>
    <path clip-path="url(#p917640cf50)" d="M 109.949012 123.685714 
L 109.949012 100.388571 
L 129.798814 100.388571 
L 129.798814 123.685714 
L 109.949012 123.685714 
z
" style="fill:#0b0000;"/>
    <path clip-path="url(#p917640cf50)" d="M 129.798814 123.685714 
L 129.798814 100.388571 
L 149.648617 100.388571 
L 149.648617 123.685714 
L 129.798814 123.685714 
z
" style="fill:#0b0000;"/>
    <path clip-path="url(#p917640cf50)" d="M 149.648617 123.685714 
L 149.648617 100.388571 
L 169.498419 100.388571 
L 169.498419 123.685714 
L 149.648617 123.685714 
z
" style="fill:#0b0000;"/>
    <path clip-path="url(#p917640cf50)" d="M 169.498419 123.685714 
L 169.498419 100.388571 
L 189.348221 100.388571 
L 189.348221 123.685714 
L 169.498419 123.685714 
z
" style="fill:#0b0000;"/>
    <path clip-path="url(#p917640cf50)" d="M 189.348221 123.685714 
L 189.348221 100.388571 
L 209.198024 100.388571 
L 209.198024 123.685714 
L 189.348221 123.685714 
z
" style="fill:#0b0000;"/>
    <path clip-path="url(#p917640cf50)" d="M 209.198024 123.685714 
L 209.198024 100.388571 
L 229.047826 100.388571 
L 229.047826 123.685714 
L 209.198024 123.685714 
z
" style="fill:#540000;"/>
    <path clip-path="url(#p917640cf50)" d="M 10.7 100.388571 
L 10.7 77.091429 
L 30.549802 77.091429 
L 30.549802 100.388571 
L 10.7 100.388571 
z
" style="fill:#ffffc8;"/>
    <path clip-path="url(#p917640cf50)" d="M 30.549802 100.388571 
L 30.549802 77.091429 
L 50.399605 77.091429 
L 50.399605 100.388571 
L 30.549802 100.388571 
z
" style="fill:#0b0000;"/>
    <path clip-path="url(#p917640cf50)" d="M 50.399605 100.388571 
L 50.399605 77.091429 
L 70.249407 77.091429 
L 70.249407 100.388571 
L 50.399605 100.388571 
z
" style="fill:#0b0000;"/>
    <path clip-path="url(#p917640cf50)" d="M 70.249407 100.388571 
L 70.249407 77.091429 
L 90.099209 77.091429 
L 90.099209 100.388571 
L 70.249407 100.388571 
z
" style="fill:#0b0000;"/>
    <path clip-path="url(#p917640cf50)" d="M 90.099209 100.388571 
L 90.099209 77.091429 
L 109.949012 77.091429 
L 109.949012 100.388571 
L 90.099209 100.388571 
z
" style="fill:#0b0000;"/>
    <path clip-path="url(#p917640cf50)" d="M 109.949012 100.388571 
L 109.949012 77.091429 
L 129.798814 77.091429 
L 129.798814 100.388571 
L 109.949012 100.388571 
z
" style="fill:#0b0000;"/>
    <path clip-path="url(#p917640cf50)" d="M 129.798814 100.388571 
L 129.798814 77.091429 
L 149.648617 77.091429 
L 149.648617 100.388571 
L 129.798814 100.388571 
z
" style="fill:#0b0000;"/>
    <path clip-path="url(#p917640cf50)" d="M 149.648617 100.388571 
L 149.648617 77.091429 
L 169.498419 77.091429 
L 169.498419 100.388571 
L 149.648617 100.388571 
z
" style="fill:#0b0000;"/>
    <path clip-path="url(#p917640cf50)" d="M 169.498419 100.388571 
L 169.498419 77.091429 
L 189.348221 77.091429 
L 189.348221 100.388571 
L 169.498419 100.388571 
z
" style="fill:#0b0000;"/>
    <path clip-path="url(#p917640cf50)" d="M 189.348221 100.388571 
L 189.348221 77.091429 
L 209.198024 77.091429 
L 209.198024 100.388571 
L 189.348221 100.388571 
z
" style="fill:#0b0000;"/>
    <path clip-path="url(#p917640cf50)" d="M 209.198024 100.388571 
L 209.198024 77.091429 
L 229.047826 77.091429 
L 229.047826 100.388571 
L 209.198024 100.388571 
z
" style="fill:#2f0000;"/>
    <path clip-path="url(#p917640cf50)" d="M 10.7 77.091429 
L 10.7 53.794286 
L 30.549802 53.794286 
L 30.549802 77.091429 
L 10.7 77.091429 
z
" style="fill:#ffffff;"/>
    <path clip-path="url(#p917640cf50)" d="M 30.549802 77.091429 
L 30.549802 53.794286 
L 50.399605 53.794286 
L 50.399605 77.091429 
L 30.549802 77.091429 
z
" style="fill:#0b0000;"/>
    <path clip-path="url(#p917640cf50)" d="M 50.399605 77.091429 
L 50.399605 53.794286 
L 70.249407 53.794286 
L 70.249407 77.091429 
L 50.399605 77.091429 
z
" style="fill:#0b0000;"/>
    <path clip-path="url(#p917640cf50)" d="M 70.249407 77.091429 
L 70.249407 53.794286 
L 90.099209 53.794286 
L 90.099209 77.091429 
L 70.249407 77.091429 
z
" style="fill:#0b0000;"/>
    <path clip-path="url(#p917640cf50)" d="M 90.099209 77.091429 
L 90.099209 53.794286 
L 109.949012 53.794286 
L 109.949012 77.091429 
L 90.099209 77.091429 
z
" style="fill:#0b0000;"/>
    <path clip-path="url(#p917640cf50)" d="M 109.949012 77.091429 
L 109.949012 53.794286 
L 129.798814 53.794286 
L 129.798814 77.091429 
L 109.949012 77.091429 
z
" style="fill:#0b0000;"/>
    <path clip-path="url(#p917640cf50)" d="M 129.798814 77.091429 
L 129.798814 53.794286 
L 149.648617 53.794286 
L 149.648617 77.091429 
L 129.798814 77.091429 
z
" style="fill:#0b0000;"/>
    <path clip-path="url(#p917640cf50)" d="M 149.648617 77.091429 
L 149.648617 53.794286 
L 169.498419 53.794286 
L 169.498419 77.091429 
L 149.648617 77.091429 
z
" style="fill:#0b0000;"/>
    <path clip-path="url(#p917640cf50)" d="M 169.498419 77.091429 
L 169.498419 53.794286 
L 189.348221 53.794286 
L 189.348221 77.091429 
L 169.498419 77.091429 
z
" style="fill:#0b0000;"/>
    <path clip-path="url(#p917640cf50)" d="M 189.348221 77.091429 
L 189.348221 53.794286 
L 209.198024 53.794286 
L 209.198024 77.091429 
L 189.348221 77.091429 
z
" style="fill:#0b0000;"/>
    <path clip-path="url(#p917640cf50)" d="M 209.198024 77.091429 
L 209.198024 53.794286 
L 229.047826 53.794286 
L 229.047826 77.091429 
L 209.198024 77.091429 
z
" style="fill:#0b0000;"/>
    <path clip-path="url(#p917640cf50)" d="M 10.7 53.794286 
L 10.7 30.497143 
L 30.549802 30.497143 
L 30.549802 53.794286 
L 10.7 53.794286 
z
" style="fill:#0b0000;"/>
    <path clip-path="url(#p917640cf50)" d="M 30.549802 53.794286 
L 30.549802 30.497143 
L 50.399605 30.497143 
L 50.399605 53.794286 
L 30.549802 53.794286 
z
" style="fill:#0b0000;"/>
    <path clip-path="url(#p917640cf50)" d="M 50.399605 53.794286 
L 50.399605 30.497143 
L 70.249407 30.497143 
L 70.249407 53.794286 
L 50.399605 53.794286 
z
" style="fill:#0b0000;"/>
    <path clip-path="url(#p917640cf50)" d="M 70.249407 53.794286 
L 70.249407 30.497143 
L 90.099209 30.497143 
L 90.099209 53.794286 
L 70.249407 53.794286 
z
" style="fill:#0b0000;"/>
    <path clip-path="url(#p917640cf50)" d="M 90.099209 53.794286 
L 90.099209 30.497143 
L 109.949012 30.497143 
L 109.949012 53.794286 
L 90.099209 53.794286 
z
" style="fill:#0b0000;"/>
    <path clip-path="url(#p917640cf50)" d="M 109.949012 53.794286 
L 109.949012 30.497143 
L 129.798814 30.497143 
L 129.798814 53.794286 
L 109.949012 53.794286 
z
" style="fill:#0b0000;"/>
    <path clip-path="url(#p917640cf50)" d="M 129.798814 53.794286 
L 129.798814 30.497143 
L 149.648617 30.497143 
L 149.648617 53.794286 
L 129.798814 53.794286 
z
" style="fill:#0b0000;"/>
    <path clip-path="url(#p917640cf50)" d="M 149.648617 53.794286 
L 149.648617 30.497143 
L 169.498419 30.497143 
L 169.498419 53.794286 
L 149.648617 53.794286 
z
" style="fill:#0b0000;"/>
    <path clip-path="url(#p917640cf50)" d="M 169.498419 53.794286 
L 169.498419 30.497143 
L 189.348221 30.497143 
L 189.348221 53.794286 
L 169.498419 53.794286 
z
" style="fill:#0b0000;"/>
    <path clip-path="url(#p917640cf50)" d="M 189.348221 53.794286 
L 189.348221 30.497143 
L 209.198024 30.497143 
L 209.198024 53.794286 
L 189.348221 53.794286 
z
" style="fill:#0b0000;"/>
    <path clip-path="url(#p917640cf50)" d="M 209.198024 53.794286 
L 209.198024 30.497143 
L 229.047826 30.497143 
L 229.047826 53.794286 
L 209.198024 53.794286 
z
" style="fill:#0b0000;"/>
    <path clip-path="url(#p917640cf50)" d="M 10.7 30.497143 
L 10.7 7.2 
L 30.549802 7.2 
L 30.549802 30.497143 
L 10.7 30.497143 
z
" style="fill:#0b0000;"/>
    <path clip-path="url(#p917640cf50)" d="M 30.549802 30.497143 
L 30.549802 7.2 
L 50.399605 7.2 
L 50.399605 30.497143 
L 30.549802 30.497143 
z
" style="fill:#0b0000;"/>
    <path clip-path="url(#p917640cf50)" d="M 50.399605 30.497143 
L 50.399605 7.2 
L 70.249407 7.2 
L 70.249407 30.497143 
L 50.399605 30.497143 
z
" style="fill:#0b0000;"/>
    <path clip-path="url(#p917640cf50)" d="M 70.249407 30.497143 
L 70.249407 7.2 
L 90.099209 7.2 
L 90.099209 30.497143 
L 70.249407 30.497143 
z
" style="fill:#0b0000;"/>
    <path clip-path="url(#p917640cf50)" d="M 90.099209 30.497143 
L 90.099209 7.2 
L 109.949012 7.2 
L 109.949012 30.497143 
L 90.099209 30.497143 
z
" style="fill:#0b0000;"/>
    <path clip-path="url(#p917640cf50)" d="M 109.949012 30.497143 
L 109.949012 7.2 
L 129.798814 7.2 
L 129.798814 30.497143 
L 109.949012 30.497143 
z
" style="fill:#0b0000;"/>
    <path clip-path="url(#p917640cf50)" d="M 129.798814 30.497143 
L 129.798814 7.2 
L 149.648617 7.2 
L 149.648617 30.497143 
L 129.798814 30.497143 
z
" style="fill:#0b0000;"/>
    <path clip-path="url(#p917640cf50)" d="M 149.648617 30.497143 
L 149.648617 7.2 
L 169.498419 7.2 
L 169.498419 30.497143 
L 149.648617 30.497143 
z
" style="fill:#0b0000;"/>
    <path clip-path="url(#p917640cf50)" d="M 169.498419 30.497143 
L 169.498419 7.2 
L 189.348221 7.2 
L 189.348221 30.497143 
L 169.498419 30.497143 
z
" style="fill:#0b0000;"/>
    <path clip-path="url(#p917640cf50)" d="M 189.348221 30.497143 
L 189.348221 7.2 
L 209.198024 7.2 
L 209.198024 30.497143 
L 189.348221 30.497143 
z
" style="fill:#0b0000;"/>
    <path clip-path="url(#p917640cf50)" d="M 209.198024 30.497143 
L 209.198024 7.2 
L 229.047826 7.2 
L 229.047826 30.497143 
L 209.198024 30.497143 
z
" style="fill:#0b0000;"/>
   </g>
   <g id="matplotlib.axis_1"/>
   <g id="matplotlib.axis_2"/>
   <g id="patch_3">
    <path d="M 10.7 170.28 
L 10.7 7.2 
" style="fill:none;stroke:#000000;stroke-linecap:square;stroke-linejoin:miter;stroke-width:0.8;"/>
   </g>
   <g id="patch_4">
    <path d="M 229.047826 170.28 
L 229.047826 7.2 
" style="fill:none;stroke:#000000;stroke-linecap:square;stroke-linejoin:miter;stroke-width:0.8;"/>
   </g>
   <g id="patch_5">
    <path d="M 10.7 170.28 
L 229.047826 170.28 
" style="fill:none;stroke:#000000;stroke-linecap:square;stroke-linejoin:miter;stroke-width:0.8;"/>
   </g>
   <g id="patch_6">
    <path d="M 10.7 7.2 
L 229.047826 7.2 
" style="fill:none;stroke:#000000;stroke-linecap:square;stroke-linejoin:miter;stroke-width:0.8;"/>
   </g>
   <g id="line2d_1">
    <path clip-path="url(#p917640cf50)" d="M 10.7 170.28 
L 229.047826 170.28 
L 229.047826 7.2 
L 10.7 7.2 
L 10.7 170.28 
" style="fill:none;stroke:#00bfbf;stroke-linecap:square;stroke-width:6;"/>
   </g>
   <g id="line2d_2">
    <path clip-path="url(#p917640cf50)" d="M 30.549802 146.982857 
L 30.549802 30.497143 
" style="fill:none;stroke:#00bfbf;stroke-linecap:square;stroke-width:3;"/>
   </g>
   <g id="line2d_3">
    <path clip-path="url(#p917640cf50)" d="M 209.198024 146.982857 
L 209.198024 30.497143 
" style="fill:none;stroke:#00bfbf;stroke-linecap:square;stroke-width:3;"/>
   </g>
   <g id="line2d_4">
    <path clip-path="url(#p917640cf50)" d="M 109.949012 146.982857 
L 109.949012 30.497143 
" style="fill:none;stroke:#00bfbf;stroke-linecap:square;stroke-width:3;"/>
   </g>
   <g id="line2d_5">
    <path clip-path="url(#p917640cf50)" d="M 129.798814 146.982857 
L 129.798814 30.497143 
" style="fill:none;stroke:#00bfbf;stroke-linecap:square;stroke-width:3;"/>
   </g>
   <g id="line2d_6">
    <path clip-path="url(#p917640cf50)" d="M 30.549802 146.982857 
L 109.949012 146.982857 
" style="fill:none;stroke:#00bfbf;stroke-linecap:square;stroke-width:3;"/>
   </g>
   <g id="line2d_7">
    <path clip-path="url(#p917640cf50)" d="M 129.798814 146.982857 
L 209.198024 146.982857 
" style="fill:none;stroke:#00bfbf;stroke-linecap:square;stroke-width:3;"/>
   </g>
   <g id="line2d_8">
    <path clip-path="url(#p917640cf50)" d="M 30.549802 30.497143 
L 109.949012 30.497143 
" style="fill:none;stroke:#00bfbf;stroke-linecap:square;stroke-width:3;"/>
   </g>
   <g id="line2d_9">
    <path clip-path="url(#p917640cf50)" d="M 129.798814 30.497143 
L 209.198024 30.497143 
" style="fill:none;stroke:#00bfbf;stroke-linecap:square;stroke-width:3;"/>
   </g>
  </g>
  <g id="axes_2">
   <g id="patch_7">
    <path d="M 272.717391 170.28 
L 491.065217 170.28 
L 491.065217 7.2 
L 272.717391 7.2 
z
" style="fill:none;"/>
   </g>
   <g id="PolyCollection_2">
    <path clip-path="url(#pddde263f21)" d="M 272.717391 170.28 
L 272.717391 146.982857 
L 292.567194 146.982857 
L 292.567194 170.28 
L 272.717391 170.28 
z
" style="fill:#9e0000;"/>
    <path clip-path="url(#pddde263f21)" d="M 292.567194 170.28 
L 292.567194 146.982857 
L 312.416996 146.982857 
L 312.416996 170.28 
L 292.567194 170.28 
z
" style="fill:#c50000;"/>
    <path clip-path="url(#pddde263f21)" d="M 312.416996 170.28 
L 312.416996 146.982857 
L 332.266798 146.982857 
L 332.266798 170.28 
L 312.416996 170.28 
z
" style="fill:#ea0000;"/>
    <path clip-path="url(#pddde263f21)" d="M 332.266798 170.28 
L 332.266798 146.982857 
L 352.116601 146.982857 
L 352.116601 170.28 
L 332.266798 170.28 
z
" style="fill:#ff1000;"/>
    <path clip-path="url(#pddde263f21)" d="M 352.116601 170.28 
L 352.116601 146.982857 
L 371.966403 146.982857 
L 371.966403 170.28 
L 352.116601 170.28 
z
" style="fill:#ff3400;"/>
    <path clip-path="url(#pddde263f21)" d="M 371.966403 170.28 
L 371.966403 146.982857 
L 391.816206 146.982857 
L 391.816206 170.28 
L 371.966403 170.28 
z
" style="fill:#ff5c00;"/>
    <path clip-path="url(#pddde263f21)" d="M 391.816206 170.28 
L 391.816206 146.982857 
L 411.666008 146.982857 
L 411.666008 170.28 
L 391.816206 170.28 
z
" style="fill:#ff8000;"/>
    <path clip-path="url(#pddde263f21)" d="M 411.666008 170.28 
L 411.666008 146.982857 
L 431.51581 146.982857 
L 431.51581 170.28 
L 411.666008 170.28 
z
" style="fill:#ffa500;"/>
    <path clip-path="url(#pddde263f21)" d="M 431.51581 170.28 
L 431.51581 146.982857 
L 451.365613 146.982857 
L 451.365613 170.28 
L 431.51581 170.28 
z
" style="fill:#ffca00;"/>
    <path clip-path="url(#pddde263f21)" d="M 451.365613 170.28 
L 451.365613 146.982857 
L 471.215415 146.982857 
L 471.215415 170.28 
L 451.365613 170.28 
z
" style="fill:#ffef00;"/>
    <path clip-path="url(#pddde263f21)" d="M 471.215415 170.28 
L 471.215415 146.982857 
L 491.065217 146.982857 
L 491.065217 170.28 
L 471.215415 170.28 
z
" style="fill:#ffff22;"/>
    <path clip-path="url(#pddde263f21)" d="M 272.717391 146.982857 
L 272.717391 123.685714 
L 292.567194 123.685714 
L 292.567194 146.982857 
L 272.717391 146.982857 
z
" style="fill:#790000;"/>
    <path clip-path="url(#pddde263f21)" d="M 292.567194 146.982857 
L 292.567194 123.685714 
L 312.416996 123.685714 
L 312.416996 146.982857 
L 292.567194 146.982857 
z
" style="fill:#0b0000;"/>
    <path clip-path="url(#pddde263f21)" d="M 312.416996 146.982857 
L 312.416996 123.685714 
L 332.266798 123.685714 
L 332.266798 146.982857 
L 312.416996 146.982857 
z
" style="fill:#0b0000;"/>
    <path clip-path="url(#pddde263f21)" d="M 332.266798 146.982857 
L 332.266798 123.685714 
L 352.116601 123.685714 
L 352.116601 146.982857 
L 332.266798 146.982857 
z
" style="fill:#0b0000;"/>
    <path clip-path="url(#pddde263f21)" d="M 352.116601 146.982857 
L 352.116601 123.685714 
L 371.966403 123.685714 
L 371.966403 146.982857 
L 352.116601 146.982857 
z
" style="fill:#0b0000;"/>
    <path clip-path="url(#pddde263f21)" d="M 371.966403 146.982857 
L 371.966403 123.685714 
L 391.816206 123.685714 
L 391.816206 146.982857 
L 371.966403 146.982857 
z
" style="fill:#0b0000;"/>
    <path clip-path="url(#pddde263f21)" d="M 391.816206 146.982857 
L 391.816206 123.685714 
L 411.666008 123.685714 
L 411.666008 146.982857 
L 391.816206 146.982857 
z
" style="fill:#0b0000;"/>
    <path clip-path="url(#pddde263f21)" d="M 411.666008 146.982857 
L 411.666008 123.685714 
L 431.51581 123.685714 
L 431.51581 146.982857 
L 411.666008 146.982857 
z
" style="fill:#0b0000;"/>
    <path clip-path="url(#pddde263f21)" d="M 431.51581 146.982857 
L 431.51581 123.685714 
L 451.365613 123.685714 
L 451.365613 146.982857 
L 431.51581 146.982857 
z
" style="fill:#0b0000;"/>
    <path clip-path="url(#pddde263f21)" d="M 451.365613 146.982857 
L 451.365613 123.685714 
L 471.215415 123.685714 
L 471.215415 146.982857 
L 451.365613 146.982857 
z
" style="fill:#0b0000;"/>
    <path clip-path="url(#pddde263f21)" d="M 471.215415 146.982857 
L 471.215415 123.685714 
L 491.065217 123.685714 
L 491.065217 146.982857 
L 471.215415 146.982857 
z
" style="fill:#ffff5a;"/>
    <path clip-path="url(#pddde263f21)" d="M 272.717391 123.685714 
L 272.717391 100.388571 
L 292.567194 100.388571 
L 292.567194 123.685714 
L 272.717391 123.685714 
z
" style="fill:#540000;"/>
    <path clip-path="url(#pddde263f21)" d="M 292.567194 123.685714 
L 292.567194 100.388571 
L 312.416996 100.388571 
L 312.416996 123.685714 
L 292.567194 123.685714 
z
" style="fill:#0b0000;"/>
    <path clip-path="url(#pddde263f21)" d="M 312.416996 123.685714 
L 312.416996 100.388571 
L 332.266798 100.388571 
L 332.266798 123.685714 
L 312.416996 123.685714 
z
" style="fill:#0b0000;"/>
    <path clip-path="url(#pddde263f21)" d="M 332.266798 123.685714 
L 332.266798 100.388571 
L 352.116601 100.388571 
L 352.116601 123.685714 
L 332.266798 123.685714 
z
" style="fill:#0b0000;"/>
    <path clip-path="url(#pddde263f21)" d="M 352.116601 123.685714 
L 352.116601 100.388571 
L 371.966403 100.388571 
L 371.966403 123.685714 
L 352.116601 123.685714 
z
" style="fill:#0b0000;"/>
    <path clip-path="url(#pddde263f21)" d="M 371.966403 123.685714 
L 371.966403 100.388571 
L 391.816206 100.388571 
L 391.816206 123.685714 
L 371.966403 123.685714 
z
" style="fill:#0b0000;"/>
    <path clip-path="url(#pddde263f21)" d="M 391.816206 123.685714 
L 391.816206 100.388571 
L 411.666008 100.388571 
L 411.666008 123.685714 
L 391.816206 123.685714 
z
" style="fill:#0b0000;"/>
    <path clip-path="url(#pddde263f21)" d="M 411.666008 123.685714 
L 411.666008 100.388571 
L 431.51581 100.388571 
L 431.51581 123.685714 
L 411.666008 123.685714 
z
" style="fill:#0b0000;"/>
    <path clip-path="url(#pddde263f21)" d="M 431.51581 123.685714 
L 431.51581 100.388571 
L 451.365613 100.388571 
L 451.365613 123.685714 
L 431.51581 123.685714 
z
" style="fill:#0b0000;"/>
    <path clip-path="url(#pddde263f21)" d="M 451.365613 123.685714 
L 451.365613 100.388571 
L 471.215415 100.388571 
L 471.215415 123.685714 
L 451.365613 123.685714 
z
" style="fill:#0b0000;"/>
    <path clip-path="url(#pddde263f21)" d="M 471.215415 123.685714 
L 471.215415 100.388571 
L 491.065217 100.388571 
L 491.065217 123.685714 
L 471.215415 123.685714 
z
" style="fill:#ffff91;"/>
    <path clip-path="url(#pddde263f21)" d="M 272.717391 100.388571 
L 272.717391 77.091429 
L 292.567194 77.091429 
L 292.567194 100.388571 
L 272.717391 100.388571 
z
" style="fill:#2f0000;"/>
    <path clip-path="url(#pddde263f21)" d="M 292.567194 100.388571 
L 292.567194 77.091429 
L 312.416996 77.091429 
L 312.416996 100.388571 
L 292.567194 100.388571 
z
" style="fill:#0b0000;"/>
    <path clip-path="url(#pddde263f21)" d="M 312.416996 100.388571 
L 312.416996 77.091429 
L 332.266798 77.091429 
L 332.266798 100.388571 
L 312.416996 100.388571 
z
" style="fill:#0b0000;"/>
    <path clip-path="url(#pddde263f21)" d="M 332.266798 100.388571 
L 332.266798 77.091429 
L 352.116601 77.091429 
L 352.116601 100.388571 
L 332.266798 100.388571 
z
" style="fill:#0b0000;"/>
    <path clip-path="url(#pddde263f21)" d="M 352.116601 100.388571 
L 352.116601 77.091429 
L 371.966403 77.091429 
L 371.966403 100.388571 
L 352.116601 100.388571 
z
" style="fill:#0b0000;"/>
    <path clip-path="url(#pddde263f21)" d="M 371.966403 100.388571 
L 371.966403 77.091429 
L 391.816206 77.091429 
L 391.816206 100.388571 
L 371.966403 100.388571 
z
" style="fill:#0b0000;"/>
    <path clip-path="url(#pddde263f21)" d="M 391.816206 100.388571 
L 391.816206 77.091429 
L 411.666008 77.091429 
L 411.666008 100.388571 
L 391.816206 100.388571 
z
" style="fill:#0b0000;"/>
    <path clip-path="url(#pddde263f21)" d="M 411.666008 100.388571 
L 411.666008 77.091429 
L 431.51581 77.091429 
L 431.51581 100.388571 
L 411.666008 100.388571 
z
" style="fill:#0b0000;"/>
    <path clip-path="url(#pddde263f21)" d="M 431.51581 100.388571 
L 431.51581 77.091429 
L 451.365613 77.091429 
L 451.365613 100.388571 
L 431.51581 100.388571 
z
" style="fill:#0b0000;"/>
    <path clip-path="url(#pddde263f21)" d="M 451.365613 100.388571 
L 451.365613 77.091429 
L 471.215415 77.091429 
L 471.215415 100.388571 
L 451.365613 100.388571 
z
" style="fill:#0b0000;"/>
    <path clip-path="url(#pddde263f21)" d="M 471.215415 100.388571 
L 471.215415 77.091429 
L 491.065217 77.091429 
L 491.065217 100.388571 
L 471.215415 100.388571 
z
" style="fill:#ffffc8;"/>
    <path clip-path="url(#pddde263f21)" d="M 272.717391 77.091429 
L 272.717391 53.794286 
L 292.567194 53.794286 
L 292.567194 77.091429 
L 272.717391 77.091429 
z
" style="fill:#0b0000;"/>
    <path clip-path="url(#pddde263f21)" d="M 292.567194 77.091429 
L 292.567194 53.794286 
L 312.416996 53.794286 
L 312.416996 77.091429 
L 292.567194 77.091429 
z
" style="fill:#0b0000;"/>
    <path clip-path="url(#pddde263f21)" d="M 312.416996 77.091429 
L 312.416996 53.794286 
L 332.266798 53.794286 
L 332.266798 77.091429 
L 312.416996 77.091429 
z
" style="fill:#0b0000;"/>
    <path clip-path="url(#pddde263f21)" d="M 332.266798 77.091429 
L 332.266798 53.794286 
L 352.116601 53.794286 
L 352.116601 77.091429 
L 332.266798 77.091429 
z
" style="fill:#0b0000;"/>
    <path clip-path="url(#pddde263f21)" d="M 352.116601 77.091429 
L 352.116601 53.794286 
L 371.966403 53.794286 
L 371.966403 77.091429 
L 352.116601 77.091429 
z
" style="fill:#0b0000;"/>
    <path clip-path="url(#pddde263f21)" d="M 371.966403 77.091429 
L 371.966403 53.794286 
L 391.816206 53.794286 
L 391.816206 77.091429 
L 371.966403 77.091429 
z
" style="fill:#0b0000;"/>
    <path clip-path="url(#pddde263f21)" d="M 391.816206 77.091429 
L 391.816206 53.794286 
L 411.666008 53.794286 
L 411.666008 77.091429 
L 391.816206 77.091429 
z
" style="fill:#0b0000;"/>
    <path clip-path="url(#pddde263f21)" d="M 411.666008 77.091429 
L 411.666008 53.794286 
L 431.51581 53.794286 
L 431.51581 77.091429 
L 411.666008 77.091429 
z
" style="fill:#0b0000;"/>
    <path clip-path="url(#pddde263f21)" d="M 431.51581 77.091429 
L 431.51581 53.794286 
L 451.365613 53.794286 
L 451.365613 77.091429 
L 431.51581 77.091429 
z
" style="fill:#0b0000;"/>
    <path clip-path="url(#pddde263f21)" d="M 451.365613 77.091429 
L 451.365613 53.794286 
L 471.215415 53.794286 
L 471.215415 77.091429 
L 451.365613 77.091429 
z
" style="fill:#0b0000;"/>
    <path clip-path="url(#pddde263f21)" d="M 471.215415 77.091429 
L 471.215415 53.794286 
L 491.065217 53.794286 
L 491.065217 77.091429 
L 471.215415 77.091429 
z
" style="fill:#ffffff;"/>
    <path clip-path="url(#pddde263f21)" d="M 272.717391 53.794286 
L 272.717391 30.497143 
L 292.567194 30.497143 
L 292.567194 53.794286 
L 272.717391 53.794286 
z
" style="fill:#0b0000;"/>
    <path clip-path="url(#pddde263f21)" d="M 292.567194 53.794286 
L 292.567194 30.497143 
L 312.416996 30.497143 
L 312.416996 53.794286 
L 292.567194 53.794286 
z
" style="fill:#0b0000;"/>
    <path clip-path="url(#pddde263f21)" d="M 312.416996 53.794286 
L 312.416996 30.497143 
L 332.266798 30.497143 
L 332.266798 53.794286 
L 312.416996 53.794286 
z
" style="fill:#0b0000;"/>
    <path clip-path="url(#pddde263f21)" d="M 332.266798 53.794286 
L 332.266798 30.497143 
L 352.116601 30.497143 
L 352.116601 53.794286 
L 332.266798 53.794286 
z
" style="fill:#0b0000;"/>
    <path clip-path="url(#pddde263f21)" d="M 352.116601 53.794286 
L 352.116601 30.497143 
L 371.966403 30.497143 
L 371.966403 53.794286 
L 352.116601 53.794286 
z
" style="fill:#0b0000;"/>
    <path clip-path="url(#pddde263f21)" d="M 371.966403 53.794286 
L 371.966403 30.497143 
L 391.816206 30.497143 
L 391.816206 53.794286 
L 371.966403 53.794286 
z
" style="fill:#0b0000;"/>
    <path clip-path="url(#pddde263f21)" d="M 391.816206 53.794286 
L 391.816206 30.497143 
L 411.666008 30.497143 
L 411.666008 53.794286 
L 391.816206 53.794286 
z
" style="fill:#0b0000;"/>
    <path clip-path="url(#pddde263f21)" d="M 411.666008 53.794286 
L 411.666008 30.497143 
L 431.51581 30.497143 
L 431.51581 53.794286 
L 411.666008 53.794286 
z
" style="fill:#0b0000;"/>
    <path clip-path="url(#pddde263f21)" d="M 431.51581 53.794286 
L 431.51581 30.497143 
L 451.365613 30.497143 
L 451.365613 53.794286 
L 431.51581 53.794286 
z
" style="fill:#0b0000;"/>
    <path clip-path="url(#pddde263f21)" d="M 451.365613 53.794286 
L 451.365613 30.497143 
L 471.215415 30.497143 
L 471.215415 53.794286 
L 451.365613 53.794286 
z
" style="fill:#0b0000;"/>
    <path clip-path="url(#pddde263f21)" d="M 471.215415 53.794286 
L 471.215415 30.497143 
L 491.065217 30.497143 
L 491.065217 53.794286 
L 471.215415 53.794286 
z
" style="fill:#0b0000;"/>
    <path clip-path="url(#pddde263f21)" d="M 272.717391 30.497143 
L 272.717391 7.2 
L 292.567194 7.2 
L 292.567194 30.497143 
L 272.717391 30.497143 
z
" style="fill:#0b0000;"/>
    <path clip-path="url(#pddde263f21)" d="M 292.567194 30.497143 
L 292.567194 7.2 
L 312.416996 7.2 
L 312.416996 30.497143 
L 292.567194 30.497143 
z
" style="fill:#0b0000;"/>
    <path clip-path="url(#pddde263f21)" d="M 312.416996 30.497143 
L 312.416996 7.2 
L 332.266798 7.2 
L 332.266798 30.497143 
L 312.416996 30.497143 
z
" style="fill:#0b0000;"/>
    <path clip-path="url(#pddde263f21)" d="M 332.266798 30.497143 
L 332.266798 7.2 
L 352.116601 7.2 
L 352.116601 30.497143 
L 332.266798 30.497143 
z
" style="fill:#0b0000;"/>
    <path clip-path="url(#pddde263f21)" d="M 352.116601 30.497143 
L 352.116601 7.2 
L 371.966403 7.2 
L 371.966403 30.497143 
L 352.116601 30.497143 
z
" style="fill:#0b0000;"/>
    <path clip-path="url(#pddde263f21)" d="M 371.966403 30.497143 
L 371.966403 7.2 
L 391.816206 7.2 
L 391.816206 30.497143 
L 371.966403 30.497143 
z
" style="fill:#0b0000;"/>
    <path clip-path="url(#pddde263f21)" d="M 391.816206 30.497143 
L 391.816206 7.2 
L 411.666008 7.2 
L 411.666008 30.497143 
L 391.816206 30.497143 
z
" style="fill:#0b0000;"/>
    <path clip-path="url(#pddde263f21)" d="M 411.666008 30.497143 
L 411.666008 7.2 
L 431.51581 7.2 
L 431.51581 30.497143 
L 411.666008 30.497143 
z
" style="fill:#0b0000;"/>
    <path clip-path="url(#pddde263f21)" d="M 431.51581 30.497143 
L 431.51581 7.2 
L 451.365613 7.2 
L 451.365613 30.497143 
L 431.51581 30.497143 
z
" style="fill:#0b0000;"/>
    <path clip-path="url(#pddde263f21)" d="M 451.365613 30.497143 
L 451.365613 7.2 
L 471.215415 7.2 
L 471.215415 30.497143 
L 451.365613 30.497143 
z
" style="fill:#0b0000;"/>
    <path clip-path="url(#pddde263f21)" d="M 471.215415 30.497143 
L 471.215415 7.2 
L 491.065217 7.2 
L 491.065217 30.497143 
L 471.215415 30.497143 
z
" style="fill:#0b0000;"/>
   </g>
   <g id="matplotlib.axis_3"/>
   <g id="matplotlib.axis_4"/>
   <g id="patch_8">
    <path d="M 272.717391 170.28 
L 272.717391 7.2 
" style="fill:none;stroke:#000000;stroke-linecap:square;stroke-linejoin:miter;stroke-width:0.8;"/>
   </g>
   <g id="patch_9">
    <path d="M 491.065217 170.28 
L 491.065217 7.2 
" style="fill:none;stroke:#000000;stroke-linecap:square;stroke-linejoin:miter;stroke-width:0.8;"/>
   </g>
   <g id="patch_10">
    <path d="M 272.717391 170.28 
L 491.065217 170.28 
" style="fill:none;stroke:#000000;stroke-linecap:square;stroke-linejoin:miter;stroke-width:0.8;"/>
   </g>
   <g id="patch_11">
    <path d="M 272.717391 7.2 
L 491.065217 7.2 
" style="fill:none;stroke:#000000;stroke-linecap:square;stroke-linejoin:miter;stroke-width:0.8;"/>
   </g>
   <g id="line2d_10">
    <path clip-path="url(#pddde263f21)" d="M 272.717391 170.28 
L 491.065217 170.28 
L 491.065217 7.2 
L 272.717391 7.2 
L 272.717391 170.28 
" style="fill:none;stroke:#00bfbf;stroke-linecap:square;stroke-width:6;"/>
   </g>
   <g id="line2d_11">
    <path clip-path="url(#pddde263f21)" d="M 292.567194 146.982857 
L 292.567194 30.497143 
" style="fill:none;stroke:#00bfbf;stroke-linecap:square;stroke-width:3;"/>
   </g>
   <g id="line2d_12">
    <path clip-path="url(#pddde263f21)" d="M 471.215415 146.982857 
L 471.215415 30.497143 
" style="fill:none;stroke:#00bfbf;stroke-linecap:square;stroke-width:3;"/>
   </g>
   <g id="line2d_13">
    <path clip-path="url(#pddde263f21)" d="M 371.966403 146.982857 
L 371.966403 30.497143 
" style="fill:none;stroke:#00bfbf;stroke-linecap:square;stroke-width:3;"/>
   </g>
   <g id="line2d_14">
    <path clip-path="url(#pddde263f21)" d="M 391.816206 146.982857 
L 391.816206 30.497143 
" style="fill:none;stroke:#00bfbf;stroke-linecap:square;stroke-width:3;"/>
   </g>
   <g id="line2d_15">
    <path clip-path="url(#pddde263f21)" d="M 292.567194 146.982857 
L 371.966403 146.982857 
" style="fill:none;stroke:#00bfbf;stroke-linecap:square;stroke-width:3;"/>
   </g>
   <g id="line2d_16">
    <path clip-path="url(#pddde263f21)" d="M 391.816206 146.982857 
L 471.215415 146.982857 
" style="fill:none;stroke:#00bfbf;stroke-linecap:square;stroke-width:3;"/>
   </g>
   <g id="line2d_17">
    <path clip-path="url(#pddde263f21)" d="M 292.567194 30.497143 
L 371.966403 30.497143 
" style="fill:none;stroke:#00bfbf;stroke-linecap:square;stroke-width:3;"/>
   </g>
   <g id="line2d_18">
    <path clip-path="url(#pddde263f21)" d="M 391.816206 30.497143 
L 471.215415 30.497143 
" style="fill:none;stroke:#00bfbf;stroke-linecap:square;stroke-width:3;"/>
   </g>
  </g>
  <g id="axes_3">
   <g id="patch_12">
    <path d="M 534.734783 170.28 
L 753.082609 170.28 
L 753.082609 7.2 
L 534.734783 7.2 
z
" style="fill:none;"/>
   </g>
   <g id="PolyCollection_3">
    <path clip-path="url(#p9777914569)" d="M 534.734783 170.28 
L 534.734783 146.982857 
L 554.584585 146.982857 
L 554.584585 170.28 
L 534.734783 170.28 
z
" style="fill:#9e0000;"/>
    <path clip-path="url(#p9777914569)" d="M 554.584585 170.28 
L 554.584585 146.982857 
L 574.434387 146.982857 
L 574.434387 170.28 
L 554.584585 170.28 
z
" style="fill:#c50000;"/>
    <path clip-path="url(#p9777914569)" d="M 574.434387 170.28 
L 574.434387 146.982857 
L 594.28419 146.982857 
L 594.28419 170.28 
L 574.434387 170.28 
z
" style="fill:#ea0000;"/>
    <path clip-path="url(#p9777914569)" d="M 594.28419 170.28 
L 594.28419 146.982857 
L 614.133992 146.982857 
L 614.133992 170.28 
L 594.28419 170.28 
z
" style="fill:#ff1000;"/>
    <path clip-path="url(#p9777914569)" d="M 614.133992 170.28 
L 614.133992 146.982857 
L 633.983794 146.982857 
L 633.983794 170.28 
L 614.133992 170.28 
z
" style="fill:#ff3400;"/>
    <path clip-path="url(#p9777914569)" d="M 633.983794 170.28 
L 633.983794 146.982857 
L 653.833597 146.982857 
L 653.833597 170.28 
L 633.983794 170.28 
z
" style="fill:#ff5c00;"/>
    <path clip-path="url(#p9777914569)" d="M 653.833597 170.28 
L 653.833597 146.982857 
L 673.683399 146.982857 
L 673.683399 170.28 
L 653.833597 170.28 
z
" style="fill:#ff8000;"/>
    <path clip-path="url(#p9777914569)" d="M 673.683399 170.28 
L 673.683399 146.982857 
L 693.533202 146.982857 
L 693.533202 170.28 
L 673.683399 170.28 
z
" style="fill:#ffa500;"/>
    <path clip-path="url(#p9777914569)" d="M 693.533202 170.28 
L 693.533202 146.982857 
L 713.383004 146.982857 
L 713.383004 170.28 
L 693.533202 170.28 
z
" style="fill:#ffca00;"/>
    <path clip-path="url(#p9777914569)" d="M 713.383004 170.28 
L 713.383004 146.982857 
L 733.232806 146.982857 
L 733.232806 170.28 
L 713.383004 170.28 
z
" style="fill:#ffef00;"/>
    <path clip-path="url(#p9777914569)" d="M 733.232806 170.28 
L 733.232806 146.982857 
L 753.082609 146.982857 
L 753.082609 170.28 
L 733.232806 170.28 
z
" style="fill:#ffff22;"/>
    <path clip-path="url(#p9777914569)" d="M 534.734783 146.982857 
L 534.734783 123.685714 
L 554.584585 123.685714 
L 554.584585 146.982857 
L 534.734783 146.982857 
z
" style="fill:#790000;"/>
    <path clip-path="url(#p9777914569)" d="M 554.584585 146.982857 
L 554.584585 123.685714 
L 574.434387 123.685714 
L 574.434387 146.982857 
L 554.584585 146.982857 
z
" style="fill:#0b0000;"/>
    <path clip-path="url(#p9777914569)" d="M 574.434387 146.982857 
L 574.434387 123.685714 
L 594.28419 123.685714 
L 594.28419 146.982857 
L 574.434387 146.982857 
z
" style="fill:#0b0000;"/>
    <path clip-path="url(#p9777914569)" d="M 594.28419 146.982857 
L 594.28419 123.685714 
L 614.133992 123.685714 
L 614.133992 146.982857 
L 594.28419 146.982857 
z
" style="fill:#0b0000;"/>
    <path clip-path="url(#p9777914569)" d="M 614.133992 146.982857 
L 614.133992 123.685714 
L 633.983794 123.685714 
L 633.983794 146.982857 
L 614.133992 146.982857 
z
" style="fill:#0b0000;"/>
    <path clip-path="url(#p9777914569)" d="M 633.983794 146.982857 
L 633.983794 123.685714 
L 653.833597 123.685714 
L 653.833597 146.982857 
L 633.983794 146.982857 
z
" style="fill:#0b0000;"/>
    <path clip-path="url(#p9777914569)" d="M 653.833597 146.982857 
L 653.833597 123.685714 
L 673.683399 123.685714 
L 673.683399 146.982857 
L 653.833597 146.982857 
z
" style="fill:#0b0000;"/>
    <path clip-path="url(#p9777914569)" d="M 673.683399 146.982857 
L 673.683399 123.685714 
L 693.533202 123.685714 
L 693.533202 146.982857 
L 673.683399 146.982857 
z
" style="fill:#0b0000;"/>
    <path clip-path="url(#p9777914569)" d="M 693.533202 146.982857 
L 693.533202 123.685714 
L 713.383004 123.685714 
L 713.383004 146.982857 
L 693.533202 146.982857 
z
" style="fill:#0b0000;"/>
    <path clip-path="url(#p9777914569)" d="M 713.383004 146.982857 
L 713.383004 123.685714 
L 733.232806 123.685714 
L 733.232806 146.982857 
L 713.383004 146.982857 
z
" style="fill:#0b0000;"/>
    <path clip-path="url(#p9777914569)" d="M 733.232806 146.982857 
L 733.232806 123.685714 
L 753.082609 123.685714 
L 753.082609 146.982857 
L 733.232806 146.982857 
z
" style="fill:#ffff5a;"/>
    <path clip-path="url(#p9777914569)" d="M 534.734783 123.685714 
L 534.734783 100.388571 
L 554.584585 100.388571 
L 554.584585 123.685714 
L 534.734783 123.685714 
z
" style="fill:#540000;"/>
    <path clip-path="url(#p9777914569)" d="M 554.584585 123.685714 
L 554.584585 100.388571 
L 574.434387 100.388571 
L 574.434387 123.685714 
L 554.584585 123.685714 
z
" style="fill:#0b0000;"/>
    <path clip-path="url(#p9777914569)" d="M 574.434387 123.685714 
L 574.434387 100.388571 
L 594.28419 100.388571 
L 594.28419 123.685714 
L 574.434387 123.685714 
z
" style="fill:#0b0000;"/>
    <path clip-path="url(#p9777914569)" d="M 594.28419 123.685714 
L 594.28419 100.388571 
L 614.133992 100.388571 
L 614.133992 123.685714 
L 594.28419 123.685714 
z
" style="fill:#0b0000;"/>
    <path clip-path="url(#p9777914569)" d="M 614.133992 123.685714 
L 614.133992 100.388571 
L 633.983794 100.388571 
L 633.983794 123.685714 
L 614.133992 123.685714 
z
" style="fill:#0b0000;"/>
    <path clip-path="url(#p9777914569)" d="M 633.983794 123.685714 
L 633.983794 100.388571 
L 653.833597 100.388571 
L 653.833597 123.685714 
L 633.983794 123.685714 
z
" style="fill:#0b0000;"/>
    <path clip-path="url(#p9777914569)" d="M 653.833597 123.685714 
L 653.833597 100.388571 
L 673.683399 100.388571 
L 673.683399 123.685714 
L 653.833597 123.685714 
z
" style="fill:#0b0000;"/>
    <path clip-path="url(#p9777914569)" d="M 673.683399 123.685714 
L 673.683399 100.388571 
L 693.533202 100.388571 
L 693.533202 123.685714 
L 673.683399 123.685714 
z
" style="fill:#0b0000;"/>
    <path clip-path="url(#p9777914569)" d="M 693.533202 123.685714 
L 693.533202 100.388571 
L 713.383004 100.388571 
L 713.383004 123.685714 
L 693.533202 123.685714 
z
" style="fill:#0b0000;"/>
    <path clip-path="url(#p9777914569)" d="M 713.383004 123.685714 
L 713.383004 100.388571 
L 733.232806 100.388571 
L 733.232806 123.685714 
L 713.383004 123.685714 
z
" style="fill:#0b0000;"/>
    <path clip-path="url(#p9777914569)" d="M 733.232806 123.685714 
L 733.232806 100.388571 
L 753.082609 100.388571 
L 753.082609 123.685714 
L 733.232806 123.685714 
z
" style="fill:#ffff91;"/>
    <path clip-path="url(#p9777914569)" d="M 534.734783 100.388571 
L 534.734783 77.091429 
L 554.584585 77.091429 
L 554.584585 100.388571 
L 534.734783 100.388571 
z
" style="fill:#2f0000;"/>
    <path clip-path="url(#p9777914569)" d="M 554.584585 100.388571 
L 554.584585 77.091429 
L 574.434387 77.091429 
L 574.434387 100.388571 
L 554.584585 100.388571 
z
" style="fill:#0b0000;"/>
    <path clip-path="url(#p9777914569)" d="M 574.434387 100.388571 
L 574.434387 77.091429 
L 594.28419 77.091429 
L 594.28419 100.388571 
L 574.434387 100.388571 
z
" style="fill:#0b0000;"/>
    <path clip-path="url(#p9777914569)" d="M 594.28419 100.388571 
L 594.28419 77.091429 
L 614.133992 77.091429 
L 614.133992 100.388571 
L 594.28419 100.388571 
z
" style="fill:#0b0000;"/>
    <path clip-path="url(#p9777914569)" d="M 614.133992 100.388571 
L 614.133992 77.091429 
L 633.983794 77.091429 
L 633.983794 100.388571 
L 614.133992 100.388571 
z
" style="fill:#0b0000;"/>
    <path clip-path="url(#p9777914569)" d="M 633.983794 100.388571 
L 633.983794 77.091429 
L 653.833597 77.091429 
L 653.833597 100.388571 
L 633.983794 100.388571 
z
" style="fill:#0b0000;"/>
    <path clip-path="url(#p9777914569)" d="M 653.833597 100.388571 
L 653.833597 77.091429 
L 673.683399 77.091429 
L 673.683399 100.388571 
L 653.833597 100.388571 
z
" style="fill:#0b0000;"/>
    <path clip-path="url(#p9777914569)" d="M 673.683399 100.388571 
L 673.683399 77.091429 
L 693.533202 77.091429 
L 693.533202 100.388571 
L 673.683399 100.388571 
z
" style="fill:#0b0000;"/>
    <path clip-path="url(#p9777914569)" d="M 693.533202 100.388571 
L 693.533202 77.091429 
L 713.383004 77.091429 
L 713.383004 100.388571 
L 693.533202 100.388571 
z
" style="fill:#0b0000;"/>
    <path clip-path="url(#p9777914569)" d="M 713.383004 100.388571 
L 713.383004 77.091429 
L 733.232806 77.091429 
L 733.232806 100.388571 
L 713.383004 100.388571 
z
" style="fill:#0b0000;"/>
    <path clip-path="url(#p9777914569)" d="M 733.232806 100.388571 
L 733.232806 77.091429 
L 753.082609 77.091429 
L 753.082609 100.388571 
L 733.232806 100.388571 
z
" style="fill:#ffffc8;"/>
    <path clip-path="url(#p9777914569)" d="M 534.734783 77.091429 
L 534.734783 53.794286 
L 554.584585 53.794286 
L 554.584585 77.091429 
L 534.734783 77.091429 
z
" style="fill:#0b0000;"/>
    <path clip-path="url(#p9777914569)" d="M 554.584585 77.091429 
L 554.584585 53.794286 
L 574.434387 53.794286 
L 574.434387 77.091429 
L 554.584585 77.091429 
z
" style="fill:#0b0000;"/>
    <path clip-path="url(#p9777914569)" d="M 574.434387 77.091429 
L 574.434387 53.794286 
L 594.28419 53.794286 
L 594.28419 77.091429 
L 574.434387 77.091429 
z
" style="fill:#0b0000;"/>
    <path clip-path="url(#p9777914569)" d="M 594.28419 77.091429 
L 594.28419 53.794286 
L 614.133992 53.794286 
L 614.133992 77.091429 
L 594.28419 77.091429 
z
" style="fill:#0b0000;"/>
    <path clip-path="url(#p9777914569)" d="M 614.133992 77.091429 
L 614.133992 53.794286 
L 633.983794 53.794286 
L 633.983794 77.091429 
L 614.133992 77.091429 
z
" style="fill:#0b0000;"/>
    <path clip-path="url(#p9777914569)" d="M 633.983794 77.091429 
L 633.983794 53.794286 
L 653.833597 53.794286 
L 653.833597 77.091429 
L 633.983794 77.091429 
z
" style="fill:#0b0000;"/>
    <path clip-path="url(#p9777914569)" d="M 653.833597 77.091429 
L 653.833597 53.794286 
L 673.683399 53.794286 
L 673.683399 77.091429 
L 653.833597 77.091429 
z
" style="fill:#0b0000;"/>
    <path clip-path="url(#p9777914569)" d="M 673.683399 77.091429 
L 673.683399 53.794286 
L 693.533202 53.794286 
L 693.533202 77.091429 
L 673.683399 77.091429 
z
" style="fill:#0b0000;"/>
    <path clip-path="url(#p9777914569)" d="M 693.533202 77.091429 
L 693.533202 53.794286 
L 713.383004 53.794286 
L 713.383004 77.091429 
L 693.533202 77.091429 
z
" style="fill:#0b0000;"/>
    <path clip-path="url(#p9777914569)" d="M 713.383004 77.091429 
L 713.383004 53.794286 
L 733.232806 53.794286 
L 733.232806 77.091429 
L 713.383004 77.091429 
z
" style="fill:#0b0000;"/>
    <path clip-path="url(#p9777914569)" d="M 733.232806 77.091429 
L 733.232806 53.794286 
L 753.082609 53.794286 
L 753.082609 77.091429 
L 733.232806 77.091429 
z
" style="fill:#ffffff;"/>
    <path clip-path="url(#p9777914569)" d="M 534.734783 53.794286 
L 534.734783 30.497143 
L 554.584585 30.497143 
L 554.584585 53.794286 
L 534.734783 53.794286 
z
" style="fill:#0b0000;"/>
    <path clip-path="url(#p9777914569)" d="M 554.584585 53.794286 
L 554.584585 30.497143 
L 574.434387 30.497143 
L 574.434387 53.794286 
L 554.584585 53.794286 
z
" style="fill:#0b0000;"/>
    <path clip-path="url(#p9777914569)" d="M 574.434387 53.794286 
L 574.434387 30.497143 
L 594.28419 30.497143 
L 594.28419 53.794286 
L 574.434387 53.794286 
z
" style="fill:#0b0000;"/>
    <path clip-path="url(#p9777914569)" d="M 594.28419 53.794286 
L 594.28419 30.497143 
L 614.133992 30.497143 
L 614.133992 53.794286 
L 594.28419 53.794286 
z
" style="fill:#0b0000;"/>
    <path clip-path="url(#p9777914569)" d="M 614.133992 53.794286 
L 614.133992 30.497143 
L 633.983794 30.497143 
L 633.983794 53.794286 
L 614.133992 53.794286 
z
" style="fill:#0b0000;"/>
    <path clip-path="url(#p9777914569)" d="M 633.983794 53.794286 
L 633.983794 30.497143 
L 653.833597 30.497143 
L 653.833597 53.794286 
L 633.983794 53.794286 
z
" style="fill:#0b0000;"/>
    <path clip-path="url(#p9777914569)" d="M 653.833597 53.794286 
L 653.833597 30.497143 
L 673.683399 30.497143 
L 673.683399 53.794286 
L 653.833597 53.794286 
z
" style="fill:#0b0000;"/>
    <path clip-path="url(#p9777914569)" d="M 673.683399 53.794286 
L 673.683399 30.497143 
L 693.533202 30.497143 
L 693.533202 53.794286 
L 673.683399 53.794286 
z
" style="fill:#0b0000;"/>
    <path clip-path="url(#p9777914569)" d="M 693.533202 53.794286 
L 693.533202 30.497143 
L 713.383004 30.497143 
L 713.383004 53.794286 
L 693.533202 53.794286 
z
" style="fill:#0b0000;"/>
    <path clip-path="url(#p9777914569)" d="M 713.383004 53.794286 
L 713.383004 30.497143 
L 733.232806 30.497143 
L 733.232806 53.794286 
L 713.383004 53.794286 
z
" style="fill:#0b0000;"/>
    <path clip-path="url(#p9777914569)" d="M 733.232806 53.794286 
L 733.232806 30.497143 
L 753.082609 30.497143 
L 753.082609 53.794286 
L 733.232806 53.794286 
z
" style="fill:#0b0000;"/>
    <path clip-path="url(#p9777914569)" d="M 534.734783 30.497143 
L 534.734783 7.2 
L 554.584585 7.2 
L 554.584585 30.497143 
L 534.734783 30.497143 
z
" style="fill:#0b0000;"/>
    <path clip-path="url(#p9777914569)" d="M 554.584585 30.497143 
L 554.584585 7.2 
L 574.434387 7.2 
L 574.434387 30.497143 
L 554.584585 30.497143 
z
" style="fill:#0b0000;"/>
    <path clip-path="url(#p9777914569)" d="M 574.434387 30.497143 
L 574.434387 7.2 
L 594.28419 7.2 
L 594.28419 30.497143 
L 574.434387 30.497143 
z
" style="fill:#0b0000;"/>
    <path clip-path="url(#p9777914569)" d="M 594.28419 30.497143 
L 594.28419 7.2 
L 614.133992 7.2 
L 614.133992 30.497143 
L 594.28419 30.497143 
z
" style="fill:#0b0000;"/>
    <path clip-path="url(#p9777914569)" d="M 614.133992 30.497143 
L 614.133992 7.2 
L 633.983794 7.2 
L 633.983794 30.497143 
L 614.133992 30.497143 
z
" style="fill:#0b0000;"/>
    <path clip-path="url(#p9777914569)" d="M 633.983794 30.497143 
L 633.983794 7.2 
L 653.833597 7.2 
L 653.833597 30.497143 
L 633.983794 30.497143 
z
" style="fill:#0b0000;"/>
    <path clip-path="url(#p9777914569)" d="M 653.833597 30.497143 
L 653.833597 7.2 
L 673.683399 7.2 
L 673.683399 30.497143 
L 653.833597 30.497143 
z
" style="fill:#0b0000;"/>
    <path clip-path="url(#p9777914569)" d="M 673.683399 30.497143 
L 673.683399 7.2 
L 693.533202 7.2 
L 693.533202 30.497143 
L 673.683399 30.497143 
z
" style="fill:#0b0000;"/>
    <path clip-path="url(#p9777914569)" d="M 693.533202 30.497143 
L 693.533202 7.2 
L 713.383004 7.2 
L 713.383004 30.497143 
L 693.533202 30.497143 
z
" style="fill:#0b0000;"/>
    <path clip-path="url(#p9777914569)" d="M 713.383004 30.497143 
L 713.383004 7.2 
L 733.232806 7.2 
L 733.232806 30.497143 
L 713.383004 30.497143 
z
" style="fill:#0b0000;"/>
    <path clip-path="url(#p9777914569)" d="M 733.232806 30.497143 
L 733.232806 7.2 
L 753.082609 7.2 
L 753.082609 30.497143 
L 733.232806 30.497143 
z
" style="fill:#0b0000;"/>
   </g>
   <g id="matplotlib.axis_5"/>
   <g id="matplotlib.axis_6"/>
   <g id="patch_13">
    <path d="M 534.734783 170.28 
L 534.734783 7.2 
" style="fill:none;stroke:#000000;stroke-linecap:square;stroke-linejoin:miter;stroke-width:0.8;"/>
   </g>
   <g id="patch_14">
    <path d="M 753.082609 170.28 
L 753.082609 7.2 
" style="fill:none;stroke:#000000;stroke-linecap:square;stroke-linejoin:miter;stroke-width:0.8;"/>
   </g>
   <g id="patch_15">
    <path d="M 534.734783 170.28 
L 753.082609 170.28 
" style="fill:none;stroke:#000000;stroke-linecap:square;stroke-linejoin:miter;stroke-width:0.8;"/>
   </g>
   <g id="patch_16">
    <path d="M 534.734783 7.2 
L 753.082609 7.2 
" style="fill:none;stroke:#000000;stroke-linecap:square;stroke-linejoin:miter;stroke-width:0.8;"/>
   </g>
   <g id="line2d_19">
    <path clip-path="url(#p9777914569)" d="M 534.734783 170.28 
L 753.082609 170.28 
L 753.082609 7.2 
L 534.734783 7.2 
L 534.734783 170.28 
" style="fill:none;stroke:#00bfbf;stroke-linecap:square;stroke-width:6;"/>
   </g>
   <g id="line2d_20">
    <path clip-path="url(#p9777914569)" d="M 554.584585 146.982857 
L 554.584585 30.497143 
" style="fill:none;stroke:#00bfbf;stroke-linecap:square;stroke-width:3;"/>
   </g>
   <g id="line2d_21">
    <path clip-path="url(#p9777914569)" d="M 733.232806 146.982857 
L 733.232806 30.497143 
" style="fill:none;stroke:#00bfbf;stroke-linecap:square;stroke-width:3;"/>
   </g>
   <g id="line2d_22">
    <path clip-path="url(#p9777914569)" d="M 633.983794 146.982857 
L 633.983794 30.497143 
" style="fill:none;stroke:#00bfbf;stroke-linecap:square;stroke-width:3;"/>
   </g>
   <g id="line2d_23">
    <path clip-path="url(#p9777914569)" d="M 653.833597 146.982857 
L 653.833597 30.497143 
" style="fill:none;stroke:#00bfbf;stroke-linecap:square;stroke-width:3;"/>
   </g>
   <g id="line2d_24">
    <path clip-path="url(#p9777914569)" d="M 554.584585 146.982857 
L 633.983794 146.982857 
" style="fill:none;stroke:#00bfbf;stroke-linecap:square;stroke-width:3;"/>
   </g>
   <g id="line2d_25">
    <path clip-path="url(#p9777914569)" d="M 653.833597 146.982857 
L 733.232806 146.982857 
" style="fill:none;stroke:#00bfbf;stroke-linecap:square;stroke-width:3;"/>
   </g>
   <g id="line2d_26">
    <path clip-path="url(#p9777914569)" d="M 554.584585 30.497143 
L 633.983794 30.497143 
" style="fill:none;stroke:#00bfbf;stroke-linecap:square;stroke-width:3;"/>
   </g>
   <g id="line2d_27">
    <path clip-path="url(#p9777914569)" d="M 653.833597 30.497143 
L 733.232806 30.497143 
" style="fill:none;stroke:#00bfbf;stroke-linecap:square;stroke-width:3;"/>
   </g>
  </g>
  <g id="axes_4">
   <g id="patch_17">
    <path d="M 796.752174 170.28 
L 1015.1 170.28 
L 1015.1 7.2 
L 796.752174 7.2 
z
" style="fill:none;"/>
   </g>
   <g id="PolyCollection_4">
    <path clip-path="url(#pede5befbaf)" d="M 796.752174 170.28 
L 796.752174 146.982857 
L 816.601976 146.982857 
L 816.601976 170.28 
L 796.752174 170.28 
z
" style="fill:#9e0000;"/>
    <path clip-path="url(#pede5befbaf)" d="M 816.601976 170.28 
L 816.601976 146.982857 
L 836.451779 146.982857 
L 836.451779 170.28 
L 816.601976 170.28 
z
" style="fill:#c50000;"/>
    <path clip-path="url(#pede5befbaf)" d="M 836.451779 170.28 
L 836.451779 146.982857 
L 856.301581 146.982857 
L 856.301581 170.28 
L 836.451779 170.28 
z
" style="fill:#ea0000;"/>
    <path clip-path="url(#pede5befbaf)" d="M 856.301581 170.28 
L 856.301581 146.982857 
L 876.151383 146.982857 
L 876.151383 170.28 
L 856.301581 170.28 
z
" style="fill:#ff1000;"/>
    <path clip-path="url(#pede5befbaf)" d="M 876.151383 170.28 
L 876.151383 146.982857 
L 896.001186 146.982857 
L 896.001186 170.28 
L 876.151383 170.28 
z
" style="fill:#ff3400;"/>
    <path clip-path="url(#pede5befbaf)" d="M 896.001186 170.28 
L 896.001186 146.982857 
L 915.850988 146.982857 
L 915.850988 170.28 
L 896.001186 170.28 
z
" style="fill:#ff5c00;"/>
    <path clip-path="url(#pede5befbaf)" d="M 915.850988 170.28 
L 915.850988 146.982857 
L 935.700791 146.982857 
L 935.700791 170.28 
L 915.850988 170.28 
z
" style="fill:#ff8000;"/>
    <path clip-path="url(#pede5befbaf)" d="M 935.700791 170.28 
L 935.700791 146.982857 
L 955.550593 146.982857 
L 955.550593 170.28 
L 935.700791 170.28 
z
" style="fill:#ffa500;"/>
    <path clip-path="url(#pede5befbaf)" d="M 955.550593 170.28 
L 955.550593 146.982857 
L 975.400395 146.982857 
L 975.400395 170.28 
L 955.550593 170.28 
z
" style="fill:#ffca00;"/>
    <path clip-path="url(#pede5befbaf)" d="M 975.400395 170.28 
L 975.400395 146.982857 
L 995.250198 146.982857 
L 995.250198 170.28 
L 975.400395 170.28 
z
" style="fill:#ffef00;"/>
    <path clip-path="url(#pede5befbaf)" d="M 995.250198 170.28 
L 995.250198 146.982857 
L 1015.1 146.982857 
L 1015.1 170.28 
L 995.250198 170.28 
z
" style="fill:#ffff22;"/>
    <path clip-path="url(#pede5befbaf)" d="M 796.752174 146.982857 
L 796.752174 123.685714 
L 816.601976 123.685714 
L 816.601976 146.982857 
L 796.752174 146.982857 
z
" style="fill:#790000;"/>
    <path clip-path="url(#pede5befbaf)" d="M 816.601976 146.982857 
L 816.601976 123.685714 
L 836.451779 123.685714 
L 836.451779 146.982857 
L 816.601976 146.982857 
z
" style="fill:#0b0000;"/>
    <path clip-path="url(#pede5befbaf)" d="M 836.451779 146.982857 
L 836.451779 123.685714 
L 856.301581 123.685714 
L 856.301581 146.982857 
L 836.451779 146.982857 
z
" style="fill:#0b0000;"/>
    <path clip-path="url(#pede5befbaf)" d="M 856.301581 146.982857 
L 856.301581 123.685714 
L 876.151383 123.685714 
L 876.151383 146.982857 
L 856.301581 146.982857 
z
" style="fill:#0b0000;"/>
    <path clip-path="url(#pede5befbaf)" d="M 876.151383 146.982857 
L 876.151383 123.685714 
L 896.001186 123.685714 
L 896.001186 146.982857 
L 876.151383 146.982857 
z
" style="fill:#0b0000;"/>
    <path clip-path="url(#pede5befbaf)" d="M 896.001186 146.982857 
L 896.001186 123.685714 
L 915.850988 123.685714 
L 915.850988 146.982857 
L 896.001186 146.982857 
z
" style="fill:#0b0000;"/>
    <path clip-path="url(#pede5befbaf)" d="M 915.850988 146.982857 
L 915.850988 123.685714 
L 935.700791 123.685714 
L 935.700791 146.982857 
L 915.850988 146.982857 
z
" style="fill:#0b0000;"/>
    <path clip-path="url(#pede5befbaf)" d="M 935.700791 146.982857 
L 935.700791 123.685714 
L 955.550593 123.685714 
L 955.550593 146.982857 
L 935.700791 146.982857 
z
" style="fill:#0b0000;"/>
    <path clip-path="url(#pede5befbaf)" d="M 955.550593 146.982857 
L 955.550593 123.685714 
L 975.400395 123.685714 
L 975.400395 146.982857 
L 955.550593 146.982857 
z
" style="fill:#0b0000;"/>
    <path clip-path="url(#pede5befbaf)" d="M 975.400395 146.982857 
L 975.400395 123.685714 
L 995.250198 123.685714 
L 995.250198 146.982857 
L 975.400395 146.982857 
z
" style="fill:#0b0000;"/>
    <path clip-path="url(#pede5befbaf)" d="M 995.250198 146.982857 
L 995.250198 123.685714 
L 1015.1 123.685714 
L 1015.1 146.982857 
L 995.250198 146.982857 
z
" style="fill:#ffff5a;"/>
    <path clip-path="url(#pede5befbaf)" d="M 796.752174 123.685714 
L 796.752174 100.388571 
L 816.601976 100.388571 
L 816.601976 123.685714 
L 796.752174 123.685714 
z
" style="fill:#540000;"/>
    <path clip-path="url(#pede5befbaf)" d="M 816.601976 123.685714 
L 816.601976 100.388571 
L 836.451779 100.388571 
L 836.451779 123.685714 
L 816.601976 123.685714 
z
" style="fill:#0b0000;"/>
    <path clip-path="url(#pede5befbaf)" d="M 836.451779 123.685714 
L 836.451779 100.388571 
L 856.301581 100.388571 
L 856.301581 123.685714 
L 836.451779 123.685714 
z
" style="fill:#0b0000;"/>
    <path clip-path="url(#pede5befbaf)" d="M 856.301581 123.685714 
L 856.301581 100.388571 
L 876.151383 100.388571 
L 876.151383 123.685714 
L 856.301581 123.685714 
z
" style="fill:#0b0000;"/>
    <path clip-path="url(#pede5befbaf)" d="M 876.151383 123.685714 
L 876.151383 100.388571 
L 896.001186 100.388571 
L 896.001186 123.685714 
L 876.151383 123.685714 
z
" style="fill:#0b0000;"/>
    <path clip-path="url(#pede5befbaf)" d="M 896.001186 123.685714 
L 896.001186 100.388571 
L 915.850988 100.388571 
L 915.850988 123.685714 
L 896.001186 123.685714 
z
" style="fill:#0b0000;"/>
    <path clip-path="url(#pede5befbaf)" d="M 915.850988 123.685714 
L 915.850988 100.388571 
L 935.700791 100.388571 
L 935.700791 123.685714 
L 915.850988 123.685714 
z
" style="fill:#0b0000;"/>
    <path clip-path="url(#pede5befbaf)" d="M 935.700791 123.685714 
L 935.700791 100.388571 
L 955.550593 100.388571 
L 955.550593 123.685714 
L 935.700791 123.685714 
z
" style="fill:#0b0000;"/>
    <path clip-path="url(#pede5befbaf)" d="M 955.550593 123.685714 
L 955.550593 100.388571 
L 975.400395 100.388571 
L 975.400395 123.685714 
L 955.550593 123.685714 
z
" style="fill:#0b0000;"/>
    <path clip-path="url(#pede5befbaf)" d="M 975.400395 123.685714 
L 975.400395 100.388571 
L 995.250198 100.388571 
L 995.250198 123.685714 
L 975.400395 123.685714 
z
" style="fill:#0b0000;"/>
    <path clip-path="url(#pede5befbaf)" d="M 995.250198 123.685714 
L 995.250198 100.388571 
L 1015.1 100.388571 
L 1015.1 123.685714 
L 995.250198 123.685714 
z
" style="fill:#ffff91;"/>
    <path clip-path="url(#pede5befbaf)" d="M 796.752174 100.388571 
L 796.752174 77.091429 
L 816.601976 77.091429 
L 816.601976 100.388571 
L 796.752174 100.388571 
z
" style="fill:#2f0000;"/>
    <path clip-path="url(#pede5befbaf)" d="M 816.601976 100.388571 
L 816.601976 77.091429 
L 836.451779 77.091429 
L 836.451779 100.388571 
L 816.601976 100.388571 
z
" style="fill:#0b0000;"/>
    <path clip-path="url(#pede5befbaf)" d="M 836.451779 100.388571 
L 836.451779 77.091429 
L 856.301581 77.091429 
L 856.301581 100.388571 
L 836.451779 100.388571 
z
" style="fill:#0b0000;"/>
    <path clip-path="url(#pede5befbaf)" d="M 856.301581 100.388571 
L 856.301581 77.091429 
L 876.151383 77.091429 
L 876.151383 100.388571 
L 856.301581 100.388571 
z
" style="fill:#0b0000;"/>
    <path clip-path="url(#pede5befbaf)" d="M 876.151383 100.388571 
L 876.151383 77.091429 
L 896.001186 77.091429 
L 896.001186 100.388571 
L 876.151383 100.388571 
z
" style="fill:#0b0000;"/>
    <path clip-path="url(#pede5befbaf)" d="M 896.001186 100.388571 
L 896.001186 77.091429 
L 915.850988 77.091429 
L 915.850988 100.388571 
L 896.001186 100.388571 
z
" style="fill:#0b0000;"/>
    <path clip-path="url(#pede5befbaf)" d="M 915.850988 100.388571 
L 915.850988 77.091429 
L 935.700791 77.091429 
L 935.700791 100.388571 
L 915.850988 100.388571 
z
" style="fill:#0b0000;"/>
    <path clip-path="url(#pede5befbaf)" d="M 935.700791 100.388571 
L 935.700791 77.091429 
L 955.550593 77.091429 
L 955.550593 100.388571 
L 935.700791 100.388571 
z
" style="fill:#0b0000;"/>
    <path clip-path="url(#pede5befbaf)" d="M 955.550593 100.388571 
L 955.550593 77.091429 
L 975.400395 77.091429 
L 975.400395 100.388571 
L 955.550593 100.388571 
z
" style="fill:#0b0000;"/>
    <path clip-path="url(#pede5befbaf)" d="M 975.400395 100.388571 
L 975.400395 77.091429 
L 995.250198 77.091429 
L 995.250198 100.388571 
L 975.400395 100.388571 
z
" style="fill:#0b0000;"/>
    <path clip-path="url(#pede5befbaf)" d="M 995.250198 100.388571 
L 995.250198 77.091429 
L 1015.1 77.091429 
L 1015.1 100.388571 
L 995.250198 100.388571 
z
" style="fill:#ffffc8;"/>
    <path clip-path="url(#pede5befbaf)" d="M 796.752174 77.091429 
L 796.752174 53.794286 
L 816.601976 53.794286 
L 816.601976 77.091429 
L 796.752174 77.091429 
z
" style="fill:#0b0000;"/>
    <path clip-path="url(#pede5befbaf)" d="M 816.601976 77.091429 
L 816.601976 53.794286 
L 836.451779 53.794286 
L 836.451779 77.091429 
L 816.601976 77.091429 
z
" style="fill:#0b0000;"/>
    <path clip-path="url(#pede5befbaf)" d="M 836.451779 77.091429 
L 836.451779 53.794286 
L 856.301581 53.794286 
L 856.301581 77.091429 
L 836.451779 77.091429 
z
" style="fill:#0b0000;"/>
    <path clip-path="url(#pede5befbaf)" d="M 856.301581 77.091429 
L 856.301581 53.794286 
L 876.151383 53.794286 
L 876.151383 77.091429 
L 856.301581 77.091429 
z
" style="fill:#0b0000;"/>
    <path clip-path="url(#pede5befbaf)" d="M 876.151383 77.091429 
L 876.151383 53.794286 
L 896.001186 53.794286 
L 896.001186 77.091429 
L 876.151383 77.091429 
z
" style="fill:#0b0000;"/>
    <path clip-path="url(#pede5befbaf)" d="M 896.001186 77.091429 
L 896.001186 53.794286 
L 915.850988 53.794286 
L 915.850988 77.091429 
L 896.001186 77.091429 
z
" style="fill:#0b0000;"/>
    <path clip-path="url(#pede5befbaf)" d="M 915.850988 77.091429 
L 915.850988 53.794286 
L 935.700791 53.794286 
L 935.700791 77.091429 
L 915.850988 77.091429 
z
" style="fill:#0b0000;"/>
    <path clip-path="url(#pede5befbaf)" d="M 935.700791 77.091429 
L 935.700791 53.794286 
L 955.550593 53.794286 
L 955.550593 77.091429 
L 935.700791 77.091429 
z
" style="fill:#0b0000;"/>
    <path clip-path="url(#pede5befbaf)" d="M 955.550593 77.091429 
L 955.550593 53.794286 
L 975.400395 53.794286 
L 975.400395 77.091429 
L 955.550593 77.091429 
z
" style="fill:#0b0000;"/>
    <path clip-path="url(#pede5befbaf)" d="M 975.400395 77.091429 
L 975.400395 53.794286 
L 995.250198 53.794286 
L 995.250198 77.091429 
L 975.400395 77.091429 
z
" style="fill:#0b0000;"/>
    <path clip-path="url(#pede5befbaf)" d="M 995.250198 77.091429 
L 995.250198 53.794286 
L 1015.1 53.794286 
L 1015.1 77.091429 
L 995.250198 77.091429 
z
" style="fill:#ffffff;"/>
    <path clip-path="url(#pede5befbaf)" d="M 796.752174 53.794286 
L 796.752174 30.497143 
L 816.601976 30.497143 
L 816.601976 53.794286 
L 796.752174 53.794286 
z
" style="fill:#0b0000;"/>
    <path clip-path="url(#pede5befbaf)" d="M 816.601976 53.794286 
L 816.601976 30.497143 
L 836.451779 30.497143 
L 836.451779 53.794286 
L 816.601976 53.794286 
z
" style="fill:#0b0000;"/>
    <path clip-path="url(#pede5befbaf)" d="M 836.451779 53.794286 
L 836.451779 30.497143 
L 856.301581 30.497143 
L 856.301581 53.794286 
L 836.451779 53.794286 
z
" style="fill:#0b0000;"/>
    <path clip-path="url(#pede5befbaf)" d="M 856.301581 53.794286 
L 856.301581 30.497143 
L 876.151383 30.497143 
L 876.151383 53.794286 
L 856.301581 53.794286 
z
" style="fill:#0b0000;"/>
    <path clip-path="url(#pede5befbaf)" d="M 876.151383 53.794286 
L 876.151383 30.497143 
L 896.001186 30.497143 
L 896.001186 53.794286 
L 876.151383 53.794286 
z
" style="fill:#0b0000;"/>
    <path clip-path="url(#pede5befbaf)" d="M 896.001186 53.794286 
L 896.001186 30.497143 
L 915.850988 30.497143 
L 915.850988 53.794286 
L 896.001186 53.794286 
z
" style="fill:#0b0000;"/>
    <path clip-path="url(#pede5befbaf)" d="M 915.850988 53.794286 
L 915.850988 30.497143 
L 935.700791 30.497143 
L 935.700791 53.794286 
L 915.850988 53.794286 
z
" style="fill:#0b0000;"/>
    <path clip-path="url(#pede5befbaf)" d="M 935.700791 53.794286 
L 935.700791 30.497143 
L 955.550593 30.497143 
L 955.550593 53.794286 
L 935.700791 53.794286 
z
" style="fill:#0b0000;"/>
    <path clip-path="url(#pede5befbaf)" d="M 955.550593 53.794286 
L 955.550593 30.497143 
L 975.400395 30.497143 
L 975.400395 53.794286 
L 955.550593 53.794286 
z
" style="fill:#0b0000;"/>
    <path clip-path="url(#pede5befbaf)" d="M 975.400395 53.794286 
L 975.400395 30.497143 
L 995.250198 30.497143 
L 995.250198 53.794286 
L 975.400395 53.794286 
z
" style="fill:#0b0000;"/>
    <path clip-path="url(#pede5befbaf)" d="M 995.250198 53.794286 
L 995.250198 30.497143 
L 1015.1 30.497143 
L 1015.1 53.794286 
L 995.250198 53.794286 
z
" style="fill:#0b0000;"/>
    <path clip-path="url(#pede5befbaf)" d="M 796.752174 30.497143 
L 796.752174 7.2 
L 816.601976 7.2 
L 816.601976 30.497143 
L 796.752174 30.497143 
z
" style="fill:#0b0000;"/>
    <path clip-path="url(#pede5befbaf)" d="M 816.601976 30.497143 
L 816.601976 7.2 
L 836.451779 7.2 
L 836.451779 30.497143 
L 816.601976 30.497143 
z
" style="fill:#0b0000;"/>
    <path clip-path="url(#pede5befbaf)" d="M 836.451779 30.497143 
L 836.451779 7.2 
L 856.301581 7.2 
L 856.301581 30.497143 
L 836.451779 30.497143 
z
" style="fill:#0b0000;"/>
    <path clip-path="url(#pede5befbaf)" d="M 856.301581 30.497143 
L 856.301581 7.2 
L 876.151383 7.2 
L 876.151383 30.497143 
L 856.301581 30.497143 
z
" style="fill:#0b0000;"/>
    <path clip-path="url(#pede5befbaf)" d="M 876.151383 30.497143 
L 876.151383 7.2 
L 896.001186 7.2 
L 896.001186 30.497143 
L 876.151383 30.497143 
z
" style="fill:#0b0000;"/>
    <path clip-path="url(#pede5befbaf)" d="M 896.001186 30.497143 
L 896.001186 7.2 
L 915.850988 7.2 
L 915.850988 30.497143 
L 896.001186 30.497143 
z
" style="fill:#0b0000;"/>
    <path clip-path="url(#pede5befbaf)" d="M 915.850988 30.497143 
L 915.850988 7.2 
L 935.700791 7.2 
L 935.700791 30.497143 
L 915.850988 30.497143 
z
" style="fill:#0b0000;"/>
    <path clip-path="url(#pede5befbaf)" d="M 935.700791 30.497143 
L 935.700791 7.2 
L 955.550593 7.2 
L 955.550593 30.497143 
L 935.700791 30.497143 
z
" style="fill:#0b0000;"/>
    <path clip-path="url(#pede5befbaf)" d="M 955.550593 30.497143 
L 955.550593 7.2 
L 975.400395 7.2 
L 975.400395 30.497143 
L 955.550593 30.497143 
z
" style="fill:#0b0000;"/>
    <path clip-path="url(#pede5befbaf)" d="M 975.400395 30.497143 
L 975.400395 7.2 
L 995.250198 7.2 
L 995.250198 30.497143 
L 975.400395 30.497143 
z
" style="fill:#0b0000;"/>
    <path clip-path="url(#pede5befbaf)" d="M 995.250198 30.497143 
L 995.250198 7.2 
L 1015.1 7.2 
L 1015.1 30.497143 
L 995.250198 30.497143 
z
" style="fill:#0b0000;"/>
   </g>
   <g id="matplotlib.axis_7"/>
   <g id="matplotlib.axis_8"/>
   <g id="patch_18">
    <path d="M 796.752174 170.28 
L 796.752174 7.2 
" style="fill:none;stroke:#000000;stroke-linecap:square;stroke-linejoin:miter;stroke-width:0.8;"/>
   </g>
   <g id="patch_19">
    <path d="M 1015.1 170.28 
L 1015.1 7.2 
" style="fill:none;stroke:#000000;stroke-linecap:square;stroke-linejoin:miter;stroke-width:0.8;"/>
   </g>
   <g id="patch_20">
    <path d="M 796.752174 170.28 
L 1015.1 170.28 
" style="fill:none;stroke:#000000;stroke-linecap:square;stroke-linejoin:miter;stroke-width:0.8;"/>
   </g>
   <g id="patch_21">
    <path d="M 796.752174 7.2 
L 1015.1 7.2 
" style="fill:none;stroke:#000000;stroke-linecap:square;stroke-linejoin:miter;stroke-width:0.8;"/>
   </g>
   <g id="line2d_28">
    <path clip-path="url(#pede5befbaf)" d="M 796.752174 170.28 
L 1015.1 170.28 
L 1015.1 7.2 
L 796.752174 7.2 
L 796.752174 170.28 
" style="fill:none;stroke:#00bfbf;stroke-linecap:square;stroke-width:6;"/>
   </g>
   <g id="line2d_29">
    <path clip-path="url(#pede5befbaf)" d="M 816.601976 146.982857 
L 816.601976 30.497143 
" style="fill:none;stroke:#00bfbf;stroke-linecap:square;stroke-width:3;"/>
   </g>
   <g id="line2d_30">
    <path clip-path="url(#pede5befbaf)" d="M 995.250198 146.982857 
L 995.250198 30.497143 
" style="fill:none;stroke:#00bfbf;stroke-linecap:square;stroke-width:3;"/>
   </g>
   <g id="line2d_31">
    <path clip-path="url(#pede5befbaf)" d="M 896.001186 146.982857 
L 896.001186 30.497143 
" style="fill:none;stroke:#00bfbf;stroke-linecap:square;stroke-width:3;"/>
   </g>
   <g id="line2d_32">
    <path clip-path="url(#pede5befbaf)" d="M 915.850988 146.982857 
L 915.850988 30.497143 
" style="fill:none;stroke:#00bfbf;stroke-linecap:square;stroke-width:3;"/>
   </g>
   <g id="line2d_33">
    <path clip-path="url(#pede5befbaf)" d="M 816.601976 146.982857 
L 896.001186 146.982857 
" style="fill:none;stroke:#00bfbf;stroke-linecap:square;stroke-width:3;"/>
   </g>
   <g id="line2d_34">
    <path clip-path="url(#pede5befbaf)" d="M 915.850988 146.982857 
L 995.250198 146.982857 
" style="fill:none;stroke:#00bfbf;stroke-linecap:square;stroke-width:3;"/>
   </g>
   <g id="line2d_35">
    <path clip-path="url(#pede5befbaf)" d="M 816.601976 30.497143 
L 896.001186 30.497143 
" style="fill:none;stroke:#00bfbf;stroke-linecap:square;stroke-width:3;"/>
   </g>
   <g id="line2d_36">
    <path clip-path="url(#pede5befbaf)" d="M 915.850988 30.497143 
L 995.250198 30.497143 
" style="fill:none;stroke:#00bfbf;stroke-linecap:square;stroke-width:3;"/>
   </g>
  </g>
 </g>
 <defs>
  <clipPath id="p917640cf50">
   <rect height="163.08" width="218.347826" x="10.7" y="7.2"/>
  </clipPath>
  <clipPath id="pddde263f21">
   <rect height="163.08" width="218.347826" x="272.717391" y="7.2"/>
  </clipPath>
  <clipPath id="p9777914569">
   <rect height="163.08" width="218.347826" x="534.734783" y="7.2"/>
  </clipPath>
  <clipPath id="pede5befbaf">
   <rect height="163.08" width="218.347826" x="796.752174" y="7.2"/>
  </clipPath>
 </defs>
</svg>
