<?xml version="1.0" encoding="utf-8" standalone="no"?>
<!DOCTYPE svg PUBLIC "-//W3C//DTD SVG 1.1//EN"
  "http://www.w3.org/Graphics/SVG/1.1/DTD/svg11.dtd">
<svg height="328.914062pt" version="1.1" viewBox="0 0 309.94375 328.914062" width="309.94375pt" xmlns="http://www.w3.org/2000/svg" xmlns:xlink="http://www.w3.org/1999/xlink">
 <metadata>
  <rdf:RDF xmlns:cc="http://creativecommons.org/ns#" xmlns:dc="http://purl.org/dc/elements/1.1/" xmlns:rdf="http://www.w3.org/1999/02/22-rdf-syntax-ns#">
   <cc:Work>
    <dc:type rdf:resource="http://purl.org/dc/dcmitype/StillImage"/>
    <dc:date>2023-02-10T07:34:24.837298</dc:date>
    <dc:format>image/svg+xml</dc:format>
    <dc:creator>
     <cc:Agent>
      <dc:title>Matplotlib v3.4.3, https://matplotlib.org/</dc:title>
     </cc:Agent>
    </dc:creator>
   </cc:Work>
  </rdf:RDF>
 </metadata>
 <defs>
  <style type="text/css">*{stroke-linecap:butt;stroke-linejoin:round;}</style>
 </defs>
 <g id="figure_1">
  <g id="patch_1">
   <path d="M 0 328.914062 
L 309.94375 328.914062 
L 309.94375 0 
L 0 0 
z
" style="fill:none;"/>
  </g>
  <g id="axes_1">
   <g id="patch_2">
    <path d="M 23.74375 300.196875 
L 302.74375 300.196875 
L 302.74375 28.396875 
L 23.74375 28.396875 
z
" style="fill:none;"/>
   </g>
   <g id="PolyCollection_1">
    <path clip-path="url(#p3894cbd86e)" d="M 23.74375 300.196875 
L 23.74375 245.836875 
L 79.54375 245.836875 
L 79.54375 300.196875 
L 23.74375 300.196875 
z
" style="fill:#0b0000;"/>
    <path clip-path="url(#p3894cbd86e)" d="M 79.54375 300.196875 
L 79.54375 245.836875 
L 135.34375 245.836875 
L 135.34375 300.196875 
L 79.54375 300.196875 
z
" style="fill:#0b0000;"/>
    <path clip-path="url(#p3894cbd86e)" d="M 135.34375 300.196875 
L 135.34375 245.836875 
L 191.14375 245.836875 
L 191.14375 300.196875 
L 135.34375 300.196875 
z
" style="fill:#0b0000;"/>
    <path clip-path="url(#p3894cbd86e)" d="M 191.14375 300.196875 
L 191.14375 245.836875 
L 246.94375 245.836875 
L 246.94375 300.196875 
L 191.14375 300.196875 
z
" style="fill:#0b0000;"/>
    <path clip-path="url(#p3894cbd86e)" d="M 246.94375 300.196875 
L 246.94375 245.836875 
L 302.74375 245.836875 
L 302.74375 300.196875 
L 246.94375 300.196875 
z
" style="fill:#0b0000;"/>
    <path clip-path="url(#p3894cbd86e)" d="M 23.74375 245.836875 
L 23.74375 191.476875 
L 79.54375 191.476875 
L 79.54375 245.836875 
L 23.74375 245.836875 
z
" style="fill:#0b0000;"/>
    <path clip-path="url(#p3894cbd86e)" d="M 79.54375 245.836875 
L 79.54375 191.476875 
L 135.34375 191.476875 
L 135.34375 245.836875 
L 79.54375 245.836875 
z
" style="fill:#0b0000;"/>
    <path clip-path="url(#p3894cbd86e)" d="M 135.34375 245.836875 
L 135.34375 191.476875 
L 191.14375 191.476875 
L 191.14375 245.836875 
L 135.34375 245.836875 
z
" style="fill:#0b0000;"/>
    <path clip-path="url(#p3894cbd86e)" d="M 191.14375 245.836875 
L 191.14375 191.476875 
L 246.94375 191.476875 
L 246.94375 245.836875 
L 191.14375 245.836875 
z
" style="fill:#0b0000;"/>
    <path clip-path="url(#p3894cbd86e)" d="M 246.94375 245.836875 
L 246.94375 191.476875 
L 302.74375 191.476875 
L 302.74375 245.836875 
L 246.94375 245.836875 
z
" style="fill:#0b0000;"/>
    <path clip-path="url(#p3894cbd86e)" d="M 23.74375 191.476875 
L 23.74375 137.116875 
L 79.54375 137.116875 
L 79.54375 191.476875 
L 23.74375 191.476875 
z
" style="fill:#0b0000;"/>
    <path clip-path="url(#p3894cbd86e)" d="M 79.54375 191.476875 
L 79.54375 137.116875 
L 135.34375 137.116875 
L 135.34375 191.476875 
L 79.54375 191.476875 
z
" style="fill:#0b0000;"/>
    <path clip-path="url(#p3894cbd86e)" d="M 135.34375 191.476875 
L 135.34375 137.116875 
L 191.14375 137.116875 
L 191.14375 191.476875 
L 135.34375 191.476875 
z
" style="fill:#0b0000;"/>
    <path clip-path="url(#p3894cbd86e)" d="M 191.14375 191.476875 
L 191.14375 137.116875 
L 246.94375 137.116875 
L 246.94375 191.476875 
L 191.14375 191.476875 
z
" style="fill:#0b0000;"/>
    <path clip-path="url(#p3894cbd86e)" d="M 246.94375 191.476875 
L 246.94375 137.116875 
L 302.74375 137.116875 
L 302.74375 191.476875 
L 246.94375 191.476875 
z
" style="fill:#0b0000;"/>
    <path clip-path="url(#p3894cbd86e)" d="M 23.74375 137.116875 
L 23.74375 82.756875 
L 79.54375 82.756875 
L 79.54375 137.116875 
L 23.74375 137.116875 
z
" style="fill:#0b0000;"/>
    <path clip-path="url(#p3894cbd86e)" d="M 79.54375 137.116875 
L 79.54375 82.756875 
L 135.34375 82.756875 
L 135.34375 137.116875 
L 79.54375 137.116875 
z
" style="fill:#0b0000;"/>
    <path clip-path="url(#p3894cbd86e)" d="M 135.34375 137.116875 
L 135.34375 82.756875 
L 191.14375 82.756875 
L 191.14375 137.116875 
L 135.34375 137.116875 
z
" style="fill:#0b0000;"/>
    <path clip-path="url(#p3894cbd86e)" d="M 191.14375 137.116875 
L 191.14375 82.756875 
L 246.94375 82.756875 
L 246.94375 137.116875 
L 191.14375 137.116875 
z
" style="fill:#0b0000;"/>
    <path clip-path="url(#p3894cbd86e)" d="M 246.94375 137.116875 
L 246.94375 82.756875 
L 302.74375 82.756875 
L 302.74375 137.116875 
L 246.94375 137.116875 
z
" style="fill:#0b0000;"/>
    <path clip-path="url(#p3894cbd86e)" d="M 23.74375 82.756875 
L 23.74375 28.396875 
L 79.54375 28.396875 
L 79.54375 82.756875 
L 23.74375 82.756875 
z
" style="fill:#0b0000;"/>
    <path clip-path="url(#p3894cbd86e)" d="M 79.54375 82.756875 
L 79.54375 28.396875 
L 135.34375 28.396875 
L 135.34375 82.756875 
L 79.54375 82.756875 
z
" style="fill:#0b0000;"/>
    <path clip-path="url(#p3894cbd86e)" d="M 135.34375 82.756875 
L 135.34375 28.396875 
L 191.14375 28.396875 
L 191.14375 82.756875 
L 135.34375 82.756875 
z
" style="fill:#0b0000;"/>
    <path clip-path="url(#p3894cbd86e)" d="M 191.14375 82.756875 
L 191.14375 28.396875 
L 246.94375 28.396875 
L 246.94375 82.756875 
L 191.14375 82.756875 
z
" style="fill:#0b0000;"/>
    <path clip-path="url(#p3894cbd86e)" d="M 246.94375 82.756875 
L 246.94375 28.396875 
L 302.74375 28.396875 
L 302.74375 82.756875 
L 246.94375 82.756875 
z
" style="fill:#0b0000;"/>
   </g>
   <g id="PatchCollection_1">
    <path clip-path="url(#p3894cbd86e)" d="M 153.94375 155.236875 
L 135.34375 164.296875 
L 153.94375 173.356875 
z
" style="fill:#790000;"/>
    <path clip-path="url(#p3894cbd86e)" d="M 172.54375 227.716875 
L 153.94375 227.716875 
L 163.24375 245.836875 
z
" style="fill:#ea0000;"/>
    <path clip-path="url(#p3894cbd86e)" d="M 209.74375 209.596875 
L 191.14375 218.656875 
L 209.74375 227.716875 
z
" style="fill:#ff5c00;"/>
    <path clip-path="url(#p3894cbd86e)" d="M 246.94375 273.016875 
L 228.34375 263.956875 
L 228.34375 282.076875 
z
" style="fill:#ffca00;"/>
    <path clip-path="url(#p3894cbd86e)" d="M 284.14375 282.076875 
L 265.54375 282.076875 
L 274.84375 300.196875 
z
" style="fill:#ffff5a;"/>
    <path clip-path="url(#p3894cbd86e)" d="M 284.14375 227.716875 
L 265.54375 227.716875 
L 274.84375 245.836875 
z
" style="fill:#ffffff;"/>
   </g>
   <g id="matplotlib.axis_1">
    <g id="xtick_1">
     <g id="line2d_1">
      <defs>
       <path d="M 0 0 
L 0 3.5 
" id="m9c3d2172c9" style="stroke:#000000;stroke-width:0.8;"/>
      </defs>
      <g>
       <use style="stroke:#000000;stroke-width:0.8;" x="51.64375" xlink:href="#m9c3d2172c9" y="300.196875"/>
      </g>
     </g>
     <g id="text_1">
      <!-- 1 -->
      <g transform="translate(46.871875 318.594531)scale(0.15 -0.15)">
       <defs>
        <path d="M 794 531 
L 1825 531 
L 1825 4091 
L 703 3866 
L 703 4441 
L 1819 4666 
L 2450 4666 
L 2450 531 
L 3481 531 
L 3481 0 
L 794 0 
L 794 531 
z
" id="DejaVuSans-31" transform="scale(0.015625)"/>
       </defs>
       <use xlink:href="#DejaVuSans-31"/>
      </g>
     </g>
    </g>
    <g id="xtick_2">
     <g id="line2d_2">
      <g>
       <use style="stroke:#000000;stroke-width:0.8;" x="163.24375" xlink:href="#m9c3d2172c9" y="300.196875"/>
      </g>
     </g>
     <g id="text_2">
      <!-- 3 -->
      <g transform="translate(158.471875 318.594531)scale(0.15 -0.15)">
       <defs>
        <path d="M 2597 2516 
Q 3050 2419 3304 2112 
Q 3559 1806 3559 1356 
Q 3559 666 3084 287 
Q 2609 -91 1734 -91 
Q 1441 -91 1130 -33 
Q 819 25 488 141 
L 488 750 
Q 750 597 1062 519 
Q 1375 441 1716 441 
Q 2309 441 2620 675 
Q 2931 909 2931 1356 
Q 2931 1769 2642 2001 
Q 2353 2234 1838 2234 
L 1294 2234 
L 1294 2753 
L 1863 2753 
Q 2328 2753 2575 2939 
Q 2822 3125 2822 3475 
Q 2822 3834 2567 4026 
Q 2313 4219 1838 4219 
Q 1578 4219 1281 4162 
Q 984 4106 628 3988 
L 628 4550 
Q 988 4650 1302 4700 
Q 1616 4750 1894 4750 
Q 2613 4750 3031 4423 
Q 3450 4097 3450 3541 
Q 3450 3153 3228 2886 
Q 3006 2619 2597 2516 
z
" id="DejaVuSans-33" transform="scale(0.015625)"/>
       </defs>
       <use xlink:href="#DejaVuSans-33"/>
      </g>
     </g>
    </g>
    <g id="xtick_3">
     <g id="line2d_3">
      <g>
       <use style="stroke:#000000;stroke-width:0.8;" x="274.84375" xlink:href="#m9c3d2172c9" y="300.196875"/>
      </g>
     </g>
     <g id="text_3">
      <!-- 5 -->
      <g transform="translate(270.071875 318.594531)scale(0.15 -0.15)">
       <defs>
        <path d="M 691 4666 
L 3169 4666 
L 3169 4134 
L 1269 4134 
L 1269 2991 
Q 1406 3038 1543 3061 
Q 1681 3084 1819 3084 
Q 2600 3084 3056 2656 
Q 3513 2228 3513 1497 
Q 3513 744 3044 326 
Q 2575 -91 1722 -91 
Q 1428 -91 1123 -41 
Q 819 9 494 109 
L 494 744 
Q 775 591 1075 516 
Q 1375 441 1709 441 
Q 2250 441 2565 725 
Q 2881 1009 2881 1497 
Q 2881 1984 2565 2268 
Q 2250 2553 1709 2553 
Q 1456 2553 1204 2497 
Q 953 2441 691 2322 
L 691 4666 
z
" id="DejaVuSans-35" transform="scale(0.015625)"/>
       </defs>
       <use xlink:href="#DejaVuSans-35"/>
      </g>
     </g>
    </g>
   </g>
   <g id="matplotlib.axis_2">
    <g id="ytick_1">
     <g id="line2d_4">
      <defs>
       <path d="M 0 0 
L -3.5 0 
" id="m3355d2d4b9" style="stroke:#000000;stroke-width:0.8;"/>
      </defs>
      <g>
       <use style="stroke:#000000;stroke-width:0.8;" x="23.74375" xlink:href="#m3355d2d4b9" y="273.016875"/>
      </g>
     </g>
     <g id="text_4">
      <!-- 1 -->
      <g transform="translate(7.2 278.715703)scale(0.15 -0.15)">
       <use xlink:href="#DejaVuSans-31"/>
      </g>
     </g>
    </g>
    <g id="ytick_2">
     <g id="line2d_5">
      <g>
       <use style="stroke:#000000;stroke-width:0.8;" x="23.74375" xlink:href="#m3355d2d4b9" y="164.296875"/>
      </g>
     </g>
     <g id="text_5">
      <!-- 3 -->
      <g transform="translate(7.2 169.995703)scale(0.15 -0.15)">
       <use xlink:href="#DejaVuSans-33"/>
      </g>
     </g>
    </g>
    <g id="ytick_3">
     <g id="line2d_6">
      <g>
       <use style="stroke:#000000;stroke-width:0.8;" x="23.74375" xlink:href="#m3355d2d4b9" y="55.576875"/>
      </g>
     </g>
     <g id="text_6">
      <!-- 5 -->
      <g transform="translate(7.2 61.275703)scale(0.15 -0.15)">
       <use xlink:href="#DejaVuSans-35"/>
      </g>
     </g>
    </g>
   </g>
   <g id="line2d_7">
    <path clip-path="url(#p3894cbd86e)" d="M 79.54375 300.196875 
L 79.54375 28.396875 
" style="fill:none;stroke:#ffffff;stroke-linecap:square;stroke-width:0.5;"/>
   </g>
   <g id="line2d_8">
    <path clip-path="url(#p3894cbd86e)" d="M 23.74375 245.836875 
L 302.74375 245.836875 
" style="fill:none;stroke:#ffffff;stroke-linecap:square;stroke-width:0.5;"/>
   </g>
   <g id="line2d_9">
    <path clip-path="url(#p3894cbd86e)" d="M 135.34375 300.196875 
L 135.34375 28.396875 
" style="fill:none;stroke:#ffffff;stroke-linecap:square;stroke-width:0.5;"/>
   </g>
   <g id="line2d_10">
    <path clip-path="url(#p3894cbd86e)" d="M 23.74375 191.476875 
L 302.74375 191.476875 
" style="fill:none;stroke:#ffffff;stroke-linecap:square;stroke-width:0.5;"/>
   </g>
   <g id="line2d_11">
    <path clip-path="url(#p3894cbd86e)" d="M 191.14375 300.196875 
L 191.14375 28.396875 
" style="fill:none;stroke:#ffffff;stroke-linecap:square;stroke-width:0.5;"/>
   </g>
   <g id="line2d_12">
    <path clip-path="url(#p3894cbd86e)" d="M 23.74375 137.116875 
L 302.74375 137.116875 
" style="fill:none;stroke:#ffffff;stroke-linecap:square;stroke-width:0.5;"/>
   </g>
   <g id="line2d_13">
    <path clip-path="url(#p3894cbd86e)" d="M 246.94375 300.196875 
L 246.94375 28.396875 
" style="fill:none;stroke:#ffffff;stroke-linecap:square;stroke-width:0.5;"/>
   </g>
   <g id="line2d_14">
    <path clip-path="url(#p3894cbd86e)" d="M 23.74375 82.756875 
L 302.74375 82.756875 
" style="fill:none;stroke:#ffffff;stroke-linecap:square;stroke-width:0.5;"/>
   </g>
   <g id="patch_3">
    <path d="M 23.74375 300.196875 
L 23.74375 28.396875 
" style="fill:none;stroke:#000000;stroke-linecap:square;stroke-linejoin:miter;stroke-width:0.8;"/>
   </g>
   <g id="patch_4">
    <path d="M 302.74375 300.196875 
L 302.74375 28.396875 
" style="fill:none;stroke:#000000;stroke-linecap:square;stroke-linejoin:miter;stroke-width:0.8;"/>
   </g>
   <g id="patch_5">
    <path d="M 23.74375 300.196875 
L 302.74375 300.196875 
" style="fill:none;stroke:#000000;stroke-linecap:square;stroke-linejoin:miter;stroke-width:0.8;"/>
   </g>
   <g id="patch_6">
    <path d="M 23.74375 28.396875 
L 302.74375 28.396875 
" style="fill:none;stroke:#000000;stroke-linecap:square;stroke-linejoin:miter;stroke-width:0.8;"/>
   </g>
   <g id="text_7">
    <!-- $e_5$ -->
    <g transform="translate(152.34375 22.396875)scale(0.2 -0.2)">
     <defs>
      <path d="M 3078 2063 
Q 3088 2113 3092 2166 
Q 3097 2219 3097 2272 
Q 3097 2653 2873 2875 
Q 2650 3097 2266 3097 
Q 1838 3097 1509 2826 
Q 1181 2556 1013 2059 
L 3078 2063 
z
M 3578 1613 
L 903 1613 
Q 884 1494 878 1425 
Q 872 1356 872 1306 
Q 872 872 1139 634 
Q 1406 397 1894 397 
Q 2269 397 2603 481 
Q 2938 566 3225 728 
L 3116 159 
Q 2806 34 2476 -28 
Q 2147 -91 1806 -91 
Q 1078 -91 686 257 
Q 294 606 294 1247 
Q 294 1794 489 2264 
Q 684 2734 1063 3103 
Q 1306 3334 1642 3459 
Q 1978 3584 2356 3584 
Q 2950 3584 3301 3228 
Q 3653 2872 3653 2272 
Q 3653 2128 3634 1964 
Q 3616 1800 3578 1613 
z
" id="DejaVuSans-Oblique-65" transform="scale(0.015625)"/>
     </defs>
     <use xlink:href="#DejaVuSans-Oblique-65"/>
     <use transform="translate(61.523438 -16.40625)scale(0.7)" xlink:href="#DejaVuSans-35"/>
    </g>
   </g>
  </g>
 </g>
 <defs>
  <clipPath id="p3894cbd86e">
   <rect height="271.8" width="279" x="23.74375" y="28.396875"/>
  </clipPath>
 </defs>
</svg>
